<svg width="150" height="41" viewBox="0 0 150 41" fill="none" xmlns="http://www.w3.org/2000/svg">
<g clip-path="url(#clip0_2096_1164)">
<path d="M40.3624 20.4998L33.6446 27.1792L31.3164 24.8551L35.6876 20.4998L31.3164 16.1536L33.6446 13.8296L40.3624 20.4998Z" fill="white"/>
<path d="M9.81945 24.8551L7.49123 27.1792L0.773438 20.4998L7.49123 13.8296L9.82865 16.1536L5.44828 20.4998L9.81945 24.8551Z" fill="white"/>
<path d="M29.6231 9.82179L20.5679 18.8161L11.5127 9.82179L20.5679 0.818359L29.6231 9.82179Z" fill="white"/>
<path d="M29.6231 31.1865L20.5679 40.1808L11.5127 31.1865L20.5679 22.1831L29.6231 31.1865Z" fill="white"/>
<path d="M50.2646 8.92501H65.0346V13.0607H54.6542V18.6879H63.9855V22.8236H54.6542V32.0649H50.2646C50.2646 32.0741 50.2646 8.92501 50.2646 8.92501ZM70.0959 13.7744C69.3597 13.7836 68.6512 13.4908 68.145 12.9601C67.6113 12.4477 67.326 11.7523 67.326 11.0203C67.3168 10.2883 67.6113 9.59295 68.145 9.08971C68.6604 8.57732 69.3689 8.28452 70.0959 8.29367C70.8229 8.28452 71.5223 8.56817 72.0377 9.08971C72.5622 9.59295 72.8475 10.2975 72.8383 11.0203C72.8475 11.7523 72.5622 12.4477 72.0377 12.9601C71.5223 13.4999 70.8229 13.7836 70.0959 13.7744ZM67.9426 15.5861H72.2033V32.0741H67.9334L67.9426 15.5861ZM76.0315 15.5861H80.0346V17.6539H80.2923C80.8168 16.8579 81.5346 16.1991 82.3904 15.7599C83.3015 15.2933 84.3137 15.0462 85.3352 15.0645C86.4119 15.0371 87.4794 15.3207 88.3904 15.888C89.2094 16.3821 89.8536 17.105 90.2401 17.9742C90.7923 17.105 91.5653 16.373 92.4671 15.8697C93.4886 15.3116 94.6389 15.0279 95.7984 15.0554C97.4272 14.9456 99.01 15.5861 100.114 16.7847C101.163 18.1114 101.688 19.7767 101.596 21.4603V32.0649H97.3628V22.2472C97.418 21.3871 97.1604 20.5361 96.6266 19.8499C96.1113 19.2735 95.3659 18.9715 94.5929 19.0081C93.5438 18.9807 92.5499 19.4748 91.9426 20.3165C91.234 21.323 90.8935 22.5308 90.9487 23.7569V32.0649H86.6972V22.2472C86.7524 21.3779 86.4855 20.527 85.9334 19.8499C85.372 19.2643 84.5806 18.9624 83.7708 19.0081C82.7677 18.9898 81.8107 19.4839 81.2493 20.3165C80.5683 21.3322 80.2278 22.54 80.2923 23.7569V32.0741H76.0315V15.5861ZM105.222 15.5861H109.225V17.5899H109.482C109.979 16.8396 110.66 16.2174 111.47 15.7965C112.381 15.3024 113.421 15.0462 114.461 15.0645C115.897 15.0462 117.314 15.4305 118.538 16.1808C119.771 16.9311 120.765 18.0108 121.418 19.2918C122.127 20.7008 122.486 22.2563 122.458 23.8209C122.486 25.3947 122.136 26.9593 121.418 28.3592C120.765 29.6402 119.771 30.7108 118.538 31.4702C117.314 32.2205 115.897 32.6048 114.461 32.5865C113.412 32.6048 112.381 32.3577 111.452 31.8819C110.651 31.4793 109.97 30.8663 109.482 30.1069H109.225L109.482 32.4309V39.0462H105.213V15.5861H105.222ZM113.706 28.6795C114.498 28.6886 115.271 28.469 115.952 28.0665C116.651 27.6547 117.222 27.06 117.608 26.3554C118.032 25.5777 118.243 24.7085 118.225 23.8301C118.243 22.9517 118.032 22.0825 117.608 21.3047C117.222 20.6002 116.651 20.0055 115.952 19.6029C115.271 19.2094 114.498 18.999 113.706 19.0081C112.924 19.0081 112.16 19.2094 111.498 19.6029C110.798 20.0055 110.228 20.6002 109.841 21.3047C109.418 22.0825 109.206 22.9517 109.225 23.8301C109.206 24.7085 109.418 25.5777 109.841 26.3554C110.228 27.06 110.798 27.6547 111.498 28.0665C112.16 28.469 112.924 28.6795 113.706 28.6795ZM125.357 8.92501H129.617V32.0832H125.347L125.357 8.92501ZM141.194 32.5956C139.639 32.6231 138.102 32.2296 136.74 31.461C135.433 30.7291 134.357 29.6494 133.63 28.3501C132.866 26.9776 132.479 25.4313 132.507 23.8758C132.498 22.3478 132.875 20.8381 133.611 19.4931C134.329 18.1663 135.378 17.0501 136.676 16.2632C137.982 15.4671 139.501 15.0462 141.038 15.0645C142.584 15.0279 144.12 15.4031 145.464 16.1625C146.679 16.8671 147.654 17.9193 148.271 19.1728C148.924 20.4904 149.246 21.9452 149.228 23.4092C149.228 23.885 149.2 24.3608 149.127 24.8274H136.666C136.795 25.9894 137.357 27.06 138.24 27.8286C139.087 28.5148 140.154 28.8716 141.249 28.8442C142.133 28.8716 143.007 28.652 143.771 28.2128C144.47 27.8011 145.041 27.2155 145.446 26.511L148.897 28.1945C147.406 31.0218 144.406 32.7329 141.194 32.5956ZM145.133 21.8354C145.078 21.2864 144.884 20.7557 144.562 20.2982C144.203 19.7676 143.725 19.3375 143.163 19.0356C142.519 18.6879 141.792 18.514 141.065 18.5323C140.117 18.5049 139.188 18.8251 138.443 19.4199C137.688 20.0512 137.136 20.893 136.869 21.8263L145.133 21.8354Z" fill="white"/>
</g>
<defs>
<clipPath id="clip0_2096_1164">
<rect width="150" height="39.3443" fill="white" transform="translate(0 0.827637)"/>
</clipPath>
</defs>
</svg>
