<svg width="129" height="80" viewBox="0 0 129 80" fill="none" xmlns="http://www.w3.org/2000/svg">
<g clip-path="url(#clip0_3609_11160)">
<path opacity="0.8" fill-rule="evenodd" clip-rule="evenodd" d="M25.9155 14.8648C27.2415 10.6728 28.4755 8.06277 29.6155 7.03377C32.7725 4.18577 37.1375 5.73577 38.0655 5.95777C41.3255 6.73977 40.2655 1.59377 43.0625 0.547773C44.9265 -0.149227 46.4595 0.702773 47.6625 3.10377C48.7275 0.863773 50.3505 -0.162227 52.5315 0.0207726C55.8035 0.297773 56.9485 11.3488 61.4445 8.92977C65.9415 6.50977 71.4545 5.95677 73.8095 9.55277C74.3185 10.3308 74.5135 9.12377 77.9755 5.00277C81.4375 0.880772 84.8895 -0.935228 91.9715 1.46477C95.1915 2.55477 97.8395 5.50977 99.9185 10.3288C99.9185 17.2068 104.978 21.2788 115.096 22.5418C130.275 24.4368 118.493 40.7558 99.9185 45.5348C81.3425 50.3148 38.5755 52.8948 15.3675 40.8188C-0.10453 32.7698 3.41147 24.1178 25.9145 14.8648H25.9155Z" fill="url(#paint0_linear_3609_11160)"/>
<path d="M63.9772 75.6448C79.434 75.6448 91.9642 72.7445 91.9642 69.1668C91.9642 65.5891 79.434 62.6888 63.9772 62.6888C48.5204 62.6888 35.9902 65.5891 35.9902 69.1668C35.9902 72.7445 48.5204 75.6448 63.9772 75.6448Z" fill="url(#paint1_linear_3609_11160)"/>
<path opacity="0.675" fill-rule="evenodd" clip-rule="evenodd" d="M111.226 77.2498C90.1833 82.5278 18.3563 76.4908 10.7113 73.7338C6.99029 72.3908 3.63629 69.8658 0.650294 66.1578C0.316094 65.7432 0.106028 65.2425 0.0443709 64.7135C-0.0172861 64.1846 0.0719822 63.649 0.30186 63.1686C0.531738 62.6882 0.892843 62.2827 1.34345 61.9989C1.79405 61.7151 2.31576 61.5646 2.84829 61.5648H128.362C130.967 68.5028 125.255 73.7308 111.226 77.2498Z" fill="url(#paint2_linear_3609_11160)"/>
<path d="M85.4526 51.8058L75.8816 40.6138C75.6553 40.3468 75.374 40.1317 75.057 39.9833C74.74 39.8349 74.3947 39.7566 74.0446 39.7538H53.4646C52.7586 39.7538 52.0876 40.0778 51.6276 40.6138L42.0566 51.8058V57.9498H85.4526V51.8058Z" fill="url(#paint3_linear_3609_11160)"/>
<path d="M82.7415 58.1758L74.3645 48.4278C74.162 48.1976 73.9124 48.0137 73.6325 47.8886C73.3526 47.7635 73.0491 47.7001 72.7425 47.7028H54.7685C54.1515 47.7028 53.5485 47.9588 53.1465 48.4278L44.7695 58.1758V63.5298H82.7415V58.1758Z" fill="url(#paint4_linear_3609_11160)"/>
<path d="M85.4526 64.9908C85.4526 65.8438 85.0686 66.6108 84.4626 67.1248L84.3396 67.2248C83.8591 67.589 83.2726 67.7857 82.6696 67.7848H44.8406C44.4986 67.7848 44.1716 67.7228 43.8696 67.6088L43.7196 67.5488C43.2248 67.3286 42.8043 66.9697 42.5092 66.5155C42.214 66.0614 42.0568 65.5314 42.0566 64.9898V51.8728H52.5856C53.7486 51.8728 54.6856 52.8298 54.6856 53.9908V54.0058C54.6856 55.1678 55.6336 56.1048 56.7966 56.1048H70.7126C71.2717 56.1042 71.8077 55.8822 72.2033 55.4873C72.599 55.0924 72.8221 54.5568 72.8236 53.9978C72.8236 52.8318 73.7616 51.8728 74.9236 51.8728H85.4536L85.4526 64.9908Z" fill="url(#paint5_linear_3609_11160)"/>
</g>
<defs>
<linearGradient id="paint0_linear_3609_11160" x1="66.7063" y1="36.95" x2="66.7063" y2="-8.73348" gradientUnits="userSpaceOnUse">
<stop stop-color="#DEDEDE" stop-opacity="0"/>
<stop offset="1" stop-color="#A9A9A9" stop-opacity="0.3"/>
</linearGradient>
<linearGradient id="paint1_linear_3609_11160" x1="61.061" y1="75.6448" x2="61.061" y2="62.6888" gradientUnits="userSpaceOnUse">
<stop stop-color="white" stop-opacity="0"/>
<stop offset="1" stop-color="#96A1C5" stop-opacity="0.373"/>
</linearGradient>
<linearGradient id="paint2_linear_3609_11160" x1="64.4998" y1="79.3432" x2="64.4998" y2="58.0669" gradientUnits="userSpaceOnUse">
<stop stop-color="white" stop-opacity="0"/>
<stop offset="1" stop-color="#919191" stop-opacity="0.15"/>
</linearGradient>
<linearGradient id="paint3_linear_3609_11160" x1="63.7546" y1="39.7538" x2="63.7546" y2="47.9329" gradientUnits="userSpaceOnUse">
<stop stop-color="#5389F5"/>
<stop offset="1" stop-color="#416FDC"/>
</linearGradient>
<linearGradient id="paint4_linear_3609_11160" x1="68.8229" y1="63.5298" x2="68.8229" y2="46.8613" gradientUnits="userSpaceOnUse">
<stop stop-color="#DCE9FF"/>
<stop offset="1" stop-color="#B6CFFF"/>
</linearGradient>
<linearGradient id="paint5_linear_3609_11160" x1="63.7551" y1="51.8728" x2="63.7551" y2="67.7848" gradientUnits="userSpaceOnUse">
<stop stop-color="#7CA5F7"/>
<stop offset="1" stop-color="#C4D6FC"/>
</linearGradient>
<clipPath id="clip0_3609_11160">
<rect width="128.949" height="79.3432" fill="white" transform="translate(0.0253906)"/>
</clipPath>
</defs>
</svg>
