<svg width="155" height="41" viewBox="0 0 155 41" fill="none" xmlns="http://www.w3.org/2000/svg">
<g clip-path="url(#clip0_14851_16632)">
<mask id="mask0_14851_16632" style="mask-type:luminance" maskUnits="userSpaceOnUse" x="0" y="0" width="40" height="41">
<path d="M5.8238 34.7998C9.55999 38.4539 14.5783 40.5 19.8044 40.5C25.0304 40.5 30.0488 38.4539 33.785 34.7998H5.8238ZM0.01404 23.4002C0.300786 25.3764 0.883919 27.2981 1.74377 29.1005H21.5093C22.2652 29.1005 22.9901 28.8002 23.5246 28.2657C24.0591 27.7312 24.3594 27.0062 24.3594 26.2503C24.3594 25.4944 24.0591 24.7695 23.5246 24.235C22.9901 23.7005 22.2652 23.4002 21.5093 23.4002H0.01404ZM32.8761 23.4002C32.1202 23.4002 31.3953 23.7005 30.8608 24.235C30.3263 24.7695 30.026 25.4944 30.026 26.2503C30.026 27.0062 30.3263 27.7312 30.8608 28.2657C31.3953 28.8002 32.1202 29.1005 32.8761 29.1005H37.865C38.7245 27.2981 39.3073 25.3764 39.5938 23.4002H32.8761ZM1.69697 11.9997C0.848385 13.8038 0.276315 15.7255 0 17.7H6.73172C7.48762 17.7 8.21256 17.3997 8.74706 16.8652C9.28156 16.3307 9.58184 15.6057 9.58184 14.8498C9.58184 14.0939 9.28156 13.369 8.74706 12.8345C8.21256 12.3 7.48762 11.9997 6.73172 11.9997H1.69697ZM18.4317 11.9997C17.6758 11.9997 16.9509 12.3 16.4164 12.8345C15.8819 13.369 15.5816 14.0939 15.5816 14.8498C15.5816 15.6057 15.8819 16.3307 16.4164 16.8652C16.9509 17.3997 17.6758 17.7 18.4317 17.7H39.6078C39.3314 15.7255 38.7593 13.8039 37.9108 11.9997H18.4317ZM19.8039 0.500015C14.5768 0.493949 9.55639 2.54097 5.8238 6.20026H33.785C30.0521 2.54074 25.0313 0.493703 19.8039 0.500015Z" fill="white"/>
</mask>
<g mask="url(#mask0_14851_16632)">
<path d="M5.82422 5.82031L6.27724 6.20033H5.82422V5.82031Z" fill="white"/>
<path d="M5.82418 5.46806L5.84664 5.44092L6.75082 6.20001H6.27627L5.82324 5.82L5.82418 5.46806Z" fill="white"/>
<path d="M5.84668 5.44103L6.0423 5.20703L7.22541 6.19919H6.75086L5.84668 5.44103Z" fill="white"/>
<path d="M6.04199 5.20812L6.23762 4.97412L7.69871 6.20028H7.22416L6.04199 5.20812Z" fill="white"/>
<path d="M6.2373 4.97423L6.43293 4.74023L8.17202 6.19946H7.69747L6.2373 4.97423Z" fill="white"/>
<path d="M6.43359 4.74084L6.62922 4.50684L8.64724 6.20006H8.17268L6.43359 4.74084Z" fill="white"/>
<path d="M6.63086 4.50597L6.82648 4.27197L9.12249 6.19733H8.64794L6.63086 4.50597Z" fill="white"/>
<path d="M6.82617 4.27306L7.0218 4.03906L9.59673 6.19935H9.12218L6.82617 4.27306Z" fill="white"/>
<path d="M7.02246 4.04015L7.21808 3.80615L10.071 6.19951H9.59647L7.02246 4.04015Z" fill="white"/>
<path d="M7.21875 3.80578L7.41437 3.57178L10.5453 6.19913H10.0707L7.21875 3.80578Z" fill="white"/>
<path d="M7.41406 3.57287L7.60969 3.33887L11.0195 6.20022H10.5459L7.41406 3.57287Z" fill="white"/>
<path d="M7.61035 3.33898L7.80598 3.10498L11.4938 6.1994H11.0193L7.61035 3.33898Z" fill="white"/>
<path d="M7.80664 3.10607L8.00226 2.87207L11.969 6.20049H11.4945L7.80664 3.10607Z" fill="white"/>
<path d="M8.00195 2.87267L8.19758 2.63867L12.4423 6.20296H11.9678L8.00195 2.87267Z" fill="white"/>
<path d="M8.19824 2.63781L8.39387 2.40381L12.9176 6.20023H12.443L8.19824 2.63781Z" fill="white"/>
<path d="M8.39453 2.4049L8.59016 2.1709L13.3918 6.1957H12.9173L8.39453 2.4049Z" fill="white"/>
<path d="M8.58984 2.17052L8.78547 1.93652L13.8651 6.19907H13.3906L8.58984 2.17052Z" fill="white"/>
<path d="M8.78613 1.93761L8.98176 1.70361L14.3404 6.19642H13.8658L8.78613 1.93761Z" fill="white"/>
<path d="M8.98145 1.7047L9.17707 1.4707L14.8137 6.20032H14.3391L8.98145 1.7047Z" fill="white"/>
<path d="M9.17773 1.47082L9.37336 1.23682L15.2879 6.19762H14.8134L9.17773 1.47082Z" fill="white"/>
<path d="M9.37402 1.23742L9.56965 1.00342L15.7632 6.20009H15.2886L9.37402 1.23742Z" fill="white"/>
<path d="M9.56934 1.00646L9.76496 0.772461L16.2365 6.20127H15.7619L9.56934 1.00646Z" fill="white"/>
<path d="M9.76562 0.766715L9.96125 0.532715L16.7117 6.19552H16.2371L9.76562 0.766715Z" fill="white"/>
<path d="M9.96191 0.535568L9.99186 0.5H10.3925L17.185 6.20025H16.7105L9.96191 0.535568Z" fill="white"/>
<path d="M10.87 0.5L17.6625 6.20025H17.188L10.3936 0.5H10.87Z" fill="white"/>
<path d="M11.3417 0.5L18.1343 6.20025H17.6597L10.8672 0.5H11.3417Z" fill="white"/>
<path d="M11.8163 0.5L18.6089 6.20025H18.1344L11.3418 0.5H11.8163Z" fill="white"/>
<path d="M12.291 0.5L19.0835 6.20025H18.6099L11.8164 0.5H12.291Z" fill="white"/>
<path d="M12.7656 0.5L19.5581 6.20025H19.0836L12.291 0.5H12.7656Z" fill="white"/>
<path d="M13.2402 0.5L20.0327 6.20025H19.5582L12.7656 0.5H13.2402Z" fill="white"/>
<path d="M13.7138 0.5L20.5064 6.20025H20.0318L13.2393 0.5H13.7138Z" fill="white"/>
<path d="M14.1884 0.5L20.981 6.20025H20.5064L13.7139 0.5H14.1884Z" fill="white"/>
<path d="M14.6621 0.5L21.4546 6.20025H20.9801L14.1885 0.5H14.6621Z" fill="white"/>
<path d="M15.1357 0.5L21.9282 6.20025H21.4537L14.6611 0.5H15.1357Z" fill="white"/>
<path d="M15.6103 0.5L22.4029 6.20025H21.9283L15.1357 0.5H15.6103Z" fill="white"/>
<path d="M16.0849 0.5L22.8775 6.20025H22.4029L15.6104 0.5H16.0849Z" fill="white"/>
<path d="M16.5586 0.5L23.3511 6.20025H22.8766L16.085 0.5H16.5586Z" fill="white"/>
<path d="M17.0341 0.5L23.8267 6.20025H23.3521L16.5596 0.5H17.0341Z" fill="white"/>
<path d="M17.5087 0.5L24.3013 6.20025H23.8267L17.0342 0.5H17.5087Z" fill="white"/>
<path d="M17.9833 0.5L24.7759 6.20025H24.2995L17.5088 0.5H17.9833Z" fill="white"/>
<path d="M18.458 0.5L25.2505 6.20025H24.776L17.9834 0.5H18.458Z" fill="white"/>
<path d="M18.9316 0.5L25.7241 6.20025H25.2496L18.457 0.5H18.9316Z" fill="white"/>
<path d="M19.4035 0.5L26.1989 6.20025H25.7244L18.9355 0.5H19.4035Z" fill="white"/>
<path d="M19.8799 0.5L26.6724 6.20025H26.1988L19.4062 0.5H19.8799Z" fill="white"/>
<path d="M20.3544 0.5L27.147 6.20025H26.6724L19.8799 0.5H20.3544Z" fill="white"/>
<path d="M20.829 0.5L27.6216 6.20025H27.1442L20.3545 0.5H20.829Z" fill="white"/>
<path d="M21.3037 0.5L28.0962 6.20025H27.6217L20.8291 0.5H21.3037Z" fill="white"/>
<path d="M21.7783 0.5L28.5708 6.20025H28.0963L21.3037 0.5H21.7783Z" fill="white"/>
<path d="M22.2483 0.5L29.0408 6.20025H28.5663L21.7803 0.5H22.2483Z" fill="white"/>
<path d="M22.7265 0.5L29.5191 6.20025H29.0445L22.252 0.5H22.7265Z" fill="white"/>
<path d="M23.2011 0.5L29.9984 6.20025H29.5238L22.7266 0.5H23.2011Z" fill="white"/>
<path d="M23.6747 0.5L30.4673 6.20025H29.9928L23.2002 0.5H23.6747Z" fill="white"/>
<path d="M24.1494 0.5L30.9419 6.20025H30.4674L23.6748 0.5H24.1494Z" fill="white"/>
<path d="M24.623 0.5L31.4156 6.20025H30.941L24.1494 0.5H24.623Z" fill="white"/>
<path d="M25.0977 0.5L31.8902 6.20025H31.4157L24.625 0.5H25.0977Z" fill="white"/>
<path d="M25.5722 0.5L32.3648 6.20025H31.8902L25.0977 0.5H25.5722Z" fill="white"/>
<path d="M26.0468 0.5L32.8431 6.20025H32.3686L25.5723 0.5H26.0468Z" fill="white"/>
<path d="M26.5204 0.5L33.313 6.20025H32.8385L26.0459 0.5H26.5204Z" fill="white"/>
<path d="M26.9951 0.5L33.7839 6.1965H33.3159L26.5205 0.5H26.9951Z" fill="white"/>
<path d="M27.0822 0.5L33.7849 6.12443V6.19744L26.9951 0.5H27.0822Z" fill="white"/>
<path d="M33.7847 6.12443L27.082 0.5H33.7847V6.12443Z" fill="white"/>
<path d="M15.582 17.5903L15.7121 17.6998H15.582V17.5903Z" fill="white"/>
<path d="M15.582 17.1934L16.1867 17.7007H15.7121L15.582 17.5912V17.1934Z" fill="white"/>
<path d="M15.582 16.7949L16.6612 17.7H16.1867L15.582 17.1927V16.7949Z" fill="white"/>
<path d="M15.582 16.397L17.1358 17.7008H16.6612L15.582 16.7957V16.397Z" fill="white"/>
<path d="M15.582 15.999L17.6094 17.7007H17.1348L15.5811 16.3968L15.582 15.999Z" fill="white"/>
<path d="M15.582 15.6006L18.084 17.7H17.6094L15.582 15.9984V15.6006Z" fill="white"/>
<path d="M15.582 15.2026L18.5585 17.6999H18.084L15.582 15.6004V15.2026Z" fill="white"/>
<path d="M15.582 14.8042L19.0331 17.7002H18.5585L15.582 15.2029V14.8042Z" fill="white"/>
<path d="M15.582 14.4072L19.5066 17.701H19.0321L15.5811 14.805L15.582 14.4072Z" fill="white"/>
<path d="M15.582 14.0083L19.9812 17.6999H19.5067L15.582 14.4061V14.0083Z" fill="white"/>
<path d="M15.582 13.6104L20.4558 17.6997H19.9812L15.582 14.0082V13.6104Z" fill="white"/>
<path d="M15.582 13.2129L20.9303 17.7001H20.4558L15.582 13.6107V13.2129Z" fill="white"/>
<path d="M15.582 12.814L21.4049 17.6999H20.9303L15.582 13.2118V12.814Z" fill="white"/>
<path d="M15.582 12.5446L15.6447 12.4697L21.8785 17.7001H21.4039L15.5811 12.8142L15.582 12.5446Z" fill="white"/>
<path d="M15.6455 12.4694L15.8411 12.2354L22.3538 17.6997H21.8793L15.6455 12.4694Z" fill="white"/>
<path d="M15.8408 12.2355L16.0364 12.0015L22.8271 17.6998H22.3526L15.8408 12.2355Z" fill="white"/>
<path d="M16.0361 12.0024H16.5041L23.2976 17.7027H22.8231L16.0361 12.0024Z" fill="white"/>
<path d="M16.9814 12.0024L23.7749 17.7027H23.3004L16.5078 12.0024H16.9814Z" fill="white"/>
<path d="M17.457 12.0024L24.2505 17.7027H23.7759L16.9824 12.0024H17.457Z" fill="white"/>
<path d="M17.9316 12.0024L24.7251 17.7027H24.2505L17.457 12.0024H17.9316Z" fill="white"/>
<path d="M18.4062 12.0024L25.1997 17.7027H24.7223L17.9316 12.0024H18.4062Z" fill="white"/>
<path d="M18.8808 12.0024L25.6743 17.7027H25.1997L18.4062 12.0024H18.8808Z" fill="white"/>
<path d="M19.3545 12.0024L26.148 17.7027H25.6734L18.8809 12.0024H19.3545Z" fill="white"/>
<path d="M19.8274 12.0024L26.6209 17.7027H26.1463L19.3594 12.0024H19.8274Z" fill="white"/>
<path d="M20.3037 12.0024L27.0972 17.7027H26.6226L19.8291 12.0024H20.3037Z" fill="white"/>
<path d="M20.7773 12.0024L27.5708 17.7027H27.0962L20.3027 12.0024H20.7773Z" fill="white"/>
<path d="M21.2519 12.0024L28.0454 17.7027H27.5671L20.7773 12.0024H21.2519Z" fill="white"/>
<path d="M21.7265 12.0024L28.52 17.7027H28.0455L21.252 12.0024H21.7265Z" fill="white"/>
<path d="M22.2011 12.0024L28.9946 17.7027H28.5201L21.7266 12.0024H22.2011Z" fill="white"/>
<path d="M22.6721 12.0024L29.4656 17.7027H28.991L22.2041 12.0024H22.6721Z" fill="white"/>
<path d="M23.1503 12.0024L29.9438 17.7027H29.4693L22.6758 12.0024H23.1503Z" fill="white"/>
<path d="M23.6249 12.0024L30.4184 17.7027H29.9439L23.1504 12.0024H23.6249Z" fill="white"/>
<path d="M24.0986 12.0024L30.8921 17.7027H30.4175L23.624 12.0024H24.0986Z" fill="white"/>
<path d="M24.5732 12.0024L31.3667 17.7027H30.8921L24.0986 12.0024H24.5732Z" fill="white"/>
<path d="M25.0468 12.0024L31.8403 17.7027H31.3658L24.5723 12.0024H25.0468Z" fill="white"/>
<path d="M25.5205 12.0024L32.314 17.7027H31.8395L25.0479 12.0024H25.5205Z" fill="white"/>
<path d="M25.996 12.0024L32.7895 17.7027H32.315L25.5215 12.0024H25.996Z" fill="white"/>
<path d="M26.4697 12.0024L33.2632 17.7027H32.7886L25.9951 12.0024H26.4697Z" fill="white"/>
<path d="M26.9443 12.0024L33.7378 17.7027H33.2632L26.4697 12.0024H26.9443Z" fill="white"/>
<path d="M27.4189 12.0024L34.2124 17.7027H33.7378L26.9443 12.0024H27.4189Z" fill="white"/>
<path d="M27.8935 12.0024L34.687 17.7027H34.2124L27.4189 12.0024H27.8935Z" fill="white"/>
<path d="M28.3681 12.0024L35.1616 17.7027H34.6871L27.8936 12.0024H28.3681Z" fill="white"/>
<path d="M28.8417 12.0024L35.6352 17.7027H35.1607L28.3672 12.0024H28.8417Z" fill="white"/>
<path d="M29.3154 12.0024L36.1089 17.7027H35.6343L28.8408 12.0024H29.3154Z" fill="white"/>
<path d="M29.79 12.0024L36.5835 17.7027H36.1089L29.3154 12.0024H29.79Z" fill="white"/>
<path d="M30.2646 12.0024L37.0581 17.7027H36.5835L29.79 12.0024H30.2646Z" fill="white"/>
<path d="M30.7392 12.0024L37.5327 17.7027H37.0581L30.2646 12.0024H30.7392Z" fill="white"/>
<path d="M31.2138 12.0024L38.0073 17.7027H37.5327L30.7383 12.0024H31.2138Z" fill="white"/>
<path d="M31.6884 12.0024L38.4819 17.7027H38.0074L31.2139 12.0024H31.6884Z" fill="white"/>
<path d="M32.163 12.0024L38.9565 17.7027H38.482L31.6885 12.0024H32.163Z" fill="white"/>
<path d="M32.6367 12.0024L39.4302 17.7027H38.9556L32.1621 12.0024H32.6367Z" fill="white"/>
<path d="M33.1113 12.0024L39.609 17.4546V17.7027H39.4312L32.6377 12.0024H33.1113Z" fill="white"/>
<path d="M33.5859 12.0024L39.609 17.0568V17.4546L33.1113 12.0024H33.5859Z" fill="white"/>
<path d="M34.0594 12.0024L39.608 16.6581V17.0568L33.583 12.0024H34.0594Z" fill="white"/>
<path d="M34.5342 12.0024L39.6082 16.2603V16.6581L34.0605 12.0024H34.5342Z" fill="white"/>
<path d="M35.0087 12.0024L39.6092 15.8625V16.2603L34.5342 12.0024H35.0087Z" fill="white"/>
<path d="M35.4824 12.0024L39.6083 15.4656V15.8634L35.0078 12.0024H35.4824Z" fill="white"/>
<path d="M35.9569 12.0024L39.6073 15.066V15.4656L35.4814 12.0024H35.9569Z" fill="white"/>
<path d="M36.4306 12.0024L39.6074 14.6682V15.066L35.957 12.0024H36.4306Z" fill="white"/>
<path d="M36.906 12.0024L39.6101 14.2676V14.6654L36.4277 12.0024H36.906Z" fill="white"/>
<path d="M37.3798 12.0024L39.6084 13.8744V14.2722L36.9053 12.0024H37.3798Z" fill="white"/>
<path d="M37.8545 12.0023L39.6085 13.4737V13.8715L37.3809 11.9995L37.8545 12.0023Z" fill="white"/>
<path d="M38.329 12.0024L39.6086 13.076V13.4738L37.8545 12.0024H38.329Z" fill="white"/>
<path d="M38.8037 12.0024L39.6086 12.6782V13.076L38.3291 12.0024H38.8037Z" fill="white"/>
<path d="M39.2822 12.0024L39.6126 12.2832V12.681L38.8076 12.0052L39.2822 12.0024Z" fill="white"/>
<path d="M39.6077 12.2779L39.2773 11.9971H39.6077V12.2779Z" fill="white"/>
<path d="M0 17.6514L0.0589681 17.701H0V17.6514Z" fill="white"/>
<path d="M0 17.2534L0.533521 17.7008H0.0589681L0 17.6512V17.2534Z" fill="white"/>
<path d="M0 16.855L1.00714 17.6974H0.533521L0 17.2528V16.855Z" fill="white"/>
<path d="M0 16.457L1.48169 17.7H1.00714L0 16.8548V16.457Z" fill="white"/>
<path d="M0 16.0581L1.95624 17.6998H1.48169L0 16.4568V16.0581Z" fill="white"/>
<path d="M0 15.6606L2.4336 17.7002H1.95624L0 16.0584V15.6606Z" fill="white"/>
<path d="M0 15.2627L2.9016 17.6963H2.4336L0 15.6605V15.2627Z" fill="white"/>
<path d="M0 14.8647L3.37896 17.7008H2.9016L0 15.2607V14.8647Z" fill="white"/>
<path d="M0 14.4668L3.85352 17.7007H3.37896L0 14.8646V14.4668Z" fill="white"/>
<path d="M0 14.0684L4.32807 17.7H3.85352L0 14.4671V14.0684Z" fill="white"/>
<path d="M0 13.6704L4.80262 17.6999H4.32807L0 14.0682V13.6704Z" fill="white"/>
<path d="M0 13.2906L0.00842401 13.2803L5.27624 17.701H4.80262L0 13.6706V13.2906Z" fill="white"/>
<path d="M0.00878906 13.2838L0.204413 13.0498L5.75115 17.7036H5.2766L0.00878906 13.2838Z" fill="white"/>
<path d="M0.204102 13.0441L0.399726 12.8101L6.22259 17.6997H5.75459L0.204102 13.0441Z" fill="white"/>
<path d="M0.396484 12.8121L0.592109 12.5781L6.69483 17.699H6.22496L0.396484 12.8121Z" fill="white"/>
<path d="M0.59668 12.5792L0.792304 12.3452L7.17396 17.7001H6.69941L0.59668 12.5792Z" fill="white"/>
<path d="M0.791992 12.3458L0.987616 12.1118L7.64726 17.6997H7.17271L0.791992 12.3458Z" fill="white"/>
<path d="M0.985352 12.1118L1.07895 11.9995H1.32606L8.11955 17.6998H7.645L0.985352 12.1118Z" fill="white"/>
<path d="M1.80365 12.0024L8.59715 17.7027H8.1226L1.3291 12.0024H1.80365Z" fill="white"/>
<path d="M2.27826 12.0024L9.07176 17.7027H8.59721L1.80371 12.0024H2.27826Z" fill="white"/>
<path d="M2.75287 12.0024L9.29926 17.4958L9.12329 17.6999H9.06994L2.27832 12.0024H2.75287Z" fill="white"/>
<path d="M3.22732 12.0024L9.49853 17.2618L9.3029 17.4958L2.74902 12.0024H3.22732Z" fill="white"/>
<path d="M3.70197 12.0024L9.58286 16.937V17.1579L9.49581 17.2618L3.22461 12.0024H3.70197Z" fill="white"/>
<path d="M4.17576 12.0024L9.58211 16.5392V16.937L3.70215 12.0024H4.17576Z" fill="white"/>
<path d="M4.65033 12.0024L9.58212 16.1405V16.5383L4.17578 12.0024H4.65033Z" fill="white"/>
<path d="M5.12494 12.0024L9.58312 15.7464V16.1442L4.65039 12.0024H5.12494Z" fill="white"/>
<path d="M5.60248 12.0023L9.5861 15.3447V15.7425L5.12793 11.9985L5.60248 12.0023Z" fill="white"/>
<path d="M6.07319 12.0024L9.58225 14.9471V15.3449L5.59863 12.0024H6.07319Z" fill="white"/>
<path d="M6.54779 12.0024L9.58231 14.5484V14.9462L6.07324 12.0024H6.54779Z" fill="white"/>
<path d="M7.02143 12.0024L9.58139 14.1552V14.553L6.54688 12.0024H7.02143Z" fill="white"/>
<path d="M7.49604 12.0027L9.58145 13.753V14.1508L7.02148 11.998L7.49604 12.0027Z" fill="white"/>
<path d="M7.97065 12.0024L9.58057 13.3522V13.75L7.49609 12.0024H7.97065Z" fill="white"/>
<path d="M8.44807 12.0024L9.58531 12.9562V13.354L7.9707 12.0024H8.44807Z" fill="white"/>
<path d="M8.91889 12.0024L9.58158 12.5584V12.9562L8.44434 12.0024H8.91889Z" fill="white"/>
<path d="M9.39248 12.0024L9.57968 12.1606V12.5584L8.91699 12.0024H9.39248Z" fill="white"/>
<path d="M9.58173 12.1577L9.39453 11.9995H9.58173V12.1577Z" fill="white"/>
<path d="M30.0273 28.915L30.2482 29.1022H30.0273V28.915Z" fill="white"/>
<path d="M30.0273 28.5171L30.7218 29.1002H30.2473L30.0264 28.913L30.0273 28.5171Z" fill="white"/>
<path d="M30.0273 28.1187L31.1964 29.0996H30.7219L30.0273 28.5165V28.1187Z" fill="white"/>
<path d="M30.0273 27.7207L31.671 29.0994H31.1964L30.0273 28.1185V27.7207Z" fill="white"/>
<path d="M30.0273 27.3228L32.1455 29.1011H31.671L30.0273 27.7224V27.3228Z" fill="white"/>
<path d="M30.0273 26.9243L32.6191 29.0996H32.1445L30.0264 27.3212L30.0273 26.9243Z" fill="white"/>
<path d="M30.0273 26.5273L33.0937 29.1004H32.6191L30.0273 26.9251V26.5273Z" fill="white"/>
<path d="M30.0273 26.1284L33.5682 29.0993H33.0937L30.0273 26.5262V26.1284Z" fill="white"/>
<path d="M30.0273 25.731L34.0428 29.1006H33.5682L30.0273 26.1288V25.731Z" fill="white"/>
<path d="M30.0273 25.333L34.5201 29.1004H34.0456L30.0302 25.7308L30.0273 25.333Z" fill="white"/>
<path d="M30.0271 24.939L34.9879 29.1042H34.5133L30.0205 25.3368L30.0271 24.939Z" fill="white"/>
<path d="M30.0273 24.5337L35.4655 29.0967H34.991L30.0302 24.9315L30.0273 24.5337Z" fill="white"/>
<path d="M30.0273 24.1387L35.9401 29.0995H35.4655L30.0273 24.5365V24.1387Z" fill="white"/>
<path d="M30.0273 23.9411L30.1275 23.8213L36.4146 29.0966H35.9401L30.0273 24.1358V23.9411Z" fill="white"/>
<path d="M30.1299 23.8243L30.3255 23.5903L36.8906 29.0987H36.4161L30.1299 23.8243Z" fill="white"/>
<path d="M30.3223 23.591L30.4823 23.4038H30.5684L37.3619 29.1041H36.8874L30.3223 23.591Z" fill="white"/>
<path d="M31.0439 23.4004L37.8364 29.1006H37.3619L30.5693 23.4004H31.0439Z" fill="white"/>
<path d="M31.5159 23.4004L38.3084 29.1006H37.8339L31.0479 23.4004H31.5159Z" fill="white"/>
<path d="M31.9912 23.4004L38.604 28.9499L38.4777 29.1006H38.3092L31.5166 23.4004H31.9912Z" fill="white"/>
<path d="M32.4658 23.4004L38.8006 28.7159L38.604 28.9499L31.9912 23.4004H32.4658Z" fill="white"/>
<path d="M32.9404 23.4004L38.9973 28.4829L38.8017 28.7169L32.4668 23.4013L32.9404 23.4004Z" fill="white"/>
<path d="M33.415 23.4004L39.1929 28.2489L38.9973 28.4829L32.9404 23.4004H33.415Z" fill="white"/>
<path d="M33.8896 23.4004L39.3896 28.0149L39.194 28.2489L33.416 23.4004H33.8896Z" fill="white"/>
<path d="M34.3606 23.4004L39.5816 27.7818L39.386 28.0158L33.8926 23.4004H34.3606Z" fill="white"/>
<path d="M34.8388 23.4004L39.5947 27.3906V27.7715L39.5862 27.7818L34.3652 23.4004H34.8388Z" fill="white"/>
<path d="M35.3134 23.4004L39.5947 26.9928V27.3906L34.8389 23.4004H35.3134Z" fill="white"/>
<path d="M35.7871 23.4004L39.5938 26.595V26.9928L35.3125 23.4004H35.7871Z" fill="white"/>
<path d="M36.2617 23.4004L39.5938 26.1972V26.595L35.7871 23.4004H36.2617Z" fill="white"/>
<path d="M36.7363 23.4003L39.5949 25.7984V26.1962L36.2627 23.3994L36.7363 23.4003Z" fill="white"/>
<path d="M37.21 23.4004L39.594 25.4006V25.7984L36.7373 23.4004H37.21Z" fill="white"/>
<path d="M37.6845 23.4004L39.594 25.0028V25.4006L37.21 23.4004H37.6845Z" fill="white"/>
<path d="M38.1591 23.4004L39.594 24.605V25.0028L37.6846 23.4004H38.1591Z" fill="white"/>
<path d="M38.6338 23.4003L39.5951 24.2062V24.604L38.1602 23.3994L38.6338 23.4003Z" fill="white"/>
<path d="M39.1083 23.4004L39.5951 23.8085V24.2063L38.6338 23.4004H39.1083Z" fill="white"/>
<path d="M39.582 23.4004L39.5941 23.4107V23.8085L39.1074 23.4004H39.582Z" fill="white"/>
<path d="M39.5942 23.4107L39.582 23.4004H39.5942V23.4107Z" fill="white"/>
<path d="M0.0136719 28.8066L0.3628 29.0996H0.0136719V28.8066Z" fill="white"/>
<path d="M0.0136719 28.4097L0.837353 29.1004H0.3628L0.0136719 28.8075V28.4097Z" fill="white"/>
<path d="M0.0136719 28.0107L1.31097 29.1002H0.837353L0.0136719 28.4095V28.0107Z" fill="white"/>
<path d="M0.0136719 27.6133L1.78552 29.1006H1.31097L0.0136719 28.0111V27.6133Z" fill="white"/>
<path d="M0.0136719 27.2153L2.26007 29.1004H1.78552L0.0136719 27.6131V27.2153Z" fill="white"/>
<path d="M0.0136719 26.8184L2.73463 29.1013H2.26007L0.0136719 27.2162V26.8184Z" fill="white"/>
<path d="M0.0136719 26.4189L3.20918 29.0997H2.73463L0.0136719 26.8167V26.4189Z" fill="white"/>
<path d="M0.0136719 26.02L3.68373 29.0967H3.20918L0.0136719 26.4188V26.02Z" fill="white"/>
<path d="M0.0136719 25.623L4.15735 29.1003H3.68373L0.0136719 26.0209V25.623Z" fill="white"/>
<path d="M0.0136719 25.2256L4.6319 29.1006H4.15735L0.0136719 25.6234V25.2256Z" fill="white"/>
<path d="M0.0136719 24.8267L5.10645 29.0986H4.6319L0.0136719 25.2235V24.8267Z" fill="white"/>
<path d="M0.0136719 24.4287L5.58101 29.1003H5.10645L0.0136719 24.8265V24.4287Z" fill="white"/>
<path d="M0.0136719 24.0312L6.05462 29.1006H5.58101L0.0136719 24.429V24.0312Z" fill="white"/>
<path d="M0.0136719 23.6323L6.52917 29.0995H6.05462L0.0136719 24.0301V23.6323Z" fill="white"/>
<path d="M0.211168 23.4004L7.00373 29.1006H6.52917L0.0136719 23.6325V23.4004H0.211168Z" fill="white"/>
<path d="M0.681868 23.4004L7.47443 29.1006H7.00362L0.213867 23.4004H0.681868Z" fill="white"/>
<path d="M1.1601 23.4004L7.95266 29.1006H7.4781L0.685547 23.4004H1.1601Z" fill="white"/>
<path d="M1.63471 23.4004L8.42727 29.1006H7.95271L1.16016 23.4004H1.63471Z" fill="white"/>
<path d="M2.10741 23.4004L8.89996 29.1006H8.42167L1.63379 23.4004H2.10741Z" fill="white"/>
<path d="M2.58197 23.4004L9.37453 29.1006H8.89998L2.10742 23.4004H2.58197Z" fill="white"/>
<path d="M3.05658 23.4004L9.84914 29.1006H9.37459L2.58203 23.4004H3.05658Z" fill="white"/>
<path d="M3.53127 23.4004L10.3238 29.1006H9.84928L3.05859 23.4004H3.53127Z" fill="white"/>
<path d="M4.0058 23.4004L10.7984 29.1006H10.3238L3.53125 23.4004H4.0058Z" fill="white"/>
<path d="M4.48041 23.4004L11.273 29.1006H10.7984L4.00586 23.4004H4.48041Z" fill="white"/>
<path d="M4.95404 23.4004L11.7466 29.1006H11.2721L4.47949 23.4004H4.95404Z" fill="white"/>
<path d="M5.42865 23.4004L12.2212 29.1006H11.7467L4.9541 23.4004H5.42865Z" fill="white"/>
<path d="M5.90326 23.4004L12.6958 29.1006H12.2213L5.42871 23.4004H5.90326Z" fill="white"/>
<path d="M6.37787 23.4004L13.1704 29.1006H12.6959L5.90332 23.4004H6.37787Z" fill="white"/>
<path d="M6.85248 23.4004L13.645 29.1006H13.1705L6.37793 23.4004H6.85248Z" fill="white"/>
<path d="M7.32611 23.4004L14.1187 29.1006H13.6441L6.85156 23.4004H7.32611Z" fill="white"/>
<path d="M7.80072 23.4004L14.5933 29.1006H14.1187L7.32617 23.4004H7.80072Z" fill="white"/>
<path d="M8.27436 23.4004L15.0669 29.1006H14.5924L7.7998 23.4004H8.27436Z" fill="white"/>
<path d="M8.74897 23.4004L15.5415 29.1006H15.067L8.27441 23.4004H8.74897Z" fill="white"/>
<path d="M9.22353 23.4004L16.0161 29.1006H15.5415L8.74805 23.4004H9.22353Z" fill="white"/>
<path d="M9.69819 23.4004L16.4907 29.1006H16.0162L9.22363 23.4004H9.69819Z" fill="white"/>
<path d="M10.1728 23.4004L16.9663 29.1006H16.4918L9.69922 23.4004H10.1728Z" fill="white"/>
<path d="M10.6474 23.4004L17.44 29.1006H16.9654L10.1729 23.4004H10.6474Z" fill="white"/>
<path d="M11.122 23.4004L17.9146 29.1006H17.44L10.6475 23.4004H11.122Z" fill="white"/>
<path d="M11.5956 23.4004L18.3882 29.1006H17.9137L11.1211 23.4004H11.5956Z" fill="white"/>
<path d="M12.0702 23.4004L18.8627 29.1006H18.3891L11.5938 23.4004H12.0702Z" fill="white"/>
<path d="M12.543 23.4004L19.3355 29.1006H18.861L12.0693 23.4004H12.543Z" fill="white"/>
<path d="M13.0175 23.4004L19.8101 29.1006H19.3355L12.543 23.4004H13.0175Z" fill="white"/>
<path d="M13.4921 23.4004L20.2847 29.1006H19.8101L13.0176 23.4004H13.4921Z" fill="white"/>
<path d="M13.9667 23.4004L20.7593 29.1006H20.2847L13.4922 23.4004H13.9667Z" fill="white"/>
<path d="M14.4413 23.4004L21.2339 29.1006H20.7594L13.9668 23.4004H14.4413Z" fill="white"/>
<path d="M14.9158 23.4004L21.7084 29.1006H21.2338L14.4375 23.4004H14.9158Z" fill="white"/>
<path d="M15.3906 23.4004L22.1831 29.1006H21.7086L14.916 23.4004H15.3906Z" fill="white"/>
<path d="M15.8654 23.4004L22.6579 29.1006H22.1881L15.3955 23.4004H15.8654Z" fill="white"/>
<path d="M16.3388 23.4004L23.1314 29.1006H22.6568L15.8643 23.4004H16.3388Z" fill="white"/>
<path d="M16.8134 23.4004L23.606 29.1006H23.1314L16.3389 23.4004H16.8134Z" fill="white"/>
<path d="M17.292 23.4004L23.9806 29.0164L23.9076 29.1034H23.6109L16.8184 23.4032L17.292 23.4004Z" fill="white"/>
<path d="M17.7617 23.4003L24.1723 28.7795L23.9758 29.0135L17.2871 23.3975L17.7617 23.4003Z" fill="white"/>
<path d="M18.2363 23.4004L24.3596 28.5381V28.5559L24.1724 28.7796L17.7617 23.4004H18.2363Z" fill="white"/>
<path d="M18.7109 23.4004L24.3596 28.1403V28.5381L18.2363 23.4004H18.7109Z" fill="white"/>
<path d="M19.1855 23.4004L24.3606 27.7425V28.1403L18.7109 23.4004H19.1855Z" fill="white"/>
<path d="M19.6601 23.4004L24.3607 27.3447V27.7425L19.1855 23.4004H19.6601Z" fill="white"/>
<path d="M20.1365 23.4004L24.3626 26.9469V27.3447L19.6592 23.4004H20.1365Z" fill="white"/>
<path d="M20.6083 23.4004L24.3598 26.5482V26.946L20.1338 23.4004H20.6083Z" fill="white"/>
<path d="M21.0829 23.4004L24.359 26.1504V26.5482L20.6084 23.4004H21.0829Z" fill="white"/>
<path d="M21.5567 23.4004L24.36 25.7526V26.1504L21.084 23.4004H21.5567Z" fill="white"/>
<path d="M22.0303 23.4004L24.359 25.3548V25.7526L21.5566 23.4004H22.0303Z" fill="white"/>
<path d="M22.5048 23.4004L24.359 24.956V25.3538L22.0303 23.4004H22.5048Z" fill="white"/>
<path d="M22.9813 23.4004L24.361 24.5582V24.956L22.5049 23.4004H22.9813Z" fill="white"/>
<path d="M23.454 23.4004L24.3601 24.1604V24.5582L22.9795 23.4004H23.454Z" fill="white"/>
<path d="M23.9287 23.4004L24.3602 23.7626V24.1604L23.4541 23.4004H23.9287Z" fill="white"/>
<path d="M24.3563 23.7616L23.9248 23.3994H24.3563V23.7616Z" fill="white"/>
<path d="M5.82422 34.8765L12.5269 40.5009H5.82422V34.8765Z" fill="white"/>
<path d="M6.207 34.7998L13.0005 40.5001H12.5259L5.82324 34.8756V34.7998H6.207Z" fill="white"/>
<path d="M6.68256 34.7998L13.4761 40.5001H13.0015L6.20801 34.7998H6.68256Z" fill="white"/>
<path d="M7.15619 34.7998L13.9497 40.5001H13.4751L6.68164 34.7998H7.15619Z" fill="white"/>
<path d="M7.62983 34.7998L14.4233 40.5001H13.9488L7.15527 34.7998H7.62983Z" fill="white"/>
<path d="M8.10435 34.7998L14.8978 40.5001H14.4214L7.62793 34.7998H8.10435Z" fill="white"/>
<path d="M8.57904 34.7998L15.3725 40.5001H14.898L8.10449 34.7998H8.57904Z" fill="white"/>
<path d="M9.05268 34.7998L15.8462 40.5001H15.3716L8.57812 34.7998H9.05268Z" fill="white"/>
<path d="M9.52631 34.7998L16.3198 40.5001H15.8453L9.05176 34.7998H9.52631Z" fill="white"/>
<path d="M10.0019 34.7998L16.7954 40.5001H16.3208L9.52734 34.7998H10.0019Z" fill="white"/>
<path d="M10.4765 34.7998L17.27 40.5001H16.7954L10.002 34.7998H10.4765Z" fill="white"/>
<path d="M10.95 34.7998L17.7435 40.5001H17.2661L10.4727 34.7998H10.95Z" fill="white"/>
<path d="M11.4247 34.7998L18.2182 40.5001H17.7437L10.9502 34.7998H11.4247Z" fill="white"/>
<path d="M11.8994 34.7998L18.6929 40.5001H18.2183L11.4248 34.7998H11.8994Z" fill="white"/>
<path d="M12.371 34.7998L19.1645 40.5001H18.69L11.8965 34.7998H12.371Z" fill="white"/>
<path d="M12.8486 34.7998L19.6421 40.5001H19.1675L12.374 34.7998H12.8486Z" fill="white"/>
<path d="M13.3232 34.7998L20.1167 40.5001H19.6421L12.8486 34.7998H13.3232Z" fill="white"/>
<path d="M13.7976 34.7998L20.5911 40.5001H20.1119L13.3184 34.7998H13.7976Z" fill="white"/>
<path d="M14.2714 34.7998L21.0649 40.5001H20.5904L13.7969 34.7998H14.2714Z" fill="white"/>
<path d="M14.746 34.7998L21.5395 40.5001H21.065L14.2715 34.7998H14.746Z" fill="white"/>
<path d="M15.2158 34.7998L22.0093 40.5001H21.5347L14.7412 34.7998H15.2158Z" fill="white"/>
<path d="M15.6943 34.7998L22.4878 40.5001H22.0132L15.2197 34.7998H15.6943Z" fill="white"/>
<path d="M16.1689 34.7998L22.9624 40.5001H22.4878L15.6943 34.7998H16.1689Z" fill="white"/>
<path d="M16.6435 34.7998L23.437 40.5001H22.9624L16.1689 34.7998H16.6435Z" fill="white"/>
<path d="M17.1171 34.7998L23.9106 40.5001H23.4361L16.6426 34.7998H17.1171Z" fill="white"/>
<path d="M17.5917 34.7998L24.3852 40.5001H23.9107L17.1172 34.7998H17.5917Z" fill="white"/>
<path d="M18.0663 34.7998L24.8598 40.5001H24.3853L17.5918 34.7998H18.0663Z" fill="white"/>
<path d="M18.541 34.7998L25.3345 40.5001H24.8599L18.0664 34.7998H18.541Z" fill="white"/>
<path d="M19.0136 34.7998L25.8071 40.5001H25.3326L18.5391 34.7998H19.0136Z" fill="white"/>
<path d="M19.4882 34.7998L26.2817 40.5001H25.8072L19.0137 34.7998H19.4882Z" fill="white"/>
<path d="M19.9628 34.7998L26.7563 40.5001H26.2818L19.4883 34.7998H19.9628Z" fill="white"/>
<path d="M20.4374 34.7998L27.2309 40.5001H26.7564L19.9629 34.7998H20.4374Z" fill="white"/>
<path d="M20.912 34.7998L27.7055 40.5001H27.231L20.4375 34.7998H20.912Z" fill="white"/>
<path d="M21.3867 34.7998L28.1802 40.5001H27.7056L20.9121 34.7998H21.3867Z" fill="white"/>
<path d="M21.8613 34.7998L28.6548 40.5001H28.1802L21.3867 34.7998H21.8613Z" fill="white"/>
<path d="M22.3359 34.7998L29.1294 40.5001H28.6548L21.8613 34.7998H22.3359Z" fill="white"/>
<path d="M22.8095 34.7998L29.603 40.5001H29.1285L22.335 34.7998H22.8095Z" fill="white"/>
<path d="M23.2842 34.7998L29.8063 40.2726L29.6191 40.5001H29.606L22.8125 34.7998H23.2842Z" fill="white"/>
<path d="M23.7577 34.7998L30.0018 40.0414L29.8062 40.2754L23.2822 34.7998H23.7577Z" fill="white"/>
<path d="M24.2324 34.7997L30.1984 39.8055L30.0019 40.0395L23.7578 34.7979L24.2324 34.7997Z" fill="white"/>
<path d="M24.707 34.7998L30.3941 39.5734L30.1985 39.8074L24.2324 34.8017L24.707 34.7998Z" fill="white"/>
<path d="M25.1816 34.7997L30.5908 39.3384L30.3951 39.5715L24.708 34.7979L25.1816 34.7997Z" fill="white"/>
<path d="M25.6562 34.7998L30.7864 39.1054L30.5908 39.3385L25.1816 34.7998H25.6562Z" fill="white"/>
<path d="M26.1299 34.7998L30.9821 38.8714L30.7865 39.1054L25.6562 34.7998H26.1299Z" fill="white"/>
<path d="M26.6044 34.7998L31.1787 38.6374L30.9821 38.8714L26.1299 34.7998H26.6044Z" fill="white"/>
<path d="M27.0781 34.7998L31.3734 38.4043L31.1778 38.6383L26.6035 34.8007L27.0781 34.7998Z" fill="white"/>
<path d="M27.5527 34.7998L31.57 38.1694L31.3734 38.4034L27.0781 34.7988L27.5527 34.7998Z" fill="white"/>
<path d="M28.0273 34.7998L31.7657 37.9373L31.5701 38.1713L27.5527 34.8017L28.0273 34.7998Z" fill="white"/>
<path d="M28.502 34.7997L31.9652 37.7013L31.7687 37.9353L28.0303 34.7979L28.502 34.7997Z" fill="white"/>
<path d="M28.9764 34.7998L32.1588 37.4702L31.9632 37.7042L28.5 34.8026L28.9764 34.7998Z" fill="white"/>
<path d="M29.4501 34.7997L32.3517 37.2333L32.156 37.4673L28.9736 34.7969L29.4501 34.7997Z" fill="white"/>
<path d="M29.9246 34.7998L32.5454 37.0032L32.3489 37.2372L29.4473 34.8035L29.9246 34.7998Z" fill="white"/>
<path d="M30.3986 34.7996L32.7451 36.7652L32.5495 36.9992L29.9287 34.7959L30.3986 34.7996Z" fill="white"/>
<path d="M30.873 34.7998L32.9415 36.5352L32.745 36.7692L30.3984 34.8035L30.873 34.7998Z" fill="white"/>
<path d="M31.3477 34.7996L33.1382 36.2972L32.9426 36.5312L30.874 34.7959L31.3477 34.7996Z" fill="white"/>
<path d="M31.8261 34.7998L33.3377 36.0681L33.1412 36.3012L31.3506 34.8035L31.8261 34.7998Z" fill="white"/>
<path d="M32.2969 34.7998L33.5305 35.835L33.3349 36.069L31.8232 34.8007L32.2969 34.7998Z" fill="white"/>
<path d="M32.7714 34.7998L33.7262 35.601L33.5305 35.834L32.2969 34.7988L32.7714 34.7998Z" fill="white"/>
<path d="M33.246 34.7998L33.7852 35.2519V35.5327L33.7262 35.6029L32.7715 34.8017L33.246 34.7998Z" fill="white"/>
<path d="M33.7206 34.7998L33.7852 34.8541V35.2519L33.2461 34.7998H33.7206Z" fill="white"/>
<path d="M33.7843 34.8541L33.7197 34.7998H33.7843V34.8541Z" fill="white"/>
</g>
<mask id="mask1_14851_16632" style="mask-type:luminance" maskUnits="userSpaceOnUse" x="0" y="0" width="155" height="41">
<path d="M154.333 0.5H0V40.5H154.333V0.5Z" fill="white"/>
</mask>
<g mask="url(#mask1_14851_16632)">
<path d="M64.008 5.06689V31.2365H60.6861L60.6187 27.9484C59.962 29.1063 58.996 30.0587 57.8287 30.6988C56.6615 31.3388 55.3391 31.6414 54.0096 31.5726C49.0778 31.5726 45.4209 27.8819 45.4209 22.3464C45.4209 16.7435 49.0778 12.9864 54.0096 12.9864C55.3315 12.9115 56.648 13.2082 57.8101 13.8427C58.9721 14.4772 59.9334 15.4244 60.5851 16.5769V5.06689H64.008ZM60.586 22.2781C60.586 18.4873 58.2376 15.9376 54.7828 15.9376C51.2934 15.9376 48.9796 18.4873 48.9796 22.3118C48.9796 26.1026 51.2943 28.6195 54.7828 28.6195C58.2385 28.6195 60.586 26.1035 60.586 22.2781Z" fill="white"/>
<path d="M84.5792 13.3213V29.7603C84.5792 35.2958 80.5197 38.9527 74.3768 38.9527C71.5552 39.0694 68.7735 38.2562 66.4591 36.638L67.1967 33.9236C69.2795 35.3428 71.7562 36.0704 74.2757 36.0034C78.4025 36.0034 81.1534 33.4865 81.1534 29.662V28.0165C80.4939 29.1598 79.53 30.0976 78.3691 30.7256C77.2082 31.3535 75.8958 31.647 74.578 31.5733C69.6462 31.5733 65.9893 27.8153 65.9893 22.2133C65.9893 16.6778 69.6462 12.9871 74.578 12.9871C75.9075 12.9183 77.2298 13.2209 78.3971 13.8609C79.5644 14.501 80.5304 15.4534 81.1871 16.6113L81.2545 13.3232L84.5792 13.3213ZM81.1572 22.2788C81.1572 18.488 78.8087 15.9383 75.354 15.9383C71.8645 15.9383 69.5508 18.4543 69.5508 22.2451C69.5508 26.0696 71.8655 28.6202 75.354 28.6202C78.8097 28.6202 81.1572 26.0706 81.1572 22.2788Z" fill="white"/>
<path d="M106.119 22.2118C106.119 27.8147 102.462 31.5718 97.5638 31.5718C96.2491 31.6517 94.938 31.3646 93.7769 30.7427C92.6158 30.1207 91.6504 29.1884 90.9884 28.0496V38.618H87.5664V13.3216H90.8546L90.9557 16.5761C91.6083 15.4168 92.5746 14.465 93.7436 13.8299C94.9126 13.1948 96.237 12.9022 97.5648 12.9856C102.463 12.9856 106.12 16.6763 106.12 22.2118M102.563 22.2455C102.563 18.4547 100.248 15.9378 96.7598 15.9378C93.3041 15.9378 90.9894 18.4874 90.9894 22.2782C90.9894 26.069 93.3041 28.6187 96.7598 28.6187C100.249 28.6187 102.563 26.07 102.563 22.2455Z" fill="white"/>
<path d="M122.291 19.9643V31.2365H118.969L118.901 28.0832C118.287 29.1566 117.397 30.0462 116.324 30.6598C115.25 31.2734 114.032 31.5885 112.795 31.5726C109.204 31.5726 106.756 29.4254 106.756 26.2046C106.756 22.849 109.742 20.6354 114.237 20.6354C115.794 20.6424 117.346 20.8111 118.868 21.139V20.334C118.868 17.482 117.022 15.7036 114.001 15.7036C113.157 15.6717 112.315 15.8096 111.525 16.1094C110.735 16.4091 110.014 16.8644 109.404 17.4483L107.894 15.4013C109.812 13.7317 112.299 12.8663 114.839 12.9855C119.301 12.9855 122.288 15.7701 122.288 19.9643M118.866 23.4874C117.488 23.1882 116.082 23.0313 114.672 23.0194C112.051 23.0194 110.344 24.2605 110.344 26.1082C110.344 27.9203 111.585 29.094 113.766 29.094C116.249 29.094 118.832 27.047 118.865 23.4911" fill="white"/>
<path d="M124.002 38.4867L124.371 35.7021C124.833 35.9153 125.339 36.0188 125.848 36.0045C127.358 36.0045 127.961 35.032 128.7 33.6223L129.941 30.9379L122.09 13.3242H125.848L131.719 27.2135L137.322 13.3242H141.08L132.022 34.0585C130.777 37.0415 129.466 38.9547 126.418 38.9547C125.588 38.9753 124.764 38.8156 124.002 38.4867Z" fill="white"/>
<path d="M140.778 29.5927L142.12 27.4792C143.666 28.4484 145.463 28.9389 147.287 28.8888C149.4 28.8888 150.809 27.9154 150.809 26.4393C150.809 25.0306 149.367 24.2584 147.387 23.6884L145.676 23.2204C142.757 22.4154 140.744 21.3081 140.744 18.5235C140.744 15.2017 143.429 12.9871 147.421 12.9871C149.68 12.8987 151.914 13.4951 153.829 14.6981L152.352 16.9801C150.94 16.1166 149.311 15.6743 147.656 15.7052C145.642 15.7052 144.267 16.6113 144.267 18.02C144.267 19.3622 145.542 19.9996 147.287 20.5032L148.998 20.9712C151.883 21.7424 154.333 23.1521 154.333 26.1716C154.333 29.4261 151.548 31.5733 147.254 31.5733C144.93 31.6962 142.637 30.9952 140.779 29.5936" fill="white"/>
</g>
</g>
<defs>
<clipPath id="clip0_14851_16632">
<rect width="154.333" height="40" fill="white" transform="translate(0 0.5)"/>
</clipPath>
</defs>
</svg>
