<?xml version="1.0" standalone="no"?>
<!DOCTYPE svg PUBLIC "-//W3C//DTD SVG 20010904//EN"
 "http://www.w3.org/TR/2001/REC-SVG-20010904/DTD/svg10.dtd">
<svg version="1.0" xmlns="http://www.w3.org/2000/svg"
 width="192.000000pt" height="192.000000pt" viewBox="0 0 192.000000 192.000000"
 preserveAspectRatio="xMidYMid meet">

<g transform="translate(0.000000,192.000000) scale(0.100000,-0.100000)"
fill="#000000" stroke="none">
<path d="M826 1853 c-4 -5 -16 -9 -27 -9 -10 -1 -21 -3 -24 -4 -3 -1 -14 -4
-25 -5 -11 -1 -21 -3 -22 -5 -2 -1 -16 -4 -33 -6 -16 -3 -38 -12 -47 -21 -10
-9 -18 -13 -18 -8 0 4 -7 2 -15 -5 -8 -7 -15 -9 -15 -5 0 5 -9 0 -20 -10 -11
-10 -20 -14 -20 -10 0 4 -9 0 -20 -10 -11 -10 -20 -14 -20 -10 0 5 -10 -1 -23
-13 -13 -12 -26 -20 -28 -17 -3 3 -19 -10 -35 -27 -16 -18 -21 -26 -11 -19 9
7 17 10 17 6 0 -5 9 0 20 10 11 10 20 14 20 10 0 -5 11 2 25 15 14 13 25 20
25 15 0 -4 9 0 20 10 11 10 20 14 20 10 0 -5 11 2 25 15 14 13 25 19 25 14 0
-6 -13 -23 -30 -39 -16 -16 -30 -25 -30 -20 0 5 -22 -13 -50 -40 -27 -26 -47
-52 -44 -57 3 -5 12 -4 20 3 8 6 14 8 14 4 0 -5 9 0 20 10 11 10 20 14 20 10
0 -5 11 2 25 15 14 13 25 20 25 15 0 -4 9 0 20 10 11 10 20 14 20 10 0 -5 11
2 25 15 14 13 25 19 25 14 0 -13 -55 -66 -61 -59 -3 3 -18 -8 -32 -23 l-27
-28 32 1 c18 0 39 4 46 8 6 5 12 5 12 1 0 -4 9 1 20 11 11 10 20 14 20 10 0
-5 11 2 25 15 33 31 33 14 0 -20 l-25 -26 43 1 c23 0 48 4 55 8 6 5 12 5 12 0
0 -11 582 -10 599 1 10 6 12 6 7 -2 -5 -9 19 -12 91 -12 94 0 97 1 77 18 -129
105 -247 170 -372 204 -94 24 -337 35 -361 15 -12 -9 -13 -9 -7 1 8 13 4 16
-8 5z m97 -35 c-15 -15 -29 -25 -32 -23 -2 3 -24 -14 -48 -37 -24 -23 -43 -38
-43 -33 0 5 -13 -4 -30 -20 -16 -16 -30 -25 -30 -20 0 5 -11 -2 -25 -15 -14
-13 -25 -20 -25 -15 0 4 -9 0 -20 -10 -11 -10 -20 -15 -20 -11 0 4 -6 4 -12
-1 -7 -4 -23 -8 -36 -9 -21 -1 -21 0 -6 18 10 10 20 16 23 13 2 -3 29 18 58
47 29 29 53 48 53 43 0 -4 11 2 25 15 14 13 25 20 25 15 0 -5 11 2 25 15 14
13 25 20 25 15 0 -5 11 2 25 15 14 13 25 20 25 15 0 -5 5 -5 10 1 6 6 21 10
35 10 l25 0 -27 -28z m145 15 c-6 -7 -13 -11 -16 -8 -3 3 -27 -16 -54 -42 -26
-26 -48 -43 -48 -38 0 5 -20 -11 -45 -35 -25 -24 -45 -40 -45 -35 0 5 -13 -4
-30 -20 -16 -16 -30 -25 -30 -21 0 4 -6 4 -12 -1 -7 -4 -28 -8 -46 -8 l-33 -1
38 38 c20 21 39 35 42 33 2 -3 15 5 28 17 13 12 23 18 23 13 0 -5 11 2 25 15
14 13 25 20 25 15 0 -5 11 2 25 15 14 13 25 20 25 15 0 -5 11 2 25 15 14 13
25 20 25 15 0 -4 9 0 20 10 11 10 20 14 20 10 0 -5 5 -4 10 1 6 6 17 11 25 11
11 0 12 -4 3 -14z m-289 -30 c-18 -18 -35 -30 -38 -28 -2 3 -17 -7 -33 -22
-15 -15 -28 -23 -28 -18 0 5 -11 -2 -25 -15 -14 -13 -25 -20 -25 -15 0 4 -9 0
-20 -10 -11 -10 -20 -14 -20 -10 0 5 -11 -2 -25 -15 -14 -13 -25 -20 -25 -15
0 4 -9 0 -20 -10 -11 -10 -20 -15 -20 -10 0 4 -8 1 -17 -6 -10 -7 2 8 26 34
25 26 47 44 50 42 3 -3 29 18 58 47 29 29 53 48 53 44 0 -5 9 -1 20 9 11 10
20 15 20 10 0 -4 6 -3 13 2 6 6 20 9 29 8 10 -2 20 0 23 4 2 4 11 8 20 8 11 0
6 -10 -16 -34z m366 -3 c-16 -16 -31 -27 -34 -25 -3 3 -26 -16 -53 -42 -26
-26 -48 -43 -48 -38 0 5 -18 -9 -40 -30 -37 -36 -46 -40 -95 -40 -44 -1 -52 2
-43 12 6 8 13 11 16 8 3 -3 16 5 29 17 13 12 23 18 23 13 0 -5 11 2 25 15 14
13 25 20 25 15 0 -5 11 2 25 15 14 13 25 20 25 15 0 -5 11 2 25 15 14 13 25
20 25 15 0 -4 9 0 20 10 11 10 20 14 20 10 0 -5 11 2 25 15 14 13 25 20 25 15
0 -5 5 -4 12 3 26 26 20 10 -7 -18z m-545 -24 c0 -2 -8 -10 -17 -17 -16 -13
-17 -12 -4 4 13 16 21 21 21 13z m605 -26 c-16 -16 -31 -27 -34 -25 -3 3 -26
-16 -53 -42 -26 -26 -48 -43 -48 -39 0 5 -7 2 -16 -5 -9 -7 -32 -14 -50 -14
-32 -1 -33 0 -17 17 9 10 19 16 21 13 3 -3 16 5 29 17 13 12 23 18 23 13 0 -5
11 2 25 15 14 13 25 20 25 15 0 -4 9 0 20 10 11 10 20 14 20 10 0 -5 11 2 25
15 14 13 25 20 25 15 0 -5 5 -4 12 3 26 26 20 10 -7 -18z m-645 6 c0 -2 -8
-10 -17 -17 -16 -13 -17 -12 -4 4 13 16 21 21 21 13z m-40 -19 c0 -2 -10 -12
-22 -23 l-23 -19 19 23 c18 21 26 27 26 19z m740 -42 c-18 -19 -36 -32 -39
-30 -2 3 -15 -5 -28 -17 -23 -21 -99 -35 -87 -16 3 5 9 6 13 3 5 -2 16 4 26
15 10 11 21 17 25 15 4 -3 13 2 20 10 7 8 16 13 20 10 4 -2 15 4 25 15 10 11
21 17 26 15 4 -3 10 -1 14 5 3 5 9 10 13 10 3 0 -9 -16 -28 -35z m-790 11 c0
-2 -8 -10 -17 -17 -16 -13 -17 -12 -4 4 13 16 21 21 21 13z m857 -53 c-24 -24
-84 -42 -71 -21 3 4 9 6 13 3 5 -2 16 4 26 15 10 11 21 17 26 15 4 -3 10 -1
14 5 3 5 9 10 13 10 4 0 -6 -12 -21 -27z"/>
<path d="M890 1826 c-5 -5 -10 -6 -10 -1 0 5 -11 -2 -25 -15 -14 -13 -25 -20
-25 -15 0 5 -11 -2 -25 -15 -14 -13 -25 -20 -25 -15 0 5 -11 -2 -25 -15 -14
-13 -25 -19 -25 -15 0 5 -25 -15 -55 -45 -31 -30 -57 -53 -60 -50 -2 3 -6 2
-10 -2 -9 -9 16 -5 33 5 6 5 12 5 12 1 0 -4 9 1 20 11 11 10 20 14 20 10 0 -5
11 2 25 15 14 13 25 20 25 15 0 -5 14 4 30 20 17 16 30 25 30 20 0 -5 19 10
43 33 24 23 46 40 49 37 2 -3 12 3 21 13 14 16 15 19 2 19 -8 0 -19 -5 -25
-11z m-45 -46 c-21 -22 -41 -37 -44 -35 -2 3 -17 -7 -33 -22 -15 -15 -28 -23
-28 -18 0 5 -11 -2 -25 -15 -14 -13 -25 -20 -25 -15 0 4 -10 0 -22 -11 -13
-10 -5 0 16 23 22 23 42 40 46 38 4 -3 15 4 25 15 10 11 21 17 25 15 4 -2 15
4 25 15 10 11 21 17 25 15 4 -2 15 4 25 15 10 11 21 20 24 20 3 0 -12 -18 -34
-40z"/>
<path d="M809 1763 c-13 -16 -12 -17 4 -4 9 7 17 15 17 17 0 8 -8 3 -21 -13z"/>
<path d="M754 1728 l-19 -23 23 19 c21 18 27 26 19 26 -2 0 -12 -10 -23 -22z"/>
<path d="M704 1698 l-19 -23 23 19 c21 18 27 26 19 26 -2 0 -12 -10 -23 -22z"/>
<path d="M1010 1815 c-7 -9 -15 -13 -18 -10 -3 3 -16 -5 -29 -17 -13 -12 -23
-18 -23 -13 0 5 -11 -2 -25 -15 -14 -13 -25 -20 -25 -15 0 5 -11 -2 -25 -15
-14 -13 -25 -20 -25 -15 0 5 -10 -1 -23 -13 -13 -12 -26 -20 -28 -17 -3 3 -18
-8 -33 -24 -27 -28 -27 -28 -4 -27 13 1 29 5 36 9 6 5 12 5 12 1 0 -4 14 5 30
21 17 16 30 25 30 20 0 -5 19 10 43 33 24 23 45 40 48 37 3 -2 23 13 44 35 22
22 36 40 33 40 -3 0 -11 -7 -18 -15z m-20 -18 c0 -2 -10 -12 -22 -23 l-23 -19
19 23 c18 21 26 27 26 19z m-85 -67 c-21 -22 -41 -37 -44 -35 -2 3 -17 -7 -33
-22 -15 -15 -28 -23 -28 -19 0 4 -6 4 -12 -1 -27 -16 -40 -12 -23 8 10 10 21
16 25 14 4 -2 15 4 25 15 10 11 21 17 25 15 4 -2 15 4 25 15 10 11 21 17 25
15 4 -2 15 4 25 15 10 11 21 20 24 20 3 0 -12 -18 -34 -40z"/>
<path d="M869 1713 c-13 -16 -12 -17 4 -4 9 7 17 15 17 17 0 8 -8 3 -21 -13z"/>
<path d="M814 1678 l-19 -23 23 19 c12 11 22 21 22 23 0 8 -8 2 -26 -19z"/>
<path d="M776 1821 c-4 -5 -14 -8 -24 -6 -9 1 -23 -2 -29 -8 -7 -5 -13 -6 -13
-2 0 5 -9 0 -20 -10 -11 -10 -20 -14 -20 -9 0 4 -24 -15 -53 -44 -29 -29 -55
-50 -58 -47 -3 2 -19 -10 -35 -27 -16 -18 -19 -24 -6 -14 12 11 22 15 22 11 0
-5 11 2 25 15 14 13 25 20 25 15 0 -4 9 0 20 10 11 10 20 14 20 10 0 -5 11 2
25 15 14 13 25 20 25 15 0 -5 13 3 28 18 16 15 31 25 33 22 3 -3 16 6 29 20
13 14 21 25 17 25 -3 0 -8 -4 -11 -9z m-20 -18 c-2 -3 -7 -4 -11 -3 -4 1 -20
-11 -36 -26 -16 -15 -29 -24 -29 -19 0 5 -11 -2 -25 -15 -14 -13 -25 -20 -25
-15 0 4 -10 0 -22 -11 -13 -10 -5 0 16 23 22 23 43 40 46 38 4 -3 13 2 20 10
7 8 16 13 20 10 5 -3 11 -2 14 3 3 5 12 9 21 9 8 0 13 -2 11 -4z"/>
<path d="M689 1773 c-13 -16 -12 -17 4 -4 9 7 17 15 17 17 0 8 -8 3 -21 -13z"/>
<path d="M644 1748 l-19 -23 23 19 c12 11 22 21 22 23 0 8 -8 2 -26 -19z"/>
<path d="M1119 1793 c-13 -16 -12 -17 4 -4 9 7 17 15 17 17 0 8 -8 3 -21 -13z"/>
<path d="M1070 1765 c-7 -8 -16 -13 -20 -10 -4 2 -15 -4 -25 -15 -10 -11 -21
-17 -25 -15 -4 2 -15 -4 -25 -15 -10 -11 -21 -17 -25 -15 -4 2 -15 -4 -25 -15
-10 -11 -21 -17 -25 -15 -4 2 -15 -4 -24 -13 -15 -17 -14 -18 19 -17 26 0 44
10 73 38 21 21 41 35 43 32 3 -2 23 13 44 35 22 22 36 40 33 40 -3 0 -11 -7
-18 -15z m-20 -18 c0 -2 -10 -12 -22 -23 l-23 -19 19 23 c18 21 26 27 26 19z
m-83 -65 c-23 -23 -46 -38 -61 -38 -14 0 -22 4 -20 8 3 5 9 6 13 3 5 -2 16 4
26 15 10 11 21 17 25 15 4 -2 15 4 25 15 10 11 21 20 24 20 3 0 -12 -17 -32
-38z"/>
<path d="M929 1663 c-13 -16 -12 -17 4 -4 9 7 17 15 17 17 0 8 -8 3 -21 -13z"/>
<path d="M1179 1743 c-13 -16 -12 -17 4 -4 9 7 17 15 17 17 0 8 -8 3 -21 -13z"/>
<path d="M1130 1715 c-7 -8 -16 -13 -20 -10 -4 2 -15 -4 -25 -15 -10 -11 -21
-17 -25 -15 -4 2 -15 -4 -25 -15 -10 -11 -21 -17 -26 -15 -4 3 -10 1 -13 -3
-8 -13 40 -8 56 6 8 6 17 10 20 7 2 -3 22 13 43 35 22 22 36 40 33 40 -3 0
-11 -7 -18 -15z m-20 -18 c0 -2 -10 -12 -22 -23 l-23 -19 19 23 c18 21 26 27
26 19z m-50 -31 c0 -2 -8 -10 -17 -17 -16 -13 -17 -12 -4 4 13 16 21 21 21 13z"/>
<path d="M1234 1688 l-19 -23 23 19 c21 18 27 26 19 26 -2 0 -12 -10 -23 -22z"/>
<path d="M1190 1665 c-7 -8 -16 -13 -20 -10 -4 3 -13 -1 -19 -8 -20 -25 17
-15 41 10 12 13 19 23 16 23 -3 0 -11 -7 -18 -15z"/>
<path d="M1299 1643 c-13 -16 -12 -17 4 -4 16 13 21 21 13 21 -2 0 -10 -8 -17
-17z"/>
<path d="M909 1304 c-18 -18 -26 -34 -21 -38 6 -3 13 -2 17 4 4 6 10 8 15 5 4
-3 13 2 20 10 7 8 16 13 20 10 4 -2 15 4 25 15 10 11 21 17 26 15 4 -3 10 -2
13 3 2 4 -16 8 -40 8 -37 0 -50 -6 -75 -32z m69 9 c-6 -8 -13 -11 -16 -8 -3 3
-14 -2 -24 -12 -10 -9 -18 -13 -18 -8 0 4 -8 1 -17 -6 -10 -7 -6 0 9 17 17 18
38 30 53 30 19 0 22 -3 13 -13z"/>
<path d="M929 1303 c-13 -16 -12 -17 4 -4 9 7 17 15 17 17 0 8 -8 3 -21 -13z"/>
<path d="M1058 1323 c-6 -7 -13 -11 -17 -8 -11 6 -103 -90 -95 -98 4 -4 13 -2
21 4 7 6 13 8 13 4 0 -5 9 0 20 10 11 10 20 14 20 10 0 -5 11 2 25 15 14 13
25 20 25 15 0 -4 9 0 20 10 11 10 20 14 20 10 0 -5 11 2 25 15 14 13 25 19 25
14 0 -6 -13 -23 -30 -39 -16 -16 -30 -25 -30 -20 0 5 -22 -13 -50 -40 -27 -26
-47 -52 -44 -57 3 -5 12 -4 20 3 8 6 14 8 14 4 0 -5 9 0 20 10 11 10 20 14 20
10 0 -5 11 2 25 15 14 13 25 20 25 15 0 -4 9 0 20 10 11 10 20 14 20 10 0 -5
11 2 25 15 14 13 25 19 25 14 0 -6 -13 -23 -30 -39 -16 -16 -30 -25 -30 -20 0
5 -22 -13 -50 -40 -27 -26 -47 -52 -44 -57 3 -5 12 -4 20 3 8 6 14 8 14 4 0
-5 9 0 20 10 11 10 20 14 20 10 0 -5 11 2 25 15 14 13 25 20 25 15 0 -4 9 0
20 10 11 10 20 14 20 10 0 -5 11 2 25 15 14 13 25 19 25 14 0 -13 -55 -66 -61
-59 -3 2 -22 -12 -42 -33 l-38 -38 35 1 c19 0 44 9 55 19 12 11 21 15 21 11 0
-4 9 0 20 10 11 10 20 14 20 10 0 -5 11 2 25 15 14 13 25 19 25 14 0 -14 -55
-66 -62 -59 -3 3 -10 0 -16 -8 -19 -22 92 -16 117 7 20 19 31 10 11 -10 -6 -6
13 -9 50 -10 63 0 71 5 43 27 -17 13 -17 13 -3 -6 l15 -20 -24 20 c-14 11 -21
15 -17 8 4 -8 0 -11 -14 -8 -13 3 -18 0 -14 -7 5 -7 2 -8 -5 -4 -9 6 -8 13 5
27 9 11 20 17 22 14 3 -3 16 5 29 17 13 12 23 18 23 13 0 -5 11 2 25 15 14 13
25 20 25 15 0 -4 9 0 20 10 11 10 20 14 20 10 0 -5 11 2 25 15 14 13 25 20 25
15 0 -5 11 2 25 15 14 13 25 20 25 15 0 -4 9 0 20 10 11 10 20 14 20 10 0 -4
10 0 23 11 12 10 9 4 -7 -14 -16 -17 -32 -29 -35 -27 -3 3 -29 -18 -58 -47
-29 -29 -53 -48 -53 -43 0 5 -20 -11 -45 -35 -25 -24 -45 -47 -45 -50 0 -9
134 -6 149 4 8 5 12 5 9 0 -9 -14 124 -15 141 -1 8 7 12 7 9 2 -4 -7 3 -11 17
-11 19 0 22 4 19 26 -10 59 -26 62 -77 12 -18 -18 -37 -29 -40 -25 -10 10 -38
13 -32 4 2 -4 -2 -8 -10 -8 -11 0 -12 4 -3 14 6 7 13 11 16 8 3 -3 16 5 29 17
13 12 23 18 23 13 0 -4 9 0 20 10 23 21 54 30 44 13 -4 -7 -2 -8 4 -4 13 8 10
28 -19 106 l-22 60 -57 0 c-39 0 -62 -5 -70 -15 -7 -8 -16 -13 -19 -10 -4 2
-27 -16 -51 -40 -24 -24 -46 -42 -50 -40 -4 2 -24 -13 -45 -35 -21 -22 -41
-37 -45 -35 -4 3 -15 -4 -25 -15 -15 -16 -21 -18 -33 -7 -13 10 -14 9 -7 -3 5
-9 0 -8 -13 4 -21 18 -21 20 -5 38 9 10 19 16 21 13 3 -3 16 5 29 17 13 12 23
18 23 13 0 -5 11 2 25 15 14 13 25 20 25 15 0 -4 9 0 20 10 11 10 20 14 20 10
0 -5 11 2 25 15 14 13 25 20 25 15 0 -4 8 -1 18 7 9 9 25 14 34 13 10 -2 20 0
23 4 2 4 -129 7 -291 7 -222 -1 -298 -4 -306 -13z m70 -10 c-6 -8 -13 -11 -16
-8 -3 3 -14 -2 -24 -12 -10 -9 -18 -12 -18 -8 0 5 -11 -2 -25 -15 -14 -13 -25
-20 -25 -15 0 4 -9 0 -20 -10 -11 -10 -20 -15 -20 -10 0 4 -8 1 -17 -6 -10 -7
2 8 26 34 24 25 48 44 52 42 3 -3 11 1 17 8 6 7 27 13 46 13 28 0 33 -3 24
-13z m156 7 c-3 -3 -7 -3 -9 0 -2 3 -15 -6 -29 -19 -14 -14 -26 -21 -26 -16 0
5 -11 -2 -25 -15 -14 -13 -25 -20 -25 -15 0 4 -9 0 -20 -10 -11 -10 -20 -14
-20 -10 0 5 -11 -2 -25 -15 -14 -13 -25 -20 -25 -15 0 4 -9 0 -20 -10 -11 -10
-20 -15 -20 -10 0 4 -8 1 -17 -6 -10 -7 2 8 26 34 24 25 47 44 51 42 4 -2 23
13 43 33 33 34 41 37 91 37 30 0 52 -2 50 -5z m84 -27 c-17 -18 -34 -30 -37
-28 -2 3 -15 -5 -28 -17 -13 -12 -23 -18 -23 -13 0 5 -11 -2 -25 -15 -14 -13
-25 -20 -25 -15 0 4 -9 0 -20 -10 -11 -10 -20 -14 -20 -10 0 5 -11 -2 -25 -15
-14 -13 -25 -20 -25 -15 0 4 -9 0 -20 -10 -11 -10 -20 -15 -20 -10 0 4 -8 1
-17 -6 -10 -7 2 8 26 34 24 25 47 44 51 42 4 -2 28 18 55 45 27 27 52 47 55
45 4 -3 14 3 23 13 11 12 31 18 61 18 l46 0 -32 -33z m140 10 c-12 -13 -24
-21 -27 -18 -2 3 -24 -14 -48 -37 -24 -23 -43 -38 -43 -33 0 5 -11 -2 -25 -15
-14 -13 -25 -20 -25 -15 0 5 -11 -2 -25 -15 -14 -13 -25 -20 -25 -15 0 4 -9 0
-20 -10 -11 -10 -20 -14 -20 -10 0 4 -9 0 -21 -11 -11 -10 -31 -19 -45 -20
l-25 -1 27 28 c15 16 30 26 34 24 4 -2 28 18 55 45 27 27 52 47 55 45 4 -3 15
4 25 15 10 11 21 17 25 15 4 -2 15 4 25 15 10 11 21 17 25 15 4 -3 12 1 18 8
6 7 27 13 46 13 l35 0 -21 -23z m280 -70 c-12 -12 -24 -21 -27 -18 -2 3 -26
-16 -53 -42 -26 -26 -48 -43 -48 -39 0 5 -9 1 -21 -10 -25 -23 -116 -29 -97
-7 6 8 13 11 16 8 3 -3 16 5 29 17 13 12 23 18 23 13 0 -4 9 0 20 10 11 10 20
14 20 10 0 -5 11 2 25 15 14 13 25 20 25 15 0 -5 10 1 23 13 13 12 26 20 29
17 3 -3 10 1 16 8 7 8 19 14 27 14 12 0 10 -6 -7 -24z m-418 -117 c-6 -6 -26
-11 -45 -11 l-35 -1 27 28 c25 26 28 27 45 11 13 -11 15 -20 8 -27z"/>
<path d="M1059 1303 c-6 -7 -15 -11 -19 -8 -4 2 -20 -10 -36 -28 -16 -18 -19
-24 -6 -13 12 11 22 15 22 11 0 -5 10 1 23 13 13 12 26 20 29 17 3 -3 10 1 16
8 9 10 8 14 -3 14 -9 0 -20 -6 -26 -14z"/>
<path d="M1143 1278 c-20 -20 -39 -35 -43 -33 -4 2 -20 -10 -36 -28 -16 -18
-19 -24 -6 -13 12 11 22 15 22 11 0 -5 11 2 25 15 14 13 25 20 25 15 0 -4 9 0
20 10 11 10 20 14 20 10 0 -5 10 1 23 13 13 12 26 20 29 17 3 -3 10 0 16 8 9
10 4 13 -24 13 -26 0 -42 -9 -71 -38z m50 10 c-9 -10 -18 -16 -21 -13 -3 3
-15 -3 -26 -12 -12 -10 -9 -4 7 13 15 17 34 31 42 31 13 0 12 -3 -2 -19z"/>
<path d="M1293 1298 c-8 -10 -19 -16 -23 -13 -3 2 -28 -18 -55 -45 -27 -27
-51 -47 -55 -45 -4 2 -20 -10 -36 -28 -16 -18 -19 -24 -6 -13 12 11 22 15 22
11 0 -5 11 2 25 15 14 13 25 20 25 15 0 -4 9 0 20 10 11 10 20 14 20 10 0 -5
11 2 25 15 14 13 25 20 25 15 0 -5 10 1 23 13 13 12 26 20 29 17 2 -3 14 5 26
18 l21 23 -35 0 c-20 0 -41 -7 -51 -18z m55 -5 c-6 -8 -13 -11 -16 -8 -3 3
-16 -5 -29 -17 -13 -12 -23 -18 -23 -13 0 5 -11 -2 -25 -15 -14 -13 -25 -20
-25 -15 0 4 -10 0 -22 -11 -13 -10 -5 0 16 23 22 23 42 40 46 38 4 -3 15 3 23
13 20 22 73 26 55 5z"/>
<path d="M1294 1278 l-19 -23 23 19 c21 18 27 26 19 26 -2 0 -12 -10 -23 -22z"/>
<path d="M1244 1248 l-19 -23 23 19 c21 18 27 26 19 26 -2 0 -12 -10 -23 -22z"/>
<path d="M1448 1303 c-5 -7 -14 -11 -18 -8 -4 2 -15 -4 -25 -15 -10 -11 -21
-17 -25 -15 -4 2 -15 -4 -25 -15 -10 -11 -21 -18 -25 -15 -3 2 -28 -18 -55
-45 -27 -27 -52 -47 -55 -45 -4 3 -15 -4 -25 -14 -14 -17 -14 -19 -1 -17 8 1
24 10 36 21 11 10 20 14 20 10 0 -4 9 0 20 10 11 10 20 14 20 10 0 -5 11 2 25
15 14 13 25 20 25 15 0 -5 11 2 25 15 14 13 25 20 25 15 0 -5 19 10 43 33 24
23 46 40 49 37 3 -3 10 0 16 8 9 10 6 13 -14 13 -14 0 -30 -6 -36 -13z m-13
-33 c-21 -22 -41 -37 -44 -35 -2 3 -15 -5 -28 -17 -13 -12 -23 -18 -23 -13 0
5 -11 -2 -25 -15 -14 -13 -25 -20 -25 -15 0 4 -10 0 -22 -11 -13 -10 -5 0 16
23 22 23 42 40 46 38 4 -3 15 4 25 15 10 11 21 17 25 15 4 -2 15 4 25 15 10
11 21 17 25 15 4 -3 13 2 20 10 7 8 15 15 18 15 3 0 -11 -18 -33 -40z"/>
<path d="M1404 1258 l-19 -23 23 19 c21 18 27 26 19 26 -2 0 -12 -10 -23 -22z"/>
<path d="M1354 1228 l-19 -23 23 19 c12 11 22 21 22 23 0 8 -8 2 -26 -19z"/>
<path d="M1304 1198 l-19 -23 23 19 c21 18 27 26 19 26 -2 0 -12 -10 -23 -22z"/>
<path d="M1769 1233 c-13 -16 -12 -17 4 -4 16 13 21 21 13 21 -2 0 -10 -8 -17
-17z"/>
<path d="M1725 1210 c-10 -11 -21 -17 -25 -15 -4 2 -15 -4 -25 -15 -10 -11
-21 -17 -25 -15 -4 3 -13 -2 -20 -10 -7 -8 -16 -13 -20 -10 -4 2 -15 -4 -24
-14 -15 -17 -15 -18 8 -17 14 1 33 9 44 19 10 9 21 15 23 12 3 -2 25 16 49 40
24 25 42 45 39 45 -3 0 -14 -9 -24 -20z m-25 -23 c0 -2 -10 -12 -22 -23 l-23
-19 19 23 c18 21 26 27 26 19z m-63 -45 c-17 -18 -51 -27 -41 -10 3 5 9 6 14
3 4 -3 13 2 20 10 7 8 15 15 18 15 3 0 -2 -8 -11 -18z"/>
<path d="M1326 1132 c-15 -18 -15 -19 8 -18 32 2 40 10 23 25 -11 8 -18 7 -31
-7z m28 0 c3 -5 -1 -9 -9 -9 -8 0 -12 4 -9 9 3 4 7 8 9 8 2 0 6 -4 9 -8z"/>
<path d="M1600 1305 c-7 -9 -15 -13 -18 -10 -3 3 -16 -5 -29 -17 -13 -12 -23
-18 -23 -13 0 4 -9 0 -20 -10 -11 -10 -20 -14 -20 -10 0 5 -11 -2 -25 -15 -14
-13 -25 -20 -25 -15 0 5 -11 -2 -25 -15 -14 -13 -25 -20 -25 -16 0 5 -7 3 -15
-4 -15 -12 -11 -35 5 -25 5 3 12 0 15 -6 5 -7 15 -3 31 12 13 12 24 19 24 14
0 -5 19 10 43 33 24 23 45 40 48 37 3 -2 23 13 44 35 22 22 36 40 33 40 -3 0
-11 -7 -18 -15z m-20 -18 c0 -2 -10 -12 -22 -23 l-23 -19 19 23 c18 21 26 27
26 19z m-85 -67 c-21 -22 -41 -37 -44 -35 -2 3 -15 -4 -27 -16 -14 -13 -24
-17 -29 -10 -3 6 -11 8 -17 5 -7 -4 -8 -2 -4 5 4 6 11 9 15 6 5 -2 16 4 26 15
10 11 21 17 25 15 4 -2 15 4 25 15 10 11 21 17 25 15 4 -3 13 2 20 10 7 8 15
15 18 15 3 0 -11 -18 -33 -40z"/>
<path d="M1464 1208 l-19 -23 23 19 c21 18 27 26 19 26 -2 0 -12 -10 -23 -22z"/>
<path d="M1414 1178 l-19 -23 23 19 c21 18 27 26 19 26 -2 0 -12 -10 -23 -22z"/>
<path d="M1665 1260 c-10 -11 -21 -17 -25 -15 -4 2 -15 -4 -25 -15 -10 -11
-21 -17 -25 -15 -4 3 -13 -2 -20 -10 -7 -8 -16 -13 -20 -10 -4 2 -15 -4 -25
-15 -10 -11 -21 -17 -25 -15 -4 2 -16 -5 -26 -17 -11 -12 -14 -18 -8 -15 7 4
17 0 25 -9 11 -13 18 -9 59 31 25 25 48 43 51 40 3 -2 25 16 49 40 24 25 42
45 39 45 -3 0 -14 -9 -24 -20z m-25 -23 c0 -2 -10 -12 -22 -23 l-23 -19 19 23
c18 21 26 27 26 19z m-90 -72 c-33 -34 -47 -42 -57 -34 -13 12 -8 33 6 24 5
-2 16 4 26 15 10 11 21 17 25 15 4 -3 13 2 20 10 7 8 15 15 18 15 4 0 -14 -20
-38 -45z"/>
<path d="M1525 1160 c-10 -11 -22 -17 -28 -13 -6 4 -7 1 -2 -6 5 -9 13 -7 31
10 13 12 24 24 24 26 0 7 -8 2 -25 -17z"/>
<path d="M1785 1160 c-10 -11 -21 -17 -25 -15 -4 3 -13 -2 -19 -9 -26 -31 8
-23 39 9 19 19 31 35 29 35 -3 0 -14 -9 -24 -20z"/>
<path d="M1544 818 c-3 -5 -9 -6 -13 -3 -5 2 -18 -6 -30 -19 -13 -14 -18 -26
-12 -30 5 -4 12 -2 16 4 4 6 10 8 15 5 4 -3 13 2 20 10 7 8 16 13 20 10 4 -3
13 2 20 10 7 8 16 13 20 10 5 -3 11 -2 14 3 2 4 -11 8 -30 8 -20 0 -38 -4 -40
-8z m30 -10 c-4 -5 -9 -7 -12 -4 -3 3 -14 -1 -24 -11 -10 -9 -18 -13 -18 -8 0
4 -8 1 -17 -6 -15 -11 -15 -10 1 8 10 13 22 20 27 18 4 -3 10 -2 13 3 3 5 12
9 20 9 8 0 13 -4 10 -9z"/>
<path d="M1648 813 c-6 -7 -14 -11 -17 -8 -11 6 -93 -80 -85 -88 4 -4 13 -2
21 4 7 6 13 8 13 4 0 -5 9 0 20 10 11 10 20 14 20 10 0 -4 9 0 20 10 11 10 20
14 20 10 0 -5 10 1 23 13 13 12 26 20 29 17 2 -3 12 3 21 13 15 17 14 18 -29
18 -25 0 -50 -6 -56 -13z m75 -6 c-3 -4 -8 -6 -11 -3 -3 4 -16 -4 -29 -16 -13
-12 -23 -18 -23 -13 0 4 -9 0 -20 -10 -11 -10 -20 -14 -20 -10 0 4 -9 0 -20
-10 -11 -10 -20 -15 -20 -10 0 4 -8 1 -17 -6 -10 -7 0 6 21 29 22 22 43 39 46
37 4 -3 12 1 18 8 12 14 84 18 75 4z"/>
<path d="M1649 793 c-6 -7 -15 -11 -19 -8 -4 2 -18 -8 -31 -23 -22 -25 -22
-25 -1 -8 12 11 22 15 22 11 0 -4 8 -1 18 8 10 10 21 15 24 12 3 -3 10 1 16 8
9 10 8 14 -3 14 -9 0 -20 -6 -26 -14z"/>
<path d="M1731 788 c-19 -21 -36 -36 -39 -33 -9 8 -92 -77 -86 -87 3 -5 12 -4
20 3 8 6 14 8 14 4 0 -5 9 0 20 10 11 10 20 14 20 10 0 -4 9 0 20 10 11 10 20
14 20 10 0 -5 11 2 25 15 14 13 25 20 25 15 0 -5 11 2 25 15 14 13 25 19 25
14 0 -6 -16 -25 -35 -44 -19 -19 -35 -30 -35 -25 0 5 -20 -11 -45 -35 -24 -24
-42 -47 -39 -52 3 -5 12 -4 20 3 8 6 14 8 14 4 0 -5 9 0 20 10 11 10 20 14 20
10 0 -4 9 0 20 10 11 10 20 14 20 10 0 -5 11 2 25 15 13 12 24 25 23 29 0 3 1
9 2 14 1 4 4 12 5 17 1 6 4 11 5 13 1 1 3 13 4 27 1 14 4 30 8 35 4 6 -12 10
-40 10 -42 1 -51 -3 -81 -37z m105 15 c-1 -8 -5 -12 -8 -11 -4 2 -18 -8 -32
-21 -14 -14 -26 -21 -26 -16 0 5 -11 -2 -25 -15 -14 -13 -25 -20 -25 -15 0 4
-9 0 -20 -10 -11 -10 -20 -14 -20 -10 0 4 -9 0 -20 -10 -11 -10 -20 -15 -20
-10 0 4 -8 1 -17 -6 -10 -7 0 6 21 29 22 22 42 39 46 37 4 -2 23 13 43 33 28
29 45 38 71 38 22 0 33 -5 32 -13z m-6 -48 c-7 -8 -9 -15 -5 -15 4 0 2 -7 -5
-15 -7 -8 -9 -15 -5 -15 5 0 0 -9 -10 -20 -10 -11 -20 -18 -23 -15 -3 3 -14
-2 -24 -12 -10 -9 -18 -12 -18 -8 0 4 -9 0 -20 -10 -11 -10 -20 -15 -20 -10 0
4 -8 1 -17 -6 -10 -7 0 6 21 29 22 22 42 39 46 37 4 -2 24 14 45 35 39 39 59
54 35 25z"/>
<path d="M1734 769 c-21 -21 -40 -36 -44 -34 -4 2 -18 -8 -31 -23 -22 -25 -22
-25 -1 -8 12 11 22 15 22 11 0 -4 9 0 20 10 11 10 20 14 20 10 0 -5 11 2 25
15 14 13 25 20 25 15 0 -5 10 1 23 13 13 12 27 20 30 17 4 -3 5 -2 2 2 -16 20
-56 8 -91 -28z m54 14 c-6 -7 -13 -11 -16 -8 -3 3 -17 -5 -31 -17 -24 -21 -24
-21 2 8 27 30 70 46 45 17z"/>
<path d="M1785 710 c-15 -16 -31 -27 -35 -25 -4 2 -18 -8 -31 -23 -22 -25 -22
-25 -1 -8 12 11 22 15 22 11 0 -4 8 -1 18 8 10 10 21 15 24 12 3 -3 11 1 18
10 7 8 9 15 5 15 -4 0 -2 7 5 15 22 26 5 16 -25 -15z"/>
<path d="M1766 622 l-37 -39 28 2 c15 0 28 5 28 11 0 5 5 16 10 24 9 14 16 40
11 40 -1 0 -19 -17 -40 -38z m21 0 c-10 -10 -15 -21 -12 -24 3 -2 -2 -5 -10
-5 -12 0 -10 6 7 24 25 27 39 32 15 5z"/>
</g>
</svg>
