<svg width="94" height="94" viewBox="0 0 94 94" fill="none" xmlns="http://www.w3.org/2000/svg">
<circle cx="47.0001" cy="46.631" r="46.631" fill="#FFD9DD"/>
<path d="M38.25 69.5H55.75C58.5114 69.5 60.75 67.1297 60.75 64.2059L61.8915 35.1984C61.9507 33.6946 60.8152 32.4412 59.3937 32.4412H34.6063C33.1848 32.4412 32.0493 33.6946 32.1085 35.1984L33.25 64.2059C33.25 67.1297 35.4886 69.5 38.25 69.5Z" fill="#FFD9DD"/>
<path d="M27 32.4412H67M39.5 24.5H54.5M42 58.9118V43.0294M52 58.9118V43.0294M55.75 69.5H38.25C35.4886 69.5 33.25 67.1297 33.25 64.2059L32.1085 35.1984C32.0493 33.6946 33.1848 32.4412 34.6063 32.4412H59.3937C60.8152 32.4412 61.9507 33.6946 61.8915 35.1984L60.75 64.2059C60.75 67.1297 58.5114 69.5 55.75 69.5Z" stroke="#D92D3D" stroke-width="5" stroke-linecap="round" stroke-linejoin="round"/>
</svg>
