<svg width="18" height="18" viewBox="0 0 18 18" fill="none" xmlns="http://www.w3.org/2000/svg">
<g clip-path="url(#clip0_3634_7206)">
<path d="M16.8756 8.99818H15.7506C15.6622 8.99818 15.5898 9.0705 15.5898 9.15889V15.5875H2.41127V2.40889H8.83984C8.92824 2.40889 9.00056 2.33657 9.00056 2.24818V1.12318C9.00056 1.03478 8.92824 0.962463 8.83984 0.962463H1.6077C1.25212 0.962463 0.964844 1.24974 0.964844 1.60532V16.391C0.964844 16.7466 1.25212 17.0339 1.6077 17.0339H16.3934C16.749 17.0339 17.0363 16.7466 17.0363 16.391V9.15889C17.0363 9.0705 16.964 8.99818 16.8756 8.99818Z" fill="#E73848"/>
<path d="M5.86449 9.45822L5.82632 11.8468C5.82431 12.0256 5.96895 12.1723 6.14775 12.1723H6.15578L8.52632 12.114C8.5665 12.112 8.60668 12.0959 8.6348 12.0678L16.9899 3.73077C17.0522 3.66849 17.0522 3.56603 16.9899 3.50376L14.4928 1.00867C14.4607 0.976526 14.4205 0.962463 14.3783 0.962463C14.3361 0.962463 14.296 0.978535 14.2638 1.00867L5.91069 9.34572C5.88168 9.37607 5.86518 9.41624 5.86449 9.45822ZM7.14016 9.93233L14.3783 2.71023L15.2864 3.61626L8.04418 10.8424L7.1261 10.8645L7.14016 9.93233Z" fill="#E73848"/>
</g>
<defs>
<clipPath id="clip0_3634_7206">
<rect width="18" height="18" fill="white"/>
</clipPath>
</defs>
</svg>
