<svg width="25" height="24" viewBox="0 0 25 24" fill="none" xmlns="http://www.w3.org/2000/svg">
<path d="M13.8602 12C13.8602 12.2126 13.7971 12.4205 13.679 12.5972C13.5609 12.774 13.393 12.9118 13.1965 12.9932C13.0001 13.0745 12.784 13.0958 12.5754 13.0543C12.3669 13.0129 12.1754 12.9105 12.025 12.7601C11.8747 12.6098 11.7723 12.4183 11.7308 12.2097C11.6893 12.0012 11.7106 11.785 11.792 11.5886C11.8734 11.3922 12.0111 11.2243 12.1879 11.1062C12.3647 10.988 12.5725 10.925 12.7852 10.925C13.0703 10.925 13.3437 11.0383 13.5453 11.2399C13.7469 11.4415 13.8602 11.7149 13.8602 12ZM13.3824 6.51883C13.2056 6.63695 12.9978 6.7 12.7852 6.7C12.5 6.7 12.2266 6.58674 12.025 6.38514C11.8234 6.18354 11.7102 5.91011 11.7102 5.625C11.7102 5.41239 11.7732 5.20455 11.8913 5.02776C12.0094 4.85098 12.1773 4.71319 12.3738 4.63183C12.5702 4.55047 12.7863 4.52918 12.9949 4.57066C13.2034 4.61214 13.395 4.71452 13.5453 4.86486C13.6956 5.0152 13.798 5.20675 13.8395 5.41528C13.881 5.62381 13.8597 5.83995 13.7783 6.03639C13.697 6.23282 13.5592 6.40071 13.3824 6.51883ZM12.1879 17.4812C12.3647 17.363 12.5725 17.3 12.7852 17.3C13.0703 17.3 13.3437 17.4133 13.5453 17.6149C13.7469 17.8165 13.8602 18.0899 13.8602 18.375C13.8602 18.5876 13.7971 18.7955 13.679 18.9722C13.5609 19.149 13.393 19.2868 13.1965 19.3682C13.0001 19.4495 12.784 19.4708 12.5754 19.4293C12.3669 19.3879 12.1754 19.2855 12.025 19.1351C11.8747 18.9848 11.7723 18.7933 11.7308 18.5847C11.6893 18.3762 11.7106 18.16 11.792 17.9636C11.8734 17.7672 12.0111 17.5993 12.1879 17.4812Z" fill="#E81D23" stroke="#E81D23" stroke-width="0.1"/>
</svg>
