<svg width="34" height="26" viewBox="0 0 34 26" fill="none" xmlns="http://www.w3.org/2000/svg">
<mask id="mask0_3965_38285" style="mask-type:luminance" maskUnits="userSpaceOnUse" x="0" y="0" width="34" height="26">
<rect width="34" height="26" fill="white"/>
</mask>
<g mask="url(#mask0_3965_38285)">
<path fill-rule="evenodd" clip-rule="evenodd" d="M0 0V26H34V0H0Z" fill="#2E42A5"/>
<mask id="mask1_3965_38285" style="mask-type:luminance" maskUnits="userSpaceOnUse" x="0" y="0" width="34" height="26">
<path fill-rule="evenodd" clip-rule="evenodd" d="M0 0V26H34V0H0Z" fill="white"/>
</mask>
<g mask="url(#mask1_3965_38285)">
<rect width="19.125" height="15.1667" fill="#2B409A"/>
<mask id="mask2_3965_38285" style="mask-type:luminance" maskUnits="userSpaceOnUse" x="0" y="0" width="20" height="16">
<rect width="19.125" height="15.1667" fill="white"/>
</mask>
<g mask="url(#mask2_3965_38285)">
<path d="M-2.12939 14.0832L2.07912 15.9651L19.2206 2.04618L21.4405 -0.750477L16.9401 -1.37949L9.94852 4.6186L4.32098 8.6599L-2.12939 14.0832Z" fill="#F7FCFF"/>
<path d="M-1.55273 15.4018L0.591307 16.4939L20.6439 -1.01029H17.6334L-1.55273 15.4018Z" fill="#F50100"/>
<path d="M21.2546 14.0831L17.0461 15.9651L-0.0953922 2.04612L-2.31529 -0.750538L2.18511 -1.37955L9.17673 4.61853L14.8043 8.65984L21.2546 14.0831Z" fill="#F7FCFF"/>
<path d="M21.1108 15.0294L18.9668 16.1216L10.4282 8.62713L7.89669 7.78979L-2.52909 -0.740952H0.481396L10.9013 7.58731L13.6691 8.59136L21.1108 15.0294Z" fill="#F50100"/>
<mask id="path-10-outside-1_3965_38285" maskUnits="userSpaceOnUse" x="-1.99976" y="-2" width="23" height="19" fill="black">
<rect fill="white" x="-1.99976" y="-2" width="23" height="19"/>
<path fill-rule="evenodd" clip-rule="evenodd" d="M10.6086 0H8.48364V6.5H0.000244141V8.66667H8.48364V15.1667H10.6086V8.66667H19.1252V6.5H10.6086V0Z"/>
</mask>
<path fill-rule="evenodd" clip-rule="evenodd" d="M10.6086 0H8.48364V6.5H0.000244141V8.66667H8.48364V15.1667H10.6086V8.66667H19.1252V6.5H10.6086V0Z" fill="#F50100"/>
<path d="M8.48364 0V-1.5H6.98364V0H8.48364ZM10.6086 0H12.1086V-1.5H10.6086V0ZM8.48364 6.5V8H9.98364V6.5H8.48364ZM0.000244141 6.5V5H-1.49976V6.5H0.000244141ZM0.000244141 8.66667H-1.49976V10.1667H0.000244141V8.66667ZM8.48364 8.66667H9.98364V7.16667H8.48364V8.66667ZM8.48364 15.1667H6.98364V16.6667H8.48364V15.1667ZM10.6086 15.1667V16.6667H12.1086V15.1667H10.6086ZM10.6086 8.66667V7.16667H9.10864V8.66667H10.6086ZM19.1252 8.66667V10.1667H20.6252V8.66667H19.1252ZM19.1252 6.5H20.6252V5H19.1252V6.5ZM10.6086 6.5H9.10864V8H10.6086V6.5ZM8.48364 1.5H10.6086V-1.5H8.48364V1.5ZM9.98364 6.5V0H6.98364V6.5H9.98364ZM0.000244141 8H8.48364V5H0.000244141V8ZM1.50024 8.66667V6.5H-1.49976V8.66667H1.50024ZM8.48364 7.16667H0.000244141V10.1667H8.48364V7.16667ZM9.98364 15.1667V8.66667H6.98364V15.1667H9.98364ZM10.6086 13.6667H8.48364V16.6667H10.6086V13.6667ZM9.10864 8.66667V15.1667H12.1086V8.66667H9.10864ZM19.1252 7.16667H10.6086V10.1667H19.1252V7.16667ZM17.6252 6.5V8.66667H20.6252V6.5H17.6252ZM10.6086 8H19.1252V5H10.6086V8ZM9.10864 0V6.5H12.1086V0H9.10864Z" fill="#F7FCFF" mask="url(#path-10-outside-1_3965_38285)"/>
</g>
</g>
<g clip-path="url(#clip0_3965_38285)">
<path d="M9.375 20.6667L8.07335 21.8697L8.20225 20.102L6.45022 19.8343L7.91261 18.833L7.02951 17.2963L8.72417 17.8153L9.375 16.1667L10.0258 17.8153L11.7205 17.2963L10.8374 18.833L12.2998 19.8343L10.5477 20.102L10.6767 21.8697L9.375 20.6667Z" fill="#F7FCFF"/>
<path d="M22.375 13.1667L21.5072 13.9687L21.5932 12.7902L20.4251 12.6118L21.4001 11.9442L20.8113 10.9198L21.9411 11.2658L22.375 10.1667L22.8089 11.2658L23.9387 10.9198L23.3499 11.9442L24.3249 12.6118L23.1568 12.7902L23.2428 13.9687L22.375 13.1667Z" fill="#F7FCFF"/>
<path d="M24.375 5.16675L23.5072 5.96869L23.5932 4.79024L22.4251 4.61179L23.4001 3.94423L22.8113 2.91977L23.9411 3.26578L24.375 2.16675L24.8089 3.26578L25.9387 2.91977L25.3499 3.94423L26.3249 4.61179L25.1568 4.79024L25.2428 5.96869L24.375 5.16675Z" fill="#F7FCFF"/>
<path d="M29.375 9.16675L28.5072 9.96869L28.5932 8.79024L27.4251 8.61179L28.4001 7.94423L27.8113 6.91977L28.9411 7.26578L29.375 6.16675L29.8089 7.26578L30.9387 6.91977L30.3499 7.94423L31.3249 8.61179L30.1568 8.79024L30.2428 9.96869L29.375 9.16675Z" fill="#F7FCFF"/>
<path d="M25.375 22.1667L24.5072 22.9687L24.5932 21.7902L23.4251 21.6118L24.4001 20.9442L23.8113 19.9198L24.9411 20.2658L25.375 19.1667L25.8089 20.2658L26.9387 19.9198L26.3499 20.9442L27.3249 21.6118L26.1568 21.7902L26.2428 22.9687L25.375 22.1667Z" fill="#F7FCFF"/>
<path d="M28.875 14.4167L27.9933 14.8803L28.1617 13.8985L27.4484 13.2032L28.4342 13.06L28.875 12.1667L29.3158 13.06L30.3016 13.2032L29.5883 13.8985L29.7567 14.8803L28.875 14.4167Z" fill="#F7FCFF"/>
</g>
</g>
<defs>
<clipPath id="clip0_3965_38285">
<rect width="26.5625" height="22.75" fill="white" transform="translate(6.375 2.16675)"/>
</clipPath>
</defs>
</svg>
