<svg width="32" height="33" viewBox="0 0 32 33" fill="none" xmlns="http://www.w3.org/2000/svg">
<g clip-path="url(#clip0_2096_1175)">
<path d="M12.0003 24.4999V25.4999C12.0003 26.5608 12.4218 27.5782 13.1719 28.3283C13.9221 29.0785 14.9395 29.4999 16.0003 29.4999C17.0612 29.4999 18.0786 29.0785 18.8288 28.3283C19.5789 27.5782 20.0003 26.5608 20.0003 25.4999V24.4999M7.02571 13.4999C7.02406 12.3139 7.25715 11.1393 7.71157 10.0439C8.16598 8.94838 8.83272 7.95367 9.67336 7.11707C10.514 6.28047 11.5119 5.61852 12.6096 5.16938C13.7072 4.72025 14.8829 4.49281 16.0689 4.50017C21.0176 4.53696 24.9759 8.65034 24.9759 13.6129V14.4999C24.9759 18.9769 25.9126 21.5748 26.7376 22.9947C26.8264 23.1464 26.8737 23.3189 26.8747 23.4947C26.8756 23.6705 26.8302 23.8435 26.7429 23.9962C26.6557 24.1488 26.5297 24.2758 26.3778 24.3642C26.2258 24.4527 26.0532 24.4995 25.8774 24.4999H6.12329C5.94744 24.4995 5.77482 24.4526 5.62284 24.3642C5.47087 24.2757 5.34491 24.1487 5.25767 23.996C5.17044 23.8434 5.12502 23.6704 5.12599 23.4945C5.12696 23.3187 5.17429 23.1462 5.26321 22.9945C6.08862 21.5745 7.02571 18.9767 7.02571 14.4999L7.02571 13.4999Z" stroke="white" stroke-linecap="round" stroke-linejoin="round"/>
</g>
<defs>
<clipPath id="clip0_2096_1175">
<rect y="0.5" width="32" height="32" rx="6" fill="white"/>
</clipPath>
</defs>
</svg>
