<svg width="42" height="42" viewBox="0 0 42 42" fill="none" xmlns="http://www.w3.org/2000/svg">
<path d="M22.4061 4.1272H19.5936C19.3436 4.1272 19.2186 4.2522 19.2186 4.5022V19.2209H5.25098C5.00098 19.2209 4.87598 19.3459 4.87598 19.5959V22.4085C4.87598 22.6585 5.00098 22.7835 5.25098 22.7835H19.2186V37.5022C19.2186 37.7522 19.3436 37.8772 19.5936 37.8772H22.4061C22.6561 37.8772 22.7811 37.7522 22.7811 37.5022V22.7835H36.751C37.001 22.7835 37.126 22.6585 37.126 22.4085V19.5959C37.126 19.3459 37.001 19.2209 36.751 19.2209H22.7811V4.5022C22.7811 4.2522 22.6561 4.1272 22.4061 4.1272Z" fill="#E81D23"/>
</svg>
