<svg width="15" height="16" viewBox="0 0 15 16" fill="none" xmlns="http://www.w3.org/2000/svg">
<path d="M2.79222 12.284C2.82793 12.284 2.86364 12.2805 2.89936 12.2751L5.90293 11.7483C5.93864 11.7412 5.97257 11.7251 5.99757 11.6983L13.5672 4.12868C13.5838 4.11216 13.5969 4.09254 13.6059 4.07094C13.6148 4.04934 13.6194 4.02618 13.6194 4.00279C13.6194 3.9794 13.6148 3.95625 13.6059 3.93464C13.5969 3.91304 13.5838 3.89342 13.5672 3.8769L10.5994 0.907254C10.5654 0.873326 10.5208 0.855469 10.4726 0.855469C10.4244 0.855469 10.3797 0.873326 10.3458 0.907254L2.77614 8.4769C2.74936 8.50368 2.73329 8.53583 2.72614 8.57154L2.19936 11.5751C2.18199 11.6708 2.18819 11.7692 2.21744 11.862C2.24669 11.9547 2.2981 12.0389 2.36722 12.1073C2.48507 12.2215 2.63329 12.284 2.79222 12.284V12.284ZM3.99579 9.16975L10.4726 2.69475L11.7815 4.00368L5.30472 10.4787L3.71722 10.759L3.99579 9.16975V9.16975ZM13.9047 13.784H0.761858C0.445787 13.784 0.19043 14.0394 0.19043 14.3555V14.9983C0.19043 15.0769 0.254715 15.1412 0.333287 15.1412H14.3333C14.4119 15.1412 14.4761 15.0769 14.4761 14.9983V14.3555C14.4761 14.0394 14.2208 13.784 13.9047 13.784Z" fill="black" fill-opacity="0.88"/>
</svg>
