<svg width="12" height="12" viewBox="0 0 12 12" fill="none" xmlns="http://www.w3.org/2000/svg">
<path d="M4.56261 8.84598L4.56304 8.84564L4.56449 8.84449L10.0849 1.85124L10.0845 1.85089L10.0849 1.85124C10.1652 1.74825 10.2896 1.68806 10.4206 1.68806H11.3568C11.4461 1.68806 11.4954 1.79065 11.4407 1.85858L11.4407 1.85858L4.89967 10.1474C4.72712 10.3641 4.39809 10.3641 4.22688 10.1474L0.558579 5.5001C0.503957 5.43082 0.553249 5.32824 0.642516 5.32824H1.57868C1.64333 5.32832 1.70712 5.34304 1.76526 5.3713C1.82341 5.39956 1.8744 5.44063 1.9144 5.49142L1.91484 5.49107L1.9144 5.49142L4.56217 8.84633L4.56261 8.84598Z" fill="#2C5DA8" stroke="#2C5DA8" stroke-width="0.00111607"/>
</svg>
