<svg width="14" height="14" viewBox="0 0 14 14" fill="none" xmlns="http://www.w3.org/2000/svg">
<path d="M12.0312 2.51562H9.73438V1.64062C9.73438 1.58047 9.68516 1.53125 9.625 1.53125H8.85938C8.79922 1.53125 8.75 1.58047 8.75 1.64062V2.51562H5.25V1.64062C5.25 1.58047 5.20078 1.53125 5.14062 1.53125H4.375C4.31484 1.53125 4.26562 1.58047 4.26562 1.64062V2.51562H1.96875C1.72676 2.51562 1.53125 2.71113 1.53125 2.95312V12.0312C1.53125 12.2732 1.72676 12.4688 1.96875 12.4688H12.0312C12.2732 12.4688 12.4688 12.2732 12.4688 12.0312V2.95312C12.4688 2.71113 12.2732 2.51562 12.0312 2.51562ZM11.4844 11.4844H2.51562V6.28906H11.4844V11.4844ZM2.51562 5.35938V3.5H4.26562V4.15625C4.26562 4.21641 4.31484 4.26562 4.375 4.26562H5.14062C5.20078 4.26562 5.25 4.21641 5.25 4.15625V3.5H8.75V4.15625C8.75 4.21641 8.79922 4.26562 8.85938 4.26562H9.625C9.68516 4.26562 9.73438 4.21641 9.73438 4.15625V3.5H11.4844V5.35938H2.51562Z" fill="black" fill-opacity="0.45"/>
</svg>
