<svg width="100" height="100" viewBox="0 0 100 100" fill="none" xmlns="http://www.w3.org/2000/svg">
<g clip-path="url(#clip0_4645_253729)">
<path d="M113 84.09H-10V84.1515H113V84.09Z" fill="#EBEBEB"/>
<path d="M100.676 88.0495H92.5278V88.111H100.676V88.0495Z" fill="#EBEBEB"/>
<path d="M71.4803 88.7172H69.3418V88.7787H71.4803V88.7172Z" fill="#EBEBEB"/>
<path d="M92.2813 85.7652H87.5601V85.8267H92.2813V85.7652Z" fill="#EBEBEB"/>
<path d="M13.5303 86.1785H2.90479V86.24H13.5303V86.1785Z" fill="#EBEBEB"/>
<path d="M17.2786 86.1785H15.7207V86.24H17.2786V86.1785Z" fill="#EBEBEB"/>
<path d="M45.3866 87.2173H22.3423V87.2788H45.3866V87.2173Z" fill="#EBEBEB"/>
<path d="M48.3059 73.1188H0.803582C0.0294201 73.1188 -0.600586 72.4888 -0.600586 71.7147V4.94238C-0.600586 4.16821 0.0294201 3.53821 0.803582 3.53821H48.3059C49.0799 3.53821 49.7099 4.16821 49.7099 4.94238V71.7147C49.7099 72.4888 49.0799 73.1188 48.3059 73.1188ZM0.803582 3.59995C0.0631221 3.59995 -0.539086 4.20216 -0.539086 4.94262V71.7149C-0.539086 72.4554 0.0631221 73.0576 0.803582 73.0576H48.3059C49.0462 73.0576 49.6484 72.4554 49.6484 71.7149V4.94238C49.6484 4.20216 49.0462 3.59971 48.3059 3.59971L0.803582 3.59995Z" fill="#EBEBEB"/>
<path d="M101.514 73.1188H54.0123C53.2382 73.1188 52.6084 72.4888 52.6084 71.7147V4.94238C52.6084 4.16821 53.2384 3.53821 54.0123 3.53821H101.514C102.289 3.53821 102.919 4.16821 102.919 4.94238V71.7147C102.919 72.4888 102.289 73.1188 101.514 73.1188ZM54.0123 3.59995C53.2721 3.59995 52.6699 4.20216 52.6699 4.94262V71.7149C52.6699 72.4554 53.2721 73.0576 54.0123 73.0576H101.514C102.255 73.0576 102.857 72.4554 102.857 71.7149V4.94238C102.857 4.20216 102.255 3.59971 101.514 3.59971L54.0123 3.59995Z" fill="#EBEBEB"/>
<path d="M98.6966 83.7774V71.6464H93.0977V60.3961H92.308V66.8445H90.1545V65.061H86.2783V58.8869H85.5605V51.3409H84.9863V58.7496H83.6225V69.7257H81.0383V58.7496H76.3726V68.032H71.4743V56.7816H70.6846V63.23H68.5311V61.4463H64.6551V55.2724H63.9373V47.7264H63.3629V55.1352H61.9991V66.1112H59.4151V55.1352H54.7492V65.7523H51.6029V59.5782H50.885V52.0321H50.3106V59.4409H48.9468V70.4169H46.3626V59.4409H41.6969V70.4169H39.4V71.6464H35.376V60.3961H34.5863V66.8445H32.4328V65.061H28.5569V58.8869H27.8388V51.3409H27.2646V58.7496H26.013V58.1319H21.3471V58.7496H18.7631V58.1319H17.3993V50.7232H16.8249V58.2692H16.107V64.4431H12.2308V66.2268H10.0773V59.7784H9.28792V71.0287H3.68896V83.7774H98.6966Z" fill="#EBEBEB"/>
<path d="M26.5405 27.3298C30.0285 25.885 31.6847 21.8863 30.24 18.3984C28.7952 14.9105 24.7965 13.2542 21.3086 14.699C17.8207 16.1437 16.1644 20.1424 17.6091 23.6304C19.0539 27.1183 23.0526 28.7746 26.5405 27.3298Z" fill="#FAFAFA"/>
<path d="M20.3779 20.9373C20.3779 20.2809 19.8458 19.7491 19.1897 19.7491C19.0712 19.7491 18.9568 19.767 18.8485 19.7993C18.8657 19.6802 18.8751 19.5584 18.8751 19.4345C18.8751 18.0448 17.7484 16.9181 16.3588 16.9181C16.2003 16.9181 16.0456 16.9336 15.8953 16.9614C15.5086 16.3285 14.8131 15.9046 14.0173 15.9046C12.8124 15.9046 11.8351 16.8726 11.8171 18.0733C11.8048 18.0731 11.7928 18.0716 11.7805 18.0716C10.6609 18.0716 9.75342 18.9791 9.75342 20.0987C9.75342 21.2182 10.6609 22.1257 11.7805 22.1257H19.2247L19.2232 22.124C19.8638 22.106 20.3779 21.5823 20.3779 20.9373Z" fill="#F0F0F0"/>
<path d="M95.2334 37.4011C95.2334 36.7448 94.7013 36.2129 94.0452 36.2129C93.9266 36.2129 93.8122 36.2309 93.704 36.2631C93.7212 36.144 93.7306 36.0222 93.7306 35.8983C93.7306 34.5086 92.6039 33.3819 91.2142 33.3819C91.0558 33.3819 90.9011 33.3972 90.7508 33.4252C90.3641 32.7923 89.6689 32.3684 88.8728 32.3684C87.6679 32.3684 86.6905 33.3364 86.6726 34.5371C86.6603 34.5369 86.6482 34.5352 86.6359 34.5352C85.5164 34.5352 84.6089 35.4427 84.6089 36.5622C84.6089 37.6818 85.5164 38.5893 86.6359 38.5893H94.0799L94.0784 38.5875C94.7192 38.5698 95.2334 38.0461 95.2334 37.4011Z" fill="#F0F0F0"/>
<path d="M60.0386 19.3547C60.0386 18.3164 60.8804 17.4746 61.9188 17.4746C62.1065 17.4746 62.2875 17.5029 62.4585 17.5543C62.4312 17.3656 62.4162 17.1732 62.4162 16.9769C62.4162 14.7782 64.1987 12.9956 66.3974 12.9956C66.6481 12.9956 66.8929 13.02 67.1308 13.0643C67.7426 12.0628 68.8427 11.392 70.1022 11.392C72.0084 11.392 73.5548 12.9238 73.5833 14.8234C73.6028 14.8229 73.6217 14.8205 73.6414 14.8205C75.4126 14.8205 76.8485 16.2564 76.8485 18.0276C76.8485 19.799 75.4126 21.2349 73.6414 21.2349H61.8632L61.8656 21.2322C60.8521 21.2039 60.0386 20.3754 60.0386 19.3547Z" fill="#F0F0F0"/>
<path d="M25.2959 39.8268C25.2959 38.5774 26.3089 37.5644 27.5584 37.5644C27.7844 37.5644 28.0021 37.5986 28.208 37.6601C28.1751 37.4332 28.1574 37.2015 28.1574 36.9654C28.1574 34.3191 30.3025 32.174 32.9487 32.174C33.2503 32.174 33.545 32.2033 33.8314 32.2567C34.5679 31.0515 35.8916 30.2444 37.4072 30.2444C39.7014 30.2444 41.5624 32.0877 41.5964 34.3737C41.6197 34.3732 41.6426 34.3703 41.6662 34.3703C43.7978 34.3703 45.5257 36.0982 45.5257 38.2298C45.5257 40.3614 43.7978 42.0893 41.6662 42.0893H27.4922L27.4951 42.0861C26.275 42.0524 25.2959 41.0551 25.2959 39.8268Z" fill="#F0F0F0"/>
<path d="M35.2877 24.4973C35.2877 24.0892 34.9568 23.7586 34.549 23.7586C34.4752 23.7586 34.4041 23.7697 34.3369 23.7898C34.3478 23.7158 34.3534 23.64 34.3534 23.563C34.3534 22.6991 33.653 21.9985 32.7891 21.9985C32.6907 21.9985 32.5943 22.0081 32.501 22.0255C32.2607 21.6319 31.8285 21.3685 31.3335 21.3685C30.5844 21.3685 29.9768 21.9704 29.9658 22.7168C29.9581 22.7165 29.9507 22.7156 29.9429 22.7156C29.2469 22.7156 28.6826 23.2799 28.6826 23.9758C28.6826 24.6718 29.2469 25.2361 29.9429 25.2361H34.5709L34.5699 25.2351C34.9682 25.2238 35.2877 24.8983 35.2877 24.4973Z" fill="#F0F0F0"/>
<path d="M8.38135 46.9321C8.38135 46.524 8.71222 46.1934 9.12009 46.1934C9.19389 46.1934 9.26498 46.2044 9.33214 46.2246C9.32131 46.1506 9.31565 46.0748 9.31565 45.9978C9.31565 45.1338 10.016 44.4335 10.88 44.4335C10.9784 44.4335 11.0748 44.4431 11.1683 44.4603C11.4086 44.0667 11.8408 43.8032 12.3358 43.8032C13.0849 43.8032 13.6925 44.4052 13.7036 45.1515C13.7112 45.1513 13.7186 45.1503 13.7264 45.1503C14.4224 45.1503 14.9867 45.7146 14.9867 46.4106C14.9867 47.1065 14.4224 47.6708 13.7264 47.6708H9.09844L9.09942 47.6699C8.70115 47.6588 8.38135 47.3331 8.38135 46.9321Z" fill="#F0F0F0"/>
<path d="M77.6274 49.3429C77.6274 48.9347 77.9583 48.6041 78.3662 48.6041C78.44 48.6041 78.5111 48.6152 78.5782 48.6354C78.5674 48.5613 78.5618 48.4856 78.5618 48.4086C78.5618 47.5446 79.2621 46.8442 80.1261 46.8442C80.2245 46.8442 80.3209 46.8538 80.4141 46.8711C80.6545 46.4775 81.0867 46.214 81.5816 46.214C82.3307 46.214 82.9383 46.816 82.9494 47.5623C82.957 47.5621 82.9644 47.5611 82.9723 47.5611C83.6682 47.5611 84.2325 48.1254 84.2325 48.8213C84.2325 49.5173 83.6685 50.0816 82.9723 50.0816H78.3443L78.3453 50.0806C77.947 50.0693 77.6274 49.7438 77.6274 49.3429Z" fill="#F0F0F0"/>
<path d="M51.4999 95.2001C77.8421 95.2001 99.1966 93.953 99.1966 92.4146C99.1966 90.8762 77.8421 89.6292 51.4999 89.6292C25.1578 89.6292 3.80322 90.8762 3.80322 92.4146C3.80322 93.953 25.1578 95.2001 51.4999 95.2001Z" fill="#F5F5F5"/>
<path d="M85.645 19.7934L75.1273 35.8063L74.6648 36.5103L73.75 36.9357L41.1982 52.0622L44.4157 63.0791L45.1515 65.5981L42.6012 67.7046L20.6403 89.0439H2.46973L35.3247 61.759L33.3346 50.9239L32.7927 47.9749L35.3368 46.8034L70.0289 30.8309L81.3282 16.8542L78.2953 16.2544L87.8241 12.3007L87.3351 22.6059L85.645 19.7934Z" fill="#263238"/>
<path d="M85.645 19.7934L75.1273 35.8063L74.6648 36.5103L73.75 36.9357L41.1982 52.0622L44.4157 63.0791L45.1515 65.5981L42.6012 67.7046L20.6403 89.0439H2.46973L35.3247 61.759L33.3346 50.9239L32.7927 47.9749L35.3368 46.8034L70.029 30.8309L81.3282 16.8542L78.2953 16.2544L87.8241 12.3007L87.3351 22.6059L85.645 19.7934Z" fill="#D9D9D9"/>
<path d="M51.5197 53.0723L50.9687 54.1498L50.4078 55.2445L49.4263 54.8853L49.9183 53.9235L50.5382 52.7131L51.5197 53.0723Z" fill="#FFC2BC"/>
<path opacity="0.2" d="M51.5199 53.0723L50.9689 54.1498L49.9185 53.9235L50.5384 52.7131L51.5199 53.0723Z" fill="black"/>
<path d="M72.9558 46.8559C72.9558 46.8559 69.734 22.6054 65.7812 11.9005" stroke="#263238" stroke-miterlimit="10" stroke-linecap="round" stroke-linejoin="round"/>
<path d="M66.7271 46.2854L67.7738 46.2431L67.9765 43.8175L66.9298 43.8598L66.7271 46.2854Z" fill="#FFC2BC"/>
<path d="M67.8716 45.6893L66.7282 45.6542C66.6854 45.6529 66.6473 45.6812 66.6362 45.7225L66.3924 46.6426C66.3671 46.738 66.4367 46.8313 66.5356 46.8325C66.9484 46.8382 67.5454 46.8325 68.0638 46.8485C68.6699 46.8672 69.0556 46.8389 69.7666 46.8608C70.1963 46.8741 70.3331 46.445 70.1548 46.4005C69.3427 46.1968 68.8114 46.2345 68.1208 45.7781C68.0456 45.7287 67.9622 45.6923 67.8716 45.6893Z" fill="#263238"/>
<path opacity="0.2" d="M67.9762 43.8181L67.8719 45.0685L66.8247 45.1108L66.929 43.8606L67.9762 43.8181Z" fill="black"/>
<path d="M66.3019 37.4954C66.568 38.0038 66.587 43.3425 66.5875 44.6995H68.3966C68.628 43.2943 69.7865 35.7505 68.1567 34.6737C66.356 33.4856 61.7902 33.8939 61.7902 33.8939L61.4606 33.2273L60.8013 31.8989L57.0154 33.306L56.1913 33.611L55.8518 33.7389L55.8223 33.7488C55.8223 33.7488 55.8247 33.7857 55.8321 33.8496V33.8521C55.8444 33.9997 55.8788 34.2974 55.9403 34.6688C56.0043 35.0575 56.1002 35.5274 56.2405 35.9874C56.5898 37.1264 57.2097 38.2038 58.2872 37.8422C58.3339 37.8275 58.3807 37.8078 58.4274 37.7881C58.516 37.7487 58.6119 37.7118 58.7103 37.6749C59.4286 37.4166 60.3831 37.2469 61.372 37.151C63.6451 36.932 66.1001 37.1042 66.3019 37.4954Z" fill="#263238"/>
<path d="M68.476 44.8588L66.3629 44.9142L66.3511 44.2342L68.6733 44.1381L68.476 44.8588Z" fill="#E73848"/>
<path d="M50.5901 54.7198H49.3159C49.2731 54.7198 49.2359 54.7496 49.2261 54.7911L49.0103 55.7203C48.9879 55.8167 49.0627 55.908 49.1616 55.9062C49.5717 55.8991 49.8711 55.8753 50.3877 55.8753C50.7055 55.8753 51.6632 55.9082 52.1021 55.9082C52.5311 55.9082 52.6024 55.4743 52.4233 55.4352C51.6197 55.259 51.0152 55.016 50.7596 54.7842C50.7131 54.7422 50.6526 54.7198 50.5901 54.7198Z" fill="#263238"/>
<path d="M59.8591 33.7389C59.8591 33.7389 59.7779 34.0194 59.6402 34.4941C59.5245 34.8976 59.3646 35.4461 59.1777 36.0833C59.035 36.5679 58.8776 37.1066 58.7103 37.6749C57.9132 40.3686 56.8997 43.7314 56.3389 45.328C55.222 48.4965 51.4853 54.1323 51.4853 54.1323L49.687 53.473C49.687 53.473 52.4471 48.1644 53.3524 44.9516C53.9846 42.7081 54.976 38.6761 55.6279 35.9677C55.7435 35.488 55.8493 35.0476 55.9403 34.6688C56.0461 34.226 56.1322 33.8644 56.1913 33.611C56.2552 33.3453 56.2897 33.1953 56.2897 33.1953L57.0154 33.306L59.8591 33.7389Z" fill="#263238"/>
<path d="M51.6852 54.2504L49.5684 53.4745L49.8065 52.8445L52.063 53.5266L51.6852 54.2504Z" fill="#E73848"/>
<path opacity="0.2" d="M61.4601 33.2273L59.8586 35.0895L59.6397 34.4942L59.4011 33.8447L59.1772 36.0833L56.24 35.9874L55.6274 35.9677C55.7431 35.488 55.8488 35.0477 55.9399 34.6688C55.8784 34.2974 55.8439 33.9997 55.8316 33.8521V33.8496L55.8513 33.7389L56.1908 33.611C56.2547 33.3453 56.2892 33.1953 56.2892 33.1953L57.0149 33.306L60.8008 31.8989L61.4601 33.2273Z" fill="black"/>
<path opacity="0.2" d="M61.3715 37.151C60.2472 37.2592 59.1673 37.4659 58.4268 37.7881C58.3801 37.8078 58.3334 37.8275 58.2866 37.8422L58.5006 36.7894C58.5006 36.7894 60.3358 36.7033 61.3715 37.151Z" fill="black"/>
<path d="M47.6327 34.2388L46.9914 35.0897L46.4468 34.0407C46.4468 34.0407 47.065 33.3163 47.4249 33.6503L47.6327 34.2388Z" fill="#FFC2BC"/>
<path d="M46.0103 35.4788L45.8481 34.4181L46.4467 34.0407L46.9911 35.0897L46.0103 35.4788Z" fill="#FFC2BC"/>
<path d="M47.8081 34.1593L47.6282 34.2503L47.3618 33.5778L47.6467 33.4393L47.8081 34.1593Z" fill="white"/>
<path d="M54.9685 28.017C54.875 28.1769 54.7791 28.3343 54.6807 28.4893C54.4322 28.8927 54.1739 29.2888 53.9033 29.6799C53.8295 29.7882 53.7557 29.8939 53.6795 30.0022C53.4531 30.3269 53.2145 30.6442 52.9587 30.9616C52.8308 31.119 52.7004 31.2789 52.5552 31.4364C52.415 31.5963 52.2502 31.7611 52.0903 31.9038C51.4384 32.4769 50.7398 32.8927 50.0288 33.2641C49.313 33.6331 48.5897 33.9456 47.8271 34.2039L47.5073 33.4855C47.8271 33.2912 48.1592 33.0919 48.4766 32.8853C48.7988 32.6836 49.1162 32.4745 49.4237 32.258C49.7312 32.0415 50.0337 31.8226 50.3191 31.5938C50.6094 31.3699 50.8751 31.1239 51.1161 30.8829C51.5663 30.4228 51.9698 29.7488 52.388 29.1264C52.7988 28.4893 53.3178 27.3724 53.7237 26.7353L54.9685 28.017Z" fill="#263238"/>
<path opacity="0.2" d="M54.6802 28.4893C54.4317 28.8927 54.1734 29.2888 53.9028 29.6799C53.9028 28.9419 54.3235 28.2064 54.3235 28.2064C54.4932 28.2703 54.6064 28.3687 54.6802 28.4893Z" fill="black"/>
<path d="M68.7859 25.3668L68.0718 26.0317L68.1741 26.6475C68.4346 26.9919 69.0341 26.565 69.1751 26.4571C69.1972 26.4401 69.2208 26.427 69.2464 26.4165L69.6243 26.2622C69.7623 26.2059 69.8432 26.0617 69.8194 25.9146L69.7461 25.4625C69.717 25.2826 69.5438 25.1636 69.3655 25.2002L68.9394 25.2878C68.8821 25.2994 68.829 25.3269 68.7859 25.3668Z" fill="#FFC2BC"/>
<path d="M67.9087 26.0359L68.104 25.9865L68.2169 26.7008L67.9087 26.7739V26.0359Z" fill="white"/>
<path d="M68.0723 26.7796C67.2851 26.9493 66.5028 27.0477 65.7008 27.0994C64.8989 27.1461 64.0871 27.1461 63.2335 26.9862C63.0219 26.9444 62.7956 26.8903 62.5939 26.8239C62.3872 26.7599 62.1953 26.691 62.0035 26.6197C61.6222 26.4795 61.2556 26.3294 60.894 26.1646C60.7489 26.1006 60.6037 26.0342 60.4586 25.9678C60.1289 25.8153 59.8042 25.6578 59.4795 25.493C59.2409 25.3749 59.0047 25.2495 58.7686 25.1191L59.4008 23.616C60.0773 23.9555 60.8743 24.4155 61.5557 24.7525C62.2322 25.0748 62.9235 25.4463 63.5459 25.6086C63.878 25.6947 64.2298 25.7685 64.5938 25.8128C64.9579 25.8645 65.3294 25.8964 65.7033 25.926C66.0797 25.9555 66.4585 25.9727 66.8374 25.9776C67.2162 25.9948 67.6049 25.9948 67.9788 25.9998L68.0723 26.7796Z" fill="#263238"/>
<path opacity="0.2" d="M60.4591 25.9678C60.1294 25.8153 59.8047 25.6578 59.48 25.493L59.3521 24.7944C59.3521 24.7944 60.0482 25.097 60.4591 25.9678Z" fill="black"/>
<path d="M53.9312 26.6005C54.3469 27.5953 54.6591 28.6595 54.8999 29.6853C55.0755 30.4361 55.7038 31.167 55.8116 31.8371C56.0792 33.4983 56.1319 33.5202 56.2536 34.0572C57.0047 33.654 59.2745 33.1546 60.799 32.335C60.8615 26.2044 59.2165 23.814 59.2165 23.814C59.2165 23.814 58.6413 23.9513 57.9833 24.2096C57.8967 24.2431 57.8086 24.28 57.7196 24.3188C57.1429 24.5692 56.2153 25.0915 55.5776 25.4696C55.4436 25.5493 55.3085 25.6334 55.1774 25.7178C54.5105 26.1483 53.9312 26.6005 53.9312 26.6005Z" fill="#E73848"/>
<path opacity="0.7" d="M53.9312 26.6005C54.3469 27.5953 54.6591 28.6595 54.8999 29.6853C55.0755 30.4361 55.7038 31.167 55.8116 31.8371C56.0792 33.4983 56.1319 33.5202 56.2536 34.0572C57.0047 33.654 59.2745 33.1546 60.799 32.335C60.8615 26.2044 59.2165 23.814 59.2165 23.814C59.2165 23.814 58.6413 23.9513 57.9833 24.2096C57.8967 24.2431 57.8086 24.28 57.7196 24.3188C57.1429 24.5692 56.2153 25.0915 55.5776 25.4696C55.4436 25.5493 55.3085 25.6334 55.1774 25.7178C54.5105 26.1483 53.9312 26.6005 53.9312 26.6005Z" fill="white"/>
<path d="M57.9635 26.4844L58.055 25.9166L57.6659 25.8908L57.4268 26.155L57.9635 26.4844Z" fill="#E73848"/>
<path d="M57.6646 25.8918C56.9413 26.2952 56.2254 25.8254 55.763 25.5031C55.7457 25.4908 55.731 25.481 55.7138 25.4687C55.918 25.1858 55.9376 24.7405 55.8712 24.2731C55.7999 23.7393 55.6178 23.1759 55.4678 22.7922L57.1233 23.7417C57.116 23.8549 57.1037 23.9558 57.0988 24.0443C57.0766 24.2583 57.0742 24.4035 57.1922 24.497C57.2906 24.5757 57.4702 24.6175 57.7949 24.6323C57.9844 24.8561 58.1615 25.6138 57.6646 25.8918Z" fill="#FFC2BC"/>
<path d="M55.1772 25.7179C55.1772 25.7179 57.2614 27.8905 58.7853 29.0758C58.7853 29.0758 58.6734 25.23 57.9829 24.2096L59.4011 23.6153C59.4011 23.6153 60.7634 26.6278 60.9582 31.6558L61.5745 32.921L59.8579 34.6728L59.3037 33.3751L58.9386 35.5242L55.3863 35.8405L55.8223 33.3751L53.7236 26.7346L55.1772 25.7179Z" fill="#263238"/>
<path d="M57.7754 26.369C57.7754 26.369 58.2659 28.047 58.2334 28.9431L58.8662 29.2716L58.9796 28.785C58.9796 28.785 58.4221 26.6221 57.909 26.2426L57.7754 26.369Z" fill="#E73848"/>
<path d="M55.2649 25.537C55.2649 25.537 57.8661 28.3933 58.7859 29.0758C58.7859 29.0758 58.518 25.2074 57.9197 24.2347C57.9197 24.2347 58.3303 23.9523 59.207 24.8069L58.7692 25.6192L59.5478 26.1557C59.5478 26.1557 59.2801 29.0524 58.7692 30.427C58.7692 30.427 58.8299 29.9769 58.8179 29.5513L55.7645 27.8603L55.9006 26.9235L54.7471 26.8748C54.7468 26.8753 54.875 25.7722 55.2649 25.537Z" fill="#263238"/>
<path opacity="0.2" d="M55.2649 25.537C55.2649 25.537 57.8661 28.3933 58.7859 29.0758C58.7859 29.0758 58.518 25.2074 57.9197 24.2347C57.9197 24.2347 58.3303 23.9523 59.207 24.8069L58.7692 25.6192L59.5478 26.1557C59.5478 26.1557 59.2801 29.0524 58.7692 30.427C58.7692 30.427 58.8299 29.9769 58.8179 29.5513L55.7645 27.8603L55.9006 26.9235L54.7471 26.8748C54.7468 26.8753 54.875 25.7722 55.2649 25.537Z" fill="white"/>
<path d="M65.8602 12.1152C65.8602 12.1152 64.3894 11.9489 63.5621 12.3384C62.7348 12.7275 61.9078 13.9927 60.5695 14.1145C59.2313 14.2363 58.9639 13.7981 58.9639 13.7981C58.9639 13.7981 60.1429 15.8906 62.412 15.8663C64.6812 15.8419 65.857 15.4717 67.1911 16.3137C67.1911 16.3137 66.1633 12.7681 65.8602 12.1152Z" fill="#E73848"/>
<path opacity="0.2" d="M57.1923 24.497C57.0546 24.925 56.7126 25.5302 55.9033 25.5154C55.8541 25.5154 55.8073 25.5105 55.7631 25.5031C55.7458 25.4908 55.7311 25.481 55.7139 25.4687C55.918 25.1858 55.9377 24.7405 55.8713 24.2731C56.1788 24.0689 56.6044 23.9508 57.0988 24.0443C57.0767 24.2583 57.0742 24.4035 57.1923 24.497Z" fill="black"/>
<path d="M57.6653 25.8908C57.6653 25.8908 57.6995 26.3476 57.4793 26.7495C57.0252 26.6858 55.6656 26.0037 55.5947 25.4492C55.6166 25.2716 55.8063 25.0977 55.8063 25.0977C55.8063 25.0977 56.5974 25.8398 57.6653 25.8908Z" fill="white"/>
<path d="M57.6658 25.8908C57.6658 25.8908 58.0769 25.9892 58.3556 26.2426C58.4835 25.7144 57.9544 24.4423 57.8203 24.3732C57.5504 24.3122 57.1763 24.482 57.1763 24.482C57.1763 24.482 57.9177 25.1762 57.6658 25.8908Z" fill="white"/>
<path d="M54.0205 22.2662C53.993 22.6871 54.2562 23.4739 54.7386 23.0795C55.221 22.6849 54.068 21.5428 54.0205 22.2662Z" fill="#263238"/>
<path d="M56.9663 22.1071C57.2716 23.0972 57.5008 23.6615 57.1965 24.3383C56.739 25.3562 55.3705 25.352 54.7739 24.4706C54.2369 23.6773 53.8281 22.1914 54.6354 21.4576C55.4307 20.7346 56.661 21.1169 56.9663 22.1071Z" fill="#FFC2BC"/>
<path d="M57.124 20.8542C57.0249 20.2102 56.2603 20.2999 55.8121 20.6397C55.8084 20.6426 55.8045 20.6441 55.8008 20.6468V21.9191C55.985 21.8252 56.1521 21.7258 56.2829 21.6249C56.2829 21.6249 56.4564 22.5774 57.0387 22.8485C57.8042 22.1267 57.866 21.021 57.124 20.8542Z" fill="#263238"/>
<path d="M57.6438 22.7727C57.6602 23.051 57.5458 23.31 57.3899 23.4778C57.1552 23.7299 56.8553 23.5636 56.768 23.2483C56.6893 22.9646 56.7163 22.4916 57.0256 22.3563C57.3299 22.2232 57.6248 22.4547 57.6438 22.7727Z" fill="#FFC2BC"/>
<path d="M55.5922 22.9176C55.622 22.9964 55.604 23.0758 55.5521 23.0948C55.5002 23.1137 55.4343 23.0652 55.4045 22.9863C55.3747 22.9073 55.3927 22.8281 55.4446 22.8092C55.4963 22.7902 55.5624 22.8387 55.5922 22.9176Z" fill="#263238"/>
<path d="M54.6969 23.2451C54.7267 23.324 54.7088 23.4033 54.6571 23.4222C54.6052 23.4411 54.5393 23.3927 54.5095 23.3137C54.4797 23.235 54.4977 23.1555 54.5496 23.1366C54.601 23.1177 54.6672 23.1664 54.6969 23.2451Z" fill="#263238"/>
<path d="M54.9957 23.1801C54.9957 23.1801 54.976 23.6856 54.856 23.9713C55.0407 24.0438 55.2564 23.897 55.2564 23.897L54.9957 23.1801Z" fill="#ED893E"/>
<path d="M55.7953 24.0433C55.7646 24.0596 55.7311 24.0746 55.6947 24.0879C55.6819 24.0925 55.6674 24.0861 55.6627 24.0733C55.6578 24.0605 55.6647 24.0463 55.6772 24.0416C56.0251 23.9139 56.0964 23.6133 56.0969 23.6101C56.0999 23.5968 56.1132 23.5887 56.1264 23.5917C56.14 23.5946 56.1483 23.6079 56.1454 23.6212C56.1429 23.6332 56.0814 23.8925 55.7953 24.0433Z" fill="#263238"/>
<path d="M55.7602 22.5287C55.745 22.5368 55.7258 22.5366 55.71 22.5265C55.5226 22.4077 55.3553 22.4803 55.3536 22.481C55.3287 22.4921 55.2992 22.481 55.2876 22.4564C55.2763 22.4316 55.2874 22.4023 55.3122 22.3912C55.3211 22.3873 55.5309 22.2963 55.7632 22.4439C55.7863 22.4586 55.7932 22.4891 55.7787 22.512C55.7737 22.5191 55.7673 22.5248 55.7602 22.5287Z" fill="#263238"/>
<path d="M54.1956 23.0798C54.1873 23.0842 54.1777 23.0862 54.1676 23.0852C54.1403 23.0825 54.1201 23.0584 54.1228 23.0313C54.1484 22.7592 54.3506 22.6542 54.359 22.6483C54.3833 22.6357 54.4133 22.6453 54.4261 22.6694C54.4389 22.6935 54.4296 22.7231 54.4057 22.7359C54.3971 22.7398 54.2426 22.8229 54.2219 23.0411C54.22 23.0581 54.2099 23.0724 54.1956 23.0798Z" fill="#263238"/>
<path d="M56.2832 21.6249C56.2832 21.6249 55.6591 22.2677 55.0569 22.2353C55.0569 22.2353 55.31 22.129 55.4987 21.9307C55.4987 21.9307 54.3088 22.4461 53.7248 22.1703C53.1408 21.8945 53.2058 21.6124 53.2058 21.6124C53.2058 21.6124 53.2707 21.7809 53.8382 21.7647C53.8382 21.7647 53.3516 21.4402 53.5462 20.9861C53.5462 20.9861 53.6274 21.1644 53.8382 21.1807C53.8382 21.1807 54.3187 20.2887 55.5949 20.1425C56.8712 19.9967 57.1317 20.5027 57.188 20.8741C57.2448 21.2458 56.2832 21.6249 56.2832 21.6249Z" fill="#263238"/>
<path d="M80.1459 88.0496H62.7314C62.5596 88.0496 62.4204 88.1888 62.4204 88.3605V92.3282C62.4204 92.4999 62.5596 92.6392 62.7314 92.6392H80.1459C80.3176 92.6392 80.4569 92.4999 80.4569 92.3282V88.3605C80.4566 88.1888 80.3176 88.0496 80.1459 88.0496Z" fill="#E73848"/>
<path opacity="0.2" d="M63.9397 88.3145H63.2261V92.4146H63.9397V88.3145Z" fill="black"/>
<path opacity="0.2" d="M65.5615 88.2946H65.0425V92.3946H65.5615V88.2946Z" fill="black"/>
<path opacity="0.2" d="M67.0545 88.3145H66.7949V92.4146H67.0545V88.3145Z" fill="black"/>
<path opacity="0.2" d="M69.0652 88.2946H68.9355V92.3946H69.0652V88.2946Z" fill="black"/>
<path opacity="0.2" d="M78.9363 92.3943H79.6499V88.2942H78.9363V92.3943Z" fill="black"/>
<path opacity="0.2" d="M77.3144 92.4147H77.8335V88.3146H77.3144V92.4147Z" fill="black"/>
<path opacity="0.2" d="M75.822 92.3943H76.0815V88.2942H75.822V92.3943Z" fill="black"/>
<path opacity="0.2" d="M73.8108 92.4147H73.9404V88.3146H73.8108V92.4147Z" fill="black"/>
<path opacity="0.2" d="M71.4062 92.4147H71.4712V88.3146H71.4062V92.4147Z" fill="black"/>
<path opacity="0.2" d="M79.9751 88.748H62.9399C62.8203 88.748 62.7231 88.651 62.7231 88.5312C62.7231 88.4117 62.8201 88.3145 62.9399 88.3145H79.9751C80.0947 88.3145 80.1919 88.4114 80.1919 88.5312C80.1916 88.651 80.0947 88.748 79.9751 88.748Z" fill="white"/>
<path d="M80.6381 83.4705H63.2235C63.0518 83.4705 62.9126 83.6098 62.9126 83.7815V87.7492C62.9126 87.9209 63.0518 88.0601 63.2235 88.0601H80.6381C80.8098 88.0601 80.9491 87.9209 80.9491 87.7492V83.7815C80.9491 83.6098 80.8098 83.4705 80.6381 83.4705Z" fill="#E73848"/>
<path opacity="0.2" d="M64.4334 83.7355H63.7197V87.8356H64.4334V83.7355Z" fill="black"/>
<path opacity="0.2" d="M66.0547 83.7153H65.5356V87.8154H66.0547V83.7153Z" fill="black"/>
<path opacity="0.2" d="M67.5471 83.7355H67.2876V87.8356H67.5471V83.7355Z" fill="black"/>
<path opacity="0.2" d="M69.5584 83.7153H69.4287V87.8154H69.5584V83.7153Z" fill="black"/>
<path opacity="0.2" d="M79.4294 87.8153H80.1431V83.7152H79.4294V87.8153Z" fill="black"/>
<path opacity="0.2" d="M77.8076 87.8354H78.3267V83.7354H77.8076V87.8354Z" fill="black"/>
<path opacity="0.2" d="M76.3147 87.8153H76.5742V83.7152H76.3147V87.8153Z" fill="black"/>
<path opacity="0.2" d="M74.3044 87.8354H74.4341V83.7354H74.3044V87.8354Z" fill="black"/>
<path opacity="0.2" d="M71.8979 87.8354H71.9629V83.7353H71.8979V87.8354Z" fill="black"/>
<path opacity="0.2" d="M80.4678 84.1689H63.4325C63.313 84.1689 63.2158 84.072 63.2158 83.9522C63.2158 83.8324 63.3127 83.7355 63.4325 83.7355H80.4678C80.5874 83.7355 80.6845 83.8324 80.6845 83.9522C80.6845 84.0718 80.5874 84.1689 80.4678 84.1689Z" fill="white"/>
<path d="M80.6381 78.8912H63.2235C63.0518 78.8912 62.9126 79.0305 62.9126 79.2022V83.1699C62.9126 83.3416 63.0518 83.4809 63.2235 83.4809H80.6381C80.8098 83.4809 80.9491 83.3416 80.9491 83.1699V79.2022C80.9491 79.0305 80.8098 78.8912 80.6381 78.8912Z" fill="#E73848"/>
<path opacity="0.2" d="M64.4334 79.1562H63.7197V83.2563H64.4334V79.1562Z" fill="black"/>
<path opacity="0.2" d="M66.0547 79.136H65.5356V83.2361H66.0547V79.136Z" fill="black"/>
<path opacity="0.2" d="M67.5471 79.1561H67.2876V83.2562H67.5471V79.1561Z" fill="black"/>
<path opacity="0.2" d="M69.5584 79.136H69.4287V83.2361H69.5584V79.136Z" fill="black"/>
<path opacity="0.2" d="M79.4294 83.2362H80.1431V79.1361H79.4294V83.2362Z" fill="black"/>
<path opacity="0.2" d="M77.8076 83.2563H78.3267V79.1562H77.8076V83.2563Z" fill="black"/>
<path opacity="0.2" d="M76.3147 83.2362H76.5742V79.1361H76.3147V83.2362Z" fill="black"/>
<path opacity="0.2" d="M74.3044 83.2563H74.4341V79.1562H74.3044V83.2563Z" fill="black"/>
<path opacity="0.2" d="M71.8979 83.2563H71.9629V79.1562H71.8979V83.2563Z" fill="black"/>
<path opacity="0.2" d="M80.4678 79.5896H63.4325C63.313 79.5896 63.2158 79.4927 63.2158 79.3728C63.2158 79.2533 63.3127 79.1561 63.4325 79.1561H80.4678C80.5874 79.1561 80.6845 79.253 80.6845 79.3728C80.6845 79.4927 80.5874 79.5896 80.4678 79.5896Z" fill="white"/>
<path d="M80.1459 74.3122H62.7314C62.5596 74.3122 62.4204 74.4514 62.4204 74.6231V78.5909C62.4204 78.7626 62.5596 78.9018 62.7314 78.9018H80.1459C80.3176 78.9018 80.4569 78.7626 80.4569 78.5909V74.6231C80.4566 74.4514 80.3176 74.3122 80.1459 74.3122Z" fill="#E73848"/>
<path opacity="0.2" d="M63.9397 74.5771H63.2261V78.6772H63.9397V74.5771Z" fill="black"/>
<path opacity="0.2" d="M65.5615 74.5569H65.0425V78.657H65.5615V74.5569Z" fill="black"/>
<path opacity="0.2" d="M67.0545 74.5771H66.7949V78.6772H67.0545V74.5771Z" fill="black"/>
<path opacity="0.2" d="M69.0652 74.5569H68.9355V78.657H69.0652V74.5569Z" fill="black"/>
<path opacity="0.2" d="M78.9363 78.6569H79.6499V74.5568H78.9363V78.6569Z" fill="black"/>
<path opacity="0.2" d="M77.3144 78.6771H77.8335V74.577H77.3144V78.6771Z" fill="black"/>
<path opacity="0.2" d="M75.822 78.6569H76.0815V74.5568H75.822V78.6569Z" fill="black"/>
<path opacity="0.2" d="M73.8108 78.6771H73.9404V74.577H73.8108V78.6771Z" fill="black"/>
<path opacity="0.2" d="M71.4062 78.677H71.4712V74.5769H71.4062V78.677Z" fill="black"/>
<path opacity="0.2" d="M79.9751 75.0104H62.9399C62.8203 75.0104 62.7231 74.9134 62.7231 74.7936C62.7231 74.6738 62.8201 74.5769 62.9399 74.5769H79.9751C80.0947 74.5769 80.1919 74.6738 80.1919 74.7936C80.1916 74.9134 80.0947 75.0104 79.9751 75.0104Z" fill="white"/>
<path d="M79.4077 69.7329H61.9931C61.8214 69.7329 61.6821 69.8721 61.6821 70.0438V74.0116C61.6821 74.1833 61.8214 74.3225 61.9931 74.3225H79.4077C79.5794 74.3225 79.7186 74.1833 79.7186 74.0116V70.0438C79.7184 69.8721 79.5794 69.7329 79.4077 69.7329Z" fill="#E73848"/>
<path opacity="0.2" d="M63.2029 69.9979H62.4893V74.0979H63.2029V69.9979Z" fill="black"/>
<path opacity="0.2" d="M64.8242 69.9777H64.3052V74.0777H64.8242V69.9777Z" fill="black"/>
<path opacity="0.2" d="M66.3167 69.9979H66.0571V74.0979H66.3167V69.9979Z" fill="black"/>
<path opacity="0.2" d="M68.3274 69.9777H68.1978V74.0777H68.3274V69.9777Z" fill="black"/>
<path opacity="0.2" d="M78.199 74.0778H78.9126V69.9777H78.199V74.0778Z" fill="black"/>
<path opacity="0.2" d="M76.5766 74.0979H77.0957V69.9978H76.5766V74.0979Z" fill="black"/>
<path opacity="0.2" d="M75.0847 74.0778H75.3442V69.9777H75.0847V74.0778Z" fill="black"/>
<path opacity="0.2" d="M73.074 74.0979H73.2036V69.9978H73.074V74.0979Z" fill="black"/>
<path opacity="0.2" d="M70.668 74.0979H70.7329V69.9978H70.668V74.0979Z" fill="black"/>
<path opacity="0.2" d="M79.2373 70.4313H62.2021C62.0825 70.4313 61.9854 70.3343 61.9854 70.2145C61.9854 70.095 62.0823 69.9978 62.2021 69.9978H79.2373C79.3569 69.9978 79.4541 70.0947 79.4541 70.2145C79.4541 70.3341 79.3569 70.4313 79.2373 70.4313Z" fill="white"/>
<path d="M80.1459 65.1538H62.7314C62.5596 65.1538 62.4204 65.293 62.4204 65.4648V69.4325C62.4204 69.6042 62.5596 69.7434 62.7314 69.7434H80.1459C80.3176 69.7434 80.4569 69.6042 80.4569 69.4325V65.4648C80.4566 65.2928 80.3176 65.1538 80.1459 65.1538Z" fill="#E73848"/>
<path opacity="0.2" d="M63.9397 65.4188H63.2261V69.5188H63.9397V65.4188Z" fill="black"/>
<path opacity="0.2" d="M65.5615 65.3986H65.0425V69.4986H65.5615V65.3986Z" fill="black"/>
<path opacity="0.2" d="M67.0545 65.4188H66.7949V69.5188H67.0545V65.4188Z" fill="black"/>
<path opacity="0.2" d="M69.0652 65.3986H68.9355V69.4986H69.0652V65.3986Z" fill="black"/>
<path opacity="0.2" d="M78.9363 69.4985H79.6499V65.3984H78.9363V69.4985Z" fill="black"/>
<path opacity="0.2" d="M77.3144 69.5186H77.8335V65.4185H77.3144V69.5186Z" fill="black"/>
<path opacity="0.2" d="M75.822 69.4985H76.0815V65.3984H75.822V69.4985Z" fill="black"/>
<path opacity="0.2" d="M73.8108 69.5186H73.9404V65.4185H73.8108V69.5186Z" fill="black"/>
<path opacity="0.2" d="M71.4062 69.5186H71.4712V65.4185H71.4062V69.5186Z" fill="black"/>
<path opacity="0.2" d="M79.9751 65.852H62.9399C62.8203 65.852 62.7231 65.755 62.7231 65.6352C62.7231 65.5157 62.8201 65.4185 62.9399 65.4185H79.9751C80.0947 65.4185 80.1919 65.5154 80.1919 65.6352C80.1916 65.755 80.0947 65.852 79.9751 65.852Z" fill="white"/>
<path d="M80.1459 60.5745H62.7314C62.5596 60.5745 62.4204 60.7138 62.4204 60.8855V64.8532C62.4204 65.0249 62.5596 65.1641 62.7314 65.1641H80.1459C80.3176 65.1641 80.4569 65.0249 80.4569 64.8532V60.8855C80.4566 60.7138 80.3176 60.5745 80.1459 60.5745Z" fill="#E73848"/>
<path opacity="0.2" d="M63.9397 60.8394H63.2261V64.9395H63.9397V60.8394Z" fill="black"/>
<path opacity="0.2" d="M65.5615 60.8193H65.0425V64.9194H65.5615V60.8193Z" fill="black"/>
<path opacity="0.2" d="M67.0545 60.8394H66.7949V64.9395H67.0545V60.8394Z" fill="black"/>
<path opacity="0.2" d="M69.0652 60.8193H68.9355V64.9194H69.0652V60.8193Z" fill="black"/>
<path opacity="0.2" d="M78.9363 64.9194H79.6499V60.8193H78.9363V64.9194Z" fill="black"/>
<path opacity="0.2" d="M77.3144 64.9395H77.8335V60.8394H77.3144V64.9395Z" fill="black"/>
<path opacity="0.2" d="M75.822 64.9194H76.0815V60.8193H75.822V64.9194Z" fill="black"/>
<path opacity="0.2" d="M73.8108 64.9395H73.9404V60.8394H73.8108V64.9395Z" fill="black"/>
<path opacity="0.2" d="M71.4062 64.9395H71.4712V60.8394H71.4062V64.9395Z" fill="black"/>
<path opacity="0.2" d="M79.9751 61.2729H62.9399C62.8203 61.2729 62.7231 61.176 62.7231 61.0562C62.7231 60.9367 62.8201 60.8395 62.9399 60.8395H79.9751C80.0947 60.8395 80.1919 60.9364 80.1919 61.0562C80.1916 61.1758 80.0947 61.2729 79.9751 61.2729Z" fill="white"/>
<path d="M80.8847 55.9955H63.4701C63.2984 55.9955 63.1592 56.1347 63.1592 56.3064V60.2742C63.1592 60.4459 63.2984 60.5851 63.4701 60.5851H80.8847C81.0564 60.5851 81.1957 60.4459 81.1957 60.2742V56.3064C81.1957 56.1345 81.0564 55.9955 80.8847 55.9955Z" fill="#E73848"/>
<path opacity="0.2" d="M64.6795 56.2604H63.9658V60.3605H64.6795V56.2604Z" fill="black"/>
<path opacity="0.2" d="M66.3018 56.2402H65.7827V60.3403H66.3018V56.2402Z" fill="black"/>
<path opacity="0.2" d="M67.7942 56.2604H67.5347V60.3605H67.7942V56.2604Z" fill="black"/>
<path opacity="0.2" d="M69.8044 56.2402H69.6748V60.3403H69.8044V56.2402Z" fill="black"/>
<path opacity="0.2" d="M79.6755 60.3401H80.3892V56.24H79.6755V60.3401Z" fill="black"/>
<path opacity="0.2" d="M78.0542 60.3602H78.5732V56.2601H78.0542V60.3602Z" fill="black"/>
<path opacity="0.2" d="M76.5618 60.3401H76.8213V56.24H76.5618V60.3401Z" fill="black"/>
<path opacity="0.2" d="M74.551 60.3602H74.6807V56.2601H74.551V60.3602Z" fill="black"/>
<path opacity="0.2" d="M72.145 60.3602H72.21V56.2601H72.145V60.3602Z" fill="black"/>
<path opacity="0.2" d="M80.7139 56.6936H63.6786C63.5591 56.6936 63.4619 56.5967 63.4619 56.4769C63.4619 56.3574 63.5588 56.2602 63.6786 56.2602H80.7139C80.8337 56.2602 80.9306 56.3571 80.9306 56.4769C80.9306 56.5967 80.8337 56.6936 80.7139 56.6936Z" fill="white"/>
<path d="M79.6533 51.4162H62.2387C62.067 51.4162 61.9277 51.5554 61.9277 51.7271V55.6949C61.9277 55.8666 62.067 56.0058 62.2387 56.0058H79.6533C79.825 56.0058 79.9642 55.8666 79.9642 55.6949V51.7271C79.9642 51.5554 79.825 51.4162 79.6533 51.4162Z" fill="#E73848"/>
<path opacity="0.2" d="M63.4485 51.6813H62.7349V55.7814H63.4485V51.6813Z" fill="black"/>
<path opacity="0.2" d="M65.0703 51.6609H64.5513V55.761H65.0703V51.6609Z" fill="black"/>
<path opacity="0.2" d="M66.5628 51.6812H66.3032V55.7812H66.5628V51.6812Z" fill="black"/>
<path opacity="0.2" d="M68.5735 51.6609H68.4438V55.761H68.5735V51.6609Z" fill="black"/>
<path opacity="0.2" d="M78.4446 55.761H79.1582V51.661H78.4446V55.761Z" fill="black"/>
<path opacity="0.2" d="M76.8232 55.7811H77.3423V51.681H76.8232V55.7811Z" fill="black"/>
<path opacity="0.2" d="M75.3303 55.761H75.5898V51.661H75.3303V55.761Z" fill="black"/>
<path opacity="0.2" d="M73.3196 55.7811H73.4492V51.681H73.3196V55.7811Z" fill="black"/>
<path opacity="0.2" d="M70.9136 55.7811H70.9785V51.681H70.9136V55.7811Z" fill="black"/>
<path opacity="0.2" d="M79.4829 52.1146H62.4477C62.3279 52.1146 62.231 52.0177 62.231 51.8979C62.231 51.7783 62.3279 51.6812 62.4477 51.6812H79.4829C79.6025 51.6812 79.6997 51.7781 79.6997 51.8979C79.6997 52.0174 79.6027 52.1146 79.4829 52.1146Z" fill="white"/>
<path d="M79.1616 46.8372H61.747C61.5753 46.8372 61.436 46.9764 61.436 47.1481V51.1158C61.436 51.2875 61.5753 51.4268 61.747 51.4268H79.1616C79.3333 51.4268 79.4725 51.2875 79.4725 51.1158V47.1481C79.4725 46.9761 79.3333 46.8372 79.1616 46.8372Z" fill="#E73848"/>
<path opacity="0.2" d="M62.9563 47.1021H62.2427V51.2021H62.9563V47.1021Z" fill="black"/>
<path opacity="0.2" d="M64.5777 47.082H64.0586V51.1821H64.5777V47.082Z" fill="black"/>
<path opacity="0.2" d="M66.0706 47.1019H65.811V51.202H66.0706V47.1019Z" fill="black"/>
<path opacity="0.2" d="M68.0813 47.082H67.9517V51.1821H68.0813V47.082Z" fill="black"/>
<path opacity="0.2" d="M77.9524 51.1818H78.666V47.0817H77.9524V51.1818Z" fill="black"/>
<path opacity="0.2" d="M76.3306 51.2021H76.8496V47.102H76.3306V51.2021Z" fill="black"/>
<path opacity="0.2" d="M74.8386 51.1818H75.0981V47.0817H74.8386V51.1818Z" fill="black"/>
<path opacity="0.2" d="M72.8279 51.2021H72.9575V47.102H72.8279V51.2021Z" fill="black"/>
<path opacity="0.2" d="M70.4221 51.2021H70.4868V47.102H70.4221V51.2021Z" fill="black"/>
<path opacity="0.2" d="M78.9907 47.5353H61.9555C61.8359 47.5353 61.7388 47.4384 61.7388 47.3186C61.7388 47.199 61.8357 47.1019 61.9555 47.1019H78.9907C79.1106 47.1019 79.2075 47.1988 79.2075 47.3186C79.2075 47.4384 79.1106 47.5353 78.9907 47.5353Z" fill="white"/>
<path d="M57.9926 88.0496H40.578C40.4063 88.0496 40.2671 88.1888 40.2671 88.3605V92.3282C40.2671 92.4999 40.4063 92.6392 40.578 92.6392H57.9926C58.1643 92.6392 58.3036 92.4999 58.3036 92.3282V88.3605C58.3036 88.1888 58.1643 88.0496 57.9926 88.0496Z" fill="#E73848"/>
<path opacity="0.2" d="M41.7869 88.3146H41.0732V92.4147H41.7869V88.3146Z" fill="black"/>
<path opacity="0.2" d="M43.4082 88.2946H42.8892V92.3946H43.4082V88.2946Z" fill="black"/>
<path opacity="0.2" d="M44.9006 88.3145H44.6411V92.4146H44.9006V88.3145Z" fill="black"/>
<path opacity="0.2" d="M46.9124 88.2946H46.7827V92.3946H46.9124V88.2946Z" fill="black"/>
<path opacity="0.2" d="M56.7834 92.3943H57.4971V88.2942H56.7834V92.3943Z" fill="black"/>
<path opacity="0.2" d="M55.1611 92.4147H55.6802V88.3146H55.1611V92.4147Z" fill="black"/>
<path opacity="0.2" d="M53.6692 92.3943H53.9287V88.2942H53.6692V92.3943Z" fill="black"/>
<path opacity="0.2" d="M51.658 92.4147H51.7876V88.3146H51.658V92.4147Z" fill="black"/>
<path opacity="0.2" d="M49.2524 92.4147H49.3174V88.3146H49.2524V92.4147Z" fill="black"/>
<path opacity="0.2" d="M57.8216 88.748H40.7861C40.6665 88.748 40.5693 88.651 40.5693 88.5312C40.5693 88.4117 40.6663 88.3145 40.7861 88.3145H57.8216C57.9411 88.3145 58.0383 88.4114 58.0383 88.5312C58.0383 88.651 57.9411 88.748 57.8216 88.748Z" fill="white"/>
<path d="M57.2539 83.4705H39.8393C39.6676 83.4705 39.5283 83.6098 39.5283 83.7815V87.7492C39.5283 87.9209 39.6676 88.0601 39.8393 88.0601H57.2539C57.4256 88.0601 57.5648 87.9209 57.5648 87.7492V83.7815C57.5648 83.6098 57.4256 83.4705 57.2539 83.4705Z" fill="#E73848"/>
<path opacity="0.2" d="M41.0481 83.7354H40.3345V87.8354H41.0481V83.7354Z" fill="black"/>
<path opacity="0.2" d="M42.6695 83.7153H42.1504V87.8154H42.6695V83.7153Z" fill="black"/>
<path opacity="0.2" d="M44.1619 83.7355H43.9023V87.8356H44.1619V83.7355Z" fill="black"/>
<path opacity="0.2" d="M46.1731 83.7153H46.0435V87.8154H46.1731V83.7153Z" fill="black"/>
<path opacity="0.2" d="M56.0442 87.8153H56.7578V83.7152H56.0442V87.8153Z" fill="black"/>
<path opacity="0.2" d="M54.4223 87.8354H54.9414V83.7354H54.4223V87.8354Z" fill="black"/>
<path opacity="0.2" d="M52.9304 87.8153H53.1899V83.7152H52.9304V87.8153Z" fill="black"/>
<path opacity="0.2" d="M50.9192 87.8354H51.0488V83.7354H50.9192V87.8354Z" fill="black"/>
<path opacity="0.2" d="M48.5142 87.8354H48.5791V83.7353H48.5142V87.8354Z" fill="black"/>
<path opacity="0.2" d="M57.0825 84.1689H40.0473C39.9277 84.1689 39.8306 84.072 39.8306 83.9522C39.8306 83.8324 39.9275 83.7355 40.0473 83.7355H57.0825C57.2021 83.7355 57.2993 83.8324 57.2993 83.9522C57.2993 84.0718 57.2023 84.1689 57.0825 84.1689Z" fill="white"/>
<path d="M57.9926 78.8912H40.578C40.4063 78.8912 40.2671 79.0305 40.2671 79.2022V83.1699C40.2671 83.3416 40.4063 83.4809 40.578 83.4809H57.9926C58.1643 83.4809 58.3036 83.3416 58.3036 83.1699V79.2022C58.3036 79.0305 58.1643 78.8912 57.9926 78.8912Z" fill="#E73848"/>
<path opacity="0.2" d="M41.7869 79.1564H41.0732V83.2565H41.7869V79.1564Z" fill="black"/>
<path opacity="0.2" d="M43.4082 79.136H42.8892V83.2361H43.4082V79.136Z" fill="black"/>
<path opacity="0.2" d="M44.9006 79.1561H44.6411V83.2562H44.9006V79.1561Z" fill="black"/>
<path opacity="0.2" d="M46.9124 79.136H46.7827V83.2361H46.9124V79.136Z" fill="black"/>
<path opacity="0.2" d="M56.7834 83.2362H57.4971V79.1361H56.7834V83.2362Z" fill="black"/>
<path opacity="0.2" d="M55.1611 83.2563H55.6802V79.1562H55.1611V83.2563Z" fill="black"/>
<path opacity="0.2" d="M53.6692 83.2362H53.9287V79.1361H53.6692V83.2362Z" fill="black"/>
<path opacity="0.2" d="M51.658 83.2563H51.7876V79.1562H51.658V83.2563Z" fill="black"/>
<path opacity="0.2" d="M49.2524 83.2563H49.3174V79.1562H49.2524V83.2563Z" fill="black"/>
<path opacity="0.2" d="M57.8216 79.5896H40.7861C40.6665 79.5896 40.5693 79.4927 40.5693 79.3728C40.5693 79.2533 40.6663 79.1561 40.7861 79.1561H57.8216C57.9411 79.1561 58.0383 79.253 58.0383 79.3728C58.0383 79.4927 57.9411 79.5896 57.8216 79.5896Z" fill="white"/>
<path d="M57.4999 74.3122H40.0854C39.9137 74.3122 39.7744 74.4514 39.7744 74.6231V78.5909C39.7744 78.7626 39.9137 78.9018 40.0854 78.9018H57.4999C57.6717 78.9018 57.8109 78.7626 57.8109 78.5909V74.6231C57.8106 74.4514 57.6717 74.3122 57.4999 74.3122Z" fill="#E73848"/>
<path opacity="0.2" d="M41.2937 74.5773H40.5801V78.6774H41.2937V74.5773Z" fill="black"/>
<path opacity="0.2" d="M42.916 74.557H42.397V78.6571H42.916V74.557Z" fill="black"/>
<path opacity="0.2" d="M44.4085 74.5771H44.1489V78.6772H44.4085V74.5771Z" fill="black"/>
<path opacity="0.2" d="M46.4187 74.557H46.2891V78.6571H46.4187V74.557Z" fill="black"/>
<path opacity="0.2" d="M56.2898 78.6569H57.0034V74.5568H56.2898V78.6569Z" fill="black"/>
<path opacity="0.2" d="M54.6684 78.6771H55.1875V74.577H54.6684V78.6771Z" fill="black"/>
<path opacity="0.2" d="M53.176 78.6569H53.4355V74.5568H53.176V78.6569Z" fill="black"/>
<path opacity="0.2" d="M51.1653 78.6771H51.2949V74.577H51.1653V78.6771Z" fill="black"/>
<path opacity="0.2" d="M48.7602 78.677H48.8252V74.5769H48.7602V78.677Z" fill="black"/>
<path opacity="0.2" d="M57.3286 75.0104H40.2934C40.1738 75.0104 40.0767 74.9134 40.0767 74.7936C40.0767 74.6738 40.1736 74.5769 40.2934 74.5769H57.3286C57.4482 74.5769 57.5454 74.6738 57.5454 74.7936C57.5454 74.9134 57.4482 75.0104 57.3286 75.0104Z" fill="white"/>
<path d="M57.4999 69.7329H40.0854C39.9137 69.7329 39.7744 69.8721 39.7744 70.0438V74.0116C39.7744 74.1833 39.9137 74.3225 40.0854 74.3225H57.4999C57.6717 74.3225 57.8109 74.1833 57.8109 74.0116V70.0438C57.8106 69.8721 57.6717 69.7329 57.4999 69.7329Z" fill="#E73848"/>
<path opacity="0.2" d="M41.2937 69.998H40.5801V74.0981H41.2937V69.998Z" fill="black"/>
<path opacity="0.2" d="M42.916 69.9777H42.397V74.0777H42.916V69.9777Z" fill="black"/>
<path opacity="0.2" d="M44.4085 69.9979H44.1489V74.0979H44.4085V69.9979Z" fill="black"/>
<path opacity="0.2" d="M46.4187 69.9777H46.2891V74.0777H46.4187V69.9777Z" fill="black"/>
<path opacity="0.2" d="M56.2898 74.0778H57.0034V69.9777H56.2898V74.0778Z" fill="black"/>
<path opacity="0.2" d="M54.6684 74.0979H55.1875V69.9978H54.6684V74.0979Z" fill="black"/>
<path opacity="0.2" d="M53.176 74.0778H53.4355V69.9777H53.176V74.0778Z" fill="black"/>
<path opacity="0.2" d="M51.1653 74.0979H51.2949V69.9978H51.1653V74.0979Z" fill="black"/>
<path opacity="0.2" d="M48.7602 74.0979H48.8252V69.9978H48.7602V74.0979Z" fill="black"/>
<path opacity="0.2" d="M57.3286 70.4313H40.2934C40.1738 70.4313 40.0767 70.3343 40.0767 70.2145C40.0767 70.095 40.1736 69.9978 40.2934 69.9978H57.3286C57.4482 69.9978 57.5454 70.0947 57.5454 70.2145C57.5454 70.3341 57.4482 70.4313 57.3286 70.4313Z" fill="white"/>
<path d="M57.4999 65.1538H40.0854C39.9137 65.1538 39.7744 65.293 39.7744 65.4648V69.4325C39.7744 69.6042 39.9137 69.7434 40.0854 69.7434H57.4999C57.6717 69.7434 57.8109 69.6042 57.8109 69.4325V65.4648C57.8106 65.2928 57.6717 65.1538 57.4999 65.1538Z" fill="#E73848"/>
<path opacity="0.2" d="M41.2937 65.4189H40.5801V69.519H41.2937V65.4189Z" fill="black"/>
<path opacity="0.2" d="M42.916 65.3986H42.397V69.4986H42.916V65.3986Z" fill="black"/>
<path opacity="0.2" d="M44.4085 65.4188H44.1489V69.5188H44.4085V65.4188Z" fill="black"/>
<path opacity="0.2" d="M46.4187 65.3986H46.2891V69.4986H46.4187V65.3986Z" fill="black"/>
<path opacity="0.2" d="M56.2898 69.4985H57.0034V65.3984H56.2898V69.4985Z" fill="black"/>
<path opacity="0.2" d="M54.6684 69.5186H55.1875V65.4185H54.6684V69.5186Z" fill="black"/>
<path opacity="0.2" d="M53.176 69.4985H53.4355V65.3984H53.176V69.4985Z" fill="black"/>
<path opacity="0.2" d="M51.1653 69.5186H51.2949V65.4185H51.1653V69.5186Z" fill="black"/>
<path opacity="0.2" d="M48.7602 69.5186H48.8252V65.4185H48.7602V69.5186Z" fill="black"/>
<path opacity="0.2" d="M57.3286 65.852H40.2934C40.1738 65.852 40.0767 65.755 40.0767 65.6352C40.0767 65.5157 40.1736 65.4185 40.2934 65.4185H57.3286C57.4482 65.4185 57.5454 65.5154 57.5454 65.6352C57.5454 65.755 57.4482 65.852 57.3286 65.852Z" fill="white"/>
<path d="M57.7138 55.9465H40.2992C40.1275 55.9465 39.9883 56.0858 39.9883 56.2575V60.2252C39.9883 60.3969 40.1275 60.5362 40.2992 60.5362H57.7138C57.8855 60.5362 58.0248 60.3969 58.0248 60.2252V56.2575C58.0245 56.0858 57.8855 55.9465 57.7138 55.9465Z" fill="#E73848"/>
<path opacity="0.2" d="M41.5091 56.2115H40.7954V60.3116H41.5091V56.2115Z" fill="black"/>
<path opacity="0.2" d="M43.1304 56.1913H42.6113V60.2914H43.1304V56.1913Z" fill="black"/>
<path opacity="0.2" d="M44.6228 56.2115H44.3633V60.3116H44.6228V56.2115Z" fill="black"/>
<path opacity="0.2" d="M46.634 56.1913H46.5044V60.2914H46.634V56.1913Z" fill="black"/>
<path opacity="0.2" d="M56.5051 60.2913H57.2188V56.1912H56.5051V60.2913Z" fill="black"/>
<path opacity="0.2" d="M54.8833 60.3114H55.4023V56.2113H54.8833V60.3114Z" fill="black"/>
<path opacity="0.2" d="M53.3913 60.2913H53.6509V56.1912H53.3913V60.2913Z" fill="black"/>
<path opacity="0.2" d="M51.3801 60.3114H51.5098V56.2113H51.3801V60.3114Z" fill="black"/>
<path opacity="0.2" d="M48.9741 60.3114H49.0391V56.2113H48.9741V60.3114Z" fill="black"/>
<path opacity="0.2" d="M57.5435 56.6447H40.5082C40.3887 56.6447 40.2915 56.5478 40.2915 56.428C40.2915 56.3084 40.3884 56.2112 40.5082 56.2112H57.5435C57.663 56.2112 57.7602 56.3082 57.7602 56.428C57.7602 56.5478 57.663 56.6447 57.5435 56.6447Z" fill="white"/>
<path d="M57.9926 60.5745H40.578C40.4063 60.5745 40.2671 60.7138 40.2671 60.8855V64.8532C40.2671 65.0249 40.4063 65.1641 40.578 65.1641H57.9926C58.1643 65.1641 58.3036 65.0249 58.3036 64.8532V60.8855C58.3036 60.7138 58.1643 60.5745 57.9926 60.5745Z" fill="#E73848"/>
<path opacity="0.2" d="M41.7869 60.8396H41.0732V64.9397H41.7869V60.8396Z" fill="black"/>
<path opacity="0.2" d="M43.4082 60.8193H42.8892V64.9194H43.4082V60.8193Z" fill="black"/>
<path opacity="0.2" d="M44.9006 60.8395H44.6411V64.9396H44.9006V60.8395Z" fill="black"/>
<path opacity="0.2" d="M46.9124 60.8193H46.7827V64.9194H46.9124V60.8193Z" fill="black"/>
<path opacity="0.2" d="M56.7834 64.9194H57.4971V60.8193H56.7834V64.9194Z" fill="black"/>
<path opacity="0.2" d="M55.1611 64.9395H55.6802V60.8394H55.1611V64.9395Z" fill="black"/>
<path opacity="0.2" d="M53.6692 64.9194H53.9287V60.8193H53.6692V64.9194Z" fill="black"/>
<path opacity="0.2" d="M51.658 64.9395H51.7876V60.8394H51.658V64.9395Z" fill="black"/>
<path opacity="0.2" d="M49.2524 64.9395H49.3174V60.8394H49.2524V64.9395Z" fill="black"/>
<path opacity="0.2" d="M57.8216 61.2729H40.7861C40.6665 61.2729 40.5693 61.176 40.5693 61.0562C40.5693 60.9367 40.6663 60.8395 40.7861 60.8395H57.8216C57.9411 60.8395 58.0383 60.9364 58.0383 61.0562C58.0383 61.1758 57.9411 61.2729 57.8216 61.2729Z" fill="white"/>
<path d="M35.8383 88.0496H18.4237C18.252 88.0496 18.1128 88.1888 18.1128 88.3605V92.3282C18.1128 92.4999 18.252 92.6392 18.4237 92.6392H35.8383C36.01 92.6392 36.1493 92.4999 36.1493 92.3282V88.3605C36.1493 88.1888 36.01 88.0496 35.8383 88.0496Z" fill="#E73848"/>
<path opacity="0.2" d="M19.6331 88.3146H18.9194V92.4147H19.6331V88.3146Z" fill="black"/>
<path opacity="0.2" d="M21.2554 88.2946H20.7363V92.3946H21.2554V88.2946Z" fill="black"/>
<path opacity="0.2" d="M22.7468 88.3145H22.4873V92.4146H22.7468V88.3145Z" fill="black"/>
<path opacity="0.2" d="M24.7586 88.2946H24.6289V92.3946H24.7586V88.2946Z" fill="black"/>
<path opacity="0.2" d="M34.6296 92.3943H35.3433V88.2942H34.6296V92.3943Z" fill="black"/>
<path opacity="0.2" d="M33.0068 92.4147H33.5259V88.3146H33.0068V92.4147Z" fill="black"/>
<path opacity="0.2" d="M31.5154 92.3943H31.7749V88.2942H31.5154V92.3943Z" fill="black"/>
<path opacity="0.2" d="M29.5041 92.4147H29.6338V88.3146H29.5041V92.4147Z" fill="black"/>
<path opacity="0.2" d="M27.0986 92.4147H27.1636V88.3146H27.0986V92.4147Z" fill="black"/>
<path opacity="0.2" d="M35.6675 88.748H18.6323C18.5125 88.748 18.4155 88.651 18.4155 88.5312C18.4155 88.4117 18.5125 88.3145 18.6323 88.3145H35.6675C35.7871 88.3145 35.8842 88.4114 35.8842 88.5312C35.8842 88.651 35.7873 88.748 35.6675 88.748Z" fill="white"/>
<path d="M36.0844 83.4705H18.6698C18.4981 83.4705 18.3589 83.6098 18.3589 83.7815V87.7492C18.3589 87.9209 18.4981 88.0601 18.6698 88.0601H36.0844C36.2561 88.0601 36.3954 87.9209 36.3954 87.7492V83.7815C36.3954 83.6098 36.2561 83.4705 36.0844 83.4705Z" fill="#E73848"/>
<path opacity="0.2" d="M19.8792 83.7357H19.1655V87.8357H19.8792V83.7357Z" fill="black"/>
<path opacity="0.2" d="M21.501 83.7153H20.9819V87.8154H21.501V83.7153Z" fill="black"/>
<path opacity="0.2" d="M22.9929 83.7355H22.7334V87.8356H22.9929V83.7355Z" fill="black"/>
<path opacity="0.2" d="M25.0046 83.7153H24.875V87.8154H25.0046V83.7153Z" fill="black"/>
<path opacity="0.2" d="M34.8757 87.8153H35.5894V83.7152H34.8757V87.8153Z" fill="black"/>
<path opacity="0.2" d="M33.2539 87.8354H33.7729V83.7354H33.2539V87.8354Z" fill="black"/>
<path opacity="0.2" d="M31.7615 87.8153H32.021V83.7152H31.7615V87.8153Z" fill="black"/>
<path opacity="0.2" d="M29.7502 87.8354H29.8799V83.7354H29.7502V87.8354Z" fill="black"/>
<path opacity="0.2" d="M27.3442 87.8354H27.4092V83.7353H27.3442V87.8354Z" fill="black"/>
<path opacity="0.2" d="M35.9136 84.1689H18.8783C18.7585 84.1689 18.6616 84.072 18.6616 83.9522C18.6616 83.8324 18.7585 83.7355 18.8783 83.7355H35.9136C36.0332 83.7355 36.1303 83.8324 36.1303 83.9522C36.1303 84.0718 36.0332 84.1689 35.9136 84.1689Z" fill="white"/>
<path d="M35.0996 78.8912H17.685C17.5133 78.8912 17.374 79.0305 17.374 79.2022V83.1699C17.374 83.3416 17.5133 83.4809 17.685 83.4809H35.0996C35.2713 83.4809 35.4105 83.3416 35.4105 83.1699V79.2022C35.4105 79.0305 35.2713 78.8912 35.0996 78.8912Z" fill="#E73848"/>
<path opacity="0.2" d="M18.8943 79.1562H18.1807V83.2563H18.8943V79.1562Z" fill="black"/>
<path opacity="0.2" d="M20.5166 79.136H19.9976V83.2361H20.5166V79.136Z" fill="black"/>
<path opacity="0.2" d="M22.0086 79.1561H21.749V83.2562H22.0086V79.1561Z" fill="black"/>
<path opacity="0.2" d="M24.0198 79.136H23.8901V83.2361H24.0198V79.136Z" fill="black"/>
<path opacity="0.2" d="M33.8908 83.2362H34.6045V79.1361H33.8908V83.2362Z" fill="black"/>
<path opacity="0.2" d="M32.269 83.2563H32.7881V79.1562H32.269V83.2563Z" fill="black"/>
<path opacity="0.2" d="M30.7771 83.2362H31.0366V79.1361H30.7771V83.2362Z" fill="black"/>
<path opacity="0.2" d="M28.7654 83.2563H28.895V79.1562H28.7654V83.2563Z" fill="black"/>
<path opacity="0.2" d="M26.3599 83.2563H26.4248V79.1562H26.3599V83.2563Z" fill="black"/>
<path opacity="0.2" d="M34.9287 79.5896H17.8935C17.7737 79.5896 17.6768 79.4927 17.6768 79.3728C17.6768 79.2533 17.7737 79.1561 17.8935 79.1561H34.9287C35.0483 79.1561 35.1455 79.253 35.1455 79.3728C35.1455 79.4927 35.0485 79.5896 34.9287 79.5896Z" fill="white"/>
<path d="M25.2905 75.8569L24.7961 77.0746L24.4221 77.9946L23.4824 77.66L23.8194 76.8335L24.3508 75.5198L25.2905 75.8569Z" fill="#E4897B"/>
<path d="M45.3742 69.3379L44.5747 69.9307L44.282 69.2813L43.603 67.7807L44.4025 67.1854L45.0446 68.6072L45.3742 69.3379Z" fill="#E4897B"/>
<path opacity="0.2" d="M24.3507 75.5198L25.2904 75.8569L24.796 77.0746L23.8193 76.8335L24.3507 75.5198Z" fill="black"/>
<path opacity="0.2" d="M45.0446 68.6072L44.282 69.2813L43.603 67.7807L44.4025 67.1854L45.0446 68.6072Z" fill="black"/>
<path d="M32.3437 42.1423C32.3705 42.2181 32.4323 42.2653 32.4817 42.2478C32.5311 42.2304 32.5496 42.1548 32.523 42.0791C32.4962 42.0033 32.4345 41.9561 32.385 41.9735C32.3356 41.991 32.3171 42.0665 32.3437 42.1423Z" fill="#263238"/>
<path d="M32.4253 42.2678C32.4253 42.2678 32.7517 42.6441 33.0159 42.788C32.9259 42.9605 32.6779 42.9836 32.6779 42.9836L32.4253 42.2678Z" fill="#DE5753"/>
<path d="M31.9185 41.8196C31.9072 41.821 31.8951 41.8186 31.8851 41.8115C31.8637 41.7964 31.8582 41.7672 31.8733 41.7458C32.0223 41.5313 32.2398 41.5354 32.2494 41.5357C32.2755 41.5364 32.2959 41.5583 32.2951 41.5844C32.2942 41.6105 32.2723 41.6309 32.2467 41.6301C32.2395 41.6299 32.0696 41.6289 31.9507 41.7999C31.9429 41.811 31.9311 41.8178 31.9185 41.8196Z" fill="#263238"/>
<path d="M30.5238 43.3826C30.5366 44.1251 30.4427 45.4648 29.8555 45.8539C29.8555 45.8539 29.9219 46.6168 31.255 46.8544C32.7209 47.1157 32.0852 46.2515 32.0852 46.2515C31.3192 45.9179 31.4456 45.328 31.6845 44.7952L30.5238 43.3826Z" fill="#E4897B"/>
<path d="M29.7597 42.8736C30.1452 43.7841 30.3246 44.3366 30.9632 44.6483C31.9238 45.1174 32.9221 44.2857 32.8163 43.2786C32.7211 42.3718 32.1066 41.0355 31.065 40.9866C30.039 40.9381 29.3743 41.9632 29.7597 42.8736Z" fill="#E4897B"/>
<path d="M30.4097 44.3551C30.8439 44.529 32.2028 43.5553 31.7388 42.4316C31.7388 42.4316 32.2035 41.682 32.037 40.9497C31.8704 40.2174 31.3223 40.0058 30.8033 40.2405C30.3457 40.4474 30.3961 40.7067 30.3961 40.7067C30.3961 40.7067 28.1787 41.2867 28.7878 42.1362C28.0097 43.2648 29.8677 44.1381 30.4097 44.3551Z" fill="#263238"/>
<path d="M31.3742 42.6887C31.4734 42.9281 31.6662 43.1187 31.8547 43.2218C32.1381 43.377 32.3036 43.1622 32.2448 42.8742C32.1919 42.6149 31.9806 42.2218 31.6867 42.1839C31.3969 42.1463 31.2611 42.4149 31.3742 42.6887Z" fill="#E4897B"/>
<path d="M29.4999 45.866C29.3973 45.6603 29.2844 45.4251 29.5343 45.36C29.8093 45.2884 31.5655 45.1934 32.0757 45.3587C31.9092 45.6352 32.1662 45.989 32.1662 45.989L29.4999 45.866Z" fill="#E73848"/>
<path opacity="0.5" d="M29.4999 45.866C29.3973 45.6603 29.2844 45.4251 29.5343 45.36C29.8093 45.2884 31.5655 45.1934 32.0757 45.3587C31.9092 45.6352 32.1662 45.989 32.1662 45.989L29.4999 45.866Z" fill="#FAFAFA"/>
<path d="M24.4873 77.585H23.3995C23.3589 77.585 23.3235 77.6133 23.3146 77.6532L23.1178 78.5385C23.0974 78.6303 23.167 78.7174 23.2612 78.7156C23.6536 78.709 24.2206 78.6859 24.7139 78.6859C25.2905 78.6859 25.7887 78.7174 26.4652 78.7174C26.874 78.7174 26.9877 78.3038 26.8164 78.2664C26.0371 78.096 25.4007 78.0778 24.7274 77.6625C24.6543 77.6175 24.5734 77.585 24.4873 77.585Z" fill="#263238"/>
<path d="M31.5218 54.6566C31.5218 54.6566 31.2118 56.7451 30.8281 59.1436C30.6632 60.1719 30.4861 61.2567 30.3115 62.2604C30.1171 63.3846 29.9277 64.4031 29.7703 65.1214C29.0913 68.2456 25.4481 76.8556 25.4481 76.8556L23.6646 76.4694C23.6646 76.4694 26.2131 69.7708 26.7814 65.4043C27.2217 62.0513 28.0852 54.6566 28.0852 54.6566H31.5218Z" fill="#263238"/>
<path d="M25.8744 76.2596C25.882 76.2613 25.542 76.9043 25.542 76.9043L23.5356 76.4699L23.7049 75.8667L25.8744 76.2596Z" fill="#E73848"/>
<path opacity="0.3" d="M25.8744 76.2596C25.882 76.2613 25.542 76.9043 25.542 76.9043L23.5356 76.4699L23.7049 75.8667L25.8744 76.2596Z" fill="black"/>
<path opacity="0.2" d="M30.8281 59.1436C30.6633 60.1719 30.4862 61.2568 30.3115 62.2604C29.8318 60.2752 29.9794 59.087 29.9794 59.087L30.8281 59.1436Z" fill="black"/>
<path d="M28.6069 47.6857C28.1292 48.1381 27.6337 48.6183 27.1661 49.0975C26.7039 49.5819 26.2409 50.079 25.8517 50.5814C25.7014 50.7848 25.5304 51.0869 25.3784 51.3774C25.2249 51.6746 25.0712 51.9786 24.9218 52.2869L24.0195 54.1513L23.3125 53.9075C23.4638 53.214 23.6584 52.5412 23.8712 51.8642C23.9816 51.5275 24.0982 51.1907 24.2306 50.8542C24.3703 50.5142 24.499 50.1858 24.7324 49.8089C25.145 49.1745 25.5924 48.6161 26.0761 48.0815C26.5582 47.545 27.0505 47.0444 27.6008 46.5602L28.6069 47.6857Z" fill="#DC897C"/>
<path d="M23.2516 55.7181L23.6122 55.0762L22.5104 54.7437C22.5104 54.7437 22.2882 55.2615 22.531 55.6784L23.2516 55.7181Z" fill="#E4897B"/>
<path d="M24.0168 54.1363L23.3115 53.9073L22.5103 54.7437L23.6123 55.0763L24.0168 54.1363Z" fill="#E4897B"/>
<path d="M45.363 69.2033L44.4639 69.8697C44.4312 69.8941 44.4196 69.9376 44.4363 69.9748L44.8056 70.8033C44.8439 70.8891 44.9537 70.9162 45.0282 70.8589C45.3382 70.6208 45.4769 70.4894 45.8725 70.1964C46.1158 70.0161 46.6786 69.621 47.0144 69.3721C47.3431 69.1285 47.148 68.7583 46.9883 68.8304C46.2717 69.1524 45.8587 69.1876 45.5298 69.1563C45.47 69.1507 45.4107 69.1679 45.363 69.2033Z" fill="#263238"/>
<path d="M28.1783 45.9561C27.2224 45.897 25.8091 47.9649 25.8091 47.9649L27.2027 49.8662C27.2027 49.8662 28.0465 49.4389 28.6777 48.3821C29.3392 47.2749 29.1559 46.0163 28.1783 45.9561Z" fill="#E73848"/>
<path opacity="0.6" d="M28.1783 45.9561C27.2224 45.897 25.8091 47.9649 25.8091 47.9649L27.2027 49.8662C27.2027 49.8662 28.0465 49.4389 28.6777 48.3821C29.3392 47.2749 29.1559 46.0163 28.1783 45.9561Z" fill="#FAFAFA"/>
<path opacity="0.2" d="M28.4496 47.8635C27.8211 48.201 27.4036 49.0308 27.1411 49.7818L27.2024 49.8665C27.2024 49.8665 28.0469 49.4384 28.6784 48.3821C28.7177 48.3159 28.7544 48.249 28.7881 48.1826L28.4496 47.8635Z" fill="black"/>
<path d="M33.8425 45.8026C33.8425 45.8026 34.4137 47.2436 33.4123 54.6563C31.8069 54.6563 28.8652 54.6563 28.0841 54.6563C28.0475 53.8384 28.5614 49.8485 27.7725 45.9947C27.7725 45.9947 28.6859 45.8114 29.5562 45.7693C30.2371 45.7366 32.5107 45.2776 33.1092 45.3322C33.8981 45.4043 33.8425 45.8026 33.8425 45.8026Z" fill="#E73848"/>
<path opacity="0.6" d="M33.9672 49.0724C33.9033 50.3836 33.7434 52.1893 33.4113 54.6566H28.0854C28.0485 53.8375 28.5626 49.8473 27.7729 45.995C27.7729 45.995 28.6856 45.8105 29.5564 45.7687C30.2379 45.7367 32.5109 45.2767 33.1087 45.3332C33.8983 45.4046 33.8418 45.8031 33.8418 45.8031C33.8418 45.8031 33.9623 46.1057 33.9943 47.1463C34.0115 47.621 34.009 48.2483 33.9672 49.0724Z" fill="#FAFAFA"/>
<path d="M33.1956 54.2249L34.247 56.6937C34.247 56.6937 39.3473 57.3336 40.7943 59.0866C42.241 60.8395 44.966 67.9588 44.966 67.9588L43.6031 69.1162C43.6031 69.1162 39.6912 61.9229 38.598 61.0563C37.5048 60.1896 31.2716 60.1896 29.8793 59.6706C28.4867 59.1515 28.0845 54.6563 28.0845 54.6563L33.1956 54.2249Z" fill="#263238"/>
<path d="M43.3223 68.9745L44.966 67.7155L45.1769 68.1209L43.6032 69.3614L43.3223 68.9745Z" fill="#E73848"/>
<path opacity="0.3" d="M43.3223 68.9745L44.966 67.7155L45.1769 68.1209L43.6032 69.3614L43.3223 68.9745Z" fill="black"/>
<path d="M32.0722 41.3099C32.0722 41.3099 32.0085 39.8499 31.237 39.8011C30.4655 39.7524 29.8557 40.4498 29.8557 40.4498C29.8557 40.4498 29.671 40.1726 29.2331 40.149C28.7952 40.1254 28.0309 40.8715 28.0309 40.8715C28.0309 40.8715 28.9834 40.2853 29.3841 40.5542C29.3841 40.5542 28.3047 40.853 28.0309 41.5354C27.7571 42.2178 27.4653 42.4611 27.4653 42.4611H28.0309L27.6599 43.0939C27.6599 43.0939 28.4429 43.8506 29.0326 43.7236L28.8439 44.0833C28.8439 44.0833 30.0031 44.5059 30.4747 44.3755C30.9465 44.2451 30.4983 41.8936 30.4983 41.8936L32.0722 41.3099Z" fill="#263238"/>
<path opacity="0.2" d="M33.9672 49.0724C33.0004 48.4156 33.0151 46.9026 33.0151 46.9026L33.9942 47.1462C34.0114 47.621 34.009 48.2483 33.9672 49.0724Z" fill="black"/>
<path d="M25.051 56.5412L18.4789 55.4371L16.7798 60.4951L17.8671 62.4686L25.0395 63.4134L26.4941 57.9035L25.051 56.5412Z" fill="#E73848"/>
<path opacity="0.4" d="M16.7803 60.4946L17.2029 61.2641L17.2979 61.4346L17.8671 62.4686L25.0402 63.4129L26.4933 57.9035L25.8778 57.3222L25.6882 57.1429L25.0515 56.5409L18.4789 55.4369L16.7803 60.4946Z" fill="black"/>
<path d="M23.443 60.718L22.9324 61.0109L22.83 60.8339L23.1624 60.6428L22.9699 60.3117L23.1471 60.2096L23.443 60.718Z" fill="#EF4353"/>
<path d="M21.5399 60.4882L21.3628 60.5903L21.067 60.0813L21.5775 59.789L21.6804 59.9661L21.3476 60.1565L21.5399 60.4882Z" fill="#EF4353"/>
<path d="M22.97 59.9044L22.2819 60.2986L21.883 59.6132L22.5713 59.2184L22.97 59.9044Z" fill="#EF4353"/>
<path d="M22.6263 61.1868L21.9381 61.581L21.5393 60.8956L22.2276 60.5008L22.6263 61.1868Z" fill="#EF4353"/>
<path opacity="0.2" d="M26.493 57.9035L19.9887 56.8932L18.4785 55.4369L25.0511 56.5409L26.493 57.9035Z" fill="white"/>
<path opacity="0.1" d="M19.9891 56.8932L17.8671 62.4686L16.7803 60.4946L18.4789 55.4369L19.9891 56.8932Z" fill="white"/>
<path d="M17.2026 61.2642L17.2976 61.4346L19.2629 56.2103L25.8776 57.3223L25.6879 57.1429L19.1468 56.0959L17.2026 61.2642Z" fill="#263238"/>
<path d="M23.6586 56.841L23.3265 56.534L21.6694 56.2332L21.9595 56.5672L23.6586 56.841Z" fill="#263238"/>
<path d="M24.2979 56.9643C24.2979 56.9643 24.3747 55.2268 24.3265 55.1114C24.2782 54.996 21.9498 54.6152 21.7767 54.582C21.6035 54.5488 20.833 56.2374 20.833 56.2374L20.9658 56.4415L21.4064 56.5003C21.4064 56.5003 21.9644 55.0418 22.0219 55.0066C22.0792 54.9717 23.8723 55.2782 23.921 55.3168C23.9698 55.3557 23.7771 56.6802 23.7771 56.6802L23.9287 56.8979L24.2979 56.9643Z" fill="#263238"/>
<path d="M17.2251 59.7249L17.7031 60.3574L17.7501 60.2317L18.1218 59.2445L18.1665 59.1257L18.246 58.9144C18.246 58.9144 18.1045 59.073 17.9129 59.2526C17.7043 59.447 17.4367 59.6652 17.2251 59.7249Z" fill="#E73848"/>
<path opacity="0.2" d="M17.3833 59.7719L17.7498 60.2319L18.1215 59.2447L18.1663 59.1259C17.9941 59.3365 17.6827 59.6755 17.3833 59.7719Z" fill="white"/>
<path opacity="0.2" d="M17.9136 59.2529C17.9854 59.2467 18.057 59.2452 18.1224 59.2447L18.2467 58.9146C18.2467 58.9146 18.105 59.0733 17.9136 59.2529Z" fill="black"/>
<path d="M17.0451 58.4858L16.9541 59.3768C16.9541 59.3768 17.5172 59.0979 18.1297 59.2209L18.176 59.0979L18.4633 58.3326L18.4938 58.2526C18.4938 58.2526 17.6874 58.1582 17.0451 58.4858Z" fill="#E73848"/>
<path d="M17.979 56.9758C17.979 56.9758 18.24 57.5084 18.6501 57.8772L18.6833 57.7842L18.7719 57.5402L18.9192 57.134L18.9908 56.9372L19.011 56.8801C19.011 56.8801 18.8063 56.5704 18.7054 56.3129L17.979 56.9758Z" fill="#E73848"/>
<path d="M19.4868 55.8307C19.4868 55.8307 19.6676 56.1235 19.6922 56.2816L19.7963 56.2998L19.939 56.323L20.1663 56.3626L20.3852 56.3995L20.4632 56.4123C20.4632 56.4123 20.4917 55.9427 20.1038 55.4866L19.4868 55.8307Z" fill="#E73848"/>
<path opacity="0.2" d="M19.623 55.8536C19.623 55.8536 19.7551 56.1102 19.7957 56.3001L19.9384 56.3232C19.9143 56.2875 19.9064 56.2401 19.9212 56.195C19.9475 56.1139 20.0349 56.0693 20.1163 56.0957C20.1975 56.122 20.242 56.2093 20.2157 56.2907C20.2061 56.3203 20.1886 56.3456 20.166 56.3628L20.3849 56.3997C20.3677 56.2098 20.3077 55.8214 20.0976 55.5997L19.623 55.8536Z" fill="white"/>
<path opacity="0.2" d="M17.1052 58.5207L17.0488 59.243C17.0488 59.243 17.6774 59.0255 18.176 59.0978L18.4633 58.3325C18.1957 58.303 17.6282 58.2799 17.1052 58.5207ZM17.8948 58.4609C18.0345 58.4506 18.1526 58.5308 18.1605 58.6403C18.1684 58.7497 18.0609 58.8467 17.9231 58.856C17.7834 58.8663 17.6641 58.7856 17.656 58.6762C17.6481 58.5667 17.7556 58.47 17.8948 58.4609Z" fill="white"/>
<path opacity="0.2" d="M18.1055 57.0169C18.1055 57.0169 18.4366 57.5724 18.6838 57.7842L18.7724 57.5402C18.671 57.504 18.6179 57.3862 18.6543 57.274C18.6912 57.1604 18.8068 57.0957 18.9104 57.1294C18.9131 57.1304 18.9175 57.1316 18.9197 57.134L18.9913 56.9372C18.8929 56.8248 18.7613 56.6487 18.6905 56.4706L18.1055 57.0169Z" fill="white"/>
<path d="M40.1182 41.1532L40.4965 40.5214L41.3322 41.3131C41.3322 41.3131 40.9929 41.7627 40.5103 41.7591L40.1182 41.1532Z" fill="#E4897B"/>
<path d="M41.0806 39.6754L41.6742 40.5081L41.3322 41.313L40.4966 40.5214L41.0806 39.6754Z" fill="#E4897B"/>
<path d="M33.5728 45.4586C34.2313 45.3214 34.9339 45.1457 35.5885 44.9381C36.2411 44.7187 36.8913 44.4808 37.4148 44.1406C37.4871 44.0968 37.5085 44.0724 37.5651 44.0316L37.7346 43.8754C37.8527 43.762 37.9715 43.6378 38.0903 43.5096C38.3252 43.2491 38.5646 42.9807 38.7978 42.7054C39.2709 42.1588 39.7346 41.591 40.2106 41.0378L40.8334 41.4518C40.4922 42.118 40.1124 42.7519 39.7127 43.3854C39.5068 43.698 39.2987 44.0117 39.0679 44.3184C38.9515 44.4722 38.8313 44.6264 38.6989 44.7814C38.6345 44.8594 38.5538 44.9381 38.4809 45.0158C38.3978 45.0928 38.2851 45.1962 38.2037 45.2525C37.5198 45.7531 36.8025 46.0894 36.0711 46.3499C35.3356 46.6134 34.6146 46.8102 33.8311 46.9465L33.5728 45.4586Z" fill="#DC897C"/>
<path d="M33.2529 47.6084C34.2907 48.5073 36.566 46.9666 36.566 46.9666L35.6585 44.7255C35.6585 44.7255 34.368 44.8601 33.201 45.2549C31.7594 45.743 32.4627 46.924 33.2529 47.6084Z" fill="#E73848"/>
<path opacity="0.6" d="M33.2529 47.6084C34.2907 48.5073 36.566 46.9666 36.566 46.9666L35.6585 44.7255C35.6585 44.7255 34.368 44.8601 33.201 45.2549C31.7594 45.743 32.4627 46.924 33.2529 47.6084Z" fill="#FAFAFA"/>
</g>
<defs>
<clipPath id="clip0_4645_253729">
<rect width="100" height="100" fill="white"/>
</clipPath>
</defs>
</svg>
