<svg width="44" height="44" viewBox="0 0 44 44" fill="none" xmlns="http://www.w3.org/2000/svg">
<g clip-path="url(#clip0_3522_31928)">
<path d="M30.5164 14.2342C30.5164 14.0181 30.3397 13.8413 30.1236 13.8413L26.8825 13.856L22.0013 19.6752L17.1249 13.861L13.8789 13.8462C13.6629 13.8462 13.4861 14.0181 13.4861 14.2391C13.4861 14.3324 13.5205 14.4208 13.5794 14.4944L19.9682 22.106L13.5794 29.7127C13.52 29.7847 13.4871 29.8748 13.4861 29.9681C13.4861 30.1842 13.6629 30.361 13.8789 30.361L17.1249 30.3462L22.0013 24.527L26.8776 30.3413L30.1187 30.356C30.3347 30.356 30.5115 30.1842 30.5115 29.9632C30.5115 29.8699 30.4772 29.7815 30.4182 29.7078L24.0392 22.1011L30.428 14.4895C30.487 14.4208 30.5164 14.3275 30.5164 14.2342Z" fill="#F5222D"/>
<path d="M22.002 0C9.85285 0 0.00195312 9.85089 0.00195312 22C0.00195312 34.1491 9.85285 44 22.002 44C34.1511 44 44.002 34.1491 44.002 22C44.002 9.85089 34.1511 0 22.002 0ZM22.002 40.2679C11.9153 40.2679 3.7341 32.0866 3.7341 22C3.7341 11.9134 11.9153 3.73214 22.002 3.73214C32.0886 3.73214 40.2698 11.9134 40.2698 22C40.2698 32.0866 32.0886 40.2679 22.002 40.2679Z" fill="#F5222D"/>
</g>
<defs>
<clipPath id="clip0_3522_31928">
<rect width="44" height="44" fill="white" transform="translate(0.00195312)"/>
</clipPath>
</defs>
</svg>
