<svg width="32" height="26" viewBox="0 0 32 26" fill="none" xmlns="http://www.w3.org/2000/svg">
<path d="M29.6034 0.764648H2.39656C1.07294 0.764648 0 2.01696 0 3.56186V22.438C0 23.9829 1.07294 25.2352 2.39656 25.2352H29.6034C30.927 25.2352 32 23.9829 32 22.438V12.9999V3.56186C32 2.01696 30.9271 0.764648 29.6034 0.764648Z" fill="#41479B"/>
<path d="M15.6061 6.4669L15.796 7.03622L16.3961 7.04089C16.4738 7.04148 16.506 7.14061 16.4435 7.1868L15.9607 7.54332L16.1417 8.11548C16.1652 8.18951 16.0809 8.25088 16.0176 8.20566L15.5294 7.85665L15.0412 8.20566C14.978 8.25082 14.8936 8.18956 14.9171 8.11548L15.098 7.54332L14.6153 7.1868C14.5528 7.14061 14.5849 7.04148 14.6627 7.04089L15.2628 7.03622L15.4527 6.4669C15.4772 6.39319 15.5815 6.39319 15.6061 6.4669Z" fill="#FFE15A"/>
<path d="M15.6061 18.6903L15.796 19.2597L16.3961 19.2643C16.4738 19.2649 16.506 19.364 16.4435 19.4102L15.9607 19.7667L16.1417 20.3389C16.1652 20.4129 16.0809 20.4743 16.0176 20.4291L15.5294 20.0801L15.0412 20.4291C14.978 20.4743 14.8936 20.413 14.9171 20.3389L15.098 19.7667L14.6153 19.4102C14.5528 19.364 14.5849 19.2649 14.6627 19.2643L15.2628 19.2597L15.4527 18.6903C15.4772 18.6166 15.5815 18.6166 15.6061 18.6903Z" fill="#FFE15A"/>
<path d="M21.7178 12.5787L21.9077 13.148L22.5078 13.1527C22.5855 13.1533 22.6177 13.2524 22.5552 13.2986L22.0724 13.6551L22.2534 14.2273C22.2769 14.3013 22.1925 14.3627 22.1293 14.3174L21.6411 13.9684L21.1529 14.3174C21.0897 14.3626 21.0053 14.3013 21.0287 14.2273L21.2097 13.6551L20.7269 13.2986C20.6645 13.2524 20.6966 13.1533 20.7744 13.1527L21.3745 13.148L21.5644 12.5787C21.5889 12.505 21.6932 12.505 21.7178 12.5787Z" fill="#FFE15A"/>
<path d="M9.49441 12.5787L9.68431 13.148L10.2844 13.1527C10.3622 13.1533 10.3943 13.2524 10.3318 13.2986L9.84905 13.6551L10.03 14.2273C10.0535 14.3013 9.96916 14.3627 9.90591 14.3174L9.4177 13.9684L8.92949 14.3174C8.8663 14.3626 8.78192 14.3013 8.80536 14.2273L8.98635 13.6551L8.50356 13.2986C8.44107 13.2524 8.47325 13.1533 8.55098 13.1527L9.15109 13.148L9.34099 12.5787C9.36556 12.505 9.4699 12.505 9.49441 12.5787Z" fill="#FFE15A"/>
<path d="M10.4119 9.38707L10.6018 9.95639L11.2019 9.96105C11.2796 9.96164 11.3118 10.0608 11.2493 10.107L10.7665 10.4635L10.9475 11.0356C10.971 11.1097 10.8866 11.171 10.8234 11.1258L10.3352 10.7768L9.84697 11.1258C9.78378 11.171 9.6994 11.1097 9.72284 11.0356L9.90383 10.4635L9.42104 10.107C9.35855 10.0608 9.39073 9.96164 9.46846 9.96105L10.0686 9.95639L10.2585 9.38707C10.283 9.31336 10.3873 9.31336 10.4119 9.38707Z" fill="#FFE15A"/>
<path d="M20.9977 15.4988L21.1876 16.0682L21.7877 16.0728C21.8655 16.0734 21.8976 16.1726 21.8351 16.2187L21.3523 16.5753L21.5333 17.1474C21.5568 17.2216 21.4725 17.2828 21.4092 17.2376L20.921 16.8886L20.4328 17.2376C20.3696 17.2828 20.2852 17.2215 20.3087 17.1474L20.4897 16.5753L20.0069 16.2187C19.9444 16.1726 19.9765 16.0734 20.0543 16.0728L20.6544 16.0682L20.8443 15.4988C20.8689 15.4252 20.9731 15.4252 20.9977 15.4988Z" fill="#FFE15A"/>
<path d="M18.7608 7.14997L18.9507 7.71929L19.5508 7.72395C19.6286 7.72454 19.6608 7.82368 19.5983 7.86986L19.1155 8.22638L19.2965 8.79855C19.3199 8.87257 19.2356 8.93394 19.1723 8.88872L18.6841 8.53971L18.1958 8.88872C18.1327 8.93389 18.0483 8.87263 18.0717 8.79855L18.2527 8.22638L17.7699 7.86986C17.7074 7.82368 17.7396 7.72454 17.8173 7.72395L18.4175 7.71929L18.6074 7.14997C18.6319 7.07631 18.7361 7.07631 18.7608 7.14997Z" fill="#FFE15A"/>
<path d="M12.6491 17.7357L12.839 18.3051L13.4391 18.3097C13.5168 18.3103 13.549 18.4094 13.4865 18.4556L13.0037 18.8121L13.1847 19.3843C13.2082 19.4583 13.1238 19.5197 13.0606 19.4745L12.5724 19.1255L12.0842 19.4745C12.021 19.5197 11.9366 19.4584 11.96 19.3843L12.141 18.8121L11.6582 18.4556C11.5957 18.4094 11.6279 18.3103 11.7056 18.3097L12.3058 18.3051L12.4957 17.7358C12.5202 17.662 12.6246 17.662 12.6491 17.7357Z" fill="#FFE15A"/>
<path d="M20.8443 9.38707L20.6544 9.95639L20.0543 9.96105C19.9765 9.96164 19.9444 10.0608 20.0069 10.107L20.4897 10.4635L20.3087 11.0356C20.2852 11.1097 20.3695 11.171 20.4328 11.1258L20.921 10.7768L21.4092 11.1258C21.4724 11.171 21.5568 11.1097 21.5333 11.0356L21.3523 10.4635L21.8351 10.107C21.8976 10.0608 21.8655 9.96164 21.7877 9.96105L21.1876 9.95639L20.9977 9.38707C20.9731 9.31336 20.8689 9.31336 20.8443 9.38707Z" fill="#FFE15A"/>
<path d="M10.2585 15.4988L10.0686 16.0682L9.46846 16.0728C9.39073 16.0734 9.35855 16.1726 9.42104 16.2187L9.90383 16.5753L9.72284 17.1474C9.6994 17.2216 9.78373 17.2828 9.84697 17.2376L10.3352 16.8886L10.8234 17.2376C10.8866 17.2828 10.971 17.2215 10.9475 17.1474L10.7665 16.5753L11.2493 16.2187C11.3118 16.1726 11.2796 16.0734 11.2019 16.0728L10.6018 16.0682L10.4119 15.4988C10.3873 15.4252 10.283 15.4252 10.2585 15.4988Z" fill="#FFE15A"/>
<path d="M12.4957 7.14997L12.3058 7.71929L11.7056 7.72395C11.6279 7.72454 11.5957 7.82368 11.6582 7.86986L12.141 8.22638L11.96 8.79855C11.9366 8.87257 12.0209 8.93394 12.0842 8.88872L12.5724 8.53971L13.0606 8.88872C13.1238 8.93389 13.2082 8.87263 13.1847 8.79855L13.0037 8.22638L13.4865 7.86986C13.549 7.82368 13.5168 7.72454 13.4391 7.72395L12.839 7.71929L12.6491 7.14997C12.6245 7.07631 12.5202 7.07631 12.4957 7.14997Z" fill="#FFE15A"/>
<path d="M18.6074 17.7357L18.4175 18.3051L17.8173 18.3097C17.7396 18.3103 17.7074 18.4094 17.7699 18.4556L18.2527 18.8121L18.0717 19.3843C18.0483 19.4583 18.1326 19.5197 18.1958 19.4745L18.6841 19.1255L19.1723 19.4745C19.2355 19.5197 19.3198 19.4584 19.2964 19.3843L19.1154 18.8121L19.5982 18.4556C19.6607 18.4094 19.6285 18.3103 19.5508 18.3097L18.9507 18.3051L18.7608 17.7358C18.7361 17.662 18.6319 17.662 18.6074 17.7357Z" fill="#FFE15A"/>
</svg>
