<svg width="32" height="33" viewBox="0 0 32 33" fill="none" xmlns="http://www.w3.org/2000/svg">
<path d="M15 27.5C15 27.7652 14.8946 28.0196 14.7071 28.2071C14.5196 28.3946 14.2652 28.5 14 28.5H6C5.73478 28.5 5.48043 28.3946 5.29289 28.2071C5.10536 28.0196 5 27.7652 5 27.5V5.5C5 5.23478 5.10536 4.98043 5.29289 4.79289C5.48043 4.60536 5.73478 4.5 6 4.5H14C14.2652 4.5 14.5196 4.60536 14.7071 4.79289C14.8946 4.98043 15 5.23478 15 5.5C15 5.76522 14.8946 6.01957 14.7071 6.20711C14.5196 6.39464 14.2652 6.5 14 6.5H7V26.5H14C14.2652 26.5 14.5196 26.6054 14.7071 26.7929C14.8946 26.9804 15 27.2348 15 27.5ZM28.7075 15.7925L23.7075 10.7925C23.5199 10.6049 23.2654 10.4994 23 10.4994C22.7346 10.4994 22.4801 10.6049 22.2925 10.7925C22.1049 10.9801 21.9994 11.2346 21.9994 11.5C21.9994 11.7654 22.1049 12.0199 22.2925 12.2075L25.5863 15.5H14C13.7348 15.5 13.4804 15.6054 13.2929 15.7929C13.1054 15.9804 13 16.2348 13 16.5C13 16.7652 13.1054 17.0196 13.2929 17.2071C13.4804 17.3946 13.7348 17.5 14 17.5H25.5863L22.2925 20.7925C22.1049 20.9801 21.9994 21.2346 21.9994 21.5C21.9994 21.7654 22.1049 22.0199 22.2925 22.2075C22.4801 22.3951 22.7346 22.5006 23 22.5006C23.2654 22.5006 23.5199 22.3951 23.7075 22.2075L28.7075 17.2075C28.8005 17.1146 28.8742 17.0043 28.9246 16.8829C28.9749 16.7615 29.0008 16.6314 29.0008 16.5C29.0008 16.3686 28.9749 16.2385 28.9246 16.1171C28.8742 15.9957 28.8005 15.8854 28.7075 15.7925Z" fill="white"/>
</svg>
