<svg width="32" height="26" viewBox="0 0 32 26" fill="none" xmlns="http://www.w3.org/2000/svg">
<path fill-rule="evenodd" clip-rule="evenodd" d="M-0.0474854 0.964355V25.0357H32.0476V0.964355H-0.0474854Z" fill="#2E42A5"/>
<mask id="mask0_4585_3251" style="mask-type:luminance" maskUnits="userSpaceOnUse" x="-1" y="0" width="34" height="26">
<path fill-rule="evenodd" clip-rule="evenodd" d="M-0.0474854 0.964355V25.0357H32.0476V0.964355H-0.0474854Z" fill="white"/>
</mask>
<g mask="url(#mask0_4585_3251)">
<mask id="mask1_4585_3251" style="mask-type:luminance" maskUnits="userSpaceOnUse" x="0" y="0" width="32" height="26">
<rect y="0.764648" width="32" height="24.4706" fill="white"/>
</mask>
<g mask="url(#mask1_4585_3251)">
<path d="M-3.62122 23.3163L3.44139 26.3032L32.2078 4.21217L35.9332 -0.226461L28.3808 -1.22478L16.6476 8.2949L7.20364 14.7089L-3.62122 23.3163Z" fill="white"/>
<path d="M-2.65454 25.4087L0.943532 27.1421L34.5952 -0.639141H29.5431L-2.65454 25.4087Z" fill="#F50100"/>
<path d="M35.6213 23.3163L28.5587 26.3032L-0.207718 4.21217L-3.93308 -0.226461L3.61936 -1.22478L15.3525 8.2949L24.7965 14.7089L35.6213 23.3163Z" fill="white"/>
<path d="M35.3804 24.8182L31.7823 26.5515L17.453 14.6569L13.2047 13.328L-4.29153 -0.21133H0.760586L18.247 13.0066L22.8918 14.6002L35.3804 24.8182Z" fill="#F50100"/>
<path fill-rule="evenodd" clip-rule="evenodd" d="M12.2107 -1.04102H19.7888V7.6674H34.0809V18.5568H19.7888V27.0422H12.2107V18.5568H-2.026V7.6674H12.2107V-1.04102ZM1.98588 11.6793V14.5449H12.2107V11.6793H1.98588ZM19.7888 11.6793V14.5449H30.0691V11.6793H19.7888Z" fill="white"/>
<path fill-rule="evenodd" clip-rule="evenodd" d="M19.7888 -1.04126H12.2107V8.98845H-2.026V17.0122H12.2107V27.0419H19.7888V17.0122H34.081V8.98845H19.7888V-1.04126Z" fill="#F50100"/>
<path fill-rule="evenodd" clip-rule="evenodd" d="M12.2107 8.98845H-2.026V17.0122H12.2107V27.0419H19.7888V17.0122H34.081V8.98845H19.7888V-1.04126H12.2107V8.98845ZM14.2167 0.964682V10.9944H-0.0200593V15.0063H14.2167V25.036H17.7828V15.0063H32.075V10.9944H17.7828V0.964682H14.2167Z" fill="white"/>
</g>
</g>
</svg>
