<svg width="24" height="24" viewBox="0 0 24 24" fill="none" xmlns="http://www.w3.org/2000/svg">
<g clip-path="url(#clip0_7905_18036)">
<path d="M23.1429 2.56641H0.857143C0.383036 2.56641 0 2.94944 0 3.42355V20.5664C0 21.0405 0.383036 21.4236 0.857143 21.4236H23.1429C23.617 21.4236 24 21.0405 24 20.5664V3.42355C24 2.94944 23.617 2.56641 23.1429 2.56641ZM1.92857 4.49498H22.0714V7.70926H1.92857V4.49498ZM22.0714 19.495H1.92857V10.0664H22.0714V19.495ZM15.7232 17.7807H20.1429C20.2607 17.7807 20.3571 17.6843 20.3571 17.5664V15.6378C20.3571 15.52 20.2607 15.4236 20.1429 15.4236H15.7232C15.6054 15.4236 15.5089 15.52 15.5089 15.6378V17.5664C15.5089 17.6843 15.6054 17.7807 15.7232 17.7807Z" fill="black" fill-opacity="0.45"/>
</g>
<defs>
<clipPath id="clip0_7905_18036">
<rect width="24" height="24" fill="white"/>
</clipPath>
</defs>
</svg>
