<svg width="12" height="12" viewBox="0 0 12 12" fill="none" xmlns="http://www.w3.org/2000/svg">
<path d="M11.5629 6.52287L6.37697 0.54631C6.3301 0.49223 6.27214 0.448858 6.20704 0.419132C6.14193 0.389407 6.0712 0.374023 5.99963 0.374023C5.92806 0.374023 5.85733 0.389407 5.79222 0.419132C5.72712 0.448858 5.66916 0.49223 5.62229 0.54631L0.437912 6.52287C0.422246 6.54089 0.412088 6.56302 0.408648 6.58665C0.405208 6.61027 0.408632 6.63439 0.418511 6.65612C0.42839 6.67786 0.444308 6.69629 0.464369 6.70924C0.48443 6.72218 0.507788 6.72908 0.531662 6.72912H1.79729C1.86916 6.72912 1.93791 6.69787 1.98635 6.64319L5.40666 2.701V11.4994C5.40666 11.5682 5.46291 11.6244 5.53166 11.6244H6.46916C6.53791 11.6244 6.59416 11.5682 6.59416 11.4994V2.701L10.0145 6.64319C10.0614 6.69787 10.1301 6.72912 10.2035 6.72912H11.4692C11.5754 6.72912 11.6332 6.60412 11.5629 6.52287Z" fill="#52C41A"/>
</svg>
