<svg width="16" height="16" viewBox="0 0 16 16" fill="none" xmlns="http://www.w3.org/2000/svg">
<path d="M15.3908 13.2147L14.9622 9.65757C14.9479 9.53971 14.8033 9.48971 14.7194 9.57364L13.6604 10.6344L8.8158 5.7915C8.7033 5.68079 8.52294 5.68079 8.41223 5.7915L6.59437 7.60757L1.6533 2.6665C1.62645 2.63991 1.59019 2.625 1.55241 2.625C1.51462 2.625 1.47837 2.63991 1.45152 2.6665L0.647945 3.47364C0.621359 3.50049 0.606445 3.53675 0.606445 3.57454C0.606445 3.61232 0.621359 3.64858 0.647945 3.67543L6.39259 9.42364C6.5033 9.53614 6.68545 9.53614 6.79616 9.42364L8.61402 7.60757L12.6515 11.6433L11.5926 12.7022C11.5737 12.7212 11.5605 12.7451 11.5546 12.7712C11.5486 12.7973 11.55 12.8245 11.5588 12.8498C11.5675 12.8751 11.5832 12.8975 11.604 12.9143C11.6248 12.9311 11.6499 12.9418 11.6765 12.9451L15.2337 13.3736C15.3247 13.3861 15.4033 13.3076 15.3908 13.2147Z" fill="#F5222D"/>
</svg>
