<svg width="100" height="100" viewBox="0 0 100 100" fill="none" xmlns="http://www.w3.org/2000/svg">
<g clip-path="url(#clip0_4645_253713)">
<path d="M109.394 84.7911H-14.7075V84.8532H109.394V84.7911Z" fill="#EBEBEB"/>
<path d="M28.2861 86.3747H22.5327V86.4367H28.2861V86.3747Z" fill="#EBEBEB"/>
<path d="M99.1609 87.7051H85.0952V87.7671H99.1609V87.7051Z" fill="#EBEBEB"/>
<path d="M9.96169 87.7051H-4.104V87.7671H9.96169V87.7051Z" fill="#EBEBEB"/>
<path d="M44.1168 73.7213H-3.80887C-4.59071 73.72 -5.22363 73.0859 -5.22363 72.304V4.93413C-5.21693 4.15725 -4.58575 3.53054 -3.80887 3.5293H44.1168C44.8993 3.5293 45.534 4.1637 45.534 4.94654V72.304C45.534 73.0866 44.8993 73.7213 44.1168 73.7213ZM-3.80887 3.57894C-4.55646 3.58043 -5.16158 4.18654 -5.16158 4.93413V72.304C-5.16158 73.0516 -4.55646 73.6577 -3.80887 73.6592H44.1168C44.8646 73.658 45.4705 73.0519 45.4719 72.304V4.93413C45.4705 4.18629 44.8646 3.58043 44.1168 3.57894H-3.80887Z" fill="#EBEBEB"/>
<path d="M97.8058 73.7213H49.8777C49.0956 73.72 48.4619 73.0861 48.4604 72.304V4.93413C48.4686 4.15676 49.1003 3.53054 49.8777 3.5293H97.8058C98.5817 3.53203 99.2114 4.15824 99.2181 4.93413V72.304C99.2181 73.0849 98.5866 73.7185 97.8058 73.7213ZM49.8777 3.57894C49.1299 3.58043 48.524 4.18629 48.5225 4.93413V72.304C48.5237 73.0519 49.1299 73.6577 49.8777 73.6592H97.8058C98.5536 73.658 99.1595 73.0519 99.161 72.304V4.93413C99.1597 4.18629 98.5536 3.58043 97.8058 3.57894H49.8777Z" fill="#EBEBEB"/>
<path d="M63.494 65.0902H57.7627V84.9251H63.494V65.0902Z" fill="#E6E6E6"/>
<path d="M59.4359 65.0902H53.7046V84.9251H59.4359V65.0902Z" fill="#E6E6E6"/>
<path d="M58.3488 84.9254H59.4367V81.8281H57.2056L58.3488 84.9254Z" fill="#F0F0F0"/>
<path d="M30.6273 65.0902H24.896V84.9251H30.6273V65.0902Z" fill="#E6E6E6"/>
<path d="M59.4359 65.0902H29.6772V83.4007H59.4359V65.0902Z" fill="#F0F0F0"/>
<path d="M57.5841 79.281H45.9287C45.3032 79.2797 44.7964 78.7729 44.7949 78.1472V67.0006C44.7962 66.3751 45.303 65.8683 45.9287 65.8668H57.5819C58.2076 65.8681 58.7142 66.3749 58.7157 67.0006V78.1472C58.7142 78.7717 58.2088 79.2783 57.5841 79.281ZM45.9287 66.1202C45.442 66.1202 45.0471 66.5141 45.0459 67.0006V78.1472C45.0406 78.6347 45.4316 79.0343 45.919 79.0397C45.9223 79.0397 45.9255 79.0397 45.9287 79.0397H57.5819C58.0693 79.0437 58.468 78.6518 58.4719 78.1643C58.4719 78.1586 58.4719 78.1529 58.4719 78.1474V67.0009C58.4707 66.5141 58.0758 66.1205 57.5891 66.1205H45.9287V66.1202Z" fill="#E0E0E0"/>
<path d="M43.1834 79.281H31.5303C30.9048 79.2797 30.398 78.7729 30.3965 78.1472V67.0006C30.3977 66.3751 30.9046 65.8683 31.5303 65.8668H43.1834C43.8097 65.8668 44.3172 66.3744 44.3172 67.0006V78.1472C44.3172 78.7734 43.8097 79.281 43.1834 79.281ZM31.5305 66.1202C31.0443 66.1202 30.6501 66.5144 30.6501 67.0006V78.1472C30.6501 78.6334 31.0443 79.0276 31.5305 79.0276H43.1837C43.6704 79.0276 44.0653 78.6337 44.0665 78.1472V67.0006C44.0653 66.5139 43.6704 66.1202 43.1837 66.1202H31.5305Z" fill="#E0E0E0"/>
<path d="M42.102 69.3911C41.4971 69.3923 41.0059 68.9031 41.0044 68.2985C41.0032 67.6936 41.4924 67.2022 42.097 67.2009C42.7019 67.1997 43.1931 67.6889 43.1945 68.2935C43.1945 68.2953 43.1945 68.2967 43.1945 68.2982C43.1933 68.9014 42.7048 69.3898 42.102 69.3911Z" fill="#FAFAFA"/>
<path d="M47.0115 69.391C46.4066 69.395 45.9132 68.908 45.9092 68.3032C45.9052 67.6983 46.3922 67.2049 46.9971 67.2009C47.602 67.1969 48.0954 67.6839 48.0994 68.2888C48.0994 68.2945 48.0994 68.2999 48.0994 68.3056C48.0954 68.9043 47.6101 69.3886 47.0115 69.391Z" fill="#FAFAFA"/>
<path d="M30.7651 84.9254H29.6772V81.8281H31.9086L30.7651 84.9254Z" fill="#F0F0F0"/>
<path d="M28.8021 65.0902H23.0708V84.9251H28.8021V65.0902Z" fill="#E6E6E6"/>
<path d="M27.714 84.9254H28.8019V81.8281H26.5708L27.714 84.9254Z" fill="#F0F0F0"/>
<path d="M28.8021 65.0902H-0.956543V83.4007H28.8021V65.0902Z" fill="#F0F0F0"/>
<path d="M26.9491 79.281H15.2937C14.6673 79.281 14.159 78.7739 14.1577 78.1472V67.0006C14.159 66.3741 14.6673 65.8668 15.2937 65.8668H26.9469C27.5724 65.8681 28.0792 66.3749 28.0807 67.0006V78.1472C28.079 78.7717 27.5736 79.2783 26.9491 79.281ZM15.2935 66.1202C14.8068 66.1202 14.4119 66.5141 14.4106 67.0006V78.1472C14.4054 78.6347 14.7963 79.0343 15.2838 79.0397C15.287 79.0397 15.2903 79.0397 15.2935 79.0397H26.9467C27.4341 79.0437 27.8327 78.6518 27.8367 78.1643C27.8367 78.1586 27.8367 78.1529 27.8367 78.1474V67.0009C27.8355 66.5151 27.4421 66.1217 26.9563 66.1205H15.2935V66.1202Z" fill="#E0E0E0"/>
<path d="M12.5492 79.281H0.896001C0.269783 79.281 -0.237793 78.7734 -0.237793 78.1472V67.0006C-0.237793 66.3744 0.269783 65.8668 0.896001 65.8668H12.5492C13.1746 65.8681 13.6815 66.3749 13.683 67.0006V78.1472C13.6815 78.7727 13.1746 79.2795 12.5492 79.281ZM0.896001 66.1202C0.409274 66.1202 0.0143813 66.5141 0.0131403 67.0006V78.1472C0.007928 78.6347 0.398849 79.0343 0.886321 79.0397C0.889547 79.0397 0.892774 79.0397 0.896001 79.0397H12.5492C13.0359 79.0397 13.4308 78.6458 13.432 78.1594V67.0009C13.4308 66.5141 13.0359 66.1205 12.5492 66.1205H0.896001V66.1202Z" fill="#E0E0E0"/>
<path d="M11.4682 69.3911C10.8633 69.3923 10.3721 68.9031 10.3706 68.2985C10.3694 67.6936 10.8586 67.2022 11.4632 67.2009C12.0681 67.1997 12.5593 67.6889 12.5608 68.2935C12.5608 68.2953 12.5608 68.2967 12.5608 68.2982C12.5608 68.9019 12.0715 69.3911 11.4682 69.3911Z" fill="#FAFAFA"/>
<path d="M16.3772 69.391C15.7723 69.395 15.2789 68.908 15.2749 68.3032C15.271 67.6983 15.7579 67.2049 16.3628 67.2009C16.9677 67.1969 17.4611 67.6839 17.4651 68.2888C17.4651 68.2945 17.4651 68.2999 17.4651 68.3056C17.4611 68.9043 16.9759 69.3886 16.3772 69.391Z" fill="#FAFAFA"/>
<path d="M0.131333 84.9254H-0.956543V81.8281H1.27208L0.131333 84.9254Z" fill="#F0F0F0"/>
<path d="M51.6335 10.1116H40.9697V20.7755H51.6335V10.1116Z" fill="#EBEBEB"/>
<path d="M52.1064 10.1134H51.6338V20.7775H52.1064V10.1134Z" fill="#E0E0E0"/>
<path d="M50.1895 11.5574H42.4155V19.3314H50.1895V11.5574Z" fill="white"/>
<path d="M47.6032 16.7447C46.8847 17.4632 45.7199 17.4632 45.0013 16.7447C44.2828 16.0261 44.2828 14.8613 45.0013 14.1427C45.7199 13.4242 46.8847 13.4242 47.6032 14.1427C48.3215 14.8613 48.3215 16.0264 47.6032 16.7447Z" fill="#F5F5F5"/>
<path d="M41.1876 23.8219H28.6851V36.3244H41.1876V23.8219Z" fill="#EBEBEB"/>
<path d="M41.741 23.8239H41.187V36.3264H41.741V23.8239Z" fill="#E0E0E0"/>
<path d="M39.4942 25.5172H30.3799V34.6314H39.4942V25.5172Z" fill="white"/>
<path d="M36.8795 28.1297H32.9927V32.0166H36.8795V28.1297Z" fill="#F5F5F5"/>
<path d="M97.1076 19.8022H90.3389V21.384H97.1076V19.8022Z" fill="#E6E6E6"/>
<path d="M90.3385 19.8022H62.3218V21.384H90.3385V19.8022Z" fill="#F5F5F5"/>
<path d="M78.2426 11.4065H70.3555V19.8025H78.2426V11.4065Z" fill="#E0E0E0"/>
<path d="M70.3548 11.4065H68.3345V19.8025H70.3548V11.4065Z" fill="#F0F0F0"/>
<path d="M80.3104 10.1116H74.3857V19.8022H80.3104V10.1116Z" fill="#E6E6E6"/>
<path d="M74.3881 10.1116H72.6753V19.8022H74.3881V10.1116Z" fill="#F0F0F0"/>
<path d="M81.126 11.4065H76.1309V19.8025H81.126V11.4065Z" fill="#F0F0F0"/>
<path d="M76.131 11.4065H74.9897V19.8025H76.131V11.4065Z" fill="#FAFAFA"/>
<path d="M86.7718 12.8272H80.2197V19.8025H86.7718V12.8272Z" fill="#E6E6E6"/>
<path d="M80.2196 12.8272H78.542V19.8025H80.2196V12.8272Z" fill="#FAFAFA"/>
<path d="M88.49 11.7515H83.5679V19.8023H88.49V11.7515Z" fill="#E6E6E6"/>
<path d="M83.5702 11.7515H82.147V19.8023H83.5702V11.7515Z" fill="#F0F0F0"/>
<path d="M89.7992 12.8272H85.0181V19.8025H89.7992V12.8272Z" fill="#F0F0F0"/>
<path d="M85.016 12.8272H84.0688V19.8025H85.016V12.8272Z" fill="#FAFAFA"/>
<path d="M86.334 66.678C88.4541 63.9065 93.5004 62.8765 95.2445 61.1301C97.5287 58.8385 97.5168 55.4013 95.5726 54.1613C93.8841 53.0831 88.2856 60.3726 87.6559 61.1855C85.4851 63.9859 84.8579 66.0651 84.4501 68.0771C84.496 66.367 84.5417 64.7941 84.5779 63.5834C84.6961 59.6275 84.8433 58.3562 84.9108 57.9655C85.152 57.7727 85.4221 57.5505 85.5814 57.4324C86.9371 56.4217 89.9401 55.2182 91.443 53.7515C93.6356 51.607 93.2809 49.0406 91.7421 48.0855C90.1355 47.087 87.2918 49.4484 85.7817 51.7882C84.2716 54.128 84.9182 56.3713 84.496 58.3011C84.4067 58.6823 84.3151 60.1296 84.2307 62.1388C83.8738 60.1601 82.7799 58.3904 81.1696 57.1867C79.0904 55.5272 77.2956 53.5083 75.583 53.7686C73.8704 54.0293 74.8014 56.7017 76.1474 58.5783C77.3535 60.25 83.3091 61.9167 84.1848 63.2602C84.081 65.981 83.9894 69.4281 83.9242 72.6386C83.4538 70.9816 83.777 70.8416 81.8546 68.2967C80.7112 66.7867 76.0221 64.9197 75.4649 65.9619C74.9077 67.0039 75.7543 68.9602 77.5247 70.3328C78.9526 71.44 82.1078 71.4375 82.8532 72.125C83.0244 72.2841 83.5888 72.8994 83.912 73.2539C83.8348 77.1713 83.801 80.6302 83.8395 81.8097L84.1458 81.8219C84.1314 81.5181 84.1674 79.5255 84.2277 76.8866C84.9971 75.4827 90.1759 74.6627 91.7753 73.2032C93.4495 71.6763 94.6505 69.8937 93.9342 68.6998C93.336 67.7035 88.6276 69.0567 86.6978 70.7068C85.4218 71.8044 84.6427 72.9766 84.2858 74.5517C84.3292 72.7547 84.3799 70.8249 84.428 69.0039C84.8117 68.5546 85.6971 67.508 86.334 66.678Z" fill="#E6E6E6"/>
<path d="M86.7848 84.8728H81.4082C81.1139 84.8728 80.8607 84.4918 80.8029 83.9587L80.4219 80.4803H87.7717L87.3904 83.9587C87.3299 84.4918 87.0792 84.8728 86.7848 84.8728Z" fill="#F0F0F0"/>
<path d="M87.9261 81.8288H80.2676C80.0841 81.8288 79.9298 81.5757 79.9106 81.2379L79.7538 78.6665C79.7297 78.2708 79.896 77.9261 80.1107 77.9261H88.0827C88.2974 77.9261 88.4637 78.2711 88.4397 78.6665L88.2828 81.2379C88.2637 81.5754 88.1093 81.8288 87.9261 81.8288Z" fill="#F0F0F0"/>
<path d="M47.3434 96C73.9217 96 95.4676 94.7421 95.4676 93.1903C95.4676 91.6386 73.9217 90.3807 47.3434 90.3807C20.7652 90.3807 -0.780762 91.6386 -0.780762 93.1903C-0.780762 94.7421 20.7652 96 47.3434 96Z" fill="#F5F5F5"/>
<path d="M38.5305 28.5188C37.981 29.851 34.7528 29.7616 31.3683 28.3655C27.9838 26.9693 25.6855 24.7576 26.235 23.4257C26.3623 23.1169 26.7175 21.964 27.0982 21.8035C28.3596 21.2716 30.7583 22.4694 33.3582 23.5419C35.7782 24.5401 38.5439 25.1817 38.9735 26.4965C39.2337 27.2937 38.6871 28.1393 38.5305 28.5188Z" fill="#3A6AB5"/>
<path opacity="0.2" d="M38.9743 26.4963C39.1799 27.5414 38.7271 28.0418 38.5303 28.5186C38.328 29.0103 37.7619 29.3074 36.9597 29.4179C36.8631 29.4338 36.7616 29.4434 36.6574 29.4514C36.1195 29.4913 35.4958 29.4601 34.8167 29.3553C34.7296 29.3446 34.6434 29.3283 34.5548 29.3129C33.8906 29.1982 33.1808 29.0148 32.4483 28.771C32.3691 28.7447 32.2892 28.7159 32.2096 28.6872C31.9323 28.5896 31.6496 28.4836 31.3684 28.3665C31.0882 28.2518 30.8156 28.1292 30.5496 28.0019C30.4729 27.9669 30.3977 27.9286 30.3235 27.8929C29.6568 27.5623 29.0514 27.2039 28.5183 26.8348C28.448 26.7874 28.3823 26.7383 28.315 26.6923C27.7603 26.2885 27.2926 25.872 26.9402 25.465C26.8786 25.3962 26.8225 25.3285 26.7687 25.26C26.2343 24.5831 26.0241 23.939 26.2353 23.4262C26.3723 23.0944 26.6719 21.9651 27.0968 21.8027C27.5225 21.6429 28.0703 21.665 28.7044 21.8C28.7861 21.8179 28.8705 21.8372 28.9561 21.8588C30.2085 22.1758 31.7606 22.8832 33.357 23.5419C35.2399 24.3188 37.4665 25.1244 38.5564 26.0557C38.6244 26.1118 38.6852 26.1704 38.7438 26.2294C38.8326 26.318 38.9081 26.4057 38.9743 26.4963Z" fill="white"/>
<g opacity="0.2">
<path d="M29.0709 21.6516L28.9557 21.8588L26.9401 25.465C26.8785 25.3962 26.8224 25.3284 26.7686 25.2599L28.704 21.8002L28.854 21.5319L29.0709 21.6516Z" fill="white"/>
</g>
<g opacity="0.2">
<path d="M30.5945 23.1202L28.5177 26.835C28.4475 26.7876 28.3817 26.7385 28.3145 26.6926L30.3795 22.9973L30.5945 23.1202Z" fill="white"/>
</g>
<g opacity="0.2">
<path d="M34.4143 25.254L32.4478 28.7708C32.3686 28.7445 32.2887 28.7157 32.209 28.6869L34.1968 25.1317L34.4143 25.254Z" fill="white"/>
</g>
<g opacity="0.2">
<path d="M32.639 24.2622L30.5494 28.0021C30.4727 27.9671 30.3975 27.9289 30.3232 27.8932L32.4216 24.1401L32.639 24.2622Z" fill="white"/>
</g>
<g opacity="0.2">
<path d="M36.7302 25.9338L34.8161 29.3553C34.7289 29.3446 34.6428 29.3283 34.5542 29.3129L36.5128 25.8117L36.7302 25.9338Z" fill="white"/>
</g>
<path d="M38.959 27.3473C38.4095 28.6794 35.2203 28.6273 31.8358 27.2312C28.4513 25.835 26.1529 23.6235 26.7022 22.2914C27.2517 20.9593 30.4409 21.0114 33.8254 22.4076C37.2099 23.804 39.5083 26.0155 38.959 27.3473Z" fill="#3A6AB5"/>
<path opacity="0.2" d="M37.8082 26.8728C37.42 27.8139 34.934 27.6812 32.2554 26.5762C29.5768 25.4712 27.7202 23.8127 28.1084 22.8715C28.4966 21.9303 30.9826 22.0631 33.6612 23.1681C36.3399 24.2731 38.1964 25.9316 37.8082 26.8728Z" fill="white"/>
<path d="M55.6369 16.4715C56.5193 17.6108 54.836 20.3668 51.9414 22.6086C49.0469 24.8504 45.985 25.7442 45.1027 24.6052C44.8982 24.3411 44.0746 23.4595 44.1248 23.0494C44.2908 21.6905 46.5229 20.2055 48.7465 18.4835C50.8163 16.8806 52.7486 14.8004 54.1028 15.0816C54.9238 15.2521 55.3855 16.1469 55.6369 16.4715Z" fill="#3A6AB5"/>
<path opacity="0.2" d="M54.1027 15.0804C55.1116 15.4219 55.3203 16.0638 55.6361 16.4716C55.9619 16.8918 55.9381 17.5306 55.6351 18.2815C55.6008 18.3733 55.5586 18.4659 55.5137 18.5604C55.2806 19.0469 54.9433 19.5726 54.5147 20.1097C54.4621 20.18 54.405 20.2467 54.3476 20.3157C53.9177 20.8347 53.4057 21.3597 52.8296 21.8737C52.7673 21.9293 52.7028 21.9842 52.638 22.0393C52.4156 22.2314 52.1828 22.4237 51.9415 22.6094C51.7025 22.7955 51.4608 22.9708 51.218 23.1383C51.1495 23.1875 51.079 23.2336 51.011 23.2803C50.3925 23.6943 49.7804 24.041 49.1952 24.32C49.119 24.3575 49.0438 24.39 48.9705 24.4255C48.3443 24.706 47.7504 24.9045 47.222 25.0075C47.1319 25.0269 47.045 25.0418 46.9589 25.0542C46.106 25.181 45.4426 25.0433 45.1028 24.6049C44.8829 24.321 44.0524 23.4992 44.1229 23.0499C44.1959 22.6012 44.4875 22.1371 44.9201 21.6541C44.976 21.5923 45.035 21.5282 45.0963 21.4649C45.9941 20.5361 47.3798 19.5413 48.7454 18.4842C50.3558 17.237 52.1622 15.7064 53.5124 15.2238C53.5948 15.1928 53.676 15.169 53.7564 15.1479C53.8775 15.1149 53.9912 15.0928 54.1027 15.0804Z" fill="white"/>
<g opacity="0.2">
<path d="M44.9739 21.2621L45.0965 21.4652L47.2222 25.0075C47.1321 25.0269 47.0452 25.0418 46.9591 25.0542L44.9203 21.6543L44.7622 21.3907L44.9739 21.2621Z" fill="white"/>
</g>
<g opacity="0.2">
<path d="M47.0052 20.6704L49.1949 24.3197C49.1187 24.3572 49.0435 24.3897 48.9702 24.4252L46.7915 20.7958L47.0052 20.6704Z" fill="white"/>
</g>
<g opacity="0.2">
<path d="M50.7567 18.4182L52.8294 21.8735C52.7671 21.9291 52.7026 21.9839 52.6378 22.039L50.5425 18.546L50.7567 18.4182Z" fill="white"/>
</g>
<g opacity="0.2">
<path d="M49.0125 19.4654L51.2176 23.1383C51.1491 23.1875 51.0786 23.2336 51.0106 23.2803L48.7983 19.5932L49.0125 19.4654Z" fill="white"/>
</g>
<g opacity="0.2">
<path d="M52.4984 16.7473L54.5145 20.1097C54.4619 20.18 54.4048 20.2467 54.3475 20.3157L52.2842 16.8751L52.4984 16.7473Z" fill="white"/>
</g>
<path d="M51.1879 21.638C54.0825 19.3962 55.7138 16.6555 54.8316 15.5163C53.9493 14.3772 50.8876 15.2711 47.9931 17.5129C45.0985 19.7546 43.4671 22.4954 44.3494 23.6345C45.2316 24.7737 48.2933 23.8798 51.1879 21.638Z" fill="#3A6AB5"/>
<path opacity="0.2" d="M53.8499 16.2789C54.4732 17.0839 53.1214 19.1745 50.8308 20.9486C48.5401 22.7228 46.1777 23.5084 45.5542 22.7034C44.931 21.8985 46.2824 19.8079 48.5734 18.0337C50.8643 16.2596 53.2264 15.474 53.8499 16.2789Z" fill="white"/>
<path d="M43.6538 11.1342C43.3632 12.7676 39.7094 13.4606 35.5584 12.7219C31.4077 11.983 28.2784 10.0599 28.569 8.42627C28.6365 8.04751 28.7527 6.66303 29.1414 6.38902C30.4295 5.48059 33.4226 6.23885 36.6111 6.80625C39.5788 7.33442 42.8482 7.37662 43.6543 8.75018C44.1438 9.5829 43.7367 10.6685 43.6538 11.1342Z" fill="#3A6AB5"/>
<path opacity="0.2" d="M43.6561 8.74946C44.1441 9.87481 43.7579 10.5489 43.6537 11.1337C43.5469 11.7366 42.983 12.2099 42.1079 12.5313C42.0031 12.573 41.8914 12.6088 41.776 12.6433C41.1806 12.8202 40.4712 12.9384 39.6814 12.9875C39.5809 12.997 39.4799 12.9997 39.3764 13.0042C38.601 13.0384 37.7573 13.0066 36.8732 12.9123C36.7777 12.9022 36.6809 12.8895 36.5838 12.8766C36.248 12.8351 35.9038 12.7852 35.559 12.7225C35.2155 12.6621 34.8789 12.5914 34.5483 12.5137C34.4535 12.4931 34.3594 12.4688 34.2671 12.4467C33.4359 12.2387 32.6667 11.984 31.9762 11.6999C31.8853 11.6636 31.7995 11.6246 31.7126 11.5894C30.9891 11.2717 30.3609 10.918 29.8645 10.5465C29.7783 10.4844 29.6984 10.4219 29.6212 10.3578C28.8538 9.72787 28.4589 9.05499 28.5703 8.42605C28.6428 8.01899 28.7026 6.67497 29.1407 6.38805C29.5803 6.10361 30.2018 5.9939 30.9484 5.98993C31.0444 5.98993 31.1445 5.99092 31.246 5.99415C32.7327 6.04304 34.6528 6.45705 36.6106 6.80602C38.9199 7.21705 41.6229 7.5762 43.0778 8.35605C43.1682 8.40247 43.2508 8.45335 43.3313 8.50572C43.4529 8.58391 43.5593 8.66383 43.6561 8.74946Z" fill="white"/>
<g opacity="0.2">
<path d="M31.3238 5.73327L31.2453 5.99463L29.8638 10.5469C29.7777 10.4849 29.6978 10.4223 29.6206 10.3583L30.9478 5.99041L31.0505 5.65161L31.3238 5.73327Z" fill="white"/>
</g>
<g opacity="0.2">
<path d="M33.3999 7.0108L31.9765 11.7004C31.8856 11.6641 31.7998 11.6252 31.7129 11.5899L33.1279 6.92517L33.3999 7.0108Z" fill="white"/>
</g>
<g opacity="0.2">
<path d="M38.2214 8.47269L36.8734 12.9126C36.7778 12.9024 36.681 12.8897 36.584 12.8768L37.9466 8.38855L38.2214 8.47269Z" fill="white"/>
</g>
<g opacity="0.2">
<path d="M35.9799 7.79313L34.5483 12.514C34.4535 12.4934 34.3594 12.469 34.2671 12.4469L35.7052 7.70898L35.9799 7.79313Z" fill="white"/>
</g>
<g opacity="0.2">
<path d="M40.994 8.66831L39.6815 12.9878C39.581 12.9972 39.48 13 39.3765 13.0044L40.7195 8.58417L40.994 8.66831Z" fill="white"/>
</g>
<path d="M43.8463 9.71128C44.137 8.07779 41.0077 6.15478 36.8569 5.41611C32.7061 4.67745 29.1056 5.40284 28.8149 7.03633C28.5242 8.66981 31.6535 10.5928 35.8042 11.3315C39.955 12.0702 43.5556 11.3448 43.8463 9.71128Z" fill="#3A6AB5"/>
<path opacity="0.2" d="M42.4372 9.45958C42.2317 10.6137 39.4025 11.0754 36.1175 10.4906C32.8325 9.90585 30.3363 8.4963 30.5416 7.34215C30.7469 6.18801 33.5764 5.72635 36.8613 6.31087C40.1463 6.89588 42.6428 8.30543 42.4372 9.45958Z" fill="white"/>
<path d="M65.3238 52.8295L39.7817 54.3155C38.8763 54.3681 37.9874 54.585 37.1599 54.9556L9.41524 67.3752C8.40803 67.8259 7.85107 68.9064 8.07668 69.9717L12.667 91.65C12.9819 93.1375 14.6402 93.9206 16.0185 93.2323L43.4028 79.5618L68.6882 78.7069C70.0166 78.662 71.008 77.4744 70.7972 76.1805L67.4127 55.421C67.238 54.3487 66.4246 52.797 65.3238 52.8295Z" fill="#E73848"/>
<path opacity="0.1" d="M65.3238 52.8295L39.7817 54.3155C38.8763 54.3681 37.9874 54.585 37.1599 54.9556L9.41524 67.3752C8.40803 67.8259 7.85107 68.9064 8.07668 69.9717L12.667 91.65C12.9819 93.1375 14.6402 93.9206 16.0185 93.2323L43.4028 79.5618L68.6882 78.7069C70.0166 78.662 71.008 77.4744 70.7972 76.1805L67.4127 55.421C67.238 54.3487 66.4246 52.797 65.3238 52.8295Z" fill="black"/>
<path d="M14.0509 38.7176L0.645996 51.0724L24.6975 77.1682L38.1024 64.8133L14.0509 38.7176Z" fill="#E73848"/>
<path opacity="0.5" d="M38.1061 64.8115L24.7013 77.1664L0.649414 51.0722L9.446 42.9634L14.0541 38.7151L14.8226 39.5481L38.1061 64.8115Z" fill="#FAFAFA"/>
<path d="M14.1384 40.3133L2.30957 51.2155L24.808 75.6262L36.6368 64.724L14.1384 40.3133Z" stroke="#E73848" stroke-miterlimit="10"/>
<path d="M22.1405 60.8531C23.4967 59.6028 23.3252 57.2105 21.7573 55.5096C20.1894 53.8087 17.8189 53.4433 16.4626 54.6935C15.1063 55.9438 15.2779 58.3361 16.8458 60.037C18.4137 61.7379 20.7842 62.1033 22.1405 60.8531Z" fill="#E73848"/>
<path opacity="0.1" d="M24.5572 66.5767L19.7942 68.2221L9.44482 42.9634L14.053 38.7151L14.8214 39.5481L24.5572 66.5767Z" fill="black"/>
<path d="M25.4823 28.492L8.34375 34.705L20.4387 68.069L37.5772 61.856L25.4823 28.492Z" fill="#E73848"/>
<path opacity="0.5" d="M25.4823 28.492L8.34375 34.705L20.4387 68.069L37.5772 61.856L25.4823 28.492Z" fill="#FAFAFA"/>
<path d="M24.9457 29.9973L9.82227 35.4797L21.1362 66.6894L36.2597 61.2069L24.9457 29.9973Z" stroke="#E73848" stroke-miterlimit="10"/>
<path d="M24.3789 52.0336C26.1129 51.405 26.8796 49.1325 26.0912 46.9578C25.3029 44.7832 23.2581 43.5299 21.524 44.1585C19.79 44.7871 19.0234 47.0596 19.8117 49.2342C20.6 51.4089 22.6448 52.6622 24.3789 52.0336Z" fill="#E73848"/>
<path d="M65.4904 53.7108L40.2978 55.13C39.4047 55.1804 38.5283 55.3949 37.7132 55.763L10.3763 68.1046C9.38403 68.5526 8.83724 69.6311 9.06261 70.6964L13.6469 92.376C13.9616 93.8637 15.5993 94.6505 16.9572 93.9662L43.9352 80.3731L68.8764 79.5843C70.1867 79.5428 71.1616 78.3582 70.9502 77.0645L67.5577 56.3065C67.3828 55.2343 66.5763 53.681 65.4904 53.7108Z" fill="#E73848"/>
<path opacity="0.2" d="M41.3218 58.9291L62.9368 57.597" stroke="black" stroke-width="2" stroke-miterlimit="10" stroke-linecap="round" stroke-linejoin="round"/>
<path opacity="0.2" d="M38.7324 59.4875L42.6823 77.6263" stroke="black" stroke-width="2" stroke-miterlimit="10" stroke-linecap="round" stroke-linejoin="round"/>
<path opacity="0.2" d="M12.4038 75.863L15.1884 89.816C15.1884 89.816 17.3232 84.2794 12.4038 75.863Z" fill="#FAFAFA"/>
<path opacity="0.2" d="M12.77 76.0271C12.8656 76.2815 37.5045 65.7026 37.5045 65.7026C37.5045 65.7026 38.128 73.3073 30.7132 77.4664C23.2983 81.6253 12.77 76.0271 12.77 76.0271Z" fill="#FAFAFA"/>
<path d="M29.1366 76.4384C29.7261 76.4384 30.2039 75.9605 30.2039 75.3711C30.2039 74.7817 29.7261 74.3038 29.1366 74.3038C28.5472 74.3038 28.0693 74.7817 28.0693 75.3711C28.0693 75.9605 28.5472 76.4384 29.1366 76.4384Z" fill="#E73848"/>
<path opacity="0.2" d="M37.5176 65.7026C37.5176 65.7026 40.5735 70.3 39.8343 78.1351L37.5176 65.7026Z" fill="black"/>
<g opacity="0.2">
<path d="M11.2251 70.3829L11.7927 70.132" stroke="#FAFAFA" stroke-linecap="round" stroke-linejoin="round"/>
<path d="M12.9727 69.6105L35.9811 59.4406" stroke="#FAFAFA" stroke-linecap="round" stroke-linejoin="round" stroke-dasharray="5.2 5.2"/>
<path d="M36.5713 59.1798L37.1387 58.9291" stroke="#FAFAFA" stroke-linecap="round" stroke-linejoin="round"/>
</g>
<path opacity="0.2" d="M42.0479 63.0061L63.6629 61.674" stroke="black" stroke-width="2" stroke-miterlimit="10" stroke-linecap="round" stroke-linejoin="round"/>
<path opacity="0.2" d="M43.02 68.091L64.6351 66.7591" stroke="black" stroke-width="2" stroke-miterlimit="10" stroke-linecap="round" stroke-linejoin="round"/>
<path d="M59.8988 31.9628C59.8988 31.9628 59.3545 37.7543 57.2035 38.2532C55.0524 38.7521 53.2343 37.8569 53.2343 37.8569L51.4852 36.5111L50.6313 39.4866C50.6313 39.4866 51.5648 40.7554 53.5122 39.8757C53.5122 39.8757 56.9849 41.4064 58.9074 39.8757C60.83 38.3451 61.4451 34.1532 61.4451 34.1532L59.8988 31.9628Z" fill="#B97964"/>
<path d="M61.628 29.1578C61.628 29.1578 60.1269 26.5991 60.8092 21.9592C61.4915 17.3193 65.3808 16.7395 66.882 17.0805C68.3831 17.4215 69.6112 18.8591 70.6348 21.6033C71.6584 24.3471 72.0337 25.0637 73.7393 24.5862C75.4452 24.1086 79.9827 22.6075 81.245 23.9379C82.5074 25.2685 82.0978 26.7696 82.0978 26.7696C82.0978 26.7696 88.4094 25.2345 87.8634 30.8635C87.3176 36.4927 78.2085 41.7467 69.543 36.1857C60.8774 30.6247 61.628 29.1578 61.628 29.1578Z" fill="#263238"/>
<path d="M61.5576 42.782C61.5576 42.782 59.8423 57.5335 59.8993 64.4519C59.9564 71.3703 62.4151 87.6656 62.4151 87.6656H65.4455C65.4455 87.6656 65.0451 74.6295 65.1024 70.1695C65.1598 65.7095 65.96 58.3339 65.96 58.3339C65.96 58.3339 66.9319 64.9664 68.0754 67.3107C69.2189 69.655 75.5655 77.9455 79.9681 80.5186L82.0264 78.6318C82.0264 78.6318 77.4523 72.9712 75.737 70.1695C74.0216 67.3678 72.4778 66.5673 71.8489 61.3642C71.2199 56.1611 72.3063 47.8133 70.4765 42.782H61.5576Z" fill="#263238"/>
<path opacity="0.2" d="M65.9606 58.3341L64.6427 48.9843C64.6427 48.9843 63.6029 54.6059 65.6521 61.4687L65.9606 58.3341Z" fill="black"/>
<path d="M63.0371 88.4969L63.1386 91.3936L65.1714 91.5629L65.2732 91.2919V88.2936L63.0371 88.4969Z" fill="#B97964"/>
<path d="M62.0713 87.3958L62.2574 88.48L65.7472 88.5646L65.9673 87.2603L62.0713 87.3958Z" fill="#E73848"/>
<path d="M79.0112 80.7216L82.2466 77.7062L82.9582 78.8412L80.18 81.3821L79.0112 80.7216Z" fill="#E73848"/>
<path d="M80.5698 80.7216L82.7041 82.5171L84.0762 80.9078L82.3229 79.0954L80.5698 80.7216Z" fill="#B97964"/>
<path d="M84.4904 80.7822L85.7813 81.5774C86.0322 81.732 86.0836 82.075 85.8878 82.2955C84.9508 83.3513 82.5611 86.0366 82.3233 86.227C82.027 86.4643 81.6711 86.0577 81.5864 85.6849C81.5864 85.6849 82.264 84.7872 82.3233 84.2111C82.367 83.7874 82.3464 83.1711 82.3325 82.875C82.3273 82.7631 82.365 82.6546 82.4378 82.5695L83.8808 80.8782C84.0325 80.7003 84.2914 80.6595 84.4904 80.7822Z" fill="#263238"/>
<path d="M65.6674 91.6376L65.9359 93.1298C65.9881 93.42 65.7667 93.6871 65.4718 93.6883C64.06 93.6945 60.4655 93.7049 60.1652 93.6545C59.7907 93.5917 59.8565 93.0556 60.0776 92.7439C60.0776 92.7439 61.1985 92.6501 61.6671 92.31C62.0118 92.0598 62.4574 91.6337 62.6688 91.4257C62.7488 91.3472 62.8548 91.3031 62.9667 91.3003L65.1891 91.2475C65.4232 91.2417 65.6259 91.4073 65.6674 91.6376Z" fill="#263238"/>
<path d="M70.8019 34.6024L73.8995 32.4274C73.8995 32.4274 73.0757 29.132 71.8563 28.9674C70.6371 28.8026 64.5737 27.6492 60.7181 28.9674C60.7181 28.9674 59.3342 29.3628 58.9058 33.2514L60.5533 33.7786C60.5533 33.7786 61.1465 41.0612 61.5089 42.1816H70.3072C70.3077 42.1816 70.4065 35.9206 70.8019 34.6024Z" fill="#E73848"/>
<path d="M71.4712 34.1326C71.4712 34.1326 72.6437 37.4838 72.8536 39.2845C72.8536 39.2845 70.0626 38.1741 69.3426 37.664L68.7985 35.7032L66.9417 34.8129L66.4028 36.2835L67.932 38.2041C67.932 38.2041 72.1326 42.1354 74.2637 41.2352C76.3948 40.3349 73.4208 32.7637 73.4208 32.7637L71.4712 34.1326Z" fill="#B97964"/>
<path d="M63.5898 19.4606C63.5898 19.4606 62.5168 21.6063 62.6064 23.3497C62.6957 25.093 63.5674 25.8084 65.2438 26.0543C65.2438 26.0543 65.9591 28.2894 64.0815 28.513C63.9388 28.5299 63.8871 29.0995 63.8995 29.1909C63.9482 29.554 64.3076 29.7516 64.6325 29.8362C64.9805 29.927 65.3508 29.9434 65.7087 29.9551C66.5124 29.9812 67.1743 29.6568 67.7105 29.0643C67.7517 29.0189 68.1274 28.5356 68.1274 28.5356C68.1274 28.5356 67.2329 28.0918 67.5464 25.1829C67.5464 25.1829 68.1498 24.8476 68.4851 24.0205C68.4851 24.0205 69.0661 23.7299 69.2004 23.1489C69.3344 22.5678 68.8204 21.7631 67.8817 22.5678C67.8817 22.5678 66.116 21.6738 65.4453 18.5444C65.4453 18.5444 64.7521 19.3265 63.5898 19.4606Z" fill="#B97964"/>
<path d="M64.0945 22.875L64.2474 21.7276L63.4346 22.6266C63.4346 22.6266 63.6929 22.9227 64.0945 22.875Z" fill="#A24E3F"/>
<path d="M64.5659 23.7143C64.5659 23.7143 65.423 23.8453 65.834 23.2955" stroke="#222221" stroke-width="0.75" stroke-miterlimit="10" stroke-linecap="round" stroke-linejoin="round"/>
<path d="M65.4233 20.121C65.4233 20.121 65.9684 19.9105 66.5326 20.4173" stroke="#222221" stroke-miterlimit="10" stroke-linecap="round" stroke-linejoin="round"/>
<path d="M63.9412 19.8723C63.9412 19.8723 63.4535 19.7953 63.2241 20.0775" stroke="#222221" stroke-miterlimit="10" stroke-linecap="round" stroke-linejoin="round"/>
<path d="M65.7682 21.6303C65.7456 21.8033 65.6341 21.9311 65.5192 21.9162C65.404 21.9013 65.3291 21.7489 65.3517 21.5762C65.374 21.4032 65.4857 21.2754 65.6006 21.2902C65.7155 21.3054 65.7905 21.4575 65.7682 21.6303Z" fill="#222221"/>
<path d="M63.7911 21.2508C63.7688 21.4238 63.6571 21.5516 63.5422 21.5367C63.427 21.5218 63.352 21.3694 63.3746 21.1967C63.397 21.0237 63.5086 20.8958 63.6236 20.9107C63.7385 20.9256 63.8137 21.0778 63.7911 21.2508Z" fill="#222221"/>
<path d="M65.6007 21.2903L65.209 21.1195C65.209 21.1195 65.2897 21.4729 65.6007 21.2903Z" fill="#222221"/>
<path d="M63.6553 20.9232L63.2637 20.7524C63.2637 20.7524 63.3443 21.1059 63.6553 20.9232Z" fill="#222221"/>
<path d="M61.2036 41.7944V42.8292L70.7326 42.9098L70.4787 41.6772L61.2036 41.7944Z" fill="#E73848"/>
<path opacity="0.4" d="M61.2036 41.7944V42.8292L70.7326 42.9098L70.4787 41.6772L61.2036 41.7944Z" fill="white"/>
<path d="M61.3194 36.7704L56.0791 55.0052C55.709 56.2941 54.596 57.1668 53.3434 57.2916C52.9539 57.3296 52.5494 57.2974 52.1473 57.1824L42.1181 54.3003C40.4321 53.8143 39.4571 52.0541 39.9409 50.3685L45.1832 32.1308C45.4649 31.1553 46.1713 30.4169 47.0477 30.0635C47.6818 29.8061 48.4049 29.7515 49.1157 29.9558L59.1441 32.8354C60.8302 33.3216 61.8049 35.0819 61.3194 36.7704Z" fill="#E73848"/>
<path opacity="0.2" d="M61.3194 36.7704L56.0791 55.0052C55.709 56.2941 54.596 57.1668 53.3434 57.2916C52.9539 57.3296 52.5494 57.2974 52.1473 57.1824L42.1181 54.3003C40.4321 53.8143 39.4571 52.0541 39.9409 50.3685L45.1832 32.1308C45.4649 31.1553 46.1713 30.4169 47.0477 30.0635C47.6818 29.8061 48.4049 29.7515 49.1157 29.9558L59.1441 32.8354C60.8302 33.3216 61.8049 35.0819 61.3194 36.7704Z" fill="black"/>
<path d="M60.4474 36.9874L55.2071 55.2222C54.9259 56.2001 54.217 56.939 53.3434 57.2919C52.9539 57.3299 52.5494 57.2976 52.1473 57.1827L42.1181 54.3006C40.4321 53.8146 39.4571 52.0543 39.9409 50.3688L45.1832 32.131C45.4649 31.1556 46.1713 30.4172 47.0477 30.0637C47.4371 30.0258 47.8417 30.058 48.2438 30.173L58.2722 33.0526C59.9582 33.5386 60.9329 35.2989 60.4474 36.9874Z" fill="#E73848"/>
<path opacity="0.5" d="M60.4474 36.9874L55.2071 55.2222C54.9259 56.2001 54.217 56.939 53.3434 57.2919C52.9539 57.3299 52.5494 57.2976 52.1473 57.1827L42.1181 54.3006C40.4321 53.8146 39.4571 52.0543 39.9409 50.3688L45.1832 32.131C45.4649 31.1556 46.1713 30.4172 47.0477 30.0637C47.4371 30.0258 47.8417 30.058 48.2438 30.173L58.2722 33.0526C59.9582 33.5386 60.9329 35.2989 60.4474 36.9874Z" fill="#FAFAFA"/>
<path d="M56.3825 34.0232L57.0389 35.1676L56.6424 35.3971L56.214 34.652L55.4718 35.0834L55.2431 34.6864L56.3825 34.0232Z" fill="white"/>
<path d="M55.8678 38.2888L56.0966 38.6858L54.9559 39.3487L54.3007 38.2046L54.6976 37.9739L55.1244 38.7198L55.8678 38.2888Z" fill="white"/>
<path d="M54.5593 35.0828L55.4428 36.6251L53.9065 37.519L53.0217 35.9764L54.5593 35.0828Z" fill="white"/>
<path d="M57.4328 35.8529L58.3163 37.3952L56.78 38.2891L55.8952 36.7465L57.4328 35.8529Z" fill="white"/>
<path d="M46.3578 38.5328L45.2847 38.2304L41.4252 51.9277L42.4983 52.2301L46.3578 38.5328Z" fill="#FAFAFA"/>
<path d="M44.0341 52.6698L42.9624 52.3618L46.821 38.6672L47.8927 38.9752L44.0341 52.6698Z" fill="#FAFAFA"/>
<path d="M45.594 53.1181L44.5225 52.8101L48.381 39.1155L49.4528 39.4235L45.594 53.1181Z" fill="#FAFAFA"/>
<path opacity="0.5" d="M55.6996 41.2161L54.6265 40.9138L50.767 54.6111L51.8401 54.9135L55.6996 41.2161Z" fill="black"/>
</g>
<defs>
<clipPath id="clip0_4645_253713">
<rect width="100" height="100" fill="white"/>
</clipPath>
</defs>
</svg>
