<svg width="16" height="18" viewBox="0 0 16 18" fill="none" xmlns="http://www.w3.org/2000/svg">
<path d="M14.8837 4.51205L10.5605 0.188839C10.44 0.0683036 10.2772 0 10.1065 0H1.57254C1.21696 0 0.929688 0.287277 0.929688 0.642857V17.3571C0.929688 17.7127 1.21696 18 1.57254 18H14.4297C14.7853 18 15.0725 17.7127 15.0725 17.3571V4.96808C15.0725 4.79732 15.0042 4.63259 14.8837 4.51205ZM13.59 5.26339H9.80915V1.48259L13.59 5.26339ZM13.6261 16.5536H2.37612V1.44643H8.44308V5.78571C8.44308 6.00949 8.53198 6.2241 8.69021 6.38234C8.84844 6.54057 9.06306 6.62946 9.28683 6.62946H13.6261V16.5536ZM7.8404 11.1295H4.14397C4.05558 11.1295 3.98326 11.2018 3.98326 11.2902V12.2545C3.98326 12.3429 4.05558 12.4152 4.14397 12.4152H7.8404C7.9288 12.4152 8.00112 12.3429 8.00112 12.2545V11.2902C8.00112 11.2018 7.9288 11.1295 7.8404 11.1295ZM3.98326 8.55804V9.52232C3.98326 9.61071 4.05558 9.68304 4.14397 9.68304H11.8583C11.9467 9.68304 12.019 9.61071 12.019 9.52232V8.55804C12.019 8.46964 11.9467 8.39732 11.8583 8.39732H4.14397C4.05558 8.39732 3.98326 8.46964 3.98326 8.55804Z" fill="#E73848"/>
</svg>
