<svg width="17" height="16" viewBox="0 0 17 16" fill="none" xmlns="http://www.w3.org/2000/svg">
<path d="M15.6318 2.62631L12.0746 3.05488C11.9568 3.06917 11.9068 3.21381 11.9907 3.29774L13.0496 4.35667L9.01392 8.39238L7.19606 6.57631C7.08356 6.46381 6.9032 6.4656 6.79249 6.57631L1.04785 12.3227C1.02126 12.3496 1.00635 12.3858 1.00635 12.4236C1.00635 12.4614 1.02126 12.4977 1.04785 12.5245L1.85142 13.3317C1.90678 13.387 1.99785 13.387 2.05321 13.3317L6.99428 8.39238L8.81035 10.2085C8.92285 10.3192 9.1032 10.3192 9.21392 10.2085L14.0603 5.3656L15.1193 6.42453C15.1383 6.44341 15.1621 6.45659 15.1882 6.46256C15.2143 6.46854 15.2416 6.46707 15.2669 6.45833C15.2922 6.44958 15.3145 6.43391 15.3314 6.4131C15.3482 6.39229 15.3589 6.36717 15.3621 6.3406L15.7907 2.78346C15.8032 2.69238 15.7246 2.61381 15.6318 2.62631Z" fill="#52C41A"/>
</svg>
