<svg width="16" height="16" viewBox="0 0 16 16" fill="none" xmlns="http://www.w3.org/2000/svg">
<g clip-path="url(#clip0_3699_8610)">
<path d="M15.1003 14.1161L10.4628 9.47858C11.1824 8.54822 11.5717 7.41072 11.5717 6.21429C11.5717 4.78215 11.0128 3.43929 10.0021 2.42679C8.99135 1.41429 7.64492 0.857147 6.21456 0.857147C4.78421 0.857147 3.43778 1.41608 2.42706 2.42679C1.41456 3.4375 0.857422 4.78215 0.857422 6.21429C0.857422 7.64465 1.41635 8.99108 2.42706 10.0018C3.43778 11.0143 4.78242 11.5714 6.21456 11.5714C7.41099 11.5714 8.54671 11.1821 9.47707 10.4643L14.1146 15.1C14.1282 15.1136 14.1443 15.1244 14.1621 15.1318C14.1799 15.1391 14.1989 15.1429 14.2181 15.1429C14.2374 15.1429 14.2564 15.1391 14.2742 15.1318C14.292 15.1244 14.3081 15.1136 14.3217 15.1L15.1003 14.3232C15.1139 14.3096 15.1247 14.2935 15.132 14.2757C15.1394 14.2579 15.1432 14.2389 15.1432 14.2196C15.1432 14.2004 15.1394 14.1814 15.132 14.1636C15.1247 14.1458 15.1139 14.1297 15.1003 14.1161ZM9.04314 9.04286C8.28599 9.79822 7.28242 10.2143 6.21456 10.2143C5.14671 10.2143 4.14314 9.79822 3.38599 9.04286C2.63064 8.28572 2.21456 7.28215 2.21456 6.21429C2.21456 5.14643 2.63064 4.14108 3.38599 3.38572C4.14314 2.63036 5.14671 2.21429 6.21456 2.21429C7.28242 2.21429 8.28778 2.62858 9.04314 3.38572C9.79849 4.14286 10.2146 5.14643 10.2146 6.21429C10.2146 7.28215 9.79849 8.28751 9.04314 9.04286Z" fill="black" fill-opacity="0.45"/>
</g>
<defs>
<clipPath id="clip0_3699_8610">
<rect width="16" height="16" fill="white"/>
</clipPath>
</defs>
</svg>
