<svg width="16" height="16" viewBox="0 0 16 16" fill="none" xmlns="http://www.w3.org/2000/svg">
<path d="M15.1 14.1161L10.4625 9.47861C11.1822 8.54825 11.5715 7.41075 11.5715 6.21432C11.5715 4.78218 11.0125 3.43932 10.0018 2.42682C8.99111 1.41432 7.64468 0.857178 6.21432 0.857178C4.78396 0.857178 3.43753 1.41611 2.42682 2.42682C1.41432 3.43753 0.857178 4.78218 0.857178 6.21432C0.857178 7.64468 1.41611 8.99111 2.42682 10.0018C3.43753 11.0143 4.78218 11.5715 6.21432 11.5715C7.41075 11.5715 8.54646 11.1822 9.47682 10.4643L14.1143 15.1C14.1279 15.1136 14.1441 15.1244 14.1618 15.1318C14.1796 15.1392 14.1987 15.143 14.2179 15.143C14.2371 15.143 14.2562 15.1392 14.2739 15.1318C14.2917 15.1244 14.3079 15.1136 14.3215 15.1L15.1 14.3232C15.1136 14.3097 15.1244 14.2935 15.1318 14.2757C15.1392 14.258 15.143 14.2389 15.143 14.2197C15.143 14.2004 15.1392 14.1814 15.1318 14.1636C15.1244 14.1459 15.1136 14.1297 15.1 14.1161ZM9.04289 9.04289C8.28575 9.79825 7.28218 10.2143 6.21432 10.2143C5.14646 10.2143 4.14289 9.79825 3.38575 9.04289C2.63039 8.28575 2.21432 7.28218 2.21432 6.21432C2.21432 5.14646 2.63039 4.14111 3.38575 3.38575C4.14289 2.63039 5.14646 2.21432 6.21432 2.21432C7.28218 2.21432 8.28754 2.62861 9.04289 3.38575C9.79825 4.14289 10.2143 5.14646 10.2143 6.21432C10.2143 7.28218 9.79825 8.28754 9.04289 9.04289Z" fill="black" fill-opacity="0.45"/>
</svg>
