<svg width="32" height="26" viewBox="0 0 32 26" fill="none" xmlns="http://www.w3.org/2000/svg">
<path fill-rule="evenodd" clip-rule="evenodd" d="M-0.0474854 0.964355H32.0476V25.0357H-0.0474854V0.964355Z" fill="#F7FCFF"/>
<path fill-rule="evenodd" clip-rule="evenodd" d="M-0.0474854 15.6746V17.6805H32.0476V15.6746H-0.0474854Z" fill="#E31D1C"/>
<path fill-rule="evenodd" clip-rule="evenodd" d="M-0.0474854 19.3521V21.358H32.0476V19.3521H-0.0474854Z" fill="#E31D1C"/>
<path fill-rule="evenodd" clip-rule="evenodd" d="M-0.0474854 8.31934V10.3253H32.0476V8.31934H-0.0474854Z" fill="#E31D1C"/>
<path fill-rule="evenodd" clip-rule="evenodd" d="M-0.0474854 23.0298V25.0357H32.0476V23.0298H-0.0474854Z" fill="#E31D1C"/>
<path fill-rule="evenodd" clip-rule="evenodd" d="M-0.0474854 11.9971V14.003H32.0476V11.9971H-0.0474854Z" fill="#E31D1C"/>
<path fill-rule="evenodd" clip-rule="evenodd" d="M-0.0474854 0.964355V2.9703H32.0476V0.964355H-0.0474854Z" fill="#E31D1C"/>
<path fill-rule="evenodd" clip-rule="evenodd" d="M-0.0474854 4.64185V6.64779H32.0476V4.64185H-0.0474854Z" fill="#E31D1C"/>
<rect y="0.764648" width="19.7647" height="13.1765" fill="#2E42A5"/>
<path fill-rule="evenodd" clip-rule="evenodd" d="M1.67961 3.9118L0.951576 4.4222L1.19737 3.5139L0.550737 2.93828H1.39533L1.67859 2.19702L2.01075 2.93828H2.73074L2.16503 3.5139L2.38404 4.4222L1.67961 3.9118ZM5.69142 3.91182L4.96338 4.42222L5.20917 3.51392L4.56254 2.93831H5.40713L5.6904 2.19704L6.02255 2.93831H6.74254L6.17683 3.51392L6.39584 4.42222L5.69142 3.91182ZM8.97526 4.42222L9.7033 3.91182L10.4077 4.42222L10.1887 3.51392L10.7544 2.93831H10.0344L9.70228 2.19704L9.41901 2.93831H8.57443L9.22106 3.51392L8.97526 4.42222ZM13.7152 3.91182L12.9871 4.42222L13.2329 3.51392L12.5863 2.93831H13.4309L13.7142 2.19704L14.0463 2.93831H14.7663L14.2006 3.51392L14.4196 4.42222L13.7152 3.91182ZM0.951498 8.43411L1.67953 7.92371L2.38396 8.43411L2.16495 7.52581L2.73066 6.95019H2.01067L1.67852 6.20893L1.39525 6.95019H0.550659L1.19729 7.52581L0.951498 8.43411ZM5.69142 7.92371L4.96338 8.43411L5.20917 7.52581L4.56254 6.95019H5.40713L5.6904 6.20893L6.02255 6.95019H6.74254L6.17683 7.52581L6.39584 8.43411L5.69142 7.92371ZM8.97526 8.43411L9.7033 7.92371L10.4077 8.43411L10.1887 7.52581L10.7544 6.95019H10.0344L9.70228 6.20893L9.41901 6.95019H8.57443L9.22106 7.52581L8.97526 8.43411ZM13.7152 7.92371L12.9871 8.43411L13.2329 7.52581L12.5863 6.95019H13.4309L13.7142 6.20893L14.0463 6.95019H14.7663L14.2006 7.52581L14.4196 8.43411L13.7152 7.92371ZM0.951498 12.446L1.67953 11.9356L2.38396 12.446L2.16495 11.5377L2.73066 10.9621H2.01067L1.67852 10.2208L1.39525 10.9621H0.550659L1.19729 11.5377L0.951498 12.446ZM5.69142 11.9356L4.96338 12.446L5.20917 11.5377L4.56254 10.9621H5.40713L5.6904 10.2208L6.02255 10.9621H6.74254L6.17683 11.5377L6.39584 12.446L5.69142 11.9356ZM8.97526 12.446L9.7033 11.9356L10.4077 12.446L10.1887 11.5377L10.7544 10.9621H10.0344L9.70228 10.2208L9.41901 10.9621H8.57443L9.22106 11.5377L8.97526 12.446ZM13.7152 11.9356L12.9871 12.446L13.2329 11.5377L12.5863 10.9621H13.4309L13.7142 10.2208L14.0463 10.9621H14.7663L14.2006 11.5377L14.4196 12.446L13.7152 11.9356ZM16.999 4.42222L17.7271 3.91182L18.4315 4.42222L18.2125 3.51392L18.7782 2.93831H18.0582L17.726 2.19704L17.4428 2.93831H16.5982L17.2448 3.51392L16.999 4.42222ZM17.7271 7.92371L16.999 8.43411L17.2448 7.52581L16.5982 6.95019H17.4428L17.726 6.20893L18.0582 6.95019H18.7782L18.2125 7.52581L18.4315 8.43411L17.7271 7.92371ZM16.999 12.446L17.7271 11.9356L18.4315 12.446L18.2125 11.5377L18.7782 10.9621H18.0582L17.726 10.2208L17.4428 10.9621H16.5982L17.2448 11.5377L16.999 12.446ZM3.68548 5.91777L2.95744 6.42816L3.20323 5.51986L2.5566 4.94425H3.40119L3.68446 4.20298L4.01661 4.94425H4.7366L4.17089 5.51986L4.3899 6.42816L3.68548 5.91777ZM6.96932 6.42816L7.69736 5.91777L8.40178 6.42816L8.18277 5.51986L8.74849 4.94425H8.0285L7.69634 4.20298L7.41307 4.94425H6.56848L7.21512 5.51986L6.96932 6.42816ZM11.7092 5.91777L10.9812 6.42816L11.227 5.51986L10.5804 4.94425H11.425L11.7082 4.20298L12.0404 4.94425H12.7604L12.1947 5.51986L12.4137 6.42816L11.7092 5.91777ZM2.95744 10.44L3.68548 9.92965L4.3899 10.44L4.17089 9.53175L4.7366 8.95613H4.01661L3.68446 8.21487L3.40119 8.95613H2.5566L3.20323 9.53175L2.95744 10.44ZM7.69736 9.92965L6.96932 10.44L7.21512 9.53175L6.56848 8.95613H7.41307L7.69634 8.21487L8.0285 8.95613H8.74849L8.18277 9.53175L8.40178 10.44L7.69736 9.92965ZM10.9812 10.44L11.7092 9.92965L12.4137 10.44L12.1947 9.53175L12.7604 8.95613H12.0404L11.7082 8.21487L11.425 8.95613H10.5804L11.227 9.53175L10.9812 10.44ZM15.7211 5.91777L14.9931 6.42816L15.2389 5.51986L14.5923 4.94425H15.4368L15.7201 4.20298L16.0523 4.94425H16.7723L16.2065 5.51986L16.4256 6.42816L15.7211 5.91777ZM14.9931 10.44L15.7211 9.92965L16.4256 10.44L16.2065 9.53175L16.7723 8.95613H16.0523L15.7201 8.21487L15.4368 8.95613H14.5923L15.2389 9.53175L14.9931 10.44Z" fill="#F7FCFF"/>
</svg>
