<svg width="32" height="24" viewBox="0 0 32 24" fill="none" xmlns="http://www.w3.org/2000/svg">
<rect width="32" height="24" rx="1.25" fill="white"/>
<path d="M11.528 19.4615L10.8687 17.2692C10.8321 17.1154 10.6856 17 10.5391 17H5.48498C5.33849 17 5.19199 17.1154 5.15537 17.2692L4.45951 19.5385C4.42288 19.6538 4.45951 19.7692 4.49613 19.8462C4.56938 19.9231 4.67925 20 4.78912 20H11.1984C11.3815 20 11.528 19.8462 11.528 19.6538C11.5646 19.5769 11.5646 19.5385 11.528 19.4615Z" fill="#E8E8E8"/>
<path d="M4.45957 19.493C4.4228 19.6197 4.45957 19.7465 4.49633 19.831C4.56986 19.9155 4.68016 20 4.79046 20H11.2246C11.4084 20 11.5554 19.831 11.5554 19.6197C11.5554 19.5352 11.5554 19.493 11.5187 19.4085L10.8569 17" fill="#C2C2C2"/>
<path d="M4.45957 19.1429C4.4228 19.3571 4.45957 19.5714 4.49633 19.7143C4.56986 19.8571 4.68016 20 4.79046 20H11.2246C11.4084 20 11.5554 19.7143 11.5554 19.3571C11.5554 19.2143 11.5554 19.1429 11.5187 19" fill="#B4B4B4"/>
<path d="M19.5899 19.4084L18.9191 17.2025C18.8818 17.0477 18.7328 16.9316 18.5837 16.9316H13.441C13.2919 16.9316 13.1428 17.0477 13.1056 17.2025L12.3975 19.4471C12.3603 19.5632 12.3975 19.6793 12.4348 19.7567C12.5093 19.8341 12.6211 19.9115 12.7329 19.9115H19.2545C19.4408 19.9115 19.5899 19.7567 19.5899 19.5632C19.6272 19.5245 19.6272 19.4858 19.5899 19.4084Z" fill="#E8E8E8"/>
<path d="M12.4596 19.493C12.4228 19.6197 12.4596 19.7465 12.4963 19.831C12.5699 19.9155 12.6802 20 12.7905 20H19.2245C19.4084 20 19.5554 19.831 19.5554 19.6197C19.5554 19.5352 19.5554 19.493 19.5187 19.4085L18.8569 17" fill="#C2C2C2"/>
<path d="M12.4596 19.1429C12.4228 19.3571 12.4596 19.5714 12.4963 19.7143C12.5699 19.8571 12.6802 20 12.7905 20H19.2245C19.4084 20 19.5554 19.7143 19.5554 19.3571C19.5554 19.2143 19.5554 19.1429 19.5187 19" fill="#B4B4B4"/>
<path d="M27.5276 19.4084L26.8568 17.2025C26.8196 17.0477 26.6705 16.9316 26.5214 16.9316H21.3787C21.2296 16.9316 21.0806 17.0477 21.0433 17.2025L20.3353 19.4471C20.298 19.5632 20.3353 19.6793 20.3725 19.7567C20.4471 19.8341 20.5589 19.9115 20.6707 19.9115H27.1922C27.3786 19.9115 27.5276 19.7567 27.5276 19.5632C27.5649 19.5245 27.5649 19.4858 27.5276 19.4084Z" fill="#E8E8E8"/>
<path d="M20.4596 19.493C20.4228 19.6197 20.4596 19.7465 20.4963 19.831C20.5699 19.9155 20.6802 20 20.7905 20H27.2245C27.4084 20 27.5554 19.831 27.5554 19.6197C27.5554 19.5352 27.5554 19.493 27.5187 19.4085L26.8569 17" fill="#C2C2C2"/>
<path d="M20.4596 19.1429C20.4228 19.3571 20.4596 19.5714 20.4963 19.7143C20.5699 19.8571 20.6802 20 20.7905 20H27.2245C27.4084 20 27.5554 19.7143 27.5554 19.3571C27.5554 19.2143 27.5554 19.1429 27.5187 19" fill="#B4B4B4"/>
<path d="M15.6394 15.4226L14.9687 13.2167C14.9314 13.0619 14.7823 12.9458 14.6333 12.9458H9.45326C9.3042 12.9458 9.15513 13.0619 9.11787 13.2167L8.44708 15.5C8.40981 15.6161 8.44708 15.7322 8.48434 15.8096C8.55888 15.887 8.67067 15.9644 8.78247 15.9644H15.304C15.4904 15.9644 15.6394 15.8096 15.6394 15.6161C15.6767 15.5387 15.6394 15.5 15.6394 15.4226Z" fill="#E8E8E8"/>
<path d="M8.01713 15.493C7.97577 15.6197 8.01713 15.7465 8.05849 15.831C8.14122 15.9155 8.2653 16 8.38939 16H15.6277C15.8346 16 16 15.831 16 15.6197C16 15.5352 16 15.493 15.9586 15.4085L15.2141 13" fill="#C2C2C2"/>
<path d="M8.01713 15.1429C7.97577 15.3571 8.01713 15.5714 8.05849 15.7143C8.14122 15.8571 8.2653 16 8.38939 16H15.6277C15.8346 16 16 15.7143 16 15.3571C16 15.2143 16 15.1429 15.9586 15" fill="#B4B4B4"/>
<path d="M23.5399 15.4226L22.8691 13.2167C22.8319 13.0619 22.6828 12.9458 22.5337 12.9458H17.391C17.2419 12.9458 17.0929 13.0619 17.0556 13.2167L16.3848 15.5C16.3476 15.6161 16.3848 15.7322 16.4221 15.8096C16.4966 15.887 16.6084 15.9644 16.7202 15.9644H23.2418C23.4281 15.9644 23.5772 15.8096 23.5772 15.6161C23.6145 15.5387 23.5772 15.5 23.5399 15.4226Z" fill="#E8E8E8"/>
<path d="M16.0171 15.493C15.9758 15.6197 16.0171 15.7465 16.0585 15.831C16.1412 15.9155 16.2653 16 16.3894 16H23.6277C23.8346 16 24 15.831 24 15.6197C24 15.5352 24 15.493 23.9586 15.4085L23.2141 13" fill="#C2C2C2"/>
<path d="M16.0171 15.1429C15.9758 15.3571 16.0171 15.5714 16.0585 15.7143C16.1412 15.8571 16.2653 16 16.3894 16H23.6277C23.8346 16 24 15.7143 24 15.3571C24 15.2143 24 15.1429 23.9586 15" fill="#B4B4B4"/>
<path d="M19.5899 11.5524L18.9191 9.34658C18.8818 9.19178 18.7328 9.07568 18.5837 9.07568H13.441C13.2919 9.07568 13.1428 9.19178 13.1056 9.34658L12.3975 11.6298C12.3603 11.7459 12.3975 11.862 12.4348 11.9394C12.5093 12.0168 12.6211 12.0942 12.7329 12.0942H19.2545C19.4408 12.0942 19.5899 11.9394 19.5899 11.7459C19.6272 11.6685 19.6272 11.6298 19.5899 11.5524Z" fill="#E8E8E8"/>
<path d="M12.4596 11.493C12.4228 11.6197 12.4596 11.7465 12.4963 11.831C12.5699 11.9155 12.6802 12 12.7905 12H19.2245C19.4084 12 19.5554 11.831 19.5554 11.6197C19.5554 11.5352 19.5554 11.493 19.5187 11.4085L18.8569 9" fill="#C2C2C2"/>
<path d="M9.51558 6.83116C9.51558 8.34044 9.41238 9.57882 9.30918 9.57882C9.20598 9.57882 9.10278 8.34044 9.10278 6.83116C9.10278 5.32188 9.20598 4.0835 9.30918 4.0835C9.46398 4.0835 9.51558 5.32188 9.51558 6.83116Z" fill="#CFCFCF"/>
<path d="M9.36081 6.94723C7.34844 6.94723 5.69727 6.86983 5.69727 6.79243C5.69727 6.71503 7.34844 6.63763 9.36081 6.63763C11.3732 6.63763 13.0244 6.71503 13.0244 6.79243C13.0244 6.90853 11.3732 6.94723 9.36081 6.94723Z" fill="#CFCFCF"/>
<path d="M21.8883 5.1422C22.6568 4.57002 23.2473 4.08158 23.2071 4.05124C23.167 4.02091 22.5114 4.46016 21.7429 5.03234C20.9743 5.60452 20.3839 6.09295 20.424 6.12329C20.4642 6.15363 21.1197 5.71438 21.8883 5.1422Z" fill="#C2C2C2"/>
<path d="M21.7447 5.16714C20.9707 4.58665 20.4031 4.12226 20.4547 4.08356C20.5063 4.04486 21.1255 4.50925 21.8995 5.05104C22.6734 5.63153 23.241 6.09593 23.1894 6.13463C23.1378 6.17333 22.5186 5.74763 21.7447 5.16714Z" fill="#C2C2C2"/>
<path d="M26.4915 12.52C26.52 12.52 26.5431 12.0348 26.5431 11.4364C26.5431 10.8379 26.52 10.3528 26.4915 10.3528C26.463 10.3528 26.4399 10.8379 26.4399 11.4364C26.4399 12.0348 26.463 12.52 26.4915 12.52Z" fill="#B4B4B4"/>
<path d="M26.4917 11.5137C25.7177 11.5137 25.0469 11.475 25.0469 11.475C25.0469 11.4363 25.7177 11.4363 26.4917 11.4363C27.2656 11.4363 27.9364 11.475 27.9364 11.475C27.9364 11.475 27.3172 11.5137 26.4917 11.5137Z" fill="#B4B4B4"/>
</svg>
