<svg width="18" height="21" viewBox="0 0 18 21" fill="none" xmlns="http://www.w3.org/2000/svg">
<path fill-rule="evenodd" clip-rule="evenodd" d="M12.3564 11.4019L14.8564 7.0718L15.7224 7.5718C16.1987 7.8468 16.8134 7.68209 17.0884 7.20578C17.3634 6.72946 17.1987 6.11475 16.7224 5.83975L8.06213 0.839752C7.58581 0.564752 6.9711 0.729464 6.6961 1.20578C6.4211 1.68209 6.58581 2.2968 7.06213 2.5718L7.92815 3.0718L5.42815 7.40193C4.59815 8.83953 2.76768 9.33001 1.33008 8.50001L0.330078 10.2321L5.50025 13.2171L2.00025 19.2792L2.36628 20.6453L3.7323 20.2792L7.2323 14.2171L12.4544 17.2321L13.4544 15.5C12.0168 14.67 11.5264 12.8395 12.3564 11.4019Z" fill="#E81D23"/>
</svg>
