<svg width="24" height="24" viewBox="0 0 24 24" fill="none" xmlns="http://www.w3.org/2000/svg">
<g clip-path="url(#clip0_2443_10503)">
<path d="M12 0C5.37321 0 0 5.37321 0 12C0 18.6268 5.37321 24 12 24C18.6268 24 24 18.6268 24 12C24 5.37321 18.6268 0 12 0ZM12 21.9643C6.49821 21.9643 2.03571 17.5018 2.03571 12C2.03571 6.49821 6.49821 2.03571 12 2.03571C17.5018 2.03571 21.9643 6.49821 21.9643 12C21.9643 17.5018 17.5018 21.9643 12 21.9643ZM15.1527 6.19821C14.7268 6.10446 14.2313 6.05357 13.6714 6.05357C10.8134 6.05357 8.87946 7.54554 8.35179 10.0688H7.5C7.38214 10.0688 7.28571 10.1652 7.28571 10.283V11.0116C7.28571 11.1295 7.38214 11.2259 7.5 11.2259H8.20714C8.19911 11.3357 8.19911 11.4509 8.19911 11.5688V12.5571H7.5C7.38214 12.5571 7.28571 12.6536 7.28571 12.7714V13.5C7.28571 13.6179 7.38214 13.7143 7.5 13.7143H8.30893C8.76964 16.3714 10.7304 17.9464 13.6714 17.9464C14.2313 17.9464 14.7268 17.9009 15.1527 17.8098C15.2518 17.7884 15.3241 17.7027 15.3241 17.6009V16.4545C15.3241 16.3205 15.2009 16.2188 15.0696 16.2455C14.6759 16.3205 14.2152 16.3554 13.6821 16.3554C11.8473 16.3554 10.6152 15.375 10.2054 13.7143H13.7036C13.8214 13.7143 13.9179 13.6179 13.9179 13.5V12.7714C13.9179 12.6536 13.8214 12.5571 13.7036 12.5571H10.05V11.5929C10.05 11.467 10.05 11.3411 10.058 11.2232H13.6982C13.8161 11.2232 13.9125 11.1268 13.9125 11.0089V10.2804C13.9125 10.1625 13.8161 10.0661 13.6982 10.0661H10.2616C10.7223 8.54196 11.9304 7.64464 13.6795 7.64464C14.2125 7.64464 14.6732 7.68482 15.0643 7.7625C15.0953 7.76884 15.1274 7.76821 15.1582 7.76066C15.189 7.75312 15.2177 7.73884 15.2423 7.71885C15.2669 7.69887 15.2867 7.67368 15.3004 7.6451C15.3141 7.61652 15.3213 7.58526 15.3214 7.55357V6.40714C15.3214 6.30536 15.2518 6.21964 15.1527 6.19821Z" fill="black" fill-opacity="0.45"/>
</g>
<defs>
<clipPath id="clip0_2443_10503">
<rect width="24" height="24" fill="white"/>
</clipPath>
</defs>
</svg>
