<svg width="45" height="35" viewBox="0 0 45 35" fill="none" xmlns="http://www.w3.org/2000/svg">
<path d="M16.748 2.84033H28.7745V23.7207H16.748V2.84033Z" fill="#FF5F00"/>
<path d="M8.61599 34.231V32.0176C8.61599 31.1689 8.08137 30.6157 7.16499 30.6157C6.70689 30.6157 6.21052 30.7632 5.86686 31.2429C5.59972 30.837 5.21797 30.6157 4.64526 30.6157C4.26333 30.6157 3.88175 30.7263 3.57618 31.1321V30.6895H2.77441V34.231H3.57618V32.2757C3.57618 31.6487 3.91984 31.3534 4.45447 31.3534C4.98875 31.3534 5.25623 31.6855 5.25623 32.2757V34.231H6.058V32.2757C6.058 31.6487 6.43958 31.3534 6.93594 31.3534C7.47057 31.3534 7.7377 31.6855 7.7377 32.2757V34.231H8.61599ZM20.4896 30.6895H19.1916V29.6197H18.3899V30.6895H17.6645V31.3902H18.3897V33.0136C18.3897 33.8253 18.7334 34.3047 19.6497 34.3047C19.9934 34.3047 20.375 34.1942 20.6425 34.0466L20.4132 33.3825C20.1842 33.53 19.9171 33.567 19.7261 33.567C19.3443 33.567 19.1916 33.3457 19.1916 32.9766V31.3902H20.4896V30.6895ZM27.2856 30.6155C26.8275 30.6155 26.5221 30.837 26.3312 31.1321V30.6895H25.5294V34.231H26.3312V32.2389C26.3312 31.6487 26.5983 31.3166 27.0947 31.3166C27.2474 31.3166 27.4383 31.3536 27.591 31.3904L27.8201 30.6527C27.6674 30.6157 27.4383 30.6157 27.2856 30.6157V30.6155ZM17.0154 30.9846C16.6335 30.7263 16.099 30.6157 15.5263 30.6157C14.6101 30.6157 13.9993 31.0583 13.9993 31.7593C13.9993 32.3496 14.4574 32.6815 15.2592 32.7923L15.6409 32.8293C16.0609 32.9029 16.29 33.0136 16.29 33.1981C16.29 33.4563 15.9846 33.6408 15.45 33.6408C14.9155 33.6408 14.4955 33.4563 14.2282 33.2719L13.8464 33.8621C14.2664 34.1572 14.8392 34.3047 15.4117 34.3047C16.4808 34.3047 17.0917 33.8253 17.0917 33.1612C17.0917 32.534 16.5954 32.2019 15.8317 32.0913L15.45 32.0544C15.1063 32.0174 14.8391 31.9438 14.8391 31.7225C14.8391 31.4642 15.1063 31.3166 15.5263 31.3166C15.9846 31.3166 16.4427 31.501 16.6717 31.6117L17.0154 30.9846ZM38.3196 30.6157C37.8613 30.6157 37.5559 30.837 37.3649 31.1321V30.6895H36.5632V34.231H37.3649V32.2389C37.3649 31.6487 37.6322 31.3166 38.1284 31.3166C38.2813 31.3166 38.4723 31.3536 38.625 31.3904L38.854 30.6527C38.7013 30.6157 38.4723 30.6157 38.3196 30.6157ZM28.0874 32.4602C28.0874 33.53 28.8509 34.3047 30.0346 34.3047C30.569 34.3047 30.9508 34.1942 31.3326 33.8991L30.9508 33.2719C30.6454 33.4932 30.34 33.6038 29.9963 33.6038C29.3473 33.6038 28.8892 33.1612 28.8892 32.4602C28.8892 31.7963 29.3473 31.3534 29.9963 31.3166C30.34 31.3166 30.6454 31.4272 30.9508 31.6487L31.3326 31.0215C30.9508 30.7263 30.569 30.6157 30.0346 30.6157C28.8509 30.6157 28.0874 31.3904 28.0874 32.4602ZM35.4943 32.4602V30.6895H34.6925V31.1321C34.4252 30.8002 34.0434 30.6157 33.5471 30.6157C32.5162 30.6157 31.7145 31.3904 31.7145 32.4602C31.7145 33.53 32.5162 34.3047 33.5471 34.3047C34.0815 34.3047 34.4634 34.1204 34.6925 33.7883V34.231H35.4943V32.4602ZM32.5543 32.4602C32.5543 31.8331 32.9743 31.3166 33.6615 31.3166C34.3106 31.3166 34.7688 31.7963 34.7688 32.4602C34.7688 33.0874 34.3106 33.6038 33.6615 33.6038C32.9743 33.5668 32.5543 33.0874 32.5543 32.4602ZM22.9714 30.6157C21.9023 30.6157 21.1387 31.3534 21.1387 32.4602C21.1387 33.567 21.9022 34.3047 23.0095 34.3047C23.544 34.3047 24.0786 34.1572 24.4986 33.8253L24.1167 33.2719C23.8113 33.4932 23.4295 33.6408 23.0478 33.6408C22.5514 33.6408 22.055 33.4194 21.9404 32.7921H24.6513V32.4972C24.6896 31.3534 24.0022 30.6157 22.9712 30.6157H22.9714ZM22.9714 31.2797C23.4676 31.2797 23.8114 31.5749 23.8876 32.1283H21.9787C22.055 31.6487 22.3987 31.2797 22.9714 31.2797ZM42.8628 32.4602V29.2876H42.0611V31.1321C41.7938 30.8002 41.412 30.6157 40.9156 30.6157C39.8848 30.6157 39.0831 31.3904 39.0831 32.4602C39.0831 33.53 39.8848 34.3047 40.9156 34.3047C41.4503 34.3047 41.832 34.1204 42.0611 33.7883V34.231H42.8628V32.4602ZM39.9231 32.4602C39.9231 31.8331 40.3429 31.3166 41.0303 31.3166C41.6793 31.3166 42.1374 31.7963 42.1374 32.4602C42.1374 33.0874 41.6793 33.6038 41.0303 33.6038C40.3429 33.5668 39.9231 33.0874 39.9231 32.4602ZM13.121 32.4602V30.6895H12.3192V31.1321C12.0519 30.8002 11.6702 30.6157 11.1738 30.6157C10.143 30.6157 9.34123 31.3904 9.34123 32.4602C9.34123 33.53 10.143 34.3047 11.1738 34.3047C11.7084 34.3047 12.0902 34.1204 12.3192 33.7883V34.231H13.121V32.4602ZM10.143 32.4602C10.143 31.8331 10.563 31.3166 11.2502 31.3166C11.8992 31.3166 12.3575 31.7963 12.3575 32.4602C12.3575 33.0874 11.8992 33.6038 11.2502 33.6038C10.563 33.5668 10.143 33.0874 10.143 32.4602Z" fill="white"/>
<path d="M17.5114 13.2808C17.5114 9.03841 19.5731 5.27543 22.7419 2.84055C20.4131 1.06981 17.4733 0 14.2663 0C6.66829 0 0.521484 5.9394 0.521484 13.2808C0.521484 20.6221 6.66829 26.5617 14.2661 26.5617C17.4732 26.5617 20.4129 25.4919 22.7419 23.721C19.5731 21.3231 17.5114 17.5233 17.5114 13.2808Z" fill="#EB001B"/>
<path d="M45.0006 13.2808C45.0006 20.6221 38.8538 26.5617 31.256 26.5617C28.049 26.5617 25.1092 25.4919 22.7803 23.721C25.9873 21.2863 28.0109 17.5233 28.0109 13.2808C28.0109 9.03841 25.9491 5.27543 22.7803 2.84055C25.109 1.06981 28.049 0 31.256 0C38.8538 0 45.0008 5.97637 45.0008 13.2808H45.0006Z" fill="#F79E1B"/>
</svg>
