<svg width="100" height="100" viewBox="0 0 100 100" fill="none" xmlns="http://www.w3.org/2000/svg">
<g clip-path="url(#clip0_1999_4042)">
<path d="M15.2046 84.6611C13.2746 82.7304 11.4837 80.604 9.88062 78.3441L9.87509 78.3363C3.99352 70.0113 0.882812 60.2029 0.882812 49.9979C0.882812 49.9332 0.883091 49.8537 0.88446 49.765C0.883057 49.6434 0.884335 49.5267 0.887509 49.4156C0.889883 49.0114 0.90006 48.6219 0.9136 48.2505C1.24264 38.9301 4.19614 29.9402 9.45921 22.2648C10.3301 20.9919 11.2596 19.7614 12.2244 18.6087C12.3527 18.4511 12.4982 18.2787 12.6069 18.1498L12.6138 18.1416L12.6245 18.1289L12.6354 18.1163C15.4613 14.8121 18.7024 11.8993 22.2819 9.44636L22.2853 9.44399C30.4725 3.84364 40.0635 0.882324 49.9984 0.882324C56.9402 0.882324 63.6716 2.30863 69.9787 5.12294C71.5807 5.83612 73.1515 6.64095 74.6775 7.52958C75.3044 7.43337 75.9392 7.38485 76.576 7.38485C78.4045 7.38485 80.2379 7.7891 81.8982 8.58352L15.2046 84.6611ZM15.2046 84.6611C16.8894 86.3558 18.7086 87.9342 20.6113 89.3538M15.2046 84.6611L20.6113 89.3538M86.987 13.1146C87.3527 13.0777 87.7245 13.0576 88.1045 13.0576C89.7891 13.0576 91.4761 13.4615 93.0076 14.3629L93.0216 14.3711L93.0354 14.3794C96.256 16.303 97.8751 19.9125 97.6243 23.4194L97.6232 23.4348L97.622 23.4503C97.4209 26.0368 96.3251 27.9621 95.6879 28.9865C95.6873 28.9874 95.6868 28.9883 95.6862 28.9892C95.4382 29.3887 95.1825 29.7711 94.9229 30.1374C97.6797 36.3672 99.1181 43.1377 99.1181 49.9979C99.1181 55.3487 98.2622 60.6086 96.5692 65.646C96.5736 66.8115 96.5493 67.9711 96.4957 69.1093C96.4957 69.1094 96.4957 69.1095 96.4957 69.1096L86.987 13.1146ZM86.987 13.1146C85.7545 11.1803 83.9955 9.58678 81.9008 8.58475L86.987 13.1146ZM20.6113 89.3538C29.1449 95.7382 39.3226 99.1176 49.9984 99.1176C62.6971 99.1176 74.6451 94.3361 83.8034 85.631L20.6067 89.3504C20.6082 89.3515 20.6098 89.3527 20.6113 89.3538Z" fill="#BAE0FF" stroke="url(#paint0_radial_1999_4042)" stroke-width="10"/>
<path d="M91.3687 49.998C91.3687 72.9273 72.7799 91.5162 49.8506 91.5162C40.5366 91.5162 31.9381 88.4462 25.0134 83.2646C23.3917 82.0549 21.8653 80.7281 20.4431 79.2972C18.7911 77.6452 17.2864 75.8543 15.9336 73.9465C11.151 67.1776 8.33691 58.9174 8.33691 49.998C8.33691 49.92 8.33691 49.8376 8.34122 49.7595C8.33691 49.6989 8.33691 49.6382 8.34122 49.5819C8.34122 49.2263 8.34984 48.8751 8.36294 48.5239C8.64918 40.3937 11.2682 32.8532 15.5825 26.5616C16.3153 25.4907 17.0958 24.4543 17.9284 23.4613C18.0411 23.3226 18.1583 23.1838 18.2753 23.0449C20.6559 20.2612 23.4005 17.7939 26.4315 15.7169C33.1004 11.1554 41.1656 8.48438 49.8508 8.48438C55.8649 8.48438 61.5755 9.76344 66.7356 12.066C73.3698 15.019 79.0849 19.6629 83.3298 25.4516C88.3855 32.3284 91.3687 40.8142 91.3687 49.998Z" fill="#E6F4FF"/>
<path d="M48.2973 74.3032C43.3011 71.5045 39.6423 67.8414 38.8335 63.6736C35.6903 47.5302 64.489 31.3358 64.489 31.3358C64.489 31.3358 57.3736 18.158 60.897 16.4604C62.6548 15.6087 64.1831 16.7023 65.589 17.8668C66.994 19.0354 68.2807 20.2757 69.543 19.7108C70.4704 19.2978 71.1861 18.4865 71.8914 17.66C72.5787 16.8612 73.2646 16.0445 74.1283 15.5677C75.4458 14.8406 77.1144 14.7922 78.4703 15.4413C79.8305 16.0914 80.8377 17.4187 81.0996 18.9004C81.1515 19.2046 81.172 19.5121 81.2061 19.8176C81.2373 20.1886 81.2814 20.5619 81.395 20.9166C81.6018 21.5653 82.1397 22.1843 82.8226 22.1817C83.1749 22.1824 83.5087 22.0123 83.8259 21.8615C84.0565 21.7526 84.2864 21.648 84.5191 21.5525C85.2792 21.2378 86.068 20.9853 86.8704 20.8058C87.5821 20.641 88.3744 20.5433 89.0044 20.9145C89.6536 21.3023 89.9485 22.125 89.8947 22.8774C89.8359 23.6333 89.4833 24.3326 89.0835 24.9752C87.7905 27.0584 85.9674 28.7528 84.3588 30.604C83.1531 31.9937 82.0578 33.4822 81.0695 35.0379C80.9855 35.164 80.9059 35.2908 80.8211 35.4211L80.8552 35.4272C80.8552 35.4272 81.8846 37.0271 83.2014 39.9151C85.7444 45.4813 89.361 55.8345 88.7549 68.7523C88.0695 83.3117 62.6546 82.3588 48.2973 74.3032Z" fill="#9254DE"/>
<path d="M63.6957 30.52C63.6957 30.52 74.7177 30.7073 81.7732 34.4654L81.2126 35.9403C81.2126 35.9403 77.8483 34.4086 72.6583 33.4535C67.4681 32.4984 63.1094 32.1401 63.1094 32.1401L63.6957 30.52Z" fill="#91CAFF"/>
<path opacity="0.18" d="M48.2969 74.3034C52.0896 75.5154 56.0449 76.2323 60.026 76.4034C64.9199 76.617 70.151 75.8949 73.911 72.7596C75.7754 71.2046 77.1595 69.1552 78.3401 67.0345C82.1279 60.2052 84.0132 52.3307 83.7201 44.5246C83.6632 42.9778 83.5196 41.4245 83.2008 39.915C85.7438 45.4813 89.3604 55.8344 88.7543 68.7523C88.0691 83.3118 62.6542 82.359 48.2969 74.3034Z" fill="#0A213B"/>
<path d="M74.298 48.8959C72.0963 47.0303 69.2259 46.0006 66.3298 46.1724C64.8649 46.2594 63.3043 46.5982 62.2105 47.6448C61.2723 48.5425 60.8128 49.915 61.2581 51.168C61.6926 52.3907 62.7838 53.2298 63.8795 53.8407C65.1829 54.5675 66.5948 55.0843 67.9178 55.7735C69.0875 56.3827 70.4041 57.2948 70.5637 58.7256C70.696 59.9126 69.7305 60.7632 68.697 61.1177C65.9312 62.0661 62.7714 60.4212 61.3026 58.0505C60.793 57.2281 59.4895 57.9837 60.002 58.8107C61.4742 61.1867 64.0927 62.7796 66.9016 62.8876C69.2381 62.9774 72.1361 61.5705 72.0789 58.8939C72.0077 55.562 68.2878 54.2728 65.7869 53.1109C64.721 52.6156 63.4099 52.0412 62.81 50.964C62.1657 49.8069 63.0578 48.645 64.1096 48.1609C65.5481 47.499 67.3915 47.5416 68.9093 47.864C70.4977 48.2016 71.9925 48.9092 73.2333 49.9605C73.9683 50.5841 75.0389 49.5238 74.298 48.8959Z" fill="#D9F7BE"/>
<path d="M68.8475 42.8953C67.5854 50.3214 65.8578 57.6632 63.6766 64.873C63.3953 65.8027 64.8486 66.2001 65.129 65.2733C67.3102 58.0635 69.0379 50.7217 70.2999 43.2956C70.461 42.3476 69.0098 41.9402 68.8475 42.8953Z" fill="#D9F7BE"/>
<path opacity="0.18" d="M71.8913 17.6602C70.9447 21.3457 69.9014 25.0054 68.77 28.6406C67.9323 25.6832 67.0902 22.7251 66.2524 19.7675C66.074 19.1328 65.8694 18.4712 65.5889 17.8668C66.9939 19.0354 68.2806 20.2757 69.5429 19.7108C70.4702 19.2979 71.1861 18.4867 71.8913 17.6602Z" fill="#0A213B"/>
<path opacity="0.18" d="M84.5192 21.5523C82.2525 24.6347 79.9844 27.7255 77.4561 30.5942C78.0018 29.9729 78.2186 28.2983 78.4916 27.5011C78.8571 26.4297 79.2306 25.364 79.6132 24.2957C80.1402 22.8344 80.6081 21.2836 81.2064 19.8174C81.2376 20.1884 81.2817 20.5617 81.3953 20.9164C81.6021 21.565 82.1399 22.1841 82.8229 22.1815C83.1751 22.1822 83.509 22.0121 83.8262 21.8613C84.0566 21.7524 84.2865 21.6476 84.5192 21.5523Z" fill="#0A213B"/>
<path d="M16.6404 25.7369C16.6404 25.7369 16.419 34.4829 19.9617 36.8079C23.5043 39.1328 29.3718 38.8006 29.3718 40.7935C29.3718 42.7862 18.8544 43.672 17.9688 49.2073C17.0832 54.7427 17.5259 56.5142 17.5259 56.5142L48.4136 54.9642C48.4136 54.9642 47.9852 49.246 46.384 45.7384C44.834 42.3434 35.9774 42.5647 35.756 40.203C35.6212 38.7658 40.7138 37.8105 42.8782 35.0366C46.6792 30.1654 44.7603 23.1538 44.7603 23.1538L16.6404 25.7369Z" fill="#FFD666"/>
<path d="M35.3629 37.5518C39.0967 36.1926 42.0245 34.2749 43.0709 30.2098C43.5196 28.4663 43.6124 26.5543 43.2839 24.7773L18.6328 27.2128C18.6954 32.91 21.6978 37.295 28.3137 38.03C28.3137 38.03 28.3742 38.1347 28.3751 38.136C28.4183 38.2107 29.3127 38.2296 29.4782 38.2667C30.0638 38.3982 30.6475 38.605 31.0502 39.0746C31.4878 39.5848 31.6125 40.2907 31.6455 40.9621C31.7959 44.0399 32.6186 47.8 31.4011 50.7568C30.3678 53.2661 25.4966 55.1113 25.4966 55.1113L40.0364 54.7424C40.0364 54.7424 35.1837 53.4323 34.0213 50.8305C33.284 49.1804 33.3797 47.073 33.3676 45.3079C33.3605 44.278 33.3604 43.2432 33.3988 42.2138C33.4372 41.1836 33.166 39.8371 33.6209 38.8884C33.9399 38.2232 34.6311 37.817 35.3248 37.5656C35.3374 37.561 35.3501 37.5563 35.3629 37.5518Z" fill="#FAAD14"/>
<path d="M46.0873 23.6693L44.9035 23.782L16.641 26.4618L15.583 26.5614C16.3158 25.4905 17.0963 24.4541 17.9288 23.4611L45.7926 21.085L46.0873 23.6693Z" fill="#91CAFF"/>
<path d="M16.6871 58.366L49.2664 56.951L49.081 54.356L16.5156 55.4763L16.6871 58.366Z" fill="#91CAFF"/>
<path d="M41.7011 31.134C41.9176 31.5615 42.3029 31.9769 42.7818 31.9584C43.3109 31.9379 43.664 31.4145 43.8846 30.9332C44.4164 29.7725 45.2574 26.2059 42.9557 26.1682C41.039 26.1368 41.1302 30.0066 41.7011 31.134Z" fill="#BAE0FF"/>
<path d="M58.3631 83.2549V85.1816C58.3631 85.3284 58.0169 85.4714 57.3848 85.6031C57.3546 85.6069 57.3208 85.6145 57.2907 85.6219C56.9482 85.6896 56.5305 85.7536 56.0414 85.8139C56.0113 85.8177 55.9813 85.8215 55.9473 85.8251C55.65 85.859 55.3302 85.8928 54.984 85.9268C54.9538 85.9305 54.92 85.9343 54.8899 85.9343C54.555 85.9645 54.2012 85.9945 53.8324 86.0246C53.8023 86.0246 53.7723 86.0284 53.7383 86.0322C53.3997 86.0548 53.0459 86.0812 52.6771 86.1037C52.6469 86.1037 52.617 86.1037 52.583 86.1075C52.2444 86.1263 51.8906 86.1451 51.5256 86.1641C51.4954 86.1679 51.4654 86.1679 51.4315 86.1679C51.089 86.1866 50.7316 86.2018 50.3702 86.2168C50.3401 86.2168 50.3063 86.2168 50.2761 86.2206C49.9299 86.2318 49.5799 86.2432 49.2187 86.2544C49.1885 86.2582 49.1548 86.2582 49.1246 86.2582C48.7784 86.2695 48.4247 86.2769 48.0672 86.2845C48.037 86.2883 48.0032 86.2883 47.9731 86.2883C47.6232 86.2959 47.2694 86.3033 46.9118 86.3071C46.8817 86.3071 46.8517 86.3109 46.8177 86.3109C46.4715 86.3147 46.1179 86.3185 45.7603 86.3223H45.6662C45.3162 86.3261 44.9625 86.3298 44.605 86.3261C44.5748 86.3298 44.5448 86.3298 44.5146 86.3298H44.1765C43.9358 86.3298 43.6949 86.3298 43.4539 86.3261C43.4238 86.3298 43.39 86.3298 43.3598 86.3261C43.0476 86.3261 42.7351 86.3261 42.4304 86.3185C42.4003 86.3223 42.3665 86.3223 42.3363 86.3185C41.9787 86.3147 41.6251 86.3109 41.2751 86.3071C41.2449 86.3071 41.2112 86.3033 41.181 86.3033C40.8236 86.2995 40.4698 86.2919 40.1236 86.2807C40.0934 86.2807 40.0596 86.2807 40.0295 86.2769C39.6683 86.2694 39.3182 86.2619 38.972 86.2506C38.9419 86.2506 38.9081 86.2468 38.8779 86.2468C38.5167 86.2356 38.1629 86.2242 37.8167 86.2092C37.7827 86.2054 37.7528 86.2054 37.7226 86.2054C37.3614 86.1904 37.0076 86.1753 36.6652 86.1565C36.635 86.1565 36.6012 86.1527 36.5711 86.1527C36.2061 86.1339 35.8524 86.1113 35.5136 86.0925C35.4835 86.0888 35.4497 86.0888 35.4195 86.0888C35.0507 86.0624 34.6969 86.036 34.3583 86.0098C34.3281 86.0098 34.2943 86.006 34.2642 86.0022C33.8916 85.9759 33.538 85.9421 33.2067 85.9081C33.1728 85.9081 33.1428 85.9044 33.1126 85.9006C32.7251 85.863 32.3713 85.8216 32.0514 85.7763C32.0175 85.7763 31.9875 85.7687 31.9573 85.7651C31.5434 85.7086 31.1897 85.6484 30.8999 85.5883C30.8659 85.5807 30.8359 85.5733 30.8058 85.5657C30.2752 85.4453 29.9893 85.3174 29.9893 85.1819V83.2552H58.3631V83.2549Z" fill="#FFE58F"/>
<path d="M30.9007 83.2549V85.5879C30.8668 85.5804 30.8368 85.573 30.8066 85.5654V83.2549H30.9007Z" fill="#FFD666"/>
<path d="M32.0521 83.2549V85.7761C32.0182 85.7761 31.9882 85.7686 31.958 85.7649V83.2551L32.0521 83.2549Z" fill="#FFD666"/>
<path d="M33.2074 83.2549V85.9078C33.1734 85.9078 33.1434 85.904 33.1133 85.9002V83.2549H33.2074Z" fill="#FFD666"/>
<path d="M34.3587 83.2549V86.0095C34.3286 86.0095 34.2948 86.0057 34.2646 86.0019V83.2549H34.3587Z" fill="#FFD666"/>
<path d="M35.514 82.9689V86.0921C35.4839 86.0883 35.4501 86.0883 35.4199 86.0883V82.9688H35.514V82.9689Z" fill="#FFD666"/>
<path d="M36.6654 82.969V86.1563C36.6352 86.1563 36.6014 86.1525 36.5713 86.1525V82.969H36.6654Z" fill="#FFD666"/>
<path d="M37.8168 82.969V86.2089C37.7828 86.2051 37.7528 86.2051 37.7227 86.2051V82.969H37.8168Z" fill="#FFD666"/>
<path d="M38.972 82.9689V86.2502C38.9419 86.2502 38.9081 86.2464 38.8779 86.2464V82.9688H38.972V82.9689Z" fill="#FFD666"/>
<path d="M40.1244 82.969V86.2804C40.0942 86.2804 40.0604 86.2804 40.0303 86.2766V82.969H40.1244Z" fill="#FFD666"/>
<path d="M41.2757 82.969V86.3068C41.2456 86.3068 41.2118 86.303 41.1816 86.303V82.969H41.2757Z" fill="#FFD666"/>
<path d="M42.431 82.969V86.3181C42.4009 86.3219 42.3671 86.3219 42.3369 86.3181V82.969H42.431Z" fill="#FFD666"/>
<path d="M43.4544 82.969V86.3256C43.4243 86.3293 43.3905 86.3293 43.3604 86.3256V82.969H43.4544Z" fill="#FFD666"/>
<path d="M44.6059 82.969V86.3256C44.5758 86.3293 44.5458 86.3293 44.5156 86.3293V82.969H44.6059Z" fill="#FFD666"/>
<path d="M45.7611 82.969H45.667V86.3218H45.7611V82.969Z" fill="#FFD666"/>
<path d="M46.9125 82.969V86.3068C46.8823 86.3068 46.8523 86.3106 46.8184 86.3106V82.969H46.9125Z" fill="#FFD666"/>
<path d="M48.0677 82.969V86.2842C48.0376 86.288 48.0038 86.288 47.9736 86.288V82.969H48.0677Z" fill="#FFD666"/>
<path d="M49.2191 82.969V86.254C49.1889 86.2578 49.1552 86.2578 49.125 86.2578V82.969H49.2191Z" fill="#FFD666"/>
<path d="M50.3705 82.969V86.2165C50.3403 86.2165 50.3065 86.2165 50.2764 86.2203V82.969H50.3705Z" fill="#FFD666"/>
<path d="M51.5257 82.969V86.1637C51.4956 86.1675 51.4656 86.1675 51.4316 86.1675V82.969H51.5257Z" fill="#FFD666"/>
<path d="M52.6781 82.969V86.1036C52.6479 86.1036 52.6179 86.1036 52.584 86.1074V82.969H52.6781Z" fill="#FFD666"/>
<path d="M53.8324 82.969V86.0245C53.8022 86.0245 53.7722 86.0283 53.7383 86.0321V82.969H53.8324Z" fill="#FFD666"/>
<path d="M54.9847 82.969V85.9266C54.9546 85.9304 54.9208 85.9342 54.8906 85.9342V82.969H54.9847Z" fill="#FFD666"/>
<path d="M56.0414 82.969V85.8139C56.0112 85.8177 55.9812 85.8215 55.9473 85.8251V82.969H56.0414Z" fill="#FFD666"/>
<path d="M57.3851 82.969V85.6031C57.355 85.6069 57.3212 85.6145 57.291 85.6219V82.969H57.3851Z" fill="#FFD666"/>
<path d="M58.363 83.2567C58.363 83.9996 52.0111 84.6018 44.1757 84.6018C36.3402 84.6018 29.9883 83.9996 29.9883 83.2567C29.9883 82.5138 36.3402 81.9116 44.1757 81.9116C52.0111 81.9116 58.363 82.5139 58.363 83.2567Z" fill="#FAAD14"/>
<path d="M44.1754 84.3605C37.93 84.3605 31.292 83.985 31.292 83.2888C31.292 82.5926 37.93 82.217 44.1754 82.217C50.4208 82.217 57.0582 82.5926 57.0582 83.2888C57.0584 83.9848 50.4208 84.3605 44.1754 84.3605ZM44.1754 82.311C36.6385 82.311 31.3861 82.8262 31.3861 83.2886C31.3861 83.751 36.6385 84.2663 44.1754 84.2663C51.7119 84.2663 56.9643 83.751 56.9643 83.2886C56.9643 82.8262 51.7119 82.311 44.1754 82.311Z" fill="#FFD666"/>
<path d="M58.3631 80.885V82.8117C58.3631 82.9585 58.0169 83.1014 57.3848 83.2332C57.3546 83.237 57.3208 83.2444 57.2907 83.252C56.9482 83.3198 56.5305 83.3837 56.0414 83.444C56.0113 83.4478 55.9813 83.4516 55.9473 83.4552C55.65 83.4892 55.3302 83.5229 54.984 83.5569C54.9538 83.5607 54.92 83.5645 54.8899 83.5645C54.555 83.5946 54.2012 83.6246 53.8324 83.6548C53.8023 83.6548 53.7723 83.6586 53.7383 83.6624C53.3997 83.6849 53.0459 83.7113 52.6771 83.7339C52.6469 83.7339 52.617 83.7339 52.583 83.7377C52.2444 83.7564 51.8906 83.7752 51.5256 83.794C51.4954 83.7978 51.4654 83.7978 51.4315 83.7978C51.089 83.8166 50.7316 83.8318 50.3702 83.8468C50.3401 83.8468 50.3063 83.8468 50.2761 83.8505C49.9299 83.8619 49.5799 83.8731 49.2187 83.8845C49.1885 83.8883 49.1548 83.8883 49.1246 83.8883C48.7784 83.8997 48.4247 83.9071 48.0672 83.9147C48.037 83.9184 48.0032 83.9184 47.9731 83.9184C47.6232 83.926 47.2694 83.9334 46.9118 83.9372C46.8817 83.9372 46.8517 83.941 46.8177 83.941C46.4715 83.9448 46.1179 83.9486 45.7603 83.9524H45.6662C45.3162 83.9562 44.9625 83.96 44.605 83.9562C44.5748 83.96 44.5448 83.96 44.5146 83.96H44.1765C43.9358 83.96 43.6949 83.96 43.4539 83.9562C43.4238 83.96 43.39 83.96 43.3598 83.9562C43.0476 83.9562 42.7351 83.9562 42.4304 83.9486C42.4003 83.9524 42.3665 83.9524 42.3363 83.9486C41.9787 83.9448 41.6251 83.941 41.2751 83.9372C41.2449 83.9372 41.2112 83.9334 41.181 83.9334C40.8236 83.9296 40.4698 83.9222 40.1236 83.9109C40.0934 83.9109 40.0596 83.9109 40.0295 83.9071C39.6683 83.8995 39.3182 83.8921 38.972 83.8807C38.9419 83.8807 38.9081 83.8769 38.8779 83.8769C38.5167 83.8655 38.1629 83.8543 37.8167 83.8393C37.7827 83.8356 37.7528 83.8356 37.7226 83.8356C37.3614 83.8206 37.0076 83.8054 36.6652 83.7866C36.635 83.7866 36.6012 83.7828 36.5711 83.7828C36.2061 83.764 35.8524 83.7415 35.5136 83.7227C35.4835 83.7189 35.4497 83.7189 35.4195 83.7189C35.0507 83.6925 34.6969 83.6661 34.3583 83.6399C34.3281 83.6399 34.2943 83.6362 34.2642 83.6324C33.8916 83.606 33.538 83.5722 33.2067 83.5383C33.1728 83.5383 33.1428 83.5345 33.1126 83.5307C32.7251 83.4931 32.3713 83.4516 32.0514 83.4064C32.0175 83.4064 31.9875 83.3989 31.9573 83.3951C31.5434 83.3387 31.1897 83.2784 30.8999 83.2182C30.8659 83.2107 30.8359 83.2031 30.8058 83.1957C30.2752 83.0752 29.9893 82.9473 29.9893 82.8119V80.8852H58.3631V80.885Z" fill="#FFE58F"/>
<path d="M30.9007 80.885V83.2181C30.8668 83.2105 30.8368 83.2029 30.8066 83.1955V80.885H30.9007Z" fill="#FFD666"/>
<path d="M32.0521 80.885V83.4063C32.0182 83.4063 31.9882 83.3987 31.958 83.3949V80.885H32.0521Z" fill="#FFD666"/>
<path d="M33.2074 80.885V83.5379C33.1734 83.5379 33.1434 83.5341 33.1133 83.5303V80.885H33.2074Z" fill="#FFD666"/>
<path d="M34.3587 80.885V83.6396C34.3286 83.6396 34.2948 83.6358 34.2646 83.632V80.885H34.3587Z" fill="#FFD666"/>
<path d="M35.514 80.5991V83.7225C35.4839 83.7187 35.4501 83.7187 35.4199 83.7187V80.5991H35.514Z" fill="#FFD666"/>
<path d="M36.6654 80.5991V83.7864C36.6352 83.7864 36.6014 83.7827 36.5713 83.7827V80.5991H36.6654Z" fill="#FFD666"/>
<path d="M37.8168 80.5991V83.8389C37.7828 83.8352 37.7528 83.8352 37.7227 83.8352V80.5989H37.8168V80.5991Z" fill="#FFD666"/>
<path d="M38.972 80.5991V83.8805C38.9419 83.8805 38.9081 83.8768 38.8779 83.8768V80.5991H38.972Z" fill="#FFD666"/>
<path d="M40.1244 80.5991V83.9105C40.0942 83.9105 40.0604 83.9105 40.0303 83.9067V80.5991H40.1244Z" fill="#FFD666"/>
<path d="M41.2757 80.5991V83.9369C41.2456 83.9369 41.2118 83.9331 41.1816 83.9331V80.5991H41.2757Z" fill="#FFD666"/>
<path d="M42.431 80.5991V83.9483C42.4009 83.9521 42.3671 83.9521 42.3369 83.9483V80.5991H42.431Z" fill="#FFD666"/>
<path d="M43.4544 80.5991V83.9557C43.4243 83.9595 43.3905 83.9595 43.3604 83.9557V80.5991H43.4544Z" fill="#FFD666"/>
<path d="M44.6059 80.5991V83.9557C44.5758 83.9595 44.5458 83.9595 44.5156 83.9595V80.5991H44.6059Z" fill="#FFD666"/>
<path d="M45.7611 80.5991H45.667V83.9521H45.7611V80.5991Z" fill="#FFD666"/>
<path d="M46.9125 80.5991V83.9369C46.8823 83.9369 46.8523 83.9407 46.8184 83.9407V80.5991H46.9125Z" fill="#FFD666"/>
<path d="M48.0677 80.5991V83.9143C48.0376 83.9181 48.0038 83.9181 47.9736 83.9181V80.5991H48.0677Z" fill="#FFD666"/>
<path d="M49.2191 80.5991V83.8842C49.1889 83.888 49.1552 83.888 49.125 83.888V80.5991H49.2191Z" fill="#FFD666"/>
<path d="M50.3705 80.5991V83.8468C50.3403 83.8468 50.3065 83.8468 50.2764 83.8506V80.5993H50.3705V80.5991Z" fill="#FFD666"/>
<path d="M51.5257 80.5991V83.7939C51.4956 83.7976 51.4656 83.7977 51.4316 83.7977V80.5991H51.5257Z" fill="#FFD666"/>
<path d="M52.6781 80.5991V83.7337C52.6479 83.7337 52.6179 83.7337 52.584 83.7375V80.5991H52.6781Z" fill="#FFD666"/>
<path d="M53.8324 80.5991V83.6548C53.8022 83.6548 53.7722 83.6586 53.7383 83.6624V80.5993H53.8324V80.5991Z" fill="#FFD666"/>
<path d="M54.9847 80.5991V83.5569C54.9546 83.5607 54.9208 83.5645 54.8906 83.5645V80.5991H54.9847Z" fill="#FFD666"/>
<path d="M56.0414 80.5991V83.444C56.0112 83.4478 55.9812 83.4516 55.9473 83.4552V80.5991H56.0414Z" fill="#FFD666"/>
<path d="M57.3851 80.5991V83.2333C57.355 83.237 57.3212 83.2445 57.291 83.252V80.5991H57.3851Z" fill="#FFD666"/>
<path d="M58.363 80.8868C58.363 81.6298 52.0111 82.2319 44.1757 82.2319C36.3402 82.2319 29.9883 81.6298 29.9883 80.8868C29.9883 80.1439 36.3402 79.5417 44.1757 79.5417C52.0111 79.5417 58.363 80.1441 58.363 80.8868Z" fill="#FAAD14"/>
<path d="M44.1754 81.991C37.93 81.991 31.292 81.6155 31.292 80.9189C31.292 80.2227 37.93 79.8472 44.1754 79.8472C50.4208 79.8472 57.0582 80.2227 57.0582 80.9189C57.0584 81.6153 50.4208 81.991 44.1754 81.991ZM44.1754 79.9411C36.6385 79.9411 31.3861 80.4564 31.3861 80.9187C31.3861 81.3816 36.6385 81.8969 44.1754 81.8969C51.7119 81.8969 56.9643 81.3816 56.9643 80.9187C56.9643 80.4564 51.7119 79.9411 44.1754 79.9411Z" fill="#FFD666"/>
<path d="M55.384 78.5791V80.5058C55.384 80.6526 55.0377 80.7955 54.4056 80.9273C54.3755 80.9311 54.3417 80.9385 54.3115 80.9461C53.9691 81.0138 53.5514 81.0778 53.0623 81.1381C53.0321 81.1419 53.0021 81.1457 52.9682 81.1493C52.6709 81.1832 52.351 81.217 52.0048 81.251C51.9747 81.2548 51.9409 81.2586 51.9107 81.2586C51.5759 81.2887 51.2221 81.3187 50.8533 81.3489C50.8231 81.3489 50.7931 81.3527 50.7592 81.3564C50.4206 81.379 50.0668 81.4054 49.698 81.428C49.6678 81.428 49.6378 81.428 49.6039 81.4318C49.2652 81.4505 48.9114 81.4693 48.5464 81.4883C48.5163 81.4921 48.4863 81.4921 48.4523 81.4921C48.1099 81.5109 47.7525 81.526 47.3911 81.541C47.3609 81.541 47.3271 81.541 47.297 81.5448C46.9508 81.5562 46.6008 81.5674 46.2395 81.5788C46.2094 81.5825 46.1756 81.5826 46.1455 81.5826C45.7992 81.5939 45.4456 81.6013 45.088 81.6089C45.0578 81.6127 45.0241 81.6127 44.9939 81.6127C44.6439 81.6203 44.2903 81.6277 43.9327 81.6315C43.9025 81.6315 43.8725 81.6353 43.8386 81.6353C43.4924 81.6391 43.1387 81.6429 42.7811 81.6467H42.687C42.337 81.6505 41.9834 81.6542 41.6258 81.6505C41.5956 81.6542 41.5657 81.6542 41.5355 81.6542H41.1969C40.9561 81.6542 40.7152 81.6542 40.4744 81.6505C40.4443 81.6542 40.4105 81.6542 40.3803 81.6505C40.0681 81.6505 39.7558 81.6505 39.4509 81.6429C39.4208 81.6467 39.387 81.6467 39.3568 81.6429C38.9993 81.6391 38.6456 81.6353 38.2956 81.6315C38.2655 81.6315 38.2317 81.6277 38.2015 81.6277C37.8441 81.6239 37.4903 81.6165 37.1441 81.6051C37.1139 81.6051 37.0801 81.6051 37.05 81.6013C36.6888 81.5938 36.3388 81.5863 35.9925 81.575C35.9624 81.575 35.9286 81.5712 35.8984 81.5712C35.5372 81.5598 35.1834 81.5486 34.8372 81.5336C34.8033 81.5298 34.7733 81.5298 34.7431 81.5298C34.3819 81.5148 34.0281 81.4997 33.6857 81.4809C33.6555 81.4809 33.6217 81.4771 33.5916 81.4771C33.2266 81.4583 32.8728 81.4357 32.5341 81.4169C32.504 81.4131 32.4702 81.4131 32.44 81.4131C32.0712 81.3868 31.7174 81.3604 31.3788 81.3342C31.3486 81.3342 31.3149 81.3304 31.2847 81.3266C30.9121 81.3003 30.5585 81.2665 30.2273 81.2325C30.1933 81.2325 30.1633 81.2287 30.1332 81.225C29.7456 81.1874 29.3918 81.1459 29.0719 81.1007C29.038 81.1007 29.008 81.0931 28.9778 81.0893C28.5639 81.033 28.2101 80.9727 27.9204 80.9125C27.8864 80.9049 27.8564 80.8973 27.8263 80.8899C27.2957 80.7695 27.0098 80.6416 27.0098 80.5061V78.5794H55.384V78.5791Z" fill="#FFE58F"/>
<path d="M27.9212 78.5791V80.9122C27.8873 80.9046 27.8573 80.897 27.8271 80.8896V78.5791H27.9212Z" fill="#FFD666"/>
<path d="M29.0726 78.5791V81.1004C29.0387 81.1004 29.0087 81.0928 28.9785 81.089V78.5791H29.0726Z" fill="#FFD666"/>
<path d="M30.2279 78.5791V81.232C30.1939 81.232 30.1639 81.2282 30.1338 81.2244V78.5791H30.2279Z" fill="#FFD666"/>
<path d="M31.3793 78.5791V81.3337C31.3491 81.3337 31.3153 81.3299 31.2852 81.3261V78.5791H31.3793Z" fill="#FFD666"/>
<path d="M32.5345 78.2932V81.4166C32.5044 81.4128 32.4706 81.4128 32.4404 81.4128V78.2932H32.5345Z" fill="#FFD666"/>
<path d="M33.6859 78.2932V81.4805C33.6557 81.4805 33.622 81.4768 33.5918 81.4768V78.2932H33.6859Z" fill="#FFD666"/>
<path d="M34.8373 78.2931V81.533C34.8033 81.5292 34.7733 81.5292 34.7432 81.5292V78.293L34.8373 78.2931Z" fill="#FFD666"/>
<path d="M35.9925 78.2932V81.5746C35.9624 81.5746 35.9286 81.5708 35.8984 81.5708V78.2932H35.9925Z" fill="#FFD666"/>
<path d="M37.1449 78.2932V81.6046C37.1147 81.6046 37.0809 81.6046 37.0508 81.6008V78.2932H37.1449Z" fill="#FFD666"/>
<path d="M38.2962 78.2932V81.631C38.2661 81.631 38.2323 81.6272 38.2021 81.6272V78.2932H38.2962Z" fill="#FFD666"/>
<path d="M39.4515 78.2932V81.6424C39.4214 81.6462 39.3876 81.6462 39.3574 81.6424V78.2932H39.4515Z" fill="#FFD666"/>
<path d="M40.475 78.2932V81.6498C40.4448 81.6536 40.411 81.6536 40.3809 81.6498V78.2932H40.475Z" fill="#FFD666"/>
<path d="M41.6264 78.2932V81.6498C41.5963 81.6536 41.5663 81.6536 41.5361 81.6536V78.2932H41.6264Z" fill="#FFD666"/>
<path d="M42.7816 78.2932H42.6875V81.6462H42.7816V78.2932Z" fill="#FFD666"/>
<path d="M43.933 78.2932V81.631C43.9028 81.631 43.8728 81.6348 43.8389 81.6348V78.2932H43.933Z" fill="#FFD666"/>
<path d="M45.0882 78.2932V81.6084C45.0581 81.6122 45.0243 81.6122 44.9941 81.6122V78.2932H45.0882Z" fill="#FFD666"/>
<path d="M46.2396 78.2932V81.5783C46.2094 81.582 46.1757 81.582 46.1455 81.582V78.2932H46.2396Z" fill="#FFD666"/>
<path d="M47.391 78.2932V81.5407C47.3608 81.5407 47.327 81.5407 47.2969 81.5445V78.2932H47.391Z" fill="#FFD666"/>
<path d="M48.5472 78.2932V81.4881C48.5171 81.4919 48.4871 81.4919 48.4531 81.4919V78.2934H48.5472V78.2932Z" fill="#FFD666"/>
<path d="M49.6986 78.2932V81.4278C49.6684 81.4278 49.6384 81.4278 49.6045 81.4316V78.2932H49.6986Z" fill="#FFD666"/>
<path d="M50.8539 78.2932V81.3489C50.8237 81.3489 50.7937 81.3527 50.7598 81.3565V78.2934H50.8539V78.2932Z" fill="#FFD666"/>
<path d="M52.0052 78.2932V81.251C51.9751 81.2548 51.9413 81.2586 51.9111 81.2586V78.2932H52.0052Z" fill="#FFD666"/>
<path d="M53.0619 78.2932V81.1381C53.0317 81.1419 53.0017 81.1457 52.9678 81.1493V78.2932H53.0619Z" fill="#FFD666"/>
<path d="M54.4056 78.2932V80.9273C54.3755 80.9311 54.3417 80.9386 54.3115 80.9461V78.2932H54.4056Z" fill="#FFD666"/>
<path d="M55.3845 78.5809C55.3845 79.3238 49.0326 79.926 41.197 79.926C33.3617 79.926 27.0098 79.3238 27.0098 78.5809C27.0098 77.838 33.3617 77.2358 41.197 77.2358C49.0326 77.2358 55.3845 77.8381 55.3845 78.5809Z" fill="#FAAD14"/>
<path d="M41.1969 79.6848C34.9515 79.6848 28.3135 79.3092 28.3135 78.613C28.3135 77.9169 34.9515 77.5413 41.1969 77.5413C47.4423 77.5413 54.0803 77.9168 54.0803 78.613C54.0803 79.3092 47.4423 79.6848 41.1969 79.6848ZM41.1969 77.6354C33.66 77.6354 28.4076 78.1506 28.4076 78.613C28.4076 79.0754 33.66 79.5907 41.1969 79.5907C48.7337 79.5907 53.9862 79.0754 53.9862 78.613C53.9862 78.1506 48.7337 77.6354 41.1969 77.6354Z" fill="#FFD666"/>
<path d="M56.633 75.8892V77.8159C56.633 77.9627 56.2868 78.1056 55.6546 78.2374C55.6245 78.2412 55.5907 78.2486 55.5605 78.2562C55.2181 78.3239 54.8004 78.3878 54.3113 78.4482C54.2811 78.4519 54.2512 78.4557 54.2172 78.4594C53.9199 78.4933 53.6001 78.5271 53.2539 78.561C53.2237 78.5648 53.1899 78.5686 53.1598 78.5686C52.8249 78.5988 52.4711 78.6288 52.1023 78.6589C52.0722 78.6589 52.0422 78.6627 52.0082 78.6665C51.6696 78.6891 51.3158 78.7154 50.947 78.738C50.9168 78.738 50.8868 78.738 50.8529 78.7418C50.5142 78.7606 50.1604 78.7794 49.7954 78.7983C49.7653 78.8021 49.7353 78.8021 49.7013 78.8021C49.3589 78.8209 49.0015 78.8361 48.6401 78.8511C48.6099 78.8511 48.5762 78.8511 48.546 78.8549C48.1998 78.8662 47.85 78.8774 47.4886 78.8888C47.4584 78.8926 47.4246 78.8926 47.3945 78.8926C47.0483 78.904 46.6946 78.9114 46.337 78.919C46.3069 78.9228 46.2731 78.9228 46.2429 78.9228C45.8929 78.9303 45.5393 78.9378 45.1817 78.9416C45.1515 78.9416 45.1216 78.9453 45.0876 78.9453C44.7414 78.9491 44.3878 78.9529 44.0302 78.9567H43.9361C43.5861 78.9605 43.2324 78.9643 42.8748 78.9605C42.8447 78.9643 42.8147 78.9643 42.7845 78.9643H42.4459C42.2051 78.9643 41.9642 78.9643 41.7235 78.9605C41.6933 78.9643 41.6595 78.9643 41.6294 78.9605C41.3171 78.9605 41.0047 78.9605 40.7 78.9529C40.6698 78.9567 40.636 78.9567 40.6059 78.9529C40.2484 78.9491 39.8946 78.9453 39.5446 78.9416C39.5145 78.9416 39.4807 78.9378 39.4505 78.9378C39.0929 78.934 38.7393 78.9266 38.3931 78.9152C38.3629 78.9152 38.3292 78.9152 38.299 78.9114C37.9378 78.9038 37.5878 78.8964 37.2416 78.885C37.2114 78.885 37.1776 78.8812 37.1475 78.8812C36.7862 78.8699 36.4324 78.8587 36.0862 78.8437C36.0523 78.8399 36.0223 78.8399 35.9921 78.8399C35.6309 78.8249 35.2771 78.8097 34.9347 78.7909C34.9045 78.7909 34.8707 78.7871 34.8406 78.7871C34.4756 78.7684 34.1218 78.7458 33.7831 78.727C33.753 78.7232 33.7192 78.7232 33.6891 78.7232C33.3203 78.6968 32.9665 78.6705 32.6278 78.6443C32.5977 78.6443 32.5639 78.6405 32.5337 78.6367C32.1611 78.6103 31.8075 78.5765 31.4763 78.5426C31.4423 78.5426 31.4123 78.5388 31.3822 78.535C30.9946 78.4974 30.6408 78.4559 30.3209 78.4108C30.287 78.4108 30.257 78.4032 30.2268 78.3994C29.8129 78.343 29.4593 78.2827 29.1694 78.2226C29.1355 78.215 29.1055 78.2074 29.0753 78.2C28.5447 78.0795 28.2588 77.9517 28.2588 77.8162V75.8895H56.633V75.8892Z" fill="#FFE58F"/>
<path d="M29.1703 75.8892V78.2222C29.1363 78.2146 29.1063 78.2071 29.0762 78.1996V75.8892H29.1703Z" fill="#FFD666"/>
<path d="M30.3216 75.8892V78.4104C30.2877 78.4104 30.2577 78.4028 30.2275 78.399V75.8892H30.3216Z" fill="#FFD666"/>
<path d="M31.4769 75.8892V78.5421C31.443 78.5421 31.413 78.5383 31.3828 78.5345V75.8892H31.4769Z" fill="#FFD666"/>
<path d="M32.6283 75.8892V78.6438C32.5981 78.6438 32.5643 78.64 32.5342 78.6362V75.8892H32.6283Z" fill="#FFD666"/>
<path d="M33.7835 75.6033V78.7267C33.7534 78.7229 33.7196 78.7229 33.6895 78.7229V75.6033H33.7835Z" fill="#FFD666"/>
<path d="M34.9349 75.6033V78.7906C34.9048 78.7906 34.871 78.7868 34.8408 78.7868V75.6033H34.9349Z" fill="#FFD666"/>
<path d="M36.0863 75.6032V78.8431C36.0523 78.8393 36.0223 78.8393 35.9922 78.8393V75.603H36.0863V75.6032Z" fill="#FFD666"/>
<path d="M37.2416 75.6033V78.8847C37.2114 78.8847 37.1776 78.8809 37.1475 78.8809V75.6033H37.2416Z" fill="#FFD666"/>
<path d="M38.3939 75.6033V78.9147C38.3637 78.9147 38.33 78.9147 38.2998 78.9109V75.6033H38.3939Z" fill="#FFD666"/>
<path d="M39.5453 75.6033V78.941C39.5151 78.941 39.4813 78.9373 39.4512 78.9373V75.6033H39.5453Z" fill="#FFD666"/>
<path d="M40.7005 75.6033V78.9524C40.6704 78.9562 40.6366 78.9562 40.6064 78.9524V75.6033H40.7005Z" fill="#FFD666"/>
<path d="M41.724 75.6033V78.9598C41.6938 78.9636 41.66 78.9636 41.6299 78.9598V75.6033H41.724Z" fill="#FFD666"/>
<path d="M42.8755 75.6033V78.9598C42.8453 78.9636 42.8153 78.9636 42.7852 78.9636V75.6033H42.8755Z" fill="#FFD666"/>
<path d="M44.0306 75.6033H43.9365V78.9562H44.0306V75.6033Z" fill="#FFD666"/>
<path d="M45.182 75.6033V78.941C45.1518 78.941 45.1218 78.9448 45.0879 78.9448V75.6033H45.182Z" fill="#FFD666"/>
<path d="M46.3373 75.6033V78.9185C46.3071 78.9223 46.2733 78.9223 46.2432 78.9223V75.6033H46.3373Z" fill="#FFD666"/>
<path d="M47.4886 75.6033V78.8883C47.4585 78.8921 47.4247 78.8921 47.3945 78.8921V75.6033H47.4886Z" fill="#FFD666"/>
<path d="M48.64 75.6033V78.8507C48.6098 78.8507 48.5761 78.8507 48.5459 78.8545V75.6033H48.64Z" fill="#FFD666"/>
<path d="M49.7953 75.6033V78.7982C49.7651 78.802 49.7351 78.802 49.7012 78.802V75.6034H49.7953V75.6033Z" fill="#FFD666"/>
<path d="M50.9476 75.6033V78.7379C50.9175 78.7379 50.8875 78.7379 50.8535 78.7417V75.6033H50.9476Z" fill="#FFD666"/>
<path d="M52.1019 75.6033V78.6589C52.0718 78.6589 52.0418 78.6627 52.0078 78.6665V75.6034H52.1019V75.6033Z" fill="#FFD666"/>
<path d="M53.2543 75.6033V78.561C53.2241 78.5648 53.1903 78.5686 53.1602 78.5686V75.6033H53.2543Z" fill="#FFD666"/>
<path d="M54.3109 75.6033V78.4482C54.2807 78.452 54.2507 78.4558 54.2168 78.4594V75.6033H54.3109Z" fill="#FFD666"/>
<path d="M55.6546 75.6033V78.2374C55.6245 78.2412 55.5907 78.2486 55.5605 78.2562V75.6033H55.6546Z" fill="#FFD666"/>
<path d="M56.6333 75.891C56.6333 76.6339 50.2814 77.236 42.4461 77.236C34.6107 77.236 28.2588 76.6339 28.2588 75.891C28.2588 75.148 34.6107 74.5459 42.4461 74.5459C50.2814 74.5459 56.6333 75.1482 56.6333 75.891Z" fill="#FAAD14"/>
<path d="M42.4459 76.9948C36.2005 76.9948 29.5625 76.6193 29.5625 75.9231C29.5625 75.227 36.2005 74.8513 42.4459 74.8513C48.6913 74.8513 55.3288 75.2268 55.3288 75.9231C55.3289 76.6191 48.6913 76.9948 42.4459 76.9948ZM42.4459 74.9452C34.909 74.9452 29.6566 75.4605 29.6566 75.9229C29.6566 76.3853 34.909 76.9005 42.4459 76.9005C49.9824 76.9005 55.2348 76.3853 55.2348 75.9229C55.2348 75.4605 49.9824 74.9452 42.4459 74.9452Z" fill="#FFD666"/>
<path d="M58.7464 73.7754V75.7021C58.7464 75.8488 58.4002 75.9918 57.7681 76.1234C57.7379 76.1272 57.7042 76.1348 57.674 76.1422C57.3316 76.21 56.9138 76.2739 56.4247 76.3342C56.3946 76.338 56.3646 76.3418 56.3307 76.3456C56.0334 76.3795 55.7135 76.4133 55.3673 76.4473C55.3371 76.4511 55.3034 76.4548 55.2732 76.4548C54.9384 76.485 54.5846 76.515 54.2158 76.5452C54.1856 76.5452 54.1556 76.5489 54.1217 76.5527C53.783 76.5753 53.4292 76.6017 53.0604 76.6243C53.0303 76.6243 53.0001 76.6243 52.9663 76.628C52.6277 76.6468 52.2739 76.6656 51.9089 76.6844C51.8787 76.6882 51.8487 76.6882 51.8148 76.6882C51.4724 76.707 51.1149 76.7221 50.7536 76.7371C50.7234 76.7371 50.6896 76.7371 50.6595 76.7409C50.3132 76.7521 49.9632 76.7635 49.602 76.7749C49.5719 76.7787 49.5381 76.7787 49.5079 76.7787C49.1617 76.7899 48.8081 76.7975 48.4505 76.805C48.4203 76.8088 48.3865 76.8088 48.3564 76.8088C48.0065 76.8164 47.6527 76.8238 47.2952 76.8276C47.265 76.8276 47.235 76.8314 47.2011 76.8314C46.8548 76.8352 46.5012 76.839 46.1436 76.8426H46.0495C45.6995 76.8464 45.3459 76.8502 44.9883 76.8464C44.9581 76.8502 44.9281 76.8502 44.898 76.8502H44.5593C44.3186 76.8502 44.0777 76.8502 43.8367 76.8464C43.8066 76.8502 43.7728 76.8502 43.7426 76.8464C43.4304 76.8464 43.1179 76.8464 42.8132 76.8388C42.7831 76.8426 42.7493 76.8426 42.7192 76.8388C42.3616 76.835 42.0079 76.8312 41.6579 76.8276C41.6278 76.8276 41.594 76.8238 41.5638 76.8238C41.2064 76.82 40.8526 76.8126 40.5064 76.8012C40.4762 76.8012 40.4424 76.8012 40.4123 76.7975C40.0511 76.7899 39.7011 76.7825 39.3548 76.7711C39.3247 76.7711 39.2909 76.7673 39.2607 76.7673C38.8995 76.7559 38.5457 76.7447 38.1995 76.7295C38.1656 76.7258 38.1356 76.7258 38.1054 76.7258C37.7442 76.7108 37.3904 76.6956 37.048 76.6768C37.0178 76.6768 36.984 76.673 36.9539 76.673C36.5889 76.6542 36.2352 76.6317 35.8964 76.6129C35.8663 76.6091 35.8325 76.6091 35.8023 76.6091C35.4335 76.5827 35.0797 76.5565 34.7411 76.5302C34.7109 76.5302 34.6772 76.5264 34.647 76.5226C34.2744 76.4962 33.9208 76.4624 33.5896 76.4285C33.5556 76.4285 33.5256 76.4247 33.4955 76.4209C33.1079 76.3833 32.7541 76.342 32.4342 76.2968C32.4003 76.2968 32.3703 76.2892 32.3401 76.2854C31.9262 76.2291 31.5724 76.1688 31.2827 76.1086C31.2487 76.101 31.2188 76.0936 31.1886 76.0861C30.658 75.9656 30.3721 75.8377 30.3721 75.7023V73.7756H58.7464V73.7754Z" fill="#FFE58F"/>
<path d="M31.2845 73.7756V76.1087C31.2506 76.1011 31.2206 76.0937 31.1904 76.0861V73.7756H31.2845Z" fill="#FFD666"/>
<path d="M32.4359 73.7756V76.2969C32.4019 76.2969 32.372 76.2893 32.3418 76.2855V73.7756H32.4359Z" fill="#FFD666"/>
<path d="M33.5912 73.7756V76.4286C33.5572 76.4286 33.5272 76.4248 33.4971 76.421V73.7756H33.5912Z" fill="#FFD666"/>
<path d="M34.7425 73.7756V76.53C34.7124 76.53 34.6786 76.5262 34.6484 76.5224V73.7754L34.7425 73.7756Z" fill="#FFD666"/>
<path d="M35.8978 73.4895V76.6127C35.8676 76.6089 35.8339 76.6089 35.8037 76.6089V73.4895H35.8978Z" fill="#FFD666"/>
<path d="M37.0492 73.4895V76.6768C37.019 76.6768 36.9852 76.673 36.9551 76.673V73.4895H37.0492Z" fill="#FFD666"/>
<path d="M38.2005 73.4895V76.7294C38.1666 76.7256 38.1366 76.7256 38.1064 76.7256V73.4895H38.2005Z" fill="#FFD666"/>
<path d="M39.3558 73.4895V76.7709C39.3257 76.7709 39.2919 76.7671 39.2617 76.7671V73.4895H39.3558Z" fill="#FFD666"/>
<path d="M40.5082 73.4895V76.8009C40.478 76.8009 40.4442 76.8009 40.4141 76.7971V73.4895H40.5082Z" fill="#FFD666"/>
<path d="M41.6595 73.4895V76.8273C41.6294 76.8273 41.5956 76.8235 41.5654 76.8235V73.4895H41.6595Z" fill="#FFD666"/>
<path d="M42.8148 73.4895V76.8387C42.7846 76.8424 42.7509 76.8424 42.7207 76.8387V73.4895H42.8148Z" fill="#FFD666"/>
<path d="M43.8382 73.4895V76.8461C43.8081 76.8499 43.7743 76.8499 43.7441 76.8461V73.4895H43.8382Z" fill="#FFD666"/>
<path d="M44.9897 73.4895V76.8461C44.9596 76.8499 44.9296 76.8499 44.8994 76.8499V73.4895H44.9897Z" fill="#FFD666"/>
<path d="M46.1449 73.4895H46.0508V76.8423H46.1449V73.4895Z" fill="#FFD666"/>
<path d="M47.2962 73.4895V76.8273C47.2661 76.8273 47.2361 76.8311 47.2021 76.8311V73.4895H47.2962Z" fill="#FFD666"/>
<path d="M48.4515 73.4895V76.8047C48.4214 76.8085 48.3876 76.8085 48.3574 76.8085V73.4895H48.4515Z" fill="#FFD666"/>
<path d="M49.6029 73.4895V76.7745C49.5727 76.7783 49.5389 76.7783 49.5088 76.7783V73.4895H49.6029Z" fill="#FFD666"/>
<path d="M50.7543 73.4895V76.737C50.7241 76.737 50.6903 76.737 50.6602 76.7408V73.4895H50.7543Z" fill="#FFD666"/>
<path d="M51.9095 73.4895V76.6842C51.8794 76.688 51.8494 76.688 51.8154 76.688V73.4895H51.9095Z" fill="#FFD666"/>
<path d="M53.0619 73.4895V76.6241C53.0317 76.6241 53.0016 76.6241 52.9678 76.6279V73.4895H53.0619Z" fill="#FFD666"/>
<path d="M54.2162 73.4895V76.545C54.186 76.545 54.156 76.5488 54.1221 76.5526V73.4895H54.2162Z" fill="#FFD666"/>
<path d="M55.3685 73.4895V76.4473C55.3383 76.4511 55.3046 76.4549 55.2744 76.4549V73.4895H55.3685Z" fill="#FFD666"/>
<path d="M56.4252 73.4895V76.3344C56.395 76.3382 56.365 76.342 56.3311 76.3458V73.4895H56.4252Z" fill="#FFD666"/>
<path d="M57.7689 73.4895V76.1236C57.7387 76.1274 57.705 76.135 57.6748 76.1424V73.4895H57.7689Z" fill="#FFD666"/>
<path d="M58.7468 73.7772C58.7468 74.5201 52.3949 75.1223 44.5595 75.1223C36.724 75.1223 30.3721 74.52 30.3721 73.7772C30.3721 73.0343 36.724 72.4321 44.5595 72.4321C52.3949 72.4321 58.7468 73.0344 58.7468 73.7772Z" fill="#FAAD14"/>
<path d="M44.5596 74.8811C38.3142 74.8811 31.6768 74.5056 31.6768 73.8091C31.6768 73.1128 38.3142 72.7373 44.5596 72.7373C50.805 72.7373 57.443 73.1128 57.443 73.8091C57.443 74.5056 50.805 74.8811 44.5596 74.8811ZM44.5596 72.8314C37.0231 72.8314 31.7707 73.3467 31.7707 73.8091C31.7707 74.2719 37.0231 74.7872 44.5596 74.7872C52.0965 74.7872 57.3489 74.2719 57.3489 73.8091C57.3489 73.3467 52.0965 72.8314 44.5596 72.8314Z" fill="#FFD666"/>
<path d="M58.7464 71.4375V73.3642C58.7464 73.511 58.4002 73.6539 57.7681 73.7857C57.7379 73.7895 57.7042 73.7969 57.674 73.8045C57.3316 73.8722 56.9138 73.9362 56.4247 73.9965C56.3946 74.0003 56.3646 74.0041 56.3307 74.0077C56.0334 74.0416 55.7135 74.0754 55.3673 74.1094C55.3371 74.1132 55.3034 74.117 55.2732 74.117C54.9384 74.1471 54.5846 74.1771 54.2158 74.2073C54.1856 74.2073 54.1556 74.2111 54.1217 74.2148C53.783 74.2374 53.4292 74.2638 53.0604 74.2864C53.0303 74.2864 53.0001 74.2864 52.9663 74.2902C52.6277 74.3089 52.2739 74.3277 51.9089 74.3465C51.8787 74.3503 51.8487 74.3503 51.8148 74.3503C51.4724 74.3691 51.1149 74.3842 50.7536 74.3992C50.7234 74.3992 50.6896 74.3992 50.6595 74.403C50.3132 74.4144 49.9632 74.4256 49.602 74.437C49.5719 74.4408 49.5381 74.4408 49.5079 74.4408C49.1617 74.4521 48.8081 74.4596 48.4505 74.4671C48.4203 74.4709 48.3865 74.4709 48.3564 74.4709C48.0065 74.4785 47.6527 74.4859 47.2952 74.4897C47.265 74.4897 47.235 74.4935 47.2011 74.4935C46.8548 74.4973 46.5012 74.5011 46.1436 74.5049H46.0495C45.6995 74.5087 45.3459 74.5125 44.9883 74.5087C44.9581 74.5125 44.9281 74.5125 44.898 74.5125H44.5593C44.3186 74.5125 44.0777 74.5125 43.8367 74.5087C43.8066 74.5125 43.7728 74.5125 43.7426 74.5087C43.4304 74.5087 43.1179 74.5087 42.8132 74.5011C42.7831 74.5049 42.7493 74.5049 42.7192 74.5011C42.3616 74.4973 42.0079 74.4935 41.6579 74.4897C41.6278 74.4897 41.594 74.4859 41.5638 74.4859C41.2064 74.4821 40.8526 74.4747 40.5064 74.4633C40.4762 74.4633 40.4424 74.4633 40.4123 74.4596C40.0511 74.452 39.7011 74.4446 39.3548 74.4332C39.3247 74.4332 39.2909 74.4294 39.2607 74.4294C38.8995 74.418 38.5457 74.4068 38.1995 74.3918C38.1656 74.388 38.1356 74.388 38.1054 74.388C37.7442 74.373 37.3904 74.3579 37.048 74.3391C37.0178 74.3391 36.984 74.3353 36.9539 74.3353C36.5889 74.3165 36.2352 74.2939 35.8964 74.2752C35.8663 74.2714 35.8325 74.2714 35.8023 74.2714C35.4335 74.245 35.0797 74.2186 34.7411 74.1924C34.7109 74.1924 34.6772 74.1886 34.647 74.1849C34.2744 74.1585 33.9208 74.1247 33.5896 74.0908C33.5556 74.0908 33.5256 74.087 33.4955 74.0832C33.1079 74.0456 32.7541 74.0041 32.4342 73.9589C32.4003 73.9589 32.3703 73.9513 32.3401 73.9476C31.9262 73.8912 31.5724 73.8309 31.2827 73.7707C31.2487 73.7632 31.2188 73.7556 31.1886 73.7482C30.658 73.6277 30.3721 73.4998 30.3721 73.3644V71.4377L58.7464 71.4375Z" fill="#FFE58F"/>
<path d="M31.2845 71.4375V73.7706C31.2506 73.763 31.2206 73.7554 31.1904 73.748V71.4375H31.2845Z" fill="#FFD666"/>
<path d="M32.4359 71.4375V73.9588C32.4019 73.9588 32.372 73.9512 32.3418 73.9474V71.4375H32.4359Z" fill="#FFD666"/>
<path d="M33.5912 71.4375V74.0904C33.5572 74.0904 33.5272 74.0866 33.4971 74.0828V71.4375H33.5912Z" fill="#FFD666"/>
<path d="M34.7425 71.4375V74.1921C34.7124 74.1921 34.6786 74.1883 34.6484 74.1845V71.4375H34.7425Z" fill="#FFD666"/>
<path d="M35.8978 71.1516V74.275C35.8676 74.2712 35.8339 74.2712 35.8037 74.2712V71.1516H35.8978Z" fill="#FFD666"/>
<path d="M37.0492 71.1516V74.3389C37.019 74.3389 36.9852 74.3351 36.9551 74.3351V71.1516H37.0492Z" fill="#FFD666"/>
<path d="M38.2005 71.1515V74.3914C38.1666 74.3876 38.1366 74.3876 38.1064 74.3876V71.1514H38.2005V71.1515Z" fill="#FFD666"/>
<path d="M39.3558 71.1516V74.433C39.3257 74.433 39.2919 74.4292 39.2617 74.4292V71.1516H39.3558Z" fill="#FFD666"/>
<path d="M40.5082 71.1516V74.463C40.478 74.463 40.4442 74.463 40.4141 74.4592V71.1516H40.5082Z" fill="#FFD666"/>
<path d="M41.6595 71.1516V74.4894C41.6294 74.4894 41.5956 74.4856 41.5654 74.4856V71.1516H41.6595Z" fill="#FFD666"/>
<path d="M42.8148 71.1516V74.5008C42.7846 74.5046 42.7509 74.5046 42.7207 74.5008V71.1516H42.8148Z" fill="#FFD666"/>
<path d="M43.8382 71.1516V74.5082C43.8081 74.512 43.7743 74.512 43.7441 74.5082V71.1516H43.8382Z" fill="#FFD666"/>
<path d="M44.9897 71.1516V74.5082C44.9596 74.512 44.9296 74.512 44.8994 74.512V71.1516H44.9897Z" fill="#FFD666"/>
<path d="M46.1449 71.1516H46.0508V74.5046H46.1449V71.1516Z" fill="#FFD666"/>
<path d="M47.2962 71.1516V74.4894C47.2661 74.4894 47.2361 74.4932 47.2021 74.4932V71.1516H47.2962Z" fill="#FFD666"/>
<path d="M48.4515 71.1516V74.4668C48.4214 74.4706 48.3876 74.4706 48.3574 74.4706V71.1516H48.4515Z" fill="#FFD666"/>
<path d="M49.6029 71.1516V74.4366C49.5727 74.4404 49.5389 74.4404 49.5088 74.4404V71.1516H49.6029Z" fill="#FFD666"/>
<path d="M50.7543 71.1516V74.3991C50.7241 74.3991 50.6903 74.3991 50.6602 74.4029V71.1516H50.7543Z" fill="#FFD666"/>
<path d="M51.9095 71.1516V74.3463C51.8794 74.3501 51.8494 74.3501 51.8154 74.3501V71.1516H51.9095Z" fill="#FFD666"/>
<path d="M53.0619 71.1516V74.2862C53.0317 74.2862 53.0016 74.2862 52.9678 74.29V71.1516H53.0619Z" fill="#FFD666"/>
<path d="M54.2162 71.1516V74.2073C54.186 74.2073 54.156 74.2111 54.1221 74.2149V71.1518L54.2162 71.1516Z" fill="#FFD666"/>
<path d="M55.3685 71.1516V74.1094C55.3383 74.1132 55.3046 74.117 55.2744 74.117V71.1516H55.3685Z" fill="#FFD666"/>
<path d="M56.4252 71.1516V73.9965C56.395 74.0003 56.365 74.0041 56.3311 74.0077V71.1516H56.4252Z" fill="#FFD666"/>
<path d="M57.7689 71.1516V73.7857C57.7387 73.7895 57.705 73.7969 57.6748 73.8045V71.1516H57.7689Z" fill="#FFD666"/>
<path d="M58.7468 71.4393C58.7468 72.1822 52.3949 72.7844 44.5595 72.7844C36.724 72.7844 30.3721 72.1822 30.3721 71.4393C30.3721 70.6964 36.724 70.0942 44.5595 70.0942C52.3949 70.0942 58.7468 70.6965 58.7468 71.4393Z" fill="#FAAD14"/>
<path d="M44.5596 72.5435C38.3142 72.5435 31.6768 72.168 31.6768 71.4714C31.6768 70.7753 38.3142 70.3997 44.5596 70.3997C50.805 70.3997 57.443 70.7752 57.443 71.4714C57.443 72.1678 50.805 72.5435 44.5596 72.5435ZM44.5596 70.4936C37.0231 70.4936 31.7707 71.0089 31.7707 71.4712C31.7707 71.9341 37.0231 72.4494 44.5596 72.4494C52.0965 72.4494 57.3489 71.9341 57.3489 71.4712C57.3489 71.0089 52.0965 70.4936 44.5596 70.4936Z" fill="#FFD666"/>
<path d="M39.5368 15.4316L39.7398 13.1312C39.7481 13.0371 39.8822 13.028 39.903 13.1202L40.4052 15.3302C40.4767 15.6447 40.7461 15.8752 41.0679 15.897L43.338 16.0516C43.4311 16.058 43.4442 16.1897 43.354 16.2141L41.1518 16.8144C40.8631 16.8931 40.6517 17.1399 40.6181 17.4372L40.3397 19.908C40.3291 20.0021 40.1943 20.0074 40.1762 19.9145L39.7426 17.68C39.6807 17.3612 39.4159 17.1216 39.0926 17.0918L36.5775 16.8037C36.5237 16.7975 36.5184 16.7215 36.5706 16.7079L38.9747 16.0789C39.2823 16.0072 39.5089 15.7461 39.5368 15.4316Z" fill="#FFD666"/>
<path d="M85.731 42.5843L85.934 40.284C85.9423 40.1901 86.0763 40.1808 86.0972 40.273L86.5994 42.483C86.6709 42.7975 86.9402 43.0279 87.262 43.0498L89.5322 43.2044C89.6252 43.2108 89.6383 43.3424 89.5484 43.3669L87.3461 43.9671C87.0574 44.0459 86.8458 44.2927 86.8124 44.5901L86.534 47.0607C86.5234 47.1548 86.3886 47.1603 86.3705 47.0673L85.9369 44.8328C85.875 44.514 85.6102 44.2744 85.2869 44.2446L82.7718 43.9565C82.718 43.9503 82.7127 43.8743 82.7651 43.8606L85.1692 43.2316C85.4764 43.1598 85.7031 42.8987 85.731 42.5843Z" fill="#FFD666"/>
<path d="M13.5484 43.1747L13.7514 40.8743C13.7596 40.7804 13.8937 40.7711 13.9146 40.8633L14.4167 43.0733C14.4883 43.3878 14.7576 43.6183 15.0794 43.6401L17.3495 43.7947C17.4426 43.8011 17.4557 43.9328 17.3657 43.9572L15.1635 44.5575C14.8748 44.6362 14.6632 44.883 14.6298 45.1805L14.3514 47.6511C14.3407 47.7452 14.206 47.7507 14.1879 47.6576L13.7543 45.4231C13.6924 45.1043 13.4275 44.8648 13.1042 44.8349L10.5892 44.5468C10.5354 44.5406 10.5301 44.4646 10.5825 44.451L12.9865 43.822C13.294 43.7501 13.5206 43.489 13.5484 43.1747Z" fill="#FFD666"/>
<path d="M65.156 80.3404L65.359 78.04C65.3673 77.9461 65.5013 77.937 65.5222 78.029L66.0244 80.239C66.0959 80.5536 66.3652 80.784 66.687 80.8058L68.9572 80.9604C69.0502 80.9668 69.0633 81.0983 68.9732 81.1229L66.7709 81.7232C66.4823 81.8019 66.2708 82.0487 66.2372 82.346L65.9589 84.8168C65.9482 84.9109 65.8134 84.9162 65.7953 84.8233L65.3617 82.5888C65.2999 82.27 65.035 82.0305 64.7117 82.0006L62.1966 81.7125C62.1429 81.7063 62.1375 81.6303 62.1898 81.6167L64.5938 80.9877C64.9016 80.9158 65.1282 80.6547 65.156 80.3404Z" fill="#FFD666"/>
<path d="M26.236 65.3338L26.439 63.0335C26.4473 62.9394 26.5814 62.9305 26.6022 63.0225L27.1044 65.2325C27.1759 65.547 27.4453 65.7774 27.767 65.7993L30.0372 65.9539C30.1303 65.9603 30.1434 66.0918 30.0534 66.1164L27.851 66.7167C27.5623 66.7954 27.3507 67.0422 27.3173 67.3395L27.0389 69.8101C27.0284 69.9042 26.8935 69.9097 26.8754 69.8166L26.4418 67.5821C26.3799 67.2633 26.115 67.0238 25.7917 66.9939L23.2767 66.7058C23.2229 66.6996 23.2176 66.6236 23.27 66.61L25.674 65.981C25.9815 65.9093 26.2081 65.6482 26.236 65.3338Z" fill="#FFD666"/>
<path d="M54.4431 29.0475L54.7071 26.0562C54.7178 25.9339 54.8922 25.9222 54.9193 26.0418L55.5724 28.9154C55.6655 29.3244 56.0157 29.6241 56.4341 29.6525L59.3862 29.8535C59.5073 29.8617 59.5242 30.0329 59.4072 30.0647L56.5433 30.8454C56.168 30.9478 55.893 31.2687 55.8494 31.6554L55.4875 34.8681C55.4737 34.9906 55.2982 34.9975 55.2748 34.8765L54.7111 31.9708C54.6306 31.5561 54.2863 31.2447 53.8658 31.2059L50.5954 30.8313C50.5254 30.8232 50.5185 30.7244 50.5866 30.7067L53.7127 29.8886C54.1122 29.7959 54.4069 29.4564 54.4431 29.0475Z" fill="#FFD666"/>
<path d="M56.643 15.7731C56.643 16.67 55.9161 17.3969 55.0192 17.3969C54.1224 17.3969 53.3955 16.67 53.3955 15.7731C53.3955 14.8763 54.1224 14.1494 55.0192 14.1494C55.9161 14.1494 56.643 14.8763 56.643 15.7731Z" fill="#FFD666"/>
<path d="M15.9021 64.7802C16.7988 64.7802 17.5258 64.0532 17.5258 63.1565C17.5258 62.2597 16.7988 61.5327 15.9021 61.5327C15.0053 61.5327 14.2783 62.2597 14.2783 63.1565C14.2783 64.0532 15.0053 64.7802 15.9021 64.7802Z" fill="#FFD666"/>
<path d="M42.9148 63.4516C43.8115 63.4516 44.5385 62.7246 44.5385 61.8278C44.5385 60.9311 43.8115 60.2041 42.9148 60.2041C42.018 60.2041 41.291 60.9311 41.291 61.8278C41.291 62.7246 42.018 63.4516 42.9148 63.4516Z" fill="#FFD666"/>
<path d="M50.0007 90.0219C50.8975 90.0219 51.6244 89.2949 51.6244 88.3981C51.6244 87.5014 50.8975 86.7744 50.0007 86.7744C49.1039 86.7744 48.377 87.5014 48.377 88.3981C48.377 89.2949 49.1039 90.0219 50.0007 90.0219Z" fill="#FFD666"/>
<path d="M30.3676 17.6921C30.3676 18.5889 29.6407 19.3158 28.7439 19.3158C27.847 19.3158 27.1201 18.5889 27.1201 17.6921C27.1201 16.7953 27.847 16.0684 28.7439 16.0684C29.6405 16.0684 30.3676 16.7953 30.3676 17.6921Z" fill="#FFD666"/>
</g>
<defs>
<radialGradient id="paint0_radial_1999_4042" cx="0" cy="0" r="1" gradientUnits="userSpaceOnUse" gradientTransform="translate(50.0005 50) rotate(90) scale(44.1176)">
<stop stop-color="#E6F4FF"/>
<stop offset="1" stop-color="#E6F4FF" stop-opacity="0.5"/>
</radialGradient>
<clipPath id="clip0_1999_4042">
<rect width="100" height="100" fill="white"/>
</clipPath>
</defs>
</svg>
