<svg width="250" height="101" viewBox="0 0 250 101" fill="none" xmlns="http://www.w3.org/2000/svg">
<path d="M54.6974 33.1539C60.3348 33.0339 65.606 35.2005 69.6708 39.0423C73.6264 42.936 75.67 48.1801 75.737 53.6978C75.6825 58.559 73.9439 63.3664 70.711 67.0175C70.5952 67.151 70.4794 67.2845 70.36 67.4221C67.1707 71.0418 62.49 73.5183 57.6817 74.0577C57.6817 73.9683 57.6817 73.879 57.6817 73.7869C57.8376 73.7229 57.9935 73.6588 58.1541 73.5928C59.5209 73.018 60.7138 72.3992 61.8891 71.4853C61.9623 71.429 62.0356 71.3726 62.111 71.3146C65.5417 68.6488 67.7415 64.5677 68.3353 60.2798C68.5921 57.987 68.5511 55.5888 67.9966 53.3432C67.9583 53.1855 67.9583 53.1855 67.9192 53.0245C66.6183 47.8512 63.3254 43.3653 58.785 40.558C54.8141 38.1874 49.9811 37.2495 45.4503 38.3405C42.7281 39.0438 40.4313 40.3083 38.2734 42.106C38.2734 40.9853 39.8835 39.711 40.6602 38.9112C41.1836 38.3932 41.7565 37.9439 42.3451 37.5027C42.5361 37.3574 42.5361 37.3574 42.7311 37.2092C46.2496 34.6537 50.3678 33.3276 54.6974 33.1539Z" fill="white"/>
<path d="M60.6864 24.6869C61.691 25.5802 62.7248 26.5304 63.5177 27.6193C63.4729 27.7086 63.4281 27.798 63.382 27.89C63.27 27.8049 63.158 27.7197 63.0427 27.6319C59.3798 24.9017 55.0576 23.7617 50.5059 24.3033C45.6269 25.0153 41.0478 27.7655 38.0845 31.6796C34.8772 36.026 33.3166 41.3687 34.0915 46.7429C34.7098 50.5391 36.3816 53.8515 39.0877 56.5924C39.2002 56.708 39.3127 56.8235 39.4286 56.9426C40.9047 58.3722 42.705 59.3805 44.6227 60.0984C45.319 60.3595 45.319 60.3595 45.4667 60.6541C39.8834 60.1394 34.9709 57.4989 31.2657 53.3246C27.4552 48.7269 26.1217 43.0446 26.6421 37.1786C26.748 36.3676 26.9218 35.5815 27.1442 34.7949C27.1733 34.6906 27.2024 34.5863 27.2323 34.4789C28.0944 31.4867 29.5591 28.6853 31.7375 26.4362C32.0379 26.131 32.0379 26.131 32.3106 25.7788C32.707 25.2868 33.1717 24.9058 33.6588 24.5053C33.7864 24.4001 33.9139 24.2948 34.0453 24.1864C36.4901 22.216 39.42 20.8583 42.4808 20.1729C42.5773 20.1507 42.6738 20.1285 42.7732 20.1057C49.0808 18.7199 55.805 20.5398 60.6864 24.6869Z" fill="white"/>
<path d="M57.818 44.9491C58.3133 45.396 58.469 45.8994 58.6917 46.5145C58.7332 46.628 58.7747 46.7415 58.8175 46.8585C59.611 49.0991 59.8856 51.3061 59.8878 53.6732C59.8879 53.7765 59.8881 53.8797 59.8882 53.9861C59.8869 55.4832 59.8219 56.896 59.4467 58.3526C59.3924 58.5984 59.3924 58.5984 59.337 58.8492C58.4788 62.4598 56.546 65.5609 54.0178 68.236C53.9282 68.334 53.8387 68.4321 53.7464 68.5332C50.271 72.197 45.0843 74.1928 40.0878 74.3586C34.1697 74.4817 29.1448 72.3616 24.8376 68.3713C24.7555 68.2968 24.6735 68.2223 24.5889 68.1455C21.5418 65.2625 19.6286 60.9581 19.0015 56.8633C18.9767 56.7059 18.9518 56.5485 18.9262 56.3863C18.5697 53.4188 18.8893 50.4523 19.6801 47.5892C19.7139 47.4668 19.7477 47.3445 19.7825 47.2184C19.8326 47.048 19.8326 47.048 19.8837 46.8742C19.9278 46.7232 19.9278 46.7232 19.9728 46.5693C20.1005 46.2724 20.253 46.1086 20.4945 45.8968C20.4847 45.9858 20.4749 46.0748 20.4648 46.1665C19.9862 51.0603 21.1724 55.4622 24.2934 59.3029C25.5088 60.7636 26.9082 61.9279 28.5021 62.9558C28.6894 63.0788 28.6894 63.0788 28.8806 63.2044C33.1673 65.8664 38.6762 66.5995 43.5672 65.5282C47.4695 64.6064 50.8353 62.7524 53.6106 59.8419C53.6978 59.7542 53.7849 59.6666 53.8747 59.5764C56.6553 56.6673 58.1567 52.6117 58.1234 48.6215C58.1229 48.4684 58.1224 48.3153 58.1218 48.1575C58.1105 47.0678 58.0365 46.0192 57.818 44.9491Z" fill="white"/>
<path d="M119.163 27.7546C120.462 27.7546 121.761 27.7546 123.099 27.7546C122.965 28.7376 122.831 29.7205 122.692 30.7332C124.17 30.8002 124.17 30.8002 125.678 30.8686C125.606 31.9914 125.475 32.9982 125.271 34.1179C124.241 34.1179 123.211 34.1179 122.149 34.1179C122.113 34.4614 122.077 34.8048 122.039 35.1587C121.962 35.8773 121.875 36.5927 121.764 37.3069C121.736 37.4934 121.736 37.4934 121.707 37.6837C121.669 37.9238 121.63 38.1637 121.59 38.4034C121.475 39.1428 121.381 39.8892 121.606 40.6166C122.095 41.0837 122.622 41.0852 123.278 41.1158C123.448 41.1247 123.618 41.1336 123.793 41.1428C123.923 41.1478 124.052 41.1529 124.185 41.1581C124.166 41.5474 124.146 41.9366 124.126 42.3259C124.12 42.4353 124.115 42.5447 124.11 42.6574C124.078 43.2501 124.027 43.8233 123.914 44.4075C122.514 44.8727 120.603 44.623 119.299 44.0013C118.339 43.3805 117.771 42.5958 117.492 41.4966C117.218 39.7998 117.623 37.9745 117.883 36.2926C117.915 36.0801 117.947 35.8676 117.979 35.655C118.056 35.1425 118.135 34.6302 118.213 34.1179C117.497 34.1179 116.78 34.1179 116.042 34.1179C116.087 33.4031 116.131 32.6882 116.178 31.9517C115.247 33.712 114.322 35.4752 113.4 37.24C112.992 38.0211 112.583 38.802 112.174 39.5829C111.832 40.2384 111.489 40.8939 111.146 41.5495C110.462 42.8598 109.775 44.1693 109.085 45.4766C108.415 46.7436 107.75 48.0126 107.084 49.2815C105.651 49.2815 104.218 49.2815 102.741 49.2815C103.727 47.2784 103.727 47.2784 104.236 46.4066C104.305 46.288 104.373 46.1695 104.444 46.0473C104.579 45.8154 104.716 45.5849 104.856 45.3558C104.918 45.2481 104.98 45.1404 105.045 45.0294C105.101 44.9354 105.157 44.8414 105.215 44.7446C105.473 43.9137 105.094 42.8935 104.882 42.0726C104.852 41.9525 104.821 41.8323 104.79 41.7086C104.69 41.315 104.589 40.9216 104.488 40.5282C104.418 40.2539 104.348 39.9796 104.279 39.7052C104.096 38.9855 103.912 38.266 103.728 37.5466C103.433 36.3918 103.139 35.2367 102.844 34.0816C102.741 33.6777 102.638 33.2738 102.535 32.87C102.472 32.6243 102.41 32.3787 102.347 32.1331C102.318 32.0201 102.289 31.9071 102.259 31.7906C102.062 31.0193 102.062 31.0193 102.062 30.8686C103.406 30.8686 104.75 30.8686 106.134 30.8686C106.26 31.4209 106.386 31.9733 106.515 32.5424C106.616 32.9828 106.716 33.4231 106.817 33.8634C106.923 34.3282 107.029 34.7931 107.134 35.258C107.256 35.7913 107.378 36.3246 107.499 36.8579C107.537 37.0247 107.575 37.1914 107.614 37.3631C107.649 37.5176 107.685 37.6721 107.721 37.8312C107.752 37.9674 107.783 38.1036 107.815 38.2439C107.897 38.5995 107.897 38.5995 108.034 38.9919C108.076 38.9069 108.119 38.822 108.162 38.7344C109.039 36.9716 109.928 35.2167 110.855 33.4793C111.087 33.0443 111.318 32.6088 111.549 32.1733C111.78 31.7382 112.011 31.3034 112.242 30.8686C112.436 30.8656 112.436 30.8656 112.633 30.8626C113.118 30.8547 113.603 30.8442 114.088 30.833C114.297 30.8286 114.506 30.8248 114.715 30.8217C116.645 30.8292 116.645 30.8292 118.341 30.0055C118.906 29.2874 118.956 28.6855 119.163 27.7546Z" fill="white"/>
<path d="M151.195 31.2664C151.591 31.5544 151.954 31.8547 152.28 32.2226C152.336 32.1702 152.392 32.1178 152.45 32.0639C153.846 30.8078 155.44 30.4163 157.302 30.4625C158.512 30.6042 159.611 31.0233 160.399 31.9809C161.621 33.7459 161.369 35.4655 161.077 37.4858C161.045 37.7131 161.014 37.9403 160.982 38.1676C160.919 38.6268 160.854 39.0858 160.789 39.5448C160.701 40.1665 160.616 40.7886 160.533 41.411C160.486 41.7668 160.438 42.1225 160.39 42.4783C160.357 42.7256 160.357 42.7256 160.323 42.978C160.302 43.1279 160.282 43.2778 160.26 43.4323C160.243 43.5627 160.225 43.693 160.207 43.8273C160.152 44.1368 160.152 44.1368 160.016 44.4075C158.762 44.4075 157.508 44.4075 156.216 44.4075C156.298 43.3431 156.384 42.3098 156.543 41.2592C156.58 41.0071 156.617 40.7549 156.653 40.5027C156.71 40.1147 156.768 39.7268 156.826 39.339C157.306 36.9874 157.306 36.9874 156.937 34.7103C156.439 34.1996 156.039 34.1048 155.343 34.0757C154.558 34.099 154.037 34.3623 153.476 34.905C152.34 36.3782 152.43 39.1476 152.195 40.9298C152.132 41.4082 152.069 41.8866 152.005 42.3649C151.965 42.6608 151.926 42.9567 151.887 43.2527C151.87 43.3848 151.852 43.5169 151.834 43.653C151.818 43.7697 151.803 43.8863 151.787 44.0065C151.737 44.2722 151.737 44.2722 151.602 44.4075C151.32 44.4194 151.039 44.422 150.757 44.4208C150.501 44.4201 150.501 44.4201 150.239 44.4194C150.057 44.4183 149.875 44.4172 149.693 44.416C149.511 44.4153 149.328 44.4147 149.146 44.4142C148.698 44.4126 148.25 44.4103 147.801 44.4075C147.863 43.3902 147.986 42.3868 148.129 41.3782C148.147 41.2513 148.164 41.1245 148.183 40.9937C148.258 40.4638 148.334 39.9339 148.411 39.4042C148.893 37.0191 148.893 37.0191 148.523 34.7103C148.024 34.1996 147.624 34.1048 146.928 34.0757C146.143 34.099 145.622 34.3623 145.062 34.905C143.925 36.3782 144.016 39.1476 143.781 40.9298C143.717 41.4082 143.654 41.8866 143.59 42.3649C143.55 42.6608 143.511 42.9567 143.472 43.2527C143.446 43.4509 143.446 43.4509 143.419 43.653C143.403 43.7697 143.388 43.8863 143.372 44.0065C143.323 44.2722 143.323 44.2722 143.187 44.4075C142.906 44.4194 142.624 44.422 142.342 44.4208C142.086 44.4201 142.086 44.4201 141.824 44.4194C141.642 44.4183 141.46 44.4172 141.278 44.416C141.096 44.4153 140.913 44.4147 140.731 44.4142C140.283 44.4126 139.835 44.4102 139.387 44.4075C139.559 42.6841 139.766 40.9689 140.006 39.2538C140.039 39.0183 140.072 38.7828 140.105 38.5474C140.173 38.0603 140.241 37.5733 140.309 37.0863C140.397 36.4616 140.483 35.8369 140.57 35.2121C140.637 34.7287 140.705 34.2455 140.772 33.7622C140.805 33.5316 140.837 33.3009 140.869 33.0703C140.913 32.7505 140.958 32.4308 141.003 32.1112C141.016 32.0162 141.029 31.9212 141.042 31.8233C141.136 31.1704 141.136 31.1704 141.287 30.8687C142.451 30.8687 143.616 30.8687 144.816 30.8687C144.883 31.2708 144.883 31.2708 144.951 31.681C145.021 31.6271 145.09 31.5732 145.161 31.5176C146.944 30.2214 149.31 30.0433 151.195 31.2664Z" fill="white"/>
<path d="M93.7838 25.8593C95.5306 25.8593 97.2773 25.8593 99.077 25.8593C99.1646 26.3003 99.2522 26.7414 99.3425 27.1958C99.6339 28.663 99.9254 30.1301 100.217 31.5972C100.393 32.4856 100.57 33.374 100.746 34.2624C100.917 35.1218 101.088 35.9813 101.258 36.8407C101.323 37.1664 101.388 37.4922 101.453 37.818C101.514 38.1288 101.576 38.4396 101.638 38.7505C101.697 39.0464 101.755 39.3424 101.814 39.6384C101.949 40.32 102.086 41.0012 102.227 41.6815C102.253 41.8054 102.279 41.9292 102.305 42.0569C102.352 42.2854 102.4 42.5138 102.449 42.742C102.48 42.8936 102.48 42.8936 102.512 43.0484C102.539 43.1783 102.539 43.1783 102.567 43.3108C102.616 43.6733 102.606 44.0417 102.606 44.4075C101.262 44.4075 99.9185 44.4075 98.5341 44.4075C98.3364 43.7171 98.1723 43.0608 98.0421 42.3598C98.0148 42.2197 98.0148 42.2197 97.987 42.0768C97.8924 41.5732 97.8555 41.1338 97.8555 40.6166C95.6609 40.6166 93.4663 40.6166 91.2051 40.6166C91.1156 40.8847 91.026 41.1528 90.9337 41.429C90.8315 41.6629 90.7253 41.8952 90.6151 42.1255C90.5553 42.2505 90.4956 42.3756 90.434 42.5044C90.3722 42.6326 90.3103 42.7608 90.2466 42.8928C90.153 43.0891 90.153 43.0891 90.0576 43.2892C89.5949 44.2538 89.5949 44.2538 89.4407 44.4075C89.1085 44.4195 88.78 44.4231 88.4477 44.4207C88.3485 44.4205 88.2493 44.4203 88.1471 44.4202C87.829 44.4194 87.5109 44.4177 87.1928 44.416C86.9777 44.4153 86.7625 44.4147 86.5474 44.4141C86.0189 44.4126 85.4904 44.4103 84.9619 44.4075C85.1418 43.835 85.3594 43.3054 85.623 42.7665C85.7002 42.608 85.7773 42.4496 85.8568 42.2864C85.8975 42.2033 85.9383 42.1201 85.9803 42.0345C86.1096 41.7707 86.2384 41.5066 86.3669 41.2424C86.5412 40.8843 86.7156 40.5263 86.8902 40.1684C87.2169 39.4982 87.5406 38.8265 87.863 38.1542C87.9218 38.0316 87.9807 37.9089 88.0413 37.7826C88.4025 37.028 88.7601 36.2719 89.1158 35.5147C90.1036 33.4119 91.1017 31.3148 92.1213 29.227C92.1737 29.1197 92.2261 29.0124 92.28 28.9019C92.4299 28.5952 92.5798 28.2886 92.7299 27.9821C92.7736 27.8927 92.8174 27.8034 92.8624 27.7113C93.1661 27.0921 93.4748 26.4758 93.7838 25.8593ZM95.8197 30.5979C95.7726 30.6992 95.7256 30.8006 95.6771 30.905C95.4965 31.2939 95.3159 31.6827 95.1351 32.0715C95.0545 32.2451 94.9738 32.4186 94.8932 32.5922C94.4879 33.4645 94.082 34.3364 93.6662 35.2037C93.6095 35.322 93.5528 35.4403 93.4943 35.5621C93.3896 35.7799 93.2844 35.9975 93.1787 36.2148C92.9237 36.7013 92.9237 36.7013 92.8338 37.2319C94.267 37.2319 95.7002 37.2319 97.1769 37.2319C96.9821 35.9686 96.7787 34.7101 96.552 33.4525C96.5158 33.2507 96.48 33.0488 96.4446 32.8468C96.3927 32.5508 96.3396 32.2549 96.2862 31.9592C96.2553 31.7853 96.2243 31.6115 96.1924 31.4323C96.1132 30.9859 96.1132 30.9859 95.8197 30.5979Z" fill="white"/>
<path d="M137.215 31.9518C138.44 33.1044 139.054 34.424 139.14 36.0975C139.156 37.0598 139.083 37.7666 138.843 38.7212C135.708 38.7212 132.573 38.7212 129.343 38.7212C129.891 40.2317 129.891 40.2317 130.953 41.0535C131.797 41.358 133.088 41.3134 133.907 40.9382C134.394 40.6433 134.71 40.2609 135.043 39.8043C135.77 40.0151 136.401 40.3434 137.062 40.7013C137.169 40.7582 137.275 40.8151 137.384 40.8737C137.645 41.0131 137.905 41.1533 138.165 41.2936C137.91 42.4049 137.063 43.1374 136.129 43.7306C134.417 44.7848 132.274 44.9423 130.326 44.5847C128.696 44.1255 127.249 43.2639 126.36 41.7981C125.256 39.7698 125.124 37.6571 125.772 35.4481C126.386 33.5617 127.714 32.0917 129.47 31.1987C131.957 30.0202 135.045 30.1678 137.215 31.9518ZM130.094 34.8827C129.835 35.2354 129.835 35.2354 129.75 35.8781C131.497 35.8781 133.244 35.8781 135.043 35.8781C134.926 34.7401 134.926 34.7401 134.229 33.9826C132.668 33.1175 131.197 33.6115 130.094 34.8827Z" fill="white"/>
<path d="M156.895 51.5831C157.933 51.5705 158.972 51.5609 160.01 51.555C160.492 51.5522 160.975 51.5484 161.457 51.5422C162.013 51.5352 162.569 51.5326 163.125 51.5302C163.296 51.5274 163.467 51.5246 163.643 51.5217C165.08 51.5214 166.192 51.8174 167.252 52.8106C168.043 53.713 168.213 54.7195 168.196 55.8854C168.079 57.3044 167.389 58.1893 166.396 59.1649C166.448 59.2238 166.501 59.2828 166.555 59.3436C167.677 60.6237 168.097 61.5708 168.066 63.2762C167.941 64.7514 167.333 65.9013 166.23 66.8778C164.748 68.0107 163.122 68.1816 161.308 68.1534C161.112 68.1524 160.917 68.1516 160.722 68.1511C160.214 68.149 159.707 68.1437 159.199 68.1377C158.679 68.1321 158.158 68.1297 157.638 68.127C156.621 68.1212 155.604 68.112 154.588 68.1005C155.128 64.0242 155.691 59.9518 156.276 55.8817C156.299 55.7207 156.299 55.7207 156.323 55.5565C156.513 54.232 156.704 52.9075 156.895 51.5831ZM158.931 53.7493C158.881 54.0195 158.838 54.2912 158.799 54.5632C158.775 54.7302 158.751 54.8971 158.726 55.0691C158.701 55.2451 158.677 55.4211 158.651 55.6024C158.626 55.7758 158.601 55.9492 158.574 56.1279C158.551 56.2957 158.527 56.4635 158.502 56.6364C158.48 56.7901 158.458 56.9438 158.436 57.1021C158.39 57.5231 158.379 57.9295 158.388 58.3525C159.062 58.3626 159.735 58.37 160.409 58.3748C160.637 58.3769 160.866 58.3796 161.094 58.3832C163.105 58.4236 163.105 58.4236 164.945 57.6671C165.487 57.0761 165.808 56.4217 165.879 55.6157C165.833 54.905 165.554 54.4902 165.038 54.0201C164.258 53.6682 163.633 53.5554 162.783 53.5695C162.676 53.5697 162.569 53.57 162.46 53.5703C162.237 53.5712 162.014 53.573 161.791 53.5758C161.448 53.5801 161.105 53.5814 160.762 53.5822C160.545 53.5834 160.328 53.5848 160.111 53.5864C160.008 53.587 159.905 53.5876 159.799 53.5882C159.325 53.5522 159.325 53.5522 158.931 53.7493ZM157.981 60.3834C157.884 61.0625 157.787 61.7418 157.691 62.4211C157.658 62.652 157.625 62.8829 157.592 63.1137C157.545 63.4463 157.498 63.7791 157.451 64.1118C157.436 64.2143 157.421 64.3167 157.406 64.4222C157.329 64.9763 157.287 65.5085 157.302 66.0697C158.051 66.0798 158.799 66.0871 159.547 66.092C159.801 66.094 160.055 66.0968 160.309 66.1003C162.836 66.1778 162.836 66.1778 164.954 64.9554C165.608 64.2448 165.771 63.5413 165.754 62.6003C165.678 61.9344 165.437 61.4125 164.915 60.9826C164.279 60.569 163.737 60.3656 162.973 60.368C162.862 60.368 162.75 60.368 162.636 60.368C162.457 60.3691 162.457 60.3691 162.275 60.3701C162.153 60.3703 162.03 60.3705 161.903 60.3707C161.512 60.3715 161.121 60.3732 160.729 60.3749C160.464 60.3756 160.198 60.3762 159.932 60.3767C159.282 60.3782 158.631 60.3806 157.981 60.3834Z" fill="white"/>
<path d="M169.653 30.8687C173.46 30.8687 177.267 30.8687 181.189 30.8687C180.721 34.4474 180.721 34.4474 179.623 35.4084C179.508 35.519 179.394 35.6295 179.276 35.7434C178.916 36.0886 178.548 36.4231 178.178 36.7581C177.933 36.9896 177.689 37.2218 177.446 37.4546C176.538 38.3179 175.615 39.1624 174.663 39.9771C174.339 40.2683 174.033 40.5796 173.725 40.8874C176.681 40.9544 176.681 40.9544 179.696 41.0228C179.561 42.9182 179.561 42.9182 179.289 44.4075C175.393 44.4075 171.496 44.4075 167.481 44.4075C167.807 41.3224 167.807 41.3224 168.691 40.4475C168.758 40.3801 168.826 40.3126 168.895 40.2431C169.118 40.0217 169.341 39.8017 169.565 39.5817C169.72 39.4279 169.875 39.2741 170.029 39.1201C170.436 38.7162 170.844 38.3134 171.252 37.9109C171.741 37.4272 172.23 36.942 172.718 36.4571C173.46 35.7213 174.203 34.9876 174.946 34.2534C173.065 34.2087 171.184 34.164 169.246 34.118C169.38 33.0457 169.515 31.9734 169.653 30.8687Z" fill="white"/>
<path d="M130.293 76.9008C130.564 77.1716 130.564 77.1716 130.624 77.6201C130.564 78.1193 130.564 78.1193 130.302 78.4747C129.793 78.8683 129.266 79.237 128.664 79.4732C128.53 79.4285 128.396 79.3838 128.257 79.3378C128.444 79.1347 128.444 79.1347 128.664 78.9316C128.754 78.9316 128.844 78.9316 128.936 78.9316C128.869 78.7976 128.869 78.7976 128.8 78.6609C126.793 79.5842 124.906 80.7516 123.981 82.8521C123.903 83.1729 123.945 83.3609 124.05 83.6703C125.758 83.17 127.414 81.5848 128.625 80.3025C128.727 80.2075 128.83 80.1126 128.936 80.0148C129.385 80.0401 129.385 80.0401 129.75 80.1501C129.692 81.0037 129.389 81.5923 128.961 82.3248C128.902 82.43 128.842 82.5351 128.781 82.6435C128.447 83.2276 128.096 83.7929 127.714 84.3472C128.69 83.8239 129.308 83.3639 129.834 82.3856C130.134 81.841 130.472 81.3418 130.972 80.9625C131.375 80.8734 131.641 80.9041 132.057 80.9625C132.125 81.0965 132.125 81.0965 132.193 81.2333C131.457 82.2823 131.457 82.2823 130.929 82.6802C130.538 82.9603 130.538 82.9603 130.446 83.3741C130.44 83.4718 130.435 83.5696 130.429 83.6703C131.549 82.8856 132.468 81.9749 133.314 80.9038C133.609 80.639 133.841 80.6031 134.229 80.5563C134.358 80.8946 134.408 81.1311 134.264 81.4708C134.107 81.7388 133.942 81.9984 133.771 82.2571C133.656 82.4346 133.542 82.6125 133.428 82.7908C133.377 82.8687 133.326 82.9466 133.273 83.0269C133.133 83.2836 133.067 83.5204 133.007 83.8056C133.602 83.6671 133.602 83.6671 134.025 83.2556C134.093 83.1244 134.16 82.9931 134.229 82.8579C135.129 81.4258 135.129 81.4258 135.586 81.0979C136.027 81.064 136.027 81.064 136.401 81.0979C136.502 81.3179 136.502 81.3179 136.536 81.6394C136.281 82.0991 136.019 82.4286 135.629 82.7818C135.241 83.2107 135.212 83.5093 135.179 84.0764C135.515 83.8864 135.813 83.715 136.087 83.4418C136.145 83.3831 136.204 83.3245 136.265 83.2641C136.354 83.2641 136.444 83.2641 136.536 83.2641C136.542 83.1301 136.547 82.996 136.553 82.8579C136.65 82.1919 137.001 81.6899 137.486 81.2333C137.944 81.0979 137.944 81.0979 138.301 81.0979C138.263 81.9379 138.15 82.4655 137.622 83.1287C137.667 83.2181 137.712 83.3074 137.758 83.3995C138.1 83.3148 138.1 83.3148 138.436 83.1287C138.482 82.9032 138.527 82.6775 138.572 82.4518C139.092 81.637 139.833 81.0218 140.744 80.6917C141.126 80.6429 141.442 80.6566 141.829 80.6917C141.991 80.9794 141.991 80.9794 142.101 81.3686C141.815 82.327 140.986 82.7799 140.158 83.2472C139.794 83.3995 139.794 83.3995 139.386 83.3995C139.521 83.6675 139.655 83.9356 139.794 84.2118C140.549 84.1553 141.127 83.893 141.694 83.3995C141.86 83.1393 141.98 82.8792 142.104 82.5967C142.333 82.1141 142.625 81.6959 143.051 81.3686C143.577 81.3094 143.577 81.3094 144.001 81.3686C143.93 81.9282 143.776 82.2046 143.39 82.6125C143.043 82.9768 143.043 82.9768 142.779 83.3995C142.876 83.3021 142.973 83.2047 143.072 83.1044C143.441 82.7365 143.82 82.3808 144.205 82.0287C144.391 81.8564 144.391 81.8564 144.582 81.6807C144.921 81.3943 145.234 81.1617 145.63 80.9625C146.011 81.0048 146.011 81.0048 146.308 81.0979C146.406 81.6572 146.399 81.9128 146.071 82.3909C145.876 82.6253 145.677 82.8564 145.473 83.0837C145.233 83.3865 145.141 83.5647 145.087 83.941C146.029 83.5518 146.407 83.1766 146.81 82.2508C147.104 81.6856 147.528 81.2897 148.073 80.9625C148.548 80.9032 148.548 80.9032 148.887 80.9625C148.904 81.7362 148.664 82.0508 148.132 82.6125C147.964 82.7788 147.964 82.7788 147.792 82.9484C147.472 83.2652 147.472 83.2652 147.53 83.8056C147.753 83.9271 147.753 83.9271 148.073 83.941C148.48 83.7841 148.71 83.6857 149.023 83.3995C149.214 82.9351 149.214 82.9351 149.304 82.5813C149.75 81.1619 150.457 79.7592 151.466 78.6609C151.537 78.5759 151.608 78.4909 151.682 78.4033C151.89 78.1701 151.89 78.1701 152.28 77.8485C152.67 77.8655 152.67 77.8655 152.959 77.9839C152.95 79.9079 151.844 81.2799 150.616 82.6612C150.325 82.9959 150.325 82.9959 150.414 83.5095C150.464 83.7231 150.464 83.7231 150.516 83.941C150.902 84.121 150.902 84.121 151.176 83.9595C151.864 83.4642 152.161 83.011 152.505 82.246C152.808 81.6875 153.229 81.289 153.773 80.9625C154.248 80.9032 154.248 80.9032 154.587 80.9625C154.604 81.7362 154.365 82.0508 153.832 82.6125C153.664 82.7788 153.664 82.7788 153.492 82.9484C153.172 83.2652 153.172 83.2652 153.23 83.8056C153.453 83.9271 153.453 83.9271 153.773 83.941C154.51 83.6068 154.919 83.229 155.402 82.5871C155.312 82.5871 155.222 82.5871 155.13 82.5871C155.041 81.9919 155.157 81.669 155.495 81.1909C155.78 80.8362 155.896 80.7084 156.335 80.5563C156.43 80.5563 156.525 80.5563 156.623 80.5563C156.623 80.6903 156.623 80.8244 156.623 80.9625C156.739 80.9609 156.855 80.9593 156.975 80.9577C157.2 80.9559 157.2 80.9559 157.429 80.954C157.579 80.9524 157.728 80.9509 157.882 80.9493C158.252 80.9625 158.252 80.9625 158.387 81.0979C158.455 81.4363 158.455 81.4363 158.387 81.9102C158.161 82.2336 157.912 82.5299 157.658 82.832C157.389 83.1942 157.313 83.492 157.302 83.941C157.826 83.79 158.156 83.6669 158.523 83.2641C158.613 83.2641 158.702 83.2641 158.795 83.2641C158.774 83.9364 158.41 84.2397 157.952 84.6788C157.589 84.9928 157.372 85.1538 156.886 85.1934C156.487 85.1595 156.487 85.1595 156.216 84.8888C156.023 83.9282 156.373 83.238 156.895 82.4518C156.85 82.4071 156.805 82.3624 156.759 82.3164C156.419 82.3555 156.258 82.4068 156.023 82.6591C155.963 82.747 155.904 82.835 155.843 82.9256C155.53 83.3642 155.204 83.7799 154.85 84.1864C154.765 84.285 154.679 84.3836 154.591 84.4852C154.137 84.9281 153.778 85.1425 153.145 85.2188C152.687 85.1595 152.687 85.1595 152.441 84.9226C152.293 84.6424 152.15 84.36 152.009 84.0764C151.956 84.1417 151.904 84.207 151.85 84.2742C151.779 84.3597 151.708 84.4452 151.635 84.5334C151.566 84.6182 151.497 84.703 151.425 84.7904C151.055 85.1647 150.758 85.2841 150.236 85.3372C149.837 85.2949 149.837 85.2949 149.599 85.1341C149.397 84.8411 149.276 84.5469 149.158 84.2118C149.093 84.2689 149.028 84.3259 148.96 84.3847C148.874 84.4589 148.789 84.5331 148.7 84.6095C148.615 84.6833 148.53 84.7572 148.443 84.8332C147.969 85.2194 147.59 85.2123 146.987 85.1595C146.618 84.8167 146.49 84.4027 146.308 83.941C146.223 84.0176 146.138 84.0943 146.051 84.1732C145.884 84.3222 145.884 84.3222 145.714 84.4741C145.549 84.6226 145.549 84.6226 145.38 84.774C144.904 85.1795 144.618 85.1729 144.001 85.1595C143.763 84.3205 143.977 83.8743 144.391 83.1208C144.441 83.034 144.492 82.9473 144.544 82.8579C143.7 83.6706 143.7 83.6706 142.941 84.5587C142.843 84.6676 142.745 84.7765 142.644 84.8888C142.465 84.8888 142.285 84.8888 142.101 84.8888C141.863 84.5503 141.863 84.5503 141.694 84.2118C141.609 84.2787 141.524 84.3455 141.436 84.4144C141.27 84.5445 141.27 84.5445 141.1 84.6772C140.935 84.8068 140.935 84.8068 140.766 84.939C140.193 85.3688 139.679 85.3819 138.979 85.2949C138.64 85.0834 138.64 85.0834 138.436 84.7534C138.335 84.2457 138.335 84.2457 138.301 83.8056C138.166 83.895 138.032 83.9844 137.893 84.0764C137.726 84.0625 137.558 84.0485 137.385 84.0341C136.996 84.0198 136.85 84.0447 136.535 84.2816C136.37 84.4512 136.209 84.6251 136.054 84.8036C135.783 85.1082 135.607 85.1554 135.204 85.2357C134.772 85.1595 134.772 85.1595 134.568 84.9178C134.397 84.6424 134.239 84.3656 134.093 84.0764C134.015 84.1433 133.936 84.2101 133.855 84.279C132.778 85.1595 132.778 85.1595 132.057 85.1595C131.968 85.1149 131.878 85.0702 131.786 85.0241C131.786 84.622 131.786 84.2199 131.786 83.8056C131.682 83.9341 131.579 84.0625 131.472 84.1949C131.222 84.5051 131.044 84.6602 130.7 84.8888C130.225 84.8888 130.225 84.8888 129.75 84.7534C129.517 84.3387 129.517 84.3387 129.343 83.941C128.972 84.2194 128.602 84.499 128.232 84.7787C128.127 84.857 128.023 84.9353 127.916 85.0159C127.019 85.6954 126.268 86.4663 125.509 87.2919C124.739 88.128 124.739 88.128 124.593 88.2735C124.321 88.279 124.05 88.2792 123.778 88.2735C123.66 87.935 123.66 87.935 123.643 87.4611C123.961 86.8062 124.419 86.3786 125.044 86.0195C125.759 85.5565 126.129 84.9878 126.552 84.2626C126.657 84.0908 126.657 84.0908 126.764 83.9156C127.055 83.4358 127.332 82.9559 127.579 82.4518C127.517 82.4981 127.456 82.5445 127.392 82.5923C127.11 82.8052 126.827 83.0177 126.544 83.2302C126.447 83.3032 126.35 83.3761 126.251 83.4513C124.723 84.5974 124.723 84.5974 124.109 84.6941C123.519 84.5978 123.33 84.4026 122.964 83.941C122.657 83.0223 122.794 82.1881 123.185 81.3152C124.342 79.1282 126.44 77.7612 128.761 77.0082C129.311 76.8759 129.73 76.8627 130.293 76.9008ZM151.873 79.2024C151.3 79.9483 150.837 80.7144 150.651 81.6394C151.367 80.9865 152.05 80.2026 152.144 79.2024C152.055 79.2024 151.965 79.2024 151.873 79.2024ZM140.879 81.3686C140.235 81.7486 139.903 82.0796 139.522 82.7225C139.567 82.8119 139.612 82.9012 139.658 82.9933C139.834 82.8672 140.009 82.7401 140.184 82.6125C140.33 82.5065 140.33 82.5065 140.48 82.3983C140.775 82.1765 140.775 82.1765 141.015 81.7748C140.97 81.6408 140.925 81.5067 140.879 81.3686Z" fill="white"/>
<path d="M183.497 77.4424C183.428 78.0768 183.138 78.4993 182.767 78.9993C182.707 79.0817 182.647 79.1642 182.585 79.2491C182.045 79.9803 181.462 80.6725 180.867 81.3596C180.369 81.9353 179.897 82.5313 179.425 83.1287C180.058 82.6353 180.64 82.0969 181.227 81.55C181.856 81.0103 182.249 80.7686 183.089 80.8271C183.289 81.2261 183.255 81.5462 183.203 81.9837C182.981 82.6331 182.423 83.0267 181.868 83.3995C181.645 83.4968 181.419 83.5894 181.189 83.6702C181.41 84.102 181.41 84.102 181.766 84.1441C182.282 84.0506 182.621 83.7897 182.954 83.3995C183.016 83.27 183.079 83.1405 183.144 83.007C183.769 81.7965 185.1 81.0161 186.347 80.5563C186.714 80.4856 186.923 80.4914 187.297 80.5563C187.431 80.6903 187.431 80.6903 187.568 80.8271C187.526 81.2755 187.526 81.2755 187.432 81.7748C187.411 81.9465 187.411 81.9465 187.39 82.1217C187.265 82.5644 187.009 82.883 186.754 83.2641C186.648 83.6334 186.648 83.6334 186.618 83.941C187.189 83.8762 187.57 83.8177 187.975 83.3995C188.061 83.2322 188.143 83.0626 188.221 82.8918C188.688 81.9046 189.56 81.142 190.554 80.6917C191.012 80.6325 191.012 80.6325 191.368 80.6917C191.503 80.8257 191.503 80.8257 191.64 80.9625C191.625 81.6123 191.379 82.025 191.022 82.5438C190.825 82.7225 190.825 82.7225 190.283 82.7225C190.238 82.6332 190.193 82.5438 190.147 82.4517C189.964 82.5931 189.783 82.7375 189.604 82.8833C189.503 82.9634 189.402 83.0435 189.299 83.126C189.032 83.3852 189.032 83.3852 189.002 83.7533C189.031 83.9132 189.031 83.9132 189.061 84.0764C189.435 84.3793 189.435 84.3793 189.816 84.3472C190.525 84.1414 191.404 83.8249 191.779 83.1477C191.834 82.9693 191.885 82.7897 191.933 82.6093C192.18 81.9746 192.79 81.2688 193.404 80.9625C193.676 80.957 193.947 80.9566 194.219 80.9625C194.235 81.7362 193.996 82.0507 193.464 82.6125C193.295 82.7787 193.295 82.7787 193.124 82.9483C192.804 83.2652 192.804 83.2652 192.861 83.8056C193.084 83.9271 193.084 83.9271 193.404 83.941C193.812 83.7841 194.042 83.6857 194.354 83.3995C194.546 82.9351 194.546 82.9351 194.636 82.5813C195.081 81.1619 195.789 79.7592 196.797 78.6609C196.869 78.5759 196.94 78.4909 197.014 78.4033C197.221 78.1701 197.221 78.1701 197.612 77.8485C198.002 77.8654 198.002 77.8654 198.29 77.9839C198.282 79.9079 197.175 81.2799 195.948 82.6612C195.657 82.9958 195.657 82.9958 195.745 83.5095C195.796 83.7231 195.796 83.7231 195.847 83.941C196.234 84.121 196.234 84.121 196.508 83.9595C197.196 83.4642 197.492 83.011 197.837 82.246C198.139 81.6875 198.561 81.289 199.105 80.9625C199.58 80.9032 199.58 80.9032 199.919 80.9625C199.936 81.7362 199.696 82.0507 199.164 82.6125C198.996 82.7787 198.996 82.7787 198.824 82.9483C198.504 83.2652 198.504 83.2652 198.562 83.8056C198.785 83.9271 198.785 83.9271 199.105 83.941C199.601 83.7465 199.932 83.6102 200.203 83.144C200.289 82.9386 200.372 82.7321 200.453 82.5247C201.173 80.8139 202.774 78.7032 204.262 77.5777C204.612 77.4511 204.835 77.4343 205.212 77.4424C205.143 78.0768 204.854 78.4993 204.483 78.9993C204.392 79.123 204.392 79.123 204.3 79.2491C203.76 79.9803 203.178 80.6725 202.583 81.3596C202.085 81.9353 201.612 82.5313 201.14 83.1287C201.774 82.6353 202.356 82.0969 202.943 81.55C203.572 81.0103 203.965 80.7686 204.805 80.8271C205.005 81.2261 204.971 81.5462 204.918 81.9837C204.697 82.6331 204.139 83.0267 203.583 83.3995C203.36 83.4968 203.135 83.5894 202.905 83.6702C202.994 83.8043 203.084 83.9383 203.176 84.0764C203.609 84.1509 203.794 84.1178 204.159 83.8691C204.251 83.7811 204.344 83.6932 204.44 83.6025C204.535 83.5146 204.629 83.4266 204.727 83.336C204.797 83.2676 204.868 83.1992 204.941 83.1287C205.035 83.3656 205.035 83.3656 205.076 83.6702C204.623 84.3891 203.889 85.1917 203.049 85.388C202.425 85.2482 202.19 84.8401 201.819 84.3472C201.729 84.2578 201.64 84.1685 201.548 84.0764C201.505 84.1448 201.462 84.2132 201.418 84.2837C201.36 84.3717 201.302 84.4596 201.242 84.5503C201.185 84.6382 201.129 84.7262 201.07 84.8168C200.971 84.9194 200.971 84.9194 200.869 85.0241C200.69 85.0241 200.511 85.0241 200.326 85.0241C200.192 84.689 200.192 84.689 200.055 84.3472C199.987 84.4058 199.92 84.4645 199.85 84.5249C199.374 84.9148 199.071 85.1428 198.451 85.2441C198.019 85.1595 198.019 85.1595 197.773 84.9226C197.625 84.6424 197.482 84.36 197.34 84.0764C197.288 84.1417 197.235 84.2069 197.181 84.2742C197.11 84.3597 197.04 84.4452 196.967 84.5333C196.898 84.6182 196.828 84.703 196.757 84.7904C196.387 85.1647 196.089 85.2841 195.567 85.3372C195.169 85.2949 195.169 85.2949 194.931 85.1341C194.728 84.8411 194.608 84.5468 194.49 84.2118C194.425 84.2689 194.359 84.3259 194.292 84.3847C194.206 84.4589 194.12 84.5331 194.032 84.6095C193.947 84.6833 193.862 84.7571 193.774 84.8332C193.3 85.2194 192.922 85.2123 192.318 85.1595C191.993 84.8465 191.839 84.4764 191.64 84.0764C191.558 84.1514 191.476 84.2265 191.392 84.3038C191.229 84.4509 191.229 84.4509 191.063 84.601C190.902 84.7471 190.902 84.7471 190.739 84.8961C190.286 85.2682 189.992 85.4155 189.409 85.4895C188.795 85.4143 188.626 85.2291 188.247 84.7533C188.153 84.5745 188.062 84.3943 187.975 84.2118C187.903 84.2771 187.831 84.3423 187.757 84.4096C187.661 84.4951 187.565 84.5806 187.466 84.6687C187.372 84.7535 187.277 84.8384 187.18 84.9258C186.907 85.1456 186.673 85.3023 186.347 85.4303C185.973 85.3795 185.973 85.3795 185.668 85.2949C185.601 84.6917 185.601 84.6917 185.532 84.0764C185.473 84.1432 185.414 84.2101 185.353 84.279C184.685 84.9963 184.685 84.9963 184.116 85.1511C184.001 85.1538 183.886 85.1566 183.768 85.1595C183.684 85.0534 183.6 84.9473 183.513 84.838C183.239 84.4869 183.239 84.4869 182.954 84.2118C182.888 84.2786 182.823 84.3455 182.755 84.4143C182.627 84.5445 182.627 84.5445 182.496 84.6772C182.411 84.7636 182.325 84.85 182.238 84.939C181.938 85.2211 181.767 85.2886 181.359 85.3626C180.702 85.2618 180.486 84.8557 180.103 84.3472C180.014 84.2578 179.924 84.1685 179.832 84.0764C179.768 84.179 179.768 84.179 179.703 84.2837C179.645 84.3717 179.586 84.4596 179.527 84.5503C179.47 84.6382 179.413 84.7262 179.355 84.8168C179.288 84.8852 179.222 84.9536 179.153 85.0241C178.974 85.0241 178.795 85.0241 178.611 85.0241C178.521 84.7114 178.431 84.3986 178.339 84.0764C178.264 84.1432 178.189 84.2101 178.111 84.279C178.013 84.3657 177.914 84.4524 177.813 84.5418C177.716 84.6282 177.618 84.7146 177.517 84.8036C177.059 85.1866 176.756 85.1723 176.168 85.1595C175.93 84.3205 176.144 83.8743 176.557 83.1207C176.608 83.034 176.658 82.9473 176.71 82.8579C175.867 83.6706 175.867 83.6706 175.107 84.5587C175.009 84.6676 174.911 84.7765 174.81 84.8887C174.631 84.8887 174.452 84.8887 174.267 84.8887C174.03 84.5503 174.03 84.5503 173.86 84.2118C173.788 84.2771 173.716 84.3423 173.642 84.4096C173.546 84.4951 173.45 84.5806 173.351 84.6687C173.257 84.7535 173.162 84.8384 173.065 84.9258C172.792 85.1456 172.558 85.3023 172.232 85.4303C171.858 85.3795 171.858 85.3795 171.553 85.2949C171.508 84.8928 171.463 84.4907 171.417 84.0764C171.358 84.1432 171.299 84.2101 171.238 84.279C170.57 84.9963 170.57 84.9963 170.001 85.1511C169.886 85.1538 169.771 85.1566 169.653 85.1595C169.127 84.5164 168.898 84.1548 168.912 83.3233C169.079 82.4403 169.915 81.8942 170.603 81.394C171.448 80.8357 172.131 80.4535 173.182 80.5563C173.271 80.6457 173.361 80.735 173.453 80.8271C173.411 81.2755 173.411 81.2755 173.317 81.7748C173.303 81.8893 173.289 82.0038 173.275 82.1217C173.15 82.5644 172.893 82.883 172.639 83.2641C172.533 83.6334 172.533 83.6334 172.503 83.941C173.074 83.8762 173.454 83.8177 173.86 83.3995C173.949 83.2325 174.034 83.0629 174.115 82.8918C174.392 82.3096 174.698 81.7676 175.217 81.3686C175.743 81.3094 175.743 81.3094 176.168 81.3686C176.097 81.9282 175.943 82.2046 175.557 82.6125C175.209 82.9768 175.209 82.9768 174.946 83.3995C175.043 83.3021 175.139 83.2047 175.239 83.1044C175.608 82.7365 175.987 82.3808 176.371 82.0286C176.558 81.8564 176.558 81.8564 176.749 81.6807C177.087 81.3943 177.4 81.1617 177.796 80.9625C178.178 81.0048 178.178 81.0048 178.475 81.0979C178.572 81.6572 178.566 81.9128 178.238 82.3909C178.043 82.6253 177.843 82.8564 177.64 83.0837C177.399 83.3865 177.308 83.5647 177.253 83.941C178.069 83.6152 178.069 83.6152 178.634 82.9795C178.712 82.7533 178.789 82.5263 178.863 82.2989C179.493 80.7134 181.675 77.3945 183.497 77.4424ZM197.204 79.2024C196.631 79.9483 196.168 80.7143 195.983 81.6394C196.699 80.9865 197.382 80.2025 197.476 79.2024C197.386 79.2024 197.297 79.2024 197.204 79.2024ZM172.096 81.7748C171.2 82.188 170.298 82.6698 169.789 83.5348C169.794 83.9146 169.794 83.9146 169.924 84.2118C171.04 83.7501 171.709 82.8852 172.367 81.9102C172.278 81.8655 172.188 81.8208 172.096 81.7748ZM186.211 81.7748C185.315 82.188 184.413 82.6698 183.904 83.5348C183.909 83.9146 183.909 83.9146 184.039 84.2118C185.156 83.7501 185.824 82.8852 186.482 81.9102C186.393 81.8655 186.303 81.8208 186.211 81.7748ZM181.325 82.3164C181.037 82.6194 180.771 82.9367 180.511 83.2641C180.752 83.3778 180.752 83.3778 181.054 83.3995C181.354 83.1974 181.354 83.1974 181.622 82.9002C181.716 82.8047 181.81 82.7093 181.908 82.6109C182.137 82.3196 182.22 82.1363 182.275 81.7748C181.933 81.7748 181.585 82.1093 181.325 82.3164ZM203.04 82.3164C202.752 82.6194 202.486 82.9367 202.226 83.2641C202.467 83.3778 202.467 83.3778 202.769 83.3995C203.07 83.1974 203.07 83.1974 203.337 82.9002C203.432 82.8047 203.526 82.7093 203.623 82.6109C203.852 82.3196 203.936 82.1363 203.991 81.7748C203.648 81.7748 203.301 82.1093 203.04 82.3164Z" fill="white"/>
<path d="M148.751 56.5925C149.531 57.292 150.105 58.116 150.165 59.1833C150.168 59.3936 150.167 59.604 150.164 59.8144C150.163 59.9304 150.162 60.0465 150.161 60.1661C150.126 61.7533 149.87 63.3179 149.634 64.8851C149.588 65.1989 149.542 65.5126 149.496 65.8265C149.386 66.5848 149.273 67.3428 149.159 68.1006C148.397 68.1006 147.636 68.1006 146.851 68.1006C146.984 66.8563 147.123 65.6159 147.302 64.3774C147.318 64.2715 147.333 64.1656 147.348 64.0565C147.41 63.6251 147.472 63.1937 147.537 62.7627C147.885 60.7658 147.885 60.7658 147.445 58.8349C146.937 58.2884 146.441 58.111 145.706 58.031C144.819 58.1241 144 58.4439 143.322 59.0295C142.719 59.9627 142.503 60.8954 142.364 61.9827C142.332 62.2066 142.332 62.2066 142.3 62.4351C142.231 62.9243 142.166 63.4138 142.101 63.9035C142.039 64.3588 141.977 64.814 141.914 65.2692C141.853 65.7088 141.794 66.1485 141.735 66.5885C141.714 66.7468 141.693 66.9051 141.671 67.0682C141.652 67.2089 141.634 67.3496 141.615 67.4945C141.558 67.8298 141.558 67.8298 141.422 68.1006C140.706 68.1006 139.989 68.1006 139.251 68.1006C139.318 67.0867 139.435 66.0914 139.583 65.0866C139.601 64.9617 139.619 64.8369 139.638 64.7083C139.715 64.1868 139.792 63.6653 139.871 63.1442C139.929 62.7595 139.985 62.3746 140.041 61.9896C140.059 61.8736 140.077 61.7576 140.096 61.6382C140.222 60.7546 140.265 59.885 139.896 59.0549C139.499 58.56 139.085 58.1579 138.436 58.0818C137.598 57.9998 136.97 58.1812 136.265 58.6234C135.096 59.6411 134.856 60.8845 134.665 62.3571C134.645 62.5046 134.625 62.652 134.604 62.8039C134.54 63.2718 134.478 63.74 134.416 64.2081C134.352 64.6782 134.289 65.1482 134.225 65.6182C134.185 65.9098 134.146 66.2016 134.107 66.4933C134.081 66.6913 134.081 66.6913 134.054 66.8933C134.038 67.0091 134.023 67.1249 134.007 67.2442C133.962 67.5327 133.893 67.8172 133.822 68.1006C133.105 68.1006 132.389 68.1006 131.65 68.1006C131.65 67.3522 131.677 66.6769 131.785 65.9461C131.8 65.8451 131.814 65.7442 131.829 65.6401C131.876 65.3101 131.924 64.9802 131.972 64.6503C132.005 64.4194 132.039 64.1885 132.072 63.9576C132.141 63.4755 132.211 62.9935 132.281 62.5115C132.371 61.894 132.46 61.2763 132.548 60.6586C132.617 60.1826 132.685 59.7067 132.754 59.2307C132.787 59.0029 132.82 58.7751 132.852 58.5473C132.898 58.2294 132.945 57.9116 132.991 57.5938C133.004 57.5 133.018 57.4061 133.032 57.3095C133.095 56.8807 133.173 56.4722 133.279 56.051C133.996 56.051 134.712 56.051 135.451 56.051C135.451 56.3637 135.451 56.6765 135.451 56.9987C135.571 56.9154 135.571 56.9154 135.694 56.8305C135.801 56.7576 135.908 56.6846 136.019 56.6094C136.177 56.5011 136.177 56.5011 136.339 56.3905C137.458 55.7051 138.927 55.7234 140.192 56.0039C140.932 56.302 141.442 56.8176 141.965 57.4049C142.1 57.5389 142.1 57.5389 142.237 57.6756C142.326 57.5556 142.416 57.4355 142.508 57.3118C143.224 56.4567 144.169 56.0575 145.24 55.8225C146.532 55.7185 147.669 55.8361 148.751 56.5925Z" fill="white"/>
<path d="M92.5626 76.9008C92.834 77.1716 92.834 77.1716 92.8934 77.6201C92.834 78.1193 92.834 78.1193 92.571 78.4747C92.0623 78.8683 91.536 79.237 90.9339 79.4732C90.7995 79.4285 90.6652 79.3838 90.5267 79.3378C90.7134 79.1347 90.7134 79.1347 90.9339 78.9316C91.0235 78.9316 91.1131 78.9316 91.2053 78.9316C91.1382 78.7976 91.1382 78.7976 91.0696 78.6609C89.0621 79.5842 87.1753 80.7516 86.251 82.8521C86.1729 83.1729 86.2141 83.3609 86.3194 83.6703C88.0273 83.17 89.6837 81.5848 90.8941 80.3025C90.9968 80.2075 91.0995 80.1126 91.2053 80.0148C91.6549 80.0401 91.6549 80.0401 92.0197 80.1501C91.9616 81.0037 91.6589 81.5923 91.2308 82.3248C91.1712 82.43 91.1116 82.5351 91.0503 82.6435C90.7166 83.2276 90.3652 83.7929 89.9838 84.3472C90.96 83.8239 91.5778 83.3639 92.1034 82.3856C92.404 81.841 92.7415 81.3418 93.2412 80.9625C93.6446 80.8734 93.9101 80.9041 94.327 80.9625C94.3941 81.0965 94.3941 81.0965 94.4627 81.2333C93.7268 82.2823 93.7268 82.2823 93.1988 82.6802C92.8073 82.9603 92.8073 82.9603 92.7153 83.3741C92.7097 83.4718 92.7041 83.5696 92.6983 83.6703C93.8185 82.8856 94.7372 81.9749 95.584 80.9038C95.8785 80.639 96.1104 80.6031 96.4985 80.5563C96.6279 80.8946 96.6777 81.1311 96.5331 81.4708C96.3767 81.7388 96.2118 81.9984 96.0404 82.2571C95.9257 82.4346 95.8115 82.6125 95.698 82.7908C95.6466 82.8687 95.5953 82.9466 95.5424 83.0269C95.4021 83.2836 95.3362 83.5204 95.277 83.8056C95.8756 83.6668 95.8756 83.6668 96.2949 83.2472C96.3621 83.1187 96.4293 82.9903 96.4985 82.8579C97.1208 81.9022 97.8824 81.1523 98.9415 80.6917C99.3656 80.6579 99.3656 80.6579 99.7558 80.6917C99.8902 80.8257 99.8902 80.8257 100.027 80.9625C99.9934 81.5702 99.7295 81.9875 99.3487 82.4518C98.9754 82.5702 98.9754 82.5702 98.6701 82.5871C98.6701 82.4978 98.6701 82.4084 98.6701 82.3164C98.4646 82.4575 98.2614 82.602 98.0593 82.7479C97.9459 82.828 97.8326 82.9081 97.7158 82.9907C97.4179 83.2443 97.4179 83.2443 97.3849 83.6179C97.4059 83.7245 97.4269 83.8312 97.4486 83.941C97.8224 84.2439 97.8224 84.2439 98.2035 84.2118C98.905 84.0082 99.4881 83.7674 100.027 83.2641C100.216 82.8471 100.32 82.4412 100.43 81.9969C100.862 80.4811 101.762 79.2159 102.877 78.1193C102.967 78.03 103.057 77.9406 103.149 77.8485C103.505 77.8993 103.505 77.8993 103.827 77.9839C103.819 79.9079 102.713 81.2799 101.485 82.6612C101.194 82.9959 101.194 82.9959 101.283 83.5095C101.333 83.7231 101.333 83.7231 101.384 83.941C101.773 84.123 101.773 84.123 102.05 83.95C102.649 83.5083 102.971 83.1503 103.27 82.4745C103.573 81.8826 103.984 81.3755 104.506 80.9625C104.919 80.8609 105.164 80.8939 105.592 80.9625C105.637 81.0518 105.681 81.1412 105.728 81.2333C104.992 82.2823 104.992 82.2823 104.464 82.6802C104.072 82.9603 104.072 82.9603 103.98 83.3741C103.975 83.4718 103.969 83.5696 103.963 83.6703C105.083 82.8856 106.002 81.9749 106.849 80.9038C107.143 80.639 107.375 80.6031 107.763 80.5563C107.893 80.8946 107.943 81.1311 107.798 81.4708C107.642 81.7388 107.477 81.9984 107.305 82.2571C107.191 82.4346 107.076 82.6125 106.963 82.7908C106.886 82.9077 106.886 82.9077 106.807 83.0269C106.667 83.2836 106.601 83.5204 106.542 83.8056C107.092 83.6398 107.552 83.4403 108.035 83.1287C107.972 83.7417 107.78 83.9789 107.314 84.3726C107.155 84.5095 107.155 84.5095 106.993 84.6492C106.523 85.0066 106.292 85.1776 105.694 85.1088C105.571 85.0808 105.447 85.0529 105.32 85.0241C105.32 84.622 105.32 84.2199 105.32 83.8056C105.217 83.9341 105.113 84.0625 105.007 84.1949C104.756 84.5051 104.578 84.6602 104.235 84.8888C103.76 84.8803 103.76 84.8803 103.285 84.7534C103.022 84.4064 103.022 84.4064 102.877 84.0764C102.825 84.1417 102.772 84.207 102.718 84.2742C102.648 84.3597 102.577 84.4452 102.504 84.5334C102.435 84.6182 102.366 84.703 102.294 84.7904C101.924 85.1647 101.627 85.2841 101.105 85.3372C100.706 85.2949 100.706 85.2949 100.468 85.1511C100.223 84.7724 100.134 84.3756 100.027 83.941C99.885 84.0706 99.885 84.0706 99.7399 84.2028C99.6164 84.3147 99.4929 84.4266 99.3656 84.5418C99.2428 84.6533 99.12 84.7649 98.9935 84.8798C98.5191 85.2902 98.213 85.3421 97.58 85.333C97.3128 85.2949 97.3128 85.2949 96.9905 85.0664C96.7643 84.7453 96.6227 84.448 96.4985 84.0764C96.4264 84.1319 96.3543 84.1874 96.2801 84.2446C96.1842 84.3175 96.0883 84.3905 95.9895 84.4657C95.8951 84.5379 95.8006 84.6102 95.7033 84.6846C95.0052 85.1751 95.0052 85.1751 94.4287 85.1088C94.3056 85.0808 94.1824 85.0529 94.0555 85.0241C94.0555 84.622 94.0555 84.2199 94.0555 83.8056C93.9519 83.9341 93.8484 84.0625 93.7416 84.1949C93.4915 84.5051 93.3133 84.6602 92.9697 84.8888C92.4947 84.8888 92.4947 84.8888 92.0197 84.7534C91.7864 84.3387 91.7864 84.3387 91.6125 83.941C91.2415 84.2194 90.8713 84.499 90.5013 84.7787C90.3969 84.857 90.2926 84.9353 90.185 85.0159C89.2885 85.6954 88.5371 86.4663 87.7784 87.2919C87.008 88.128 87.008 88.128 86.8622 88.2735C86.5909 88.279 86.3193 88.2792 86.0479 88.2735C85.9291 87.935 85.9291 87.935 85.9122 87.4611C86.23 86.8062 86.6887 86.3786 87.3134 86.0195C88.0284 85.5565 88.3984 84.9878 88.8217 84.2626C88.9266 84.0908 88.9266 84.0908 89.0335 83.9156C89.3245 83.4358 89.6016 82.9559 89.8481 82.4518C89.7866 82.4981 89.7251 82.5445 89.6617 82.5923C89.3791 82.8052 89.0962 83.0177 88.8132 83.2302C88.7165 83.3032 88.6197 83.3761 88.5201 83.4513C86.9928 84.5974 86.9928 84.5974 86.3787 84.6941C85.7889 84.5978 85.5994 84.4026 85.2336 83.941C84.9266 83.0223 85.0634 82.1881 85.4541 81.3152C86.6111 79.1282 88.7094 77.7612 91.0304 77.0082C91.5803 76.8759 91.9996 76.8627 92.5626 76.9008ZM102.742 79.2024C102.168 79.9483 101.706 80.7144 101.52 81.6394C102.236 80.9865 102.919 80.2026 103.013 79.2024C102.924 79.2024 102.834 79.2024 102.742 79.2024Z" fill="white"/>
<path d="M105.183 56.7649C106.004 57.469 106.449 58.2216 106.541 59.3003C106.497 60.3894 106.342 61.472 106.189 62.5502C106.169 62.6972 106.148 62.8442 106.127 62.9956C106.084 63.3029 106.041 63.6102 105.997 63.9174C105.93 64.3888 105.864 64.8602 105.799 65.3317C105.756 65.6315 105.714 65.9313 105.672 66.231C105.652 66.3719 105.633 66.5128 105.612 66.658C105.584 66.8533 105.584 66.8533 105.556 67.0527C105.54 67.1671 105.524 67.2816 105.507 67.3995C105.456 67.6944 105.456 67.6944 105.32 68.1006C104.603 68.1006 103.887 68.1006 103.148 68.1006C103.148 67.7878 103.148 67.4751 103.148 67.1529C103.076 67.2068 103.003 67.2607 102.929 67.3163C101.501 68.3292 100.117 68.522 98.3981 68.3714C97.3765 68.1641 96.5571 67.7495 95.9551 66.8821C95.518 66.0272 95.3911 65.0963 95.6163 64.1611C95.9961 63.0373 96.5794 62.3852 97.5986 61.786C98.9179 61.1671 100.306 60.9902 101.732 60.7642C101.962 60.727 102.191 60.6897 102.421 60.6523C102.98 60.5616 103.539 60.4722 104.098 60.3834C104.103 60.214 104.107 60.0445 104.112 59.8699C104.115 59.7746 104.117 59.6792 104.12 59.581C104.083 59.1022 103.867 58.84 103.555 58.488C102.828 57.9988 102.037 57.8712 101.178 57.9961C100.283 58.2183 99.7157 58.6531 99.0767 59.3003C98.8975 59.479 98.7184 59.6577 98.5338 59.8419C97.6604 59.3057 97.6604 59.3057 96.7694 58.7588C97.4423 57.3579 98.5836 56.5678 100.027 56.051C101.778 55.4875 103.68 55.6741 105.183 56.7649ZM101.342 62.7104C101.179 62.737 101.016 62.7636 100.849 62.7911C99.764 62.9848 98.935 63.2498 98.1351 64.022C97.9247 64.4417 97.8716 64.7893 97.8552 65.2574C98.1023 65.881 98.4727 66.1955 99.0767 66.4759C100.261 66.646 101.215 66.4826 102.198 65.799C103.035 65.1373 103.492 64.3629 103.827 63.362C103.832 63.0461 103.833 62.7301 103.827 62.4142C102.981 62.3914 102.171 62.5626 101.342 62.7104Z" fill="white"/>
<path d="M214.17 56.7278C214.889 57.3646 215.373 58.072 215.527 59.0295C215.563 60.0563 215.44 61.0348 215.294 62.0503C215.27 62.2196 215.247 62.3888 215.222 62.5632C215.172 62.9187 215.121 63.2742 215.07 63.6296C215.005 64.0858 214.941 64.5421 214.877 64.9985C214.816 65.4347 214.754 65.8706 214.692 66.3066C214.657 66.553 214.657 66.553 214.622 66.8044C214.6 66.955 214.579 67.1055 214.556 67.2607C214.537 67.3938 214.518 67.5269 214.499 67.6641C214.441 67.9651 214.441 67.9651 214.305 68.1005C213.939 68.1104 213.577 68.113 213.211 68.109C213.108 68.1084 213.005 68.1077 212.899 68.1071C212.644 68.1055 212.389 68.1031 212.134 68.1005C212.134 67.7878 212.134 67.475 212.134 67.1528C212.06 67.2067 211.986 67.2606 211.91 67.3162C210.366 68.3983 208.853 68.597 207.001 68.3126C206.065 68.0509 205.358 67.4253 204.813 66.6366C204.475 65.6244 204.447 64.6431 204.805 63.6327C205.413 62.4654 206.441 61.7676 207.655 61.3311C208.123 61.2107 208.594 61.1285 209.072 61.0518C209.2 61.0299 209.328 61.0079 209.461 60.9853C209.854 60.9185 210.247 60.8539 210.641 60.7895C210.887 60.7482 211.133 60.7068 211.378 60.6652C211.947 60.5695 212.515 60.4758 213.084 60.3833C213.091 60.1898 213.096 59.9962 213.1 59.8027C213.105 59.641 213.105 59.641 213.11 59.476C213.076 59.069 212.92 58.8071 212.632 58.518C211.896 57.9807 211.063 57.8585 210.173 57.9871C209.088 58.2833 208.36 58.8953 207.791 59.8418C207.116 59.6029 206.51 59.2469 205.891 58.8941C206.003 58.0937 206.393 57.6716 206.976 57.134C209.078 55.616 211.967 55.1481 214.17 56.7278ZM210.598 62.6511C210.463 62.6724 210.329 62.6937 210.189 62.7156C208.982 62.9213 207.926 63.21 207.112 64.1742C206.895 64.6083 206.91 65.0572 206.976 65.5281C207.271 66.0111 207.54 66.2681 208.062 66.4758C209.247 66.628 210.202 66.4869 211.184 65.7989C212.198 65.0079 212.722 64.0715 212.914 62.8034C212.925 62.675 212.937 62.5465 212.948 62.4142C212.147 62.3761 211.385 62.5165 210.598 62.6511Z" fill="white"/>
<path d="M178.609 56.7559C179.434 57.4908 179.84 58.3499 179.967 59.4356C179.958 59.9299 179.894 60.4106 179.823 60.8995C179.804 61.0407 179.786 61.182 179.766 61.3274C179.712 61.7322 179.656 62.1367 179.599 62.5411C179.542 62.9528 179.486 63.3647 179.431 63.7767C179.356 64.3324 179.28 64.888 179.204 65.4435C179.189 65.5525 179.174 65.6614 179.159 65.7737C179.116 66.085 179.072 66.3963 179.029 66.7075C179.016 66.8013 179.003 66.8951 178.99 66.9917C178.935 67.3786 178.87 67.7286 178.746 68.1005C178.029 68.1005 177.313 68.1005 176.574 68.1005C176.574 67.7878 176.574 67.475 176.574 67.1528C176.502 67.2067 176.429 67.2606 176.355 67.3162C174.927 68.3292 173.543 68.5219 171.824 68.3713C170.793 68.1622 170 67.7428 169.381 66.882C168.882 66.0233 168.843 65.0751 169.042 64.1166C169.384 62.9567 170.013 62.3971 171.024 61.7907C172.112 61.267 173.237 61.0659 174.425 60.8758C174.701 60.8317 174.976 60.7857 175.251 60.7395C176.017 60.6142 176.745 60.5001 177.524 60.5187C177.575 59.8853 177.584 59.4251 177.304 58.8433C176.732 58.2126 176.106 58.0031 175.275 57.939C174.089 57.9656 173.312 58.4804 172.503 59.3002C172.323 59.479 172.144 59.6577 171.96 59.8418C171.086 59.3057 171.086 59.3057 170.195 58.7587C170.868 57.3579 172.009 56.5677 173.453 56.0509C175.195 55.49 177.11 55.6704 178.609 56.7559ZM174.767 62.7104C174.605 62.737 174.442 62.7636 174.275 62.791C173.19 62.9848 172.361 63.2498 171.561 64.0219C171.351 64.4417 171.297 64.7892 171.281 65.2574C171.479 65.6929 171.726 66.0338 172.095 66.3405C173.034 66.6525 174.1 66.6157 174.996 66.1966C175.978 65.6306 176.763 64.8619 177.117 63.7681C177.193 63.317 177.234 62.8711 177.253 62.4142C176.407 62.3913 175.597 62.5626 174.767 62.7104Z" fill="white"/>
<path d="M195.304 51.3124C196.021 51.3124 196.738 51.3124 197.476 51.3124C197.393 52.5239 197.264 53.7167 197.089 54.9182C197.065 55.086 197.042 55.2538 197.017 55.4268C196.941 55.9565 196.865 56.486 196.789 57.0156C196.712 57.55 196.635 58.0845 196.559 58.619C196.512 58.9501 196.464 59.2811 196.416 59.6121C196.395 59.7609 196.374 59.9097 196.352 60.063C196.324 60.2593 196.324 60.2593 196.295 60.4596C196.246 60.8014 196.246 60.8014 196.254 61.1958C196.345 61.1109 196.345 61.1109 196.436 61.0244C196.715 60.7626 196.994 60.5011 197.272 60.2396C197.367 60.1507 197.461 60.0617 197.559 59.9701C198.119 59.4448 198.687 58.9314 199.268 58.4285C199.579 58.1588 199.885 57.8838 200.19 57.608C200.416 57.4042 200.642 57.2012 200.869 56.9987C200.982 56.8764 200.982 56.8764 201.098 56.7517C201.614 56.2305 201.969 55.9902 202.714 55.9584C202.981 55.9647 203.249 55.9759 203.516 55.9918C203.653 55.996 203.791 56.0003 203.932 56.0047C204.269 56.0158 204.604 56.0313 204.941 56.051C204.697 56.5818 204.356 56.913 203.923 57.2949C203.813 57.393 203.813 57.393 203.702 57.4932C203.482 57.6901 203.261 57.886 203.04 58.0818C202.814 58.2848 202.588 58.4879 202.362 58.6911C201.737 59.253 201.737 59.253 201.468 59.4911C201.243 59.6919 201.018 59.8938 200.793 60.0957C200.686 60.1901 200.686 60.1901 200.577 60.2864C200.243 60.5877 200.064 60.7617 199.919 61.1958C200.065 61.5608 200.065 61.5608 200.294 61.96C200.378 62.1146 200.462 62.2693 200.548 62.4286C200.641 62.5959 200.734 62.7632 200.827 62.9304C200.92 63.1007 201.013 63.2711 201.105 63.4415C201.341 63.874 201.579 64.3056 201.817 64.737C202.106 65.261 202.393 65.7861 202.681 66.311C202.822 66.5697 202.965 66.8282 203.107 67.0864C203.171 67.201 203.234 67.3156 203.299 67.4337C203.354 67.5336 203.409 67.6336 203.466 67.7366C203.583 67.9652 203.583 67.9652 203.583 68.1006C202.732 68.1006 201.881 68.1006 201.005 68.1006C200.882 67.87 200.759 67.6395 200.632 67.402C199.753 65.7611 198.871 64.1289 197.883 62.5496C197.784 62.6504 197.784 62.6504 197.684 62.7533C197.547 62.8912 197.547 62.8912 197.408 63.032C197.32 63.1215 197.232 63.211 197.141 63.3033C196.797 63.6328 196.797 63.6328 196.529 63.8178C195.883 64.2892 195.637 64.6517 195.487 65.443C195.444 65.7614 195.406 66.0803 195.372 66.3998C195.351 66.5634 195.33 66.727 195.309 66.8956C195.258 67.2967 195.213 67.6986 195.169 68.1006C194.407 68.1006 193.646 68.1006 192.861 68.1006C193.062 66.6466 193.262 65.1927 193.463 63.7388C193.557 63.0631 193.65 62.3874 193.743 61.7117C193.991 59.9149 194.24 58.1182 194.49 56.3218C194.507 56.2007 194.524 56.0797 194.541 55.955C194.637 55.2686 194.733 54.5823 194.83 53.8961C194.859 53.689 194.888 53.4818 194.917 53.2745C194.957 52.9925 194.997 52.7106 195.037 52.4287C195.059 52.271 195.082 52.1132 195.104 51.9507C195.169 51.5832 195.169 51.5832 195.304 51.3124Z" fill="white"/>
<path d="M190.283 56.4571C191.193 57.1672 191.716 58.0327 191.911 59.1648C191.975 60.2098 191.86 61.2242 191.708 62.2566C191.677 62.4764 191.677 62.4764 191.645 62.7006C191.58 63.1638 191.512 63.6267 191.445 64.0896C191.4 64.4032 191.356 64.7168 191.311 65.0304C191.229 65.6033 191.147 66.1762 191.064 66.7489C191.047 66.8632 191.031 66.9774 191.014 67.0952C190.96 67.4318 190.893 67.7662 190.826 68.1005C190.064 68.1005 189.303 68.1005 188.518 68.1005C188.547 67.8998 188.576 67.6992 188.606 67.4924C188.713 66.7417 188.819 65.9907 188.924 65.2397C188.97 64.9158 189.016 64.592 189.063 64.2683C189.13 63.8006 189.195 63.3327 189.261 62.8647C189.281 62.7221 189.302 62.5795 189.324 62.4325C189.61 60.701 189.61 60.701 189.265 59.0294C188.709 58.3637 188.169 58.1242 187.314 58.014C186.354 58.0742 185.519 58.4288 184.862 59.131C184.078 60.0458 183.946 61.2071 183.797 62.357C183.777 62.5045 183.756 62.6519 183.736 62.8038C183.672 63.2717 183.61 63.7399 183.548 64.2081C183.484 64.6781 183.421 65.1481 183.357 65.6181C183.317 65.9098 183.278 66.2015 183.239 66.4932C183.213 66.6912 183.213 66.6912 183.186 66.8932C183.17 67.009 183.155 67.1248 183.139 67.2441C183.094 67.5326 183.025 67.8172 182.954 68.1005C182.192 68.1005 181.431 68.1005 180.646 68.1005C180.856 66.5893 181.066 65.0782 181.277 63.5672C181.374 62.8656 181.472 62.164 181.569 61.4623C181.663 60.7854 181.757 60.1086 181.852 59.4319C181.888 59.1734 181.923 58.9148 181.959 58.6563C182.009 58.2948 182.06 57.9334 182.11 57.572C182.125 57.4646 182.14 57.3572 182.155 57.2465C182.213 56.8316 182.278 56.4494 182.411 56.0509C183.127 56.0509 183.844 56.0509 184.582 56.0509C184.582 56.3636 184.582 56.6764 184.582 56.9986C184.652 56.9447 184.721 56.8908 184.792 56.8352C186.405 55.663 188.538 55.3522 190.283 56.4571Z" fill="white"/>
<path d="M84.9619 51.5831C85.8129 51.5831 86.6639 51.5831 87.5406 51.5831C87.9859 52.4648 88.4304 53.3468 88.8743 54.2291C89.0255 54.5294 89.1769 54.8296 89.3285 55.1297C89.546 55.5603 89.7628 55.9912 89.9794 56.4222C90.0477 56.557 90.116 56.6919 90.1863 56.8308C90.2488 56.9555 90.3113 57.0801 90.3757 57.2086C90.4311 57.3186 90.4866 57.4286 90.5437 57.542C90.6622 57.811 90.6622 57.811 90.6622 58.0818C91.1559 57.6069 91.5922 57.1093 92.011 56.5671C92.1054 56.446 92.1054 56.446 92.2017 56.3224C92.339 56.1462 92.4761 55.9698 92.613 55.7934C92.8461 55.4935 93.0805 55.1946 93.3152 54.8959C93.3965 54.792 93.4778 54.6881 93.5615 54.581C93.7266 54.3708 93.8926 54.1615 94.0597 53.9529C94.4098 53.5119 94.741 53.0896 94.9958 52.5864C95.2415 52.1308 95.3882 51.8745 95.8197 51.5831C96.7584 51.4091 97.7253 51.4918 98.6698 51.5831C98.45 52.0364 98.195 52.4163 97.8894 52.8185C97.8368 52.8879 97.7842 52.9572 97.73 53.0287C97.0045 53.981 96.2653 54.9228 95.5276 55.8657C95.1156 56.3925 94.7041 56.9198 94.2928 57.4471C94.2144 57.5477 94.1359 57.6482 94.0551 57.7518C93.4543 58.5223 92.8575 59.2957 92.2628 60.0708C92.0195 60.3834 92.0195 60.3834 91.8837 60.5188C91.8391 60.7548 91.8023 60.9923 91.7687 61.2301C91.7469 61.3819 91.7252 61.5337 91.7028 61.6901C91.6798 61.8552 91.6567 62.0204 91.633 62.1905C91.6091 62.3586 91.5852 62.5267 91.5605 62.6999C91.497 63.1474 91.4339 63.595 91.3711 64.0427C91.3069 64.4992 91.2421 64.9556 91.1773 65.4121C91.0503 66.3082 90.9239 67.2043 90.798 68.1005C89.9918 68.1005 89.1856 68.1005 88.355 68.1005C88.4109 67.6153 88.4674 67.1302 88.5246 66.6451C88.5422 66.4954 88.5599 66.3457 88.578 66.1915C88.6793 65.3494 88.7899 64.5097 88.9148 63.6708C88.9401 63.5006 88.9655 63.3304 88.9916 63.155C89.0415 62.8235 89.0925 62.4922 89.1445 62.161C89.1674 62.0093 89.1903 61.8576 89.2138 61.7013C89.2347 61.5676 89.2556 61.4339 89.2771 61.2961C89.3261 60.6458 89.1477 60.1544 88.8553 59.5798C88.79 59.4505 88.7248 59.3211 88.6575 59.1878C88.5865 59.0492 88.5156 58.9105 88.4424 58.7677C88.3327 58.5505 88.3327 58.5505 88.2207 58.3289C87.9863 57.8654 87.7508 57.4024 87.5152 56.9394C85.6523 53.275 85.6523 53.275 84.9619 51.5831Z" fill="white"/>
<path d="M224.934 56.8801C225.491 57.4024 225.879 58.0309 226.113 58.7586C225.977 59.1648 225.977 59.1648 225.681 59.3229C225.5 59.3913 225.5 59.3913 225.315 59.461C225.195 59.5076 225.075 59.5542 224.952 59.6022C224.62 59.7064 224.62 59.7064 224.213 59.7064C224.033 59.4589 224.033 59.4589 223.848 59.131C223.433 58.4868 223.063 58.139 222.313 57.9463C221.465 57.8429 220.726 57.8492 220.005 58.3525C219.636 58.684 219.566 58.9557 219.539 59.4356C219.527 59.822 219.571 59.945 219.824 60.2461C220.187 60.5584 220.482 60.6733 220.937 60.8191C221.091 60.8699 221.245 60.9207 221.403 60.973C221.563 61.0241 221.723 61.0753 221.888 61.128C223.323 61.5891 224.405 61.9645 225.298 63.2265C225.665 63.9916 225.69 64.7882 225.481 65.6032C225.078 66.7401 224.439 67.3983 223.373 67.9482C222.023 68.5886 220.17 68.6293 218.758 68.1512C217.618 67.6475 216.564 66.8452 216.095 65.6545C216.031 65.4346 215.98 65.2107 215.934 64.9865C216.17 64.8689 216.408 64.7538 216.646 64.6396C216.778 64.5752 216.911 64.5108 217.047 64.4444C217.427 64.3096 217.427 64.3096 217.724 64.3207C218.06 64.4908 218.148 64.6923 218.326 65.0204C218.793 65.7508 219.308 66.0996 220.141 66.3404C221.018 66.4539 221.844 66.4696 222.584 65.9343C222.998 65.5431 223.115 65.3419 223.195 64.775C223.114 64.2245 223.001 64.1183 222.584 63.768C222.28 63.6121 222.28 63.6121 221.939 63.5057C221.809 63.4609 221.679 63.416 221.544 63.3698C221.213 63.2651 220.883 63.1657 220.549 63.0705C219.298 62.7098 218.326 62.3663 217.503 61.3141C217.048 60.4795 217.028 59.5129 217.218 58.5894C217.596 57.4522 218.415 56.7223 219.462 56.1863C221.26 55.4545 223.403 55.6723 224.934 56.8801Z" fill="white"/>
<path d="M164.18 30.8533C164.339 30.854 164.497 30.8547 164.661 30.8554C164.832 30.8559 165.003 30.8563 165.179 30.8567C165.361 30.8579 165.543 30.859 165.725 30.8602C165.907 30.8609 166.09 30.8615 166.272 30.862C166.72 30.8636 167.168 30.8659 167.616 30.8686C167.521 32.3299 167.317 33.7743 167.116 35.2238C167.08 35.4853 167.044 35.7467 167.008 36.0081C166.933 36.5524 166.858 37.0967 166.782 37.6409C166.685 38.3398 166.589 39.0388 166.493 39.7379C166.419 40.276 166.345 40.8141 166.27 41.3521C166.235 41.6101 166.199 41.8681 166.164 42.1261C166.115 42.4846 166.065 42.8429 166.015 43.2013C166 43.3084 165.986 43.4155 165.971 43.5258C165.867 44.2567 165.867 44.2567 165.716 44.4075C165.435 44.4194 165.153 44.422 164.872 44.4207C164.615 44.4201 164.615 44.4201 164.353 44.4194C164.172 44.4183 163.99 44.4171 163.808 44.416C163.625 44.4153 163.443 44.4147 163.26 44.4141C162.812 44.4125 162.364 44.4102 161.916 44.4075C162.004 42.9044 162.207 41.4234 162.416 39.9333C162.453 39.6751 162.489 39.4169 162.524 39.1587C162.599 38.6216 162.675 38.0845 162.75 37.5475C162.847 36.8579 162.943 36.1681 163.039 35.4783C163.113 34.947 163.188 34.4158 163.262 33.8846C163.298 33.63 163.333 33.3755 163.369 33.1209C163.418 32.7673 163.468 32.4138 163.518 32.0603C163.532 31.9547 163.547 31.8491 163.562 31.7402C163.686 30.8741 163.686 30.8741 164.18 30.8533Z" fill="white"/>
<path d="M110.614 53.3431C111.375 53.3431 112.137 53.3431 112.921 53.3431C112.879 53.7145 112.837 54.0859 112.794 54.4686C112.781 54.585 112.768 54.7015 112.755 54.8215C112.739 54.9601 112.739 54.9601 112.722 55.1016C112.712 55.1959 112.701 55.2902 112.69 55.3874C112.65 55.6447 112.65 55.6447 112.514 56.0509C113.365 56.0509 114.216 56.0509 115.093 56.0509C115.093 56.7771 115.086 57.3815 114.957 58.0817C114.821 58.2171 114.821 58.2171 114.569 58.2325C114.408 58.2314 114.408 58.2314 114.244 58.2304C114.128 58.2299 114.012 58.2295 113.893 58.229C113.771 58.2279 113.649 58.2268 113.523 58.2256C113.401 58.225 113.279 58.2244 113.153 58.2237C112.849 58.2221 112.546 58.2199 112.242 58.2171C112.126 59.0648 112.01 59.9127 111.895 60.7606C111.855 61.0488 111.816 61.3369 111.776 61.6249C111.719 62.0402 111.662 62.4557 111.606 62.8711C111.588 62.9988 111.571 63.1265 111.552 63.258C111.43 64.1758 111.336 65.0252 111.564 65.9343C112.281 66.0236 112.997 66.113 113.735 66.2051C113.752 67.779 113.752 67.779 113.6 68.2359C110.748 68.3232 110.748 68.3232 109.972 67.6155C109.288 66.8719 109.065 66.1886 109.062 65.1812C109.061 65.0756 109.061 64.97 109.06 64.8612C109.092 63.1604 109.389 61.4672 109.638 59.7873C109.659 59.6438 109.659 59.6438 109.681 59.4974C109.747 59.0622 109.828 58.6449 109.935 58.2171C109.219 58.2171 108.502 58.2171 107.764 58.2171C107.853 57.5023 107.943 56.7874 108.035 56.0509C108.267 56.023 108.5 55.9951 108.739 55.9663C109.319 55.8563 109.727 55.7609 110.081 55.247C110.355 54.6379 110.476 53.9942 110.614 53.3431Z" fill="white"/>
<path d="M127.307 55.9156C127.288 56.2259 127.268 56.5361 127.248 56.8464C127.237 57.0191 127.226 57.1919 127.215 57.3699C127.172 57.811 127.172 57.811 127.036 58.0818C126.74 58.1098 126.443 58.1244 126.145 58.1326C125.181 58.1922 124.527 58.3073 123.818 58.9782C122.869 60.0868 122.772 61.6819 122.581 63.0764C122.55 63.2938 122.55 63.2938 122.519 63.5156C122.454 63.972 122.391 64.4285 122.328 64.8851C122.284 65.1973 122.24 65.5095 122.196 65.8217C122.09 66.5812 121.984 67.3408 121.879 68.1006C121.117 68.1006 120.356 68.1006 119.571 68.1006C119.743 66.5032 119.939 64.9131 120.166 63.3228C120.196 63.1108 120.226 62.8987 120.256 62.6867C120.334 62.1378 120.412 61.589 120.491 61.0402C120.571 60.4765 120.651 59.9127 120.731 59.3489C120.887 58.2496 121.043 57.1502 121.2 56.051C121.917 56.051 122.633 56.051 123.372 56.051C123.416 56.3637 123.461 56.6765 123.507 56.9987C123.646 56.8772 123.646 56.8772 123.787 56.7533C124.873 55.9469 126.006 55.8891 127.307 55.9156Z" fill="white"/>
<path d="M167.744 77.0024C167.836 76.9996 167.928 76.9968 168.023 76.9939C168.808 76.9879 169.45 77.1483 170.051 77.6709C170.27 78.1448 170.308 78.5646 170.196 79.0671C169.742 79.929 168.915 80.3788 168.024 80.6917C167.382 80.8616 166.733 80.9958 166.081 81.1254C165.61 81.1799 165.61 81.1799 165.445 81.3687C165.573 81.3933 165.701 81.4179 165.832 81.4433C166.001 81.4773 166.17 81.5113 166.345 81.5464C166.511 81.5794 166.678 81.6124 166.85 81.6463C167.467 81.8065 168.206 82.0271 168.567 82.5872C168.635 83.0441 168.635 83.0441 168.567 83.5349C167.825 84.5069 166.634 85.0855 165.445 85.295C164.434 85.3762 163.623 85.4179 162.731 84.8888C162.458 84.5576 162.46 84.3627 162.451 83.9326C162.581 83.1694 163.113 82.5332 163.545 81.9102C163.433 81.8544 163.321 81.7985 163.206 81.741C163.038 81.6237 163.038 81.6237 162.867 81.5041C162.867 81.3254 162.867 81.1466 162.867 80.9625C163.524 80.7817 164.079 80.6574 164.767 80.6917C164.82 80.5729 164.82 80.5729 164.874 80.4516C165.049 80.1311 165.237 79.9156 165.496 79.6594C165.576 79.5795 165.655 79.4995 165.737 79.4172C166.265 78.9658 166.655 78.9004 167.346 78.9317C167.216 79.1068 167.086 79.2816 166.955 79.4563C166.883 79.5537 166.81 79.6511 166.736 79.7514C166.531 80.0148 166.531 80.0148 166.26 80.2856C167.161 80.2276 168.064 80.1053 168.838 79.6086C169.018 79.2645 169.018 79.2645 169.11 78.9317C168.675 78.4332 168.35 78.4042 167.702 78.3563C166.691 78.3677 165.515 78.5649 164.631 79.0671C164.631 79.2011 164.631 79.3351 164.631 79.4732C164.374 79.5648 164.117 79.6547 163.859 79.744C163.644 79.8194 163.644 79.8194 163.425 79.8963C163.032 80.0066 162.729 80.0388 162.324 80.0148C162.188 79.6086 162.188 79.6086 162.329 79.2918C162.4 79.1758 162.471 79.0597 162.544 78.9401C162.613 78.8244 162.682 78.7087 162.753 78.5895C163.3 77.8551 163.882 77.6093 164.758 77.417C164.852 77.3948 164.946 77.3725 165.042 77.3496C165.949 77.1378 166.813 77.0094 167.744 77.0024ZM164.377 82.2741C164.079 82.6381 163.88 82.929 163.817 83.3995C163.918 83.7197 163.918 83.7197 164.224 83.9411C165.071 84.2257 165.806 84.0274 166.613 83.7052C167.018 83.493 167.251 83.2518 167.481 82.858C167.346 82.4978 167.275 82.347 166.92 82.1794C166.565 82.0856 166.209 81.996 165.853 81.9102C165.687 81.8572 165.522 81.8041 165.352 81.7495C164.807 81.7802 164.735 81.884 164.377 82.2741Z" fill="white"/>
<path d="M116.856 56.0509C117.618 56.0509 118.379 56.0509 119.163 56.0509C118.991 57.6482 118.796 59.2384 118.569 60.8286C118.539 61.0407 118.509 61.2527 118.479 61.4647C118.401 62.0136 118.323 62.5625 118.244 63.1113C118.164 63.675 118.084 64.2388 118.004 64.8025C117.848 65.9019 117.692 67.0012 117.535 68.1005C116.773 68.1005 116.012 68.1005 115.228 68.1005C115.4 66.5032 115.595 64.913 115.822 63.3228C115.852 63.1107 115.882 62.8987 115.913 62.6867C115.99 62.1378 116.068 61.5889 116.147 61.0401C116.227 60.4764 116.307 59.9127 116.387 59.3489C116.543 58.2495 116.699 57.1502 116.856 56.0509Z" fill="white"/>
<path d="M228.909 56.0377C229.111 56.0385 229.313 56.0403 229.515 56.0425C229.702 56.044 229.888 56.0455 230.075 56.0469C230.331 56.0489 230.331 56.0489 230.592 56.0509C230.422 57.6481 230.225 59.2387 229.997 60.8287C229.967 61.0407 229.937 61.2527 229.907 61.4648C229.829 62.0137 229.751 62.5625 229.673 63.1113C229.593 63.675 229.513 64.2388 229.433 64.8026C229.277 65.9019 229.12 67.0013 228.964 68.1005C228.202 68.1005 227.441 68.1005 226.656 68.1005C226.827 66.5148 227.02 64.9359 227.246 63.3572C227.276 63.1485 227.306 62.9398 227.335 62.7312C227.397 62.3001 227.459 61.869 227.521 61.438C227.6 60.8848 227.679 60.3315 227.757 59.7782C227.818 59.3502 227.879 58.9222 227.94 58.4943C227.97 58.29 227.999 58.0856 228.028 57.8813C228.068 57.5985 228.108 57.3157 228.149 57.033C228.184 56.7919 228.184 56.7919 228.219 56.546C228.319 56.0008 228.326 56.0535 228.909 56.0377Z" fill="white"/>
<path d="M128.936 56.0509C129.653 56.0509 130.37 56.0509 131.108 56.0509C131.108 56.8032 131.08 57.4846 130.973 58.2199C130.959 58.3224 130.944 58.4249 130.929 58.5306C130.882 58.8657 130.834 59.2006 130.786 59.5356C130.753 59.7698 130.72 60.0041 130.687 60.2383C130.617 60.7274 130.548 61.2163 130.477 61.7053C130.388 62.3322 130.299 62.9593 130.21 63.5864C130.142 64.0693 130.073 64.5521 130.004 65.0349C129.971 65.2661 129.938 65.4974 129.906 65.7288C129.86 66.0512 129.814 66.3736 129.767 66.696C129.754 66.7916 129.74 66.8872 129.727 66.9857C129.67 67.3741 129.604 67.727 129.479 68.1005C128.763 68.1005 128.046 68.1005 127.308 68.1005C127.392 66.6987 127.549 65.3253 127.749 63.9362C127.779 63.7247 127.809 63.5132 127.838 63.3017C127.901 62.8627 127.963 62.4238 128.026 61.9849C128.107 61.4229 128.186 60.8608 128.266 60.2987C128.327 59.8638 128.389 59.429 128.451 58.9942C128.48 58.7868 128.51 58.5794 128.539 58.372C128.58 58.0834 128.621 57.7948 128.663 57.5063C128.686 57.3424 128.71 57.1786 128.734 57.0098C128.801 56.5925 128.801 56.5925 128.936 56.0509Z" fill="white"/>
<path d="M118.893 80.6917C119.054 80.9794 119.054 80.9794 119.164 81.3686C118.878 82.3269 118.049 82.7799 117.222 83.2471C116.857 83.3994 116.857 83.3994 116.45 83.3994C116.584 83.6675 116.718 83.9356 116.857 84.2118C117.595 84.174 118.043 83.8629 118.628 83.4502C118.893 83.2641 118.893 83.2641 119.164 83.1287C119.107 83.7785 118.812 84.1808 118.35 84.6179C117.711 85.1483 117.153 85.4059 116.312 85.3509C116.043 85.2949 116.043 85.2949 115.703 85.0833C115.443 84.6608 115.402 84.296 115.364 83.8056C115.23 83.895 115.095 83.9843 114.957 84.0764C114.789 84.0624 114.621 84.0485 114.448 84.0341C114.06 84.0198 113.913 84.0446 113.599 84.2816C113.433 84.4512 113.273 84.6251 113.117 84.8036C112.84 85.1152 112.675 85.1556 112.259 85.2187C111.835 85.1595 111.835 85.1595 111.513 84.8464C111.164 84.2219 111.164 83.5472 111.292 82.8579C111.509 82.3999 111.782 82.0263 112.107 81.6394C112.196 81.5249 112.286 81.4104 112.378 81.2925C112.748 81.0272 113.02 81.0575 113.464 81.0978C113.566 81.3178 113.566 81.3178 113.6 81.6394C113.345 82.099 113.082 82.4286 112.692 82.7817C112.304 83.2106 112.276 83.5093 112.242 84.0764C112.578 83.8863 112.876 83.715 113.15 83.4418C113.209 83.3831 113.268 83.3245 113.328 83.2641C113.418 83.2641 113.507 83.2641 113.6 83.2641C113.605 83.13 113.611 82.996 113.617 82.8579C113.713 82.1918 114.064 81.6899 114.55 81.2332C115.008 81.0978 115.008 81.0978 115.364 81.0978C115.327 81.9379 115.214 82.4655 114.685 83.1287C114.73 83.218 114.775 83.3074 114.821 83.3994C115.164 83.3148 115.164 83.3148 115.5 83.1287C115.546 82.9031 115.591 82.6775 115.635 82.4517C116.393 81.2641 117.479 80.5635 118.893 80.6917ZM117.943 81.3686C117.298 81.7485 116.966 82.0795 116.585 82.7225C116.63 82.8119 116.675 82.9012 116.721 82.9933C116.897 82.8672 117.072 82.74 117.247 82.6125C117.394 82.5065 117.394 82.5065 117.543 82.3983C117.838 82.1765 117.838 82.1765 118.078 81.7748C118.034 81.6407 117.989 81.5067 117.943 81.3686Z" fill="white"/>
<path d="M164.495 25.8593C165.749 25.8593 167.003 25.8593 168.295 25.8593C168.074 29.4647 168.074 29.4647 167.752 29.7855C167.471 29.7974 167.189 29.8 166.908 29.7987C166.737 29.7983 166.566 29.7979 166.39 29.7974C166.208 29.7963 166.026 29.7951 165.844 29.794C165.661 29.7933 165.479 29.7927 165.296 29.7921C164.848 29.7905 164.4 29.7883 163.952 29.7855C164.019 28.8479 164.087 27.915 164.224 26.9847C164.246 26.8278 164.268 26.6709 164.291 26.5092C164.359 26.13 164.359 26.13 164.495 25.8593Z" fill="white"/>
<path d="M98.1267 85.8365C98.3982 86.1072 98.3982 86.1072 98.3982 86.488C98.2256 87.0366 97.9437 87.3253 97.4481 87.5965C96.9222 87.7065 96.9222 87.7065 96.498 87.7319C96.6896 87.2701 96.9137 87.0759 97.3124 86.7842C97.3124 86.6948 97.3124 86.6055 97.3124 86.5134C97.178 86.4687 97.0436 86.4241 96.9052 86.378C96.95 86.244 96.9948 86.11 97.0409 85.9719C97.4159 85.7848 97.7124 85.8106 98.1267 85.8365Z" fill="white"/>
<path d="M133.008 77.8485C132.968 78.3593 132.938 78.7051 132.634 79.1263C132.274 79.3761 132.08 79.3855 131.65 79.3378C131.69 78.827 131.721 78.4813 132.024 78.0601C132.384 77.8102 132.578 77.8009 133.008 77.8485Z" fill="white"/>
<path d="M106.542 77.8485C106.502 78.3593 106.472 78.7051 106.169 79.1263C105.808 79.3761 105.615 79.3855 105.185 79.3378C105.224 78.827 105.255 78.4813 105.558 78.0601C105.918 77.8102 106.112 77.8009 106.542 77.8485Z" fill="white"/>
<path d="M95.2771 77.8485C95.2378 78.3593 95.207 78.7051 94.9039 79.1263C94.5432 79.3761 94.35 79.3855 93.9199 79.3378C93.9593 78.827 93.99 78.4813 94.2932 78.0601C94.6538 77.8102 94.8471 77.8009 95.2771 77.8485Z" fill="white"/>
<path d="M134.467 77.8824C134.568 77.9159 134.668 77.9494 134.772 77.9839C134.704 78.5767 134.524 78.9208 134.094 79.3378C133.72 79.3801 133.72 79.3801 133.415 79.3378C133.455 78.8246 133.489 78.478 133.788 78.0516C134.094 77.8485 134.094 77.8485 134.467 77.8824Z" fill="white"/>
<path d="M108.001 77.8824C108.102 77.9159 108.203 77.9494 108.306 77.9839C108.239 78.5767 108.058 78.9208 107.628 79.3378C107.255 79.3801 107.255 79.3801 106.949 79.3378C106.989 78.8246 107.023 78.478 107.322 78.0516C107.628 77.8485 107.628 77.8485 108.001 77.8824Z" fill="white"/>
<path d="M96.7354 77.8824C96.8362 77.9159 96.937 77.9494 97.0408 77.9839C96.9729 78.5767 96.7922 78.9208 96.3622 79.3378C95.989 79.3801 95.989 79.3801 95.6836 79.3378C95.7232 78.8246 95.7576 78.478 96.0568 78.0516C96.3622 77.8485 96.3622 77.8485 96.7354 77.8824Z" fill="white"/>
<path d="M155.071 79.177C155.402 79.2024 155.402 79.2024 155.538 79.3378C155.456 80.2313 155.456 80.2313 155.131 80.5563C154.783 80.5817 154.783 80.5817 154.452 80.5563C154.407 80.5116 154.363 80.4669 154.316 80.4209C154.425 79.2241 154.425 79.2241 155.071 79.177Z" fill="white"/>
<path d="M149.37 79.177C149.701 79.2024 149.701 79.2024 149.837 79.3378C149.755 80.2313 149.755 80.2313 149.43 80.5563C149.082 80.5817 149.082 80.5817 148.751 80.5563C148.706 80.5116 148.661 80.4669 148.615 80.4209C148.724 79.2241 148.724 79.2241 149.37 79.177Z" fill="white"/>
</svg>
