<svg width="20" height="21" viewBox="0 0 20 21" fill="none" xmlns="http://www.w3.org/2000/svg">
<path d="M17.5 3.81421H2.5C2.33424 3.81421 2.17527 3.88006 2.05806 3.99727C1.94085 4.11448 1.875 4.27345 1.875 4.43921V15.0642C1.875 15.3957 2.0067 15.7137 2.24112 15.9481C2.47554 16.1825 2.79348 16.3142 3.125 16.3142H16.875C17.2065 16.3142 17.5245 16.1825 17.7589 15.9481C17.9933 15.7137 18.125 15.3957 18.125 15.0642V4.43921C18.125 4.27345 18.0592 4.11448 17.9419 3.99727C17.8247 3.88006 17.6658 3.81421 17.5 3.81421ZM15.893 5.06421L10 10.4666L4.10703 5.06421H15.893ZM16.875 15.0642H3.125V5.8603L9.57734 11.7751C9.69265 11.881 9.84348 11.9397 10 11.9397C10.1565 11.9397 10.3074 11.881 10.4227 11.7751L16.875 5.8603V15.0642Z" fill="#B9B9B9"/>
</svg>
