<svg width="85" height="83" viewBox="0 0 85 83" fill="none" xmlns="http://www.w3.org/2000/svg">
<path d="M53.3006 20.5666C61.6666 20.3873 69.489 23.6264 75.5212 29.37C81.3913 35.1914 84.424 43.0316 84.5235 51.2807C84.4425 58.5485 81.8625 65.7359 77.0648 71.1944C76.893 71.394 76.7211 71.5936 76.544 71.7992C71.811 77.2109 64.8649 80.9134 57.7293 81.7198C57.7293 81.5862 57.7293 81.4527 57.7293 81.315C57.9607 81.2193 58.192 81.1235 58.4303 81.0248C60.4588 80.1654 62.229 79.2402 63.9731 77.874C64.0818 77.7898 64.1905 77.7055 64.3025 77.6187C69.3936 73.6332 72.6582 67.5319 73.5394 61.1212C73.9203 57.6934 73.8596 54.1079 73.0366 50.7507C72.9798 50.5148 72.9798 50.5148 72.9218 50.2742C70.9913 42.5398 66.1047 35.8332 59.3666 31.6361C53.4738 28.092 46.3016 26.6897 39.5779 28.3208C35.5383 29.3723 32.1297 31.2628 28.9275 33.9504C28.9275 32.2749 31.3169 30.3699 32.4694 29.1741C33.2462 28.3997 34.0964 27.7279 34.9698 27.0684C35.2534 26.8511 35.2534 26.8511 35.5426 26.6295C40.7641 22.8089 46.8756 20.8263 53.3006 20.5666Z" fill="#ED1C27"/>
<path d="M62.1883 7.90825C63.6791 9.24369 65.2133 10.6644 66.3899 12.2922C66.3234 12.4258 66.257 12.5594 66.1885 12.6971C66.0223 12.5697 65.8561 12.4424 65.6849 12.3112C60.2492 8.2294 53.8351 6.52497 47.0803 7.33471C39.84 8.39921 33.0446 12.5109 28.647 18.3627C23.8874 24.8607 21.5715 32.8484 22.7214 40.8831C23.6389 46.5586 26.12 51.5107 30.1358 55.6086C30.3028 55.7813 30.4697 55.9541 30.6417 56.132C32.8322 58.2694 35.5038 59.7769 38.3497 60.8501C39.383 61.2405 39.383 61.2405 39.6022 61.681C31.3165 60.9115 24.0264 56.9639 18.5279 50.723C12.8732 43.8492 10.8942 35.3538 11.6664 26.5839C11.8236 25.3714 12.0815 24.1963 12.4116 23.0201C12.4548 22.8643 12.4979 22.7084 12.5424 22.5478C13.8217 18.0743 15.9953 13.8861 19.2281 10.5235C19.6739 10.0672 19.6739 10.0672 20.0786 9.5407C20.6668 8.80504 21.3564 8.23543 22.0794 7.63675C22.2686 7.47942 22.4579 7.32208 22.6529 7.15998C26.281 4.21411 30.629 2.1843 35.1711 1.15954C35.3143 1.1264 35.4575 1.09327 35.6051 1.05912C44.9656 -1.01277 54.9442 1.70807 62.1883 7.90825Z" fill="#ED1C27"/>
<path d="M57.9306 38.201C58.6656 38.8691 58.8966 39.6217 59.2272 40.5414C59.2887 40.7111 59.3503 40.8808 59.4137 41.0556C60.5913 44.4055 60.9989 47.7051 61.0021 51.244C61.0023 51.3984 61.0025 51.5528 61.0027 51.7118C61.0007 53.9501 60.9043 56.0623 60.3475 58.2399C60.2669 58.6074 60.2669 58.6074 60.1847 58.9824C58.9112 64.3804 56.0429 69.0167 52.2911 73.0161C52.1581 73.1627 52.0252 73.3093 51.8882 73.4604C46.7308 78.938 39.0337 81.9218 31.6188 82.1697C22.8364 82.3538 15.3795 79.1841 8.98759 73.2185C8.86582 73.1071 8.74405 72.9956 8.6186 72.8809C4.09665 68.5706 1.25747 62.1353 0.326895 56.0134C0.290027 55.778 0.25316 55.5427 0.215175 55.3002C-0.313883 50.8636 0.160332 46.4286 1.33395 42.1481C1.38409 41.9652 1.43424 41.7823 1.4859 41.5938C1.56023 41.339 1.56023 41.339 1.63607 41.0791C1.7015 40.8535 1.7015 40.8535 1.76825 40.6233C1.9577 40.1795 2.18407 39.9346 2.54242 39.6179C2.52788 39.751 2.51334 39.8841 2.49836 40.0212C1.7881 47.3376 3.54847 53.9187 8.18003 59.6608C9.98376 61.8446 12.0604 63.5852 14.4257 65.122C14.7038 65.3059 14.7038 65.3059 14.9875 65.4936C21.3488 69.4735 29.5241 70.5695 36.7824 68.9678C42.5733 67.5898 47.5682 64.8179 51.6868 60.4665C51.8161 60.3355 51.9454 60.2045 52.0786 60.0695C56.205 55.7203 58.4332 49.657 58.3838 43.6915C58.383 43.4626 58.3822 43.2336 58.3814 42.9978C58.3646 41.3686 58.2548 39.8009 57.9306 38.201Z" fill="#ED1C27"/>
</svg>
