<svg width="632" height="993" viewBox="0 0 632 993" fill="none" xmlns="http://www.w3.org/2000/svg">
<g clip-path="url(#clip0_8667_5472)">
<rect width="632" height="993" fill="url(#paint0_linear_8667_5472)"/>
<rect x="-329" width="1440" height="993" rx="24" fill="url(#paint1_linear_8667_5472)"/>
<path d="M550.322 263.194L532.679 280.907L481.772 230L532.679 179.163L550.392 196.876L517.198 230L550.322 263.194Z" fill="white"/>
<path d="M700.391 148.619L631.771 217.169L563.151 148.619L631.771 80L700.391 148.619Z" fill="white"/>
<path d="M700.391 311.45L631.771 380L563.151 311.45L631.771 242.831L700.391 311.45Z" fill="white"/>
<path d="M142.171 122.567C150.537 122.387 158.36 125.626 164.392 131.37C170.262 137.191 173.295 145.032 173.394 153.281C173.313 160.548 170.733 167.736 165.935 173.194C165.764 173.394 165.592 173.594 165.415 173.799C160.682 179.211 153.736 182.913 146.6 183.72C146.6 183.586 146.6 183.453 146.6 183.315C146.831 183.219 147.063 183.123 147.301 183.025C149.329 182.165 151.1 181.24 152.844 179.874C152.952 179.79 153.061 179.706 153.173 179.619C158.264 175.633 161.529 169.532 162.41 163.121C162.791 159.693 162.73 156.108 161.907 152.751C161.85 152.515 161.85 152.515 161.792 152.274C159.862 144.54 154.975 137.833 148.237 133.636C142.344 130.092 135.172 128.69 128.449 130.321C124.409 131.372 121 133.263 117.798 135.95C117.798 134.275 120.187 132.37 121.34 131.174C122.117 130.4 122.967 129.728 123.84 129.068C124.124 128.851 124.124 128.851 124.413 128.63C129.635 124.809 135.746 122.826 142.171 122.567Z" fill="white"/>
<path d="M151.059 109.908C152.55 111.244 154.084 112.664 155.26 114.292C155.194 114.426 155.128 114.559 155.059 114.697C154.893 114.57 154.727 114.442 154.556 114.311C149.12 110.229 142.706 108.525 135.951 109.335C128.711 110.399 121.915 114.511 117.518 120.363C112.758 126.861 110.442 134.848 111.592 142.883C112.51 148.559 114.991 153.511 119.006 157.609C119.173 157.781 119.34 157.954 119.512 158.132C121.703 160.269 124.374 161.777 127.22 162.85C128.254 163.24 128.254 163.24 128.473 163.681C120.187 162.911 112.897 158.964 107.399 152.723C101.744 145.849 99.7648 137.354 100.537 128.584C100.694 127.371 100.952 126.196 101.282 125.02C101.325 124.864 101.369 124.708 101.413 124.548C102.692 120.074 104.866 115.886 108.099 112.523C108.544 112.067 108.544 112.067 108.949 111.541C109.537 110.805 110.227 110.235 110.95 109.637C111.139 109.479 111.329 109.322 111.524 109.16C115.152 106.214 119.5 104.184 124.042 103.159C124.185 103.126 124.328 103.093 124.476 103.059C133.836 100.987 143.815 103.708 151.059 109.908Z" fill="white"/>
<path d="M146.801 140.201C147.536 140.869 147.767 141.622 148.098 142.541C148.159 142.711 148.221 142.881 148.284 143.056C149.462 146.406 149.87 149.705 149.873 153.244C149.873 153.398 149.873 153.553 149.873 153.712C149.871 155.95 149.775 158.062 149.218 160.24C149.138 160.607 149.138 160.607 149.055 160.982C147.782 166.38 144.913 171.017 141.162 175.016C141.029 175.163 140.896 175.309 140.759 175.46C135.601 180.938 127.904 183.922 120.489 184.17C111.707 184.354 104.25 181.184 97.8582 175.218C97.7364 175.107 97.6147 174.996 97.4892 174.881C92.9673 170.571 90.1281 164.135 89.1975 158.013C89.1606 157.778 89.1238 157.543 89.0858 157.3C88.5567 152.864 89.0309 148.429 90.2046 144.148C90.2547 143.965 90.3048 143.782 90.3565 143.594C90.4308 143.339 90.4308 143.339 90.5067 143.079C90.5721 142.853 90.5721 142.853 90.6389 142.623C90.8283 142.179 91.0547 141.935 91.413 141.618C91.3985 141.751 91.3839 141.884 91.369 142.021C90.6587 149.338 92.4191 155.919 97.0506 161.661C98.8544 163.845 100.931 165.585 103.296 167.122C103.574 167.306 103.574 167.306 103.858 167.494C110.219 171.473 118.395 172.569 125.653 170.968C131.444 169.59 136.439 166.818 140.557 162.466C140.687 162.335 140.816 162.204 140.949 162.07C145.076 157.72 147.304 151.657 147.254 145.691C147.254 145.463 147.253 145.234 147.252 144.998C147.235 143.369 147.125 141.801 146.801 140.201Z" fill="white"/>
<path d="M237.839 114.495C239.767 114.495 241.694 114.495 243.68 114.495C243.481 115.964 243.281 117.434 243.076 118.948C245.269 119.048 245.269 119.048 247.507 119.15C247.399 120.829 247.206 122.334 246.903 124.008C245.374 124.008 243.845 124.008 242.27 124.008C242.216 124.522 242.162 125.035 242.107 125.564C241.992 126.638 241.863 127.708 241.699 128.776C241.657 129.055 241.657 129.055 241.613 129.339C241.558 129.698 241.5 130.057 241.44 130.415C241.269 131.521 241.13 132.636 241.465 133.724C242.189 134.422 242.971 134.425 243.945 134.47C244.197 134.484 244.45 134.497 244.71 134.511C244.902 134.518 245.094 134.526 245.291 134.534C245.263 135.115 245.233 135.697 245.203 136.279C245.195 136.443 245.188 136.607 245.179 136.775C245.133 137.661 245.056 138.518 244.889 139.391C242.812 140.087 239.975 139.714 238.041 138.784C236.616 137.856 235.773 136.683 235.359 135.04C234.952 132.503 235.553 129.774 235.938 127.259C235.986 126.942 236.034 126.624 236.081 126.306C236.196 125.54 236.313 124.774 236.429 124.008C235.366 124.008 234.302 124.008 233.207 124.008C233.273 122.939 233.34 121.871 233.408 120.769C232.027 123.401 230.654 126.037 229.286 128.676C228.68 129.844 228.074 131.011 227.468 132.178C226.959 133.158 226.45 134.138 225.942 135.119C224.926 137.078 223.907 139.035 222.883 140.99C221.889 142.884 220.902 144.781 219.914 146.678C217.787 146.678 215.66 146.678 213.468 146.678C214.931 143.684 214.931 143.684 215.687 142.38C215.789 142.203 215.891 142.026 215.995 141.843C216.196 141.496 216.399 141.152 216.607 140.809C216.699 140.648 216.792 140.487 216.887 140.321C216.971 140.181 217.054 140.04 217.14 139.895C217.522 138.653 216.961 137.128 216.646 135.901C216.601 135.721 216.555 135.541 216.509 135.356C216.36 134.768 216.211 134.18 216.061 133.592C215.957 133.182 215.854 132.771 215.75 132.361C215.478 131.285 215.206 130.21 214.933 129.134C214.495 127.408 214.058 125.681 213.622 123.954C213.469 123.35 213.316 122.746 213.163 122.142C213.07 121.775 212.976 121.408 212.883 121.041C212.84 120.872 212.797 120.703 212.753 120.529C212.461 119.375 212.461 119.375 212.461 119.15C214.455 119.15 216.449 119.15 218.504 119.15C218.69 119.976 218.877 120.802 219.069 121.653C219.218 122.311 219.367 122.969 219.517 123.627C219.674 124.322 219.831 125.017 219.988 125.712C220.168 126.51 220.349 127.307 220.53 128.105C220.586 128.354 220.642 128.603 220.7 128.86C220.752 129.091 220.805 129.322 220.859 129.56C220.905 129.763 220.951 129.967 220.998 130.177C221.12 130.708 221.12 130.708 221.324 131.295C221.386 131.168 221.449 131.041 221.513 130.91C222.815 128.274 224.135 125.651 225.51 123.053C225.854 122.403 226.197 121.752 226.539 121.101C226.882 120.45 227.224 119.8 227.567 119.15C227.855 119.146 227.855 119.146 228.149 119.141C228.868 119.129 229.588 119.114 230.307 119.097C230.617 119.09 230.927 119.085 231.237 119.08C234.102 119.091 234.102 119.091 236.618 117.86C237.458 116.786 237.532 115.886 237.839 114.495Z" fill="white"/>
<path d="M285.372 119.745C285.961 120.175 286.5 120.624 286.984 121.174C287.067 121.096 287.15 121.018 287.235 120.937C289.308 119.059 291.673 118.474 294.436 118.543C296.231 118.755 297.863 119.381 299.031 120.813C300.845 123.452 300.471 126.023 300.038 129.043C299.991 129.383 299.944 129.723 299.897 130.062C299.803 130.749 299.707 131.435 299.611 132.121C299.48 133.051 299.355 133.981 299.231 134.911C299.16 135.443 299.089 135.975 299.018 136.507C298.969 136.877 298.969 136.877 298.919 137.254C298.888 137.478 298.858 137.702 298.826 137.933C298.8 138.128 298.774 138.323 298.746 138.524C298.666 138.987 298.666 138.987 298.464 139.391C296.603 139.391 294.742 139.391 292.825 139.391C292.946 137.8 293.074 136.255 293.31 134.685C293.365 134.308 293.419 133.93 293.473 133.553C293.558 132.973 293.643 132.393 293.729 131.814C294.442 128.298 294.442 128.298 293.895 124.894C293.155 124.13 292.562 123.988 291.528 123.945C290.363 123.98 289.59 124.373 288.759 125.185C287.072 127.387 287.206 131.528 286.858 134.192C286.764 134.907 286.67 135.622 286.575 136.338C286.516 136.78 286.458 137.222 286.4 137.665C286.374 137.862 286.348 138.06 286.321 138.263C286.298 138.438 286.275 138.612 286.252 138.792C286.178 139.189 286.178 139.189 285.977 139.391C285.559 139.409 285.141 139.413 284.723 139.411C284.343 139.41 284.343 139.41 283.954 139.409C283.684 139.408 283.414 139.406 283.144 139.404C282.874 139.403 282.603 139.402 282.332 139.401C281.667 139.399 281.002 139.396 280.337 139.391C280.428 137.87 280.61 136.37 280.823 134.862C280.849 134.673 280.876 134.483 280.903 134.288C281.015 133.495 281.127 132.703 281.242 131.911C281.957 128.345 281.957 128.345 281.407 124.894C280.667 124.13 280.074 123.988 279.041 123.945C277.876 123.98 277.103 124.373 276.271 125.185C274.585 127.387 274.719 131.528 274.37 134.192C274.276 134.907 274.182 135.622 274.087 136.338C274.028 136.78 273.97 137.222 273.913 137.665C273.873 137.961 273.873 137.961 273.833 138.263C273.81 138.438 273.788 138.612 273.764 138.792C273.691 139.189 273.691 139.189 273.489 139.391C273.072 139.409 272.654 139.413 272.236 139.411C271.855 139.41 271.855 139.41 271.467 139.409C271.197 139.408 270.927 139.406 270.657 139.404C270.386 139.403 270.115 139.402 269.844 139.401C269.179 139.399 268.515 139.395 267.85 139.391C268.105 136.815 268.412 134.251 268.769 131.686C268.818 131.334 268.867 130.982 268.915 130.63C269.016 129.902 269.117 129.174 269.218 128.446C269.348 127.512 269.477 126.578 269.606 125.644C269.705 124.921 269.805 124.199 269.906 123.476C269.954 123.131 270.001 122.786 270.049 122.442C270.114 121.964 270.181 121.486 270.248 121.008C270.267 120.866 270.287 120.724 270.307 120.577C270.445 119.601 270.445 119.601 270.669 119.15C272.397 119.15 274.126 119.15 275.906 119.15C276.006 119.751 276.006 119.751 276.107 120.365C276.21 120.284 276.313 120.203 276.419 120.12C279.065 118.182 282.576 117.916 285.372 119.745Z" fill="white"/>
<path d="M200.175 111.661C202.767 111.661 205.36 111.661 208.03 111.661C208.16 112.32 208.29 112.98 208.424 113.659C208.857 115.853 209.289 118.046 209.722 120.239C209.984 121.568 210.246 122.896 210.507 124.224C210.761 125.509 211.014 126.794 211.267 128.079C211.364 128.566 211.46 129.053 211.556 129.54C211.647 130.004 211.739 130.469 211.83 130.934C211.918 131.376 212.005 131.819 212.092 132.261C212.292 133.28 212.495 134.299 212.706 135.316C212.744 135.501 212.781 135.686 212.821 135.877C212.891 136.219 212.962 136.56 213.034 136.901C213.08 137.128 213.08 137.128 213.128 137.359C213.168 137.554 213.168 137.554 213.21 137.752C213.283 138.294 213.267 138.845 213.267 139.391C211.273 139.391 209.279 139.391 207.225 139.391C206.931 138.359 206.688 137.378 206.495 136.33C206.454 136.121 206.454 136.121 206.413 135.907C206.272 135.154 206.218 134.497 206.218 133.724C202.961 133.724 199.704 133.724 196.348 133.724C196.215 134.125 196.083 134.525 195.946 134.938C195.794 135.288 195.636 135.635 195.473 135.98C195.384 136.167 195.295 136.354 195.204 136.546C195.112 136.738 195.021 136.929 194.926 137.127C194.787 137.42 194.787 137.42 194.645 137.72C193.959 139.162 193.959 139.162 193.73 139.391C193.237 139.409 192.75 139.415 192.256 139.411C192.109 139.411 191.962 139.411 191.81 139.41C191.338 139.409 190.866 139.407 190.394 139.404C190.075 139.403 189.756 139.402 189.436 139.401C188.652 139.399 187.868 139.396 187.083 139.391C187.35 138.536 187.673 137.744 188.065 136.938C188.179 136.701 188.294 136.464 188.411 136.22C188.472 136.096 188.532 135.972 188.595 135.844C188.787 135.449 188.978 135.054 189.169 134.659C189.427 134.124 189.686 133.589 189.945 133.054C190.43 132.052 190.91 131.048 191.389 130.043C191.476 129.859 191.563 129.676 191.653 129.487C192.189 128.359 192.72 127.228 193.248 126.096C194.714 122.952 196.195 119.817 197.708 116.696C197.786 116.535 197.863 116.375 197.944 116.21C198.166 115.751 198.388 115.293 198.611 114.835C198.676 114.701 198.741 114.567 198.808 114.43C199.258 113.504 199.717 112.583 200.175 111.661ZM203.196 118.745C203.127 118.897 203.057 119.048 202.985 119.205C202.717 119.786 202.449 120.367 202.181 120.949C202.061 121.208 201.941 121.467 201.822 121.727C201.22 123.031 200.618 124.335 200.001 125.631C199.916 125.808 199.832 125.985 199.746 126.167C199.59 126.493 199.434 126.818 199.277 127.143C198.899 127.87 198.899 127.87 198.765 128.664C200.892 128.664 203.019 128.664 205.211 128.664C204.921 126.775 204.62 124.893 204.283 123.013C204.229 122.711 204.176 122.41 204.124 122.108C204.047 121.665 203.968 121.223 203.889 120.781C203.843 120.521 203.797 120.261 203.75 119.993C203.632 119.325 203.632 119.325 203.196 118.745Z" fill="white"/>
<path d="M264.627 120.769C266.445 122.493 267.356 124.465 267.485 126.968C267.507 128.406 267.399 129.463 267.044 130.89C262.391 130.89 257.739 130.89 252.945 130.89C253.759 133.148 253.759 133.148 255.334 134.377C256.587 134.832 258.504 134.766 259.718 134.205C260.44 133.764 260.91 133.192 261.404 132.509C262.483 132.824 263.419 133.315 264.4 133.85C264.558 133.935 264.716 134.02 264.879 134.108C265.265 134.317 265.651 134.526 266.037 134.736C265.659 136.397 264.401 137.493 263.016 138.379C260.475 139.955 257.295 140.191 254.404 139.656C251.986 138.97 249.837 137.682 248.518 135.49C246.88 132.458 246.684 129.299 247.646 125.997C248.557 123.176 250.528 120.979 253.134 119.644C256.824 117.882 261.407 118.102 264.627 120.769ZM254.059 125.151C253.676 125.679 253.676 125.679 253.549 126.639C256.142 126.639 258.734 126.639 261.404 126.639C261.231 124.938 261.231 124.938 260.196 123.806C257.879 122.512 255.697 123.251 254.059 125.151Z" fill="white"/>
<path d="M293.832 150.119C295.373 150.1 296.913 150.086 298.454 150.077C299.17 150.073 299.886 150.067 300.601 150.058C301.426 150.048 302.251 150.044 303.076 150.04C303.33 150.036 303.584 150.032 303.846 150.028C305.977 150.027 307.628 150.47 309.201 151.954C310.376 153.304 310.628 154.808 310.602 156.551C310.428 158.673 309.404 159.996 307.931 161.454C308.008 161.543 308.086 161.631 308.167 161.722C309.832 163.636 310.455 165.051 310.41 167.601C310.223 169.807 309.322 171.526 307.685 172.986C305.486 174.679 303.072 174.935 300.38 174.893C300.09 174.891 299.8 174.89 299.511 174.889C298.757 174.886 298.004 174.878 297.251 174.869C296.478 174.861 295.706 174.857 294.934 174.853C293.425 174.845 291.916 174.831 290.408 174.814C291.209 168.719 292.045 162.631 292.913 156.546C292.947 156.305 292.947 156.305 292.982 156.06C293.265 154.08 293.548 152.099 293.832 150.119ZM296.853 153.358C296.778 153.762 296.715 154.168 296.657 154.575C296.621 154.824 296.586 155.074 296.549 155.331C296.512 155.594 296.475 155.857 296.437 156.128C296.4 156.388 296.362 156.647 296.324 156.914C296.288 157.165 296.253 157.416 296.216 157.674C296.184 157.904 296.151 158.134 296.118 158.371C296.05 159 296.034 159.608 296.047 160.24C297.047 160.255 298.046 160.266 299.046 160.273C299.385 160.276 299.724 160.28 300.063 160.286C303.047 160.346 303.047 160.346 305.778 159.215C306.582 158.332 307.058 157.353 307.164 156.148C307.095 155.086 306.681 154.466 305.916 153.763C304.758 153.237 303.83 153.068 302.569 153.089C302.411 153.089 302.252 153.09 302.089 153.09C301.758 153.092 301.428 153.094 301.097 153.099C300.588 153.105 300.079 153.107 299.571 153.108C299.248 153.11 298.926 153.112 298.603 153.114C298.451 153.115 298.298 153.116 298.141 153.117C297.438 153.063 297.438 153.063 296.853 153.358ZM295.443 163.276C295.299 164.292 295.155 165.307 295.013 166.323C294.964 166.668 294.915 167.013 294.866 167.358C294.795 167.855 294.726 168.353 294.656 168.85C294.634 169.004 294.612 169.157 294.589 169.314C294.475 170.143 294.413 170.938 294.436 171.777C295.546 171.793 296.657 171.804 297.767 171.811C298.144 171.814 298.521 171.818 298.898 171.823C302.648 171.939 302.648 171.939 305.791 170.112C306.761 169.049 307.003 167.997 306.978 166.591C306.865 165.595 306.508 164.815 305.734 164.172C304.789 163.554 303.985 163.25 302.851 163.253C302.686 163.253 302.521 163.253 302.351 163.253C302.086 163.255 302.086 163.255 301.816 163.256C301.634 163.257 301.451 163.257 301.264 163.257C300.683 163.258 300.102 163.261 299.522 163.264C299.127 163.265 298.733 163.265 298.339 163.266C297.374 163.269 296.408 163.272 295.443 163.276Z" fill="white"/>
<path d="M312.764 119.15C318.414 119.15 324.064 119.15 329.884 119.15C329.19 124.501 329.19 124.501 327.559 125.937C327.39 126.103 327.22 126.268 327.045 126.438C326.511 126.954 325.964 127.454 325.415 127.955C325.053 128.301 324.69 128.648 324.329 128.996C322.982 130.287 321.612 131.55 320.199 132.768C319.718 133.203 319.265 133.669 318.807 134.129C323.193 134.229 323.193 134.229 327.669 134.331C327.467 137.165 327.467 137.165 327.065 139.391C321.282 139.391 315.499 139.391 309.542 139.391C310.025 134.779 310.025 134.779 311.336 133.471C311.436 133.37 311.537 133.269 311.64 133.165C311.97 132.834 312.302 132.505 312.634 132.177C312.864 131.947 313.093 131.717 313.323 131.487C313.926 130.883 314.531 130.28 315.137 129.679C315.864 128.956 316.588 128.23 317.313 127.505C318.413 126.405 319.517 125.308 320.619 124.21C317.828 124.144 315.036 124.077 312.16 124.008C312.359 122.405 312.559 120.802 312.764 119.15Z" fill="white"/>
<path d="M254.355 187.97C254.758 188.375 254.758 188.375 254.846 189.046C254.758 189.792 254.758 189.792 254.368 190.324C253.613 190.912 252.832 191.463 251.938 191.816C251.739 191.75 251.539 191.683 251.334 191.614C251.611 191.31 251.611 191.31 251.938 191.007C252.071 191.007 252.204 191.007 252.341 191.007C252.241 190.806 252.241 190.806 252.139 190.602C249.16 191.982 246.36 193.728 244.989 196.868C244.873 197.348 244.934 197.629 245.09 198.091C247.625 197.343 250.083 194.973 251.879 193.056C252.031 192.914 252.184 192.772 252.341 192.626C253.008 192.664 253.008 192.664 253.549 192.828C253.463 194.105 253.014 194.984 252.379 196.08C252.29 196.237 252.202 196.394 252.111 196.556C251.616 197.429 251.094 198.274 250.528 199.103C251.977 198.321 252.894 197.633 253.674 196.171C254.12 195.356 254.621 194.61 255.362 194.043C255.961 193.91 256.355 193.956 256.973 194.043C257.073 194.243 257.073 194.243 257.175 194.448C256.083 196.016 256.083 196.016 255.299 196.611C254.718 197.03 254.718 197.03 254.582 197.648C254.573 197.794 254.565 197.941 254.556 198.091C256.219 196.918 257.582 195.556 258.839 193.955C259.276 193.559 259.62 193.506 260.196 193.436C260.388 193.941 260.462 194.295 260.247 194.803C260.015 195.204 259.77 195.592 259.516 195.978C259.346 196.244 259.176 196.51 259.008 196.776C258.932 196.893 258.856 197.009 258.777 197.129C258.569 197.513 258.471 197.867 258.383 198.294C259.266 198.086 259.266 198.086 259.894 197.471C259.994 197.275 260.093 197.079 260.196 196.877C261.531 194.736 261.531 194.736 262.21 194.245C262.865 194.195 262.865 194.195 263.419 194.245C263.57 194.574 263.57 194.574 263.62 195.055C263.242 195.742 262.852 196.235 262.273 196.763C261.697 197.404 261.655 197.85 261.606 198.698C262.104 198.414 262.546 198.158 262.953 197.75C263.04 197.662 263.127 197.574 263.217 197.484C263.35 197.484 263.483 197.484 263.62 197.484C263.628 197.283 263.637 197.083 263.645 196.877C263.789 195.881 264.309 195.13 265.03 194.448C265.71 194.245 265.71 194.245 266.238 194.245C266.183 195.501 266.015 196.29 265.231 197.281C265.298 197.415 265.364 197.549 265.433 197.686C265.941 197.56 265.941 197.56 266.44 197.281C266.508 196.944 266.575 196.607 266.641 196.269C267.412 195.051 268.512 194.132 269.864 193.638C270.432 193.565 270.9 193.585 271.475 193.638C271.714 194.068 271.714 194.068 271.878 194.65C271.453 196.083 270.223 196.76 268.995 197.459C268.454 197.686 268.454 197.686 267.85 197.686C268.049 198.087 268.248 198.488 268.454 198.901C269.575 198.816 270.432 198.424 271.274 197.686C271.52 197.297 271.699 196.908 271.882 196.486C272.222 195.765 272.655 195.139 273.288 194.65C274.068 194.562 274.068 194.562 274.698 194.65C274.593 195.487 274.364 195.9 273.791 196.51C273.276 197.054 273.276 197.054 272.885 197.686C273.028 197.541 273.171 197.395 273.319 197.245C273.867 196.695 274.429 196.163 275 195.637C275.277 195.379 275.277 195.379 275.56 195.117C276.062 194.688 276.527 194.341 277.114 194.043C277.681 194.106 277.681 194.106 278.122 194.245C278.266 195.082 278.257 195.464 277.77 196.178C277.48 196.529 277.184 196.874 276.882 197.214C276.526 197.667 276.39 197.933 276.309 198.496C277.708 197.914 278.268 197.353 278.866 195.969C279.302 195.124 279.932 194.532 280.74 194.043C281.445 193.954 281.445 193.954 281.948 194.043C281.973 195.2 281.618 195.67 280.828 196.51C280.578 196.758 280.578 196.758 280.324 197.012C279.849 197.486 279.849 197.486 279.934 198.294C280.265 198.475 280.265 198.475 280.74 198.496C281.345 198.261 281.686 198.114 282.15 197.686C282.434 196.992 282.434 196.992 282.568 196.463C283.229 194.341 284.279 192.244 285.775 190.602C285.881 190.475 285.987 190.348 286.096 190.217C286.405 189.868 286.405 189.868 286.984 189.387C287.563 189.413 287.563 189.413 287.991 189.59C287.978 192.466 286.336 194.517 284.515 196.582C284.083 197.083 284.083 197.083 284.214 197.851C284.289 198.17 284.289 198.17 284.365 198.496C284.939 198.765 284.939 198.765 285.346 198.524C286.367 197.783 286.807 197.105 287.318 195.962C287.767 195.127 288.393 194.531 289.199 194.043C289.904 193.954 289.904 193.954 290.408 194.043C290.433 195.2 290.077 195.67 289.287 196.51C289.038 196.758 289.038 196.758 288.783 197.012C288.308 197.486 288.308 197.486 288.394 198.294C288.725 198.475 288.725 198.475 289.199 198.496C290.293 197.996 290.9 197.431 291.616 196.472C291.483 196.472 291.35 196.472 291.213 196.472C291.08 195.582 291.254 195.099 291.755 194.384C292.178 193.854 292.35 193.663 293.001 193.436C293.142 193.436 293.283 193.436 293.429 193.436C293.429 193.636 293.429 193.836 293.429 194.043C293.601 194.04 293.773 194.038 293.95 194.036C294.284 194.033 294.284 194.033 294.625 194.03C294.847 194.028 295.069 194.025 295.297 194.023C295.846 194.043 295.846 194.043 296.047 194.245C296.148 194.751 296.148 194.751 296.047 195.46C295.711 195.943 295.342 196.386 294.965 196.838C294.565 197.379 294.453 197.825 294.436 198.496C295.214 198.27 295.704 198.086 296.249 197.484C296.382 197.484 296.514 197.484 296.651 197.484C296.621 198.489 296.081 198.942 295.4 199.599C294.862 200.068 294.541 200.309 293.819 200.368C293.227 200.318 293.227 200.318 292.825 199.913C292.538 198.477 293.057 197.445 293.832 196.269C293.765 196.203 293.699 196.136 293.63 196.067C293.127 196.126 292.887 196.202 292.538 196.579C292.45 196.711 292.362 196.842 292.271 196.978C291.806 197.634 291.323 198.255 290.798 198.863C290.671 199.01 290.544 199.158 290.413 199.31C289.739 199.972 289.207 200.292 288.268 200.406C287.588 200.318 287.588 200.318 287.223 199.963C287.003 199.544 286.791 199.122 286.581 198.698C286.503 198.796 286.425 198.894 286.345 198.994C286.24 199.122 286.135 199.25 286.027 199.381C285.924 199.508 285.821 199.635 285.715 199.766C285.166 200.325 284.724 200.504 283.95 200.583C283.358 200.52 283.358 200.52 283.006 200.28C282.705 199.842 282.526 199.402 282.351 198.901C282.254 198.986 282.157 199.071 282.057 199.159C281.93 199.27 281.802 199.381 281.671 199.495C281.545 199.606 281.419 199.716 281.289 199.83C280.586 200.407 280.024 200.397 279.129 200.318C278.581 199.805 278.391 199.186 278.122 198.496C277.995 198.61 277.869 198.725 277.739 198.843C277.492 199.066 277.492 199.066 277.24 199.293C276.995 199.515 276.995 199.515 276.745 199.741C276.038 200.348 275.614 200.338 274.698 200.318C274.345 199.063 274.663 198.396 275.276 197.27C275.351 197.14 275.426 197.01 275.503 196.877C274.252 198.092 274.252 198.092 273.124 199.419C272.979 199.582 272.833 199.745 272.683 199.913C272.418 199.913 272.152 199.913 271.878 199.913C271.525 199.407 271.525 199.407 271.274 198.901C271.147 199.001 271.021 199.101 270.891 199.204C270.644 199.398 270.644 199.398 270.392 199.597C270.147 199.79 270.147 199.79 269.897 199.988C269.047 200.631 268.284 200.65 267.245 200.52C266.742 200.204 266.742 200.204 266.44 199.71C266.289 198.951 266.289 198.951 266.238 198.294C266.039 198.427 265.839 198.561 265.634 198.698C265.385 198.677 265.136 198.657 264.879 198.635C264.302 198.614 264.085 198.651 263.618 199.005C263.373 199.259 263.135 199.519 262.904 199.786C262.502 200.241 262.241 200.311 261.644 200.431C261.002 200.318 261.002 200.318 260.699 199.956C260.445 199.544 260.212 199.131 259.995 198.698C259.878 198.798 259.761 198.898 259.64 199.001C258.043 200.318 258.043 200.318 256.973 200.318C256.84 200.251 256.707 200.184 256.571 200.115C256.571 199.514 256.571 198.913 256.571 198.294C256.417 198.486 256.263 198.678 256.105 198.875C255.734 199.339 255.469 199.571 254.959 199.913C254.254 199.913 254.254 199.913 253.549 199.71C253.203 199.091 253.203 199.091 252.945 198.496C252.394 198.912 251.845 199.33 251.296 199.748C251.141 199.865 250.986 199.982 250.827 200.103C249.496 201.119 248.381 202.271 247.255 203.506C246.112 204.756 246.112 204.756 245.896 204.973C245.493 204.981 245.09 204.982 244.687 204.973C244.511 204.467 244.511 204.467 244.486 203.759C244.958 202.779 245.638 202.14 246.565 201.603C247.626 200.911 248.175 200.061 248.804 198.977C248.959 198.72 248.959 198.72 249.118 198.458C249.55 197.741 249.961 197.023 250.327 196.269C250.235 196.339 250.144 196.408 250.05 196.48C249.631 196.798 249.211 197.116 248.791 197.433C248.647 197.542 248.504 197.651 248.356 197.764C246.09 199.477 246.09 199.477 245.178 199.622C244.303 199.478 244.022 199.186 243.479 198.496C243.023 197.122 243.226 195.875 243.806 194.57C245.523 191.301 248.637 189.257 252.081 188.131C252.897 187.933 253.519 187.914 254.355 187.97ZM286.379 191.411C285.529 192.527 284.842 193.672 284.567 195.055C285.629 194.079 286.643 192.907 286.782 191.411C286.649 191.411 286.516 191.411 286.379 191.411ZM270.065 194.65C269.109 195.218 268.616 195.713 268.051 196.674C268.117 196.808 268.184 196.941 268.252 197.079C268.513 196.891 268.773 196.7 269.033 196.51C269.25 196.351 269.25 196.351 269.472 196.19C269.91 195.858 269.91 195.858 270.266 195.257C270.2 195.057 270.134 194.857 270.065 194.65Z" fill="white"/>
<path d="M333.308 188.78C333.206 189.729 332.776 190.36 332.226 191.108C332.137 191.231 332.047 191.354 331.956 191.481C331.154 192.574 330.29 193.609 329.407 194.637C328.667 195.497 327.966 196.388 327.266 197.281C328.206 196.544 329.07 195.739 329.941 194.921C330.874 194.114 331.457 193.753 332.704 193.84C333.001 194.437 332.95 194.916 332.872 195.57C332.544 196.541 331.716 197.129 330.891 197.686C330.56 197.832 330.225 197.97 329.884 198.091C330.212 198.737 330.212 198.737 330.74 198.8C331.506 198.66 332.008 198.27 332.503 197.686C332.596 197.493 332.689 197.299 332.785 197.1C333.713 195.29 335.689 194.123 337.538 193.436C338.083 193.33 338.393 193.339 338.948 193.436C339.147 193.636 339.147 193.636 339.351 193.84C339.288 194.511 339.288 194.511 339.149 195.257C339.118 195.514 339.118 195.514 339.086 195.776C338.901 196.438 338.52 196.914 338.142 197.484C337.985 198.036 337.985 198.036 337.941 198.496C338.789 198.399 339.353 198.312 339.955 197.686C340.082 197.436 340.203 197.183 340.32 196.927C341.012 195.451 342.307 194.311 343.782 193.638C344.461 193.549 344.461 193.549 344.99 193.638C345.19 193.838 345.19 193.838 345.393 194.043C345.37 195.014 345.006 195.631 344.476 196.407C344.184 196.674 344.184 196.674 343.379 196.674C343.312 196.541 343.246 196.407 343.177 196.269C342.906 196.481 342.638 196.697 342.372 196.915C342.222 197.034 342.073 197.154 341.919 197.277C341.523 197.665 341.523 197.665 341.478 198.215C341.522 198.454 341.522 198.454 341.566 198.698C342.121 199.151 342.121 199.151 342.686 199.103C343.739 198.796 345.043 198.322 345.6 197.31C345.681 197.043 345.757 196.775 345.828 196.505C346.194 195.556 347.1 194.501 348.011 194.043C348.414 194.035 348.817 194.034 349.22 194.043C349.245 195.2 348.889 195.67 348.099 196.51C347.85 196.758 347.85 196.758 347.595 197.012C347.12 197.486 347.12 197.486 347.206 198.294C347.537 198.475 347.537 198.475 348.011 198.496C348.616 198.261 348.958 198.114 349.421 197.686C349.706 196.992 349.706 196.992 349.839 196.463C350.5 194.341 351.55 192.244 353.047 190.602C353.153 190.475 353.258 190.348 353.368 190.217C353.676 189.868 353.676 189.868 354.255 189.387C354.834 189.413 354.834 189.413 355.262 189.59C355.249 192.466 353.608 194.517 351.786 196.582C351.354 197.083 351.354 197.083 351.486 197.851C351.56 198.17 351.56 198.17 351.637 198.496C352.21 198.765 352.21 198.765 352.617 198.524C353.638 197.783 354.078 197.105 354.589 195.962C355.038 195.127 355.664 194.531 356.471 194.043C357.176 193.954 357.176 193.954 357.679 194.043C357.704 195.2 357.349 195.67 356.559 196.51C356.309 196.758 356.309 196.758 356.054 197.012C355.579 197.486 355.579 197.486 355.665 198.294C355.996 198.475 355.996 198.475 356.471 198.496C357.207 198.205 357.699 198.001 358.101 197.304C358.228 196.997 358.351 196.688 358.471 196.378C359.54 193.821 361.915 190.665 364.124 188.983C364.644 188.793 364.974 188.768 365.534 188.78C365.432 189.729 365.002 190.36 364.452 191.108C364.318 191.293 364.318 191.293 364.181 191.481C363.379 192.574 362.516 193.609 361.633 194.637C360.893 195.497 360.192 196.388 359.492 197.281C360.432 196.544 361.296 195.739 362.167 194.921C363.1 194.114 363.683 193.753 364.93 193.84C365.227 194.437 365.176 194.916 365.098 195.57C364.77 196.541 363.942 197.129 363.117 197.686C362.786 197.832 362.451 197.97 362.11 198.091C362.243 198.291 362.376 198.492 362.513 198.698C363.155 198.81 363.43 198.76 363.971 198.388C364.109 198.257 364.247 198.125 364.389 197.99C364.529 197.858 364.669 197.727 364.814 197.591C364.919 197.489 365.023 197.387 365.131 197.281C365.271 197.636 365.271 197.636 365.333 198.091C364.66 199.166 363.571 200.366 362.324 200.659C361.398 200.45 361.05 199.84 360.499 199.103C360.366 198.97 360.233 198.836 360.096 198.698C360.033 198.801 359.969 198.903 359.904 199.008C359.818 199.14 359.732 199.271 359.643 199.407C359.559 199.538 359.475 199.67 359.388 199.805C359.24 199.959 359.24 199.959 359.089 200.115C358.823 200.115 358.557 200.115 358.283 200.115C358.084 199.614 358.084 199.614 357.88 199.103C357.78 199.191 357.681 199.279 357.578 199.369C356.87 199.952 356.421 200.293 355.501 200.444C354.859 200.318 354.859 200.318 354.494 199.963C354.274 199.544 354.062 199.122 353.852 198.698C353.774 198.796 353.696 198.894 353.616 198.994C353.511 199.122 353.406 199.25 353.298 199.381C353.196 199.508 353.093 199.635 352.987 199.766C352.438 200.325 351.996 200.504 351.221 200.583C350.63 200.52 350.63 200.52 350.277 200.28C349.977 199.842 349.798 199.402 349.623 198.901C349.525 198.986 349.428 199.071 349.328 199.159C349.201 199.27 349.074 199.381 348.943 199.495C348.817 199.606 348.69 199.716 348.56 199.83C347.857 200.407 347.296 200.397 346.4 200.318C345.918 199.85 345.689 199.296 345.393 198.698C345.271 198.811 345.15 198.923 345.025 199.038C344.783 199.258 344.783 199.258 344.537 199.483C344.299 199.701 344.299 199.701 344.055 199.924C343.384 200.48 342.948 200.7 342.082 200.811C341.171 200.699 340.921 200.422 340.358 199.71C340.218 199.443 340.083 199.174 339.955 198.901C339.848 198.998 339.741 199.096 339.631 199.196C339.488 199.324 339.346 199.452 339.2 199.584C339.059 199.711 338.919 199.838 338.775 199.968C338.369 200.297 338.022 200.531 337.538 200.722C336.984 200.647 336.984 200.647 336.531 200.52C336.431 199.618 336.431 199.618 336.329 198.698C336.242 198.798 336.154 198.898 336.064 199.001C335.072 200.074 335.072 200.074 334.227 200.305C334.057 200.309 333.887 200.313 333.711 200.318C333.586 200.159 333.462 200 333.333 199.837C332.926 199.312 332.926 199.312 332.503 198.901C332.406 199.001 332.308 199.101 332.208 199.204C332.018 199.398 332.018 199.398 331.823 199.597C331.697 199.726 331.57 199.855 331.44 199.988C330.996 200.41 330.742 200.511 330.136 200.621C329.161 200.471 328.841 199.863 328.273 199.103C328.14 198.97 328.007 198.836 327.87 198.698C327.775 198.852 327.775 198.852 327.678 199.008C327.592 199.14 327.506 199.271 327.417 199.407C327.333 199.538 327.249 199.67 327.162 199.805C327.063 199.908 326.965 200.01 326.863 200.115C326.597 200.115 326.331 200.115 326.057 200.115C325.925 199.648 325.792 199.18 325.655 198.698C325.543 198.798 325.431 198.898 325.316 199.001C325.17 199.131 325.024 199.261 324.874 199.394C324.729 199.523 324.584 199.652 324.435 199.786C323.755 200.358 323.306 200.337 322.432 200.318C322.079 199.063 322.397 198.396 323.01 197.27C323.085 197.14 323.16 197.01 323.238 196.877C321.986 198.092 321.986 198.092 320.859 199.419C320.713 199.582 320.568 199.745 320.418 199.913C320.152 199.913 319.886 199.913 319.612 199.913C319.26 199.407 319.26 199.407 319.008 198.901C318.901 198.998 318.794 199.096 318.684 199.196C318.542 199.324 318.399 199.452 318.253 199.584C318.113 199.711 317.972 199.838 317.828 199.968C317.422 200.297 317.075 200.531 316.591 200.722C316.037 200.647 316.037 200.647 315.584 200.52C315.518 199.919 315.451 199.318 315.383 198.698C315.295 198.798 315.207 198.898 315.117 199.001C314.125 200.074 314.125 200.074 313.28 200.305C313.11 200.309 312.94 200.313 312.764 200.318C311.984 199.356 311.645 198.815 311.664 197.572C311.913 196.252 313.154 195.436 314.174 194.688C315.428 193.853 316.442 193.282 318.001 193.436C318.134 193.569 318.267 193.703 318.404 193.84C318.341 194.511 318.341 194.511 318.202 195.257C318.182 195.428 318.161 195.6 318.139 195.776C317.954 196.438 317.573 196.914 317.195 197.484C317.038 198.036 317.038 198.036 316.994 198.496C317.842 198.399 318.406 198.312 319.008 197.686C319.14 197.437 319.266 197.183 319.386 196.927C319.798 196.057 320.251 195.246 321.022 194.65C321.803 194.562 321.803 194.562 322.432 194.65C322.327 195.487 322.098 195.9 321.526 196.51C321.01 197.054 321.01 197.054 320.619 197.686C320.763 197.541 320.906 197.395 321.054 197.245C321.601 196.695 322.164 196.163 322.734 195.637C323.011 195.379 323.011 195.379 323.294 195.117C323.797 194.688 324.261 194.341 324.849 194.043C325.415 194.106 325.415 194.106 325.856 194.245C326.001 195.082 325.991 195.464 325.504 196.178C325.215 196.529 324.919 196.874 324.617 197.214C324.26 197.667 324.124 197.933 324.043 198.496C325.253 198.009 325.253 198.009 326.092 197.058C326.208 196.72 326.322 196.381 326.433 196.041C327.367 193.671 330.604 188.709 333.308 188.78ZM353.651 191.411C352.8 192.527 352.113 193.672 351.838 195.055C352.9 194.079 353.914 192.907 354.054 191.411C353.921 191.411 353.788 191.411 353.651 191.411ZM316.39 195.257C315.06 195.875 313.721 196.595 312.966 197.889C312.974 198.456 312.974 198.456 313.167 198.901C314.824 198.211 315.816 196.917 316.793 195.46C316.66 195.393 316.527 195.326 316.39 195.257ZM337.336 195.257C336.007 195.875 334.668 196.595 333.912 197.889C333.921 198.456 333.921 198.456 334.114 198.901C335.77 198.211 336.762 196.917 337.739 195.46C337.606 195.393 337.473 195.326 337.336 195.257ZM330.086 196.067C329.658 196.52 329.263 196.994 328.877 197.484C329.235 197.654 329.235 197.654 329.683 197.686C330.129 197.384 330.129 197.384 330.526 196.94C330.666 196.797 330.806 196.654 330.95 196.507C331.29 196.072 331.414 195.798 331.496 195.257C330.988 195.257 330.472 195.757 330.086 196.067ZM362.312 196.067C361.884 196.52 361.489 196.994 361.103 197.484C361.461 197.654 361.461 197.654 361.909 197.686C362.355 197.384 362.355 197.384 362.752 196.94C362.892 196.797 363.032 196.654 363.176 196.507C363.516 196.072 363.64 195.798 363.721 195.257C363.213 195.257 362.698 195.757 362.312 196.067Z" fill="white"/>
<path d="M281.747 157.609C282.903 158.654 283.756 159.886 283.845 161.482C283.849 161.796 283.848 162.111 283.843 162.425C283.842 162.599 283.84 162.772 283.839 162.951C283.786 165.324 283.408 167.663 283.056 170.006C282.988 170.475 282.92 170.945 282.852 171.414C282.688 172.548 282.521 173.681 282.351 174.814C281.221 174.814 280.091 174.814 278.927 174.814C279.124 172.953 279.331 171.099 279.597 169.247C279.619 169.089 279.642 168.931 279.665 168.768C279.757 168.123 279.849 167.478 279.944 166.833C280.462 163.848 280.462 163.848 279.808 160.961C279.055 160.144 278.319 159.879 277.228 159.759C275.912 159.898 274.696 160.377 273.691 161.252C272.796 162.647 272.475 164.042 272.268 165.667C272.221 166.002 272.221 166.002 272.173 166.344C272.071 167.075 271.974 167.807 271.878 168.539C271.786 169.22 271.693 169.9 271.6 170.581C271.51 171.238 271.422 171.895 271.335 172.553C271.304 172.79 271.272 173.026 271.24 173.27C271.212 173.481 271.185 173.691 271.156 173.908C271.072 174.409 271.072 174.409 270.871 174.814C269.807 174.814 268.744 174.814 267.648 174.814C267.747 173.298 267.921 171.81 268.141 170.308C268.168 170.121 268.195 169.934 268.223 169.742C268.336 168.962 268.451 168.183 268.568 167.404C268.654 166.828 268.738 166.253 268.82 165.677C268.847 165.504 268.874 165.331 268.902 165.152C269.089 163.831 269.154 162.531 268.605 161.29C268.016 160.55 267.401 159.949 266.44 159.835C265.195 159.712 264.263 159.984 263.217 160.645C261.482 162.166 261.126 164.025 260.843 166.227C260.813 166.447 260.783 166.668 260.752 166.895C260.657 167.594 260.565 168.294 260.473 168.994C260.379 169.697 260.284 170.4 260.19 171.102C260.131 171.538 260.073 171.975 260.015 172.411C259.976 172.707 259.976 172.707 259.936 173.009C259.913 173.182 259.89 173.355 259.867 173.533C259.799 173.965 259.697 174.39 259.592 174.814C258.528 174.814 257.465 174.814 256.369 174.814C256.369 173.695 256.409 172.685 256.569 171.593C256.591 171.442 256.612 171.291 256.634 171.135C256.704 170.642 256.775 170.149 256.847 169.655C256.896 169.31 256.945 168.965 256.994 168.62C257.097 167.899 257.201 167.178 257.305 166.458C257.438 165.534 257.57 164.611 257.702 163.688C257.803 162.976 257.905 162.264 258.007 161.553C258.056 161.212 258.104 160.872 258.153 160.531C258.221 160.056 258.29 159.581 258.358 159.106C258.378 158.965 258.398 158.825 258.419 158.68C258.512 158.039 258.629 157.429 258.786 156.799C259.85 156.799 260.913 156.799 262.009 156.799C262.009 157.266 262.009 157.734 262.009 158.216C262.187 158.091 262.187 158.091 262.37 157.964C262.529 157.855 262.688 157.746 262.852 157.634C263.087 157.472 263.087 157.472 263.326 157.307C264.988 156.282 267.168 156.309 269.045 156.729C270.143 157.174 270.9 157.945 271.676 158.823C271.876 159.023 271.876 159.023 272.079 159.228C272.212 159.048 272.345 158.869 272.482 158.684C273.544 157.405 274.946 156.809 276.535 156.457C278.453 156.302 280.141 156.478 281.747 157.609Z" fill="white"/>
<path d="M198.363 187.97C198.765 188.375 198.765 188.375 198.854 189.046C198.765 189.792 198.765 189.792 198.375 190.324C197.62 190.912 196.839 191.463 195.946 191.816C195.746 191.75 195.547 191.683 195.341 191.614C195.618 191.31 195.618 191.31 195.946 191.007C196.079 191.007 196.211 191.007 196.348 191.007C196.249 190.806 196.249 190.806 196.147 190.602C193.168 191.982 190.368 193.728 188.996 196.868C188.88 197.348 188.941 197.629 189.098 198.091C191.632 197.343 194.09 194.973 195.887 193.056C196.039 192.914 196.191 192.772 196.348 192.626C197.016 192.664 197.016 192.664 197.557 192.828C197.471 194.105 197.022 194.984 196.386 196.08C196.298 196.237 196.209 196.394 196.118 196.556C195.623 197.429 195.102 198.274 194.536 199.103C195.984 198.321 196.901 197.633 197.681 196.171C198.127 195.356 198.628 194.61 199.37 194.043C199.968 193.91 200.362 193.956 200.981 194.043C201.081 194.243 201.081 194.243 201.182 194.448C200.09 196.016 200.09 196.016 199.307 196.611C198.726 197.03 198.726 197.03 198.589 197.648C198.581 197.794 198.573 197.941 198.564 198.091C200.226 196.918 201.59 195.556 202.846 193.955C203.283 193.559 203.628 193.506 204.203 193.436C204.395 193.941 204.469 194.295 204.255 194.803C204.023 195.204 203.778 195.592 203.524 195.978C203.353 196.244 203.184 196.51 203.015 196.776C202.939 196.893 202.863 197.009 202.785 197.129C202.576 197.513 202.479 197.867 202.391 198.294C203.279 198.086 203.279 198.086 203.901 197.459C204.001 197.267 204.101 197.074 204.203 196.877C205.127 195.448 206.257 194.327 207.829 193.638C208.458 193.587 208.458 193.587 209.037 193.638C209.237 193.838 209.237 193.838 209.44 194.043C209.39 194.951 208.998 195.575 208.433 196.269C207.879 196.446 207.879 196.446 207.426 196.472C207.426 196.338 207.426 196.205 207.426 196.067C207.121 196.278 206.82 196.494 206.52 196.712C206.351 196.832 206.183 196.952 206.01 197.075C205.568 197.454 205.568 197.454 205.519 198.013C205.55 198.172 205.581 198.332 205.613 198.496C206.168 198.949 206.168 198.949 206.734 198.901C207.775 198.596 208.64 198.236 209.44 197.484C209.721 196.86 209.875 196.254 210.037 195.589C210.679 193.323 212.014 191.432 213.67 189.792C213.803 189.659 213.936 189.525 214.073 189.387C214.601 189.463 214.601 189.463 215.08 189.59C215.067 192.466 213.425 194.517 211.604 196.582C211.172 197.083 211.172 197.083 211.303 197.851C211.378 198.17 211.378 198.17 211.454 198.496C212.031 198.768 212.031 198.768 212.442 198.509C213.331 197.849 213.809 197.314 214.252 196.303C214.703 195.418 215.312 194.66 216.087 194.043C216.699 193.891 217.063 193.94 217.698 194.043C217.765 194.176 217.831 194.31 217.899 194.448C216.807 196.016 216.807 196.016 216.024 196.611C215.443 197.03 215.443 197.03 215.306 197.648C215.298 197.794 215.29 197.941 215.281 198.091C216.944 196.918 218.307 195.556 219.563 193.955C220.001 193.559 220.345 193.506 220.921 193.436C221.113 193.941 221.187 194.295 220.972 194.803C220.74 195.204 220.495 195.592 220.241 195.978C220.071 196.244 219.901 196.51 219.733 196.776C219.618 196.951 219.618 196.951 219.502 197.129C219.294 197.513 219.196 197.867 219.108 198.294C219.924 198.045 220.607 197.747 221.323 197.281C221.23 198.198 220.946 198.553 220.253 199.141C220.018 199.346 220.018 199.346 219.777 199.555C219.079 200.089 218.737 200.345 217.849 200.242C217.666 200.2 217.484 200.158 217.295 200.115C217.295 199.514 217.295 198.913 217.295 198.294C217.142 198.486 216.988 198.678 216.829 198.875C216.458 199.339 216.194 199.571 215.684 199.913C214.979 199.9 214.979 199.9 214.274 199.71C213.884 199.192 213.884 199.192 213.67 198.698C213.592 198.796 213.514 198.894 213.434 198.994C213.329 199.122 213.224 199.25 213.116 199.381C213.013 199.508 212.91 199.635 212.804 199.766C212.255 200.325 211.813 200.504 211.039 200.583C210.447 200.52 210.447 200.52 210.095 200.305C209.731 199.739 209.599 199.146 209.44 198.496C209.229 198.69 209.229 198.69 209.014 198.887C208.83 199.055 208.647 199.222 208.458 199.394C208.276 199.561 208.094 199.728 207.906 199.899C207.202 200.513 206.748 200.591 205.808 200.577C205.412 200.52 205.412 200.52 204.934 200.178C204.598 199.698 204.388 199.254 204.203 198.698C204.097 198.781 203.99 198.864 203.879 198.95C203.737 199.059 203.595 199.168 203.448 199.28C203.308 199.388 203.168 199.496 203.023 199.608C201.987 200.341 201.987 200.341 201.132 200.242C200.949 200.2 200.766 200.158 200.578 200.115C200.578 199.514 200.578 198.913 200.578 198.294C200.424 198.486 200.271 198.678 200.112 198.875C199.741 199.339 199.477 199.571 198.967 199.913C198.262 199.913 198.262 199.913 197.557 199.71C197.211 199.091 197.211 199.091 196.953 198.496C196.402 198.912 195.853 199.33 195.304 199.748C195.149 199.865 194.994 199.982 194.834 200.103C193.504 201.119 192.389 202.271 191.263 203.506C190.12 204.756 190.12 204.756 189.903 204.973C189.501 204.981 189.098 204.982 188.695 204.973C188.519 204.467 188.519 204.467 188.493 203.759C188.965 202.779 189.646 202.14 190.573 201.603C191.634 200.911 192.183 200.061 192.811 198.977C192.967 198.72 192.967 198.72 193.125 198.458C193.557 197.741 193.968 197.023 194.334 196.269C194.243 196.339 194.152 196.408 194.058 196.48C193.638 196.798 193.218 197.116 192.799 197.433C192.655 197.542 192.511 197.651 192.363 197.764C190.097 199.477 190.097 199.477 189.186 199.622C188.31 199.478 188.029 199.186 187.486 198.496C187.031 197.122 187.234 195.875 187.814 194.57C189.531 191.301 192.645 189.257 196.089 188.131C196.905 187.933 197.527 187.914 198.363 187.97ZM213.468 191.411C212.618 192.527 211.931 193.672 211.656 195.055C212.718 194.079 213.732 192.907 213.871 191.411C213.738 191.411 213.605 191.411 213.468 191.411Z" fill="white"/>
<path d="M217.092 157.866C218.31 158.919 218.971 160.044 219.108 161.657C219.042 163.285 218.813 164.904 218.586 166.516C218.555 166.735 218.524 166.955 218.493 167.181C218.429 167.641 218.365 168.1 218.3 168.56C218.201 169.264 218.103 169.969 218.006 170.674C217.943 171.122 217.88 171.57 217.818 172.019C217.788 172.229 217.759 172.44 217.729 172.657C217.688 172.949 217.688 172.949 217.646 173.247C217.622 173.418 217.598 173.589 217.573 173.766C217.497 174.206 217.497 174.206 217.295 174.814C216.232 174.814 215.168 174.814 214.073 174.814C214.073 174.346 214.073 173.879 214.073 173.397C213.965 173.477 213.858 173.558 213.747 173.641C211.628 175.156 209.574 175.444 207.023 175.218C205.507 174.909 204.291 174.289 203.398 172.992C202.749 171.714 202.561 170.322 202.895 168.924C203.459 167.244 204.324 166.269 205.837 165.373C207.795 164.448 209.854 164.183 211.97 163.845C212.311 163.79 212.653 163.734 212.994 163.678C213.823 163.543 214.653 163.409 215.483 163.276C215.489 163.023 215.496 162.769 215.503 162.508C215.507 162.366 215.511 162.223 215.514 162.077C215.46 161.361 215.14 160.969 214.677 160.442C213.598 159.711 212.423 159.52 211.148 159.707C209.82 160.039 208.979 160.689 208.03 161.657C207.764 161.924 207.499 162.191 207.225 162.466C205.929 161.665 205.929 161.665 204.606 160.847C205.605 158.753 207.299 157.572 209.44 156.799C212.039 155.956 214.862 156.235 217.092 157.866ZM211.391 166.755C211.15 166.795 210.909 166.835 210.66 166.876C209.05 167.165 207.82 167.562 206.633 168.716C206.321 169.344 206.242 169.863 206.218 170.563C206.584 171.495 207.134 171.965 208.03 172.385C209.787 172.639 211.204 172.395 212.663 171.373C213.905 170.383 214.583 169.226 215.08 167.729C215.088 167.257 215.089 166.785 215.08 166.312C213.824 166.278 212.623 166.534 211.391 166.755Z" fill="white"/>
<path d="M378.827 157.811C379.895 158.763 380.614 159.82 380.841 161.252C380.894 162.787 380.713 164.25 380.496 165.768C380.461 166.021 380.425 166.274 380.389 166.535C380.315 167.067 380.24 167.598 380.164 168.129C380.067 168.811 379.972 169.494 379.877 170.176C379.786 170.828 379.694 171.48 379.602 172.132C379.551 172.5 379.551 172.5 379.499 172.876C379.466 173.101 379.434 173.326 379.401 173.558C379.373 173.757 379.345 173.956 379.316 174.161C379.23 174.611 379.23 174.611 379.029 174.814C378.486 174.828 377.948 174.832 377.405 174.826C377.252 174.825 377.099 174.824 376.942 174.824C376.563 174.821 376.185 174.818 375.806 174.814C375.806 174.346 375.806 173.879 375.806 173.397C375.696 173.477 375.587 173.558 375.473 173.641C373.182 175.259 370.938 175.556 368.189 175.131C366.799 174.74 365.751 173.804 364.943 172.625C364.441 171.112 364.399 169.645 364.93 168.134C365.833 166.389 367.358 165.346 369.16 164.693C369.855 164.513 370.553 164.39 371.262 164.276C371.452 164.243 371.643 164.21 371.839 164.176C372.423 164.076 373.007 163.98 373.591 163.883C373.955 163.822 374.32 163.76 374.685 163.698C375.528 163.554 376.372 163.414 377.216 163.276C377.227 162.987 377.234 162.697 377.24 162.408C377.247 162.166 377.247 162.166 377.254 161.92C377.204 161.311 376.972 160.92 376.546 160.487C375.453 159.684 374.217 159.501 372.897 159.694C371.287 160.136 370.206 161.051 369.361 162.466C368.36 162.109 367.461 161.577 366.541 161.05C366.708 159.853 367.287 159.222 368.153 158.418C371.272 156.149 375.559 155.449 378.827 157.811ZM373.528 166.667C373.327 166.698 373.127 166.73 372.921 166.763C371.128 167.071 369.562 167.502 368.354 168.944C368.031 169.593 368.054 170.264 368.153 170.968C368.59 171.69 368.989 172.074 369.764 172.385C371.522 172.612 372.939 172.401 374.396 171.373C375.902 170.19 376.678 168.79 376.964 166.894C376.981 166.702 376.998 166.51 377.015 166.312C375.826 166.255 374.694 166.465 373.528 166.667Z" fill="white"/>
<path d="M326.056 157.853C327.28 158.952 327.883 160.236 328.072 161.859C328.058 162.598 327.962 163.317 327.858 164.048C327.83 164.259 327.802 164.47 327.774 164.688C327.693 165.293 327.61 165.897 327.525 166.502C327.44 167.118 327.358 167.733 327.276 168.349C327.164 169.18 327.052 170.011 326.939 170.841C326.917 171.004 326.894 171.167 326.872 171.335C326.808 171.8 326.744 172.266 326.679 172.731C326.66 172.871 326.641 173.011 326.621 173.156C326.54 173.734 326.443 174.258 326.259 174.814C325.195 174.814 324.132 174.814 323.036 174.814C323.036 174.346 323.036 173.879 323.036 173.397C322.929 173.477 322.821 173.558 322.711 173.641C320.591 175.156 318.538 175.444 315.987 175.219C314.458 174.906 313.281 174.279 312.362 172.992C311.62 171.708 311.563 170.291 311.859 168.858C312.366 167.123 313.299 166.287 314.8 165.38C316.415 164.597 318.085 164.297 319.847 164.012C320.256 163.946 320.664 163.878 321.072 163.809C322.21 163.621 323.29 163.451 324.446 163.479C324.522 162.532 324.536 161.844 324.119 160.974C323.27 160.031 322.342 159.718 321.108 159.622C319.348 159.662 318.195 160.431 316.994 161.657C316.728 161.924 316.462 162.191 316.188 162.467C314.892 161.665 314.892 161.665 313.57 160.847C314.569 158.753 316.262 157.572 318.404 156.799C320.99 155.96 323.831 156.23 326.056 157.853ZM320.355 166.755C320.114 166.795 319.872 166.835 319.624 166.876C318.014 167.165 316.784 167.562 315.597 168.716C315.284 169.344 315.206 169.863 315.181 170.563C315.476 171.214 315.842 171.724 316.39 172.182C317.783 172.649 319.364 172.594 320.695 171.967C322.152 171.121 323.316 169.972 323.842 168.336C323.955 167.662 324.016 166.995 324.043 166.312C322.788 166.278 321.587 166.534 320.355 166.755Z" fill="white"/>
<path d="M350.831 149.714C351.895 149.714 352.958 149.714 354.054 149.714C353.931 151.526 353.74 153.309 353.48 155.105C353.445 155.356 353.409 155.607 353.373 155.866C353.261 156.658 353.147 157.449 353.034 158.241C352.92 159.04 352.807 159.839 352.693 160.638C352.623 161.133 352.553 161.628 352.482 162.123C352.45 162.345 352.418 162.568 352.386 162.797C352.344 163.091 352.344 163.091 352.301 163.39C352.229 163.901 352.229 163.901 352.241 164.491C352.375 164.364 352.375 164.364 352.511 164.234C352.925 163.843 353.338 163.452 353.752 163.061C353.892 162.928 354.032 162.795 354.177 162.658C355.008 161.873 355.852 161.105 356.713 160.353C357.175 159.95 357.629 159.539 358.082 159.127C358.417 158.822 358.753 158.519 359.089 158.216C359.258 158.033 359.258 158.033 359.429 157.847C360.195 157.067 360.721 156.708 361.827 156.661C362.224 156.67 362.62 156.687 363.017 156.71C363.221 156.717 363.425 156.723 363.635 156.73C364.134 156.746 364.633 156.77 365.131 156.799C364.769 157.592 364.264 158.088 363.621 158.659C363.458 158.805 363.458 158.805 363.293 158.955C362.967 159.25 362.639 159.542 362.312 159.835C361.976 160.139 361.64 160.442 361.305 160.746C360.377 161.586 360.377 161.586 359.979 161.942C359.643 162.242 359.31 162.544 358.976 162.846C358.817 162.987 358.817 162.987 358.655 163.131C358.16 163.582 357.894 163.842 357.679 164.491C357.896 165.036 357.896 165.036 358.235 165.633C358.36 165.864 358.485 166.096 358.613 166.334C358.751 166.584 358.889 166.834 359.026 167.084C359.164 167.339 359.302 167.593 359.44 167.848C359.79 168.495 360.143 169.14 360.496 169.785C360.925 170.568 361.351 171.353 361.778 172.138C361.988 172.525 362.199 172.911 362.411 173.297C362.505 173.469 362.598 173.64 362.695 173.817C362.777 173.966 362.859 174.115 362.943 174.269C363.117 174.611 363.117 174.611 363.117 174.814C361.854 174.814 360.592 174.814 359.29 174.814C359.108 174.469 358.925 174.124 358.737 173.769C357.434 171.316 356.123 168.876 354.658 166.515C354.512 166.665 354.512 166.665 354.362 166.819C354.16 167.025 354.16 167.025 353.953 167.236C353.822 167.37 353.691 167.504 353.557 167.641C353.047 168.134 353.047 168.134 352.648 168.411C351.69 169.115 351.325 169.657 351.102 170.841C351.038 171.316 350.982 171.793 350.932 172.271C350.901 172.515 350.87 172.76 350.838 173.012C350.762 173.612 350.695 174.213 350.63 174.814C349.5 174.814 348.37 174.814 347.206 174.814C347.503 172.64 347.801 170.466 348.099 168.293C348.237 167.282 348.376 166.272 348.514 165.262C348.882 162.576 349.251 159.89 349.623 157.204C349.648 157.023 349.673 156.842 349.699 156.655C349.841 155.629 349.983 154.603 350.127 153.577C350.171 153.268 350.214 152.958 350.257 152.648C350.316 152.226 350.375 151.805 350.435 151.383C350.468 151.148 350.501 150.912 350.535 150.669C350.63 150.119 350.63 150.119 350.831 149.714Z" fill="white"/>
<path d="M343.379 157.406C344.73 158.468 345.505 159.762 345.796 161.454C345.89 163.017 345.72 164.533 345.494 166.077C345.448 166.405 345.448 166.405 345.401 166.741C345.303 167.433 345.203 168.125 345.103 168.817C345.037 169.286 344.971 169.755 344.905 170.224C344.783 171.08 344.662 171.937 344.538 172.793C344.514 172.964 344.489 173.135 344.464 173.311C344.384 173.814 344.284 174.314 344.184 174.814C343.055 174.814 341.925 174.814 340.76 174.814C340.803 174.514 340.846 174.214 340.89 173.905C341.049 172.782 341.206 171.659 341.363 170.537C341.431 170.052 341.499 169.568 341.568 169.084C341.668 168.385 341.765 167.686 341.862 166.986C341.893 166.773 341.924 166.559 341.955 166.34C342.38 163.751 342.38 163.751 341.868 161.252C341.043 160.257 340.243 159.899 338.973 159.734C337.549 159.824 336.31 160.354 335.335 161.404C334.171 162.772 333.975 164.508 333.754 166.227C333.724 166.447 333.694 166.668 333.663 166.895C333.568 167.595 333.476 168.294 333.384 168.994C333.29 169.697 333.195 170.4 333.1 171.102C333.042 171.538 332.984 171.975 332.926 172.411C332.887 172.707 332.887 172.707 332.847 173.009C332.824 173.182 332.801 173.355 332.778 173.533C332.71 173.965 332.608 174.39 332.503 174.814C331.373 174.814 330.243 174.814 329.079 174.814C329.39 172.554 329.701 170.295 330.014 168.036C330.159 166.987 330.303 165.938 330.448 164.889C330.587 163.877 330.727 162.865 330.867 161.854C330.92 161.467 330.974 161.081 331.027 160.694C331.101 160.154 331.176 159.613 331.251 159.073C331.273 158.912 331.295 158.752 331.317 158.586C331.404 157.966 331.499 157.395 331.697 156.799C332.76 156.799 333.824 156.799 334.92 156.799C334.92 157.267 334.92 157.734 334.92 158.216C335.022 158.135 335.125 158.055 335.231 157.972C337.624 156.219 340.789 155.754 343.379 157.406Z" fill="white"/>
<path d="M187.083 150.119C188.346 150.119 189.609 150.119 190.91 150.119C191.571 151.437 192.231 152.756 192.89 154.075C193.114 154.524 193.339 154.973 193.564 155.422C193.886 156.065 194.208 156.71 194.529 157.354C194.631 157.556 194.732 157.757 194.836 157.965C194.929 158.151 195.022 158.338 195.118 158.53C195.2 158.694 195.282 158.859 195.367 159.028C195.543 159.43 195.543 159.43 195.543 159.835C196.275 159.125 196.923 158.381 197.544 157.571C197.684 157.39 197.684 157.39 197.827 157.205C198.031 156.941 198.235 156.678 198.438 156.414C198.784 155.966 199.132 155.519 199.48 155.072C199.6 154.917 199.721 154.761 199.845 154.601C200.09 154.287 200.337 153.974 200.585 153.662C201.104 153.003 201.596 152.372 201.974 151.619C202.338 150.938 202.556 150.555 203.196 150.119C204.589 149.859 206.024 149.983 207.426 150.119C207.1 150.797 206.721 151.365 206.268 151.966C206.19 152.07 206.112 152.174 206.031 152.281C204.955 153.704 203.858 155.112 202.763 156.522C202.152 157.31 201.541 158.098 200.931 158.886C200.814 159.037 200.698 159.187 200.578 159.342C199.686 160.494 198.801 161.65 197.918 162.809C197.557 163.276 197.557 163.276 197.355 163.479C197.289 163.831 197.235 164.187 197.185 164.542C197.152 164.769 197.12 164.996 197.087 165.23C197.053 165.477 197.019 165.724 196.983 165.978C196.948 166.229 196.912 166.481 196.876 166.739C196.782 167.409 196.688 168.078 196.595 168.747C196.499 169.43 196.403 170.112 196.307 170.794C196.119 172.134 195.931 173.474 195.744 174.814C194.548 174.814 193.351 174.814 192.119 174.814C192.202 174.088 192.286 173.363 192.371 172.638C192.397 172.414 192.423 172.19 192.45 171.96C192.6 170.701 192.764 169.445 192.95 168.191C192.987 167.937 193.025 167.682 193.063 167.42C193.138 166.924 193.213 166.429 193.29 165.934C193.324 165.707 193.358 165.48 193.393 165.247C193.424 165.047 193.455 164.847 193.487 164.641C193.56 163.669 193.295 162.934 192.861 162.075C192.764 161.881 192.668 161.688 192.568 161.489C192.462 161.281 192.357 161.074 192.249 160.861C192.086 160.536 192.086 160.536 191.919 160.205C191.572 159.512 191.222 158.819 190.873 158.127C188.108 152.649 188.108 152.649 187.083 150.119Z" fill="white"/>
<path d="M394.802 158.039C395.629 158.82 396.205 159.759 396.552 160.847C396.35 161.454 396.35 161.454 395.911 161.691C395.642 161.793 395.642 161.793 395.368 161.897C395.19 161.967 395.012 162.037 394.829 162.108C394.336 162.264 394.336 162.264 393.732 162.264C393.465 161.894 393.465 161.894 393.191 161.404C392.575 160.441 392.026 159.921 390.912 159.633C389.654 159.478 388.558 159.487 387.488 160.24C386.94 160.735 386.837 161.142 386.796 161.859C386.779 162.437 386.844 162.621 387.219 163.071C387.758 163.538 388.196 163.71 388.871 163.928C389.099 164.004 389.328 164.079 389.563 164.158C389.8 164.234 390.038 164.311 390.283 164.389C392.411 165.079 394.017 165.64 395.343 167.527C395.888 168.671 395.924 169.862 395.615 171.08C395.016 172.78 394.068 173.764 392.486 174.586C390.482 175.543 387.733 175.604 385.638 174.89C383.945 174.136 382.381 172.937 381.685 171.157C381.59 170.828 381.515 170.493 381.446 170.158C381.797 169.982 382.15 169.81 382.503 169.639C382.699 169.543 382.896 169.447 383.098 169.348C383.661 169.146 383.661 169.146 384.103 169.163C384.601 169.417 384.732 169.718 384.996 170.209C385.689 171.301 386.454 171.822 387.69 172.182C388.991 172.352 390.216 172.375 391.315 171.575C391.929 170.99 392.103 170.689 392.221 169.842C392.102 169.019 391.934 168.86 391.315 168.336C390.864 168.103 390.864 168.103 390.358 167.944C390.165 167.877 389.971 167.81 389.772 167.741C389.281 167.585 388.79 167.436 388.295 167.294C386.438 166.754 384.996 166.241 383.775 164.668C383.1 163.42 383.07 161.975 383.351 160.594C383.913 158.894 385.128 157.803 386.682 157.001C389.349 155.907 392.53 156.233 394.802 158.039Z" fill="white"/>
<path d="M304.644 119.127C304.879 119.128 305.115 119.129 305.357 119.13C305.611 119.131 305.865 119.132 306.126 119.132C306.396 119.134 306.666 119.136 306.936 119.138C307.207 119.139 307.478 119.139 307.748 119.14C308.413 119.143 309.078 119.146 309.743 119.15C309.602 121.335 309.299 123.494 309.001 125.661C308.947 126.052 308.894 126.443 308.84 126.834C308.729 127.648 308.617 128.461 308.505 129.275C308.361 130.32 308.219 131.365 308.076 132.41C307.967 133.215 307.856 134.019 307.746 134.824C307.693 135.209 307.64 135.595 307.588 135.981C307.515 136.517 307.441 137.052 307.366 137.588C307.345 137.748 307.323 137.908 307.301 138.073C307.148 139.166 307.148 139.166 306.923 139.391C306.506 139.409 306.088 139.413 305.67 139.411C305.289 139.41 305.289 139.41 304.901 139.409C304.631 139.408 304.361 139.406 304.091 139.404C303.82 139.403 303.55 139.402 303.279 139.401C302.614 139.399 301.949 139.395 301.284 139.391C301.414 137.144 301.715 134.93 302.027 132.702C302.08 132.316 302.134 131.93 302.187 131.544C302.298 130.741 302.41 129.938 302.522 129.135C302.666 128.104 302.809 127.073 302.951 126.042C303.06 125.248 303.171 124.453 303.282 123.659C303.334 123.279 303.387 122.898 303.44 122.517C303.512 121.989 303.586 121.46 303.661 120.932C303.682 120.774 303.704 120.616 303.726 120.453C303.91 119.158 303.91 119.158 304.644 119.127Z" fill="white"/>
<path d="M225.15 152.751C226.28 152.751 227.41 152.751 228.574 152.751C228.512 153.306 228.45 153.861 228.385 154.433C228.366 154.607 228.347 154.782 228.327 154.961C228.304 155.168 228.304 155.168 228.279 155.38C228.263 155.521 228.248 155.662 228.231 155.807C228.171 156.192 228.171 156.192 227.97 156.799C229.233 156.799 230.496 156.799 231.797 156.799C231.797 157.885 231.787 158.788 231.595 159.835C231.394 160.038 231.394 160.038 231.02 160.061C230.781 160.059 230.781 160.059 230.537 160.057C230.365 160.057 230.193 160.056 230.016 160.055C229.835 160.054 229.654 160.052 229.468 160.05C229.286 160.049 229.105 160.048 228.918 160.047C228.468 160.045 228.017 160.042 227.567 160.038C227.394 161.305 227.222 162.573 227.051 163.84C226.993 164.271 226.934 164.702 226.875 165.132C226.79 165.753 226.706 166.374 226.623 166.996C226.597 167.186 226.57 167.377 226.543 167.574C226.361 168.946 226.222 170.216 226.56 171.575C227.624 171.709 228.687 171.842 229.783 171.98C229.808 174.333 229.808 174.333 229.581 175.016C225.349 175.147 225.349 175.147 224.198 174.089C223.183 172.977 222.852 171.955 222.847 170.449C222.846 170.291 222.845 170.133 222.845 169.971C222.891 167.428 223.332 164.897 223.702 162.385C223.733 162.171 223.733 162.171 223.765 161.952C223.864 161.301 223.984 160.677 224.143 160.038C223.08 160.038 222.016 160.038 220.921 160.038C221.054 158.969 221.187 157.9 221.323 156.799C221.668 156.757 222.013 156.715 222.368 156.672C223.229 156.508 223.834 156.365 224.36 155.597C224.766 154.686 224.946 153.724 225.15 152.751Z" fill="white"/>
<path d="M249.924 156.597C249.896 157.06 249.866 157.524 249.836 157.988C249.82 158.246 249.803 158.505 249.786 158.771C249.723 159.43 249.723 159.43 249.521 159.835C249.082 159.877 248.641 159.899 248.199 159.911C246.768 160 245.797 160.172 244.746 161.175C243.337 162.833 243.193 165.217 242.91 167.302C242.864 167.627 242.864 167.627 242.818 167.959C242.722 168.641 242.628 169.324 242.535 170.006C242.47 170.473 242.405 170.94 242.339 171.407C242.181 172.542 242.024 173.678 241.868 174.814C240.738 174.814 239.608 174.814 238.444 174.814C238.699 172.426 238.989 170.048 239.326 167.671C239.371 167.354 239.416 167.037 239.46 166.72C239.576 165.899 239.692 165.079 239.808 164.258C239.927 163.415 240.046 162.572 240.164 161.73C240.396 160.086 240.628 158.442 240.861 156.799C241.924 156.799 242.987 156.799 244.083 156.799C244.15 157.267 244.216 157.734 244.285 158.216C244.49 158.034 244.49 158.034 244.7 157.849C246.311 156.643 247.992 156.557 249.924 156.597Z" fill="white"/>
<path d="M309.932 188.122C310.068 188.118 310.205 188.114 310.345 188.11C311.511 188.101 312.463 188.34 313.356 189.122C313.68 189.83 313.737 190.458 313.57 191.209C312.897 192.498 311.67 193.17 310.347 193.638C309.394 193.892 308.431 194.093 307.464 194.286C306.765 194.368 306.765 194.368 306.521 194.65C306.71 194.687 306.9 194.724 307.095 194.762C307.346 194.812 307.597 194.863 307.855 194.916C308.103 194.965 308.35 195.014 308.606 195.065C309.521 195.305 310.617 195.634 311.153 196.472C311.254 197.155 311.254 197.155 311.153 197.889C310.051 199.342 308.284 200.207 306.521 200.52C305.02 200.642 303.817 200.704 302.492 199.913C302.088 199.418 302.09 199.126 302.077 198.483C302.27 197.342 303.059 196.391 303.701 195.46C303.535 195.376 303.369 195.293 303.197 195.207C302.948 195.031 302.948 195.031 302.694 194.852C302.694 194.585 302.694 194.318 302.694 194.043C303.669 193.772 304.493 193.587 305.514 193.638C305.592 193.46 305.592 193.46 305.672 193.279C305.932 192.8 306.212 192.478 306.596 192.095C306.714 191.975 306.832 191.856 306.953 191.732C307.737 191.058 308.315 190.96 309.34 191.007C309.148 191.268 308.955 191.53 308.761 191.791C308.654 191.937 308.546 192.082 308.436 192.232C308.132 192.626 308.132 192.626 307.729 193.031C309.066 192.944 310.406 192.761 311.556 192.019C311.822 191.504 311.822 191.504 311.959 191.007C311.314 190.261 310.831 190.218 309.869 190.146C308.369 190.163 306.624 190.458 305.312 191.209C305.312 191.409 305.312 191.61 305.312 191.816C304.931 191.953 304.549 192.088 304.167 192.221C303.848 192.334 303.848 192.334 303.522 192.449C302.939 192.614 302.489 192.662 301.888 192.626C301.687 192.019 301.687 192.019 301.896 191.545C302.001 191.372 302.107 191.198 302.215 191.019C302.318 190.846 302.42 190.673 302.525 190.495C303.337 189.397 304.201 189.03 305.501 188.742C305.64 188.709 305.779 188.676 305.922 188.641C307.268 188.325 308.549 188.133 309.932 188.122ZM304.934 196.004C304.493 196.548 304.197 196.983 304.104 197.686C304.255 198.165 304.255 198.165 304.708 198.496C305.964 198.921 307.056 198.625 308.253 198.143C308.855 197.826 309.2 197.465 309.542 196.877C309.342 196.338 309.235 196.113 308.709 195.862C308.182 195.722 307.654 195.588 307.125 195.46C306.88 195.38 306.635 195.301 306.382 195.219C305.574 195.265 305.466 195.42 304.934 196.004Z" fill="white"/>
<path d="M234.415 156.799C235.545 156.799 236.675 156.799 237.839 156.799C237.584 159.187 237.294 161.564 236.956 163.942C236.912 164.259 236.867 164.576 236.823 164.893C236.707 165.714 236.591 166.534 236.475 167.355C236.356 168.197 236.237 169.04 236.119 169.883C235.887 171.527 235.655 173.17 235.422 174.814C234.292 174.814 233.162 174.814 231.998 174.814C232.254 172.426 232.543 170.048 232.881 167.671C232.926 167.354 232.97 167.037 233.015 166.72C233.13 165.899 233.246 165.079 233.362 164.258C233.482 163.415 233.6 162.572 233.719 161.73C233.95 160.086 234.183 158.442 234.415 156.799Z" fill="white"/>
<path d="M400.7 156.779C401 156.78 401.3 156.783 401.599 156.786C401.876 156.789 402.153 156.791 402.43 156.793C402.81 156.796 402.81 156.796 403.198 156.799C402.946 159.187 402.653 161.565 402.315 163.942C402.271 164.259 402.226 164.576 402.182 164.893C402.066 165.714 401.95 166.534 401.834 167.355C401.715 168.197 401.596 169.04 401.477 169.883C401.246 171.527 401.014 173.17 400.781 174.814C399.651 174.814 398.521 174.814 397.357 174.814C397.611 172.443 397.897 170.082 398.233 167.722C398.277 167.41 398.321 167.098 398.365 166.786C398.456 166.142 398.548 165.497 398.64 164.853C398.758 164.026 398.874 163.199 398.991 162.371C399.081 161.731 399.172 161.092 399.263 160.452C399.306 160.146 399.349 159.841 399.392 159.535C399.452 159.113 399.512 158.69 399.573 158.267C399.624 157.907 399.624 157.907 399.676 157.539C399.825 156.724 399.835 156.803 400.7 156.779Z" fill="white"/>
<path d="M252.341 156.799C253.404 156.799 254.468 156.799 255.564 156.799C255.564 157.924 255.523 158.942 255.363 160.042C255.342 160.195 255.321 160.348 255.299 160.506C255.229 161.007 255.158 161.508 255.086 162.009C255.037 162.359 254.988 162.709 254.938 163.059C254.836 163.79 254.732 164.522 254.628 165.253C254.495 166.19 254.363 167.127 254.231 168.065C254.13 168.787 254.028 169.509 253.926 170.23C253.877 170.576 253.828 170.922 253.78 171.268C253.712 171.75 253.643 172.232 253.574 172.714C253.554 172.857 253.534 173 253.514 173.147C253.43 173.728 253.332 174.255 253.147 174.814C252.083 174.814 251.02 174.814 249.924 174.814C250.05 172.718 250.282 170.665 250.579 168.588C250.623 168.272 250.668 167.955 250.712 167.639C250.804 166.983 250.897 166.327 250.99 165.671C251.11 164.83 251.228 163.99 251.346 163.15C251.437 162.499 251.529 161.849 251.62 161.199C251.664 160.889 251.708 160.579 251.751 160.269C251.812 159.838 251.874 159.406 251.935 158.975C251.97 158.73 252.004 158.485 252.04 158.232C252.14 157.609 252.14 157.609 252.341 156.799Z" fill="white"/>
<path d="M237.436 193.638C237.676 194.068 237.676 194.068 237.839 194.65C237.415 196.083 236.185 196.76 234.957 197.459C234.415 197.686 234.415 197.686 233.811 197.686C234.01 198.087 234.21 198.488 234.415 198.901C235.511 198.844 236.175 198.379 237.043 197.762C237.436 197.484 237.436 197.484 237.839 197.282C237.754 198.253 237.317 198.855 236.631 199.508C235.683 200.301 234.854 200.686 233.607 200.604C233.207 200.52 233.207 200.52 232.703 200.204C232.316 199.572 232.256 199.027 232.2 198.294C232 198.427 231.801 198.561 231.596 198.698C231.346 198.678 231.097 198.657 230.84 198.635C230.264 198.614 230.047 198.651 229.58 199.005C229.335 199.259 229.096 199.519 228.865 199.786C228.454 200.251 228.21 200.312 227.593 200.406C226.963 200.318 226.963 200.318 226.485 199.85C225.968 198.916 225.967 197.907 226.157 196.877C226.478 196.192 226.883 195.633 227.366 195.055C227.499 194.884 227.632 194.713 227.769 194.536C228.318 194.14 228.721 194.185 229.38 194.245C229.531 194.574 229.531 194.574 229.581 195.055C229.203 195.742 228.814 196.235 228.235 196.763C227.659 197.404 227.617 197.851 227.567 198.698C228.065 198.414 228.508 198.158 228.914 197.75C229.002 197.662 229.089 197.574 229.179 197.484C229.312 197.484 229.444 197.484 229.581 197.484C229.59 197.284 229.598 197.083 229.607 196.877C229.75 195.881 230.271 195.13 230.991 194.448C231.671 194.245 231.671 194.245 232.2 194.245C232.144 195.501 231.977 196.29 231.193 197.282C231.259 197.415 231.326 197.549 231.394 197.686C231.902 197.56 231.902 197.56 232.401 197.282C232.469 196.944 232.536 196.607 232.603 196.269C233.727 194.494 235.339 193.446 237.436 193.638ZM236.027 194.65C235.07 195.218 234.578 195.713 234.012 196.674C234.079 196.808 234.145 196.941 234.214 197.079C234.475 196.891 234.735 196.701 234.994 196.51C235.212 196.351 235.212 196.351 235.433 196.19C235.872 195.858 235.872 195.858 236.228 195.257C236.162 195.057 236.095 194.857 236.027 194.65Z" fill="white"/>
<path d="M305.111 111.661C306.972 111.661 308.833 111.661 310.75 111.661C310.422 117.051 310.422 117.051 309.945 117.531C309.527 117.549 309.109 117.553 308.691 117.551C308.438 117.55 308.184 117.549 307.922 117.549C307.652 117.547 307.382 117.545 307.112 117.544C306.842 117.542 306.571 117.542 306.3 117.541C305.635 117.538 304.97 117.535 304.305 117.531C304.405 116.129 304.506 114.734 304.708 113.343C304.741 113.109 304.774 112.874 304.809 112.633C304.909 112.066 304.909 112.066 305.111 111.661Z" fill="white"/>
<path d="M206.621 201.33C207.023 201.735 207.023 201.735 207.023 202.304C206.767 203.124 206.349 203.556 205.613 203.961C204.833 204.126 204.833 204.126 204.204 204.164C204.488 203.473 204.82 203.183 205.412 202.747C205.412 202.613 205.412 202.479 205.412 202.342C205.213 202.275 205.013 202.208 204.808 202.139C204.874 201.939 204.941 201.739 205.009 201.532C205.566 201.253 206.006 201.291 206.621 201.33Z" fill="white"/>
<path d="M258.383 189.387C258.325 190.151 258.279 190.668 257.829 191.298C257.294 191.671 257.007 191.685 256.369 191.614C256.428 190.85 256.473 190.333 256.923 189.704C257.458 189.33 257.745 189.316 258.383 189.387Z" fill="white"/>
<path d="M219.108 189.387C219.05 190.151 219.004 190.668 218.554 191.298C218.019 191.671 217.732 191.685 217.094 191.614C217.152 190.85 217.198 190.333 217.648 189.704C218.183 189.33 218.47 189.316 219.108 189.387Z" fill="white"/>
<path d="M202.391 189.387C202.332 190.151 202.287 190.668 201.837 191.298C201.302 191.671 201.015 191.685 200.377 191.614C200.435 190.85 200.481 190.333 200.931 189.704C201.466 189.33 201.753 189.316 202.391 189.387Z" fill="white"/>
<path d="M260.548 189.438C260.698 189.488 260.848 189.538 261.002 189.59C260.901 190.476 260.633 190.991 259.995 191.614C259.441 191.677 259.441 191.677 258.988 191.614C259.046 190.847 259.097 190.329 259.541 189.691C259.995 189.387 259.995 189.387 260.548 189.438Z" fill="white"/>
<path d="M221.273 189.438C221.423 189.488 221.572 189.538 221.726 189.59C221.625 190.476 221.357 190.991 220.719 191.614C220.165 191.677 220.165 191.677 219.712 191.614C219.771 190.847 219.822 190.329 220.266 189.691C220.719 189.387 220.719 189.387 221.273 189.438Z" fill="white"/>
<path d="M204.556 189.438C204.706 189.488 204.855 189.538 205.009 189.59C204.908 190.476 204.64 190.991 204.002 191.614C203.448 191.677 203.448 191.677 202.995 191.614C203.054 190.847 203.105 190.329 203.549 189.691C204.002 189.387 204.002 189.387 204.556 189.438Z" fill="white"/>
<path d="M291.125 191.374C291.616 191.411 291.616 191.411 291.818 191.614C291.697 192.95 291.697 192.95 291.213 193.436C290.697 193.474 290.697 193.474 290.206 193.436C290.14 193.369 290.073 193.302 290.005 193.233C290.167 191.444 290.167 191.444 291.125 191.374Z" fill="white"/>
<path d="M282.666 191.374C283.157 191.411 283.157 191.411 283.358 191.614C283.238 192.95 283.238 192.95 282.754 193.436C282.238 193.474 282.238 193.474 281.747 193.436C281.681 193.369 281.614 193.302 281.546 193.233C281.708 191.444 281.708 191.444 282.666 191.374Z" fill="white"/>
</g>
<defs>
<linearGradient id="paint0_linear_8667_5472" x1="316" y1="0" x2="316" y2="993" gradientUnits="userSpaceOnUse">
<stop stop-color="white"/>
<stop offset="0.56" stop-color="#EFA9AB"/>
<stop offset="1" stop-color="#E81D23"/>
</linearGradient>
<linearGradient id="paint1_linear_8667_5472" x1="391" y1="0" x2="391" y2="993" gradientUnits="userSpaceOnUse">
<stop stop-color="#D70B16"/>
<stop offset="0.317308" stop-color="#ED1C27"/>
<stop offset="1" stop-color="#FF757C"/>
</linearGradient>
<clipPath id="clip0_8667_5472">
<rect width="632" height="993" fill="white"/>
</clipPath>
</defs>
</svg>
