<svg width="66" height="66" viewBox="0 0 66 66" fill="none" xmlns="http://www.w3.org/2000/svg">
<path d="M0 20C0 8.95431 8.95431 0 20 0H46C57.0457 0 66 8.95431 66 20V46C66 57.0457 57.0457 66 46 66H20C8.95431 66 0 57.0457 0 46V20Z" fill="url(#paint0_linear_65_1928)"/>
<path d="M8.5 20C8.5 13.6487 13.6487 8.5 20 8.5H46C52.3513 8.5 57.5 13.6487 57.5 20V46C57.5 52.3513 52.3513 57.5 46 57.5H20C13.6487 57.5 8.5 52.3513 8.5 46V20Z" fill="white"/>
<path d="M8.5 20C8.5 13.6487 13.6487 8.5 20 8.5H46C52.3513 8.5 57.5 13.6487 57.5 20V46C57.5 52.3513 52.3513 57.5 46 57.5H20C13.6487 57.5 8.5 52.3513 8.5 46V20Z" stroke="#E1E4EA"/>
<path d="M38.625 26.8125H27.375C27.0766 26.8125 26.7905 26.931 26.5795 27.142C26.3685 27.353 26.25 27.6391 26.25 27.9375V31.875C26.25 35.5819 28.0444 37.8284 29.5498 39.0602C31.1712 40.3863 32.7841 40.8363 32.8545 40.8553C32.9511 40.8816 33.0531 40.8816 33.1498 40.8553C33.2201 40.8363 34.8309 40.3863 36.4545 39.0602C37.9556 37.8284 39.75 35.5819 39.75 31.875V27.9375C39.75 27.6391 39.6315 27.353 39.4205 27.142C39.2095 26.931 38.9234 26.8125 38.625 26.8125ZM35.7703 38.1623C34.9457 38.8414 34.008 39.3698 33 39.7233C32.0052 39.3759 31.079 38.8569 30.2634 38.1898C29.5852 37.642 29.0028 36.9852 28.5401 36.2463L33 33.1245L37.4599 36.2463C37.0052 36.973 36.4344 37.6203 35.7703 38.1623ZM38.625 31.875C38.625 33.1083 38.4108 34.2295 37.9823 35.2387L33.3227 31.977C33.2282 31.9107 33.1155 31.8752 33 31.8752C32.8845 31.8752 32.7718 31.9107 32.6773 31.977L28.017 35.2387C27.5902 34.2319 27.375 33.1083 27.375 31.875V27.9375H38.625V31.875Z" fill="#525866"/>
<defs>
<linearGradient id="paint0_linear_65_1928" x1="33" y1="0" x2="33" y2="66" gradientUnits="userSpaceOnUse">
<stop stop-color="#F2F5F8"/>
<stop offset="1" stop-color="white"/>
</linearGradient>
</defs>
</svg>
