<svg width="66" height="66" viewBox="0 0 66 66" fill="none" xmlns="http://www.w3.org/2000/svg">
<path d="M0 20C0 8.95431 8.95431 0 20 0H46C57.0457 0 66 8.95431 66 20V46C66 57.0457 57.0457 66 46 66H20C8.95431 66 0 57.0457 0 46V20Z" fill="url(#paint0_linear_71_754)"/>
<path d="M8.5 20C8.5 13.6487 13.6487 8.5 20 8.5H46C52.3513 8.5 57.5 13.6487 57.5 20V46C57.5 52.3513 52.3513 57.5 46 57.5H20C13.6487 57.5 8.5 52.3513 8.5 46V20Z" fill="white"/>
<path d="M8.5 20C8.5 13.6487 13.6487 8.5 20 8.5H46C52.3513 8.5 57.5 13.6487 57.5 20V46C57.5 52.3513 52.3513 57.5 46 57.5H20C13.6487 57.5 8.5 52.3513 8.5 46V20Z" stroke="#E1E4EA"/>
<path d="M32.1562 32.4375C32.1562 32.2706 32.2057 32.1075 32.2984 31.9687C32.3912 31.83 32.5229 31.7218 32.6771 31.658C32.8313 31.5941 33.0009 31.5774 33.1646 31.61C33.3283 31.6425 33.4786 31.7229 33.5966 31.8409C33.7146 31.9589 33.795 32.1092 33.8275 32.2729C33.8601 32.4366 33.8434 32.6062 33.7795 32.7604C33.7157 32.9146 33.6075 33.0463 33.4688 33.1391C33.33 33.2318 33.1669 33.2812 33 33.2812C32.7762 33.2812 32.5616 33.1924 32.4034 33.0341C32.2451 32.8759 32.1562 32.6613 32.1562 32.4375ZM29.9062 33.2812C30.0731 33.2812 30.2363 33.2318 30.375 33.1391C30.5138 33.0463 30.6219 32.9146 30.6858 32.7604C30.7496 32.6062 30.7663 32.4366 30.7338 32.2729C30.7012 32.1092 30.6209 31.9589 30.5029 31.8409C30.3849 31.7229 30.2345 31.6425 30.0709 31.61C29.9072 31.5774 29.7375 31.5941 29.5834 31.658C29.4292 31.7218 29.2974 31.83 29.2047 31.9687C29.112 32.1075 29.0625 32.2706 29.0625 32.4375C29.0625 32.6613 29.1514 32.8759 29.3096 33.0341C29.4679 33.1924 29.6825 33.2812 29.9062 33.2812ZM36.0938 33.2812C36.2606 33.2812 36.4238 33.2318 36.5625 33.1391C36.7013 33.0463 36.8094 32.9146 36.8733 32.7604C36.9371 32.6062 36.9538 32.4366 36.9213 32.2729C36.8887 32.1092 36.8084 31.9589 36.6904 31.8409C36.5724 31.7229 36.422 31.6425 36.2584 31.61C36.0947 31.5774 35.925 31.5941 35.7709 31.658C35.6167 31.7218 35.4849 31.83 35.3922 31.9687C35.2995 32.1075 35.25 32.2706 35.25 32.4375C35.25 32.6613 35.3389 32.8759 35.4971 33.0341C35.6554 33.1924 35.87 33.2812 36.0938 33.2812ZM40.3125 27.9375V36.9375C40.3125 37.2359 40.194 37.522 39.983 37.733C39.772 37.944 39.4859 38.0625 39.1875 38.0625H34.9385L33.9766 39.7458C33.8782 39.9179 33.7361 40.061 33.5646 40.1605C33.393 40.26 33.1983 40.3124 33 40.3124C32.8017 40.3124 32.607 40.26 32.4354 40.1605C32.2639 40.061 32.1218 39.9179 32.0234 39.7458L31.0615 38.0625H26.8125C26.5141 38.0625 26.228 37.944 26.017 37.733C25.806 37.522 25.6875 37.2359 25.6875 36.9375V27.9375C25.6875 27.6391 25.806 27.353 26.017 27.142C26.228 26.931 26.5141 26.8125 26.8125 26.8125H39.1875C39.4859 26.8125 39.772 26.931 39.983 27.142C40.194 27.353 40.3125 27.6391 40.3125 27.9375ZM39.1875 27.9375H26.8125V36.9375H31.3877C31.4873 36.9366 31.5854 36.9622 31.6718 37.0116C31.7583 37.061 31.8301 37.1325 31.8799 37.2188L33.0049 39.1875L34.1299 37.2188C34.1797 37.1325 34.2515 37.061 34.338 37.0116C34.4245 36.9622 34.5225 36.9366 34.6221 36.9375H39.1875V27.9375Z" fill="#525866"/>
<defs>
<linearGradient id="paint0_linear_71_754" x1="33" y1="0" x2="33" y2="66" gradientUnits="userSpaceOnUse">
<stop stop-color="#F2F5F8"/>
<stop offset="1" stop-color="white"/>
</linearGradient>
</defs>
</svg>
