<svg width="632" height="993" viewBox="0 0 632 993" fill="none" xmlns="http://www.w3.org/2000/svg">
<g clip-path="url(#clip0_4645_46078)">
<rect width="632" height="993" fill="url(#paint0_linear_4645_46078)"/>
<rect x="-329" width="1440" height="993" rx="24" fill="url(#paint1_linear_4645_46078)"/>
<rect x="100" y="918" width="10" height="10" rx="5" fill="white"/>
<rect x="113" y="918" width="27" height="10" rx="5" fill="white"/>
<path d="M550.322 263.194L532.679 280.907L481.772 230L532.679 179.163L550.392 196.876L517.198 230L550.322 263.194Z" fill="white"/>
<path d="M700.39 148.619L631.771 217.169L563.151 148.619L631.771 80L700.39 148.619Z" fill="white"/>
<path d="M700.391 311.45L631.771 380L563.151 311.45L631.771 242.831L700.391 311.45Z" fill="white"/>
<g clip-path="url(#clip1_4645_46078)">
<path d="M182.071 138.812V108.975C182.071 107.38 183.316 106.087 184.852 106.087H203.31V112.258H188.778V119.458L202.549 119.411V125.395L191.213 125.417C190.834 125.418 190.468 125.278 190.18 125.023L188.778 123.783V125.442V138.812H182.071Z" fill="white"/>
<path d="M205.562 138.812V115.438H212.314V138.812H205.562Z" fill="white"/>
<path d="M215.125 138.812V115.438H221.832V118.196C223.218 116.372 225.678 114.736 228.763 114.736C235.47 114.736 238.644 118.804 238.644 125.676V138.812H231.893V124.881C231.893 122.216 229.747 120.627 226.93 120.627C223.979 120.627 221.922 122.31 221.922 125.115V138.812H215.125Z" fill="white"/>
<path d="M253.81 139.701C245.091 139.654 240.888 133.39 240.888 127.546V126.798C240.888 120.814 245.27 114.643 253.765 114.643C262.306 114.643 266.687 120.814 266.687 126.798C266.687 127.499 266.732 127.966 266.643 128.668H247.729C248.221 131.94 250.367 133.857 253.81 133.904C256.582 133.857 259.624 133.248 260.728 130.257H266.374C265.301 135.166 261.143 139.654 253.81 139.701ZM260.817 124.227C259.624 121.202 256.672 120.44 253.765 120.44C250.904 120.44 248.892 121.795 248.087 124.227H260.817Z" fill="white"/>
<path d="M281.441 139.654C274.063 139.654 268.921 133.997 268.921 127.359V126.471C268.921 119.832 274.063 114.175 281.441 114.175C284.034 114.175 287.775 115.884 289.266 118.752L290.259 120.627L289.529 116.621C289.354 115.661 289.266 114.685 289.266 113.707V106.087H296.018V138.812H289.266V135.542C288.051 137.837 283.766 139.654 281.441 139.654ZM282.201 133.763C285.912 133.763 288.55 131.332 288.55 127.686V126.143C288.55 122.497 285.912 120.066 282.201 120.066C279.116 120.066 275.673 121.795 275.673 126.985C275.673 131.146 278.356 133.763 282.201 133.763Z" fill="white"/>
<path d="M310.784 148.163V142.366H315.747C317.223 142.366 317.849 141.711 317.849 140.402V136.403C316.477 139.271 313.109 140.028 310.784 140.028C303.406 140.028 298.264 134.371 298.264 127.733V126.845C298.264 120.206 303.406 114.549 310.784 114.549C313.065 114.549 315.926 115.438 317.804 118.333V115.438H324.6V139.841C324.6 141.758 324.332 143.347 323.706 144.563C322.365 147.181 319.548 148.163 315.3 148.163H310.784ZM311.499 134.091C315.032 134.091 317.893 131.894 317.849 128.574L317.804 125.863C317.759 122.544 314.987 120.393 311.499 120.393C307.654 120.393 304.971 123.011 304.971 127.172C304.971 131.473 307.654 134.091 311.499 134.091Z" fill="white"/>
<path d="M339.611 139.701C330.892 139.654 326.689 133.39 326.689 127.546V126.798C326.689 120.814 331.071 114.643 339.567 114.643C348.107 114.643 352.489 120.814 352.489 126.798C352.489 127.499 352.533 127.966 352.444 128.668H333.53C334.022 131.94 336.169 133.857 339.611 133.904C342.384 133.857 345.425 133.248 346.529 130.257H352.176C351.103 135.166 346.944 139.654 339.611 139.701ZM346.618 124.227C345.425 121.202 342.473 120.44 339.567 120.44C336.705 120.44 334.693 121.795 333.888 124.227H346.618Z" fill="white"/>
<path d="M205.562 113.17V108.007H212.314V113.17H205.562Z" fill="white"/>
<mask id="mask0_4645_46078" style="mask-type:luminance" maskUnits="userSpaceOnUse" x="105" y="90" width="62" height="66">
<path d="M166.974 90H105V156H166.974V90Z" fill="white"/>
</mask>
<g mask="url(#mask0_4645_46078)">
<path d="M135.987 146.366C135.987 150.822 133.093 154.569 129.162 155.668C129.146 155.676 129.127 155.68 129.107 155.684C128.189 155.853 127.248 155.955 126.295 155.988H126.276C126.048 155.996 125.82 156 125.593 156C119.714 156 114.406 153.421 110.653 149.289C110.217 148.806 109.801 148.306 109.405 147.781C109.402 147.777 109.397 147.772 109.394 147.764C109.39 147.76 109.386 147.752 109.382 147.748C109.379 147.743 109.379 147.744 109.379 147.739C108.834 146.514 108.532 145.145 108.532 143.701C108.532 141.639 109.152 139.733 110.207 138.167C110.635 137.528 111.137 136.945 111.697 136.438C111.918 136.241 112.145 136.052 112.38 135.876C113.536 136.426 114.823 136.733 116.181 136.733H126.771C131.862 136.733 135.989 141.045 135.989 146.366H135.987Z" fill="white"/>
<path d="M152.853 123C152.853 128.741 148.614 132.633 143.381 132.633C139.321 132.633 135.261 132.633 131.202 132.633C126.456 132.633 121.709 132.633 116.964 132.633C114.646 132.633 112.531 133.527 110.911 135.002C110.351 135.511 109.848 136.092 109.421 136.732C108.365 138.298 107.746 140.204 107.746 142.266C107.746 144.327 108.346 146.185 109.378 147.738C108.923 147.135 108.503 146.508 108.115 145.86C106.503 143.163 105.444 140.06 105.11 136.731C105.04 135.989 105 135.239 105 134.476C105 133.853 105.024 133.237 105.075 132.631C105.306 129.79 106.063 127.109 107.252 124.691C107.252 124.687 107.252 124.682 107.255 124.679C108.33 122.477 109.762 120.497 111.468 118.816C115.154 115.184 120.125 112.954 125.592 112.954H143.244C147.095 112.954 150.417 115.323 151.947 118.742C152.528 120.032 152.853 121.476 152.853 122.997V123Z" fill="white"/>
<path d="M112.378 135.876C112.143 136.053 111.915 136.242 111.696 136.438C111.135 136.946 110.632 137.528 110.205 138.167C109.15 139.733 108.53 141.639 108.53 143.701C108.53 145.144 108.832 146.514 109.377 147.739C108.345 146.185 107.745 144.3 107.745 142.267C107.745 140.233 108.365 138.299 109.42 136.733C109.848 136.094 110.35 135.511 110.91 135.003C111.374 135.339 111.859 135.631 112.377 135.876H112.378Z" fill="#290B70"/>
<path d="M166.762 94.8163V94.82C166.468 101.666 160.89 107.036 154.273 107.036H117.834C111.64 107.036 106.526 111.845 105.714 118.08C105.647 117.888 105.58 117.695 105.522 117.502C105.18 115.908 105 114.247 105 112.546C105 111.431 105.078 110.336 105.227 109.266C106.746 98.3667 115.724 90 126.573 90H160.691C163.574 90 166.041 92.0333 166.762 94.8163Z" fill="white"/>
</g>
</g>
</g>
<defs>
<linearGradient id="paint0_linear_4645_46078" x1="316" y1="0" x2="316" y2="993" gradientUnits="userSpaceOnUse">
<stop stop-color="white"/>
<stop offset="0.56" stop-color="#EFA9AB"/>
<stop offset="1" stop-color="#E81D23"/>
</linearGradient>
<linearGradient id="paint1_linear_4645_46078" x1="391" y1="0" x2="391" y2="993" gradientUnits="userSpaceOnUse">
<stop stop-color="#210959"/>
<stop offset="0.5" stop-color="#2E0C7D"/>
<stop offset="1" stop-color="#735CA8"/>
</linearGradient>
<clipPath id="clip0_4645_46078">
<rect width="632" height="993" fill="white"/>
</clipPath>
<clipPath id="clip1_4645_46078">
<rect width="247.5" height="66" fill="white" transform="translate(105 90)"/>
</clipPath>
</defs>
</svg>
