<svg width="1920" height="149" viewBox="0 0 1920 149" fill="none" xmlns="http://www.w3.org/2000/svg">
    <g clip-path="url(#clip0_1999_5558)">
        <rect width="1920" height="149" fill="url(#paint0_linear_1999_5558)"/>
        <g opacity="0.2">
            <path d="M93.2903 75.7819L60.9513 107.905L49.7434 96.7282L70.7859 75.7819L49.7434 54.8796L60.9513 43.7024L93.2903 75.7819Z" fill="white"/>
            <path d="M41.5917 24.4275L-1.99956 67.6843L-45.5908 24.4275L-1.99956 -18.8733L41.5917 24.4275Z" fill="white"/>
            <path d="M41.5917 127.178L-1.99956 170.435L-45.5908 127.178L-1.99956 83.8777L41.5917 127.178Z" fill="white"/>
        </g>
        <g opacity="0.2">
            <path d="M1953 -7.9455L1919.06 25.766L1907.3 14.0363L1929.38 -7.9455L1907.3 -29.8811L1919.06 -41.6108L1953 -7.9455Z" fill="white"/>
            <path d="M1798.7 14.0363L1786.94 25.766L1753 -7.9455L1786.94 -41.6108L1798.75 -29.8811L1776.62 -7.9455L1798.7 14.0363Z" fill="white"/>
            <path d="M1898.75 45.9916L1853 91.3867L1807.25 45.9916L1853 0.550293L1898.75 45.9916Z" fill="white"/>
        </g>
    </g>
    <defs>
        <linearGradient id="paint0_linear_1999_5558" x1="3.97893e-06" y1="74.4993" x2="1920" y2="74.4994" gradientUnits="userSpaceOnUse">
            <stop stop-color="#C50309"/>
            <stop offset="0.5" stop-color="#E81D23"/>
            <stop offset="1" stop-color="#FF575C"/>
        </linearGradient>
        <clipPath id="clip0_1999_5558">
            <rect width="1920" height="149" fill="white"/>
        </clipPath>
    </defs>
</svg>
