<svg width="16" height="18" viewBox="0 0 16 18" fill="none" xmlns="http://www.w3.org/2000/svg">
<path d="M14.8818 4.51205L10.5585 0.188839C10.438 0.0683036 10.2753 0 10.1045 0H1.57059C1.21501 0 0.927734 0.287277 0.927734 0.642857V17.3571C0.927734 17.7127 1.21501 18 1.57059 18H14.4277C14.7833 18 15.0706 17.7127 15.0706 17.3571V4.96808C15.0706 4.79732 15.0023 4.63259 14.8818 4.51205ZM13.588 5.26339H9.8072V1.48259L13.588 5.26339ZM13.6242 16.5536H2.37416V1.44643H8.44113V5.78571C8.44113 6.00949 8.53002 6.2241 8.68826 6.38234C8.84649 6.54057 9.0611 6.62946 9.28488 6.62946H13.6242V16.5536ZM7.83845 11.1295H4.14202C4.05363 11.1295 3.98131 11.2018 3.98131 11.2902V12.2545C3.98131 12.3429 4.05363 12.4152 4.14202 12.4152H7.83845C7.92684 12.4152 7.99916 12.3429 7.99916 12.2545V11.2902C7.99916 11.2018 7.92684 11.1295 7.83845 11.1295ZM3.98131 8.55804V9.52232C3.98131 9.61071 4.05363 9.68304 4.14202 9.68304H11.8563C11.9447 9.68304 12.017 9.61071 12.017 9.52232V8.55804C12.017 8.46964 11.9447 8.39732 11.8563 8.39732H4.14202C4.05363 8.39732 3.98131 8.46964 3.98131 8.55804Z" fill="#583D97"/>
</svg>
