<svg width="18" height="18" viewBox="0 0 18 18" fill="none" xmlns="http://www.w3.org/2000/svg">
<g clip-path="url(#clip0_4049_14418)">
<path d="M3.76127 6.49135H5.14342V7.87349C5.14342 7.90965 5.17958 7.93778 5.22377 7.93778H6.18806C6.23225 7.93778 6.26842 7.90965 6.26842 7.87149V6.49135H7.65056C7.68672 6.49135 7.71484 6.45519 7.71484 6.41099V5.44671C7.71484 5.40251 7.68672 5.36635 7.64855 5.36635H6.26842V3.98421C6.26842 3.94805 6.23225 3.91992 6.18806 3.91992H5.22377C5.17958 3.91992 5.14342 3.94805 5.14342 3.98421V5.36635H3.76127C3.72511 5.36635 3.69699 5.40251 3.69699 5.44671V6.41099C3.69699 6.45519 3.72511 6.49135 3.76127 6.49135ZM10.3506 6.49135H14.2398C14.276 6.49135 14.3041 6.45519 14.3041 6.41099V5.44671C14.3041 5.40251 14.276 5.36635 14.2378 5.36635H10.3506C10.3144 5.36635 10.2863 5.40251 10.2863 5.44671V6.41099C10.2863 6.45519 10.3144 6.49135 10.3506 6.49135ZM10.3506 11.815H14.2398C14.276 11.815 14.3041 11.7789 14.3041 11.7347V10.7704C14.3041 10.7262 14.276 10.69 14.2378 10.69H10.3506C10.3144 10.69 10.2863 10.7262 10.2863 10.7704V11.7347C10.2863 11.7789 10.3144 11.815 10.3506 11.815ZM10.3506 13.9043H14.2398C14.276 13.9043 14.3041 13.8681 14.3041 13.8239V12.8597C14.3041 12.8155 14.276 12.7793 14.2378 12.7793H10.3506C10.3144 12.7793 10.2863 12.8155 10.2863 12.8597V13.8239C10.2863 13.8681 10.3144 13.9043 10.3506 13.9043ZM6.41909 12.2771L7.64855 10.7724C7.73493 10.6679 7.66261 10.5092 7.53002 10.5092H6.50949C6.46328 10.5092 6.41909 10.5293 6.39096 10.5675L5.70792 11.4032L5.02489 10.5675C5.01052 10.5498 4.99248 10.5354 4.97202 10.5253C4.95156 10.5153 4.92916 10.5098 4.90636 10.5092H3.88382C3.75123 10.5092 3.67891 10.6679 3.76529 10.7724L4.99475 12.2771L3.73516 13.8199C3.64676 13.9244 3.71908 14.0831 3.85167 14.0831H4.87221C4.91842 14.0831 4.96261 14.063 4.99074 14.0248L5.70391 13.1509L6.41708 14.0248C6.44721 14.061 6.49141 14.0831 6.5356 14.0831H7.55614C7.68873 14.0831 7.76105 13.9244 7.67467 13.8199L6.41909 12.2771ZM16.3934 0.966797H1.6077C1.25212 0.966797 0.964844 1.25407 0.964844 1.60965V16.3954C0.964844 16.7509 1.25212 17.0382 1.6077 17.0382H16.3934C16.749 17.0382 17.0363 16.7509 17.0363 16.3954V1.60965C17.0363 1.25407 16.749 0.966797 16.3934 0.966797ZM15.6702 15.6722H2.33092V2.33287H15.6702V15.6722Z" fill="#E73848"/>
</g>
<defs>
<clipPath id="clip0_4049_14418">
<rect width="18" height="18" fill="white"/>
</clipPath>
</defs>
</svg>
