<svg width="18" height="18" viewBox="0 0 18 18" fill="none" xmlns="http://www.w3.org/2000/svg">
<path d="M9.60277 1.76855H8.39741C8.29027 1.76855 8.23669 1.82213 8.23669 1.92927V8.2373H2.25056C2.14342 8.2373 2.08984 8.29088 2.08984 8.39802V9.60338C2.08984 9.71052 2.14342 9.76409 2.25056 9.76409H8.23669V16.0721C8.23669 16.1793 8.29027 16.2328 8.39741 16.2328H9.60277C9.70991 16.2328 9.76348 16.1793 9.76348 16.0721V9.76409H15.7506C15.8577 9.76409 15.9113 9.71052 15.9113 9.60338V8.39802C15.9113 8.29088 15.8577 8.2373 15.7506 8.2373H9.76348V1.92927C9.76348 1.82213 9.70991 1.76855 9.60277 1.76855Z" fill="#E73848"/>
</svg>
