<svg width="32" height="33" viewBox="0 0 32 33" fill="none" xmlns="http://www.w3.org/2000/svg">
<path d="M19.9997 23.1667V24.5C19.9997 26.7091 18.2088 28.5 15.9997 28.5C13.7905 28.5 11.9997 26.7091 11.9997 24.5V23.1667M19.9997 23.1667H11.9997M19.9997 23.1667H24.787C25.297 23.1667 25.5533 23.1667 25.7598 23.097C26.1543 22.9639 26.463 22.6542 26.596 22.2597C26.666 22.0524 26.666 21.7953 26.666 21.2813C26.666 21.0563 26.6657 20.9438 26.6481 20.8366C26.6149 20.6339 26.5362 20.4418 26.4164 20.275C26.3531 20.1868 26.2727 20.1064 26.1141 19.9478L25.5947 19.4284C25.4272 19.2608 25.333 19.0335 25.333 18.7965V13.8333C25.333 8.67867 21.1543 4.49999 15.9997 4.5C10.845 4.50001 6.66634 8.67869 6.66634 13.8333V18.7966C6.66634 19.0336 6.572 19.2608 6.40443 19.4284L5.88509 19.9477C5.72602 20.1068 5.6464 20.1867 5.58301 20.275C5.46322 20.4418 5.38387 20.6339 5.35061 20.8366C5.33301 20.9438 5.33301 21.0563 5.33301 21.2813C5.33301 21.7953 5.33301 22.0523 5.40294 22.2597C5.53601 22.6541 5.84607 22.9639 6.24056 23.097C6.44709 23.1667 6.70236 23.1667 7.21241 23.1667H11.9997" stroke="white" stroke-width="2" stroke-linecap="round" stroke-linejoin="round"/>
</svg>
