<svg width="42" height="42" viewBox="0 0 42 42" fill="none" xmlns="http://www.w3.org/2000/svg">
<path d="M22.4061 4.12695H19.5936C19.3436 4.12695 19.2186 4.25195 19.2186 4.50195V19.2207H5.25098C5.00098 19.2207 4.87598 19.3457 4.87598 19.5957V22.4082C4.87598 22.6582 5.00098 22.7832 5.25098 22.7832H19.2186V37.502C19.2186 37.752 19.3436 37.877 19.5936 37.877H22.4061C22.6561 37.877 22.7811 37.752 22.7811 37.502V22.7832H36.751C37.001 22.7832 37.126 22.6582 37.126 22.4082V19.5957C37.126 19.3457 37.001 19.2207 36.751 19.2207H22.7811V4.50195C22.7811 4.25195 22.6561 4.12695 22.4061 4.12695Z" fill="#224FEE"/>
</svg>
