<svg width="42" height="42" viewBox="0 0 42 42" fill="none" xmlns="http://www.w3.org/2000/svg">
<path d="M5.25 34.125V9.1875C5.25 8.8394 5.38828 8.50556 5.63442 8.25942C5.88056 8.01328 6.2144 7.875 6.5625 7.875H35.4375C35.7856 7.875 36.1194 8.01328 36.3656 8.25942C36.6117 8.50556 36.75 8.8394 36.75 9.1875V34.125L31.5 31.5L26.25 34.125L21 31.5L15.75 34.125L10.5 31.5L5.25 34.125Z" fill="#EFF5FF"/>
<path d="M12.4687 22.3125H29.5312M12.4687 17.0625H29.5312M5.25 34.125V9.1875C5.25 8.8394 5.38828 8.50556 5.63442 8.25942C5.88056 8.01328 6.2144 7.875 6.5625 7.875H35.4375C35.7856 7.875 36.1194 8.01328 36.3656 8.25942C36.6117 8.50556 36.75 8.8394 36.75 9.1875V34.125L31.5 31.5L26.25 34.125L21 31.5L15.75 34.125L10.5 31.5L5.25 34.125Z" stroke="#224FEE" stroke-linecap="round" stroke-linejoin="round"/>
</svg>
