<svg width="36" height="36" viewBox="0 0 36 36" fill="none" xmlns="http://www.w3.org/2000/svg">
<path d="M32.7868 9.88895H26.8565C27.4029 9.02913 27.7243 8.00859 27.7243 6.91574C27.7243 3.85815 25.2373 1.37109 22.1797 1.37109C20.5163 1.37109 19.0176 2.11038 18.0011 3.27556C16.9846 2.11038 15.4859 1.37109 13.8225 1.37109C10.765 1.37109 8.2779 3.85815 8.2779 6.91574C8.2779 8.00859 8.59531 9.02913 9.14576 9.88895H3.2154C2.50424 9.88895 1.92969 10.4635 1.92969 11.1747V19.2104C1.92969 19.3872 2.07433 19.5318 2.25112 19.5318H3.85826V33.3532C3.85826 34.0644 4.43281 34.639 5.14397 34.639H30.8583C31.5694 34.639 32.144 34.0644 32.144 33.3532V19.5318H33.7511C33.9279 19.5318 34.0725 19.3872 34.0725 19.2104V11.1747C34.0725 10.4635 33.498 9.88895 32.7868 9.88895ZM19.3672 6.91574C19.3672 5.36484 20.6288 4.10324 22.1797 4.10324C23.7306 4.10324 24.9922 5.36484 24.9922 6.91574C24.9922 8.46663 23.7306 9.72824 22.1797 9.72824H19.3672V6.91574ZM13.8225 4.10324C15.3734 4.10324 16.635 5.36484 16.635 6.91574V9.72824H13.8225C12.2717 9.72824 11.01 8.46663 11.01 6.91574C11.01 5.36484 12.2717 4.10324 13.8225 4.10324ZM4.66183 16.7997V12.6211H16.635V16.7997H4.66183ZM6.5904 19.5318H16.635V31.9068H6.5904V19.5318ZM29.4118 31.9068H19.3672V19.5318H29.4118V31.9068ZM31.3404 16.7997H19.3672V12.6211H31.3404V16.7997Z" fill="#2C5DA8"/>
</svg>
