<svg width="12" height="12" viewBox="0 0 12 12" fill="none" xmlns="http://www.w3.org/2000/svg">
<path d="M11.4686 5.27104H10.203C10.1311 5.27104 10.0623 5.30229 10.0139 5.35698L6.59359 9.29917V0.500732C6.59359 0.431982 6.53734 0.375732 6.46859 0.375732H5.53109C5.46234 0.375732 5.40609 0.431982 5.40609 0.500732V9.29917L1.98577 5.35698C1.9389 5.30229 1.87015 5.27104 1.79671 5.27104H0.531086C0.424836 5.27104 0.367023 5.39761 0.437336 5.47729L5.62327 11.4539C5.67015 11.5079 5.72811 11.5513 5.79321 11.581C5.85831 11.6108 5.92905 11.6261 6.00062 11.6261C6.07219 11.6261 6.14292 11.6108 6.20802 11.581C6.27313 11.5513 6.33108 11.5079 6.37796 11.4539L11.5623 5.47729C11.6326 5.39604 11.5748 5.27104 11.4686 5.27104Z" fill="#E73848"/>
</svg>
