<svg width="18" height="18" viewBox="0 0 18 18" fill="none" xmlns="http://www.w3.org/2000/svg">
<path d="M1.5 14.9999H3M3 14.9999H7.5M3 14.9999V8.58905C3 8.18829 3 7.98781 3.04873 7.80133C3.09191 7.63607 3.16334 7.47968 3.25928 7.33836C3.36753 7.17889 3.51798 7.04665 3.81958 6.78275L7.42077 3.63171C7.97988 3.14248 8.25946 2.89786 8.57431 2.80474C8.85196 2.72264 9.14789 2.72264 9.42554 2.80474C9.74063 2.89793 10.0206 3.14278 10.5806 3.63275L14.1806 6.78275C14.4822 7.04664 14.6327 7.17889 14.7409 7.33836C14.8369 7.47968 14.9077 7.63607 14.9509 7.80133C14.9997 7.98781 15 8.18829 15 8.58905V14.9999M7.5 14.9999H10.5M7.5 14.9999V11.9999C7.5 11.1715 8.17157 10.4999 9 10.4999C9.82843 10.4999 10.5 11.1715 10.5 11.9999V14.9999M10.5 14.9999H15M15 14.9999H16.5" stroke="white" stroke-width="2" stroke-linecap="round" stroke-linejoin="round"/>
</svg>
