<svg width="94" height="94" viewBox="0 0 94 94" fill="none" xmlns="http://www.w3.org/2000/svg">
<circle cx="47.0001" cy="46.631" r="46.631" fill="#FFF1F0"/>
<g clip-path="url(#clip0_3522_31926)">
<path d="M55.5164 39.2342C55.5164 39.0181 55.3397 38.8413 55.1236 38.8413L51.8825 38.856L47.0013 44.6752L42.1249 38.861L38.8789 38.8462C38.6629 38.8462 38.4861 39.0181 38.4861 39.2391C38.4861 39.3324 38.5205 39.4208 38.5794 39.4944L44.9682 47.106L38.5794 54.7127C38.52 54.7847 38.4871 54.8748 38.4861 54.9681C38.4861 55.1842 38.6629 55.361 38.8789 55.361L42.1249 55.3462L47.0013 49.527L51.8776 55.3413L55.1187 55.356C55.3347 55.356 55.5115 55.1842 55.5115 54.9632C55.5115 54.8699 55.4772 54.7815 55.4182 54.7078L49.0392 47.1011L55.428 39.4895C55.487 39.4208 55.5164 39.3275 55.5164 39.2342Z" fill="#F5222D"/>
<path d="M47.002 25C34.8528 25 25.002 34.8509 25.002 47C25.002 59.1491 34.8528 69 47.002 69C59.1511 69 69.002 59.1491 69.002 47C69.002 34.8509 59.1511 25 47.002 25ZM47.002 65.2679C36.9153 65.2679 28.7341 57.0866 28.7341 47C28.7341 36.9134 36.9153 28.7321 47.002 28.7321C57.0886 28.7321 65.2698 36.9134 65.2698 47C65.2698 57.0866 57.0886 65.2679 47.002 65.2679Z" fill="#F5222D"/>
</g>
<defs>
<clipPath id="clip0_3522_31926">
<rect width="44" height="44" fill="white" transform="translate(25.002 25)"/>
</clipPath>
</defs>
</svg>
