<svg width="100" height="100" viewBox="0 0 100 100" fill="none" xmlns="http://www.w3.org/2000/svg">
<g clip-path="url(#clip0_234_26052)">
<path d="M109.395 84.791H-14.707V84.8531H109.395V84.791Z" fill="#EBEBEB"/>
<path d="M28.2866 86.3745H22.5332V86.4366H28.2866V86.3745Z" fill="#EBEBEB"/>
<path d="M99.1614 87.7051H85.0957V87.7671H99.1614V87.7051Z" fill="#EBEBEB"/>
<path d="M9.96218 87.7051H-4.10352V87.7671H9.96218V87.7051Z" fill="#EBEBEB"/>
<path d="M44.1177 73.7213H-3.8079C-4.58974 73.72 -5.22266 73.0859 -5.22266 72.304V4.93413C-5.21595 4.15725 -4.58477 3.53054 -3.8079 3.5293H44.1177C44.9003 3.5293 45.535 4.1637 45.535 4.94654V72.304C45.535 73.0866 44.9003 73.7213 44.1177 73.7213ZM-3.8079 3.57894C-4.55548 3.58043 -5.16061 4.18654 -5.16061 4.93413V72.304C-5.16061 73.0516 -4.55548 73.6577 -3.8079 73.6592H44.1177C44.8656 73.658 45.4714 73.0519 45.4729 72.304V4.93413C45.4714 4.18629 44.8656 3.58043 44.1177 3.57894H-3.8079Z" fill="#EBEBEB"/>
<path d="M97.8063 73.7213H49.8782C49.0961 73.72 48.4624 73.0861 48.4609 72.304V4.93413C48.4691 4.15676 49.1008 3.53054 49.8782 3.5293H97.8063C98.5822 3.53203 99.2119 4.15824 99.2186 4.93413V72.304C99.2186 73.0849 98.5871 73.7185 97.8063 73.7213ZM49.8782 3.57894C49.1303 3.58043 48.5245 4.18629 48.523 4.93413V72.304C48.5242 73.0519 49.1303 73.6577 49.8782 73.6592H97.8063C98.5541 73.658 99.16 73.0519 99.1615 72.304V4.93413C99.1602 4.18629 98.5541 3.58043 97.8063 3.57894H49.8782Z" fill="#EBEBEB"/>
<path d="M63.494 65.0903H57.7627V84.9253H63.494V65.0903Z" fill="#E6E6E6"/>
<path d="M59.4363 65.0903H53.7051V84.9253H59.4363V65.0903Z" fill="#E6E6E6"/>
<path d="M58.3493 84.9255H59.4372V81.8281H57.2061L58.3493 84.9255Z" fill="#F0F0F0"/>
<path d="M30.6278 65.0903H24.8965V84.9253H30.6278V65.0903Z" fill="#E6E6E6"/>
<path d="M59.4363 65.0903H29.6777V83.4008H59.4363V65.0903Z" fill="#F0F0F0"/>
<path d="M57.5841 79.2814H45.9287C45.3032 79.2801 44.7964 78.7733 44.7949 78.1476V67.001C44.7962 66.3755 45.303 65.8687 45.9287 65.8672H57.5819C58.2076 65.8684 58.7142 66.3753 58.7157 67.001V78.1476C58.7142 78.772 58.2088 79.2786 57.5841 79.2814ZM45.9287 66.1206C45.442 66.1206 45.0471 66.5145 45.0459 67.001V78.1476C45.0406 78.635 45.4316 79.0346 45.919 79.0401C45.9223 79.0401 45.9255 79.0401 45.9287 79.0401H57.5819C58.0693 79.0441 58.468 78.6522 58.4719 78.1647C58.4719 78.159 58.4719 78.1533 58.4719 78.1478V67.0012C58.4707 66.5145 58.0758 66.1209 57.5891 66.1209H45.9287V66.1206Z" fill="#E0E0E0"/>
<path d="M43.1834 79.2814H31.5303C30.9048 79.2801 30.398 78.7733 30.3965 78.1476V67.001C30.3977 66.3755 30.9046 65.8687 31.5303 65.8672H43.1834C43.8097 65.8672 44.3172 66.3748 44.3172 67.001V78.1476C44.3172 78.7738 43.8097 79.2814 43.1834 79.2814ZM31.5305 66.1206C31.0443 66.1206 30.6501 66.5147 30.6501 67.001V78.1476C30.6501 78.6338 31.0443 79.0279 31.5305 79.0279H43.1837C43.6704 79.0279 44.0653 78.634 44.0665 78.1476V67.001C44.0653 66.5143 43.6704 66.1206 43.1837 66.1206H31.5305Z" fill="#E0E0E0"/>
<path d="M42.1024 69.3913C41.4976 69.3926 41.0064 68.9034 41.0049 68.2987C41.0036 67.6939 41.4929 67.2024 42.0975 67.2012C42.7024 67.1999 43.1935 67.6891 43.195 68.2938C43.195 68.2955 43.195 68.297 43.195 68.2985C43.1938 68.9016 42.7053 69.3901 42.1024 69.3913Z" fill="#FAFAFA"/>
<path d="M47.0115 69.3913C46.4066 69.3953 45.9132 68.9083 45.9092 68.3035C45.9052 67.6986 46.3922 67.2052 46.9971 67.2012C47.602 67.1972 48.0954 67.6842 48.0994 68.2891C48.0994 68.2948 48.0994 68.3002 48.0994 68.3059C48.0954 68.9046 47.6101 69.3889 47.0115 69.3913Z" fill="#FAFAFA"/>
<path d="M30.7656 84.9255H29.6777V81.8281H31.9091L30.7656 84.9255Z" fill="#F0F0F0"/>
<path d="M28.8026 65.0903H23.0713V84.9253H28.8026V65.0903Z" fill="#E6E6E6"/>
<path d="M27.7145 84.9255H28.8024V81.8281H26.5713L27.7145 84.9255Z" fill="#F0F0F0"/>
<path d="M28.8026 65.0903H-0.956055V83.4008H28.8026V65.0903Z" fill="#F0F0F0"/>
<path d="M26.9496 79.2814H15.2942C14.6678 79.2814 14.1594 78.7743 14.1582 78.1476V67.001C14.1594 66.3745 14.6678 65.8672 15.2942 65.8672H26.9474C27.5729 65.8684 28.0797 66.3753 28.0812 67.001V78.1476C28.0794 78.772 27.5741 79.2786 26.9496 79.2814ZM15.294 66.1206C14.8073 66.1206 14.4124 66.5145 14.4111 67.001V78.1476C14.4059 78.635 14.7968 79.0346 15.2843 79.0401C15.2875 79.0401 15.2908 79.0401 15.294 79.0401H26.9471C27.4346 79.0441 27.8332 78.6522 27.8372 78.1647C27.8372 78.159 27.8372 78.1533 27.8372 78.1478V67.0012C27.836 66.5155 27.4426 66.1221 26.9568 66.1209H15.294V66.1206Z" fill="#E0E0E0"/>
<path d="M12.5496 79.2814H0.896489C0.270272 79.2814 -0.237305 78.7738 -0.237305 78.1476V67.001C-0.237305 66.3748 0.270272 65.8672 0.896489 65.8672H12.5496C13.1751 65.8684 13.682 66.3753 13.6834 67.001V78.1476C13.682 78.773 13.1751 79.2799 12.5496 79.2814ZM0.896489 66.1206C0.409762 66.1206 0.0148696 66.5145 0.0136286 67.001V78.1476C0.00841628 78.635 0.399337 79.0346 0.886809 79.0401C0.890036 79.0401 0.893263 79.0401 0.896489 79.0401H12.5496C13.0364 79.0401 13.4313 78.6462 13.4325 78.1597V67.0012C13.4313 66.5145 13.0364 66.1209 12.5496 66.1209H0.896489V66.1206Z" fill="#E0E0E0"/>
<path d="M11.4687 69.3913C10.8638 69.3926 10.3726 68.9034 10.3711 68.2987C10.3699 67.6939 10.8591 67.2024 11.4637 67.2012C12.0686 67.1999 12.5598 67.6891 12.5612 68.2938C12.5612 68.2955 12.5612 68.297 12.5612 68.2985C12.5612 68.9021 12.072 69.3913 11.4687 69.3913Z" fill="#FAFAFA"/>
<path d="M16.3777 69.3913C15.7728 69.3953 15.2794 68.9083 15.2754 68.3035C15.2714 67.6986 15.7584 67.2052 16.3633 67.2012C16.9682 67.1972 17.4616 67.6842 17.4656 68.2891C17.4656 68.2948 17.4656 68.3002 17.4656 68.3059C17.4616 68.9046 16.9764 69.3889 16.3777 69.3913Z" fill="#FAFAFA"/>
<path d="M0.131821 84.9255H-0.956055V81.8281H1.27256L0.131821 84.9255Z" fill="#F0F0F0"/>
<path d="M51.6335 10.1118H40.9697V20.7756H51.6335V10.1118Z" fill="#EBEBEB"/>
<path d="M52.1073 10.1138H51.6348V20.7778H52.1073V10.1138Z" fill="#E0E0E0"/>
<path d="M50.19 11.5576H42.416V19.3316H50.19V11.5576Z" fill="white"/>
<path d="M47.6037 16.7448C46.8852 17.4634 45.7204 17.4634 45.0018 16.7448C44.2833 16.0263 44.2833 14.8615 45.0018 14.1429C45.7204 13.4244 46.8852 13.4244 47.6037 14.1429C48.322 14.8615 48.322 16.0265 47.6037 16.7448Z" fill="#F5F5F5"/>
<path d="M41.1881 23.8223H28.6855V36.3248H41.1881V23.8223Z" fill="#EBEBEB"/>
<path d="M41.7415 23.8242H41.1875V36.3267H41.7415V23.8242Z" fill="#E0E0E0"/>
<path d="M39.4951 25.5176H30.3809V34.6319H39.4951V25.5176Z" fill="white"/>
<path d="M36.88 28.1299H32.9932V32.0168H36.88V28.1299Z" fill="#F5F5F5"/>
<path d="M97.1076 19.8022H90.3389V21.384H97.1076V19.8022Z" fill="#E6E6E6"/>
<path d="M90.339 19.8022H62.3223V21.384H90.339V19.8022Z" fill="#F5F5F5"/>
<path d="M78.2436 11.4067H70.3564V19.8027H78.2436V11.4067Z" fill="#E0E0E0"/>
<path d="M70.3553 11.4067H68.335V19.8027H70.3553V11.4067Z" fill="#F0F0F0"/>
<path d="M80.3104 10.1118H74.3857V19.8024H80.3104V10.1118Z" fill="#E6E6E6"/>
<path d="M74.3886 10.1118H72.6758V19.8024H74.3886V10.1118Z" fill="#F0F0F0"/>
<path d="M81.1269 11.4067H76.1318V19.8027H81.1269V11.4067Z" fill="#F0F0F0"/>
<path d="M76.1315 11.4067H74.9902V19.8027H76.1315V11.4067Z" fill="#FAFAFA"/>
<path d="M86.7718 12.8276H80.2197V19.8029H86.7718V12.8276Z" fill="#E6E6E6"/>
<path d="M80.2196 12.8276H78.542V19.8029H80.2196V12.8276Z" fill="#FAFAFA"/>
<path d="M88.4905 11.7515H83.5684V19.8022H88.4905V11.7515Z" fill="#E6E6E6"/>
<path d="M83.5707 11.7515H82.1475V19.8022H83.5707V11.7515Z" fill="#F0F0F0"/>
<path d="M89.7997 12.8276H85.0186V19.8029H89.7997V12.8276Z" fill="#F0F0F0"/>
<path d="M85.0165 12.8276H84.0693V19.8029H85.0165V12.8276Z" fill="#FAFAFA"/>
<path d="M86.3349 66.6781C88.4551 63.9067 93.5013 62.8767 95.2455 61.1303C97.5297 58.8386 97.5178 55.4015 95.5736 54.1615C93.885 53.0833 88.2866 60.3728 87.6569 61.1856C85.4861 63.9861 84.8589 66.0653 84.4511 68.0773C84.497 66.3671 84.5427 64.7943 84.5789 63.5835C84.697 59.6277 84.8442 58.3564 84.9117 57.9657C85.153 57.7729 85.423 57.5507 85.5824 57.4326C86.9381 56.4219 89.9411 55.2183 91.444 53.7517C93.6366 51.6072 93.2819 49.0408 91.7431 48.0857C90.1364 47.0872 87.2928 49.4486 85.7827 51.7884C84.2726 54.1282 84.9192 56.3715 84.497 58.3013C84.4076 58.6825 84.3161 60.1298 84.2317 62.139C83.8748 60.1603 82.7809 58.3906 81.1706 57.1868C79.0914 55.5274 77.2966 53.5085 75.584 53.7688C73.8714 54.0294 74.8024 56.7019 76.1484 58.5785C77.3544 60.2502 83.3101 61.9169 84.1858 63.2604C84.082 65.9812 83.9904 69.4282 83.9251 72.6388C83.4548 70.9817 83.778 70.8418 81.8556 68.2969C80.7121 66.7869 76.0231 64.9199 75.4659 65.9621C74.9086 67.004 75.7553 68.9604 77.5257 70.3329C78.9536 71.4402 82.1088 71.4377 82.8541 72.1252C83.0254 72.2843 83.5898 72.8996 83.913 73.254C83.8358 77.1714 83.802 80.6304 83.8405 81.8099L84.1468 81.822C84.1324 81.5182 84.1684 79.5257 84.2287 76.8868C84.9981 75.4829 90.1769 74.6629 91.7763 73.2034C93.4504 71.6765 94.6515 69.8939 93.9352 68.7C93.337 67.7037 88.6286 69.0569 86.6988 70.707C85.4228 71.8045 84.6437 72.9768 84.2868 74.5519C84.3302 72.7549 84.3808 70.8251 84.429 69.0041C84.8127 68.5548 85.6981 67.5081 86.3349 66.6781Z" fill="#E6E6E6"/>
<path d="M86.7858 84.8729H81.4092C81.1148 84.8729 80.8617 84.4919 80.8038 83.9588L80.4229 80.4805H87.7727L87.3914 83.9588C87.3308 84.4919 87.0802 84.8729 86.7858 84.8729Z" fill="#F0F0F0"/>
<path d="M87.9266 81.829H80.268C80.0846 81.829 79.9302 81.5759 79.9111 81.2381L79.7543 78.6667C79.7302 78.271 79.8965 77.9263 80.1112 77.9263H88.0832C88.2979 77.9263 88.4642 78.2713 88.4402 78.6667L88.2833 81.2381C88.2642 81.5756 88.1098 81.829 87.9266 81.829Z" fill="#F0F0F0"/>
<path d="M47.3439 96.0002C73.9222 96.0002 95.4681 94.7423 95.4681 93.1905C95.4681 91.6388 73.9222 90.3809 47.3439 90.3809C20.7657 90.3809 -0.780273 91.6388 -0.780273 93.1905C-0.780273 94.7423 20.7657 96.0002 47.3439 96.0002Z" fill="#F5F5F5"/>
<path d="M38.531 28.5192C37.9815 29.8513 34.7533 29.7619 31.3688 28.3658C27.9843 26.9696 25.686 24.7579 26.2355 23.426C26.3628 23.1173 26.718 21.9643 27.0987 21.8038C28.3601 21.2719 30.7587 22.4697 33.3587 23.5422C35.7787 24.5405 38.5444 25.1821 38.974 26.4968C39.2341 27.294 38.6876 28.1397 38.531 28.5192Z" fill="#3A6AB5"/>
<path opacity="0.2" d="M38.9743 26.4965C39.1799 27.5417 38.7271 28.0421 38.5303 28.5189C38.328 29.0106 37.7619 29.3077 36.9597 29.4181C36.8631 29.434 36.7616 29.4437 36.6574 29.4516C36.1195 29.4916 35.4958 29.4603 34.8167 29.3556C34.7296 29.3449 34.6434 29.3285 34.5548 29.3131C33.8906 29.1984 33.1808 29.015 32.4483 28.7713C32.3691 28.745 32.2892 28.7162 32.2096 28.6874C31.9323 28.5899 31.6496 28.4839 31.3684 28.3667C31.0882 28.252 30.8156 28.1294 30.5496 28.0021C30.4729 27.9671 30.3977 27.9289 30.3235 27.8931C29.6568 27.5625 29.0514 27.2041 28.5183 26.8351C28.448 26.7876 28.3823 26.7385 28.315 26.6926C27.7603 26.2888 27.2926 25.8723 26.9402 25.4652C26.8786 25.3965 26.8225 25.3287 26.7687 25.2602C26.2343 24.5834 26.0241 23.9393 26.2353 23.4265C26.3723 23.0946 26.6719 21.9653 27.0968 21.803C27.5225 21.6431 28.0703 21.6652 28.7044 21.8002C28.7861 21.8181 28.8705 21.8375 28.9561 21.8591C30.2085 22.176 31.7606 22.8834 33.357 23.5421C35.2399 24.319 37.4665 25.1247 38.5564 26.0559C38.6244 26.112 38.6852 26.1706 38.7438 26.2297C38.8326 26.3183 38.9081 26.4059 38.9743 26.4965Z" fill="white"/>
<g opacity="0.2">
<path d="M29.0719 21.6519L28.9567 21.8591L26.941 25.4653C26.8795 25.3965 26.8234 25.3287 26.7695 25.2602L28.705 21.8005L28.8549 21.5322L29.0719 21.6519Z" fill="white"/>
</g>
<g opacity="0.2">
<path d="M30.5954 23.1204L28.5187 26.8353C28.4485 26.7879 28.3827 26.7387 28.3154 26.6928L30.3805 22.9976L30.5954 23.1204Z" fill="white"/>
</g>
<g opacity="0.2">
<path d="M34.4143 25.2542L32.4478 28.771C32.3686 28.7447 32.2887 28.7159 32.209 28.6871L34.1968 25.1318L34.4143 25.2542Z" fill="white"/>
</g>
<g opacity="0.2">
<path d="M32.639 24.2623L30.5494 28.0022C30.4727 27.9672 30.3975 27.929 30.3232 27.8932L32.4216 24.1401L32.639 24.2623Z" fill="white"/>
</g>
<g opacity="0.2">
<path d="M36.7307 25.9341L34.8165 29.3556C34.7294 29.3449 34.6433 29.3286 34.5547 29.3132L36.5133 25.812L36.7307 25.9341Z" fill="white"/>
</g>
<path d="M38.96 27.3476C38.4105 28.6797 35.2213 28.6276 31.8368 27.2314C28.4523 25.8353 26.1539 23.6238 26.7032 22.2917C27.2527 20.9596 30.4419 21.0117 33.8264 22.4078C37.2109 23.8042 39.5093 26.0157 38.96 27.3476Z" fill="#3A6AB5"/>
<path opacity="0.2" d="M37.8087 26.8729C37.4205 27.8141 34.9345 27.6813 32.2559 26.5763C29.5773 25.4713 27.7207 23.8128 28.1089 22.8716C28.4971 21.9304 30.9831 22.0632 33.6617 23.1682C36.3404 24.2732 38.1969 25.9317 37.8087 26.8729Z" fill="white"/>
<path d="M55.6364 16.4714C56.5188 17.6106 54.8355 20.3667 51.9409 22.6084C49.0464 24.8502 45.9845 25.744 45.1022 24.605C44.8977 24.3409 44.0741 23.4593 44.1243 23.0492C44.2903 21.6903 46.5224 20.2053 48.7461 18.4833C50.8158 16.8804 52.7481 14.8002 54.1023 15.0814C54.9234 15.2519 55.385 16.1467 55.6364 16.4714Z" fill="#3A6AB5"/>
<path opacity="0.2" d="M54.1031 15.0801C55.1121 15.4216 55.3208 16.0635 55.6365 16.4713C55.9624 16.8915 55.9386 17.5303 55.6356 18.2812C55.6013 18.373 55.5591 18.4656 55.5142 18.5601C55.2811 19.0466 54.9438 19.5723 54.5152 20.1094C54.4625 20.1797 54.4055 20.2464 54.3481 20.3154C53.9182 20.8344 53.4062 21.3594 52.8301 21.8734C52.7678 21.929 52.7033 21.9839 52.6385 22.039C52.4161 22.2311 52.1833 22.4234 51.942 22.6091C51.703 22.7952 51.4613 22.9705 51.2185 23.138C51.15 23.1872 51.0795 23.2333 51.0115 23.28C50.393 23.694 49.7809 24.0407 49.1957 24.3197C49.1195 24.3572 49.0443 24.3897 48.971 24.4252C48.3448 24.7057 47.7509 24.9042 47.2224 25.0072C47.1323 25.0266 47.0455 25.0415 46.9593 25.0539C46.1065 25.1807 45.4431 25.043 45.1033 24.6046C44.8834 24.3207 44.0529 23.4989 44.1234 23.0496C44.1963 22.6009 44.488 22.1368 44.9206 21.6537C44.9764 21.5919 45.0355 21.5279 45.0968 21.4646C45.9946 20.5358 47.3803 19.541 48.7459 18.4839C50.3563 17.2367 52.1627 15.706 53.5129 15.2235C53.5953 15.1925 53.6765 15.1687 53.7569 15.1476C53.878 15.1146 53.9917 15.0925 54.1031 15.0801Z" fill="white"/>
<g opacity="0.2">
<path d="M44.9734 21.2617L45.096 21.4647L47.2217 25.0071C47.1316 25.0265 47.0447 25.0414 46.9586 25.0538L44.9198 21.6539L44.7617 21.3903L44.9734 21.2617Z" fill="white"/>
</g>
<g opacity="0.2">
<path d="M47.0057 20.6704L49.1953 24.3197C49.1191 24.3572 49.0439 24.3897 48.9707 24.4252L46.792 20.7958L47.0057 20.6704Z" fill="white"/>
</g>
<g opacity="0.2">
<path d="M50.7572 18.418L52.8299 21.8732C52.7676 21.9288 52.7031 21.9837 52.6383 22.0388L50.543 18.5458L50.7572 18.418Z" fill="white"/>
</g>
<g opacity="0.2">
<path d="M49.012 19.4653L51.2171 23.1382C51.1486 23.1874 51.0781 23.2336 51.0101 23.2802L48.7979 19.5932L49.012 19.4653Z" fill="white"/>
</g>
<g opacity="0.2">
<path d="M52.4984 16.7471L54.5145 20.1095C54.4619 20.1797 54.4048 20.2465 54.3475 20.3155L52.2842 16.8749L52.4984 16.7471Z" fill="white"/>
</g>
<path d="M51.1879 21.6378C54.0825 19.396 55.7138 16.6553 54.8316 15.5161C53.9493 14.377 50.8876 15.2709 47.9931 17.5127C45.0985 19.7545 43.4671 22.4952 44.3494 23.6343C45.2316 24.7735 48.2933 23.8796 51.1879 21.6378Z" fill="#3A6AB5"/>
<path opacity="0.2" d="M53.8499 16.2789C54.4732 17.0839 53.1214 19.1745 50.8308 20.9486C48.5401 22.7228 46.1777 23.5084 45.5542 22.7034C44.931 21.8985 46.2824 19.8079 48.5734 18.0337C50.8643 16.2596 53.2264 15.474 53.8499 16.2789Z" fill="white"/>
<path d="M43.6543 11.1341C43.3637 12.7675 39.7099 13.4605 35.5589 12.7219C31.4082 11.983 28.2788 10.0599 28.5695 8.42621C28.637 8.04745 28.7532 6.66297 29.1419 6.38896C30.43 5.48053 33.4231 6.23879 36.6115 6.80619C39.5793 7.33436 42.8486 7.37656 43.6548 8.75012C44.1443 9.58284 43.7372 10.6685 43.6543 11.1341Z" fill="#3A6AB5"/>
<path opacity="0.2" d="M43.6571 8.74927C44.1451 9.87463 43.7589 10.5487 43.6546 11.1335C43.5479 11.7364 42.984 12.2097 42.1088 12.5312C42.0041 12.5728 41.8924 12.6086 41.777 12.6431C41.1815 12.8201 40.4722 12.9382 39.6824 12.9873C39.5819 12.9968 39.4809 12.9995 39.3774 13.004C38.602 13.0382 37.7583 13.0065 36.8742 12.9121C36.7787 12.902 36.6819 12.8893 36.5848 12.8764C36.249 12.835 35.9047 12.7851 35.56 12.7223C35.2165 12.662 34.8799 12.5912 34.5493 12.5135C34.4545 12.4929 34.3604 12.4686 34.2681 12.4465C33.4368 12.2385 32.6677 11.9839 31.9772 11.6997C31.8863 11.6634 31.8004 11.6245 31.7136 11.5892C30.9901 11.2715 30.3619 10.9178 29.8654 10.5463C29.7793 10.4842 29.6994 10.4217 29.6222 10.3576C28.8548 9.72769 28.4599 9.05481 28.5713 8.42586C28.6438 8.01881 28.7036 6.67479 29.1417 6.38786C29.5813 6.10342 30.2028 5.99372 30.9494 5.98975C31.0454 5.98975 31.1454 5.99074 31.2469 5.99397C32.7337 6.04286 34.6538 6.45687 36.6116 6.80584C38.9209 7.21687 41.6238 7.57601 43.0788 8.35587C43.1692 8.40228 43.2518 8.45317 43.3322 8.50554C43.4538 8.58372 43.5603 8.66364 43.6571 8.74927Z" fill="white"/>
<g opacity="0.2">
<path d="M31.3243 5.73352L31.2458 5.99487L29.8643 10.5472C29.7782 10.4851 29.6983 10.4226 29.6211 10.3585L30.9482 5.99065L31.051 5.65186L31.3243 5.73352Z" fill="white"/>
</g>
<g opacity="0.2">
<path d="M33.3999 7.01092L31.9765 11.7005C31.8856 11.6642 31.7998 11.6253 31.7129 11.59L33.1279 6.92529L33.3999 7.01092Z" fill="white"/>
</g>
<g opacity="0.2">
<path d="M38.2214 8.47281L36.8734 12.9127C36.7778 12.9025 36.681 12.8898 36.584 12.8769L37.9466 8.38867L38.2214 8.47281Z" fill="white"/>
</g>
<g opacity="0.2">
<path d="M35.9804 7.79313L34.5488 12.514C34.454 12.4934 34.3599 12.469 34.2676 12.4469L35.7057 7.70898L35.9804 7.79313Z" fill="white"/>
</g>
<g opacity="0.2">
<path d="M40.9945 8.66813L39.682 12.9876C39.5815 12.997 39.4805 12.9998 39.377 13.0042L40.72 8.58398L40.9945 8.66813Z" fill="white"/>
</g>
<path d="M43.8467 9.7114C44.1374 8.07792 41.0082 6.1549 36.8574 5.41624C32.7066 4.67757 29.1061 5.40296 28.8154 7.03645C28.5247 8.66994 31.6539 10.5929 35.8047 11.3316C39.9555 12.0703 43.5561 11.3449 43.8467 9.7114Z" fill="#3A6AB5"/>
<path opacity="0.2" d="M42.4377 9.45958C42.2322 10.6137 39.4029 11.0754 36.118 10.4906C32.833 9.90585 30.3368 8.4963 30.5421 7.34215C30.7473 6.18801 33.5769 5.72635 36.8618 6.31087C40.1468 6.89588 42.6432 8.30543 42.4377 9.45958Z" fill="white"/>
<path d="M65.3243 52.8296L39.7822 54.3156C38.8768 54.3682 37.9879 54.5851 37.1604 54.9557L9.41573 67.3753C8.40852 67.8261 7.85155 68.9065 8.07717 69.9718L12.6674 91.6501C12.9824 93.1376 14.6407 93.9207 16.0189 93.2324L43.4032 79.5619L68.6887 78.7071C70.0171 78.6621 71.0084 77.4745 70.7977 76.1806L67.4132 55.4211C67.2385 54.3489 66.4251 52.7971 65.3243 52.8296Z" fill="#D40054"/>
<path opacity="0.1" d="M65.3243 52.8296L39.7822 54.3156C38.8768 54.3682 37.9879 54.5851 37.1604 54.9557L9.41573 67.3753C8.40852 67.8261 7.85155 68.9065 8.07717 69.9718L12.6674 91.6501C12.9824 93.1376 14.6407 93.9207 16.0189 93.2324L43.4032 79.5619L68.6887 78.7071C70.0171 78.6621 71.0084 77.4745 70.7977 76.1806L67.4132 55.4211C67.2385 54.3489 66.4251 52.7971 65.3243 52.8296Z" fill="black"/>
<path d="M14.0514 38.7179L0.646484 51.0728L24.698 77.1685L38.1029 64.8136L14.0514 38.7179Z" fill="#D40054"/>
<path opacity="0.5" d="M38.107 64.8117L24.7023 77.1665L0.650391 51.0724L9.44697 42.9636L14.0551 38.7153L14.8236 39.5483L38.107 64.8117Z" fill="#FAFAFA"/>
<path d="M14.1384 40.3136L2.30957 51.2158L24.808 75.6265L36.6368 64.7243L14.1384 40.3136Z" stroke="#D40054" stroke-miterlimit="10"/>
<path d="M22.1414 60.8533C23.4977 59.6031 23.3262 57.2107 21.7583 55.5098C20.1904 53.8089 17.8199 53.4436 16.4636 54.6938C15.1073 55.944 15.2788 58.3364 16.8467 60.0373C18.4146 61.7382 20.7851 62.1035 22.1414 60.8533Z" fill="#D40054"/>
<path opacity="0.1" d="M24.5577 66.5769L19.7947 68.2223L9.44531 42.9636L14.0535 38.7153L14.8219 39.5483L24.5577 66.5769Z" fill="black"/>
<path d="M25.4823 28.4921L8.34375 34.7051L20.4387 68.0691L37.5772 61.8561L25.4823 28.4921Z" fill="#D40054"/>
<path opacity="0.5" d="M25.4823 28.4921L8.34375 34.7051L20.4387 68.0691L37.5772 61.8561L25.4823 28.4921Z" fill="#FAFAFA"/>
<path d="M24.9457 29.9975L9.82227 35.48L21.1362 66.6896L36.2597 61.2072L24.9457 29.9975Z" stroke="#D40054" stroke-miterlimit="10"/>
<path d="M24.3794 52.0338C26.1134 51.4051 26.8801 49.1326 26.0917 46.958C25.3034 44.7833 23.2586 43.53 21.5245 44.1587C19.7905 44.7873 19.0238 47.0598 19.8122 49.2344C20.6005 51.4091 22.6453 52.6624 24.3794 52.0338Z" fill="#D40054"/>
<path d="M65.4909 53.7109L40.2983 55.1301C39.4052 55.1805 38.5288 55.3949 37.7137 55.763L10.3768 68.1047C9.38452 68.5527 8.83773 69.6311 9.06309 70.6964L13.6474 92.376C13.9621 93.8638 15.5998 94.6506 16.9577 93.9663L43.9357 80.3732L68.8769 79.5844C70.1872 79.5429 71.1621 78.3582 70.9507 77.0646L67.5582 56.3066C67.3832 55.2343 66.5768 53.6811 65.4909 53.7109Z" fill="#D40054"/>
<path opacity="0.2" d="M41.3223 58.9293L62.9373 57.5972" stroke="black" stroke-width="2" stroke-miterlimit="10" stroke-linecap="round" stroke-linejoin="round"/>
<path opacity="0.2" d="M38.7334 59.4878L42.6833 77.6265" stroke="black" stroke-width="2" stroke-miterlimit="10" stroke-linecap="round" stroke-linejoin="round"/>
<path opacity="0.2" d="M12.4043 75.8633L15.1889 89.8163C15.1889 89.8163 17.3237 84.2796 12.4043 75.8633Z" fill="#FAFAFA"/>
<path opacity="0.2" d="M12.7705 76.0272C12.8661 76.2816 37.505 65.7026 37.505 65.7026C37.505 65.7026 38.1285 73.3073 30.7136 77.4665C23.2988 81.6254 12.7705 76.0272 12.7705 76.0272Z" fill="#FAFAFA"/>
<path d="M29.1376 76.4383C29.727 76.4383 30.2049 75.9604 30.2049 75.371C30.2049 74.7815 29.727 74.3037 29.1376 74.3037C28.5481 74.3037 28.0703 74.7815 28.0703 75.371C28.0703 75.9604 28.5481 76.4383 29.1376 76.4383Z" fill="#D40054"/>
<path opacity="0.2" d="M37.5176 65.7026C37.5176 65.7026 40.5735 70.3001 39.8343 78.1352L37.5176 65.7026Z" fill="black"/>
<g opacity="0.2">
<path d="M11.2256 70.3833L11.7932 70.1323" stroke="#FAFAFA" stroke-linecap="round" stroke-linejoin="round"/>
<path d="M12.9727 69.6108L35.9811 59.4409" stroke="#FAFAFA" stroke-linecap="round" stroke-linejoin="round" stroke-dasharray="5.2 5.2"/>
<path d="M36.5713 59.1799L37.1387 58.9292" stroke="#FAFAFA" stroke-linecap="round" stroke-linejoin="round"/>
</g>
<path opacity="0.2" d="M42.0479 63.0064L63.6629 61.6743" stroke="black" stroke-width="2" stroke-miterlimit="10" stroke-linecap="round" stroke-linejoin="round"/>
<path opacity="0.2" d="M43.0205 68.0911L64.6356 66.7593" stroke="black" stroke-width="2" stroke-miterlimit="10" stroke-linecap="round" stroke-linejoin="round"/>
<path d="M59.8983 31.9624C59.8983 31.9624 59.354 37.754 57.203 38.2529C55.0519 38.7518 53.2338 37.8565 53.2338 37.8565L51.4847 36.5107L50.6309 39.4862C50.6309 39.4862 51.5644 40.755 53.5118 39.8754C53.5118 39.8754 56.9844 41.4061 58.907 39.8754C60.8295 38.3447 61.4446 34.1528 61.4446 34.1528L59.8983 31.9624Z" fill="#B97964"/>
<path d="M61.6275 29.1576C61.6275 29.1576 60.1264 26.5989 60.8087 21.9589C61.491 17.319 65.3804 16.7392 66.8815 17.0802C68.3826 17.4213 69.6107 18.8589 70.6343 21.603C71.6579 24.3469 72.0332 25.0635 73.7389 24.5859C75.4448 24.1084 79.9822 22.6072 81.2445 23.9376C82.5069 25.2682 82.0974 26.7694 82.0974 26.7694C82.0974 26.7694 88.4089 25.2342 87.8629 30.8632C87.3171 36.4925 78.208 41.7465 69.5425 36.1855C60.8769 30.6245 61.6275 29.1576 61.6275 29.1576Z" fill="#263238"/>
<path d="M61.5571 42.7817C61.5571 42.7817 59.8418 57.5332 59.8989 64.4516C59.9559 71.3701 62.4146 87.6654 62.4146 87.6654H65.445C65.445 87.6654 65.0446 74.6292 65.1019 70.1693C65.1593 65.7093 65.9595 58.3337 65.9595 58.3337C65.9595 58.3337 66.9314 64.9662 68.0749 67.3105C69.2184 69.6547 75.565 77.9452 79.9676 80.5184L82.026 78.6315C82.026 78.6315 77.4518 72.971 75.7365 70.1693C74.0211 67.3675 72.4773 66.5671 71.8484 61.364C71.2194 56.1609 72.3058 47.8131 70.476 42.7817H61.5571Z" fill="#263238"/>
<path opacity="0.2" d="M65.9596 58.3337L64.6417 48.9839C64.6417 48.9839 63.602 54.6054 65.6511 61.4683L65.9596 58.3337Z" fill="black"/>
<path d="M63.0361 88.4967L63.1376 91.3935L65.1704 91.5628L65.2722 91.2918V88.2935L63.0361 88.4967Z" fill="#B97964"/>
<path d="M62.0703 87.3958L62.2565 88.4799L65.7462 88.5646L65.9664 87.2603L62.0703 87.3958Z" fill="#D40054"/>
<path d="M79.0107 80.7215L82.2461 77.7061L82.9577 78.8411L80.1795 81.3819L79.0107 80.7215Z" fill="#D40054"/>
<path d="M80.5693 80.7214L82.7036 82.517L84.0757 80.9076L82.3224 79.0952L80.5693 80.7214Z" fill="#B97964"/>
<path d="M84.4899 80.7819L85.7808 81.5772C86.0318 81.7318 86.0831 82.0748 85.8873 82.2952C84.9503 83.3511 82.5606 86.0364 82.3229 86.2268C82.0265 86.464 81.6706 86.0575 81.5859 85.6847C81.5859 85.6847 82.2635 84.7869 82.3229 84.2108C82.3665 83.7872 82.3459 83.1709 82.332 82.8748C82.3268 82.7628 82.3646 82.6544 82.4373 82.5692L83.8803 80.878C84.032 80.7 84.2909 80.6593 84.4899 80.7819Z" fill="#263238"/>
<path d="M65.6669 91.6374L65.9355 93.1296C65.9876 93.4197 65.7662 93.6868 65.4713 93.6881C64.0595 93.6943 60.4651 93.7047 60.1647 93.6543C59.7902 93.5915 59.856 93.0554 60.0771 92.7436C60.0771 92.7436 61.198 92.6498 61.6666 92.3098C62.0114 92.0596 62.4569 91.6334 62.6684 91.4254C62.7483 91.347 62.8543 91.3028 62.9662 91.3001L65.1886 91.2472C65.4227 91.2415 65.6255 91.4071 65.6669 91.6374Z" fill="#263238"/>
<path d="M70.8014 34.602L73.899 32.427C73.899 32.427 73.0752 29.1316 71.8558 28.967C70.6366 28.8022 64.5733 27.6488 60.7177 28.967C60.7177 28.967 59.3337 29.3624 58.9053 33.251L60.5528 33.7782C60.5528 33.7782 61.1461 41.0607 61.5084 42.1811H70.3068C70.3073 42.1811 70.406 35.9202 70.8014 34.602Z" fill="#D40054"/>
<path d="M71.4707 34.1325C71.4707 34.1325 72.6432 37.4838 72.8532 39.2845C72.8532 39.2845 70.0621 38.174 69.3421 37.664L68.798 35.7031L66.9412 34.8128L66.4023 36.2834L67.9315 38.204C67.9315 38.204 72.1321 42.1353 74.2632 41.2351C76.3943 40.3349 73.4203 32.7637 73.4203 32.7637L71.4707 34.1325Z" fill="#B97964"/>
<path d="M63.5893 19.4601C63.5893 19.4601 62.5163 21.6058 62.6059 23.3492C62.6953 25.0925 63.5669 25.8079 65.2433 26.0538C65.2433 26.0538 65.9586 28.2889 64.081 28.5125C63.9383 28.5294 63.8866 29.0991 63.899 29.1904C63.9477 29.5535 64.3071 29.7511 64.632 29.8357C64.98 29.9266 65.3503 29.9429 65.7082 29.9546C66.5119 29.9807 67.1738 29.6563 67.71 29.0638C67.7512 29.0184 68.1269 28.5351 68.1269 28.5351C68.1269 28.5351 67.2324 28.0913 67.5459 25.1824C67.5459 25.1824 68.1493 24.8471 68.4846 24.0201C68.4846 24.0201 69.0657 23.7294 69.1999 23.1484C69.334 22.5673 68.8199 21.7626 67.8812 22.5673C67.8812 22.5673 66.1155 21.6733 65.4449 18.5439C65.4449 18.5439 64.7516 19.326 63.5893 19.4601Z" fill="#B97964"/>
<path d="M64.0936 22.875L64.2465 21.7275L63.4336 22.6265C63.4336 22.6265 63.692 22.9226 64.0936 22.875Z" fill="#A24E3F"/>
<path d="M64.5654 23.7141C64.5654 23.7141 65.4225 23.8452 65.8335 23.2954" stroke="#222221" stroke-width="0.75" stroke-miterlimit="10" stroke-linecap="round" stroke-linejoin="round"/>
<path d="M65.4229 20.121C65.4229 20.121 65.9679 19.9105 66.5321 20.4173" stroke="#222221" stroke-miterlimit="10" stroke-linecap="round" stroke-linejoin="round"/>
<path d="M63.9407 19.8719C63.9407 19.8719 63.453 19.7949 63.2236 20.0771" stroke="#222221" stroke-miterlimit="10" stroke-linecap="round" stroke-linejoin="round"/>
<path d="M65.7672 21.6303C65.7446 21.8033 65.6332 21.9311 65.5182 21.9162C65.4031 21.9013 65.3281 21.7489 65.3507 21.5762C65.373 21.4032 65.4847 21.2754 65.5996 21.2902C65.7146 21.3054 65.7895 21.4575 65.7672 21.6303Z" fill="#222221"/>
<path d="M63.7906 21.2504C63.7683 21.4234 63.6566 21.5512 63.5417 21.5363C63.4265 21.5214 63.3515 21.369 63.3741 21.1963C63.3965 21.0233 63.5082 20.8955 63.6231 20.9104C63.738 20.9253 63.8132 21.0774 63.7906 21.2504Z" fill="#222221"/>
<path d="M65.5997 21.2899L65.208 21.1191C65.208 21.1191 65.2887 21.4726 65.5997 21.2899Z" fill="#222221"/>
<path d="M63.6553 20.9227L63.2637 20.752C63.2637 20.752 63.3443 21.1054 63.6553 20.9227Z" fill="#222221"/>
<path d="M61.2031 41.7939V42.8287L70.7322 42.9093L70.4782 41.6768L61.2031 41.7939Z" fill="#D40054"/>
<path opacity="0.4" d="M61.2031 41.7939V42.8287L70.7322 42.9093L70.4782 41.6768L61.2031 41.7939Z" fill="white"/>
<path d="M61.3189 36.7703L56.0786 55.0051C55.7085 56.294 54.5956 57.1667 53.3429 57.2915C52.9534 57.3295 52.5489 57.2972 52.1468 57.1823L42.1176 54.3002C40.4316 53.8142 39.4566 52.0539 39.9404 50.3684L45.1827 32.1306C45.4644 31.1552 46.1708 30.4168 47.0472 30.0634C47.6813 29.806 48.4044 29.7514 49.1152 29.9556L59.1436 32.8353C60.8297 33.3215 61.8044 35.0818 61.3189 36.7703Z" fill="#D40054"/>
<path opacity="0.2" d="M61.3189 36.7703L56.0786 55.0051C55.7085 56.294 54.5956 57.1667 53.3429 57.2915C52.9534 57.3295 52.5489 57.2972 52.1468 57.1823L42.1176 54.3002C40.4316 53.8142 39.4566 52.0539 39.9404 50.3684L45.1827 32.1306C45.4644 31.1552 46.1708 30.4168 47.0472 30.0634C47.6813 29.806 48.4044 29.7514 49.1152 29.9556L59.1436 32.8353C60.8297 33.3215 61.8044 35.0818 61.3189 36.7703Z" fill="black"/>
<path d="M60.447 36.9871L55.2066 55.2219C54.9254 56.1998 54.2165 56.9387 53.3429 57.2917C52.9534 57.3297 52.5489 57.2974 52.1468 57.1825L42.1176 54.3003C40.4316 53.8143 39.4566 52.0541 39.9404 50.3685L45.1827 32.1308C45.4644 31.1553 46.1708 30.4169 47.0472 30.0635C47.4366 30.0255 47.8412 30.0578 48.2433 30.1727L58.2717 33.0524C59.9577 33.5383 60.9324 35.2986 60.447 36.9871Z" fill="#D40054"/>
<path opacity="0.5" d="M60.447 36.9871L55.2066 55.2219C54.9254 56.1998 54.2165 56.9387 53.3429 57.2917C52.9534 57.3297 52.5489 57.2974 52.1468 57.1825L42.1176 54.3003C40.4316 53.8143 39.4566 52.0541 39.9404 50.3685L45.1827 32.1308C45.4644 31.1553 46.1708 30.4169 47.0472 30.0635C47.4366 30.0255 47.8412 30.0578 48.2433 30.1727L58.2717 33.0524C59.9577 33.5383 60.9324 35.2986 60.447 36.9871Z" fill="#FAFAFA"/>
<path d="M56.3816 34.0231L57.0379 35.1675L56.6414 35.3969L56.2131 34.6519L55.4708 35.0833L55.2421 34.6863L56.3816 34.0231Z" fill="white"/>
<path d="M55.8669 38.2884L56.0956 38.6854L54.9549 39.3483L54.2998 38.2042L54.6966 37.9736L55.1234 38.7195L55.8669 38.2884Z" fill="white"/>
<path d="M54.5583 35.0826L55.4418 36.6249L53.9055 37.5189L53.0207 35.9762L54.5583 35.0826Z" fill="white"/>
<path d="M57.4323 35.8526L58.3158 37.395L56.7795 38.2889L55.8948 36.7462L57.4323 35.8526Z" fill="white"/>
<path d="M46.3573 38.5328L45.2842 38.2305L41.4247 51.9278L42.4979 52.2302L46.3573 38.5328Z" fill="#FAFAFA"/>
<path d="M44.0337 52.6696L42.9619 52.3616L46.8205 38.667L47.8922 38.975L44.0337 52.6696Z" fill="#FAFAFA"/>
<path d="M45.594 53.1179L44.5225 52.8099L48.381 39.1152L49.4528 39.4233L45.594 53.1179Z" fill="#FAFAFA"/>
<path opacity="0.5" d="M55.6991 41.2159L54.626 40.9136L50.7665 54.6109L51.8397 54.9133L55.6991 41.2159Z" fill="black"/>
</g>
<defs>
<clipPath id="clip0_234_26052">
<rect width="100" height="100" fill="white"/>
</clipPath>
</defs>
</svg>
