<svg width="18" height="18" viewBox="0 0 18 18" fill="none" xmlns="http://www.w3.org/2000/svg">
<path d="M15.4741 12.3264L9.44312 5.68047C9.22418 5.43984 8.77605 5.43984 8.55882 5.68047L2.52611 12.3264C2.51126 12.3427 2.50237 12.362 2.50041 12.3822C2.49845 12.4023 2.50351 12.4225 2.51503 12.4405C2.52654 12.4584 2.54406 12.4735 2.56564 12.484C2.58722 12.4945 2.61201 12.5001 2.63728 12.5H3.92011C4.00735 12.5 4.08945 12.4658 4.14076 12.4098L9.00012 7.05586L13.8595 12.4098C13.9108 12.4658 13.9929 12.5 14.0801 12.5H15.3629C15.4741 12.5 15.5391 12.3988 15.4741 12.3264Z" fill="#D92D3D"/>
</svg>
