<svg width="380" height="100" viewBox="0 0 380 100" fill="none" xmlns="http://www.w3.org/2000/svg">
<g clip-path="url(#clip0_4113_39793)">
<path d="M102.069 50L85.0927 66.9767L79.209 61.0698L90.2555 50L79.209 38.9535L85.0927 33.0465L102.069 50Z" fill="#2C5DA8"/>
<path d="M24.8829 61.0698L18.9992 66.9767L2.02246 50L18.9992 33.0465L24.9062 38.9535L13.8364 50L24.8829 61.0698Z" fill="#2C5DA8"/>
<path d="M74.9296 22.8605L52.0458 45.7209L29.1621 22.8605L52.0458 -0.0232558L74.9296 22.8605Z" fill="#E73848"/>
<path d="M74.9296 77.1628L52.0458 100.023L29.1621 77.1628L52.0458 54.2791L74.9296 77.1628Z" fill="#E73848"/>
<path d="M127.092 20.5814H164.417V31.093H138.185V45.3953H161.766V55.907H138.185V79.3953H127.092C127.092 79.4186 127.092 20.5814 127.092 20.5814ZM177.208 32.907C175.348 32.9302 173.557 32.186 172.278 30.8372C170.929 29.5349 170.208 27.7674 170.208 25.907C170.185 24.0465 170.929 22.2791 172.278 21C173.58 19.6977 175.371 18.9535 177.208 18.9767C179.045 18.9535 180.813 19.6744 182.115 21C183.441 22.2791 184.162 24.0698 184.138 25.907C184.162 27.7674 183.441 29.5349 182.115 30.8372C180.813 32.2093 179.045 32.9302 177.208 32.907ZM171.766 37.5116H182.534V79.4186H171.743L171.766 37.5116ZM192.208 37.5116H202.324V42.7674H202.976C204.301 40.7442 206.115 39.0698 208.278 37.9535C210.58 36.7674 213.138 36.1395 215.72 36.186C218.441 36.1163 221.138 36.8372 223.441 38.2791C225.51 39.5349 227.138 41.3721 228.115 43.5814C229.51 41.3721 231.464 39.5116 233.743 38.2326C236.324 36.814 239.231 36.093 242.162 36.1628C246.278 35.8837 250.278 37.5116 253.069 40.5581C255.72 43.9302 257.045 48.1628 256.813 52.4419V79.3953H246.115V54.4419C246.255 52.2558 245.603 50.093 244.255 48.3488C242.952 46.8837 241.069 46.1163 239.115 46.2093C236.464 46.1395 233.952 47.3953 232.417 49.5349C230.627 52.093 229.766 55.1628 229.906 58.2791V79.3953H219.162V54.4419C219.301 52.2326 218.627 50.0698 217.231 48.3488C215.813 46.8605 213.813 46.093 211.766 46.2093C209.231 46.1628 206.813 47.4186 205.394 49.5349C203.673 52.1163 202.813 55.186 202.976 58.2791V79.4186H192.208V37.5116ZM265.976 37.5116H276.092V42.6047H276.743C277.999 40.6977 279.72 39.1163 281.766 38.0465C284.069 36.7907 286.696 36.1395 289.324 36.186C292.952 36.1395 296.534 37.1163 299.627 39.0233C302.743 40.9302 305.255 43.6744 306.906 46.9302C308.696 50.5116 309.603 54.4651 309.534 58.4419C309.603 62.4419 308.72 66.4186 306.906 69.9767C305.255 73.2326 302.743 75.9535 299.627 77.8837C296.534 79.7907 292.952 80.7674 289.324 80.7209C286.673 80.7674 284.069 80.1395 281.72 78.9302C279.696 77.907 277.976 76.3488 276.743 74.4186H276.092L276.743 80.3256V97.1395H265.952V37.5116H265.976ZM287.417 70.7907C289.417 70.814 291.371 70.2558 293.092 69.2326C294.859 68.186 296.301 66.6744 297.278 64.8837C298.348 62.907 298.883 60.6977 298.836 58.4651C298.883 56.2326 298.348 54.0233 297.278 52.0465C296.301 50.2558 294.859 48.7442 293.092 47.7209C291.371 46.7209 289.417 46.186 287.417 46.2093C285.441 46.2093 283.51 46.7209 281.836 47.7209C280.069 48.7442 278.627 50.2558 277.65 52.0465C276.58 54.0233 276.045 56.2326 276.092 58.4651C276.045 60.6977 276.58 62.907 277.65 64.8837C278.627 66.6744 280.069 68.186 281.836 69.2326C283.51 70.2558 285.441 70.7907 287.417 70.7907ZM316.859 20.5814H327.627V79.4419H316.836L316.859 20.5814ZM356.883 80.7442C352.952 80.814 349.069 79.814 345.627 77.8605C342.324 76 339.603 73.2558 337.766 69.9535C335.836 66.4651 334.859 62.5349 334.929 58.5814C334.906 54.6977 335.859 50.8605 337.72 47.4419C339.534 44.0698 342.185 41.2326 345.464 39.2326C348.766 37.2093 352.603 36.1395 356.487 36.186C360.394 36.093 364.278 37.0465 367.673 38.9767C370.743 40.7674 373.208 43.4419 374.766 46.6279C376.417 49.9767 377.231 53.6744 377.185 57.3953C377.185 58.6047 377.115 59.814 376.929 61H345.441C345.766 63.9535 347.185 66.6744 349.417 68.6279C351.557 70.3721 354.255 71.2791 357.022 71.2093C359.255 71.2791 361.464 70.7209 363.394 69.6047C365.162 68.5581 366.603 67.0698 367.627 65.2791L376.348 69.5581C372.58 76.7442 364.999 81.093 356.883 80.7442ZM366.836 53.3953C366.696 52 366.208 50.6512 365.394 49.4884C364.487 48.1395 363.278 47.0465 361.859 46.2791C360.231 45.3953 358.394 44.9535 356.557 45C354.162 44.9302 351.813 45.7442 349.929 47.2558C348.022 48.8605 346.627 51 345.952 53.3721L366.836 53.3953Z" fill="#2C5DA8"/>
</g>
<defs>
<clipPath id="clip0_4113_39793">
<rect width="379.07" height="100" fill="white" transform="translate(0.0693359)"/>
</clipPath>
</defs>
</svg>
