<svg width="156" height="41" viewBox="0 0 156 41" fill="none" xmlns="http://www.w3.org/2000/svg">
<g clip-path="url(#clip0_474_6230)">
<path d="M48.5779 29.6307V11.5185C48.5779 10.5504 49.3626 9.76566 50.3307 9.76566H61.9648V13.5117H52.8054V17.882L61.4856 17.8536V21.4861L54.3404 21.4996C54.1017 21.5001 53.8706 21.4152 53.6891 21.2604L52.8054 20.5074V21.5145V29.6307H48.5779Z" fill="#1B0954"/>
<path d="M63.3848 29.6307V15.4414H67.6406V29.6307H63.3848Z" fill="#1B0954"/>
<path d="M69.4122 29.6307V15.4414H73.6398V17.1158C74.5134 16.009 76.0634 15.0157 78.0083 15.0157C82.2355 15.0157 84.2365 17.4847 84.2365 21.6564V29.6307H79.9809V21.1739C79.9809 19.5563 78.6282 18.5915 76.8527 18.5915C74.9927 18.5915 73.6961 19.6131 73.6961 21.3158V29.6307H69.4122Z" fill="#1B0954"/>
<path d="M93.7956 30.1701C88.2998 30.1416 85.6505 26.339 85.6505 22.7915V22.3375C85.6505 18.705 88.4124 14.959 93.7673 14.959C99.1501 14.959 101.912 18.705 101.912 22.3375C101.912 22.7632 101.94 23.0469 101.884 23.4726H89.9627C90.2727 25.4591 91.6253 26.6227 93.7956 26.651C95.5429 26.6227 97.4597 26.2531 98.1556 24.4375H101.715C101.038 27.4172 98.4175 30.1416 93.7956 30.1701ZM98.2119 20.7767C97.4597 18.9405 95.5992 18.478 93.7673 18.478C91.9636 18.478 90.6953 19.3009 90.188 20.7767H98.2119Z" fill="#1B0954"/>
<path d="M111.211 30.1416C106.561 30.1416 103.32 26.7078 103.32 22.678V22.1388C103.32 18.109 106.561 14.6752 111.211 14.6752C112.846 14.6752 115.203 15.7123 116.143 17.4534L116.769 18.5914L116.309 16.16C116.199 15.5768 116.143 14.9847 116.143 14.3912V9.76566H120.399V29.6307H116.143V27.6458C115.377 29.0388 112.677 30.1416 111.211 30.1416ZM111.69 26.5658C114.029 26.5658 115.692 25.0902 115.692 22.8767V21.9402C115.692 19.7266 114.029 18.2509 111.69 18.2509C109.746 18.2509 107.576 19.3009 107.576 22.451C107.576 24.9767 109.267 26.5658 111.69 26.5658Z" fill="#1B0954"/>
<path d="M129.706 35.3066V31.7877H132.835C133.765 31.7877 134.159 31.3903 134.159 30.5958V28.1682C133.295 29.9092 131.172 30.3687 129.706 30.3687C125.056 30.3687 121.815 26.9349 121.815 22.9051V22.3659C121.815 18.3361 125.056 14.9022 129.706 14.9022C131.144 14.9022 132.947 15.4414 134.131 17.1994V15.4414H138.415V30.2553C138.415 31.4186 138.246 32.3837 137.851 33.1213C137.006 34.7106 135.23 35.3066 132.553 35.3066H129.706ZM130.157 26.7647C132.384 26.7647 134.187 25.4308 134.159 23.4159L134.131 21.7699C134.103 19.755 132.355 18.4496 130.157 18.4496C127.733 18.4496 126.042 20.0388 126.042 22.5645C126.042 25.1754 127.733 26.7647 130.157 26.7647Z" fill="#1B0954"/>
<path d="M147.876 30.1701C142.381 30.1416 139.731 26.339 139.731 22.7915V22.3375C139.731 18.705 142.493 14.959 147.848 14.959C153.231 14.959 155.993 18.705 155.993 22.3375C155.993 22.7632 156.021 23.0469 155.965 23.4726H144.043C144.353 25.4591 145.706 26.6227 147.876 26.651C149.624 26.6227 151.541 26.2531 152.236 24.4375H155.796C155.119 27.4172 152.498 30.1416 147.876 30.1701ZM152.293 20.7767C151.541 18.9405 149.68 18.478 147.848 18.478C146.044 18.478 144.776 19.3009 144.269 20.7767H152.293Z" fill="#1B0954"/>
<path d="M63.3848 14.0647V10.9307H67.6406V14.0647H63.3848Z" fill="#1B0954"/>
<mask id="mask0_474_6230" style="mask-type:luminance" maskUnits="userSpaceOnUse" x="0" y="0" width="40" height="41">
<path d="M39.0626 0H0V40.0642H39.0626V0Z" fill="white"/>
</mask>
<g mask="url(#mask0_474_6230)">
<path d="M19.5313 34.2163C19.5313 36.9212 17.7069 39.1958 15.2294 39.8626C15.2194 39.8677 15.2072 39.8699 15.195 39.8727C14.6163 39.9748 14.0232 40.0369 13.4222 40.057H13.41C13.2669 40.062 13.1232 40.0642 12.98 40.0642C9.27404 40.0642 5.92875 38.4987 3.56281 35.9907C3.28815 35.697 3.02625 35.3937 2.77655 35.0747C2.77435 35.0725 2.77157 35.0697 2.76934 35.0647C2.76714 35.0624 2.76436 35.0574 2.76213 35.0547C2.75993 35.0519 2.75993 35.0524 2.75993 35.0497C2.41646 34.3057 2.22614 33.4747 2.22614 32.5985C2.22614 31.3467 2.61677 30.1896 3.28204 29.2391C3.55172 28.851 3.86798 28.4974 4.22144 28.1892C4.36014 28.0697 4.50332 27.9551 4.65146 27.8484C5.38055 28.1819 6.19178 28.3685 7.04737 28.3685H13.7224C16.9312 28.3685 19.5324 30.9862 19.5324 34.2163H19.5313Z" fill="url(#paint0_linear_474_6230)"/>
<path d="M30.1621 20.0318C30.1621 23.5168 27.4903 25.8797 24.1916 25.8797C21.6326 25.8797 19.0735 25.8797 16.515 25.8797C13.5238 25.8797 10.5319 25.8797 7.54063 25.8797C6.07967 25.8797 4.74688 26.4221 3.72592 27.3178C3.37248 27.6268 3.05565 27.9796 2.78654 28.3677C2.12125 29.3182 1.73063 30.4756 1.73063 31.7271C1.73063 32.9786 2.10905 34.1062 2.75935 35.0489C2.47248 34.6831 2.20781 34.3022 1.96312 33.9091C0.947158 32.2717 0.279653 30.388 0.0693584 28.3672C0.024969 27.917 0 27.4615 0 26.9985C0 26.6204 0.0149814 26.2466 0.0471636 25.8787C0.193093 24.154 0.670279 22.5266 1.41935 21.0583C1.41935 21.0561 1.41935 21.0533 1.42157 21.0511C2.09906 19.7146 3.00128 18.5128 4.07661 17.4924C6.40038 15.2875 9.53315 13.9337 12.9794 13.9337H24.1051C26.5325 13.9337 28.6266 15.3718 29.5909 17.4472C29.9568 18.2307 30.1621 19.107 30.1621 20.0302V20.0318Z" fill="url(#paint1_linear_474_6230)"/>
<path d="M4.6503 27.8484C4.50216 27.9556 4.35843 28.0702 4.22029 28.1892C3.86682 28.4979 3.55001 28.851 3.28088 29.2391C2.61562 30.1896 2.22498 31.3467 2.22498 32.5985C2.22498 33.4742 2.4153 34.3057 2.75877 35.0497C2.10846 34.1064 1.73004 32.9621 1.73004 31.7276C1.73004 30.4934 2.12067 29.319 2.78596 28.3685C3.05562 27.9804 3.3719 27.6268 3.72534 27.3185C4.01721 27.5224 4.32348 27.6994 4.64975 27.8484H4.6503Z" fill="url(#paint2_linear_474_6230)"/>
<path d="M39.0626 3.90944V4.02618C39.0376 8.29637 35.4753 11.6953 31.2328 11.6953H8.40569C4.5266 11.6953 1.32225 14.5944 0.813439 18.357C0.618126 17.8169 0.454995 17.2623 0.329041 16.6949C0.366215 16.8116 0.408385 16.9289 0.450002 17.0456C0.961587 13.2608 4.18592 10.3415 8.0894 10.3415H31.057C35.2279 10.3415 38.7436 7.08165 38.9289 2.92596C39.0128 3.23927 39.0598 3.56822 39.0626 3.90889V3.90944Z" fill="url(#paint3_linear_474_6230)"/>
<path d="M38.9289 2.92369V2.92591C38.7436 7.08162 35.228 10.3415 31.057 10.3415H8.08939C4.18536 10.3415 0.961583 13.2607 0.449996 17.0456C0.407826 16.9289 0.365656 16.8116 0.329035 16.6949C0.113748 15.727 0 14.7189 0 13.6863C0 13.0094 0.0493831 12.3448 0.143156 11.6953C1.1003 5.07889 6.75938 0 13.5976 0H35.102C36.9192 0 38.4744 1.23426 38.9289 2.92369Z" fill="url(#paint4_linear_474_6230)"/>
</g>
</g>
<defs>
<linearGradient id="paint0_linear_474_6230" x1="2.22503" y1="33.9562" x2="19.5313" y2="33.9562" gradientUnits="userSpaceOnUse">
<stop stop-color="#A440F2"/>
<stop offset="1" stop-color="#2E0C7D"/>
</linearGradient>
<linearGradient id="paint1_linear_474_6230" x1="0" y1="24.4925" x2="30.1621" y2="24.4925" gradientUnits="userSpaceOnUse">
<stop stop-color="#A440F2"/>
<stop offset="1" stop-color="#2E0C7D"/>
</linearGradient>
<linearGradient id="paint2_linear_474_6230" x1="3.28977" y1="31.211" x2="0.236985" y2="28.8132" gradientUnits="userSpaceOnUse">
<stop stop-color="#A440F2"/>
<stop offset="1" stop-color="#2E0C7D"/>
</linearGradient>
<linearGradient id="paint3_linear_474_6230" x1="-16.2761" y1="-4.25682" x2="93.2745" y2="14.5233" gradientUnits="userSpaceOnUse">
<stop offset="0.0860993" stop-color="#2E0C7D"/>
<stop offset="0.96398" stop-color="#A440F2"/>
</linearGradient>
<linearGradient id="paint4_linear_474_6230" x1="-1.25201" y1="14.1477" x2="35.7255" y2="0.113997" gradientUnits="userSpaceOnUse">
<stop stop-color="#A440F2"/>
<stop offset="1" stop-color="#2E0C7D"/>
</linearGradient>
<clipPath id="clip0_474_6230">
<rect width="156" height="40.0642" fill="white"/>
</clipPath>
</defs>
</svg>
