<svg width="189" height="50" viewBox="0 0 189 50" fill="none" xmlns="http://www.w3.org/2000/svg">
<path d="M51 25L42.5116 33.4884L39.5698 30.5349L45.093 25L39.5698 19.4767L42.5116 16.5233L51 25Z" fill="#2C5DA8"/>
<path d="M12.407 30.5349L9.46512 33.4884L0.976746 25L9.46512 16.5233L12.4186 19.4767L6.88372 25L12.407 30.5349Z" fill="#2C5DA8"/>
<path d="M37.4302 11.4302L25.9884 22.8605L14.5465 11.4302L25.9884 -0.0116272L37.4302 11.4302Z" fill="#E73848"/>
<path d="M37.4302 38.5814L25.9884 50.0116L14.5465 38.5814L25.9884 27.1395L37.4302 38.5814Z" fill="#E73848"/>
<path d="M63.5117 10.2907H82.1744V15.5465H69.0582V22.6977H80.8489V27.9535H69.0582V39.6977H63.5117C63.5117 39.7093 63.5117 10.2907 63.5117 10.2907ZM88.5698 16.4535C87.6396 16.4651 86.7442 16.093 86.1047 15.4186C85.4303 14.7674 85.0698 13.8837 85.0698 12.9535C85.0582 12.0233 85.4303 11.1395 86.1047 10.5C86.7558 9.84884 87.6512 9.47674 88.5698 9.48837C89.4884 9.47674 90.3721 9.83721 91.0233 10.5C91.6861 11.1395 92.0465 12.0349 92.0349 12.9535C92.0465 13.8837 91.6861 14.7674 91.0233 15.4186C90.3721 16.1047 89.4884 16.4651 88.5698 16.4535ZM85.8489 18.7558H91.2326V39.7093H85.8372L85.8489 18.7558ZM96.0698 18.7558H101.128V21.3837H101.454C102.116 20.3721 103.023 19.5349 104.105 18.9767C105.256 18.3837 106.535 18.0698 107.826 18.093C109.186 18.0581 110.535 18.4186 111.686 19.1395C112.721 19.7674 113.535 20.686 114.023 21.7907C114.721 20.686 115.698 19.7558 116.837 19.1163C118.128 18.407 119.581 18.0465 121.047 18.0814C123.105 17.9419 125.105 18.7558 126.5 20.2791C127.826 21.9651 128.488 24.0814 128.372 26.2209V39.6977H123.023V27.2209C123.093 26.1279 122.767 25.0465 122.093 24.1744C121.442 23.4419 120.5 23.0581 119.523 23.1047C118.198 23.0698 116.942 23.6977 116.174 24.7674C115.279 26.0465 114.849 27.5814 114.919 29.1395V39.6977H109.547V27.2209C109.616 26.1163 109.279 25.0349 108.581 24.1744C107.872 23.4302 106.872 23.0465 105.849 23.1047C104.581 23.0814 103.372 23.7093 102.663 24.7674C101.802 26.0581 101.372 27.593 101.454 29.1395V39.7093H96.0698V18.7558ZM132.954 18.7558H138.012V21.3023H138.337C138.965 20.3488 139.826 19.5581 140.849 19.0233C142 18.3953 143.314 18.0698 144.628 18.093C146.442 18.0698 148.233 18.5581 149.779 19.5116C151.337 20.4651 152.593 21.8372 153.419 23.4651C154.314 25.2558 154.767 27.2326 154.733 29.2209C154.767 31.2209 154.326 33.2093 153.419 34.9884C152.593 36.6163 151.337 37.9767 149.779 38.9419C148.233 39.8954 146.442 40.3837 144.628 40.3605C143.302 40.3837 142 40.0698 140.826 39.4651C139.814 38.9535 138.954 38.1744 138.337 37.2093H138.012L138.337 40.1628V48.5698H132.942V18.7558H132.954ZM143.674 35.3953C144.674 35.407 145.651 35.1279 146.512 34.6163C147.395 34.093 148.116 33.3372 148.605 32.4419C149.14 31.4535 149.407 30.3488 149.384 29.2326C149.407 28.1163 149.14 27.0116 148.605 26.0233C148.116 25.1279 147.395 24.3721 146.512 23.8605C145.651 23.3605 144.674 23.093 143.674 23.1047C142.686 23.1047 141.721 23.3605 140.884 23.8605C140 24.3721 139.279 25.1279 138.791 26.0233C138.256 27.0116 137.988 28.1163 138.012 29.2326C137.988 30.3488 138.256 31.4535 138.791 32.4419C139.279 33.3372 140 34.093 140.884 34.6163C141.721 35.1279 142.686 35.3953 143.674 35.3953ZM158.395 10.2907H163.779V39.7209H158.384L158.395 10.2907ZM178.407 40.3721C176.442 40.407 174.5 39.907 172.779 38.9302C171.128 38 169.767 36.6279 168.849 34.9767C167.884 33.2326 167.395 31.2674 167.43 29.2907C167.419 27.3488 167.895 25.4302 168.826 23.7209C169.733 22.0349 171.058 20.6163 172.698 19.6163C174.349 18.6047 176.267 18.0698 178.209 18.093C180.163 18.0465 182.105 18.5233 183.802 19.4884C185.337 20.3837 186.57 21.7209 187.349 23.314C188.174 24.9884 188.581 26.8372 188.558 28.6977C188.558 29.3023 188.523 29.907 188.43 30.5H172.686C172.849 31.9767 173.558 33.3372 174.674 34.314C175.744 35.186 177.093 35.6395 178.477 35.6047C179.593 35.6395 180.698 35.3605 181.663 34.8023C182.547 34.2791 183.267 33.5349 183.779 32.6395L188.14 34.7791C186.256 38.3721 182.465 40.5465 178.407 40.3721ZM183.384 26.6977C183.314 26 183.07 25.3256 182.663 24.7442C182.209 24.0698 181.605 23.5233 180.895 23.1395C180.081 22.6977 179.163 22.4767 178.244 22.5C177.047 22.4651 175.872 22.8721 174.93 23.6279C173.977 24.4302 173.279 25.5 172.942 26.686L183.384 26.6977Z" fill="#2C5DA8"/>
</svg>
