<svg width="66" height="66" viewBox="0 0 66 66" fill="none" xmlns="http://www.w3.org/2000/svg">
<path d="M0 20C0 8.95431 8.95431 0 20 0H46C57.0457 0 66 8.95431 66 20V46C66 57.0457 57.0457 66 46 66H20C8.95431 66 0 57.0457 0 46V20Z" fill="url(#paint0_linear_10_2629)"/>
<path d="M8.5 20C8.5 13.6487 13.6487 8.5 20 8.5H46C52.3513 8.5 57.5 13.6487 57.5 20V46C57.5 52.3513 52.3513 57.5 46 57.5H20C13.6487 57.5 8.5 52.3513 8.5 46V20Z" fill="white"/>
<path d="M8.5 20C8.5 13.6487 13.6487 8.5 20 8.5H46C52.3513 8.5 57.5 13.6487 57.5 20V46C57.5 52.3513 52.3513 57.5 46 57.5H20C13.6487 57.5 8.5 52.3513 8.5 46V20Z" stroke="#E1E4EA"/>
<path d="M40.2365 38.9062C39.1657 37.0549 37.5154 35.7274 35.5896 35.0981C36.5422 34.531 37.2823 33.6669 37.6963 32.6384C38.1103 31.61 38.1752 30.4741 37.8811 29.4052C37.587 28.3362 36.9502 27.3934 36.0684 26.7215C35.1866 26.0495 34.1086 25.6856 33 25.6856C31.8913 25.6856 30.8133 26.0495 29.9316 26.7215C29.0498 27.3934 28.4129 28.3362 28.1188 29.4052C27.8248 30.4741 27.8897 31.61 28.3037 32.6384C28.7176 33.6669 29.4578 34.531 30.4104 35.0981C28.4845 35.7267 26.8343 37.0542 25.7634 38.9062C25.7241 38.9703 25.6981 39.0415 25.6868 39.1158C25.6755 39.19 25.6792 39.2658 25.6977 39.3386C25.7162 39.4114 25.749 39.4798 25.7943 39.5397C25.8397 39.5996 25.8965 39.6498 25.9616 39.6874C26.0266 39.725 26.0985 39.7491 26.1731 39.7585C26.2476 39.7678 26.3232 39.7621 26.3955 39.7417C26.4678 39.7213 26.5353 39.6867 26.594 39.6398C26.6527 39.5929 26.7014 39.5348 26.7372 39.4687C28.0619 37.1794 30.4033 35.8125 33 35.8125C35.5966 35.8125 37.938 37.1794 39.2627 39.4687C39.2986 39.5348 39.3473 39.5929 39.4059 39.6398C39.4646 39.6867 39.5321 39.7213 39.6044 39.7417C39.6767 39.7621 39.7524 39.7678 39.8269 39.7585C39.9014 39.7491 39.9733 39.725 40.0384 39.6874C40.1034 39.6498 40.1603 39.5996 40.2056 39.5397C40.2509 39.4798 40.2838 39.4114 40.3023 39.3386C40.3207 39.2658 40.3244 39.19 40.3131 39.1158C40.3019 39.0415 40.2758 38.9703 40.2365 38.9062ZM29.0625 30.75C29.0625 29.9712 29.2934 29.21 29.7261 28.5624C30.1587 27.9149 30.7737 27.4102 31.4932 27.1122C32.2126 26.8142 33.0043 26.7362 33.7681 26.8881C34.5319 27.0401 35.2335 27.4151 35.7842 27.9658C36.3349 28.5164 36.7099 29.218 36.8618 29.9818C37.0137 30.7456 36.9358 31.5373 36.6378 32.2568C36.3397 32.9763 35.8351 33.5912 35.1875 34.0239C34.54 34.4566 33.7787 34.6875 33 34.6875C31.956 34.6864 30.9552 34.2712 30.217 33.533C29.4788 32.7948 29.0636 31.7939 29.0625 30.75Z" fill="#525866"/>
<defs>
<linearGradient id="paint0_linear_10_2629" x1="33" y1="0" x2="33" y2="66" gradientUnits="userSpaceOnUse">
<stop stop-color="#F2F5F8"/>
<stop offset="1" stop-color="white"/>
</linearGradient>
</defs>
</svg>
