<svg width="18" height="18" viewBox="0 0 18 18" fill="none" xmlns="http://www.w3.org/2000/svg">
<path d="M16.1722 8.51377L8.58242 1.92649C8.52416 1.87627 8.44983 1.84814 8.37149 1.84814H6.59358C6.44492 1.84814 6.37662 2.03297 6.48912 2.12939L13.5244 8.23654H1.76814C1.67974 8.23654 1.60742 8.30886 1.60742 8.39725V9.60261C1.60742 9.691 1.67974 9.76332 1.76814 9.76332H13.5224L6.48711 15.8705C6.37461 15.9689 6.44291 16.1517 6.59157 16.1517H8.42974C8.46791 16.1517 8.50608 16.1377 8.53421 16.1115L16.1722 9.48609C16.2417 9.42562 16.2975 9.35092 16.3357 9.26705C16.3739 9.18318 16.3937 9.09209 16.3937 8.99993C16.3937 8.90777 16.3739 8.81668 16.3357 8.73281C16.2975 8.64894 16.2417 8.57425 16.1722 8.51377Z" fill="#E73848"/>
</svg>
