<svg width="18" height="18" viewBox="0 0 18 18" fill="none" xmlns="http://www.w3.org/2000/svg">
<path d="M3.76127 6.49129H5.14342V7.87343C5.14342 7.90959 5.17958 7.93772 5.22377 7.93772H6.18806C6.23225 7.93772 6.26842 7.90959 6.26842 7.87142V6.49129H7.65056C7.68672 6.49129 7.71484 6.45513 7.71484 6.41093V5.44665C7.71484 5.40245 7.68672 5.36629 7.64855 5.36629H6.26842V3.98415C6.26842 3.94799 6.23225 3.91986 6.18806 3.91986H5.22377C5.17958 3.91986 5.14342 3.94799 5.14342 3.98415V5.36629H3.76127C3.72511 5.36629 3.69699 5.40245 3.69699 5.44665V6.41093C3.69699 6.45513 3.72511 6.49129 3.76127 6.49129ZM10.3506 6.49129H14.2398C14.276 6.49129 14.3041 6.45513 14.3041 6.41093V5.44665C14.3041 5.40245 14.276 5.36629 14.2378 5.36629H10.3506C10.3144 5.36629 10.2863 5.40245 10.2863 5.44665V6.41093C10.2863 6.45513 10.3144 6.49129 10.3506 6.49129ZM10.3506 11.815H14.2398C14.276 11.815 14.3041 11.7788 14.3041 11.7346V10.7703C14.3041 10.7261 14.276 10.69 14.2378 10.69H10.3506C10.3144 10.69 10.2863 10.7261 10.2863 10.7703V11.7346C10.2863 11.7788 10.3144 11.815 10.3506 11.815ZM10.3506 13.9042H14.2398C14.276 13.9042 14.3041 13.8681 14.3041 13.8239V12.8596C14.3041 12.8154 14.276 12.7792 14.2378 12.7792H10.3506C10.3144 12.7792 10.2863 12.8154 10.2863 12.8596V13.8239C10.2863 13.8681 10.3144 13.9042 10.3506 13.9042ZM6.41909 12.277L7.64855 10.7723C7.73493 10.6679 7.66261 10.5091 7.53002 10.5091H6.50949C6.46328 10.5091 6.41909 10.5292 6.39096 10.5674L5.70792 11.4031L5.02489 10.5674C5.01052 10.5497 4.99248 10.5353 4.97202 10.5253C4.95156 10.5152 4.92916 10.5097 4.90636 10.5091H3.88382C3.75123 10.5091 3.67891 10.6679 3.76529 10.7723L4.99475 12.277L3.73516 13.8199C3.64676 13.9243 3.71908 14.083 3.85167 14.083H4.87221C4.91842 14.083 4.96261 14.0629 4.99074 14.0248L5.70391 13.1509L6.41708 14.0248C6.44721 14.0609 6.49141 14.083 6.5356 14.083H7.55614C7.68873 14.083 7.76105 13.9243 7.67467 13.8199L6.41909 12.277ZM16.3934 0.966736H1.6077C1.25212 0.966736 0.964844 1.25401 0.964844 1.60959V16.3953C0.964844 16.7509 1.25212 17.0382 1.6077 17.0382H16.3934C16.749 17.0382 17.0363 16.7509 17.0363 16.3953V1.60959C17.0363 1.25401 16.749 0.966736 16.3934 0.966736ZM15.6702 15.6721H2.33092V2.33281H15.6702V15.6721Z" fill="#583D97"/>
</svg>
