<svg width="18" height="18" viewBox="0 0 18 18" fill="none" xmlns="http://www.w3.org/2000/svg">
<path fill-rule="evenodd" clip-rule="evenodd" d="M14.7833 2.05534C14.7837 2.05534 14.7841 2.05574 14.7849 2.05655L15.9439 3.2157C15.9447 3.2163 15.9449 3.2167 15.9451 3.21731C15.9452 3.2177 15.9452 3.21812 15.9451 3.21851C15.9451 3.21911 15.9447 3.21952 15.9439 3.22032L10.1642 9.00001L15.9439 14.7797C15.9447 14.7805 15.9449 14.7809 15.9451 14.7815C15.9452 14.782 15.9452 14.7824 15.9451 14.7829C15.9451 14.7833 15.9447 14.7837 15.9439 14.7845L14.7847 15.9435C14.7841 15.9443 14.7837 15.9445 14.7833 15.9447C14.7829 15.9448 14.7824 15.9448 14.7819 15.9447C14.7813 15.9447 14.7809 15.9443 14.7801 15.9435L9.00043 10.1638L3.22075 15.9435C3.21994 15.9443 3.21954 15.9445 3.21894 15.9447C3.21848 15.9448 3.21799 15.9448 3.21753 15.9447C3.21713 15.9447 3.21673 15.9443 3.21593 15.9435L2.05697 14.7843C2.05617 14.7837 2.05597 14.7833 2.05577 14.7829C2.05563 14.7824 2.05563 14.782 2.05577 14.7815C2.05577 14.7809 2.05617 14.7805 2.05697 14.7797L7.83666 9.00001L2.05697 3.22032C2.05617 3.21952 2.05597 3.21911 2.05577 3.21851C2.05563 3.21805 2.05563 3.21756 2.05577 3.21711C2.05577 3.2167 2.05617 3.2163 2.05697 3.2155L3.21613 2.05655C3.21673 2.05574 3.21713 2.05554 3.21753 2.05534C3.21799 2.0552 3.21848 2.0552 3.21894 2.05534C3.21954 2.05534 3.21994 2.05574 3.22075 2.05655L9.00043 7.83623L14.7801 2.05655C14.7809 2.05574 14.7813 2.05554 14.7819 2.05534C14.7824 2.0552 14.7829 2.0552 14.7833 2.05534Z" fill="#583D97"/>
</svg>
