<svg width="24" height="24" viewBox="0 0 24 24" fill="none" xmlns="http://www.w3.org/2000/svg">
<path d="M19.7119 3.36352L2.24367 8.29046C2.09671 8.33191 1.96591 8.41722 1.86874 8.535C1.77157 8.65278 1.71266 8.79741 1.69989 8.94957C1.68712 9.10172 1.7211 9.25415 1.79728 9.38648C1.87346 9.51881 1.98821 9.62473 2.1262 9.6901L10.1522 13.4919C10.3088 13.566 10.4348 13.6921 10.509 13.8486L14.3107 21.8746C14.3761 22.0126 14.482 22.1274 14.6144 22.2036C14.7467 22.2797 14.8991 22.3137 15.0513 22.301C15.2034 22.2882 15.3481 22.2293 15.4658 22.1321C15.5836 22.0349 15.6689 21.9041 15.7104 21.7572L20.6373 4.28895C20.6735 4.16064 20.6748 4.025 20.6412 3.896C20.6075 3.767 20.5401 3.6493 20.4458 3.55503C20.3515 3.46076 20.2338 3.39332 20.1048 3.35966C19.9758 3.326 19.8402 3.32733 19.7119 3.36352Z" fill="#E81D23"/>
<path d="M10.3943 13.6066L14.6369 9.36392M19.7119 3.36352L2.24367 8.29046C2.09671 8.33191 1.96591 8.41722 1.86874 8.535C1.77157 8.65278 1.71266 8.79741 1.69989 8.94957C1.68712 9.10172 1.7211 9.25415 1.79728 9.38648C1.87346 9.51881 1.98821 9.62473 2.1262 9.6901L10.1522 13.4919C10.3088 13.566 10.4348 13.6921 10.509 13.8486L14.3107 21.8746C14.3761 22.0126 14.482 22.1274 14.6144 22.2036C14.7467 22.2797 14.8991 22.3137 15.0513 22.301C15.2034 22.2882 15.3481 22.2293 15.4658 22.1321C15.5836 22.0349 15.6689 21.9041 15.7104 21.7572L20.6373 4.28895C20.6735 4.16064 20.6748 4.025 20.6412 3.896C20.6075 3.767 20.5401 3.6493 20.4458 3.55503C20.3515 3.46076 20.2338 3.39332 20.1048 3.35966C19.9758 3.326 19.8402 3.32733 19.7119 3.36352Z" stroke="white" stroke-linecap="round" stroke-linejoin="round"/>
</svg>
