<svg width="100" height="100" viewBox="0 0 100 100" fill="none" xmlns="http://www.w3.org/2000/svg">
<g clip-path="url(#clip0_3683_46593)">
<path d="M109.395 84.791H-14.707V84.8531H109.395V84.791Z" fill="#EBEBEB"/>
<path d="M28.2866 86.375H22.5332V86.4371H28.2866V86.375Z" fill="#EBEBEB"/>
<path d="M99.1614 87.7051H85.0957V87.7671H99.1614V87.7051Z" fill="#EBEBEB"/>
<path d="M9.96218 87.7051H-4.10352V87.7671H9.96218V87.7051Z" fill="#EBEBEB"/>
<path d="M44.1177 73.7213H-3.8079C-4.58974 73.72 -5.22266 73.0859 -5.22266 72.304V4.93413C-5.21595 4.15725 -4.58477 3.53054 -3.8079 3.5293H44.1177C44.9003 3.5293 45.535 4.1637 45.535 4.94654V72.304C45.535 73.0866 44.9003 73.7213 44.1177 73.7213ZM-3.8079 3.57894C-4.55548 3.58043 -5.16061 4.18654 -5.16061 4.93413V72.304C-5.16061 73.0516 -4.55548 73.6577 -3.8079 73.6592H44.1177C44.8656 73.658 45.4714 73.0519 45.4729 72.304V4.93413C45.4714 4.18629 44.8656 3.58043 44.1177 3.57894H-3.8079Z" fill="#EBEBEB"/>
<path d="M97.8063 73.7213H49.8782C49.0961 73.72 48.4624 73.0861 48.4609 72.304V4.93413C48.4691 4.15676 49.1008 3.53054 49.8782 3.5293H97.8063C98.5822 3.53203 99.2119 4.15824 99.2186 4.93413V72.304C99.2186 73.0849 98.5871 73.7185 97.8063 73.7213ZM49.8782 3.57894C49.1303 3.58043 48.5245 4.18629 48.523 4.93413V72.304C48.5242 73.0519 49.1303 73.6577 49.8782 73.6592H97.8063C98.5541 73.658 99.16 73.0519 99.1615 72.304V4.93413C99.1602 4.18629 98.5541 3.58043 97.8063 3.57894H49.8782Z" fill="#EBEBEB"/>
<path d="M63.4949 65.0898H57.7637V84.9248H63.4949V65.0898Z" fill="#E6E6E6"/>
<path d="M59.4363 65.0898H53.7051V84.9248H59.4363V65.0898Z" fill="#E6E6E6"/>
<path d="M58.3503 84.9255H59.4381V81.8281H57.207L58.3503 84.9255Z" fill="#F0F0F0"/>
<path d="M30.6297 65.0898H24.8984V84.9248H30.6297V65.0898Z" fill="#E6E6E6"/>
<path d="M59.4383 65.0898H29.6797V83.4003H59.4383V65.0898Z" fill="#F0F0F0"/>
<path d="M57.5861 79.2804H45.9307C45.3052 79.2791 44.7984 78.7723 44.7969 78.1466V67C44.7981 66.3745 45.3049 65.8677 45.9307 65.8662H57.5838C58.2095 65.8675 58.7161 66.3743 58.7176 67V78.1466C58.7161 78.7711 58.2108 79.2776 57.5861 79.2804ZM45.9307 66.1196C45.4439 66.1196 45.0491 66.5135 45.0478 67V78.1466C45.0426 78.634 45.4335 79.0337 45.921 79.0391C45.9242 79.0391 45.9274 79.0391 45.9307 79.0391H57.5838C58.0713 79.0431 58.4699 78.6512 58.4739 78.1637C58.4739 78.158 58.4739 78.1523 58.4739 78.1468V67.0003C58.4726 66.5135 58.0778 66.1199 57.591 66.1199H45.9307V66.1196Z" fill="#E0E0E0"/>
<path d="M43.1854 79.2804H31.5322C30.9068 79.2791 30.3999 78.7723 30.3984 78.1466V67C30.3997 66.3745 30.9065 65.8677 31.5322 65.8662H43.1854C43.8116 65.8662 44.3192 66.3738 44.3192 67V78.1466C44.3192 78.7728 43.8116 79.2804 43.1854 79.2804ZM31.5325 66.1196C31.0462 66.1196 30.6521 66.5138 30.6521 67V78.1466C30.6521 78.6328 31.0462 79.027 31.5325 79.027H43.1856C43.6724 79.027 44.0673 78.6331 44.0685 78.1466V67C44.0673 66.5133 43.6724 66.1196 43.1856 66.1196H31.5325Z" fill="#E0E0E0"/>
<path d="M42.1034 69.3903C41.4985 69.3916 41.0074 68.9024 41.0059 68.2978C41.0046 67.6929 41.4938 67.2014 42.0985 67.2002C42.7033 67.199 43.1945 67.6882 43.196 68.2928C43.196 68.2945 43.196 68.296 43.196 68.2975C43.1948 68.9006 42.7063 69.3891 42.1034 69.3903Z" fill="#FAFAFA"/>
<path d="M47.0125 69.3904C46.4076 69.3943 45.9142 68.9074 45.9102 68.3025C45.9062 67.6976 46.3932 67.2042 46.9981 67.2002C47.6029 67.1962 48.0964 67.6832 48.1003 68.2881C48.1003 68.2938 48.1003 68.2993 48.1003 68.305C48.0964 68.9036 47.6111 69.3879 47.0125 69.3904Z" fill="#FAFAFA"/>
<path d="M30.7676 84.9255H29.6797V81.8281H31.911L30.7676 84.9255Z" fill="#F0F0F0"/>
<path d="M28.8035 65.0898H23.0723V84.9248H28.8035V65.0898Z" fill="#E6E6E6"/>
<path d="M27.7155 84.9255H28.8034V81.8281H26.5723L27.7155 84.9255Z" fill="#F0F0F0"/>
<path d="M28.8035 65.0898H-0.955078V83.4003H28.8035V65.0898Z" fill="#F0F0F0"/>
<path d="M26.9516 79.2804H15.2962C14.6697 79.2804 14.1614 78.7733 14.1602 78.1466V67C14.1614 66.3735 14.6697 65.8662 15.2962 65.8662H26.9493C27.5748 65.8675 28.0816 66.3743 28.0831 67V78.1466C28.0814 78.7711 27.5761 79.2776 26.9516 79.2804ZM15.2959 66.1196C14.8092 66.1196 14.4143 66.5135 14.4131 67V78.1466C14.4079 78.634 14.7988 79.0337 15.2863 79.0391C15.2895 79.0391 15.2927 79.0391 15.2959 79.0391H26.9491C27.4366 79.0431 27.8352 78.6512 27.8392 78.1637C27.8392 78.158 27.8392 78.1523 27.8392 78.1468V67.0003C27.8379 66.5145 27.4445 66.1211 26.9588 66.1199H15.2959V66.1196Z" fill="#E0E0E0"/>
<path d="M12.5506 79.2804H0.897466C0.271248 79.2804 -0.236328 78.7728 -0.236328 78.1466V67C-0.236328 66.3738 0.271248 65.8662 0.897466 65.8662H12.5506C13.1761 65.8675 13.6829 66.3743 13.6844 67V78.1466C13.6829 78.772 13.1761 79.2789 12.5506 79.2804ZM0.897466 66.1196C0.410739 66.1196 0.0158461 66.5135 0.0146051 67V78.1466C0.00939284 78.634 0.400314 79.0337 0.887786 79.0391C0.891012 79.0391 0.894239 79.0391 0.897466 79.0391H12.5506C13.0374 79.0391 13.4322 78.6452 13.4335 78.1587V67.0003C13.4322 66.5135 13.0374 66.1199 12.5506 66.1199H0.897466V66.1196Z" fill="#E0E0E0"/>
<path d="M11.4706 69.3903C10.8657 69.3916 10.3745 68.9024 10.373 68.2978C10.3718 67.6929 10.861 67.2014 11.4656 67.2002C12.0705 67.199 12.5617 67.6882 12.5632 68.2928C12.5632 68.2945 12.5632 68.296 12.5632 68.2975C12.5632 68.9011 12.074 69.3903 11.4706 69.3903Z" fill="#FAFAFA"/>
<path d="M16.3777 69.3904C15.7728 69.3943 15.2794 68.9074 15.2754 68.3025C15.2714 67.6976 15.7584 67.2042 16.3633 67.2002C16.9682 67.1962 17.4616 67.6832 17.4656 68.2881C17.4656 68.2938 17.4656 68.2993 17.4656 68.305C17.4616 68.9036 16.9764 69.3879 16.3777 69.3904Z" fill="#FAFAFA"/>
<path d="M0.132798 84.9255H-0.955078V81.8281H1.27354L0.132798 84.9255Z" fill="#F0F0F0"/>
<path d="M51.6345 10.1113H40.9707V20.7751H51.6345V10.1113Z" fill="#EBEBEB"/>
<path d="M52.1073 10.1133H51.6348V20.7773H52.1073V10.1133Z" fill="#E0E0E0"/>
<path d="M50.19 11.5566H42.416V19.3306H50.19V11.5566Z" fill="white"/>
<path d="M47.6037 16.7443C46.8852 17.4629 45.7204 17.4629 45.0018 16.7443C44.2833 16.0258 44.2833 14.861 45.0018 14.1424C45.7204 13.4239 46.8852 13.4239 47.6037 14.1424C48.322 14.861 48.322 16.026 47.6037 16.7443Z" fill="#F5F5F5"/>
<path d="M41.1881 23.8213H28.6855V36.3238H41.1881V23.8213Z" fill="#EBEBEB"/>
<path d="M41.7415 23.8232H41.1875V36.3258H41.7415V23.8232Z" fill="#E0E0E0"/>
<path d="M39.4951 25.5166H30.3809V34.6309H39.4951V25.5166Z" fill="white"/>
<path d="M36.8791 28.1289H32.9922V32.0158H36.8791V28.1289Z" fill="#F5F5F5"/>
<path d="M97.1086 19.8018H90.3398V21.3836H97.1086V19.8018Z" fill="#E6E6E6"/>
<path d="M90.339 19.8018H62.3223V21.3836H90.339V19.8018Z" fill="#F5F5F5"/>
<path d="M78.2426 11.4062H70.3555V19.8022H78.2426V11.4062Z" fill="#E0E0E0"/>
<path d="M70.3563 11.4062H68.3359V19.8022H70.3563V11.4062Z" fill="#F0F0F0"/>
<path d="M80.3113 10.1113H74.3867V19.8019H80.3113V10.1113Z" fill="#E6E6E6"/>
<path d="M74.3886 10.1113H72.6758V19.8019H74.3886V10.1113Z" fill="#F0F0F0"/>
<path d="M81.126 11.4062H76.1309V19.8022H81.126V11.4062Z" fill="#F0F0F0"/>
<path d="M76.1315 11.4062H74.9902V19.8022H76.1315V11.4062Z" fill="#FAFAFA"/>
<path d="M86.7728 12.8271H80.2207V19.8024H86.7728V12.8271Z" fill="#E6E6E6"/>
<path d="M80.2206 12.8271H78.543V19.8024H80.2206V12.8271Z" fill="#FAFAFA"/>
<path d="M88.4905 11.751H83.5684V19.8017H88.4905V11.751Z" fill="#E6E6E6"/>
<path d="M83.5697 11.751H82.1465V19.8017H83.5697V11.751Z" fill="#F0F0F0"/>
<path d="M89.8007 12.8271H85.0195V19.8024H89.8007V12.8271Z" fill="#F0F0F0"/>
<path d="M85.0155 12.8271H84.0684V19.8024H85.0155V12.8271Z" fill="#FAFAFA"/>
<path d="M86.3349 66.6781C88.4551 63.9067 93.5013 62.8767 95.2455 61.1303C97.5297 58.8386 97.5178 55.4015 95.5736 54.1615C93.885 53.0833 88.2866 60.3728 87.6569 61.1856C85.4861 63.9861 84.8589 66.0653 84.4511 68.0773C84.497 66.3671 84.5427 64.7943 84.5789 63.5835C84.697 59.6277 84.8442 58.3564 84.9117 57.9657C85.153 57.7729 85.423 57.5507 85.5824 57.4326C86.9381 56.4219 89.9411 55.2183 91.444 53.7517C93.6366 51.6072 93.2819 49.0408 91.7431 48.0857C90.1364 47.0872 87.2928 49.4486 85.7827 51.7884C84.2726 54.1282 84.9192 56.3715 84.497 58.3013C84.4076 58.6825 84.3161 60.1298 84.2317 62.139C83.8748 60.1603 82.7809 58.3906 81.1706 57.1868C79.0914 55.5274 77.2966 53.5085 75.584 53.7688C73.8714 54.0294 74.8024 56.7019 76.1484 58.5785C77.3544 60.2502 83.3101 61.9169 84.1858 63.2604C84.082 65.9812 83.9904 69.4282 83.9251 72.6388C83.4548 70.9817 83.778 70.8418 81.8556 68.2969C80.7121 66.7869 76.0231 64.9199 75.4659 65.9621C74.9086 67.004 75.7553 68.9604 77.5257 70.3329C78.9536 71.4402 82.1088 71.4377 82.8541 72.1252C83.0254 72.2843 83.5898 72.8996 83.913 73.254C83.8358 77.1714 83.802 80.6304 83.8405 81.8099L84.1468 81.822C84.1324 81.5182 84.1684 79.5257 84.2287 76.8868C84.9981 75.4829 90.1769 74.6629 91.7763 73.2034C93.4504 71.6765 94.6515 69.8939 93.9352 68.7C93.337 67.7037 88.6286 69.0569 86.6988 70.707C85.4228 71.8045 84.6437 72.9768 84.2868 74.5519C84.3302 72.7549 84.3808 70.8251 84.429 69.0041C84.8127 68.5548 85.6981 67.5081 86.3349 66.6781Z" fill="#E6E6E6"/>
<path d="M86.7848 84.8729H81.4082C81.1139 84.8729 80.8607 84.4919 80.8029 83.9588L80.4219 80.4805H87.7717L87.3904 83.9588C87.3299 84.4919 87.0792 84.8729 86.7848 84.8729Z" fill="#F0F0F0"/>
<path d="M87.9266 81.8285H80.268C80.0846 81.8285 79.9302 81.5754 79.9111 81.2376L79.7543 78.6662C79.7302 78.2705 79.8965 77.9258 80.1112 77.9258H88.0832C88.2979 77.9258 88.4642 78.2708 88.4402 78.6662L88.2833 81.2376C88.2642 81.5751 88.1098 81.8285 87.9266 81.8285Z" fill="#F0F0F0"/>
<path d="M47.3449 96.0002C73.9231 96.0002 95.4691 94.7423 95.4691 93.1905C95.4691 91.6388 73.9231 90.3809 47.3449 90.3809C20.7666 90.3809 -0.779297 91.6388 -0.779297 93.1905C-0.779297 94.7423 20.7666 96.0002 47.3449 96.0002Z" fill="#F5F5F5"/>
<path d="M38.531 28.5196C37.9815 29.8518 34.7533 29.7624 31.3688 28.3663C27.9843 26.9701 25.686 24.7584 26.2355 23.4265C26.3628 23.1177 26.718 21.9648 27.0987 21.8042C28.3601 21.2723 30.7587 22.4702 33.3587 23.5427C35.7787 24.5409 38.5444 25.1825 38.974 26.4973C39.2341 27.2945 38.6876 28.1401 38.531 28.5196Z" fill="#3A6AB5"/>
<path opacity="0.2" d="M38.9743 26.497C39.1799 27.5422 38.7271 28.0426 38.5303 28.5194C38.328 29.011 37.7619 29.3081 36.9597 29.4186C36.8631 29.4345 36.7616 29.4442 36.6574 29.4521C36.1195 29.4921 35.4958 29.4608 34.8167 29.3561C34.7296 29.3454 34.6434 29.329 34.5548 29.3136C33.8906 29.1989 33.1808 29.0155 32.4483 28.7718C32.3691 28.7455 32.2892 28.7167 32.2096 28.6879C31.9323 28.5903 31.6496 28.4844 31.3684 28.3672C31.0882 28.2525 30.8156 28.1299 30.5496 28.0026C30.4729 27.9676 30.3977 27.9294 30.3235 27.8936C29.6568 27.563 29.0514 27.2046 28.5183 26.8355C28.448 26.7881 28.3823 26.739 28.315 26.6931C27.7603 26.2892 27.2926 25.8728 26.9402 25.4657C26.8786 25.397 26.8225 25.3292 26.7687 25.2607C26.2343 24.5838 26.0241 23.9398 26.2353 23.427C26.3723 23.0951 26.6719 21.9658 27.0968 21.8035C27.5225 21.6436 28.0703 21.6657 28.7044 21.8007C28.7861 21.8186 28.8705 21.838 28.9561 21.8596C30.2085 22.1765 31.7606 22.8839 33.357 23.5426C35.2399 24.3195 37.4665 25.1252 38.5564 26.0564C38.6244 26.1125 38.6852 26.1711 38.7438 26.2302C38.8326 26.3188 38.9081 26.4064 38.9743 26.497Z" fill="white"/>
<g opacity="0.2">
<path d="M29.0719 21.6519L28.9567 21.8591L26.941 25.4653C26.8795 25.3965 26.8234 25.3287 26.7695 25.2602L28.705 21.8005L28.8549 21.5322L29.0719 21.6519Z" fill="white"/>
</g>
<g opacity="0.2">
<path d="M30.5945 23.1209L28.5177 26.8358C28.4475 26.7884 28.3817 26.7392 28.3145 26.6933L30.3795 22.998L30.5945 23.1209Z" fill="white"/>
</g>
<g opacity="0.2">
<path d="M34.4143 25.2552L32.4478 28.772C32.3686 28.7457 32.2887 28.7169 32.209 28.6881L34.1968 25.1328L34.4143 25.2552Z" fill="white"/>
</g>
<g opacity="0.2">
<path d="M32.64 24.2627L30.5503 28.0027C30.4736 27.9677 30.3984 27.9295 30.3242 27.8937L32.4225 24.1406L32.64 24.2627Z" fill="white"/>
</g>
<g opacity="0.2">
<path d="M36.7307 25.9346L34.8165 29.3561C34.7294 29.3454 34.6433 29.329 34.5547 29.3137L36.5133 25.8125L36.7307 25.9346Z" fill="white"/>
</g>
<path d="M38.959 27.3481C38.4095 28.6802 35.2203 28.6281 31.8358 27.2319C28.4513 25.8358 26.1529 23.6243 26.7022 22.2922C27.2517 20.9601 30.4409 21.0122 33.8254 22.4083C37.2099 23.8047 39.5083 26.0162 38.959 27.3481Z" fill="#3A6AB5"/>
<path opacity="0.2" d="M37.8097 26.8739C37.4215 27.815 34.9355 27.6823 32.2569 26.5773C29.5783 25.4723 27.7217 23.8138 28.1099 22.8726C28.4981 21.9314 30.9841 22.0642 33.6627 23.1692C36.3413 24.2742 38.1979 25.9327 37.8097 26.8739Z" fill="white"/>
<path d="M55.6374 16.4723C56.5198 17.6116 54.8365 20.3676 51.9419 22.6094C49.0474 24.8512 45.9855 25.745 45.1032 24.606C44.8986 24.3419 44.0751 23.4603 44.1252 23.0502C44.2913 21.6913 46.5234 20.2063 48.747 18.4843C50.8168 16.8814 52.7491 14.8012 54.1033 15.0824C54.9243 15.2529 55.386 16.1477 55.6374 16.4723Z" fill="#3A6AB5"/>
<path opacity="0.2" d="M54.1031 15.0811C55.1121 15.4226 55.3208 16.0644 55.6365 16.4722C55.9624 16.8924 55.9386 17.5313 55.6356 18.2821C55.6013 18.374 55.5591 18.4666 55.5142 18.5611C55.2811 19.0476 54.9438 19.5733 54.5152 20.1104C54.4625 20.1806 54.4055 20.2474 54.3481 20.3164C53.9182 20.8354 53.4062 21.3604 52.8301 21.8744C52.7678 21.93 52.7033 21.9848 52.6385 22.0399C52.4161 22.232 52.1833 22.4244 51.942 22.6101C51.703 22.7962 51.4613 22.9714 51.2185 23.139C51.15 23.1881 51.0795 23.2343 51.0115 23.281C50.393 23.695 49.7809 24.0417 49.1957 24.3207C49.1195 24.3582 49.0443 24.3907 48.971 24.4262C48.3448 24.7066 47.7509 24.9052 47.2224 25.0082C47.1323 25.0276 47.0455 25.0425 46.9593 25.0549C46.1065 25.1817 45.4431 25.0439 45.1033 24.6056C44.8834 24.3217 44.0529 23.4999 44.1234 23.0506C44.1963 22.6019 44.488 22.1377 44.9206 21.6547C44.9764 21.5929 45.0355 21.5289 45.0968 21.4656C45.9946 20.5368 47.3803 19.542 48.7459 18.4849C50.3563 17.2377 52.1627 15.707 53.5129 15.2245C53.5953 15.1935 53.6765 15.1697 53.7569 15.1486C53.878 15.1156 53.9917 15.0935 54.1031 15.0811Z" fill="white"/>
<g opacity="0.2">
<path d="M44.9734 21.2627L45.096 21.4657L47.2217 25.0081C47.1316 25.0274 47.0447 25.0423 46.9586 25.0548L44.9198 21.6549L44.7617 21.3913L44.9734 21.2627Z" fill="white"/>
</g>
<g opacity="0.2">
<path d="M47.0047 20.6709L49.1944 24.3202C49.1182 24.3577 49.043 24.3902 48.9697 24.4257L46.791 20.7962L47.0047 20.6709Z" fill="white"/>
</g>
<g opacity="0.2">
<path d="M50.7572 18.4189L52.8299 21.8742C52.7676 21.9298 52.7031 21.9846 52.6383 22.0397L50.543 18.5468L50.7572 18.4189Z" fill="white"/>
</g>
<g opacity="0.2">
<path d="M49.013 19.4658L51.2181 23.1387C51.1496 23.1879 51.0791 23.234 51.0111 23.2807L48.7988 19.5936L49.013 19.4658Z" fill="white"/>
</g>
<g opacity="0.2">
<path d="M52.4974 16.748L54.5136 20.1105C54.4609 20.1807 54.4039 20.2475 54.3465 20.3165L52.2832 16.8759L52.4974 16.748Z" fill="white"/>
</g>
<path d="M51.1879 21.6383C54.0825 19.3965 55.7138 16.6558 54.8316 15.5166C53.9493 14.3775 50.8876 15.2714 47.9931 17.5132C45.0985 19.7549 43.4671 22.4957 44.3494 23.6348C45.2316 24.774 48.2933 23.8801 51.1879 21.6383Z" fill="#3A6AB5"/>
<path opacity="0.2" d="M53.8499 16.2789C54.4732 17.0839 53.1214 19.1745 50.8308 20.9486C48.5401 22.7228 46.1777 23.5084 45.5542 22.7034C44.931 21.8985 46.2824 19.8079 48.5734 18.0337C50.8643 16.2596 53.2264 15.474 53.8499 16.2789Z" fill="white"/>
<path d="M43.6543 11.1346C43.3637 12.768 39.7099 13.461 35.5589 12.7224C31.4082 11.9835 28.2788 10.0604 28.5695 8.4267C28.637 8.04794 28.7532 6.66346 29.1419 6.38944C30.43 5.48102 33.4231 6.23928 36.6115 6.80667C39.5793 7.33485 42.8486 7.37705 43.6548 8.7506C44.1443 9.58333 43.7372 10.669 43.6543 11.1346Z" fill="#3A6AB5"/>
<path opacity="0.2" d="M43.6571 8.74976C44.1451 9.87512 43.7589 10.5492 43.6546 11.134C43.5479 11.7369 42.984 12.2102 42.1088 12.5316C42.0041 12.5733 41.8924 12.6091 41.777 12.6436C41.1815 12.8205 40.4722 12.9387 39.6824 12.9878C39.5819 12.9973 39.4809 13 39.3774 13.0045C38.602 13.0387 37.7583 13.0069 36.8742 12.9126C36.7787 12.9025 36.6819 12.8898 36.5848 12.8769C36.249 12.8354 35.9047 12.7856 35.56 12.7228C35.2165 12.6624 34.8799 12.5917 34.5493 12.514C34.4545 12.4934 34.3604 12.4691 34.2681 12.447C33.4368 12.239 32.6677 11.9844 31.9772 11.7002C31.8863 11.6639 31.8004 11.625 31.7136 11.5897C30.9901 11.272 30.3619 10.9183 29.8654 10.5468C29.7793 10.4847 29.6994 10.4222 29.6222 10.3581C28.8548 9.72818 28.4599 9.0553 28.5713 8.42635C28.6438 8.0193 28.7036 6.67528 29.1417 6.38835C29.5813 6.10391 30.2028 5.99421 30.9494 5.99023C31.0454 5.99023 31.1454 5.99123 31.2469 5.99445C32.7337 6.04335 34.6538 6.45735 36.6116 6.80633C38.9209 7.21735 41.6238 7.5765 43.0788 8.35636C43.1692 8.40277 43.2518 8.45366 43.3322 8.50603C43.4538 8.58421 43.5603 8.66413 43.6571 8.74976Z" fill="white"/>
<g opacity="0.2">
<path d="M31.3243 5.734L31.2458 5.99536L29.8643 10.5477C29.7782 10.4856 29.6983 10.4231 29.6211 10.359L30.9482 5.99114L31.051 5.65234L31.3243 5.734Z" fill="white"/>
</g>
<g opacity="0.2">
<path d="M33.3999 7.01141L31.9765 11.701C31.8856 11.6647 31.7998 11.6258 31.7129 11.5905L33.1279 6.92578L33.3999 7.01141Z" fill="white"/>
</g>
<g opacity="0.2">
<path d="M38.2214 8.47281L36.8734 12.9127C36.7778 12.9025 36.681 12.8898 36.584 12.8769L37.9466 8.38867L38.2214 8.47281Z" fill="white"/>
</g>
<g opacity="0.2">
<path d="M35.9804 7.7941L34.5488 12.5149C34.454 12.4943 34.3599 12.47 34.2676 12.4479L35.7057 7.70996L35.9804 7.7941Z" fill="white"/>
</g>
<g opacity="0.2">
<path d="M40.9945 8.6691L39.682 12.9886C39.5815 12.998 39.4805 13.0008 39.377 13.0052L40.72 8.58496L40.9945 8.6691Z" fill="white"/>
</g>
<path d="M43.8467 9.7114C44.1374 8.07792 41.0082 6.1549 36.8574 5.41624C32.7066 4.67757 29.1061 5.40296 28.8154 7.03645C28.5247 8.66994 31.6539 10.5929 35.8047 11.3316C39.9555 12.0703 43.5561 11.3449 43.8467 9.7114Z" fill="#3A6AB5"/>
<path opacity="0.2" d="M42.4367 9.45958C42.2312 10.6137 39.402 11.0754 36.117 10.4906C32.832 9.90585 30.3358 8.4963 30.5411 7.34215C30.7464 6.18801 33.5759 5.72635 36.8609 6.31087C40.1458 6.89588 42.6423 8.30543 42.4367 9.45958Z" fill="white"/>
<path d="M65.3243 52.8296L39.7822 54.3156C38.8768 54.3682 37.9879 54.5851 37.1604 54.9557L9.41573 67.3753C8.40852 67.8261 7.85155 68.9065 8.07717 69.9718L12.6674 91.6501C12.9824 93.1376 14.6407 93.9207 16.0189 93.2324L43.4032 79.5619L68.6887 78.7071C70.0171 78.6621 71.0084 77.4745 70.7977 76.1806L67.4132 55.4211C67.2385 54.3489 66.4251 52.7971 65.3243 52.8296Z" fill="#E73848"/>
<path opacity="0.1" d="M65.3243 52.8296L39.7822 54.3156C38.8768 54.3682 37.9879 54.5851 37.1604 54.9557L9.41573 67.3753C8.40852 67.8261 7.85155 68.9065 8.07717 69.9718L12.6674 91.6501C12.9824 93.1376 14.6407 93.9207 16.0189 93.2324L43.4032 79.5619L68.6887 78.7071C70.0171 78.6621 71.0084 77.4745 70.7977 76.1806L67.4132 55.4211C67.2385 54.3489 66.4251 52.7971 65.3243 52.8296Z" fill="black"/>
<path d="M14.0514 38.7174L0.646484 51.0723L24.698 77.168L38.1029 64.8131L14.0514 38.7174Z" fill="#E73848"/>
<path opacity="0.5" d="M38.107 64.8112L24.7023 77.166L0.650391 51.0719L9.44697 42.9631L14.0551 38.7148L14.8236 39.5478L38.107 64.8112Z" fill="#FAFAFA"/>
<path d="M14.1394 40.3126L2.31055 51.2148L24.809 75.6255L36.6378 64.7233L14.1394 40.3126Z" stroke="#E73848" stroke-miterlimit="10"/>
<path d="M22.1414 60.8528C23.4977 59.6026 23.3262 57.2102 21.7583 55.5093C20.1904 53.8084 17.8199 53.4431 16.4636 54.6933C15.1073 55.9435 15.2788 58.3359 16.8467 60.0368C18.4146 61.7377 20.7851 62.103 22.1414 60.8528Z" fill="#E73848"/>
<path opacity="0.1" d="M24.5577 66.5764L19.7947 68.2218L9.44531 42.9631L14.0535 38.7148L14.8219 39.5478L24.5577 66.5764Z" fill="black"/>
<path d="M25.4823 28.4921L8.34375 34.7051L20.4387 68.0691L37.5772 61.8561L25.4823 28.4921Z" fill="#E73848"/>
<path opacity="0.5" d="M25.4823 28.4921L8.34375 34.7051L20.4387 68.0691L37.5772 61.8561L25.4823 28.4921Z" fill="#FAFAFA"/>
<path d="M24.9457 29.997L9.82227 35.4795L21.1362 66.6891L36.2597 61.2067L24.9457 29.997Z" stroke="#E73848" stroke-miterlimit="10"/>
<path d="M24.3794 52.0338C26.1134 51.4051 26.8801 49.1326 26.0917 46.958C25.3034 44.7833 23.2586 43.53 21.5245 44.1587C19.7905 44.7873 19.0238 47.0598 19.8122 49.2344C20.6005 51.4091 22.6453 52.6624 24.3794 52.0338Z" fill="#E73848"/>
<path d="M65.49 53.7114L40.2973 55.1306C39.4043 55.181 38.5279 55.3954 37.7128 55.7635L10.3759 68.1052C9.38354 68.5532 8.83675 69.6316 9.06212 70.6969L13.6464 92.3765C13.9612 93.8642 15.5988 94.6511 16.9567 93.9668L43.9347 80.3736L68.8759 79.5848C70.1862 79.5434 71.1612 78.3587 70.9497 77.0651L67.5572 56.3071C67.3823 55.2348 66.5758 53.6816 65.49 53.7114Z" fill="#E73848"/>
<path opacity="0.2" d="M41.3223 58.9288L62.9373 57.5967" stroke="black" stroke-width="2" stroke-miterlimit="10" stroke-linecap="round" stroke-linejoin="round"/>
<path opacity="0.2" d="M38.7324 59.4873L42.6823 77.626" stroke="black" stroke-width="2" stroke-miterlimit="10" stroke-linecap="round" stroke-linejoin="round"/>
<path opacity="0.2" d="M12.4043 75.8633L15.1889 89.8163C15.1889 89.8163 17.3237 84.2796 12.4043 75.8633Z" fill="#FAFAFA"/>
<path opacity="0.2" d="M12.7695 76.0276C12.8651 76.2821 37.504 65.7031 37.504 65.7031C37.504 65.7031 38.1275 73.3078 30.7127 77.467C23.2978 81.6259 12.7695 76.0276 12.7695 76.0276Z" fill="#FAFAFA"/>
<path d="M29.1376 76.4392C29.727 76.4392 30.2049 75.9614 30.2049 75.372C30.2049 74.7825 29.727 74.3047 29.1376 74.3047C28.5481 74.3047 28.0703 74.7825 28.0703 75.372C28.0703 75.9614 28.5481 76.4392 29.1376 76.4392Z" fill="#E73848"/>
<path opacity="0.2" d="M37.5176 65.7031C37.5176 65.7031 40.5735 70.3006 39.8343 78.1356L37.5176 65.7031Z" fill="black"/>
<g opacity="0.2">
<path d="M11.2246 70.3838L11.7922 70.1328" stroke="#FAFAFA" stroke-linecap="round" stroke-linejoin="round"/>
<path d="M12.9727 69.6113L35.9811 59.4414" stroke="#FAFAFA" stroke-linecap="round" stroke-linejoin="round" stroke-dasharray="5.2 5.2"/>
<path d="M36.5703 59.1804L37.1377 58.9297" stroke="#FAFAFA" stroke-linecap="round" stroke-linejoin="round"/>
</g>
<path opacity="0.2" d="M42.0488 63.0059L63.6639 61.6738" stroke="black" stroke-width="2" stroke-miterlimit="10" stroke-linecap="round" stroke-linejoin="round"/>
<path opacity="0.2" d="M43.0215 68.0906L64.6365 66.7588" stroke="black" stroke-width="2" stroke-miterlimit="10" stroke-linecap="round" stroke-linejoin="round"/>
<path d="M59.8983 31.9629C59.8983 31.9629 59.354 37.7545 57.203 38.2534C55.0519 38.7522 53.2338 37.857 53.2338 37.857L51.4847 36.5112L50.6309 39.4867C50.6309 39.4867 51.5644 40.7555 53.5118 39.8759C53.5118 39.8759 56.9844 41.4065 58.907 39.8759C60.8295 38.3452 61.4446 34.1533 61.4446 34.1533L59.8983 31.9629Z" fill="#B97964"/>
<path d="M61.6275 29.1581C61.6275 29.1581 60.1264 26.5993 60.8087 21.9594C61.491 17.3195 65.3804 16.7397 66.8815 17.0807C68.3826 17.4218 69.6107 18.8594 70.6343 21.6035C71.6579 24.3474 72.0332 25.064 73.7389 24.5864C75.4448 24.1089 79.9822 22.6077 81.2445 23.9381C82.5069 25.2687 82.0974 26.7699 82.0974 26.7699C82.0974 26.7699 88.4089 25.2347 87.8629 30.8637C87.3171 36.493 78.208 41.747 69.5425 36.186C60.8769 30.625 61.6275 29.1581 61.6275 29.1581Z" fill="#263238"/>
<path d="M61.5561 42.7822C61.5561 42.7822 59.8408 57.5337 59.8979 64.4521C59.955 71.3706 62.4137 87.6659 62.4137 87.6659H65.444C65.444 87.6659 65.0436 74.6297 65.101 70.1698C65.1583 65.7098 65.9585 58.3342 65.9585 58.3342C65.9585 58.3342 66.9305 64.9667 68.0739 67.3109C69.2174 69.6552 75.564 77.9457 79.9666 80.5189L82.025 78.632C82.025 78.632 77.4508 72.9715 75.7355 70.1698C74.0202 67.368 72.4763 66.5676 71.8474 61.3645C71.2184 56.1614 72.3048 47.8136 70.4751 42.7822H61.5561Z" fill="#263238"/>
<path opacity="0.2" d="M65.9606 58.3342L64.6427 48.9844C64.6427 48.9844 63.6029 54.6059 65.6521 61.4688L65.9606 58.3342Z" fill="black"/>
<path d="M63.0371 88.4972L63.1386 91.394L65.1714 91.5633L65.2732 91.2922V88.2939L63.0371 88.4972Z" fill="#B97964"/>
<path d="M62.0703 87.3963L62.2565 88.4804L65.7462 88.5651L65.9664 87.2607L62.0703 87.3963Z" fill="#E73848"/>
<path d="M79.0117 80.7215L82.247 77.7061L82.9586 78.8411L80.1805 81.3819L79.0117 80.7215Z" fill="#E73848"/>
<path d="M80.5703 80.7219L82.7046 82.5174L84.0767 80.9081L82.3234 79.0957L80.5703 80.7219Z" fill="#B97964"/>
<path d="M84.4899 80.7824L85.7808 81.5776C86.0318 81.7323 86.0831 82.0753 85.8873 82.2957C84.9503 83.3516 82.5606 86.0369 82.3229 86.2272C82.0265 86.4645 81.6706 86.058 81.5859 85.6852C81.5859 85.6852 82.2635 84.7874 82.3229 84.2113C82.3665 83.7876 82.3459 83.1714 82.332 82.8753C82.3268 82.7633 82.3646 82.6548 82.4373 82.5697L83.8803 80.8785C84.032 80.7005 84.2909 80.6598 84.4899 80.7824Z" fill="#263238"/>
<path d="M65.6659 91.6374L65.9345 93.1296C65.9866 93.4197 65.7652 93.6868 65.4703 93.6881C64.0586 93.6943 60.4641 93.7047 60.1638 93.6543C59.7892 93.5915 59.855 93.0554 60.0761 92.7436C60.0761 92.7436 61.197 92.6498 61.6656 92.3098C62.0104 92.0596 62.4559 91.6334 62.6674 91.4254C62.7473 91.347 62.8533 91.3028 62.9652 91.3001L65.1876 91.2472C65.4217 91.2415 65.6245 91.4071 65.6659 91.6374Z" fill="#263238"/>
<path d="M70.8024 34.603L73.9 32.428C73.9 32.428 73.0762 29.1326 71.8568 28.968C70.6376 28.8032 64.5742 27.6498 60.7186 28.968C60.7186 28.968 59.3346 29.3634 58.9062 33.252L60.5538 33.7792C60.5538 33.7792 61.147 41.0617 61.5094 42.1821H70.3077C70.3082 42.1821 70.407 35.9212 70.8024 34.603Z" fill="#E73848"/>
<path d="M71.4707 34.1325C71.4707 34.1325 72.6432 37.4838 72.8532 39.2845C72.8532 39.2845 70.0621 38.174 69.3421 37.664L68.798 35.7031L66.9412 34.8128L66.4023 36.2834L67.9315 38.204C67.9315 38.204 72.1321 42.1353 74.2632 41.2351C76.3943 40.3349 73.4203 32.7637 73.4203 32.7637L71.4707 34.1325Z" fill="#B97964"/>
<path d="M63.5903 19.461C63.5903 19.461 62.5173 21.6068 62.6069 23.3501C62.6962 25.0935 63.5679 25.8088 65.2443 26.0548C65.2443 26.0548 65.9596 28.2899 64.082 28.5135C63.9392 28.5304 63.8876 29.1 63.9 29.1914C63.9487 29.5545 64.3081 29.7521 64.633 29.8367C64.981 29.9275 65.3513 29.9439 65.7092 29.9556C66.5129 29.9816 67.1748 29.6572 67.7109 29.0648C67.7521 29.0194 68.1279 28.5361 68.1279 28.5361C68.1279 28.5361 67.2334 28.0923 67.5469 25.1834C67.5469 25.1834 68.1503 24.8481 68.4856 24.021C68.4856 24.021 69.0666 23.7304 69.2009 23.1493C69.3349 22.5683 68.8209 21.7636 67.8822 22.5683C67.8822 22.5683 66.1165 21.6743 65.4458 18.5449C65.4458 18.5449 64.7526 19.327 63.5903 19.461Z" fill="#B97964"/>
<path d="M64.0936 22.875L64.2465 21.7275L63.4336 22.6265C63.4336 22.6265 63.692 22.9226 64.0936 22.875Z" fill="#A24E3F"/>
<path d="M64.5664 23.7146C64.5664 23.7146 65.4234 23.8457 65.8345 23.2959" stroke="#222221" stroke-width="0.75" stroke-miterlimit="10" stroke-linecap="round" stroke-linejoin="round"/>
<path d="M65.4219 20.1215C65.4219 20.1215 65.9669 19.911 66.5311 20.4178" stroke="#222221" stroke-miterlimit="10" stroke-linecap="round" stroke-linejoin="round"/>
<path d="M63.9397 19.8729C63.9397 19.8729 63.452 19.7959 63.2227 20.0781" stroke="#222221" stroke-miterlimit="10" stroke-linecap="round" stroke-linejoin="round"/>
<path d="M65.7682 21.6303C65.7456 21.8033 65.6341 21.9311 65.5192 21.9162C65.404 21.9013 65.3291 21.7489 65.3517 21.5762C65.374 21.4032 65.4857 21.2754 65.6006 21.2902C65.7155 21.3054 65.7905 21.4575 65.7682 21.6303Z" fill="#222221"/>
<path d="M63.7896 21.2514C63.7673 21.4244 63.6556 21.5522 63.5407 21.5373C63.4255 21.5224 63.3506 21.37 63.3732 21.1973C63.3955 21.0243 63.5072 20.8964 63.6221 20.9113C63.737 20.9262 63.8122 21.0784 63.7896 21.2514Z" fill="#222221"/>
<path d="M65.6007 21.2909L65.209 21.1201C65.209 21.1201 65.2897 21.4736 65.6007 21.2909Z" fill="#222221"/>
<path d="M63.6553 20.9237L63.2637 20.7529C63.2637 20.7529 63.3443 21.1064 63.6553 20.9237Z" fill="#222221"/>
<path d="M61.2031 41.7949V42.8296L70.7322 42.9103L70.4782 41.6777L61.2031 41.7949Z" fill="#E73848"/>
<path opacity="0.4" d="M61.2031 41.7949V42.8296L70.7322 42.9103L70.4782 41.6777L61.2031 41.7949Z" fill="white"/>
<path d="M61.3189 36.7703L56.0786 55.0051C55.7085 56.294 54.5956 57.1667 53.3429 57.2915C52.9534 57.3295 52.5489 57.2972 52.1468 57.1823L42.1176 54.3002C40.4316 53.8142 39.4566 52.0539 39.9404 50.3684L45.1827 32.1306C45.4644 31.1552 46.1708 30.4168 47.0472 30.0634C47.6813 29.806 48.4044 29.7514 49.1152 29.9556L59.1436 32.8353C60.8297 33.3215 61.8044 35.0818 61.3189 36.7703Z" fill="#E73848"/>
<path opacity="0.2" d="M61.3189 36.7703L56.0786 55.0051C55.7085 56.294 54.5956 57.1667 53.3429 57.2915C52.9534 57.3295 52.5489 57.2972 52.1468 57.1823L42.1176 54.3002C40.4316 53.8142 39.4566 52.0539 39.9404 50.3684L45.1827 32.1306C45.4644 31.1552 46.1708 30.4168 47.0472 30.0634C47.6813 29.806 48.4044 29.7514 49.1152 29.9556L59.1436 32.8353C60.8297 33.3215 61.8044 35.0818 61.3189 36.7703Z" fill="black"/>
<path d="M60.447 36.9876L55.2066 55.2224C54.9254 56.2003 54.2165 56.9392 53.3429 57.2922C52.9534 57.3301 52.5489 57.2979 52.1468 57.183L42.1176 54.3008C40.4316 53.8148 39.4566 52.0546 39.9404 50.369L45.1827 32.1313C45.4644 31.1558 46.1708 30.4174 47.0472 30.064C47.4366 30.026 47.8412 30.0583 48.2433 30.1732L58.2717 33.0529C59.9577 33.5388 60.9324 35.2991 60.447 36.9876Z" fill="#E73848"/>
<path opacity="0.5" d="M60.447 36.9876L55.2066 55.2224C54.9254 56.2003 54.2165 56.9392 53.3429 57.2922C52.9534 57.3301 52.5489 57.2979 52.1468 57.183L42.1176 54.3008C40.4316 53.8148 39.4566 52.0546 39.9404 50.369L45.1827 32.1313C45.4644 31.1558 46.1708 30.4174 47.0472 30.064C47.4366 30.026 47.8412 30.0583 48.2433 30.1732L58.2717 33.0529C59.9577 33.5388 60.9324 35.2991 60.447 36.9876Z" fill="#FAFAFA"/>
<path d="M56.3835 34.0235L57.0399 35.168L56.6433 35.3974L56.215 34.6524L55.4728 35.0838L55.2441 34.6868L56.3835 34.0235Z" fill="white"/>
<path d="M55.8678 38.2889L56.0966 38.6859L54.9559 39.3488L54.3007 38.2047L54.6976 37.974L55.1244 38.72L55.8678 38.2889Z" fill="white"/>
<path d="M54.5593 35.0836L55.4428 36.6259L53.9065 37.5198L53.0217 35.9772L54.5593 35.0836Z" fill="white"/>
<path d="M57.4323 35.8531L58.3158 37.3954L56.7795 38.2894L55.8948 36.7467L57.4323 35.8531Z" fill="white"/>
<path d="M46.3563 38.5328L45.2832 38.2305L41.4238 51.9278L42.4969 52.2302L46.3563 38.5328Z" fill="#FAFAFA"/>
<path d="M44.0346 52.6696L42.9629 52.3616L46.8215 38.667L47.8932 38.975L44.0346 52.6696Z" fill="#FAFAFA"/>
<path d="M45.593 53.1179L44.5215 52.8099L48.3801 39.1152L49.4518 39.4233L45.593 53.1179Z" fill="#FAFAFA"/>
<path opacity="0.5" d="M55.7001 41.2164L54.627 40.9141L50.7675 54.6114L51.8406 54.9138L55.7001 41.2164Z" fill="black"/>
</g>
<defs>
<clipPath id="clip0_3683_46593">
<rect width="100" height="100" fill="white"/>
</clipPath>
</defs>
</svg>
