<svg width="11" height="16" viewBox="0 0 11 16" fill="none" xmlns="http://www.w3.org/2000/svg">
<path d="M10.2598 2.09944V0.546537C10.2598 0.411939 10.1051 0.337609 10.0006 0.419975L0.944393 7.49341C0.867447 7.55325 0.805186 7.62987 0.762357 7.71744C0.719529 7.805 0.697266 7.90118 0.697266 7.99866C0.697266 8.09613 0.719529 8.19232 0.762357 8.27988C0.805186 8.36744 0.867447 8.44407 0.944393 8.5039L10.0006 15.5773C10.1071 15.6597 10.2598 15.5854 10.2598 15.4508V13.8979C10.2598 13.7994 10.2136 13.705 10.1373 13.6448L2.90511 7.99966L10.1373 2.35256C10.2136 2.2923 10.2598 2.19788 10.2598 2.09944Z" fill="#E73848"/>
</svg>
