<svg width="14" height="16" viewBox="0 0 14 16" fill="none" xmlns="http://www.w3.org/2000/svg">
<path d="M7.60277 0.768799H6.39741C6.29027 0.768799 6.23669 0.82237 6.23669 0.929513V7.23755H0.250558C0.143415 7.23755 0.0898438 7.29112 0.0898438 7.39826V8.60362C0.0898438 8.71076 0.143415 8.76434 0.250558 8.76434H6.23669V15.0724C6.23669 15.1795 6.29027 15.2331 6.39741 15.2331H7.60277C7.70991 15.2331 7.76348 15.1795 7.76348 15.0724V8.76434H13.7506C13.8577 8.76434 13.9113 8.71076 13.9113 8.60362V7.39826C13.9113 7.29112 13.8577 7.23755 13.7506 7.23755H7.76348V0.929513C7.76348 0.82237 7.70991 0.768799 7.60277 0.768799Z" fill="#583D97"/>
</svg>
