<svg width="32" height="26" viewBox="0 0 32 26" fill="none" xmlns="http://www.w3.org/2000/svg">
<rect y="0.764709" width="32" height="24.4706" rx="2.13131" fill="#FFDA00"/>
<rect y="0.764709" width="32" height="24.4706" rx="2.13131" fill="url(#paint0_linear_4109_43256)" style="mix-blend-mode:overlay"/>
<rect x="0.941162" y="1.70589" width="30.1176" height="22.5882" rx="1.25" fill="#F2F8FF"/>
<path d="M11.7911 20.0226L11.1706 17.9593C11.1362 17.8145 10.9983 17.7059 10.8604 17.7059H6.10358C5.9657 17.7059 5.82782 17.8145 5.79335 17.9593L5.13842 20.095C5.10395 20.2036 5.13842 20.3122 5.17289 20.3846C5.24183 20.457 5.34524 20.5294 5.44865 20.5294H11.4809C11.6532 20.5294 11.7911 20.3846 11.7911 20.2036C11.8256 20.1312 11.8256 20.095 11.7911 20.0226Z" fill="#FFC200"/>
<path d="M5.13848 20.0522C5.10388 20.1715 5.13848 20.2908 5.17308 20.3703C5.24229 20.4499 5.3461 20.5294 5.44991 20.5294H11.5055C11.6785 20.5294 11.817 20.3703 11.817 20.1715C11.817 20.092 11.817 20.0522 11.7824 19.9727L11.1595 17.7059" fill="#FFB000"/>
<path d="M5.13848 19.7227C5.10388 19.9244 5.13848 20.1261 5.17308 20.2605C5.24229 20.395 5.3461 20.5294 5.44991 20.5294H11.5055C11.6785 20.5294 11.817 20.2605 11.817 19.9244C11.817 19.7899 11.817 19.7227 11.7824 19.5882" fill="#FF9700"/>
<path d="M19.3787 19.9726L18.7474 17.8965C18.7123 17.7508 18.572 17.6415 18.4317 17.6415H13.5915C13.4512 17.6415 13.3109 17.7508 13.2758 17.8965L12.6094 20.009C12.5744 20.1183 12.6094 20.2276 12.6445 20.3004C12.7147 20.3733 12.8199 20.4461 12.9251 20.4461H19.0631C19.2384 20.4461 19.3787 20.3004 19.3787 20.1183C19.4138 20.0819 19.4138 20.0455 19.3787 19.9726Z" fill="#FFC200"/>
<path d="M12.6679 20.0522C12.6333 20.1715 12.6679 20.2908 12.7025 20.3703C12.7717 20.4499 12.8755 20.5294 12.9793 20.5294H19.0349C19.208 20.5294 19.3464 20.3703 19.3464 20.1715C19.3464 20.092 19.3464 20.0522 19.3118 19.9727L18.6889 17.7059" fill="#FFB000"/>
<path d="M12.6679 19.7227C12.6333 19.9244 12.6679 20.1261 12.7025 20.2605C12.7717 20.395 12.8755 20.5294 12.9793 20.5294H19.0349C19.208 20.5294 19.3464 20.2605 19.3464 19.9244C19.3464 19.7899 19.3464 19.7227 19.3118 19.5882" fill="#FF9700"/>
<path d="M26.8496 19.9726L26.2182 17.8965C26.1831 17.7508 26.0428 17.6415 25.9026 17.6415H21.0623C20.922 17.6415 20.7817 17.7508 20.7467 17.8965L20.0803 20.009C20.0452 20.1183 20.0803 20.2276 20.1153 20.3004C20.1855 20.3733 20.2907 20.4461 20.3959 20.4461H26.5339C26.7093 20.4461 26.8496 20.3004 26.8496 20.1183C26.8846 20.0819 26.8846 20.0455 26.8496 19.9726Z" fill="#FFC200"/>
<path d="M20.1973 20.0522C20.1627 20.1715 20.1973 20.2908 20.2319 20.3703C20.3011 20.4499 20.4049 20.5294 20.5087 20.5294H26.5644C26.7374 20.5294 26.8758 20.3703 26.8758 20.1715C26.8758 20.092 26.8758 20.0522 26.8412 19.9727L26.2183 17.7059" fill="#FFB000"/>
<path d="M20.1973 19.7227C20.1627 19.9244 20.1973 20.1261 20.2319 20.2605C20.3011 20.395 20.4049 20.5294 20.5087 20.5294H26.5644C26.7374 20.5294 26.8758 20.2605 26.8758 19.9244C26.8758 19.7899 26.8758 19.7227 26.8412 19.5882" fill="#FF9700"/>
<path d="M15.6608 16.2212L15.0295 14.1451C14.9944 13.9994 14.8541 13.8902 14.7138 13.8902H9.83854C9.69824 13.8902 9.55795 13.9994 9.52287 14.1451L8.89154 16.2941C8.85647 16.4034 8.89154 16.5126 8.92662 16.5855C8.99676 16.6583 9.10199 16.7312 9.20721 16.7312H15.3452C15.5205 16.7312 15.6608 16.5855 15.6608 16.4034C15.6959 16.3305 15.6608 16.2941 15.6608 16.2212Z" fill="#FFC200"/>
<path d="M8.48671 16.2875C8.44778 16.4068 8.48671 16.5261 8.52564 16.6056C8.60349 16.6852 8.72028 16.7647 8.83707 16.7647H15.6496C15.8443 16.7647 16 16.6056 16 16.4068C16 16.3273 16 16.2875 15.9611 16.208L15.2603 13.9412" fill="#FFB000"/>
<path d="M8.48671 15.958C8.44778 16.1597 8.48671 16.3613 8.52564 16.4958C8.60349 16.6303 8.72028 16.7647 8.83707 16.7647H15.6496C15.8443 16.7647 16 16.4958 16 16.1597C16 16.0252 16 15.958 15.9611 15.8235" fill="#FF9700"/>
<path d="M23.0965 16.2212L22.4652 14.1451C22.4301 13.9994 22.2898 13.8902 22.1495 13.8902H17.3093C17.169 13.8902 17.0287 13.9994 16.9936 14.1451L16.3623 16.2941C16.3272 16.4034 16.3623 16.5126 16.3974 16.5855C16.4675 16.6583 16.5728 16.7312 16.678 16.7312H22.8159C22.9913 16.7312 23.1316 16.5855 23.1316 16.4034C23.1667 16.3305 23.1316 16.2941 23.0965 16.2212Z" fill="#FFC200"/>
<path d="M16.0161 16.2875C15.9771 16.4068 16.0161 16.5261 16.055 16.6056C16.1329 16.6852 16.2496 16.7647 16.3664 16.7647H23.179C23.3736 16.7647 23.5294 16.6056 23.5294 16.4068C23.5294 16.3273 23.5294 16.2875 23.4904 16.208L22.7897 13.9412" fill="#FFB000"/>
<path d="M16.0161 15.958C15.9771 16.1597 16.0161 16.3613 16.055 16.4958C16.1329 16.6303 16.2496 16.7647 16.3664 16.7647H23.179C23.3736 16.7647 23.5294 16.4958 23.5294 16.1597C23.5294 16.0252 23.5294 15.958 23.4904 15.8235" fill="#FF9700"/>
<path d="M19.3787 12.5788L18.7474 10.5027C18.7123 10.357 18.572 10.2477 18.4317 10.2477H13.5915C13.4512 10.2477 13.3109 10.357 13.2758 10.5027L12.6094 12.6516C12.5744 12.7609 12.6094 12.8702 12.6445 12.943C12.7147 13.0159 12.8199 13.0887 12.9251 13.0887H19.0631C19.2384 13.0887 19.3787 12.943 19.3787 12.7609C19.4138 12.6881 19.4138 12.6516 19.3787 12.5788Z" fill="#FFC200"/>
<path d="M12.6679 12.5228C12.6333 12.6421 12.6679 12.7614 12.7025 12.8409C12.7717 12.9205 12.8755 13 12.9793 13H19.0349C19.208 13 19.3464 12.8409 19.3464 12.6421C19.3464 12.5626 19.3464 12.5228 19.3118 12.4433L18.6889 10.1765" fill="#FFB000"/>
<path d="M9.897 8.13521C9.897 9.55571 9.79987 10.7212 9.70274 10.7212C9.60561 10.7212 9.50848 9.55571 9.50848 8.13521C9.50848 6.71472 9.60561 5.54918 9.70274 5.54918C9.84843 5.54918 9.897 6.71472 9.897 8.13521Z" fill="#FFDA00"/>
<path d="M9.75133 8.24448C7.85733 8.24448 6.30328 8.17163 6.30328 8.09879C6.30328 8.02594 7.85733 7.95309 9.75133 7.95309C11.6453 7.95309 13.1994 8.02594 13.1994 8.09879C13.1994 8.20806 11.6453 8.24448 9.75133 8.24448Z" fill="#FFDA00"/>
<path d="M21.5419 6.54562C22.2652 6.0071 22.821 5.5474 22.7832 5.51884C22.7454 5.49029 22.1284 5.9037 21.405 6.44222C20.6817 6.98075 20.126 7.44045 20.1638 7.469C20.2016 7.49756 20.8186 7.08414 21.5419 6.54562Z" fill="#FFB000"/>
<path d="M21.4067 6.5691C20.6782 6.02276 20.144 5.58568 20.1926 5.54926C20.2411 5.51284 20.8239 5.94991 21.5524 6.45983C22.2808 7.00618 22.815 7.44326 22.7665 7.47968C22.7179 7.5161 22.1351 7.11545 21.4067 6.5691Z" fill="#FFB000"/>
<path d="M25.8747 13.4894C25.9015 13.4894 25.9232 13.0328 25.9232 12.4695C25.9232 11.9063 25.9015 11.4497 25.8747 11.4497C25.8479 11.4497 25.8261 11.9063 25.8261 12.4695C25.8261 13.0328 25.8479 13.4894 25.8747 13.4894Z" fill="#FF9700"/>
<path d="M25.8747 12.5424C25.1462 12.5424 24.5149 12.506 24.5149 12.506C24.5149 12.4695 25.1462 12.4695 25.8747 12.4695C26.6031 12.4695 27.2345 12.506 27.2345 12.506C27.2345 12.506 26.6517 12.5424 25.8747 12.5424Z" fill="#FF9700"/>
<defs>
<linearGradient id="paint0_linear_4109_43256" x1="16" y1="0.764709" x2="16" y2="25.2353" gradientUnits="userSpaceOnUse">
<stop stop-color="white" stop-opacity="0.7"/>
<stop offset="1" stop-opacity="0.3"/>
</linearGradient>
</defs>
</svg>
