<svg width="18" height="18" viewBox="0 0 18 18" fill="none" xmlns="http://www.w3.org/2000/svg">
<g clip-path="url(#clip0_4049_14411)">
<path d="M16.2263 3.18726C16.1293 1.93514 15.0802 0.945801 13.8036 0.945801H2.43077C1.09044 0.945801 0 2.03624 0 3.37657V14.6232C0 15.9635 1.09044 17.054 2.43077 17.054H15.5693C16.9096 17.054 18 15.9635 18 14.6232V5.52705C18 4.41443 17.2483 3.47469 16.2263 3.18726ZM2.43077 2.08134H13.8037C14.4216 2.08134 14.9395 2.51644 15.068 3.09631H2.43077C1.95487 3.09631 1.51084 3.23431 1.13554 3.47164V3.37657C1.13554 2.66239 1.71659 2.08134 2.43077 2.08134ZM15.5692 15.9184H2.43077C1.71659 15.9184 1.13554 15.3374 1.13554 14.6232V5.52705C1.13554 4.81286 1.71659 4.23182 2.43077 4.23182H15.5693C16.2834 4.23182 16.8645 4.81286 16.8645 5.52705V7.5085H13.244C11.8093 7.5085 10.6421 8.67573 10.6421 10.1104C10.6421 11.5451 11.8094 12.7123 13.244 12.7123H16.8645V14.6232C16.8645 15.3374 16.2834 15.9184 15.5692 15.9184ZM16.8645 11.5768H13.244C12.4355 11.5768 11.7777 10.919 11.7777 10.1104C11.7777 9.30184 12.4355 8.64404 13.244 8.64404H16.8645V11.5768Z" fill="#E73848"/>
<path d="M13.4544 10.7447C13.7809 10.7447 14.0455 10.4801 14.0455 10.1536C14.0455 9.82715 13.7809 9.5625 13.4544 9.5625C13.1279 9.5625 12.8633 9.82715 12.8633 10.1536C12.8633 10.4801 13.1279 10.7447 13.4544 10.7447Z" fill="black" fill-opacity="0.88"/>
</g>
<defs>
<clipPath id="clip0_4049_14411">
<rect width="18" height="18" fill="white"/>
</clipPath>
</defs>
</svg>
