<svg width="34" height="34" viewBox="0 0 34 34" fill="none" xmlns="http://www.w3.org/2000/svg">
<path d="M18.4061 0.126953H15.5936C15.3436 0.126953 15.2186 0.251953 15.2186 0.501953V15.2207H1.25098C1.00098 15.2207 0.875977 15.3457 0.875977 15.5957V18.4082C0.875977 18.6582 1.00098 18.7832 1.25098 18.7832H15.2186V33.502C15.2186 33.752 15.3436 33.877 15.5936 33.877H18.4061C18.6561 33.877 18.7811 33.752 18.7811 33.502V18.7832H32.751C33.001 18.7832 33.126 18.6582 33.126 18.4082V15.5957C33.126 15.3457 33.001 15.2207 32.751 15.2207H18.7811V0.501953C18.7811 0.251953 18.6561 0.126953 18.4061 0.126953Z" fill="#D40054"/>
</svg>
