<svg width="42" height="42" viewBox="0 0 42 42" fill="none" xmlns="http://www.w3.org/2000/svg">
<path d="M3.5 8.22973C3.5 5.61757 5.61757 3.5 8.22973 3.5H33.7703C36.3824 3.5 38.5 5.61757 38.5 8.22973V33.7703C38.5 36.3824 36.3824 38.5 33.7703 38.5H8.22973C5.61757 38.5 3.5 36.3824 3.5 33.7703V8.22973Z" fill="#006ECD" fill-opacity="0.25"/>
<path d="M11.1562 30.8438L30.8438 11.1562M14.4375 18.8125V14.4375M14.4375 14.4375V10.0625M14.4375 14.4375H10.0625M14.4375 14.4375H18.8125M23.1875 28.6562H31.9375M8.22973 38.5H33.7703C36.3824 38.5 38.5 36.3824 38.5 33.7703V8.22973C38.5 5.61757 36.3824 3.5 33.7703 3.5H8.22973C5.61757 3.5 3.5 5.61757 3.5 8.22973V33.7703C3.5 36.3824 5.61757 38.5 8.22973 38.5Z" stroke="#006ECD" stroke-width="2" stroke-linecap="round" stroke-linejoin="round"/>
</svg>
