<svg width="38" height="38" viewBox="0 0 38 38" fill="none" xmlns="http://www.w3.org/2000/svg">
<path d="M1.5 6.22973C1.5 3.61757 3.61757 1.5 6.22973 1.5H31.7703C34.3824 1.5 36.5 3.61757 36.5 6.22973V31.7703C36.5 34.3824 34.3824 36.5 31.7703 36.5H6.22973C3.61757 36.5 1.5 34.3824 1.5 31.7703V6.22973Z" fill="#FCEFF5"/>
<path d="M9.15625 28.8438L28.8438 9.15625M12.4375 16.8125V12.4375M12.4375 12.4375V8.0625M12.4375 12.4375H8.0625M12.4375 12.4375H16.8125M21.1875 26.6562H29.9375M6.22973 36.5H31.7703C34.3824 36.5 36.5 34.3824 36.5 31.7703V6.22973C36.5 3.61757 34.3824 1.5 31.7703 1.5H6.22973C3.61757 1.5 1.5 3.61757 1.5 6.22973V31.7703C1.5 34.3824 3.61757 36.5 6.22973 36.5Z" stroke="#D40054" stroke-width="2" stroke-linecap="round" stroke-linejoin="round"/>
</svg>
