<svg width="100" height="100" viewBox="0 0 100 100" fill="none" xmlns="http://www.w3.org/2000/svg">
<g clip-path="url(#clip0_234_26068)">
<path d="M113 84.0898H-10V84.1513H113V84.0898Z" fill="#EBEBEB"/>
<path d="M100.675 88.0493H92.5273V88.1108H100.675V88.0493Z" fill="#EBEBEB"/>
<path d="M71.4803 88.7173H69.3418V88.7788H71.4803V88.7173Z" fill="#EBEBEB"/>
<path d="M92.2818 85.7651H87.5605V85.8266H92.2818V85.7651Z" fill="#EBEBEB"/>
<path d="M13.5308 86.1782H2.90527V86.2397H13.5308V86.1782Z" fill="#EBEBEB"/>
<path d="M17.2786 86.1782H15.7207V86.2397H17.2786V86.1782Z" fill="#EBEBEB"/>
<path d="M45.3861 87.2173H22.3418V87.2788H45.3861V87.2173Z" fill="#EBEBEB"/>
<path d="M48.3059 73.1187H0.803582C0.0294201 73.1187 -0.600586 72.4887 -0.600586 71.7145V4.94225C-0.600586 4.16809 0.0294201 3.53809 0.803582 3.53809H48.3059C49.0799 3.53809 49.7099 4.16809 49.7099 4.94225V71.7145C49.7099 72.4887 49.0799 73.1187 48.3059 73.1187ZM0.803582 3.59983C0.0631221 3.59983 -0.539086 4.20204 -0.539086 4.9425V71.7148C-0.539086 72.4552 0.0631221 73.0574 0.803582 73.0574H48.3059C49.0462 73.0574 49.6484 72.4552 49.6484 71.7148V4.94225C49.6484 4.20204 49.0462 3.59959 48.3059 3.59959L0.803582 3.59983Z" fill="#EBEBEB"/>
<path d="M101.514 73.1187H54.0123C53.2382 73.1187 52.6084 72.4887 52.6084 71.7145V4.94225C52.6084 4.16809 53.2384 3.53809 54.0123 3.53809H101.514C102.289 3.53809 102.919 4.16809 102.919 4.94225V71.7145C102.919 72.4887 102.289 73.1187 101.514 73.1187ZM54.0123 3.59983C53.2721 3.59983 52.6699 4.20204 52.6699 4.9425V71.7148C52.6699 72.4552 53.2721 73.0574 54.0123 73.0574H101.514C102.255 73.0574 102.857 72.4552 102.857 71.7148V4.94225C102.857 4.20204 102.255 3.59959 101.514 3.59959L54.0123 3.59983Z" fill="#EBEBEB"/>
<path d="M98.6971 83.7776V71.6466H93.0981V60.3963H92.3085V66.8447H90.155V65.0612H86.2788V58.8871H85.561V51.341H84.9868V58.7498H83.623V69.7258H81.0387V58.7498H76.3731V68.0321H71.4747V56.7818H70.6851V63.2302H68.5316V61.4465H64.6556V55.2726H63.9378V47.7266H63.3634V55.1353H61.9996V66.1114H59.4156V55.1353H54.7497V65.7525H51.6034V59.5783H50.8855V52.0323H50.3111V59.4411H48.9473V70.4171H46.3631V59.4411H41.6974V70.4171H39.4005V71.6466H35.3765V60.3963H34.5868V66.8447H32.4333V65.0612H28.5573V58.8871H27.8393V51.341H27.2651V58.7498H26.0135V58.1321H21.3476V58.7498H18.7636V58.1321H17.3998V50.7233H16.8254V58.2694H16.1075V64.4432H12.2313V66.227H10.0778V59.7786H9.28841V71.0289H3.68945V83.7776H98.6971Z" fill="#EBEBEB"/>
<path d="M26.5405 27.3298C30.0285 25.885 31.6847 21.8863 30.24 18.3984C28.7952 14.9105 24.7965 13.2542 21.3086 14.699C17.8207 16.1437 16.1644 20.1424 17.6091 23.6304C19.0539 27.1183 23.0526 28.7746 26.5405 27.3298Z" fill="#FAFAFA"/>
<path d="M20.3784 20.9375C20.3784 20.2811 19.8463 19.7493 19.1902 19.7493C19.0716 19.7493 18.9573 19.7672 18.849 19.7995C18.8662 19.6804 18.8756 19.5586 18.8756 19.4346C18.8756 18.045 17.7489 16.9183 16.3593 16.9183C16.2008 16.9183 16.0461 16.9338 15.8958 16.9616C15.5091 16.3286 14.8136 15.9048 14.0178 15.9048C12.8129 15.9048 11.8356 16.8728 11.8176 18.0735C11.8053 18.0733 11.7932 18.0718 11.7809 18.0718C10.6614 18.0718 9.75391 18.9793 9.75391 20.0988C9.75391 21.2184 10.6614 22.1259 11.7809 22.1259H19.2252L19.2237 22.1242C19.8643 22.1062 20.3784 21.5825 20.3784 20.9375Z" fill="#F0F0F0"/>
<path d="M95.2339 37.4013C95.2339 36.745 94.7018 36.2131 94.0457 36.2131C93.9271 36.2131 93.8127 36.2311 93.7045 36.2633C93.7217 36.1443 93.7311 36.0225 93.7311 35.8985C93.7311 34.5089 92.6044 33.3822 91.2147 33.3822C91.0563 33.3822 90.9016 33.3974 90.7513 33.4255C90.3645 32.7925 89.6694 32.3687 88.8733 32.3687C87.6684 32.3687 86.691 33.3367 86.6731 34.5374C86.6608 34.5371 86.6487 34.5354 86.6364 34.5354C85.5169 34.5354 84.6094 35.4429 84.6094 36.5625C84.6094 37.682 85.5169 38.5895 86.6364 38.5895H94.0804L94.0789 38.5878C94.7197 38.5701 95.2339 38.0463 95.2339 37.4013Z" fill="#F0F0F0"/>
<path d="M60.0391 19.3549C60.0391 18.3165 60.8809 17.4747 61.9192 17.4747C62.1069 17.4747 62.288 17.503 62.459 17.5544C62.4317 17.3657 62.4167 17.1733 62.4167 16.977C62.4167 14.7783 64.1992 12.9958 66.3979 12.9958C66.6486 12.9958 66.8934 13.0201 67.1312 13.0644C67.743 12.0629 68.8432 11.3921 70.1027 11.3921C72.0089 11.3921 73.5553 12.9239 73.5838 14.8235C73.6033 14.8231 73.6222 14.8206 73.6419 14.8206C75.4131 14.8206 76.849 16.2565 76.849 18.0277C76.849 19.7991 75.4131 21.235 73.6419 21.235H61.8637L61.8661 21.2323C60.8526 21.204 60.0391 20.3755 60.0391 19.3549Z" fill="#F0F0F0"/>
<path d="M25.2959 39.8271C25.2959 38.5776 26.3089 37.5646 27.5584 37.5646C27.7844 37.5646 28.0021 37.5988 28.208 37.6603C28.1751 37.4335 28.1574 37.2018 28.1574 36.9656C28.1574 34.3194 30.3025 32.1743 32.9487 32.1743C33.2503 32.1743 33.545 32.2035 33.8314 32.2569C34.5679 31.0518 35.8916 30.2446 37.4072 30.2446C39.7014 30.2446 41.5624 32.0879 41.5964 34.374C41.6197 34.3735 41.6426 34.3705 41.6662 34.3705C43.7978 34.3705 45.5257 36.0984 45.5257 38.23C45.5257 40.3616 43.7978 42.0895 41.6662 42.0895H27.4922L27.4951 42.0863C26.275 42.0526 25.2959 41.0553 25.2959 39.8271Z" fill="#F0F0F0"/>
<path d="M35.2887 24.4975C35.2887 24.0894 34.9578 23.7588 34.55 23.7588C34.4762 23.7588 34.4051 23.7699 34.3379 23.79C34.3487 23.716 34.3544 23.6402 34.3544 23.5632C34.3544 22.6993 33.654 21.9987 32.7901 21.9987C32.6917 21.9987 32.5952 22.0083 32.502 22.0257C32.2617 21.6321 31.8294 21.3687 31.3345 21.3687C30.5854 21.3687 29.9778 21.9706 29.9667 22.717C29.9591 22.7167 29.9517 22.7157 29.9439 22.7157C29.2479 22.7157 28.6836 23.2801 28.6836 23.976C28.6836 24.6719 29.2479 25.2363 29.9439 25.2363H34.5719L34.5709 25.2353C34.9691 25.224 35.2887 24.8985 35.2887 24.4975Z" fill="#F0F0F0"/>
<path d="M8.38184 46.9321C8.38184 46.524 8.71271 46.1934 9.12057 46.1934C9.19437 46.1934 9.26547 46.2044 9.33263 46.2246C9.3218 46.1506 9.31614 46.0748 9.31614 45.9978C9.31614 45.1338 10.0165 44.4335 10.8805 44.4335C10.9789 44.4335 11.0753 44.4431 11.1688 44.4603C11.4091 44.0667 11.8413 43.8032 12.3363 43.8032C13.0854 43.8032 13.693 44.4052 13.704 45.1515C13.7117 45.1513 13.7191 45.1503 13.7269 45.1503C14.4229 45.1503 14.9872 45.7146 14.9872 46.4106C14.9872 47.1065 14.4229 47.6708 13.7269 47.6708H9.09893L9.09991 47.6699C8.70164 47.6588 8.38184 47.3331 8.38184 46.9321Z" fill="#F0F0F0"/>
<path d="M77.6279 49.3432C77.6279 48.9351 77.9588 48.6045 78.3667 48.6045C78.4405 48.6045 78.5116 48.6156 78.5787 48.6357C78.5679 48.5617 78.5622 48.4859 78.5622 48.4089C78.5622 47.545 79.2626 46.8446 80.1266 46.8446C80.225 46.8446 80.3214 46.8542 80.4146 46.8714C80.655 46.4778 81.0872 46.2144 81.5821 46.2144C82.3312 46.2144 82.9388 46.8163 82.9499 47.5627C82.9575 47.5624 82.9649 47.5615 82.9728 47.5615C83.6687 47.5615 84.233 48.1258 84.233 48.8217C84.233 49.5176 83.669 50.082 82.9728 50.082H78.3448L78.3458 50.081C77.9475 50.0697 77.6279 49.7442 77.6279 49.3432Z" fill="#F0F0F0"/>
<path d="M51.4994 95.1998C77.8416 95.1998 99.1961 93.9527 99.1961 92.4144C99.1961 90.876 77.8416 89.6289 51.4994 89.6289C25.1573 89.6289 3.80273 90.876 3.80273 92.4144C3.80273 93.9527 25.1573 95.1998 51.4994 95.1998Z" fill="#F5F5F5"/>
<path d="M85.645 19.7934L75.1273 35.8063L74.6648 36.5104L73.75 36.9357L41.1982 52.0622L44.4157 63.0791L45.1515 65.5982L42.6012 67.7046L20.6403 89.0439H2.46973L35.3247 61.7591L33.3346 50.924L32.7927 47.975L35.3368 46.8035L70.0289 30.831L81.3282 16.8542L78.2953 16.2545L87.8241 12.3008L87.3351 22.606L85.645 19.7934Z" fill="#263238"/>
<path d="M85.645 19.7934L75.1273 35.8063L74.6648 36.5104L73.75 36.9357L41.1982 52.0622L44.4157 63.0791L45.1515 65.5982L42.6012 67.7047L20.6403 89.0439H2.46973L35.3247 61.7591L33.3346 50.924L32.7927 47.975L35.3368 46.8035L70.029 30.831L81.3282 16.8542L78.2953 16.2545L87.8241 12.3008L87.3351 22.606L85.645 19.7934Z" fill="#D9D9D9"/>
<path d="M51.5192 53.072L50.9682 54.1495L50.4073 55.2442L49.4258 54.8851L49.9178 53.9232L50.5377 52.7129L51.5192 53.072Z" fill="#FFC2BC"/>
<path opacity="0.2" d="M51.5194 53.072L50.9684 54.1495L49.918 53.9232L50.5379 52.7129L51.5194 53.072Z" fill="black"/>
<path d="M72.9558 46.8558C72.9558 46.8558 69.734 22.6053 65.7812 11.9004" stroke="#263238" stroke-miterlimit="10" stroke-linecap="round" stroke-linejoin="round"/>
<path d="M66.7266 46.2853L67.7733 46.2429L67.976 43.8174L66.9293 43.8597L66.7266 46.2853Z" fill="#FFC2BC"/>
<path d="M67.8712 45.689L66.7278 45.6538C66.6849 45.6526 66.6468 45.6809 66.6358 45.7222L66.392 46.6423C66.3666 46.7377 66.4362 46.831 66.5351 46.8322C66.9479 46.8378 67.545 46.8322 68.0633 46.8482C68.6694 46.8669 69.0552 46.8386 69.7661 46.8605C70.1959 46.8738 70.3326 46.4447 70.1543 46.4002C69.3422 46.1965 68.8109 46.2342 68.1204 45.7778C68.0451 45.7284 67.9617 45.692 67.8712 45.689Z" fill="#263238"/>
<path opacity="0.2" d="M67.9757 43.8179L67.8714 45.0683L66.8242 45.1106L66.9285 43.8604L67.9757 43.8179Z" fill="black"/>
<path d="M66.3009 37.4954C66.5671 38.0039 66.586 43.3426 66.5865 44.6995H68.3956C68.6271 43.2944 69.7855 35.7505 68.1557 34.6738C66.355 33.4856 61.7892 33.894 61.7892 33.894L61.4596 33.2273L60.8003 31.8989L57.0144 33.306L56.1903 33.6111L55.8508 33.739L55.8213 33.7488C55.8213 33.7488 55.8237 33.7857 55.8311 33.8497V33.8522C55.8434 33.9998 55.8779 34.2974 55.9394 34.6689C56.0033 35.0576 56.0993 35.5274 56.2395 35.9874C56.5888 37.1264 57.2087 38.2039 58.2862 37.8423C58.3329 37.8275 58.3797 37.8078 58.4264 37.7882C58.515 37.7488 58.6109 37.7119 58.7093 37.675C59.4276 37.4167 60.3821 37.247 61.371 37.151C63.6441 36.9321 66.0992 37.1043 66.3009 37.4954Z" fill="#263238"/>
<path d="M68.4755 44.859L66.3624 44.9143L66.3506 44.2344L68.6728 44.1382L68.4755 44.859Z" fill="#224FEE"/>
<path d="M50.5897 54.7197H49.3154C49.2726 54.7197 49.2354 54.7495 49.2256 54.7911L49.0098 55.7202C48.9875 55.8166 49.0622 55.9079 49.1611 55.9062C49.5712 55.8991 49.8706 55.8752 50.3872 55.8752C50.705 55.8752 51.6627 55.9082 52.1016 55.9082C52.5306 55.9082 52.6019 55.4742 52.4228 55.4351C51.6192 55.259 51.0147 55.0159 50.7592 54.7842C50.7127 54.7421 50.6521 54.7197 50.5897 54.7197Z" fill="#263238"/>
<path d="M59.8586 33.739C59.8586 33.739 59.7774 34.0194 59.6397 34.4942C59.5241 34.8976 59.3642 35.4462 59.1772 36.0834C59.0345 36.568 58.8771 37.1067 58.7098 37.675C57.9128 40.3687 56.8992 43.7315 56.3384 45.328C55.2215 48.4965 51.4848 54.1324 51.4848 54.1324L49.6865 53.4731C49.6865 53.4731 52.4466 48.1644 53.3519 44.9517C53.9841 42.7081 54.9755 38.6762 55.6274 35.9677C55.743 35.488 55.8488 35.0477 55.9398 34.6689C56.0456 34.2261 56.1317 33.8644 56.1908 33.6111C56.2547 33.3454 56.2892 33.1953 56.2892 33.1953L57.0149 33.306L59.8586 33.739Z" fill="#263238"/>
<path d="M51.6842 54.2501L49.5674 53.4742L49.8055 52.8442L52.0621 53.5264L51.6842 54.2501Z" fill="#224FEE"/>
<path opacity="0.2" d="M61.4596 33.2273L59.8582 35.0895L59.6392 34.4942L59.4006 33.8448L59.1767 36.0834L56.2395 35.9874L55.627 35.9678C55.7426 35.4881 55.8484 35.0477 55.9394 34.6689C55.8779 34.2974 55.8434 33.9998 55.8311 33.8522V33.8497L55.8508 33.739L56.1903 33.6111C56.2543 33.3454 56.2887 33.1953 56.2887 33.1953L57.0144 33.306L60.8003 31.8989L61.4596 33.2273Z" fill="black"/>
<path opacity="0.2" d="M61.371 37.151C60.2468 37.2592 59.1668 37.4659 58.4264 37.7881C58.3796 37.8078 58.3329 37.8275 58.2861 37.8422L58.5002 36.7894C58.5002 36.7894 60.3353 36.7033 61.371 37.151Z" fill="black"/>
<path d="M47.6323 34.2385L46.9909 35.0894L46.4463 34.0404C46.4463 34.0404 47.0645 33.316 47.4244 33.65L47.6323 34.2385Z" fill="#FFC2BC"/>
<path d="M46.0098 35.4786L45.8477 34.4179L46.4462 34.0405L46.9906 35.0895L46.0098 35.4786Z" fill="#FFC2BC"/>
<path d="M47.8076 34.159L47.6277 34.25L47.3613 33.5775L47.6462 33.439L47.8076 34.159Z" fill="white"/>
<path d="M54.968 28.017C54.8745 28.1769 54.7786 28.3344 54.6802 28.4893C54.4317 28.8928 54.1734 29.2888 53.9028 29.68C53.829 29.7882 53.7552 29.894 53.679 30.0022C53.4527 30.327 53.214 30.6443 52.9582 30.9616C52.8303 31.1191 52.6999 31.279 52.5548 31.4364C52.4145 31.5963 52.2497 31.7611 52.0898 31.9038C51.4379 32.477 50.7393 32.8927 50.0283 33.2642C49.3125 33.6332 48.5892 33.9456 47.8266 34.2039L47.5068 33.4856C47.8266 33.2913 48.1587 33.092 48.4761 32.8854C48.7983 32.6836 49.1157 32.4745 49.4232 32.2581C49.7307 32.0416 50.0333 31.8226 50.3186 31.5939C50.6089 31.37 50.8746 31.124 51.1157 30.8829C51.5658 30.4229 51.9693 29.7489 52.3875 29.1265C52.7983 28.4893 53.3174 27.3725 53.7233 26.7354L54.968 28.017Z" fill="#263238"/>
<path opacity="0.2" d="M54.6797 28.489C54.4312 28.8924 54.1729 29.2885 53.9023 29.6796C53.9023 28.9416 54.323 28.2061 54.323 28.2061C54.4927 28.27 54.6059 28.3684 54.6797 28.489Z" fill="black"/>
<path d="M68.7854 25.3665L68.0713 26.0315L68.1736 26.6472C68.4341 26.9916 69.0336 26.5648 69.1746 26.4568C69.1967 26.4398 69.2204 26.4268 69.2459 26.4162L69.6238 26.262C69.7618 26.2056 69.8427 26.0615 69.8189 25.9144L69.7456 25.4622C69.7165 25.2824 69.5434 25.1633 69.365 25.2L68.9389 25.2876C68.8816 25.2991 68.8285 25.3267 68.7854 25.3665Z" fill="#FFC2BC"/>
<path d="M67.9082 26.0358L68.1035 25.9863L68.2164 26.7007L67.9082 26.7738V26.0358Z" fill="white"/>
<path d="M68.0723 26.7793C67.2851 26.949 66.5028 27.0474 65.7008 27.0991C64.8989 27.1458 64.0871 27.1458 63.2335 26.9859C63.0219 26.9441 62.7956 26.89 62.5939 26.8236C62.3872 26.7596 62.1953 26.6907 62.0035 26.6194C61.6222 26.4792 61.2556 26.3291 60.894 26.1643C60.7489 26.1003 60.6037 26.0339 60.4586 25.9675C60.1289 25.815 59.8042 25.6575 59.4795 25.4927C59.2409 25.3746 59.0047 25.2492 58.7686 25.1188L59.4008 23.6157C60.0773 23.9552 60.8743 24.4152 61.5557 24.7522C62.2322 25.0745 62.9235 25.446 63.5459 25.6083C63.878 25.6944 64.2298 25.7682 64.5938 25.8125C64.9579 25.8642 65.3294 25.8961 65.7033 25.9257C66.0797 25.9552 66.4585 25.9724 66.8374 25.9773C67.2162 25.9945 67.6049 25.9945 67.9788 25.9995L68.0723 26.7793Z" fill="#263238"/>
<path opacity="0.2" d="M60.4586 25.9679C60.1289 25.8153 59.8042 25.6579 59.4795 25.4931L59.3516 24.7944C59.3516 24.7944 60.0477 25.097 60.4586 25.9679Z" fill="black"/>
<path d="M53.9307 26.6004C54.3464 27.5952 54.6586 28.6594 54.8994 29.6852C55.0751 30.436 55.7033 31.1669 55.8111 31.837C56.0787 33.4983 56.1314 33.5201 56.2532 34.0572C57.0042 33.654 59.274 33.1546 60.7985 32.3349C60.861 26.2043 59.216 23.814 59.216 23.814C59.216 23.814 58.6408 23.9512 57.9828 24.2095C57.8962 24.243 57.8081 24.2799 57.7191 24.3188C57.1424 24.5692 56.2148 25.0914 55.5771 25.4695C55.4431 25.5493 55.308 25.6334 55.1769 25.7178C54.51 26.1483 53.9307 26.6004 53.9307 26.6004Z" fill="#224FEE"/>
<path opacity="0.7" d="M53.9307 26.6004C54.3464 27.5952 54.6586 28.6594 54.8994 29.6852C55.0751 30.436 55.7033 31.1669 55.8111 31.837C56.0787 33.4983 56.1314 33.5201 56.2532 34.0572C57.0042 33.654 59.274 33.1546 60.7985 32.3349C60.861 26.2043 59.216 23.814 59.216 23.814C59.216 23.814 58.6408 23.9512 57.9828 24.2095C57.8962 24.243 57.8081 24.2799 57.7191 24.3188C57.1424 24.5692 56.2148 25.0914 55.5771 25.4695C55.4431 25.5493 55.308 25.6334 55.1769 25.7178C54.51 26.1483 53.9307 26.6004 53.9307 26.6004Z" fill="white"/>
<path d="M57.9625 26.4842L58.0541 25.9165L57.6649 25.8906L57.4258 26.1548L57.9625 26.4842Z" fill="#224FEE"/>
<path d="M57.6636 25.8916C56.9403 26.295 56.2245 25.8252 55.762 25.5029C55.7448 25.4906 55.73 25.4808 55.7128 25.4685C55.917 25.1856 55.9367 24.7403 55.8702 24.2729C55.7989 23.7391 55.6169 23.1758 55.4668 22.792L57.1224 23.7416C57.115 23.8547 57.1027 23.9556 57.0978 24.0441C57.0756 24.2582 57.0732 24.4033 57.1913 24.4968C57.2897 24.5755 57.4692 24.6173 57.794 24.6321C57.9834 24.8559 58.1605 25.6136 57.6636 25.8916Z" fill="#FFC2BC"/>
<path d="M55.1772 25.7178C55.1772 25.7178 57.2614 27.8905 58.7853 29.0757C58.7853 29.0757 58.6734 25.23 57.9829 24.2096L59.4011 23.6152C59.4011 23.6152 60.7634 26.6278 60.9582 31.6557L61.5745 32.9209L59.8579 34.6727L59.3037 33.375L58.9386 35.5241L55.3863 35.8405L55.8223 33.375L53.7236 26.7345L55.1772 25.7178Z" fill="#263238"/>
<path d="M57.7754 26.3691C57.7754 26.3691 58.2659 28.0471 58.2334 28.9433L58.8662 29.2717L58.9796 28.7851C58.9796 28.7851 58.4221 26.6223 57.909 26.2427L57.7754 26.3691Z" fill="#224FEE"/>
<path d="M55.2639 25.537C55.2639 25.537 57.8651 28.3933 58.7849 29.0757C58.7849 29.0757 58.517 25.2073 57.9187 24.2347C57.9187 24.2347 58.3293 23.9523 59.2061 24.8069L58.7682 25.6191L59.5468 26.1557C59.5468 26.1557 59.2791 29.0523 58.7682 30.427C58.7682 30.427 58.8289 29.9768 58.8169 29.5512L55.7635 27.8602L55.8996 26.9234L54.7461 26.8747C54.7458 26.8752 54.874 25.7722 55.2639 25.537Z" fill="#263238"/>
<path opacity="0.2" d="M55.2639 25.537C55.2639 25.537 57.8651 28.3933 58.7849 29.0757C58.7849 29.0757 58.517 25.2073 57.9187 24.2347C57.9187 24.2347 58.3293 23.9523 59.2061 24.8069L58.7682 25.6191L59.5468 26.1557C59.5468 26.1557 59.2791 29.0523 58.7682 30.427C58.7682 30.427 58.8289 29.9768 58.8169 29.5512L55.7635 27.8602L55.8996 26.9234L54.7461 26.8747C54.7458 26.8752 54.874 25.7722 55.2639 25.537Z" fill="white"/>
<path d="M65.8593 12.1154C65.8593 12.1154 64.3884 11.9491 63.5611 12.3385C62.7338 12.7277 61.9068 13.9928 60.5685 14.1146C59.2303 14.2364 58.9629 13.7983 58.9629 13.7983C58.9629 13.7983 60.142 15.8907 62.4111 15.8664C64.6802 15.842 65.8561 15.4718 67.1901 16.3138C67.1901 16.3138 66.1623 12.7682 65.8593 12.1154Z" fill="#224FEE"/>
<path opacity="0.2" d="M57.1923 24.4968C57.0546 24.9249 56.7126 25.53 55.9033 25.5153C55.8541 25.5153 55.8073 25.5104 55.7631 25.503C55.7458 25.4907 55.7311 25.4808 55.7139 25.4685C55.918 25.1856 55.9377 24.7404 55.8713 24.273C56.1788 24.0688 56.6044 23.9507 57.0988 24.0442C57.0767 24.2582 57.0742 24.4034 57.1923 24.4968Z" fill="black"/>
<path d="M57.6653 25.8908C57.6653 25.8908 57.6995 26.3476 57.4793 26.7495C57.0252 26.6858 55.6656 26.0037 55.5947 25.4492C55.6166 25.2716 55.8063 25.0977 55.8063 25.0977C55.8063 25.0977 56.5974 25.8398 57.6653 25.8908Z" fill="white"/>
<path d="M57.6653 25.8907C57.6653 25.8907 58.0764 25.9891 58.3551 26.2424C58.483 25.7143 57.9539 24.4422 57.8198 24.3731C57.5499 24.3121 57.1758 24.4818 57.1758 24.4818C57.1758 24.4818 57.9172 25.176 57.6653 25.8907Z" fill="white"/>
<path d="M54.0205 22.2662C53.993 22.6871 54.2562 23.4738 54.7386 23.0795C55.221 22.6849 54.068 21.5427 54.0205 22.2662Z" fill="#263238"/>
<path d="M56.9663 22.1068C57.2716 23.097 57.5008 23.6613 57.1965 24.338C56.739 25.356 55.3705 25.3518 54.7739 24.4704C54.2369 23.677 53.8281 22.1912 54.6354 21.4574C55.4307 20.7344 56.661 21.1167 56.9663 22.1068Z" fill="#FFC2BC"/>
<path d="M57.123 20.8541C57.0239 20.2101 56.2593 20.2999 55.8111 20.6396C55.8074 20.6426 55.8035 20.644 55.7998 20.6467V21.9191C55.9841 21.8251 56.1511 21.7257 56.282 21.6248C56.282 21.6248 56.4554 22.5774 57.0377 22.8484C57.8032 22.1267 57.865 21.0209 57.123 20.8541Z" fill="#263238"/>
<path d="M57.6438 22.7727C57.6602 23.0509 57.5458 23.3099 57.3899 23.4777C57.1552 23.7299 56.8553 23.5636 56.768 23.2482C56.6893 22.9646 56.7163 22.4915 57.0256 22.3562C57.3299 22.2231 57.6248 22.4546 57.6438 22.7727Z" fill="#FFC2BC"/>
<path d="M55.5917 22.9178C55.6215 22.9965 55.6035 23.0759 55.5516 23.0949C55.4997 23.1138 55.4338 23.0654 55.404 22.9864C55.3743 22.9074 55.3922 22.8282 55.4441 22.8093C55.4958 22.7903 55.562 22.8388 55.5917 22.9178Z" fill="#263238"/>
<path d="M54.6969 23.2449C54.7267 23.3239 54.7088 23.4031 54.6571 23.422C54.6052 23.441 54.5393 23.3925 54.5095 23.3135C54.4797 23.2348 54.4977 23.1554 54.5496 23.1364C54.601 23.1175 54.6672 23.1662 54.6969 23.2449Z" fill="#263238"/>
<path d="M54.9952 23.1802C54.9952 23.1802 54.9755 23.6857 54.8555 23.9713C55.0402 24.0439 55.256 23.897 55.256 23.897L54.9952 23.1802Z" fill="#ED893E"/>
<path d="M55.7943 24.0431C55.7636 24.0593 55.7301 24.0743 55.6937 24.0876C55.6809 24.0923 55.6664 24.0859 55.6618 24.0731C55.6568 24.0603 55.6637 24.046 55.6763 24.0414C56.0241 23.9137 56.0955 23.6131 56.0959 23.6099C56.0989 23.5966 56.1122 23.5885 56.1255 23.5914C56.139 23.5944 56.1474 23.6077 56.1444 23.6209C56.1419 23.633 56.0804 23.8923 55.7943 24.0431Z" fill="#263238"/>
<path d="M55.7592 22.5287C55.744 22.5368 55.7248 22.5366 55.7091 22.5265C55.5216 22.4077 55.3543 22.4803 55.3526 22.481C55.3278 22.4921 55.2982 22.481 55.2867 22.4564C55.2754 22.4316 55.2864 22.4023 55.3113 22.3912C55.3201 22.3873 55.53 22.2963 55.7622 22.4439C55.7853 22.4586 55.7922 22.4891 55.7777 22.512C55.7728 22.5191 55.7664 22.5248 55.7592 22.5287Z" fill="#263238"/>
<path d="M54.1951 23.0796C54.1868 23.084 54.1772 23.086 54.1671 23.085C54.1398 23.0823 54.1196 23.0582 54.1223 23.0311C54.1479 22.759 54.3501 22.654 54.3585 22.6481C54.3828 22.6356 54.4128 22.6451 54.4256 22.6693C54.4384 22.6934 54.4291 22.7229 54.4052 22.7357C54.3966 22.7396 54.2421 22.8228 54.2214 23.041C54.2195 23.0579 54.2094 23.0722 54.1951 23.0796Z" fill="#263238"/>
<path d="M56.2827 21.6248C56.2827 21.6248 55.6586 22.2676 55.0564 22.2351C55.0564 22.2351 55.3096 22.1289 55.4982 21.9306C55.4982 21.9306 54.3083 22.446 53.7243 22.1702C53.1403 21.8944 53.2053 21.6123 53.2053 21.6123C53.2053 21.6123 53.2702 21.7808 53.8377 21.7645C53.8377 21.7645 53.3511 21.4401 53.5457 20.9859C53.5457 20.9859 53.6269 21.1643 53.8377 21.1805C53.8377 21.1805 54.3182 20.2885 55.5944 20.1424C56.8707 19.9965 57.1312 20.5026 57.1875 20.874C57.2443 21.2457 56.2827 21.6248 56.2827 21.6248Z" fill="#263238"/>
<path d="M80.1455 88.0498H62.7309C62.5592 88.0498 62.4199 88.189 62.4199 88.3608V92.3285C62.4199 92.5002 62.5592 92.6394 62.7309 92.6394H80.1455C80.3172 92.6394 80.4564 92.5002 80.4564 92.3285V88.3608C80.4562 88.189 80.3172 88.0498 80.1455 88.0498Z" fill="#224FEE"/>
<path opacity="0.2" d="M63.9392 88.3145H63.2256V92.4145H63.9392V88.3145Z" fill="black"/>
<path opacity="0.2" d="M65.5611 88.2949H65.042V92.395H65.5611V88.2949Z" fill="black"/>
<path opacity="0.2" d="M67.0535 88.3145H66.7939V92.4145H67.0535V88.3145Z" fill="black"/>
<path opacity="0.2" d="M69.0652 88.2949H68.9355V92.395H69.0652V88.2949Z" fill="black"/>
<path opacity="0.2" d="M78.9358 92.3945H79.6494V88.2944H78.9358V92.3945Z" fill="black"/>
<path opacity="0.2" d="M77.3139 92.415H77.833V88.315H77.3139V92.415Z" fill="black"/>
<path opacity="0.2" d="M75.8215 92.3945H76.0811V88.2944H75.8215V92.3945Z" fill="black"/>
<path opacity="0.2" d="M73.8108 92.415H73.9404V88.315H73.8108V92.415Z" fill="black"/>
<path opacity="0.2" d="M71.4058 92.415H71.4707V88.315H71.4058V92.415Z" fill="black"/>
<path opacity="0.2" d="M79.9746 88.7484H62.9394C62.8198 88.7484 62.7227 88.6515 62.7227 88.5317C62.7227 88.4121 62.8196 88.3149 62.9394 88.3149H79.9746C80.0942 88.3149 80.1914 88.4119 80.1914 88.5317C80.1911 88.6515 80.0942 88.7484 79.9746 88.7484Z" fill="white"/>
<path d="M80.6386 83.4707H63.224C63.0523 83.4707 62.9131 83.6099 62.9131 83.7816V87.7494C62.9131 87.9211 63.0523 88.0603 63.224 88.0603H80.6386C80.8103 88.0603 80.9496 87.9211 80.9496 87.7494V83.7816C80.9496 83.6099 80.8103 83.4707 80.6386 83.4707Z" fill="#224FEE"/>
<path opacity="0.2" d="M64.4343 83.7358H63.7207V87.8359H64.4343V83.7358Z" fill="black"/>
<path opacity="0.2" d="M66.0562 83.7153H65.5371V87.8154H66.0562V83.7153Z" fill="black"/>
<path opacity="0.2" d="M67.5486 83.7358H67.2891V87.8359H67.5486V83.7358Z" fill="black"/>
<path opacity="0.2" d="M69.5593 83.7153H69.4297V87.8154H69.5593V83.7153Z" fill="black"/>
<path opacity="0.2" d="M79.4299 87.8154H80.1436V83.7153H79.4299V87.8154Z" fill="black"/>
<path opacity="0.2" d="M77.8081 87.8354H78.3271V83.7354H77.8081V87.8354Z" fill="black"/>
<path opacity="0.2" d="M76.3157 87.8154H76.5752V83.7153H76.3157V87.8154Z" fill="black"/>
<path opacity="0.2" d="M74.3059 87.8354H74.4355V83.7354H74.3059V87.8354Z" fill="black"/>
<path opacity="0.2" d="M71.8989 87.8354H71.9639V83.7354H71.8989V87.8354Z" fill="black"/>
<path opacity="0.2" d="M80.4678 84.1693H63.4325C63.313 84.1693 63.2158 84.0724 63.2158 83.9526C63.2158 83.8328 63.3127 83.7358 63.4325 83.7358H80.4678C80.5874 83.7358 80.6845 83.8328 80.6845 83.9526C80.6845 84.0721 80.5874 84.1693 80.4678 84.1693Z" fill="white"/>
<path d="M80.6386 78.8916H63.224C63.0523 78.8916 62.9131 79.0308 62.9131 79.2025V83.1703C62.9131 83.342 63.0523 83.4812 63.224 83.4812H80.6386C80.8103 83.4812 80.9496 83.342 80.9496 83.1703V79.2025C80.9496 79.0308 80.8103 78.8916 80.6386 78.8916Z" fill="#224FEE"/>
<path opacity="0.2" d="M64.4343 79.1562H63.7207V83.2563H64.4343V79.1562Z" fill="black"/>
<path opacity="0.2" d="M66.0562 79.1362H65.5371V83.2363H66.0562V79.1362Z" fill="black"/>
<path opacity="0.2" d="M67.5486 79.1562H67.2891V83.2563H67.5486V79.1562Z" fill="black"/>
<path opacity="0.2" d="M69.5593 79.1362H69.4297V83.2363H69.5593V79.1362Z" fill="black"/>
<path opacity="0.2" d="M79.4299 83.2363H80.1436V79.1362H79.4299V83.2363Z" fill="black"/>
<path opacity="0.2" d="M77.8081 83.2563H78.3271V79.1563H77.8081V83.2563Z" fill="black"/>
<path opacity="0.2" d="M76.3157 83.2363H76.5752V79.1362H76.3157V83.2363Z" fill="black"/>
<path opacity="0.2" d="M74.3059 83.2563H74.4355V79.1563H74.3059V83.2563Z" fill="black"/>
<path opacity="0.2" d="M71.8989 83.2568H71.9639V79.1568H71.8989V83.2568Z" fill="black"/>
<path opacity="0.2" d="M80.4678 79.5902H63.4325C63.313 79.5902 63.2158 79.4933 63.2158 79.3735C63.2158 79.2539 63.3127 79.1567 63.4325 79.1567H80.4678C80.5874 79.1567 80.6845 79.2537 80.6845 79.3735C80.6845 79.4933 80.5874 79.5902 80.4678 79.5902Z" fill="white"/>
<path d="M80.1455 74.3125H62.7309C62.5592 74.3125 62.4199 74.4517 62.4199 74.6234V78.5912C62.4199 78.7629 62.5592 78.9021 62.7309 78.9021H80.1455C80.3172 78.9021 80.4564 78.7629 80.4564 78.5912V74.6234C80.4562 74.4517 80.3172 74.3125 80.1455 74.3125Z" fill="#224FEE"/>
<path opacity="0.2" d="M63.9392 74.5776H63.2256V78.6777H63.9392V74.5776Z" fill="black"/>
<path opacity="0.2" d="M65.5611 74.5571H65.042V78.6572H65.5611V74.5571Z" fill="black"/>
<path opacity="0.2" d="M67.0535 74.5776H66.7939V78.6777H67.0535V74.5776Z" fill="black"/>
<path opacity="0.2" d="M69.0652 74.5571H68.9355V78.6572H69.0652V74.5571Z" fill="black"/>
<path opacity="0.2" d="M78.9358 78.6572H79.6494V74.5571H78.9358V78.6572Z" fill="black"/>
<path opacity="0.2" d="M77.3139 78.6772H77.833V74.5772H77.3139V78.6772Z" fill="black"/>
<path opacity="0.2" d="M75.8215 78.6572H76.0811V74.5571H75.8215V78.6572Z" fill="black"/>
<path opacity="0.2" d="M73.8108 78.6772H73.9404V74.5772H73.8108V78.6772Z" fill="black"/>
<path opacity="0.2" d="M71.4058 78.6772H71.4707V74.5772H71.4058V78.6772Z" fill="black"/>
<path opacity="0.2" d="M79.9746 75.0106H62.9394C62.8198 75.0106 62.7227 74.9137 62.7227 74.7939C62.7227 74.6741 62.8196 74.5771 62.9394 74.5771H79.9746C80.0942 74.5771 80.1914 74.6741 80.1914 74.7939C80.1911 74.9137 80.0942 75.0106 79.9746 75.0106Z" fill="white"/>
<path d="M79.4072 69.7329H61.9926C61.8209 69.7329 61.6816 69.8721 61.6816 70.0438V74.0116C61.6816 74.1833 61.8209 74.3225 61.9926 74.3225H79.4072C79.5789 74.3225 79.7181 74.1833 79.7181 74.0116V70.0438C79.7179 69.8721 79.5789 69.7329 79.4072 69.7329Z" fill="#224FEE"/>
<path opacity="0.2" d="M63.2019 69.9976H62.4883V74.0976H63.2019V69.9976Z" fill="black"/>
<path opacity="0.2" d="M64.8228 69.9775H64.3037V74.0776H64.8228V69.9775Z" fill="black"/>
<path opacity="0.2" d="M66.3152 69.9976H66.0557V74.0976H66.3152V69.9976Z" fill="black"/>
<path opacity="0.2" d="M68.3269 69.9775H68.1973V74.0776H68.3269V69.9775Z" fill="black"/>
<path opacity="0.2" d="M78.1975 74.0776H78.9111V69.9776H78.1975V74.0776Z" fill="black"/>
<path opacity="0.2" d="M76.5757 74.0977H77.0947V69.9976H76.5757V74.0977Z" fill="black"/>
<path opacity="0.2" d="M75.0842 74.0776H75.3438V69.9776H75.0842V74.0776Z" fill="black"/>
<path opacity="0.2" d="M73.0725 74.0977H73.2021V69.9976H73.0725V74.0977Z" fill="black"/>
<path opacity="0.2" d="M70.6675 74.0981H70.7324V69.9981H70.6675V74.0981Z" fill="black"/>
<path opacity="0.2" d="M79.2364 70.4315H62.2011C62.0815 70.4315 61.9844 70.3346 61.9844 70.2148C61.9844 70.0952 62.0813 69.998 62.2011 69.998H79.2364C79.3559 69.998 79.4531 70.095 79.4531 70.2148C79.4531 70.3343 79.3559 70.4315 79.2364 70.4315Z" fill="white"/>
<path d="M80.1455 65.1543H62.7309C62.5592 65.1543 62.4199 65.2935 62.4199 65.4652V69.433C62.4199 69.6047 62.5592 69.7439 62.7309 69.7439H80.1455C80.3172 69.7439 80.4564 69.6047 80.4564 69.433V65.4652C80.4562 65.2933 80.3172 65.1543 80.1455 65.1543Z" fill="#224FEE"/>
<path opacity="0.2" d="M63.9392 65.4194H63.2256V69.5195H63.9392V65.4194Z" fill="black"/>
<path opacity="0.2" d="M65.5611 65.3989H65.042V69.499H65.5611V65.3989Z" fill="black"/>
<path opacity="0.2" d="M67.0535 65.4194H66.7939V69.5195H67.0535V65.4194Z" fill="black"/>
<path opacity="0.2" d="M69.0652 65.3989H68.9355V69.499H69.0652V65.3989Z" fill="black"/>
<path opacity="0.2" d="M78.9358 69.499H79.6494V65.3989H78.9358V69.499Z" fill="black"/>
<path opacity="0.2" d="M77.3139 69.519H77.833V65.419H77.3139V69.519Z" fill="black"/>
<path opacity="0.2" d="M75.8215 69.499H76.0811V65.3989H75.8215V69.499Z" fill="black"/>
<path opacity="0.2" d="M73.8108 69.519H73.9404V65.419H73.8108V69.519Z" fill="black"/>
<path opacity="0.2" d="M71.4058 69.519H71.4707V65.419H71.4058V69.519Z" fill="black"/>
<path opacity="0.2" d="M79.9746 65.8524H62.9394C62.8198 65.8524 62.7227 65.7555 62.7227 65.6357C62.7227 65.5161 62.8196 65.4189 62.9394 65.4189H79.9746C80.0942 65.4189 80.1914 65.5159 80.1914 65.6357C80.1911 65.7555 80.0942 65.8524 79.9746 65.8524Z" fill="white"/>
<path d="M80.1455 60.5747H62.7309C62.5592 60.5747 62.4199 60.7139 62.4199 60.8857V64.8534C62.4199 65.0251 62.5592 65.1643 62.7309 65.1643H80.1455C80.3172 65.1643 80.4564 65.0251 80.4564 64.8534V60.8857C80.4562 60.7139 80.3172 60.5747 80.1455 60.5747Z" fill="#224FEE"/>
<path opacity="0.2" d="M63.9392 60.8394H63.2256V64.9394H63.9392V60.8394Z" fill="black"/>
<path opacity="0.2" d="M65.5611 60.8193H65.042V64.9194H65.5611V60.8193Z" fill="black"/>
<path opacity="0.2" d="M67.0535 60.8394H66.7939V64.9394H67.0535V60.8394Z" fill="black"/>
<path opacity="0.2" d="M69.0652 60.8193H68.9355V64.9194H69.0652V60.8193Z" fill="black"/>
<path opacity="0.2" d="M78.9358 64.9194H79.6494V60.8194H78.9358V64.9194Z" fill="black"/>
<path opacity="0.2" d="M77.3139 64.9395H77.833V60.8394H77.3139V64.9395Z" fill="black"/>
<path opacity="0.2" d="M75.8215 64.9194H76.0811V60.8194H75.8215V64.9194Z" fill="black"/>
<path opacity="0.2" d="M73.8108 64.9395H73.9404V60.8394H73.8108V64.9395Z" fill="black"/>
<path opacity="0.2" d="M71.4058 64.9395H71.4707V60.8394H71.4058V64.9395Z" fill="black"/>
<path opacity="0.2" d="M79.9746 61.2733H62.9394C62.8198 61.2733 62.7227 61.1764 62.7227 61.0566C62.7227 60.937 62.8196 60.8398 62.9394 60.8398H79.9746C80.0942 60.8398 80.1914 60.9368 80.1914 61.0566C80.1911 61.1761 80.0942 61.2733 79.9746 61.2733Z" fill="white"/>
<path d="M80.8847 55.9956H63.4701C63.2984 55.9956 63.1592 56.1348 63.1592 56.3066V60.2743C63.1592 60.446 63.2984 60.5852 63.4701 60.5852H80.8847C81.0564 60.5852 81.1957 60.446 81.1957 60.2743V56.3066C81.1957 56.1346 81.0564 55.9956 80.8847 55.9956Z" fill="#224FEE"/>
<path opacity="0.2" d="M64.6795 56.2607H63.9658V60.3608H64.6795V56.2607Z" fill="black"/>
<path opacity="0.2" d="M66.3013 56.2402H65.7822V60.3403H66.3013V56.2402Z" fill="black"/>
<path opacity="0.2" d="M67.7937 56.2607H67.5342V60.3608H67.7937V56.2607Z" fill="black"/>
<path opacity="0.2" d="M69.8044 56.2402H69.6748V60.3403H69.8044V56.2402Z" fill="black"/>
<path opacity="0.2" d="M79.676 60.3403H80.3896V56.2402H79.676V60.3403Z" fill="black"/>
<path opacity="0.2" d="M78.0542 60.3604H78.5732V56.2603H78.0542V60.3604Z" fill="black"/>
<path opacity="0.2" d="M76.5618 60.3403H76.8213V56.2402H76.5618V60.3403Z" fill="black"/>
<path opacity="0.2" d="M74.551 60.3604H74.6807V56.2603H74.551V60.3604Z" fill="black"/>
<path opacity="0.2" d="M72.145 60.3604H72.21V56.2603H72.145V60.3604Z" fill="black"/>
<path opacity="0.2" d="M80.7139 56.6937H63.6786C63.5591 56.6937 63.4619 56.5968 63.4619 56.477C63.4619 56.3574 63.5588 56.2603 63.6786 56.2603H80.7139C80.8337 56.2603 80.9306 56.3572 80.9306 56.477C80.9306 56.5968 80.8337 56.6937 80.7139 56.6937Z" fill="white"/>
<path d="M79.6533 51.4165H62.2387C62.067 51.4165 61.9277 51.5557 61.9277 51.7274V55.6952C61.9277 55.8669 62.067 56.0061 62.2387 56.0061H79.6533C79.825 56.0061 79.9642 55.8669 79.9642 55.6952V51.7274C79.9642 51.5557 79.825 51.4165 79.6533 51.4165Z" fill="#224FEE"/>
<path opacity="0.2" d="M63.448 51.6816H62.7344V55.7817H63.448V51.6816Z" fill="black"/>
<path opacity="0.2" d="M65.0698 51.6611H64.5508V55.7612H65.0698V51.6611Z" fill="black"/>
<path opacity="0.2" d="M66.5623 51.6812H66.3027V55.7812H66.5623V51.6812Z" fill="black"/>
<path opacity="0.2" d="M68.573 51.6611H68.4434V55.7612H68.573V51.6611Z" fill="black"/>
<path opacity="0.2" d="M78.4436 55.7612H79.1572V51.6612H78.4436V55.7612Z" fill="black"/>
<path opacity="0.2" d="M76.8227 55.7812H77.3418V51.6812H76.8227V55.7812Z" fill="black"/>
<path opacity="0.2" d="M75.3303 55.7612H75.5898V51.6612H75.3303V55.7612Z" fill="black"/>
<path opacity="0.2" d="M73.3196 55.7812H73.4492V51.6812H73.3196V55.7812Z" fill="black"/>
<path opacity="0.2" d="M70.9136 55.7812H70.9785V51.6812H70.9136V55.7812Z" fill="black"/>
<path opacity="0.2" d="M79.4824 52.1151H62.4472C62.3274 52.1151 62.2305 52.0182 62.2305 51.8984C62.2305 51.7788 62.3274 51.6816 62.4472 51.6816H79.4824C79.602 51.6816 79.6992 51.7786 79.6992 51.8984C79.6992 52.0179 79.6023 52.1151 79.4824 52.1151Z" fill="white"/>
<path d="M79.1611 46.8374H61.7465C61.5748 46.8374 61.4355 46.9766 61.4355 47.1483V51.1161C61.4355 51.2878 61.5748 51.427 61.7465 51.427H79.1611C79.3328 51.427 79.472 51.2878 79.472 51.1161V47.1483C79.472 46.9764 79.3328 46.8374 79.1611 46.8374Z" fill="#224FEE"/>
<path opacity="0.2" d="M62.9558 47.1025H62.2422V51.2026H62.9558V47.1025Z" fill="black"/>
<path opacity="0.2" d="M64.5777 47.0825H64.0586V51.1826H64.5777V47.0825Z" fill="black"/>
<path opacity="0.2" d="M66.0701 47.1021H65.8105V51.2021H66.0701V47.1021Z" fill="black"/>
<path opacity="0.2" d="M68.0808 47.0825H67.9512V51.1826H68.0808V47.0825Z" fill="black"/>
<path opacity="0.2" d="M77.9524 51.1821H78.666V47.082H77.9524V51.1821Z" fill="black"/>
<path opacity="0.2" d="M76.3306 51.2026H76.8496V47.1026H76.3306V51.2026Z" fill="black"/>
<path opacity="0.2" d="M74.8381 51.1821H75.0977V47.082H74.8381V51.1821Z" fill="black"/>
<path opacity="0.2" d="M72.8274 51.2026H72.957V47.1026H72.8274V51.2026Z" fill="black"/>
<path opacity="0.2" d="M70.4216 51.2021H70.4863V47.1021H70.4216V51.2021Z" fill="black"/>
<path opacity="0.2" d="M78.9903 47.5355H61.955C61.8355 47.5355 61.7383 47.4386 61.7383 47.3188C61.7383 47.1992 61.8352 47.1021 61.955 47.1021H78.9903C79.1101 47.1021 79.207 47.199 79.207 47.3188C79.207 47.4386 79.1101 47.5355 78.9903 47.5355Z" fill="white"/>
<path d="M57.9921 88.0498H40.5775C40.4058 88.0498 40.2666 88.189 40.2666 88.3608V92.3285C40.2666 92.5002 40.4058 92.6394 40.5775 92.6394H57.9921C58.1638 92.6394 58.3031 92.5002 58.3031 92.3285V88.3608C58.3031 88.189 58.1638 88.0498 57.9921 88.0498Z" fill="#224FEE"/>
<path opacity="0.2" d="M41.7869 88.3149H41.0732V92.415H41.7869V88.3149Z" fill="black"/>
<path opacity="0.2" d="M43.4087 88.2949H42.8896V92.395H43.4087V88.2949Z" fill="black"/>
<path opacity="0.2" d="M44.9011 88.3145H44.6416V92.4145H44.9011V88.3145Z" fill="black"/>
<path opacity="0.2" d="M46.9119 88.2949H46.7822V92.395H46.9119V88.2949Z" fill="black"/>
<path opacity="0.2" d="M56.7834 92.3945H57.4971V88.2944H56.7834V92.3945Z" fill="black"/>
<path opacity="0.2" d="M55.1606 92.415H55.6797V88.315H55.1606V92.415Z" fill="black"/>
<path opacity="0.2" d="M53.6692 92.3945H53.9287V88.2944H53.6692V92.3945Z" fill="black"/>
<path opacity="0.2" d="M51.6584 92.415H51.7881V88.315H51.6584V92.415Z" fill="black"/>
<path opacity="0.2" d="M49.2515 92.415H49.3164V88.315H49.2515V92.415Z" fill="black"/>
<path opacity="0.2" d="M57.8206 88.7484H40.7851C40.6655 88.7484 40.5684 88.6515 40.5684 88.5317C40.5684 88.4121 40.6653 88.3149 40.7851 88.3149H57.8206C57.9401 88.3149 58.0373 88.4119 58.0373 88.5317C58.0373 88.6515 57.9401 88.7484 57.8206 88.7484Z" fill="white"/>
<path d="M57.2539 83.4707H39.8393C39.6676 83.4707 39.5283 83.6099 39.5283 83.7816V87.7494C39.5283 87.9211 39.6676 88.0603 39.8393 88.0603H57.2539C57.4256 88.0603 57.5648 87.9211 57.5648 87.7494V83.7816C57.5648 83.6099 57.4256 83.4707 57.2539 83.4707Z" fill="#224FEE"/>
<path opacity="0.2" d="M41.0486 83.7354H40.335V87.8354H41.0486V83.7354Z" fill="black"/>
<path opacity="0.2" d="M42.6704 83.7153H42.1514V87.8154H42.6704V83.7153Z" fill="black"/>
<path opacity="0.2" d="M44.1629 83.7358H43.9033V87.8359H44.1629V83.7358Z" fill="black"/>
<path opacity="0.2" d="M46.1736 83.7153H46.0439V87.8154H46.1736V83.7153Z" fill="black"/>
<path opacity="0.2" d="M56.0451 87.8154H56.7588V83.7153H56.0451V87.8154Z" fill="black"/>
<path opacity="0.2" d="M54.4223 87.8354H54.9414V83.7354H54.4223V87.8354Z" fill="black"/>
<path opacity="0.2" d="M52.9309 87.8154H53.1904V83.7153H52.9309V87.8154Z" fill="black"/>
<path opacity="0.2" d="M50.9202 87.8354H51.0498V83.7354H50.9202V87.8354Z" fill="black"/>
<path opacity="0.2" d="M48.5142 87.8354H48.5791V83.7354H48.5142V87.8354Z" fill="black"/>
<path opacity="0.2" d="M57.083 84.1693H40.0478C39.9282 84.1693 39.8311 84.0724 39.8311 83.9526C39.8311 83.8328 39.928 83.7358 40.0478 83.7358H57.083C57.2026 83.7358 57.2998 83.8328 57.2998 83.9526C57.2998 84.0721 57.2028 84.1693 57.083 84.1693Z" fill="white"/>
<path d="M57.9921 78.8916H40.5775C40.4058 78.8916 40.2666 79.0308 40.2666 79.2025V83.1703C40.2666 83.342 40.4058 83.4812 40.5775 83.4812H57.9921C58.1638 83.4812 58.3031 83.342 58.3031 83.1703V79.2025C58.3031 79.0308 58.1638 78.8916 57.9921 78.8916Z" fill="#224FEE"/>
<path opacity="0.2" d="M41.7869 79.1567H41.0732V83.2568H41.7869V79.1567Z" fill="black"/>
<path opacity="0.2" d="M43.4087 79.1362H42.8896V83.2363H43.4087V79.1362Z" fill="black"/>
<path opacity="0.2" d="M44.9011 79.1562H44.6416V83.2563H44.9011V79.1562Z" fill="black"/>
<path opacity="0.2" d="M46.9119 79.1362H46.7822V83.2363H46.9119V79.1362Z" fill="black"/>
<path opacity="0.2" d="M56.7834 83.2363H57.4971V79.1362H56.7834V83.2363Z" fill="black"/>
<path opacity="0.2" d="M55.1606 83.2563H55.6797V79.1563H55.1606V83.2563Z" fill="black"/>
<path opacity="0.2" d="M53.6692 83.2363H53.9287V79.1362H53.6692V83.2363Z" fill="black"/>
<path opacity="0.2" d="M51.6584 83.2563H51.7881V79.1563H51.6584V83.2563Z" fill="black"/>
<path opacity="0.2" d="M49.2515 83.2568H49.3164V79.1568H49.2515V83.2568Z" fill="black"/>
<path opacity="0.2" d="M57.8206 79.5902H40.7851C40.6655 79.5902 40.5684 79.4933 40.5684 79.3735C40.5684 79.2539 40.6653 79.1567 40.7851 79.1567H57.8206C57.9401 79.1567 58.0373 79.2537 58.0373 79.3735C58.0373 79.4933 57.9401 79.5902 57.8206 79.5902Z" fill="white"/>
<path d="M57.4999 74.3125H40.0854C39.9137 74.3125 39.7744 74.4517 39.7744 74.6234V78.5912C39.7744 78.7629 39.9137 78.9021 40.0854 78.9021H57.4999C57.6717 78.9021 57.8109 78.7629 57.8109 78.5912V74.6234C57.8106 74.4517 57.6717 74.3125 57.4999 74.3125Z" fill="#224FEE"/>
<path opacity="0.2" d="M41.2937 74.5776H40.5801V78.6777H41.2937V74.5776Z" fill="black"/>
<path opacity="0.2" d="M42.9155 74.5571H42.3965V78.6572H42.9155V74.5571Z" fill="black"/>
<path opacity="0.2" d="M44.408 74.5776H44.1484V78.6777H44.408V74.5776Z" fill="black"/>
<path opacity="0.2" d="M46.4187 74.5571H46.2891V78.6572H46.4187V74.5571Z" fill="black"/>
<path opacity="0.2" d="M56.2903 78.6572H57.0039V74.5571H56.2903V78.6572Z" fill="black"/>
<path opacity="0.2" d="M54.6684 78.6772H55.1875V74.5772H54.6684V78.6772Z" fill="black"/>
<path opacity="0.2" d="M53.176 78.6572H53.4355V74.5571H53.176V78.6572Z" fill="black"/>
<path opacity="0.2" d="M51.1653 78.6772H51.2949V74.5772H51.1653V78.6772Z" fill="black"/>
<path opacity="0.2" d="M48.7602 78.6772H48.8252V74.5772H48.7602V78.6772Z" fill="black"/>
<path opacity="0.2" d="M57.3291 75.0106H40.2939C40.1743 75.0106 40.0771 74.9137 40.0771 74.7939C40.0771 74.6741 40.1741 74.5771 40.2939 74.5771H57.3291C57.4487 74.5771 57.5459 74.6741 57.5459 74.7939C57.5459 74.9137 57.4487 75.0106 57.3291 75.0106Z" fill="white"/>
<path d="M57.4999 69.7329H40.0854C39.9137 69.7329 39.7744 69.8721 39.7744 70.0438V74.0116C39.7744 74.1833 39.9137 74.3225 40.0854 74.3225H57.4999C57.6717 74.3225 57.8109 74.1833 57.8109 74.0116V70.0438C57.8106 69.8721 57.6717 69.7329 57.4999 69.7329Z" fill="#224FEE"/>
<path opacity="0.2" d="M41.2937 69.998H40.5801V74.0981H41.2937V69.998Z" fill="black"/>
<path opacity="0.2" d="M42.9155 69.9775H42.3965V74.0776H42.9155V69.9775Z" fill="black"/>
<path opacity="0.2" d="M44.408 69.9976H44.1484V74.0976H44.408V69.9976Z" fill="black"/>
<path opacity="0.2" d="M46.4187 69.9775H46.2891V74.0776H46.4187V69.9775Z" fill="black"/>
<path opacity="0.2" d="M56.2903 74.0776H57.0039V69.9776H56.2903V74.0776Z" fill="black"/>
<path opacity="0.2" d="M54.6684 74.0977H55.1875V69.9976H54.6684V74.0977Z" fill="black"/>
<path opacity="0.2" d="M53.176 74.0776H53.4355V69.9776H53.176V74.0776Z" fill="black"/>
<path opacity="0.2" d="M51.1653 74.0977H51.2949V69.9976H51.1653V74.0977Z" fill="black"/>
<path opacity="0.2" d="M48.7602 74.0981H48.8252V69.9981H48.7602V74.0981Z" fill="black"/>
<path opacity="0.2" d="M57.3291 70.4315H40.2939C40.1743 70.4315 40.0771 70.3346 40.0771 70.2148C40.0771 70.0952 40.1741 69.998 40.2939 69.998H57.3291C57.4487 69.998 57.5459 70.095 57.5459 70.2148C57.5459 70.3343 57.4487 70.4315 57.3291 70.4315Z" fill="white"/>
<path d="M57.4999 65.1543H40.0854C39.9137 65.1543 39.7744 65.2935 39.7744 65.4652V69.433C39.7744 69.6047 39.9137 69.7439 40.0854 69.7439H57.4999C57.6717 69.7439 57.8109 69.6047 57.8109 69.433V65.4652C57.8106 65.2933 57.6717 65.1543 57.4999 65.1543Z" fill="#224FEE"/>
<path opacity="0.2" d="M41.2937 65.4194H40.5801V69.5195H41.2937V65.4194Z" fill="black"/>
<path opacity="0.2" d="M42.9155 65.3989H42.3965V69.499H42.9155V65.3989Z" fill="black"/>
<path opacity="0.2" d="M44.408 65.4194H44.1484V69.5195H44.408V65.4194Z" fill="black"/>
<path opacity="0.2" d="M46.4187 65.3989H46.2891V69.499H46.4187V65.3989Z" fill="black"/>
<path opacity="0.2" d="M56.2903 69.499H57.0039V65.3989H56.2903V69.499Z" fill="black"/>
<path opacity="0.2" d="M54.6684 69.519H55.1875V65.419H54.6684V69.519Z" fill="black"/>
<path opacity="0.2" d="M53.176 69.499H53.4355V65.3989H53.176V69.499Z" fill="black"/>
<path opacity="0.2" d="M51.1653 69.519H51.2949V65.419H51.1653V69.519Z" fill="black"/>
<path opacity="0.2" d="M48.7602 69.519H48.8252V65.419H48.7602V69.519Z" fill="black"/>
<path opacity="0.2" d="M57.3291 65.8524H40.2939C40.1743 65.8524 40.0771 65.7555 40.0771 65.6357C40.0771 65.5161 40.1741 65.4189 40.2939 65.4189H57.3291C57.4487 65.4189 57.5459 65.5159 57.5459 65.6357C57.5459 65.7555 57.4487 65.8524 57.3291 65.8524Z" fill="white"/>
<path d="M57.7138 55.9468H40.2992C40.1275 55.9468 39.9883 56.086 39.9883 56.2577V60.2255C39.9883 60.3972 40.1275 60.5364 40.2992 60.5364H57.7138C57.8855 60.5364 58.0248 60.3972 58.0248 60.2255V56.2577C58.0245 56.086 57.8855 55.9468 57.7138 55.9468Z" fill="#224FEE"/>
<path opacity="0.2" d="M41.5086 56.2119H40.7949V60.312H41.5086V56.2119Z" fill="black"/>
<path opacity="0.2" d="M43.1304 56.1914H42.6113V60.2915H43.1304V56.1914Z" fill="black"/>
<path opacity="0.2" d="M44.6228 56.2119H44.3633V60.312H44.6228V56.2119Z" fill="black"/>
<path opacity="0.2" d="M46.6335 56.1914H46.5039V60.2915H46.6335V56.1914Z" fill="black"/>
<path opacity="0.2" d="M56.5041 60.2915H57.2178V56.1914H56.5041V60.2915Z" fill="black"/>
<path opacity="0.2" d="M54.8823 60.3115H55.4014V56.2114H54.8823V60.3115Z" fill="black"/>
<path opacity="0.2" d="M53.3909 60.2915H53.6504V56.1914H53.3909V60.2915Z" fill="black"/>
<path opacity="0.2" d="M51.3801 60.3115H51.5098V56.2114H51.3801V60.3115Z" fill="black"/>
<path opacity="0.2" d="M48.9741 60.3115H49.0391V56.2114H48.9741V60.3115Z" fill="black"/>
<path opacity="0.2" d="M57.543 56.6449H40.5077C40.3882 56.6449 40.291 56.5479 40.291 56.4281C40.291 56.3086 40.3879 56.2114 40.5077 56.2114H57.543C57.6626 56.2114 57.7597 56.3083 57.7597 56.4281C57.7597 56.5479 57.6626 56.6449 57.543 56.6449Z" fill="white"/>
<path d="M57.9921 60.5747H40.5775C40.4058 60.5747 40.2666 60.7139 40.2666 60.8857V64.8534C40.2666 65.0251 40.4058 65.1643 40.5775 65.1643H57.9921C58.1638 65.1643 58.3031 65.0251 58.3031 64.8534V60.8857C58.3031 60.7139 58.1638 60.5747 57.9921 60.5747Z" fill="#224FEE"/>
<path opacity="0.2" d="M41.7869 60.8398H41.0732V64.9399H41.7869V60.8398Z" fill="black"/>
<path opacity="0.2" d="M43.4087 60.8193H42.8896V64.9194H43.4087V60.8193Z" fill="black"/>
<path opacity="0.2" d="M44.9011 60.8394H44.6416V64.9394H44.9011V60.8394Z" fill="black"/>
<path opacity="0.2" d="M46.9119 60.8193H46.7822V64.9194H46.9119V60.8193Z" fill="black"/>
<path opacity="0.2" d="M56.7834 64.9194H57.4971V60.8194H56.7834V64.9194Z" fill="black"/>
<path opacity="0.2" d="M55.1606 64.9395H55.6797V60.8394H55.1606V64.9395Z" fill="black"/>
<path opacity="0.2" d="M53.6692 64.9194H53.9287V60.8194H53.6692V64.9194Z" fill="black"/>
<path opacity="0.2" d="M51.6584 64.9395H51.7881V60.8394H51.6584V64.9395Z" fill="black"/>
<path opacity="0.2" d="M49.2515 64.9395H49.3164V60.8394H49.2515V64.9395Z" fill="black"/>
<path opacity="0.2" d="M57.8206 61.2733H40.7851C40.6655 61.2733 40.5684 61.1764 40.5684 61.0566C40.5684 60.937 40.6653 60.8398 40.7851 60.8398H57.8206C57.9401 60.8398 58.0373 60.9368 58.0373 61.0566C58.0373 61.1761 57.9401 61.2733 57.8206 61.2733Z" fill="white"/>
<path d="M35.8388 88.0498H18.4242C18.2525 88.0498 18.1133 88.189 18.1133 88.3608V92.3285C18.1133 92.5002 18.2525 92.6394 18.4242 92.6394H35.8388C36.0105 92.6394 36.1498 92.5002 36.1498 92.3285V88.3608C36.1498 88.189 36.0105 88.0498 35.8388 88.0498Z" fill="#224FEE"/>
<path opacity="0.2" d="M19.6336 88.3149H18.9199V92.415H19.6336V88.3149Z" fill="black"/>
<path opacity="0.2" d="M21.2564 88.2949H20.7373V92.395H21.2564V88.2949Z" fill="black"/>
<path opacity="0.2" d="M22.7478 88.3145H22.4883V92.4145H22.7478V88.3145Z" fill="black"/>
<path opacity="0.2" d="M24.7586 88.2949H24.6289V92.395H24.7586V88.2949Z" fill="black"/>
<path opacity="0.2" d="M34.6301 92.3945H35.3438V88.2944H34.6301V92.3945Z" fill="black"/>
<path opacity="0.2" d="M33.0073 92.415H33.5264V88.315H33.0073V92.415Z" fill="black"/>
<path opacity="0.2" d="M31.5159 92.3945H31.7754V88.2944H31.5159V92.3945Z" fill="black"/>
<path opacity="0.2" d="M29.5041 92.415H29.6338V88.315H29.5041V92.415Z" fill="black"/>
<path opacity="0.2" d="M27.0991 92.415H27.1641V88.315H27.0991V92.415Z" fill="black"/>
<path opacity="0.2" d="M35.668 88.7484H18.6327C18.5129 88.7484 18.416 88.6515 18.416 88.5317C18.416 88.4121 18.5129 88.3149 18.6327 88.3149H35.668C35.7876 88.3149 35.8847 88.4119 35.8847 88.5317C35.8847 88.6515 35.7878 88.7484 35.668 88.7484Z" fill="white"/>
<path d="M36.0849 83.4707H18.6703C18.4986 83.4707 18.3594 83.6099 18.3594 83.7816V87.7494C18.3594 87.9211 18.4986 88.0603 18.6703 88.0603H36.0849C36.2566 88.0603 36.3958 87.9211 36.3958 87.7494V83.7816C36.3958 83.6099 36.2566 83.4707 36.0849 83.4707Z" fill="#224FEE"/>
<path opacity="0.2" d="M19.8797 83.7358H19.166V87.8359H19.8797V83.7358Z" fill="black"/>
<path opacity="0.2" d="M21.5015 83.7153H20.9824V87.8154H21.5015V83.7153Z" fill="black"/>
<path opacity="0.2" d="M22.9939 83.7358H22.7344V87.8359H22.9939V83.7358Z" fill="black"/>
<path opacity="0.2" d="M25.0046 83.7153H24.875V87.8154H25.0046V83.7153Z" fill="black"/>
<path opacity="0.2" d="M34.8762 87.8154H35.5898V83.7153H34.8762V87.8154Z" fill="black"/>
<path opacity="0.2" d="M33.2544 87.8354H33.7734V83.7354H33.2544V87.8354Z" fill="black"/>
<path opacity="0.2" d="M31.762 87.8154H32.0215V83.7153H31.762V87.8154Z" fill="black"/>
<path opacity="0.2" d="M29.7512 87.8354H29.8809V83.7354H29.7512V87.8354Z" fill="black"/>
<path opacity="0.2" d="M27.3452 87.8354H27.4102V83.7354H27.3452V87.8354Z" fill="black"/>
<path opacity="0.2" d="M35.9141 84.1693H18.8788C18.759 84.1693 18.6621 84.0724 18.6621 83.9526C18.6621 83.8328 18.759 83.7358 18.8788 83.7358H35.9141C36.0336 83.7358 36.1308 83.8328 36.1308 83.9526C36.1308 84.0721 36.0336 84.1693 35.9141 84.1693Z" fill="white"/>
<path d="M35.0996 78.8916H17.685C17.5133 78.8916 17.374 79.0308 17.374 79.2025V83.1703C17.374 83.342 17.5133 83.4812 17.685 83.4812H35.0996C35.2713 83.4812 35.4105 83.342 35.4105 83.1703V79.2025C35.4105 79.0308 35.2713 78.8916 35.0996 78.8916Z" fill="#224FEE"/>
<path opacity="0.2" d="M18.8943 79.1562H18.1807V83.2563H18.8943V79.1562Z" fill="black"/>
<path opacity="0.2" d="M20.5171 79.1362H19.998V83.2363H20.5171V79.1362Z" fill="black"/>
<path opacity="0.2" d="M22.0086 79.1562H21.749V83.2563H22.0086V79.1562Z" fill="black"/>
<path opacity="0.2" d="M24.0193 79.1362H23.8896V83.2363H24.0193V79.1362Z" fill="black"/>
<path opacity="0.2" d="M33.8908 83.2363H34.6045V79.1362H33.8908V83.2363Z" fill="black"/>
<path opacity="0.2" d="M32.269 83.2563H32.7881V79.1563H32.269V83.2563Z" fill="black"/>
<path opacity="0.2" d="M30.7766 83.2363H31.0361V79.1362H30.7766V83.2363Z" fill="black"/>
<path opacity="0.2" d="M28.7659 83.2563H28.8955V79.1563H28.7659V83.2563Z" fill="black"/>
<path opacity="0.2" d="M26.3599 83.2568H26.4248V79.1568H26.3599V83.2568Z" fill="black"/>
<path opacity="0.2" d="M34.9287 79.5902H17.8935C17.7737 79.5902 17.6768 79.4933 17.6768 79.3735C17.6768 79.2539 17.7737 79.1567 17.8935 79.1567H34.9287C35.0483 79.1567 35.1455 79.2537 35.1455 79.3735C35.1455 79.4933 35.0485 79.5902 34.9287 79.5902Z" fill="white"/>
<path d="M25.2905 75.8566L24.7961 77.0743L24.4221 77.9943L23.4824 77.6597L23.8194 76.8332L24.3508 75.5195L25.2905 75.8566Z" fill="#E4897B"/>
<path d="M45.3737 69.3376L44.5742 69.9304L44.2815 69.281L43.6025 67.7804L44.402 67.1851L45.0441 68.6069L45.3737 69.3376Z" fill="#E4897B"/>
<path opacity="0.2" d="M24.3507 75.5195L25.2904 75.8566L24.796 77.0743L23.8193 76.8332L24.3507 75.5195Z" fill="black"/>
<path opacity="0.2" d="M45.0441 68.6069L44.2815 69.281L43.6025 67.7804L44.402 67.1851L45.0441 68.6069Z" fill="black"/>
<path d="M32.3432 42.1421C32.37 42.2179 32.4318 42.2651 32.4812 42.2476C32.5307 42.2302 32.5491 42.1547 32.5225 42.0789C32.4957 42.0031 32.434 41.9559 32.3845 41.9734C32.3351 41.9908 32.3166 42.0663 32.3432 42.1421Z" fill="#263238"/>
<path d="M32.4248 42.2676C32.4248 42.2676 32.7512 42.644 33.0155 42.7879C32.9254 42.9603 32.6774 42.9834 32.6774 42.9834L32.4248 42.2676Z" fill="#DE5753"/>
<path d="M31.918 41.8196C31.9067 41.821 31.8947 41.8186 31.8846 41.8115C31.8632 41.7964 31.8578 41.7672 31.8728 41.7458C32.0218 41.5313 32.2393 41.5354 32.2489 41.5357C32.275 41.5364 32.2954 41.5583 32.2947 41.5844C32.2937 41.6105 32.2718 41.6309 32.2462 41.6301C32.2391 41.6299 32.0691 41.6289 31.9503 41.7999C31.9424 41.811 31.9306 41.8178 31.918 41.8196Z" fill="#263238"/>
<path d="M30.5229 43.3823C30.5357 44.1248 30.4417 45.4645 29.8545 45.8536C29.8545 45.8536 29.9209 46.6165 31.254 46.8541C32.7199 47.1154 32.0842 46.2512 32.0842 46.2512C31.3182 45.9176 31.4446 45.3277 31.6835 44.7949L30.5229 43.3823Z" fill="#E4897B"/>
<path d="M29.7593 42.8736C30.1447 43.784 30.3241 44.3365 30.9627 44.6482C31.9233 45.1173 32.9216 44.2856 32.8158 43.2785C32.7206 42.3717 32.1061 41.0355 31.0645 40.9865C30.0385 40.9381 29.3738 41.9631 29.7593 42.8736Z" fill="#E4897B"/>
<path d="M30.4092 44.3548C30.8434 44.5287 32.2023 43.555 31.7383 42.4313C31.7383 42.4313 32.203 41.6817 32.0365 40.9494C31.8699 40.2171 31.3218 40.0055 30.8028 40.2402C30.3452 40.4471 30.3957 40.7064 30.3957 40.7064C30.3957 40.7064 28.1782 41.2864 28.7873 42.1359C28.0092 43.2645 29.8673 44.1378 30.4092 44.3548Z" fill="#263238"/>
<path d="M31.3738 42.6885C31.4729 42.9279 31.6658 43.1185 31.8542 43.2216C32.1376 43.3768 32.3031 43.1621 32.2444 42.874C32.1915 42.6147 31.9801 42.2216 31.6862 42.1837C31.3964 42.1461 31.2606 42.4147 31.3738 42.6885Z" fill="#E4897B"/>
<path d="M29.4994 45.866C29.3968 45.6603 29.2839 45.4251 29.5338 45.36C29.8088 45.2884 31.565 45.1934 32.0752 45.3587C31.9087 45.6352 32.1658 45.989 32.1658 45.989L29.4994 45.866Z" fill="#224FEE"/>
<path opacity="0.5" d="M29.4994 45.866C29.3968 45.6603 29.2839 45.4251 29.5338 45.36C29.8088 45.2884 31.565 45.1934 32.0752 45.3587C31.9087 45.6352 32.1658 45.989 32.1658 45.989L29.4994 45.866Z" fill="#FAFAFA"/>
<path d="M24.4863 77.585H23.3985C23.3579 77.585 23.3225 77.6133 23.3137 77.6531L23.1169 78.5385C23.0964 78.6302 23.1661 78.7173 23.2603 78.7156C23.6526 78.7089 24.2197 78.6858 24.7129 78.6858C25.2895 78.6858 25.7877 78.7173 26.4642 78.7173C26.873 78.7173 26.9867 78.3038 26.8155 78.2664C26.0361 78.0959 25.3997 78.0777 24.7264 77.6625C24.6534 77.6174 24.5724 77.585 24.4863 77.585Z" fill="#263238"/>
<path d="M31.5213 54.6562C31.5213 54.6562 31.2113 56.7448 30.8276 59.1433C30.6628 60.1716 30.4856 61.2564 30.311 62.2601C30.1166 63.3843 29.9272 64.4028 29.7698 65.1211C29.0908 68.2453 25.4476 76.8553 25.4476 76.8553L23.6641 76.4691C23.6641 76.4691 26.2126 69.7705 26.7809 65.404C27.2212 62.051 28.0847 54.6562 28.0847 54.6562H31.5213Z" fill="#263238"/>
<path d="M25.8739 76.2596C25.8815 76.2613 25.5415 76.9043 25.5415 76.9043L23.5352 76.4699L23.7044 75.8667L25.8739 76.2596Z" fill="#224FEE"/>
<path opacity="0.3" d="M25.8739 76.2596C25.8815 76.2613 25.5415 76.9043 25.5415 76.9043L23.5352 76.4699L23.7044 75.8667L25.8739 76.2596Z" fill="black"/>
<path opacity="0.2" d="M30.8281 59.1435C30.6633 60.1718 30.4862 61.2566 30.3115 62.2603C29.8318 60.2751 29.9794 59.0869 29.9794 59.0869L30.8281 59.1435Z" fill="black"/>
<path d="M28.6059 47.6855C28.1282 48.1379 27.6328 48.6181 27.1651 49.0973C26.7029 49.5817 26.2399 50.0788 25.8507 50.5812C25.7004 50.7846 25.5295 51.0867 25.3774 51.3772C25.2239 51.6744 25.0702 51.9785 24.9209 52.2867L24.0185 54.1511L23.3115 53.9073C23.4628 53.2139 23.6574 52.5411 23.8702 51.8641C23.9806 51.5273 24.0972 51.1905 24.2296 50.854C24.3693 50.514 24.498 50.1856 24.7314 49.8087C25.144 49.1743 25.5915 48.6159 26.0751 48.0813C26.5572 47.5448 27.0495 47.0442 27.5998 46.5601L28.6059 47.6855Z" fill="#DC897C"/>
<path d="M23.2511 55.7181L23.6117 55.0762L22.5099 54.7437C22.5099 54.7437 22.2877 55.2615 22.5305 55.6784L23.2511 55.7181Z" fill="#E4897B"/>
<path d="M24.0163 54.1363L23.311 53.9072L22.5098 54.7436L23.6118 55.0762L24.0163 54.1363Z" fill="#E4897B"/>
<path d="M45.363 69.2034L44.4639 69.8698C44.4312 69.8941 44.4196 69.9377 44.4363 69.9748L44.8056 70.8034C44.8439 70.8892 44.9537 70.9163 45.0282 70.8589C45.3382 70.6208 45.4769 70.4895 45.8725 70.1965C46.1158 70.0162 46.6786 69.6211 47.0144 69.3721C47.3431 69.1286 47.148 68.7584 46.9883 68.8304C46.2717 69.1524 45.8587 69.1876 45.5298 69.1564C45.47 69.1507 45.4107 69.1679 45.363 69.2034Z" fill="#263238"/>
<path d="M28.1778 45.9558C27.2219 45.8968 25.8086 47.9647 25.8086 47.9647L27.2022 49.866C27.2022 49.866 28.046 49.4387 28.6772 48.3819C29.3387 47.2746 29.1554 46.0161 28.1778 45.9558Z" fill="#224FEE"/>
<path opacity="0.6" d="M28.1778 45.9558C27.2219 45.8968 25.8086 47.9647 25.8086 47.9647L27.2022 49.866C27.2022 49.866 28.046 49.4387 28.6772 48.3819C29.3387 47.2746 29.1554 46.0161 28.1778 45.9558Z" fill="#FAFAFA"/>
<path opacity="0.2" d="M28.4491 47.8633C27.8206 48.2008 27.4031 49.0306 27.1406 49.7816L27.2019 49.8662C27.2019 49.8662 28.0464 49.4382 28.6779 48.3818C28.7172 48.3157 28.7539 48.2488 28.7876 48.1823L28.4491 47.8633Z" fill="black"/>
<path d="M33.8425 45.8025C33.8425 45.8025 34.4137 47.2436 33.4123 54.6563C31.8069 54.6563 28.8652 54.6563 28.0841 54.6563C28.0475 53.8383 28.5614 49.8485 27.7725 45.9946C27.7725 45.9946 28.6859 45.8114 29.5562 45.7693C30.2371 45.7366 32.5107 45.2775 33.1092 45.3321C33.8981 45.4042 33.8425 45.8025 33.8425 45.8025Z" fill="#224FEE"/>
<path opacity="0.6" d="M33.9677 49.0721C33.9038 50.3833 33.7439 52.189 33.4118 54.6563H28.0859C28.049 53.8372 28.5631 49.847 27.7734 45.9947C27.7734 45.9947 28.6861 45.8102 29.5569 45.7684C30.2384 45.7364 32.5114 45.2764 33.1092 45.3329C33.8988 45.4043 33.8423 45.8028 33.8423 45.8028C33.8423 45.8028 33.9628 46.1054 33.9948 47.146C34.012 47.6207 34.0095 48.248 33.9677 49.0721Z" fill="#FAFAFA"/>
<path d="M33.1951 54.2246L34.2465 56.6935C34.2465 56.6935 39.3468 57.3333 40.7938 59.0863C42.2405 60.8393 44.9655 67.9585 44.9655 67.9585L43.6026 69.116C43.6026 69.116 39.6908 61.9227 38.5975 61.056C37.5043 60.1894 31.2712 60.1894 29.8788 59.6703C28.4862 59.1512 28.084 54.6561 28.084 54.6561L33.1951 54.2246Z" fill="#263238"/>
<path d="M43.3213 68.9744L44.9651 67.7153L45.1759 68.1207L43.6022 69.3613L43.3213 68.9744Z" fill="#224FEE"/>
<path opacity="0.3" d="M43.3213 68.9744L44.9651 67.7153L45.1759 68.1207L43.6022 69.3613L43.3213 68.9744Z" fill="black"/>
<path d="M32.0717 41.3095C32.0717 41.3095 32.008 39.8495 31.2365 39.8008C30.4651 39.7521 29.8552 40.4495 29.8552 40.4495C29.8552 40.4495 29.6705 40.1722 29.2326 40.1486C28.7947 40.125 28.0304 40.8711 28.0304 40.8711C28.0304 40.8711 28.9829 40.2849 29.3836 40.5538C29.3836 40.5538 28.3042 40.8527 28.0304 41.5351C27.7566 42.2175 27.4648 42.4608 27.4648 42.4608H28.0304L27.6594 43.0935C27.6594 43.0935 28.4424 43.8502 29.0321 43.7232L28.8434 44.0829C28.8434 44.0829 30.0026 44.5055 30.4742 44.3751C30.946 44.2448 30.4978 41.8933 30.4978 41.8933L32.0717 41.3095Z" fill="#263238"/>
<path opacity="0.2" d="M33.9667 49.0721C32.9999 48.4152 33.0147 46.9023 33.0147 46.9023L33.9937 47.1459C34.011 47.6207 34.0085 48.248 33.9667 49.0721Z" fill="black"/>
<path d="M25.0506 56.5411L18.4784 55.437L16.7793 60.495L17.8666 62.4684L25.039 63.4133L26.4936 57.9034L25.0506 56.5411Z" fill="#224FEE"/>
<path opacity="0.4" d="M16.7793 60.4948L17.2019 61.2643L17.2969 61.4347L17.8661 62.4687L25.0392 63.4131L26.4924 57.9037L25.8769 57.3224L25.6872 57.143L25.0506 56.5411L18.4779 55.437L16.7793 60.4948Z" fill="black"/>
<path d="M23.4425 60.7182L22.9319 61.0111L22.8295 60.8341L23.1619 60.643L22.9695 60.3119L23.1466 60.2098L23.4425 60.7182Z" fill="#2B66F8"/>
<path d="M21.5395 60.4884L21.3623 60.5905L21.0666 60.0815L21.577 59.7892L21.68 59.9663L21.3471 60.1567L21.5395 60.4884Z" fill="#2B66F8"/>
<path d="M22.9696 59.9049L22.2814 60.2991L21.8825 59.6136L22.5708 59.2189L22.9696 59.9049Z" fill="#2B66F8"/>
<path d="M22.6258 61.1871L21.9376 61.5813L21.5388 60.8959L22.2271 60.5011L22.6258 61.1871Z" fill="#2B66F8"/>
<path opacity="0.2" d="M26.493 57.9037L19.9887 56.8933L18.4785 55.437L25.0511 56.5411L26.493 57.9037Z" fill="white"/>
<path opacity="0.1" d="M19.9881 56.8933L17.8661 62.4687L16.7793 60.4948L18.4779 55.437L19.9881 56.8933Z" fill="white"/>
<path d="M17.2021 61.2639L17.2971 61.4344L19.2624 56.2101L25.8771 57.322L25.6874 57.1427L19.1463 56.0957L17.2021 61.2639Z" fill="#263238"/>
<path d="M23.6581 56.8413L23.326 56.5343L21.6689 56.2334L21.959 56.5675L23.6581 56.8413Z" fill="#263238"/>
<path d="M24.2969 56.9643C24.2969 56.9643 24.3737 55.2268 24.3255 55.1114C24.2773 54.996 21.9489 54.6152 21.7757 54.582C21.6025 54.5488 20.832 56.2374 20.832 56.2374L20.9649 56.4415L21.4055 56.5003C21.4055 56.5003 21.9634 55.0418 22.021 55.0066C22.0783 54.9717 23.8714 55.2782 23.9201 55.3168C23.9688 55.3557 23.7762 56.6802 23.7762 56.6802L23.9277 56.8979L24.2969 56.9643Z" fill="#263238"/>
<path d="M17.2256 59.7246L17.7036 60.3571L17.7506 60.2314L18.1223 59.2442L18.167 59.1254L18.2465 58.9141C18.2465 58.9141 18.105 59.0727 17.9134 59.2523C17.7048 59.4467 17.4371 59.6649 17.2256 59.7246Z" fill="#224FEE"/>
<path opacity="0.2" d="M17.3838 59.7715L17.7503 60.2315L18.122 59.2443L18.1668 59.1255C17.9946 59.3361 17.6832 59.6751 17.3838 59.7715Z" fill="white"/>
<path opacity="0.2" d="M17.9141 59.2528C17.9859 59.2467 18.0575 59.2452 18.1229 59.2447L18.2471 58.9146C18.2471 58.9146 18.1055 59.0732 17.9141 59.2528Z" fill="black"/>
<path d="M17.0451 58.4856L16.9541 59.3766C16.9541 59.3766 17.5172 59.0976 18.1297 59.2206L18.176 59.0976L18.4633 58.3323L18.4938 58.2524C18.4938 58.2524 17.6874 58.1579 17.0451 58.4856Z" fill="#224FEE"/>
<path d="M17.9795 56.9755C17.9795 56.9755 18.2405 57.5081 18.6506 57.8768L18.6838 57.7838L18.7724 57.5398L18.9197 57.1337L18.9913 56.9368L19.0115 56.8798C19.0115 56.8798 18.8068 56.5701 18.7059 56.3125L17.9795 56.9755Z" fill="#224FEE"/>
<path d="M19.4863 55.8305C19.4863 55.8305 19.6671 56.1232 19.6917 56.2814L19.7958 56.2996L19.9385 56.3227L20.1658 56.3623L20.3847 56.3992L20.4627 56.412C20.4627 56.412 20.4912 55.9424 20.1033 55.4863L19.4863 55.8305Z" fill="#224FEE"/>
<path opacity="0.2" d="M19.623 55.8535C19.623 55.8535 19.7551 56.1101 19.7957 56.3L19.9384 56.3231C19.9143 56.2874 19.9064 56.2399 19.9212 56.1949C19.9475 56.1137 20.0349 56.0692 20.1163 56.0955C20.1975 56.1219 20.242 56.2092 20.2157 56.2906C20.2061 56.3201 20.1886 56.3455 20.166 56.3627L20.3849 56.3996C20.3677 56.2097 20.3077 55.8213 20.0976 55.5996L19.623 55.8535Z" fill="white"/>
<path opacity="0.2" d="M17.1052 58.5206L17.0488 59.2428C17.0488 59.2428 17.6774 59.0254 18.176 59.0977L18.4633 58.3324C18.1957 58.3029 17.6282 58.2798 17.1052 58.5206ZM17.8948 58.4608C18.0345 58.4505 18.1526 58.5307 18.1605 58.6401C18.1684 58.7496 18.0609 58.8465 17.9231 58.8559C17.7834 58.8662 17.6641 58.7855 17.656 58.6761C17.6481 58.5666 17.7556 58.4699 17.8948 58.4608Z" fill="white"/>
<path opacity="0.2" d="M18.1055 57.0166C18.1055 57.0166 18.4366 57.572 18.6838 57.7839L18.7724 57.5398C18.671 57.5037 18.6179 57.3858 18.6543 57.2737C18.6912 57.16 18.8068 57.0953 18.9104 57.129C18.9131 57.13 18.9175 57.1312 18.9197 57.1337L18.9913 56.9369C18.8929 56.8245 18.7613 56.6483 18.6905 56.4702L18.1055 57.0166Z" fill="white"/>
<path d="M40.1182 41.1532L40.4965 40.5215L41.3322 41.3131C41.3322 41.3131 40.9929 41.7628 40.5103 41.7591L40.1182 41.1532Z" fill="#E4897B"/>
<path d="M41.0801 39.6753L41.6737 40.508L41.3318 41.3129L40.4961 40.5213L41.0801 39.6753Z" fill="#E4897B"/>
<path d="M33.5723 45.4585C34.2308 45.3212 34.9334 45.1456 35.588 44.9379C36.2406 44.7185 36.8908 44.4806 37.4143 44.1404C37.4866 44.0966 37.508 44.0723 37.5646 44.0314L37.7341 43.8752C37.8522 43.7618 37.971 43.6376 38.0898 43.5094C38.3247 43.2489 38.5641 42.9805 38.7973 42.7052C39.2704 42.1586 39.7341 41.5909 40.2101 41.0376L40.833 41.4516C40.4918 42.1178 40.1119 42.7517 39.7122 43.3852C39.5063 43.6978 39.2982 44.0115 39.0674 44.3183C38.9511 44.472 38.8308 44.6262 38.6984 44.7812C38.634 44.8592 38.5533 44.9379 38.4805 45.0157C38.3973 45.0927 38.2846 45.196 38.2032 45.2523C37.5193 45.7529 36.802 46.0892 36.0706 46.3497C35.3351 46.6132 34.6141 46.81 33.8306 46.9463L33.5723 45.4585Z" fill="#DC897C"/>
<path d="M33.2519 47.6085C34.2898 48.5073 36.565 46.9666 36.565 46.9666L35.6575 44.7256C35.6575 44.7256 34.367 44.8601 33.2 45.255C31.7584 45.743 32.4617 46.9241 33.2519 47.6085Z" fill="#224FEE"/>
<path opacity="0.6" d="M33.2519 47.6085C34.2898 48.5073 36.565 46.9666 36.565 46.9666L35.6575 44.7256C35.6575 44.7256 34.367 44.8601 33.2 45.255C31.7584 45.743 32.4617 46.9241 33.2519 47.6085Z" fill="#FAFAFA"/>
</g>
<defs>
<clipPath id="clip0_234_26068">
<rect width="100" height="100" fill="white"/>
</clipPath>
</defs>
</svg>
