<svg width="18" height="18" viewBox="0 0 18 18" fill="none" xmlns="http://www.w3.org/2000/svg">
<path d="M17.4264 8.74007L0.621665 0.314623C0.553361 0.280471 0.475013 0.272435 0.400683 0.290516C0.318187 0.31091 0.247133 0.363162 0.20308 0.435831C0.159027 0.5085 0.145563 0.595665 0.165638 0.678239L1.89733 7.75368C1.92345 7.86016 2.0018 7.94654 2.10626 7.98069L5.07345 8.99922L2.10827 10.0177C2.00381 10.0539 1.92546 10.1383 1.90135 10.2448L0.165638 17.3302C0.147557 17.4046 0.155593 17.4829 0.189745 17.5492C0.268093 17.7079 0.46095 17.7722 0.621665 17.6939L17.4264 9.31663C17.4886 9.2865 17.5389 9.23427 17.571 9.174C17.6493 9.01328 17.5851 8.82043 17.4264 8.74007ZM2.14644 15.3173L3.15693 11.1869L9.08729 9.1519C9.13349 9.13583 9.17166 9.09967 9.18774 9.05145C9.21586 8.96708 9.17166 8.87668 9.08729 8.84654L3.15693 6.81351L2.15046 2.69922L14.7665 9.02534L2.14644 15.3173Z" fill="#E73848"/>
</svg>
