<svg width="32" height="33" viewBox="0 0 32 33" fill="none" xmlns="http://www.w3.org/2000/svg">
<path d="M15.9997 20.5002L19.9997 16.5002M19.9997 16.5002L15.9997 12.5002M19.9997 16.5002H5.33301M5.33301 10.1642V10.1004C5.33301 8.60695 5.33301 7.85966 5.62366 7.28923C5.87932 6.78746 6.28697 6.37981 6.78874 6.12415C7.35917 5.8335 8.10646 5.8335 9.59993 5.8335H22.3999C23.8934 5.8335 24.6391 5.8335 25.2095 6.12415C25.7113 6.37981 26.1203 6.78746 26.376 7.28923C26.6663 7.8591 26.6663 8.60549 26.6663 10.096V22.9049C26.6663 24.3955 26.6663 25.1408 26.376 25.7107C26.1203 26.2124 25.7113 26.6208 25.2095 26.8765C24.6397 27.1668 23.8943 27.1668 22.4038 27.1668H9.59555C8.105 27.1668 7.35861 27.1668 6.78874 26.8765C6.28697 26.6208 5.87932 26.212 5.62366 25.7103C5.33301 25.1399 5.33301 24.3936 5.33301 22.9002V22.8335" stroke="white" stroke-width="2" stroke-linecap="round" stroke-linejoin="round"/>
</svg>
