<svg width="35" height="35" viewBox="0 0 35 35" fill="none" xmlns="http://www.w3.org/2000/svg">
<path d="M32.4943 0.886199L1.92496 9.50834C1.66779 9.58088 1.43888 9.73018 1.26883 9.93629C1.09878 10.1424 0.995697 10.3955 0.973349 10.6618C0.951002 10.9281 1.01046 11.1948 1.14377 11.4264C1.27708 11.658 1.4779 11.8433 1.71939 11.9577L15.7649 18.6109C16.0389 18.7406 16.2594 18.9612 16.3892 19.2351L23.0423 33.2807C23.1567 33.5222 23.3421 33.723 23.5737 33.8563C23.8053 33.9896 24.072 34.0491 24.3383 34.0267C24.6045 34.0044 24.8577 33.9013 25.0638 33.7312C25.2699 33.5612 25.4192 33.3323 25.4917 33.0751L34.1139 2.50571C34.1772 2.28116 34.1795 2.04378 34.1206 1.81803C34.0617 1.59228 33.9437 1.38631 33.7787 1.22134C33.6137 1.05636 33.4078 0.938344 33.182 0.879437C32.9563 0.820531 32.7189 0.822864 32.4943 0.886199Z" fill="#006ECD" fill-opacity="0.25"/>
<path d="M16.1885 18.8115L23.6132 11.3869M32.4943 0.886199L1.92496 9.50834C1.66779 9.58087 1.43888 9.73018 1.26883 9.93629C1.09878 10.1424 0.995697 10.3955 0.973349 10.6618C0.951002 10.9281 1.01046 11.1948 1.14377 11.4264C1.27708 11.658 1.4779 11.8433 1.71939 11.9577L15.7649 18.6109C16.0389 18.7406 16.2594 18.9612 16.3892 19.2351L23.0423 33.2807C23.1567 33.5222 23.3421 33.723 23.5737 33.8563C23.8053 33.9896 24.072 34.0491 24.3383 34.0267C24.6045 34.0044 24.8577 33.9013 25.0638 33.7312C25.2699 33.5612 25.4192 33.3323 25.4917 33.0751L34.1139 2.50571C34.1772 2.28116 34.1795 2.04378 34.1206 1.81803C34.0617 1.59228 33.9437 1.38631 33.7787 1.22134C33.6137 1.05636 33.4078 0.938344 33.182 0.879437C32.9563 0.820531 32.7189 0.822864 32.4943 0.886199Z" stroke="#006ECD" stroke-linecap="round" stroke-linejoin="round"/>
</svg>
