<svg width="20" height="22" viewBox="0 0 20 22" fill="blue" xmlns="http://www.w3.org/2000/svg">
<path d="M9.70078 20.6H3.70077C2.37529 20.6 1.30077 19.5254 1.30078 18.2L1.30087 3.80001C1.30088 2.47453 2.3754 1.40002 3.70087 1.40002H14.5011C15.8266 1.40002 16.9011 2.47454 16.9011 3.80002V8.60002M5.50116 6.20002H12.7012M5.50116 9.80002H12.7012M12.7012 14.554V17.4984C12.7012 18.9533 14.2526 20.2878 15.7075 20.2878C17.1625 20.2878 18.7012 18.9533 18.7012 17.4984V13.7791C18.7012 13.0089 18.2583 12.2272 17.2733 12.2272C16.2195 12.2272 15.7075 13.0089 15.7075 13.7791V17.3434M5.50116 13.4H9.10116" stroke="black" stroke-opacity="0.88" stroke-width="1.5" stroke-linecap="round" stroke-linejoin="round"/>
</svg>
