<svg width="125" height="41" viewBox="0 0 125 41" fill="none" xmlns="http://www.w3.org/2000/svg">
<g clip-path="url(#clip0_235_34223)">
<g clip-path="url(#clip1_235_34223)">
<path d="M19.3118 0.5C8.64706 0.5 0 9.13525 0 19.7855C0 30.4357 8.64706 39.0709 19.3118 39.0709C29.9766 39.0709 38.6237 30.4357 38.6237 19.7855C38.6237 9.13525 29.9766 0.5 19.3118 0.5ZM19.2846 30.2871C13.4934 30.2871 8.80001 25.6002 8.80001 19.8168C8.80001 14.0335 13.4934 9.34658 19.2846 9.34658C25.0758 9.34658 29.7692 14.0335 29.7692 19.8168C29.7692 25.6002 25.0758 30.2871 19.2846 30.2871Z" fill="white"/>
<path d="M25.0679 19.2346L18.832 25.4619L33.8891 40.4984L40.125 34.2711L25.0679 19.2346Z" fill="white"/>
<path d="M50.1729 34.7106V23.4976H55.6205C56.8734 23.4976 57.8372 23.757 58.5119 24.2759C59.1866 24.7948 59.5239 25.5 59.5239 26.3913C59.5239 27.0483 59.3291 27.6112 58.9435 28.0778C58.5559 28.5444 58.0279 28.8624 57.3595 29.0319V28.7766C58.1557 28.9147 58.7696 29.2202 59.1992 29.691C59.6287 30.1618 59.8445 30.7748 59.8445 31.5281C59.8445 32.5136 59.4841 33.292 58.7612 33.859C58.0384 34.426 57.0515 34.7106 55.7986 34.7106H50.177H50.1729ZM52.993 27.9501H55.0799C55.6435 27.9501 56.0542 27.8539 56.314 27.6635C56.5738 27.4731 56.7037 27.1801 56.7037 26.7889C56.7037 26.3976 56.5738 26.1068 56.314 25.9226C56.0542 25.7364 55.6414 25.6443 55.0799 25.6443H52.993V27.9501ZM52.993 32.5617H55.4131C55.9641 32.5617 56.3769 32.4613 56.6471 32.2604C56.9174 32.0596 57.0536 31.7457 57.0536 31.321C57.0536 30.8962 56.9174 30.574 56.6471 30.3836C56.3769 30.1932 55.9641 30.0969 55.4131 30.0969H52.993V32.5617Z" fill="white"/>
<path d="M60.6846 34.7106L65.9415 23.4976H68.3301L73.6185 34.7106H70.6726L69.3191 31.6244L70.4505 32.4362H63.8568L64.9714 31.6244L63.6326 34.7106H60.6867H60.6846ZM67.1191 26.519L65.2564 30.9569L64.8101 30.2099H69.4762L69.0781 30.9569L67.1987 26.519H67.1191Z" fill="white"/>
<path d="M75.083 34.7106V23.4976H77.2495L82.936 30.5447H82.475V23.4976H85.1988V34.7106H83.0324L77.3773 27.6635H77.8403V34.7106H75.0851H75.083Z" fill="white"/>
<path d="M88.0322 34.7106V23.4976H90.9781V28.3017H91.0096L95.3111 23.4976H98.7515L93.3039 29.3981V28.2368L99.0532 34.7106H95.5018L91.0096 29.6533H90.9781V34.7106H88.0322Z" fill="white"/>
<path d="M99.1973 34.7106L104.167 23.4976H105.458L110.507 34.7106H108.978L107.593 31.5302L108.23 31.9131H101.397L102.097 31.5302L100.712 34.7106H99.1994H99.1973ZM104.789 25.1505L102.305 31.0364L101.923 30.7016H107.704L107.402 31.0364L104.854 25.1505H104.792H104.789Z" fill="white"/>
<path d="M116.465 34.8527C115.562 34.8527 114.749 34.7356 114.028 34.5033C113.305 34.2711 112.679 33.9405 112.148 33.5178L112.658 32.3398C113.028 32.616 113.406 32.8461 113.789 33.0324C114.172 33.2186 114.583 33.3567 115.023 33.4467C115.463 33.5366 115.945 33.5827 116.465 33.5827C117.389 33.5827 118.072 33.4153 118.512 33.0826C118.952 32.7478 119.172 32.3063 119.172 31.7539C119.172 31.2769 119.017 30.9107 118.711 30.6554C118.403 30.4002 117.866 30.1993 117.102 30.0507L115.398 29.7013C114.367 29.49 113.6 29.1426 113.098 28.6593C112.593 28.176 112.341 27.521 112.341 26.6946C112.341 26.0271 112.519 25.4412 112.875 24.937C113.232 24.4327 113.724 24.0435 114.357 23.7673C114.987 23.4911 115.729 23.353 116.578 23.353C117.363 23.353 118.091 23.4702 118.759 23.7025C119.427 23.9368 119.991 24.28 120.448 24.7361L119.939 25.866C119.461 25.4308 118.948 25.1169 118.401 24.9202C117.854 24.7235 117.236 24.6252 116.544 24.6252C115.706 24.6252 115.042 24.8051 114.554 25.165C114.066 25.5249 113.82 26.0145 113.82 26.6276C113.82 27.1151 113.973 27.5001 114.281 27.7805C114.589 28.0609 115.099 28.2764 115.811 28.425L117.514 28.7597C118.598 28.9711 119.392 29.3058 119.895 29.762C120.399 30.2181 120.651 30.85 120.651 31.6556C120.651 32.2917 120.481 32.8503 120.142 33.3337C119.802 33.817 119.318 34.1895 118.692 34.4552C118.065 34.7209 117.322 34.8527 116.463 34.8527H116.465Z" fill="white"/>
<path d="M123.519 34.7106V23.4976H125V34.7106H123.519Z" fill="white"/>
<path d="M55.9954 6.51758C52.2093 6.51758 49.1377 9.58919 49.1377 13.3785C49.1377 17.1678 52.2072 20.2394 55.9954 20.2394C59.7836 20.2394 62.8531 17.1678 62.8531 13.3785C62.8531 9.58919 59.7836 6.51758 55.9954 6.51758ZM55.9849 17.1134C53.9295 17.1134 52.2617 15.4458 52.2617 13.3889C52.2617 11.3321 53.9274 9.66452 55.9849 9.66452C58.0425 9.66452 59.7082 11.3321 59.7082 13.3889C59.7082 15.4458 58.0425 17.1134 55.9849 17.1134Z" fill="white"/>
<path d="M63.3858 18.5298L61.1711 20.7456L55.8262 15.3975L58.0408 13.1816L63.3858 18.5298Z" fill="white"/>
<path d="M68.0617 18.7875V13.3452L68.3928 14.3517L63.5381 7.16016H65.3211L69.0528 12.8347H68.6735L72.4052 7.16016H74.14L69.2853 14.3517L69.5996 13.3452V18.7875H68.0638H68.0617Z" fill="white"/>
<path d="M72.719 18.7875L77.8712 7.16016H79.208L84.444 18.7875H82.8579L81.4206 15.4899L82.0806 15.8854L74.9945 15.8854L75.7215 15.4899L74.2842 18.7875H72.7148H72.719ZM78.5145 8.87381L75.9373 14.9773L75.5413 14.6299H81.5358L81.2215 14.9773L78.5794 8.87381H78.5124H78.5145Z" fill="white"/>
<path d="M87.286 18.7875V8.46371H83.2568V7.16016L92.8845 7.16016V8.46371L88.8386 8.46371V18.7875H87.286Z" fill="white"/>
<path d="M94.1875 18.7875V7.16016H95.7237V18.7875H94.1875Z" fill="white"/>
<path d="M98.2189 18.7875V7.16016L103.042 7.16016C104.287 7.16016 105.246 7.451 105.923 8.03477C106.6 8.61854 106.939 9.43039 106.939 10.4766C106.939 11.1692 106.784 11.7571 106.476 12.2405C106.168 12.7238 105.737 13.092 105.179 13.3452C104.624 13.5984 103.977 13.7239 103.239 13.7239L103.52 13.4938H103.916C104.366 13.4938 104.769 13.6068 105.121 13.8328C105.473 14.0587 105.764 14.4249 105.996 14.9292L107.647 18.7875H105.946L104.343 14.9605C104.157 14.4877 103.882 14.1801 103.526 14.0378C103.168 13.8955 102.719 13.8244 102.181 13.8244H99.7526V18.7896H98.2168L98.2189 18.7875ZM99.7547 12.6338H102.81C103.658 12.6338 104.303 12.4518 104.75 12.0898C105.196 11.7278 105.418 11.1984 105.418 10.5059C105.418 9.81329 105.196 9.30484 104.75 8.94705C104.303 8.58925 103.656 8.4114 102.81 8.4114H99.7547V12.6338Z" fill="white"/>
<path d="M109.365 18.7875V7.16016H110.901V18.7875H109.365Z" fill="white"/>
<path d="M113.395 18.7875V7.16016H114.748L119.339 17.484H118.844L123.435 7.16016L124.772 7.16016V18.7875H123.368V9.20441H123.879L119.569 18.7875H118.595L114.285 9.20441H114.796V18.7875H113.393H113.395Z" fill="white"/>
</g>
</g>
<defs>
<clipPath id="clip0_235_34223">
<rect width="124.8" height="40" fill="white" transform="translate(0 0.5)"/>
</clipPath>
<clipPath id="clip1_235_34223">
<rect width="125" height="40" fill="white" transform="translate(0 0.5)"/>
</clipPath>
</defs>
</svg>
