<svg width="207" height="41" viewBox="0 0 207 41" fill="none" xmlns="http://www.w3.org/2000/svg">
<path d="M40.3619 20.5003L33.6441 27.1797L31.3159 24.8556L35.6871 20.5003L31.3159 16.1541L33.6441 13.8301L40.3619 20.5003Z" fill="yellow"/>
<path d="M9.81896 24.8556L7.49074 27.1797L0.772949 20.5003L7.49074 13.8301L9.82816 16.1541L5.4478 20.5003L9.81896 24.8556Z" fill="yellow"/>
<path d="M29.6226 9.82277L20.5674 18.817L11.5122 9.82277L20.5674 0.819336L29.6226 9.82277Z" fill="yellow"/>
<path d="M29.6226 31.188L20.5674 40.1823L11.5122 31.188L20.5674 22.1846L29.6226 31.188Z" fill="yellow"/>
<path d="M50.2637 8.92648H65.0336V13.0622H54.6532V18.6893H63.9845V22.8251H54.6532V32.0664H50.2637C50.2637 32.0755 50.2637 8.92648 50.2637 8.92648ZM70.095 13.7759C69.3588 13.785 68.6502 13.4922 68.144 12.9615C67.6103 12.4492 67.325 11.7538 67.325 11.0218C67.3158 10.2898 67.6103 9.59441 68.144 9.09117C68.6594 8.57878 69.368 8.28599 70.095 8.29514C70.822 8.28599 71.5213 8.56963 72.0367 9.09117C72.5612 9.59441 72.8465 10.2989 72.8373 11.0218C72.8465 11.7538 72.5612 12.4492 72.0367 12.9615C71.5213 13.5014 70.822 13.785 70.095 13.7759ZM67.9416 15.5875H72.2023V32.0755H67.9324L67.9416 15.5875ZM76.0305 15.5875H80.0336V17.6554H80.2913C80.8158 16.8594 81.5336 16.2006 82.3894 15.7614C83.3005 15.2948 84.3128 15.0477 85.3342 15.066C86.4109 15.0386 87.4784 15.3222 88.3894 15.8895C89.2085 16.3836 89.8526 17.1064 90.2391 17.9757C90.7913 17.1064 91.5643 16.3744 92.4661 15.8712C93.4876 15.3131 94.6379 15.0294 95.7974 15.0569C97.4262 14.9471 99.0091 15.5876 100.113 16.7862C101.162 18.1129 101.687 19.7782 101.595 21.4617V32.0664H97.3618V22.2486C97.417 21.3885 97.1594 20.5376 96.6256 19.8514C96.1103 19.2749 95.3649 18.973 94.5919 19.0096C93.5428 18.9821 92.549 19.4762 91.9416 20.318C91.233 21.3245 90.8925 22.5323 90.9477 23.7583V32.0664H86.6962V22.2486C86.7514 21.3794 86.4845 20.5285 85.9324 19.8514C85.371 19.2658 84.5796 18.9638 83.7698 19.0096C82.7667 18.9913 81.8097 19.4854 81.2483 20.318C80.5674 21.3336 80.2269 22.5414 80.2913 23.7583V32.0755H76.0305V15.5875ZM105.221 15.5875H109.224V17.5914H109.481C109.978 16.8411 110.659 16.2189 111.469 15.798C112.38 15.3039 113.42 15.0477 114.46 15.066C115.896 15.0477 117.313 15.432 118.537 16.1823C119.77 16.9326 120.764 18.0123 121.417 19.2932C122.126 20.7023 122.485 22.2578 122.457 23.8224C122.485 25.3962 122.135 26.9608 121.417 28.3607C120.764 29.6417 119.77 30.7122 118.537 31.4717C117.313 32.2219 115.896 32.6062 114.46 32.5879C113.411 32.6062 112.38 32.3592 111.451 31.8834C110.65 31.4808 109.969 30.8678 109.481 30.1083H109.224L109.481 32.4324V39.0477H105.212V15.5875H105.221ZM113.705 28.681C114.497 28.6901 115.27 28.4705 115.951 28.0679C116.65 27.6562 117.221 27.0614 117.607 26.3569C118.031 25.5792 118.242 24.7099 118.224 23.8315C118.242 22.9532 118.031 22.0839 117.607 21.3062C117.221 20.6017 116.65 20.0069 115.951 19.6043C115.27 19.2109 114.497 19.0004 113.705 19.0096C112.923 19.0096 112.159 19.2109 111.497 19.6043C110.797 20.0069 110.227 20.6017 109.84 21.3062C109.417 22.0839 109.205 22.9532 109.224 23.8315C109.205 24.7099 109.417 25.5792 109.84 26.3569C110.227 27.0614 110.797 27.6562 111.497 28.0679C112.159 28.4705 112.923 28.681 113.705 28.681ZM125.356 8.92648H129.616V32.0847H125.347L125.356 8.92648ZM141.193 32.5971C139.638 32.6245 138.101 32.2311 136.739 31.4625C135.432 30.7305 134.356 29.6508 133.629 28.3516C132.865 26.9791 132.478 25.4328 132.506 23.8773C132.497 22.3493 132.874 20.8396 133.61 19.4945C134.328 18.1678 135.377 17.0515 136.675 16.2646C137.981 15.4686 139.5 15.0477 141.037 15.066C142.583 15.0294 144.12 15.4046 145.463 16.164C146.678 16.8685 147.653 17.9208 148.27 19.1743C148.923 20.4919 149.245 21.9467 149.227 23.4107C149.227 23.8864 149.199 24.3622 149.126 24.8289H136.666C136.794 25.9909 137.356 27.0614 138.239 27.83C139.086 28.5163 140.153 28.8731 141.248 28.8457C142.132 28.8731 143.006 28.6535 143.77 28.2143C144.469 27.8026 145.04 27.217 145.445 26.5124L148.896 28.196C147.405 31.0233 144.405 32.7343 141.193 32.5971ZM145.132 21.8369C145.077 21.2879 144.883 20.7572 144.561 20.2997C144.202 19.769 143.724 19.339 143.162 19.037C142.518 18.6893 141.791 18.5155 141.064 18.5338C140.116 18.5063 139.187 18.8266 138.442 19.4213C137.687 20.0527 137.135 20.8945 136.868 21.8277L145.132 21.8369Z" fill="yellow"/>
<path d="M196.079 32.9815V31.0915L201.623 26.1505C202.055 25.7665 202.355 25.4035 202.523 25.0615C202.691 24.7195 202.775 24.3895 202.775 24.0715C202.775 23.6395 202.682 23.2555 202.496 22.9195C202.31 22.5775 202.052 22.3075 201.722 22.1095C201.398 21.9115 201.023 21.8125 200.597 21.8125C200.147 21.8125 199.748 21.9175 199.4 22.1275C199.058 22.3315 198.791 22.6045 198.599 22.9465C198.407 23.2885 198.317 23.6575 198.329 24.0535H196.097C196.097 23.1895 196.289 22.4365 196.673 21.7945C197.063 21.1525 197.597 20.6545 198.275 20.3005C198.959 19.9465 199.748 19.7695 200.642 19.7695C201.47 19.7695 202.214 19.9555 202.874 20.3275C203.534 20.6935 204.053 21.2035 204.431 21.8575C204.809 22.5055 204.998 23.2525 204.998 24.0985C204.998 24.7165 204.914 25.2355 204.746 25.6555C204.578 26.0755 204.326 26.4625 203.99 26.8165C203.66 27.1705 203.249 27.5635 202.757 27.9955L198.824 31.4785L198.626 30.9385H204.998V32.9815H196.079Z" fill="yellow"/>
<path d="M191.266 32.9991C190.624 33.1191 189.994 33.1701 189.376 33.1521C188.764 33.1401 188.215 33.0291 187.729 32.8191C187.243 32.6031 186.874 32.2641 186.622 31.8021C186.4 31.3821 186.283 30.9531 186.271 30.5151C186.259 30.0771 186.253 29.5821 186.253 29.0301V20.5791H188.413V28.9041C188.413 29.2941 188.416 29.6361 188.422 29.9301C188.434 30.2241 188.497 30.4641 188.611 30.6501C188.827 31.0101 189.172 31.2111 189.646 31.2531C190.12 31.2951 190.66 31.2711 191.266 31.1811V32.9991ZM184.489 24.9801V23.2791H191.266V24.9801H184.489Z" fill="yellow"/>
<path d="M179.843 33.2698C178.643 33.2698 177.668 32.9998 176.918 32.4598C176.168 31.9198 175.712 31.1608 175.55 30.1828L177.764 29.8408C177.878 30.3208 178.13 30.6988 178.52 30.9748C178.91 31.2508 179.402 31.3888 179.996 31.3888C180.518 31.3888 180.92 31.2868 181.202 31.0828C181.49 30.8728 181.634 30.5878 181.634 30.2278C181.634 30.0058 181.58 29.8288 181.472 29.6968C181.37 29.5588 181.142 29.4268 180.788 29.3008C180.434 29.1748 179.891 29.0158 179.159 28.8238C178.343 28.6078 177.695 28.3768 177.215 28.1308C176.735 27.8788 176.39 27.5818 176.18 27.2398C175.97 26.8978 175.865 26.4838 175.865 25.9978C175.865 25.3918 176.024 24.8638 176.342 24.4138C176.66 23.9638 177.104 23.6188 177.674 23.3788C178.244 23.1328 178.916 23.0098 179.69 23.0098C180.446 23.0098 181.115 23.1268 181.697 23.3608C182.285 23.5948 182.759 23.9278 183.119 24.3598C183.479 24.7918 183.701 25.2988 183.785 25.8808L181.571 26.2768C181.517 25.8628 181.328 25.5358 181.004 25.2958C180.686 25.0558 180.26 24.9208 179.726 24.8908C179.216 24.8608 178.805 24.9388 178.493 25.1248C178.181 25.3048 178.025 25.5598 178.025 25.8898C178.025 26.0758 178.088 26.2348 178.214 26.3668C178.34 26.4988 178.592 26.6308 178.97 26.7628C179.354 26.8948 179.924 27.0568 180.68 27.2488C181.454 27.4468 182.072 27.6748 182.534 27.9328C183.002 28.1848 183.338 28.4878 183.542 28.8418C183.752 29.1958 183.857 29.6248 183.857 30.1288C183.857 31.1068 183.5 31.8748 182.786 32.4328C182.078 32.9908 181.097 33.2698 179.843 33.2698Z" fill="yellow"/>
<path d="M169.941 33.2698C168.957 33.2698 168.093 33.0568 167.349 32.6308C166.605 32.2048 166.023 31.6138 165.603 30.8578C165.189 30.1018 164.982 29.2318 164.982 28.2478C164.982 27.1858 165.186 26.2648 165.594 25.4848C166.002 24.6988 166.569 24.0898 167.295 23.6578C168.021 23.2258 168.861 23.0098 169.815 23.0098C170.823 23.0098 171.678 23.2468 172.38 23.7208C173.088 24.1888 173.613 24.8518 173.955 25.7098C174.297 26.5678 174.426 27.5788 174.342 28.7428H172.191V27.9508C172.185 26.8948 171.999 26.1238 171.633 25.6378C171.267 25.1518 170.691 24.9088 169.905 24.9088C169.017 24.9088 168.357 25.1848 167.925 25.7368C167.493 26.2828 167.277 27.0838 167.277 28.1398C167.277 29.1238 167.493 29.8858 167.925 30.4258C168.357 30.9658 168.987 31.2358 169.815 31.2358C170.349 31.2358 170.808 31.1188 171.192 30.8848C171.582 30.6448 171.882 30.2998 172.092 29.8498L174.234 30.4978C173.862 31.3738 173.286 32.0548 172.506 32.5408C171.732 33.0268 170.877 33.2698 169.941 33.2698ZM166.593 28.7428V27.1048H173.28V28.7428H166.593Z" fill="yellow"/>
<path d="M159.422 32.9991V22.0731H155.228V20.0391H165.785V22.0731H161.591V32.9991H159.422Z" fill="yellow"/>
</svg>
