<svg width="156" height="50" viewBox="0 0 156 50" fill="none" xmlns="http://www.w3.org/2000/svg">
<g clip-path="url(#clip0_23_11058)">
<g clip-path="url(#clip1_23_11058)">
<path d="M24.1012 0C10.7915 0 0 10.7941 0 24.1068C0 37.4196 10.7915 48.2136 24.1012 48.2136C37.4108 48.2136 48.2024 37.4196 48.2024 24.1068C48.2024 10.7941 37.4108 0 24.1012 0ZM24.0672 37.2339C16.8397 37.2339 10.9824 31.3752 10.9824 24.146C10.9824 16.9169 16.8397 11.0582 24.0672 11.0582C31.2947 11.0582 37.1519 16.9169 37.1519 24.146C37.1519 31.3752 31.2947 37.2339 24.0672 37.2339Z" fill="white"/>
<path d="M31.2843 23.4179L23.502 31.2021L42.2932 49.9978L50.0756 42.2136L31.2843 23.4179Z" fill="white"/>
<path d="M62.6152 42.7629V28.7466H69.4139C70.9776 28.7466 72.1804 29.0709 73.0224 29.7195C73.8644 30.3682 74.2854 31.2496 74.2854 32.3638C74.2854 33.185 74.0422 33.8886 73.561 34.4719C73.0773 35.0551 72.4183 35.4527 71.5842 35.6645V35.3454C72.5779 35.518 73.344 35.8999 73.8801 36.4884C74.4161 37.0769 74.6854 37.8432 74.6854 38.7848C74.6854 40.0167 74.2357 40.9896 73.3336 41.6984C72.4314 42.4072 71.1998 42.7629 69.6361 42.7629H62.6205H62.6152ZM66.1348 34.3123H68.7392C69.4426 34.3123 69.9551 34.192 70.2794 33.954C70.6036 33.716 70.7658 33.3498 70.7658 32.8607C70.7658 32.3716 70.6036 32.0081 70.2794 31.7779C69.9551 31.5451 69.44 31.4301 68.7392 31.4301H66.1348V34.3123ZM66.1348 40.0768H69.155C69.8427 40.0768 70.3578 39.9513 70.6951 39.7002C71.0325 39.4491 71.2024 39.0568 71.2024 38.5258C71.2024 37.9949 71.0325 37.5921 70.6951 37.3541C70.3578 37.1161 69.8427 36.9958 69.155 36.9958H66.1348V40.0768Z" fill="white"/>
<path d="M75.7344 42.7629L82.2951 28.7466H85.276L91.8759 42.7629H88.1994L86.5102 38.9051L87.9222 39.9199H79.6933L81.0844 38.9051L79.4135 42.7629H75.737H75.7344ZM83.7646 32.5233L81.44 38.0707L80.883 37.137H86.7063L86.2095 38.0707L83.864 32.5233H83.7646Z" fill="white"/>
<path d="M93.7031 42.7629V28.7466H96.4069L103.504 37.5555H102.928V28.7466H106.328V42.7629H103.624L96.5664 33.954H97.1443V42.7629H93.7057H93.7031Z" fill="white"/>
<path d="M109.863 42.7629V28.7466H113.54V34.7517H113.579L118.947 28.7466H123.241L116.442 36.1222V34.6706L123.617 42.7629H119.185L113.579 36.4413H113.54V42.7629H109.863Z" fill="white"/>
<path d="M123.798 42.7629L130 28.7466H131.611L137.913 42.7629H136.004L134.276 38.7874L135.071 39.266H126.543L127.417 38.7874L125.688 42.7629H123.8H123.798ZM130.777 30.8128L127.676 38.1701L127.2 37.7517H134.414L134.038 38.1701L130.858 30.8128H130.78H130.777Z" fill="white"/>
<path d="M145.347 42.9406C144.22 42.9406 143.205 42.7941 142.305 42.5038C141.403 42.2135 140.622 41.8002 139.96 41.2719L140.595 39.7994C141.058 40.1446 141.529 40.4323 142.007 40.6651C142.486 40.8979 142.998 41.0705 143.548 41.183C144.097 41.2954 144.698 41.353 145.347 41.353C146.5 41.353 147.352 41.1437 147.901 40.7279C148.45 40.3094 148.725 39.7575 148.725 39.067C148.725 38.4707 148.531 38.013 148.15 37.6939C147.765 37.3748 147.096 37.1237 146.141 36.938L144.016 36.5013C142.729 36.2371 141.772 35.8029 141.145 35.1988C140.514 34.5946 140.201 33.7759 140.201 32.7428C140.201 31.9085 140.423 31.1762 140.867 30.5458C141.312 29.9155 141.926 29.429 142.716 29.0838C143.503 28.7385 144.429 28.5659 145.488 28.5659C146.468 28.5659 147.376 28.7124 148.21 29.0027C149.044 29.2956 149.747 29.7246 150.317 30.2947L149.682 31.7071C149.086 31.1631 148.445 30.7708 147.763 30.5249C147.08 30.2791 146.309 30.1561 145.446 30.1561C144.4 30.1561 143.571 30.3811 142.962 30.8309C142.353 31.2808 142.047 31.8928 142.047 32.6591C142.047 33.2685 142.238 33.7498 142.622 34.1003C143.006 34.4507 143.642 34.7201 144.531 34.9058L146.657 35.3243C148.009 35.5885 149 36.0069 149.627 36.5771C150.257 37.1473 150.571 37.9372 150.571 38.9441C150.571 39.7392 150.359 40.4376 149.936 41.0417C149.512 41.6459 148.908 42.1115 148.126 42.4436C147.344 42.7758 146.416 42.9406 145.344 42.9406H145.347Z" fill="white"/>
<path d="M154.151 42.7629V28.7466H156.001V42.7629H154.151Z" fill="white"/>
<path d="M69.8817 7.52197C65.1566 7.52197 61.3232 11.3615 61.3232 16.0981C61.3232 20.8347 65.154 24.6742 69.8817 24.6742C74.6093 24.6742 78.4401 20.8347 78.4401 16.0981C78.4401 11.3615 74.6093 7.52197 69.8817 7.52197ZM69.8686 20.7667C67.3034 20.7667 65.222 18.6822 65.222 16.1112C65.222 13.5402 67.3008 11.4556 69.8686 11.4556C72.4364 11.4556 74.5152 13.5402 74.5152 16.1112C74.5152 18.6822 72.4364 20.7667 69.8686 20.7667Z" fill="white"/>
<path d="M79.1043 22.5372L76.3404 25.307L69.6699 18.6218L72.4338 15.8521L79.1043 22.5372Z" fill="white"/>
<path d="M84.9404 22.8589V16.056L85.3536 17.3141L79.2949 8.32471H81.5202L86.1772 15.4179H85.7039L90.361 8.32471H92.5261L86.4675 17.3141L86.8597 16.056V22.8589H84.943H84.9404Z" fill="white"/>
<path d="M90.7533 22.8589L97.1832 8.32471H98.8515L105.386 22.8589H103.407L101.613 18.7369L102.436 19.2312H93.593L94.5004 18.7369L92.7066 22.8589H90.748H90.7533ZM97.986 10.4668L94.7697 18.0961L94.2755 17.6619H101.757L101.364 18.0961L98.067 10.4668H97.9834H97.986Z" fill="white"/>
<path d="M108.932 22.8589V9.95415H103.903V8.32471H115.919V9.95415H110.869V22.8589H108.932Z" fill="white"/>
<path d="M117.545 22.8589V8.32471H119.462V22.8589H117.545Z" fill="white"/>
<path d="M122.576 22.8589V8.32471H128.595C130.148 8.32471 131.346 8.68826 132.191 9.41797C133.035 10.1477 133.459 11.1625 133.459 12.4702C133.459 13.336 133.265 14.0709 132.881 14.6751C132.497 15.2793 131.958 15.7396 131.262 16.056C130.569 16.3725 129.761 16.5294 128.841 16.5294L129.191 16.2417H129.686C130.248 16.2417 130.75 16.383 131.189 16.6655C131.628 16.9479 131.992 17.4056 132.282 18.036L134.343 22.8589H132.219L130.219 18.0752C129.986 17.4841 129.644 17.0996 129.199 16.9218C128.752 16.7439 128.193 16.655 127.521 16.655H124.49V22.8615H122.573L122.576 22.8589ZM124.493 15.1668H128.305C129.364 15.1668 130.169 14.9392 130.726 14.4868C131.283 14.0343 131.561 13.3726 131.561 12.5068C131.561 11.6411 131.283 11.0056 130.726 10.5583C130.169 10.1111 129.361 9.88876 128.305 9.88876H124.493V15.1668Z" fill="white"/>
<path d="M136.487 22.8589V8.32471H138.404V22.8589H136.487Z" fill="white"/>
<path d="M141.515 22.8589V8.32471H143.205L148.934 21.2295H148.317L154.046 8.32471H155.714V22.8589H153.962V10.88H154.6L149.221 22.8589H148.005L142.627 10.88H143.265V22.8589H141.513H141.515Z" fill="white"/>
</g>
</g>
<defs>
<clipPath id="clip0_23_11058">
<rect width="156" height="50" fill="white"/>
</clipPath>
<clipPath id="clip1_23_11058">
<rect width="156" height="50" fill="white"/>
</clipPath>
</defs>
</svg>
