<svg width="632" height="993" viewBox="0 0 632 993" fill="none" xmlns="http://www.w3.org/2000/svg"> 
  <g clip-path="url(#clip0_1402_10905)"> 
    <rect width="632" height="993" fill="url(#paint0_linear_1402_10905)"/> 
    <rect x="-329" width="1440" height="993" rx="24" fill="url(#paint1_linear_1402_10905)"/> 
    <rect x="100" y="918" width="10" height="10" rx="5" fill="white"/> 
    <rect x="113" y="918" width="27" height="10" rx="5" fill="white"/> 
    <g clip-path="url(#clip1_1402_10905)"> 
      <path d="M163.234 132L152.709 142.526L149.062 138.863L155.91 132L149.062 125.151L152.709 121.489L163.234 132Z" fill="white"/> 
      <path d="M115.383 138.863L111.735 142.526L101.211 132L111.735 121.489L115.397 125.151L108.535 132L115.383 138.863Z" fill="white"/> 
      <path d="M146.409 115.174L132.222 129.347L118.036 115.174L132.222 100.986L146.409 115.174Z" fill="#D40054"/> 
      <path d="M146.409 148.841L132.222 163.014L118.036 148.841L132.222 134.653L146.409 148.841Z" fill="#D40054"/> 
      <path d="M178.747 113.76H201.886V120.278H185.624V129.145H200.243V135.662H185.624V150.225H178.747C178.747 150.24 178.747 113.76 178.747 113.76ZM209.816 121.402C208.662 121.417 207.552 120.955 206.759 120.119C205.923 119.312 205.476 118.216 205.476 117.062C205.462 115.909 205.923 114.813 206.759 114.02C207.567 113.213 208.677 112.751 209.816 112.766C210.955 112.751 212.05 113.198 212.858 114.02C213.679 114.813 214.126 115.923 214.112 117.062C214.126 118.216 213.679 119.312 212.858 120.119C212.05 120.97 210.955 121.417 209.816 121.402ZM206.442 124.257H213.117V150.24H206.428L206.442 124.257ZM219.115 124.257H225.386V127.516H225.79C226.612 126.261 227.736 125.223 229.077 124.531C230.504 123.796 232.09 123.407 233.69 123.435C235.377 123.392 237.05 123.839 238.477 124.733C239.76 125.512 240.769 126.651 241.375 128.02C242.24 126.651 243.451 125.497 244.864 124.704C246.464 123.825 248.266 123.378 250.083 123.421C252.635 123.248 255.114 124.257 256.844 126.146C258.488 128.237 259.31 130.861 259.166 133.514V150.225H252.534V134.754C252.62 133.399 252.217 132.058 251.38 130.976C250.573 130.068 249.405 129.592 248.194 129.65C246.551 129.607 244.994 130.385 244.042 131.712C242.932 133.298 242.398 135.201 242.485 137.133V150.225H235.824V134.754C235.911 133.384 235.493 132.043 234.628 130.976C233.748 130.054 232.508 129.578 231.24 129.65C229.668 129.621 228.169 130.4 227.289 131.712C226.222 133.312 225.689 135.215 225.79 137.133V150.24H219.115V124.257ZM264.846 124.257H271.117V127.415H271.521C272.3 126.233 273.367 125.252 274.635 124.589C276.063 123.81 277.692 123.407 279.321 123.435C281.57 123.407 283.79 124.012 285.708 125.194C287.64 126.377 289.197 128.078 290.22 130.097C291.33 132.317 291.893 134.768 291.849 137.234C291.893 139.714 291.345 142.18 290.22 144.386C289.197 146.404 287.64 148.091 285.708 149.288C283.79 150.47 281.57 151.076 279.321 151.047C277.677 151.076 276.063 150.687 274.606 149.937C273.352 149.302 272.285 148.336 271.521 147.14H271.117L271.521 150.802V161.227H264.832V124.257H264.846ZM278.139 144.89C279.378 144.905 280.59 144.559 281.656 143.924C282.752 143.275 283.646 142.338 284.252 141.228C284.915 140.002 285.246 138.633 285.217 137.248C285.246 135.864 284.915 134.494 284.252 133.269C283.646 132.159 282.752 131.221 281.656 130.587C280.59 129.967 279.378 129.635 278.139 129.65C276.913 129.65 275.717 129.967 274.678 130.587C273.583 131.221 272.689 132.159 272.083 133.269C271.42 134.494 271.089 135.864 271.117 137.248C271.089 138.633 271.42 140.002 272.083 141.228C272.689 142.338 273.583 143.275 274.678 143.924C275.717 144.559 276.913 144.89 278.139 144.89ZM296.391 113.76H303.066V150.254H296.376L296.391 113.76ZM321.203 151.061C318.766 151.105 316.359 150.485 314.225 149.274C312.178 148.12 310.491 146.419 309.352 144.371C308.155 142.208 307.55 139.772 307.593 137.32C307.579 134.913 308.17 132.534 309.323 130.414C310.448 128.323 312.091 126.564 314.124 125.324C316.171 124.07 318.55 123.407 320.958 123.435C323.38 123.378 325.787 123.969 327.892 125.166C329.795 126.276 331.324 127.934 332.29 129.909C333.313 131.986 333.818 134.278 333.789 136.585C333.789 137.335 333.746 138.085 333.63 138.82H314.109C314.311 140.651 315.191 142.338 316.575 143.549C317.901 144.631 319.574 145.193 321.289 145.15C322.673 145.193 324.043 144.847 325.24 144.155C326.335 143.506 327.229 142.583 327.863 141.473L333.27 144.126C330.934 148.581 326.234 151.278 321.203 151.061ZM327.373 134.105C327.287 133.24 326.984 132.404 326.479 131.683C325.917 130.847 325.167 130.169 324.288 129.693C323.279 129.145 322.14 128.871 321.001 128.9C319.516 128.857 318.06 129.361 316.892 130.299C315.71 131.294 314.845 132.62 314.427 134.091L327.373 134.105Z" fill="white"/> 
    </g> 
    <path d="M550.322 263.194L532.679 280.907L481.772 230L532.679 179.163L550.392 196.876L517.198 230L550.322 263.194Z" fill="white"/> 
    <path d="M700.391 148.619L631.771 217.169L563.151 148.619L631.771 80L700.391 148.619Z" fill="white"/> 
    <path d="M700.391 311.45L631.771 380L563.151 311.45L631.771 242.831L700.391 311.45Z" fill="white"/> 
  </g> 
  <defs> 
  <linearGradient id="paint0_linear_1402_10905" x1="316" y1="0" x2="316" y2="993" gradientUnits="userSpaceOnUse"> 
  <stop stop-color="white"/> 
  <stop offset="0.56" stop-color="#A9D8EF"/> 
  <stop offset="1" stop-color="#006ECD"/> 
</linearGradient> 
<linearGradient id="paint1_linear_1402_10905" x1="391" y1="0" x2="391" y2="993" gradientUnits="userSpaceOnUse"> 
  <stop stop-color="#0034A6"/> 
  <stop offset="0.5" stop-color="#3F6FD4"/> 
  <stop offset="1" stop-color="#73A9E9"/> 
</linearGradient>
    <clipPath id="clip0_1402_10905"> 
      <rect width="632" height="993" fill="white"/> 
    </clipPath> 
    <clipPath id="clip1_1402_10905"> 
      <rect width="235" height="62" fill="white" transform="translate(100 101)"/> 
    </clipPath> 
  </defs> 
</svg>
