<svg width="632" height="993" viewBox="0 0 632 993" fill="none" xmlns="http://www.w3.org/2000/svg">
<g clip-path="url(#clip0_235_33633)">
<rect width="632" height="993" fill="url(#paint0_linear_235_33633)"/>
<rect x="-329" width="1440" height="993" rx="24" fill="url(#paint1_linear_235_33633)"/>
<g clip-path="url(#clip1_235_33633)">
<g clip-path="url(#clip2_235_33633)">
<path d="M137.851 100C116.948 100 100 117.055 100 138.089C100 159.123 116.948 176.178 137.851 176.178C158.754 176.178 175.702 159.123 175.702 138.089C175.702 117.055 158.754 100 137.851 100ZM137.798 158.83C126.447 158.83 117.248 149.573 117.248 138.151C117.248 126.729 126.447 117.472 137.798 117.472C149.149 117.472 158.348 126.729 158.348 138.151C158.348 149.573 149.149 158.83 137.798 158.83Z" fill="white"/>
<path d="M149.132 137.001L136.91 149.3L166.422 178.997L178.644 166.698L149.132 137.001Z" fill="white"/>
<path d="M198.338 167.565V145.419H209.015C211.471 145.419 213.36 145.932 214.682 146.957C216.005 147.982 216.666 149.374 216.666 151.135C216.666 152.432 216.284 153.544 215.528 154.465C214.769 155.387 213.734 156.015 212.424 156.35V155.846C213.984 156.118 215.188 156.722 216.029 157.651C216.871 158.581 217.294 159.792 217.294 161.28C217.294 163.226 216.588 164.763 215.171 165.883C213.754 167.003 211.82 167.565 209.364 167.565H198.346H198.338ZM203.865 154.213H207.956C209.06 154.213 209.865 154.023 210.375 153.647C210.884 153.271 211.138 152.693 211.138 151.92C211.138 151.147 210.884 150.573 210.375 150.209C209.865 149.841 209.056 149.659 207.956 149.659H203.865V154.213ZM203.865 163.321H208.609C209.689 163.321 210.498 163.123 211.028 162.726C211.557 162.329 211.824 161.71 211.824 160.871C211.824 160.032 211.557 159.395 211.028 159.019C210.498 158.643 209.689 158.453 208.609 158.453H203.865V163.321Z" fill="white"/>
<path d="M218.941 167.565L229.245 145.419H233.927L244.292 167.565H238.518L235.865 161.47L238.083 163.073H225.159L227.344 161.47L224.719 167.565H218.946H218.941ZM231.553 151.387L227.902 160.152L227.027 158.676H236.173L235.393 160.152L231.709 151.387H231.553Z" fill="white"/>
<path d="M247.162 167.565V145.419H251.408L262.554 159.338H261.65V145.419H266.989V167.565H262.743L251.659 153.647H252.566V167.565H247.166H247.162Z" fill="white"/>
<path d="M272.541 167.565V145.419H278.315V154.908H278.377L286.808 145.419H293.551L282.873 157.073V154.779L294.142 167.565H287.181L278.377 157.577H278.315V167.565H272.541Z" fill="white"/>
<path d="M294.426 167.565L304.167 145.419H306.697L316.594 167.565H313.596L310.881 161.284L312.13 162.04H298.738L300.109 161.284L297.395 167.565H294.43H294.426ZM305.386 148.684L300.516 160.309L299.769 159.647H311.099L310.508 160.309L305.514 148.684H305.391H305.386Z" fill="white"/>
<path d="M328.269 167.846C326.499 167.846 324.906 167.615 323.493 167.156C322.076 166.697 320.849 166.044 319.81 165.21L320.807 162.883C321.534 163.429 322.274 163.883 323.025 164.251C323.777 164.619 324.582 164.892 325.444 165.069C326.306 165.247 327.251 165.338 328.269 165.338C330.08 165.338 331.419 165.007 332.282 164.35C333.144 163.689 333.575 162.817 333.575 161.726C333.575 160.784 333.271 160.061 332.672 159.557C332.068 159.052 331.017 158.656 329.518 158.362L326.179 157.672C324.159 157.255 322.656 156.569 321.67 155.614C320.68 154.66 320.187 153.366 320.187 151.734C320.187 150.416 320.536 149.258 321.235 148.263C321.933 147.267 322.898 146.498 324.138 145.953C325.374 145.407 326.828 145.134 328.491 145.134C330.031 145.134 331.456 145.366 332.766 145.824C334.076 146.287 335.181 146.965 336.076 147.866L335.078 150.097C334.142 149.238 333.136 148.618 332.064 148.229C330.992 147.841 329.781 147.647 328.425 147.647C326.783 147.647 325.481 148.002 324.524 148.713C323.567 149.424 323.087 150.391 323.087 151.602C323.087 152.564 323.386 153.325 323.99 153.879C324.594 154.432 325.592 154.858 326.988 155.151L330.327 155.813C332.45 156.23 334.006 156.891 334.992 157.792C335.982 158.693 336.474 159.941 336.474 161.532C336.474 162.788 336.142 163.891 335.477 164.846C334.811 165.801 333.863 166.536 332.635 167.061C331.407 167.586 329.949 167.846 328.265 167.846H328.269Z" fill="white"/>
<path d="M342.096 167.565V145.419H345V167.565H342.096Z" fill="white"/>
<path d="M209.751 111.885C202.33 111.885 196.31 117.951 196.31 125.435C196.31 132.919 202.326 138.985 209.751 138.985C217.176 138.985 223.192 132.919 223.192 125.435C223.192 117.951 217.176 111.885 209.751 111.885ZM209.73 132.811C205.702 132.811 202.433 129.518 202.433 125.456C202.433 121.394 205.697 118.1 209.73 118.1C213.763 118.1 217.028 121.394 217.028 125.456C217.028 129.518 213.763 132.811 209.73 132.811Z" fill="white"/>
<path d="M224.235 135.609L219.894 139.985L209.418 129.423L213.759 125.046L224.235 135.609Z" fill="white"/>
<path d="M233.401 136.117V125.369L234.05 127.357L224.535 113.153H228.03L235.344 124.361H234.601L241.915 113.153H245.315L235.8 127.357L236.416 125.369V136.117H233.406H233.401Z" fill="white"/>
<path d="M242.531 136.117L252.629 113.153H255.249L265.512 136.117H262.403L259.586 129.605L260.879 130.386H246.991L248.416 129.605L245.598 136.117H242.522H242.531ZM253.89 116.538L248.839 128.592L248.062 127.906H259.812L259.196 128.592L254.017 116.538H253.886H253.89Z" fill="white"/>
<path d="M271.08 136.117V115.728H263.183V113.153H282.053V115.728H274.123V136.117H271.08Z" fill="white"/>
<path d="M284.607 136.117V113.153H287.618V136.117H284.607Z" fill="white"/>
<path d="M292.509 136.117V113.153H301.963C304.402 113.153 306.283 113.728 307.609 114.881C308.936 116.034 309.601 117.637 309.601 119.703C309.601 121.071 309.297 122.232 308.693 123.187C308.09 124.142 307.244 124.869 306.151 125.369C305.063 125.869 303.794 126.117 302.349 126.117L302.899 125.662H303.675C304.558 125.662 305.346 125.885 306.036 126.332C306.726 126.778 307.297 127.501 307.753 128.497L310.989 136.117H307.654L304.513 128.559C304.147 127.625 303.609 127.018 302.911 126.737C302.209 126.456 301.33 126.315 300.275 126.315H295.515V136.121H292.505L292.509 136.117ZM295.519 123.964H301.507C303.17 123.964 304.435 123.604 305.309 122.889C306.184 122.174 306.62 121.129 306.62 119.761C306.62 118.393 306.184 117.389 305.309 116.682C304.435 115.976 303.166 115.625 301.507 115.625H295.519V123.964Z" fill="white"/>
<path d="M314.356 136.117V113.153H317.367V136.117H314.356Z" fill="white"/>
<path d="M322.253 136.117V113.153H324.906L333.904 133.543H332.935L341.932 113.153H344.552V136.117H341.801V117.191H342.803L334.355 136.117H332.446L323.998 117.191H325V136.117H322.249H322.253Z" fill="white"/>
</g>
</g>
<rect x="100" y="918" width="10" height="10" rx="5" fill="white"/>
<rect x="113" y="918" width="27" height="10" rx="5" fill="white"/>
<g opacity="0.2">
<path d="M436.388 597C323.517 597 232 689.091 232 802.671C232 916.25 323.517 1008.34 436.388 1008.34C549.259 1008.34 640.776 916.25 640.776 802.671C640.776 689.091 549.259 597 436.388 597ZM436.1 914.666C374.808 914.666 325.135 864.682 325.135 803.005C325.135 741.329 374.808 691.345 436.1 691.345C497.391 691.345 547.064 741.329 547.064 803.005C547.064 864.682 497.391 914.666 436.1 914.666Z" fill="white"/>
<path d="M497.304 796.796L431.307 863.208L590.664 1023.57L656.662 957.154L497.304 796.796Z" fill="white"/>
</g>
</g>
<defs>
<linearGradient id="paint0_linear_235_33633" x1="316" y1="0" x2="316" y2="993" gradientUnits="userSpaceOnUse">
<stop stop-color="white"/>
<stop offset="0.56" stop-color="#EFA9AB"/>
<stop offset="1" stop-color="#E81D23"/>
</linearGradient>
<linearGradient id="paint1_linear_235_33633" x1="391" y1="993" x2="391" y2="7.98827e-05" gradientUnits="userSpaceOnUse">
<stop stop-color="#D40054"/>
<stop offset="0.5" stop-color="#D20053"/>
<stop offset="1" stop-color="#FF3484"/>
</linearGradient>
<clipPath id="clip0_235_33633">
<rect width="632" height="993" fill="white"/>
</clipPath>
<clipPath id="clip1_235_33633">
<rect width="245" height="78.5256" fill="white" transform="translate(100 100)"/>
</clipPath>
<clipPath id="clip2_235_33633">
<rect width="245" height="79" fill="white" transform="translate(100 100)"/>
</clipPath>
</defs>
</svg>
