<svg width="632" height="993" viewBox="0 0 632 993" fill="none" xmlns="http://www.w3.org/2000/svg">
<g clip-path="url(#clip0_14925_8903)">
<rect x="-329" width="1440" height="993" rx="24" fill="url(#paint0_linear_14925_8903)"/>
<g clip-path="url(#clip1_14925_8903)">
<mask id="mask0_14925_8903" style="mask-type:luminance" maskUnits="userSpaceOnUse" x="100" y="100" width="80" height="80">
<path d="M111.648 168.6C119.12 175.908 129.157 180 139.609 180C150.061 180 160.098 175.908 167.57 168.6H111.648ZM100.028 145.8C100.602 149.753 101.768 153.596 103.488 157.201H143.019C144.53 157.201 145.98 156.6 147.049 155.531C148.118 154.462 148.719 153.012 148.719 151.501C148.719 149.989 148.118 148.539 147.049 147.47C145.98 146.401 144.53 145.8 143.019 145.8H100.028ZM165.752 145.8C164.24 145.8 162.791 146.401 161.722 147.47C160.653 148.539 160.052 149.989 160.052 151.501C160.052 153.012 160.653 154.462 161.722 155.531C162.791 156.6 164.24 157.201 165.752 157.201H175.73C177.449 153.596 178.615 149.753 179.188 145.8H165.752ZM103.394 122.999C101.697 126.608 100.553 130.451 100 134.4H113.463C114.975 134.4 116.425 133.799 117.494 132.73C118.563 131.661 119.164 130.211 119.164 128.7C119.164 127.188 118.563 125.738 117.494 124.669C116.425 123.6 114.975 122.999 113.463 122.999H103.394ZM136.863 122.999C135.352 122.999 133.902 123.6 132.833 124.669C131.764 125.738 131.163 127.188 131.163 128.7C131.163 130.211 131.764 131.661 132.833 132.73C133.902 133.799 135.352 134.4 136.863 134.4H179.216C178.663 130.451 177.519 126.608 175.822 122.999H136.863ZM139.608 100C129.154 99.9879 119.113 104.082 111.648 111.401H167.57C160.104 104.081 150.063 99.9874 139.608 100Z" fill="white"/>
</mask>
<g mask="url(#mask0_14925_8903)">
<path d="M111.647 110.641L112.554 111.401H111.647V110.641Z" fill="white"/>
<path d="M111.647 109.937L111.692 109.882L113.501 111.401H112.552L111.646 110.64L111.647 109.937Z" fill="white"/>
<path d="M111.692 109.882L112.084 109.414L114.45 111.398H113.501L111.692 109.882Z" fill="white"/>
<path d="M112.084 109.416L112.475 108.948L115.397 111.401H114.448L112.084 109.416Z" fill="white"/>
<path d="M112.475 108.948L112.866 108.48L116.344 111.398H115.395L112.475 108.948Z" fill="white"/>
<path d="M112.868 108.482L113.259 108.014L117.295 111.401H116.346L112.868 108.482Z" fill="white"/>
<path d="M113.262 108.012L113.653 107.544L118.245 111.395H117.296L113.262 108.012Z" fill="white"/>
<path d="M113.652 107.546L114.044 107.078L119.193 111.399H118.244L113.652 107.546Z" fill="white"/>
<path d="M114.046 107.08L114.437 106.612L120.143 111.399H119.194L114.046 107.08Z" fill="white"/>
<path d="M114.437 106.612L114.828 106.144L121.09 111.399H120.141L114.437 106.612Z" fill="white"/>
<path d="M114.828 106.146L115.219 105.678L122.039 111.4H121.092L114.828 106.146Z" fill="white"/>
<path d="M115.222 105.678L115.613 105.21L122.989 111.399H122.04L115.222 105.678Z" fill="white"/>
<path d="M115.612 105.212L116.004 104.744L123.937 111.4H122.988L115.612 105.212Z" fill="white"/>
<path d="M116.004 104.745L116.395 104.277L124.885 111.406H123.936L116.004 104.745Z" fill="white"/>
<path d="M116.396 104.276L116.788 103.808L125.835 111.4H124.886L116.396 104.276Z" fill="white"/>
<path d="M116.788 103.809L117.179 103.341L126.783 111.391H125.834L116.788 103.809Z" fill="white"/>
<path d="M117.18 103.342L117.571 102.874L127.73 111.399H126.781L117.18 103.342Z" fill="white"/>
<path d="M117.572 102.875L117.964 102.407L128.681 111.393H127.732L117.572 102.875Z" fill="white"/>
<path d="M117.964 102.409L118.355 101.941L129.628 111.401H128.679L117.964 102.409Z" fill="white"/>
<path d="M118.354 101.941L118.746 101.473L130.575 111.395H129.626L118.354 101.941Z" fill="white"/>
<path d="M118.748 101.475L119.139 101.007L131.526 111.401H130.577L118.748 101.475Z" fill="white"/>
<path d="M119.14 101.013L119.531 100.545L132.474 111.403H131.525L119.14 101.013Z" fill="white"/>
<path d="M119.53 100.533L119.922 100.065L133.422 111.391H132.473L119.53 100.533Z" fill="white"/>
<path d="M119.924 100.071L119.984 100H120.785L134.37 111.4H133.421L119.924 100.071Z" fill="white"/>
<path d="M121.74 100L135.325 111.4H134.376L120.787 100H121.74Z" fill="white"/>
<path d="M122.683 100L136.269 111.4H135.319L121.734 100H122.683Z" fill="white"/>
<path d="M123.632 100L137.217 111.4H136.268L122.683 100H123.632Z" fill="white"/>
<path d="M124.581 100L138.166 111.4H137.219L123.632 100H124.581Z" fill="white"/>
<path d="M125.53 100L139.115 111.4H138.166L124.581 100H125.53Z" fill="white"/>
<path d="M126.479 100L140.064 111.4H139.115L125.53 100H126.479Z" fill="white"/>
<path d="M127.429 100L141.014 111.4H140.065L126.479 100H127.429Z" fill="white"/>
<path d="M128.378 100L141.963 111.4H141.014L127.429 100H128.378Z" fill="white"/>
<path d="M129.325 100L142.91 111.4H141.961L128.378 100H129.325Z" fill="white"/>
<path d="M130.272 100L143.857 111.4H142.908L129.323 100H130.272Z" fill="white"/>
<path d="M131.222 100L144.807 111.4H143.858L130.272 100H131.222Z" fill="white"/>
<path d="M132.171 100L145.756 111.4H144.807L131.222 100H132.171Z" fill="white"/>
<path d="M133.117 100L146.702 111.4H145.753L132.17 100H133.117Z" fill="white"/>
<path d="M134.068 100L147.653 111.4H146.704L133.119 100H134.068Z" fill="white"/>
<path d="M135.017 100L148.603 111.4H147.653L134.068 100H135.017Z" fill="white"/>
<path d="M135.967 100L149.552 111.4H148.599L135.018 100H135.967Z" fill="white"/>
<path d="M136.916 100L150.501 111.4H149.552L135.967 100H136.916Z" fill="white"/>
<path d="M137.863 100L151.448 111.4H150.499L136.914 100H137.863Z" fill="white"/>
<path d="M138.806 100L152.397 111.4H151.448L137.87 100H138.806Z" fill="white"/>
<path d="M139.76 100L153.345 111.4H152.398L138.812 100H139.76Z" fill="white"/>
<path d="M140.709 100L154.294 111.4H153.345L139.76 100H140.709Z" fill="white"/>
<path d="M141.658 100L155.243 111.4H154.288L140.709 100H141.658Z" fill="white"/>
<path d="M142.606 100L156.191 111.4H155.242L141.657 100H142.606Z" fill="white"/>
<path d="M143.556 100L157.141 111.4H156.192L142.606 100H143.556Z" fill="white"/>
<path d="M144.498 100L158.083 111.4H157.134L143.562 100H144.498Z" fill="white"/>
<path d="M145.452 100L159.037 111.4H158.088L144.503 100H145.452Z" fill="white"/>
<path d="M146.401 100L159.996 111.4H159.047L145.452 100H146.401Z" fill="white"/>
<path d="M147.35 100L160.936 111.4H159.986L146.401 100H147.35Z" fill="white"/>
<path d="M148.3 100L161.885 111.4H160.936L147.351 100H148.3Z" fill="white"/>
<path d="M149.247 100L162.832 111.4H161.883L148.3 100H149.247Z" fill="white"/>
<path d="M150.195 100L163.78 111.4H162.831L149.25 100H150.195Z" fill="white"/>
<path d="M151.145 100L164.731 111.4H163.781L150.196 100H151.145Z" fill="white"/>
<path d="M152.094 100L165.686 111.4H164.737L151.145 100H152.094Z" fill="white"/>
<path d="M153.041 100L166.626 111.4H165.677L152.092 100H153.041Z" fill="white"/>
<path d="M153.99 100L167.568 111.393H166.632L153.041 100H153.99Z" fill="white"/>
<path d="M154.164 100L167.57 111.249V111.395L153.99 100H154.164Z" fill="white"/>
<path d="M167.569 111.249L154.164 100H167.569V111.249Z" fill="white"/>
<path d="M131.163 134.181L131.423 134.4H131.163V134.181Z" fill="white"/>
<path d="M131.163 133.387L132.372 134.402H131.423L131.163 134.183V133.387Z" fill="white"/>
<path d="M131.163 132.59L133.322 134.4H132.372L131.163 133.385V132.59Z" fill="white"/>
<path d="M131.163 131.794L134.271 134.402H133.322L131.163 132.591V131.794Z" fill="white"/>
<path d="M131.163 130.999L135.218 134.402H134.269L131.161 131.794L131.163 130.999Z" fill="white"/>
<path d="M131.163 130.201L136.167 134.4H135.218L131.163 130.997V130.201Z" fill="white"/>
<path d="M131.163 129.405L137.116 134.4H136.167L131.163 130.201V129.405Z" fill="white"/>
<path d="M131.163 128.608L138.065 134.4H137.116L131.163 129.405V128.608Z" fill="white"/>
<path d="M131.163 127.814L139.012 134.402H138.063L131.161 128.61L131.163 127.814Z" fill="white"/>
<path d="M131.163 127.017L139.962 134.4H139.012L131.163 127.812V127.017Z" fill="white"/>
<path d="M131.163 126.221L140.911 134.4H139.962L131.163 127.017V126.221Z" fill="white"/>
<path d="M131.163 125.425L141.86 134.4H140.911L131.163 126.221V125.425Z" fill="white"/>
<path d="M131.163 124.628L142.809 134.4H141.86L131.163 125.424V124.628Z" fill="white"/>
<path d="M131.163 124.089L131.288 123.939L143.756 134.4H142.807L131.161 124.628L131.163 124.089Z" fill="white"/>
<path d="M131.29 123.939L131.681 123.471L144.707 134.4H143.758L131.29 123.939Z" fill="white"/>
<path d="M131.682 123.471L132.073 123.003L145.654 134.4H144.705L131.682 123.471Z" fill="white"/>
<path d="M132.073 123.005H133.009L146.596 134.405H145.647L132.073 123.005Z" fill="white"/>
<path d="M133.964 123.005L147.551 134.405H146.602L133.017 123.005H133.964Z" fill="white"/>
<path d="M134.915 123.005L148.502 134.405H147.553L133.966 123.005H134.915Z" fill="white"/>
<path d="M135.864 123.005L149.451 134.405H148.502L134.915 123.005H135.864Z" fill="white"/>
<path d="M136.813 123.005L150.4 134.405H149.446L135.864 123.005H136.813Z" fill="white"/>
<path d="M137.762 123.005L151.349 134.405H150.399L136.812 123.005H137.762Z" fill="white"/>
<path d="M138.709 123.005L152.296 134.405H151.347L137.762 123.005H138.709Z" fill="white"/>
<path d="M139.655 123.005L153.242 134.405H152.293L138.719 123.005H139.655Z" fill="white"/>
<path d="M140.607 123.005L154.194 134.405H153.245L139.658 123.005H140.607Z" fill="white"/>
<path d="M141.555 123.005L155.142 134.405H154.192L140.605 123.005H141.555Z" fill="white"/>
<path d="M142.504 123.005L156.091 134.405H155.134L141.555 123.005H142.504Z" fill="white"/>
<path d="M143.453 123.005L157.04 134.405H156.091L142.504 123.005H143.453Z" fill="white"/>
<path d="M144.402 123.005L157.989 134.405H157.04L143.453 123.005H144.402Z" fill="white"/>
<path d="M145.343 123.005L158.93 134.405H157.981L144.407 123.005H145.343Z" fill="white"/>
<path d="M146.301 123.005L159.888 134.405H158.939L145.352 123.005H146.301Z" fill="white"/>
<path d="M147.249 123.005L160.836 134.405H159.887L146.3 123.005H147.249Z" fill="white"/>
<path d="M148.196 123.005L161.783 134.405H160.834L147.247 123.005H148.196Z" fill="white"/>
<path d="M149.145 123.005L162.732 134.405H161.783L148.196 123.005H149.145Z" fill="white"/>
<path d="M150.093 123.005L163.68 134.405H162.731L149.144 123.005H150.093Z" fill="white"/>
<path d="M151.042 123.005L164.629 134.405H163.68L150.097 123.005H151.042Z" fill="white"/>
<path d="M151.991 123.005L165.578 134.405H164.629L151.042 123.005H151.991Z" fill="white"/>
<path d="M152.94 123.005L166.527 134.405H165.578L151.991 123.005H152.94Z" fill="white"/>
<path d="M153.89 123.005L167.477 134.405H166.527L152.94 123.005H153.89Z" fill="white"/>
<path d="M154.839 123.005L168.426 134.405H167.477L153.89 123.005H154.839Z" fill="white"/>
<path d="M155.788 123.005L169.375 134.405H168.426L154.839 123.005H155.788Z" fill="white"/>
<path d="M156.736 123.005L170.323 134.405H169.374L155.787 123.005H156.736Z" fill="white"/>
<path d="M157.683 123.005L171.27 134.405H170.321L156.734 123.005H157.683Z" fill="white"/>
<path d="M158.631 123.005L172.218 134.405H171.269L157.682 123.005H158.631Z" fill="white"/>
<path d="M159.58 123.005L173.167 134.405H172.218L158.631 123.005H159.58Z" fill="white"/>
<path d="M160.529 123.005L174.116 134.405H173.167L159.58 123.005H160.529Z" fill="white"/>
<path d="M161.478 123.005L175.065 134.405H174.116L160.529 123.005H161.478Z" fill="white"/>
<path d="M162.428 123.005L176.015 134.405H175.065L161.477 123.005H162.428Z" fill="white"/>
<path d="M163.377 123.005L176.964 134.405H176.015L162.428 123.005H163.377Z" fill="white"/>
<path d="M164.326 123.005L177.913 134.405H176.964L163.377 123.005H164.326Z" fill="white"/>
<path d="M165.273 123.005L178.86 134.405H177.911L164.324 123.005H165.273Z" fill="white"/>
<path d="M166.222 123.005L179.217 133.909V134.405H178.861L165.274 123.005H166.222Z" fill="white"/>
<path d="M167.171 123.005L179.217 133.114V133.909L166.222 123.005H167.171Z" fill="white"/>
<path d="M168.119 123.005L179.216 132.316V133.114L167.166 123.005H168.119Z" fill="white"/>
<path d="M169.067 123.005L179.215 131.521V132.316L168.12 123.005H169.067Z" fill="white"/>
<path d="M170.016 123.005L179.217 130.725V131.521L169.067 123.005H170.016Z" fill="white"/>
<path d="M170.966 123.005L179.218 129.931V130.727L170.017 123.005H170.966Z" fill="white"/>
<path d="M171.915 123.005L179.216 129.132V129.931L170.964 123.005H171.915Z" fill="white"/>
<path d="M172.862 123.005L179.216 128.336V129.132L171.915 123.005H172.862Z" fill="white"/>
<path d="M173.811 123.005L179.219 127.535V128.331L172.854 123.005H173.811Z" fill="white"/>
<path d="M174.761 123.005L179.218 126.749V127.544L173.812 123.005H174.761Z" fill="white"/>
<path d="M175.709 123.005L179.217 125.948V126.744L174.762 123L175.709 123.005Z" fill="white"/>
<path d="M176.658 123.005L179.217 125.152V125.948L175.709 123.005H176.658Z" fill="white"/>
<path d="M177.607 123.005L179.217 124.356V125.152L176.658 123.005H177.607Z" fill="white"/>
<path d="M178.564 123.005L179.225 123.566V124.362L177.615 123.01L178.564 123.005Z" fill="white"/>
<path d="M179.215 123.555L178.555 122.994H179.215V123.555Z" fill="white"/>
<path d="M100 134.303L100.118 134.402H100V134.303Z" fill="white"/>
<path d="M100 133.507L101.067 134.402H100.118L100 134.302V133.507Z" fill="white"/>
<path d="M100 132.709L102.014 134.394H101.067L100 133.505V132.709Z" fill="white"/>
<path d="M100 131.914L102.963 134.4H102.014L100 132.71V131.914Z" fill="white"/>
<path d="M100 131.116L103.912 134.4H102.963L100 131.914V131.116Z" fill="white"/>
<path d="M100 130.321L104.867 134.4H103.912L100 131.116V130.321Z" fill="white"/>
<path d="M100 129.525L105.803 134.393H104.867L100 130.321V129.525Z" fill="white"/>
<path d="M100 128.729L106.758 134.402H105.803L100 129.521V128.729Z" fill="white"/>
<path d="M100 127.934L107.707 134.402H106.758L100 128.73V127.934Z" fill="white"/>
<path d="M100 127.137L108.656 134.4H107.707L100 127.934V127.137Z" fill="white"/>
<path d="M100 126.341L109.605 134.4H108.656L100 127.136V126.341Z" fill="white"/>
<path d="M100 125.581L100.017 125.561L110.552 134.402H109.605L100 126.341V125.581Z" fill="white"/>
<path d="M100.017 125.568L100.408 125.1L111.501 134.407H110.552L100.017 125.568Z" fill="white"/>
<path d="M100.408 125.089L100.799 124.621L112.445 134.4H111.509L100.408 125.089Z" fill="white"/>
<path d="M100.794 124.624L101.185 124.156L113.391 134.398H112.451L100.794 124.624Z" fill="white"/>
<path d="M101.192 124.158L101.584 123.69L114.347 134.4H113.398L101.192 124.158Z" fill="white"/>
<path d="M101.584 123.692L101.975 123.224L115.295 134.4H114.345L101.584 123.692Z" fill="white"/>
<path d="M101.972 123.224L102.159 123H102.653L116.24 134.4H115.291L101.972 123.224Z" fill="white"/>
<path d="M103.607 123.005L117.194 134.405H116.245L102.658 123.005H103.607Z" fill="white"/>
<path d="M104.557 123.005L118.144 134.405H117.194L103.607 123.005H104.557Z" fill="white"/>
<path d="M105.506 123.005L118.599 133.992L118.247 134.4H118.14L104.557 123.005H105.506Z" fill="white"/>
<path d="M106.455 123.005L118.997 133.524L118.606 133.992L105.498 123.005H106.455Z" fill="white"/>
<path d="M107.404 123.005L119.166 132.874V133.316L118.992 133.524L106.449 123.005H107.404Z" fill="white"/>
<path d="M108.351 123.005L119.163 132.078V132.874L107.403 123.005H108.351Z" fill="white"/>
<path d="M109.3 123.005L119.163 131.281V132.077L108.351 123.005H109.3Z" fill="white"/>
<path d="M110.249 123.005L119.165 130.493V131.288L109.3 123.005H110.249Z" fill="white"/>
<path d="M111.206 123.005L119.173 129.69V130.486L110.257 122.998L111.206 123.005Z" fill="white"/>
<path d="M112.145 123.005L119.164 128.894V129.69L111.196 123.005H112.145Z" fill="white"/>
<path d="M113.095 123.005L119.164 128.097V128.892L112.146 123.005H113.095Z" fill="white"/>
<path d="M114.044 123.005L119.164 127.31V128.106L113.095 123.005H114.044Z" fill="white"/>
<path d="M114.993 123.005L119.164 126.506V127.301L114.044 122.996L114.993 123.005Z" fill="white"/>
<path d="M115.942 123.005L119.162 125.704V126.5L114.993 123.005H115.942Z" fill="white"/>
<path d="M116.897 123.005L119.172 124.912V125.708L115.942 123.005H116.897Z" fill="white"/>
<path d="M117.839 123.005L119.164 124.117V124.912L116.89 123.005H117.839Z" fill="white"/>
<path d="M118.786 123.005L119.16 123.321V124.117L117.835 123.005H118.786Z" fill="white"/>
<path d="M119.163 123.316L118.789 123H119.163V123.316Z" fill="white"/>
<path d="M160.054 156.83L160.496 157.204H160.054V156.83Z" fill="white"/>
<path d="M160.054 156.035L161.443 157.201H160.494L160.052 156.827L160.054 156.035Z" fill="white"/>
<path d="M160.054 155.237L162.392 157.199H161.443L160.054 156.033V155.237Z" fill="white"/>
<path d="M160.054 154.441L163.341 157.199H162.392L160.054 155.237V154.441Z" fill="white"/>
<path d="M160.054 153.646L164.29 157.203H163.341L160.054 154.445V153.646Z" fill="white"/>
<path d="M160.054 152.849L165.237 157.199H164.288L160.052 153.642L160.054 152.849Z" fill="white"/>
<path d="M160.054 152.055L166.186 157.201H165.237L160.054 152.85V152.055Z" fill="white"/>
<path d="M160.054 151.257L167.135 157.199H166.186L160.054 152.053V151.257Z" fill="white"/>
<path d="M160.054 150.462L168.085 157.201H167.135L160.054 151.258V150.462Z" fill="white"/>
<path d="M160.054 149.666L169.039 157.201H168.09L160.059 150.462L160.054 149.666Z" fill="white"/>
<path d="M160.054 148.878L169.976 157.208H169.027L160.041 149.674L160.054 148.878Z" fill="white"/>
<path d="M160.054 148.067L170.93 157.193H169.981L160.059 148.863L160.054 148.067Z" fill="white"/>
<path d="M160.054 147.277L171.879 157.199H170.93L160.054 148.073V147.277Z" fill="white"/>
<path d="M160.054 146.882L160.254 146.643L172.828 157.193H171.879L160.054 147.272V146.882Z" fill="white"/>
<path d="M160.26 146.648L160.651 146.18L173.781 157.197H172.832L160.26 146.648Z" fill="white"/>
<path d="M160.646 146.183L160.966 145.808H161.138L174.725 157.209H173.776L160.646 146.183Z" fill="white"/>
<path d="M162.089 145.8L175.674 157.201H174.725L161.14 145.8H162.089Z" fill="white"/>
<path d="M163.032 145.8L176.617 157.201H175.668L162.096 145.8H163.032Z" fill="white"/>
<path d="M163.983 145.8L177.209 156.899L176.956 157.201H176.619L163.034 145.8H163.983Z" fill="white"/>
<path d="M164.932 145.8L177.602 156.431L177.209 156.899L163.983 145.8H164.932Z" fill="white"/>
<path d="M165.882 145.8L177.996 155.965L177.604 156.433L164.935 145.802L165.882 145.8Z" fill="white"/>
<path d="M166.831 145.8L178.387 155.497L177.996 155.965L165.882 145.8H166.831Z" fill="white"/>
<path d="M167.779 145.8L178.779 155.029L178.388 155.497L166.832 145.8H167.779Z" fill="white"/>
<path d="M168.721 145.8L179.163 154.563L178.772 155.031L167.785 145.8H168.721Z" fill="white"/>
<path d="M169.678 145.8L179.189 153.781V154.543L179.172 154.563L168.73 145.8H169.678Z" fill="white"/>
<path d="M170.627 145.8L179.189 152.985V153.781L169.678 145.8H170.627Z" fill="white"/>
<path d="M171.574 145.8L179.188 152.189V152.985L170.625 145.8H171.574Z" fill="white"/>
<path d="M172.523 145.8L179.188 151.394V152.189L171.574 145.8H172.523Z" fill="white"/>
<path d="M173.473 145.8L179.19 150.596V151.392L172.525 145.798L173.473 145.8Z" fill="white"/>
<path d="M174.42 145.8L179.188 149.801V150.596L173.475 145.8H174.42Z" fill="white"/>
<path d="M175.369 145.8L179.188 149.005V149.801L174.42 145.8H175.369Z" fill="white"/>
<path d="M176.318 145.8L179.188 148.21V149.005L175.369 145.8H176.318Z" fill="white"/>
<path d="M177.267 145.8L179.189 147.412V148.208L176.319 145.798L177.267 145.8Z" fill="white"/>
<path d="M178.216 145.8L179.189 146.616V147.412L177.267 145.8H178.216Z" fill="white"/>
<path d="M179.163 145.8L179.187 145.821V146.616L178.214 145.8H179.163Z" fill="white"/>
<path d="M179.187 145.821L179.163 145.8H179.187V145.821Z" fill="white"/>
<path d="M100.028 156.613L100.727 157.199H100.028V156.613Z" fill="white"/>
<path d="M100.028 155.819L101.676 157.201H100.727L100.028 156.615V155.819Z" fill="white"/>
<path d="M100.028 155.022L102.623 157.201H101.676L100.028 155.819V155.022Z" fill="white"/>
<path d="M100.028 154.226L103.572 157.201H102.623L100.028 155.022V154.226Z" fill="white"/>
<path d="M100.028 153.431L104.521 157.201H103.572L100.028 154.226V153.431Z" fill="white"/>
<path d="M100.028 152.637L105.47 157.203H104.521L100.028 153.432V152.637Z" fill="white"/>
<path d="M100.028 151.837L106.419 157.199H105.47L100.028 152.633V151.837Z" fill="white"/>
<path d="M100.028 151.04L107.368 157.193H106.419L100.028 151.838V151.04Z" fill="white"/>
<path d="M100.028 150.247L108.316 157.201H107.368L100.028 151.042V150.247Z" fill="white"/>
<path d="M100.028 149.451L109.265 157.201H108.316L100.028 150.246V149.451Z" fill="white"/>
<path d="M100.028 148.653L110.214 157.197H109.265L100.028 149.447V148.653Z" fill="white"/>
<path d="M100.028 147.858L111.163 157.201H110.214L100.028 148.654V147.858Z" fill="white"/>
<path d="M100.028 147.062L112.11 157.201H111.163L100.028 147.858V147.062Z" fill="white"/>
<path d="M100.028 146.265L113.059 157.199H112.11L100.028 147.06V146.265Z" fill="white"/>
<path d="M100.423 145.8L114.008 157.201H113.059L100.028 146.265V145.8H100.423Z" fill="white"/>
<path d="M101.363 145.8L114.948 157.201H114.006L100.427 145.8H101.363Z" fill="white"/>
<path d="M102.319 145.8L115.904 157.201H114.955L101.37 145.8H102.319Z" fill="white"/>
<path d="M103.268 145.8L116.854 157.201H115.904L102.319 145.8H103.268Z" fill="white"/>
<path d="M104.216 145.8L117.801 157.201H116.844L103.269 145.8H104.216Z" fill="white"/>
<path d="M105.165 145.8L118.75 157.201H117.801L104.216 145.8H105.165Z" fill="white"/>
<path d="M106.114 145.8L119.699 157.201H118.75L105.165 145.8H106.114Z" fill="white"/>
<path d="M107.064 145.8L120.649 157.201H119.7L106.118 145.8H107.064Z" fill="white"/>
<path d="M108.013 145.8L121.598 157.201H120.649L107.063 145.8H108.013Z" fill="white"/>
<path d="M108.961 145.8L122.546 157.201H121.597L108.012 145.8H108.961Z" fill="white"/>
<path d="M109.908 145.8L123.493 157.201H122.544L108.959 145.8H109.908Z" fill="white"/>
<path d="M110.857 145.8L124.442 157.201H123.493L109.908 145.8H110.857Z" fill="white"/>
<path d="M111.807 145.8L125.392 157.201H124.443L110.857 145.8H111.807Z" fill="white"/>
<path d="M112.756 145.8L126.341 157.201H125.392L111.807 145.8H112.756Z" fill="white"/>
<path d="M113.705 145.8L127.29 157.201H126.341L112.756 145.8H113.705Z" fill="white"/>
<path d="M114.652 145.8L128.237 157.201H127.288L113.703 145.8H114.652Z" fill="white"/>
<path d="M115.601 145.8L129.187 157.201H128.237L114.652 145.8H115.601Z" fill="white"/>
<path d="M116.549 145.8L130.134 157.201H129.185L115.6 145.8H116.549Z" fill="white"/>
<path d="M117.498 145.8L131.083 157.201H130.134L116.549 145.8H117.498Z" fill="white"/>
<path d="M118.447 145.8L132.032 157.201H131.083L117.496 145.8H118.447Z" fill="white"/>
<path d="M119.395 145.8L132.981 157.201H132.031L118.446 145.8H119.395Z" fill="white"/>
<path d="M120.345 145.8L133.932 157.201H132.983L119.397 145.8H120.345Z" fill="white"/>
<path d="M121.294 145.8L134.879 157.201H133.93L120.345 145.8H121.294Z" fill="white"/>
<path d="M122.243 145.8L135.828 157.201H134.879L121.294 145.8H122.243Z" fill="white"/>
<path d="M123.192 145.8L136.777 157.201H135.828L122.243 145.8H123.192Z" fill="white"/>
<path d="M124.139 145.8L137.724 157.201H136.777L123.187 145.8H124.139Z" fill="white"/>
<path d="M125.087 145.8L138.672 157.201H137.723L124.14 145.8H125.087Z" fill="white"/>
<path d="M126.036 145.8L139.621 157.201H138.672L125.087 145.8H126.036Z" fill="white"/>
<path d="M126.985 145.8L140.57 157.201H139.621L126.036 145.8H126.985Z" fill="white"/>
<path d="M127.934 145.8L141.52 157.201H140.57L126.985 145.8H127.934Z" fill="white"/>
<path d="M128.883 145.8L142.468 157.201H141.519L127.934 145.8H128.883Z" fill="white"/>
<path d="M129.833 145.8L143.418 157.201H142.469L128.876 145.8H129.833Z" fill="white"/>
<path d="M130.781 145.8L144.366 157.201H143.417L129.832 145.8H130.781Z" fill="white"/>
<path d="M131.731 145.8L145.316 157.201H144.376L130.791 145.8H131.731Z" fill="white"/>
<path d="M132.678 145.8L146.263 157.201H145.314L131.729 145.8H132.678Z" fill="white"/>
<path d="M133.627 145.8L147.212 157.201H146.263L132.678 145.8H133.627Z" fill="white"/>
<path d="M134.583 145.8L147.96 157.032L147.814 157.206H147.221L133.636 145.806L134.583 145.8Z" fill="white"/>
<path d="M135.523 145.801L148.345 156.559L147.952 157.027L134.574 145.795L135.523 145.801Z" fill="white"/>
<path d="M136.473 145.8L148.719 156.076V156.111L148.345 156.559L135.523 145.8H136.473Z" fill="white"/>
<path d="M137.422 145.8L148.719 155.28V156.076L136.473 145.8H137.422Z" fill="white"/>
<path d="M138.37 145.8L148.72 154.485V155.28L137.421 145.8H138.37Z" fill="white"/>
<path d="M139.319 145.8L148.72 153.689V154.485L138.37 145.8H139.319Z" fill="white"/>
<path d="M140.272 145.8L148.724 152.893V153.689L139.317 145.8H140.272Z" fill="white"/>
<path d="M141.216 145.8L148.719 152.096V152.891L140.267 145.8H141.216Z" fill="white"/>
<path d="M142.165 145.8L148.717 151.3V152.096L141.216 145.8H142.165Z" fill="white"/>
<path d="M143.114 145.8L148.721 150.505V151.3L142.169 145.8H143.114Z" fill="white"/>
<path d="M144.061 145.8L148.719 149.709V150.505L143.114 145.8H144.061Z" fill="white"/>
<path d="M145.011 145.8L148.719 148.912V149.707L144.062 145.8H145.011Z" fill="white"/>
<path d="M145.964 145.8L148.723 148.116V148.912L145.011 145.8H145.964Z" fill="white"/>
<path d="M146.909 145.8L148.721 147.32V148.116L145.96 145.8H146.909Z" fill="white"/>
<path d="M147.857 145.8L148.72 146.525V147.32L146.908 145.8H147.857Z" fill="white"/>
<path d="M148.714 146.523L147.851 145.798H148.714V146.523Z" fill="white"/>
<path d="M111.647 168.753L125.053 180.002H111.647V168.753Z" fill="white"/>
<path d="M112.413 168.6L126 180H125.051L111.646 168.751V168.6H112.413Z" fill="white"/>
<path d="M113.364 168.6L126.951 180H126.002L112.415 168.6H113.364Z" fill="white"/>
<path d="M114.313 168.6L127.9 180H126.951L113.364 168.6H114.313Z" fill="white"/>
<path d="M115.261 168.6L128.848 180H127.899L114.312 168.6H115.261Z" fill="white"/>
<path d="M116.21 168.6L129.797 180H128.844L115.257 168.6H116.21Z" fill="white"/>
<path d="M117.159 168.6L130.746 180H129.797L116.21 168.6H117.159Z" fill="white"/>
<path d="M118.106 168.6L131.693 180H130.744L117.157 168.6H118.106Z" fill="white"/>
<path d="M119.054 168.6L132.641 180H131.691L118.104 168.6H119.054Z" fill="white"/>
<path d="M120.004 168.6L133.591 180H132.642L119.055 168.6H120.004Z" fill="white"/>
<path d="M120.953 168.6L134.54 180H133.591L120.004 168.6H120.953Z" fill="white"/>
<path d="M121.901 168.6L135.488 180H134.533L120.946 168.6H121.901Z" fill="white"/>
<path d="M122.849 168.6L136.436 180H135.487L121.9 168.6H122.849Z" fill="white"/>
<path d="M123.799 168.6L137.386 180H136.437L122.85 168.6H123.799Z" fill="white"/>
<path d="M124.742 168.6L138.329 180H137.38L123.793 168.6H124.742Z" fill="white"/>
<path d="M125.697 168.6L139.284 180H138.335L124.748 168.6H125.697Z" fill="white"/>
<path d="M126.646 168.6L140.233 180H139.284L125.697 168.6H126.646Z" fill="white"/>
<path d="M127.595 168.6L141.182 180H140.224L126.637 168.6H127.595Z" fill="white"/>
<path d="M128.543 168.6L142.13 180H141.181L127.594 168.6H128.543Z" fill="white"/>
<path d="M129.491 168.6L143.078 180H142.129L128.542 168.6H129.491Z" fill="white"/>
<path d="M130.432 168.6L144.019 180H143.069L129.482 168.6H130.432Z" fill="white"/>
<path d="M131.388 168.6L144.975 180H144.025L130.438 168.6H131.388Z" fill="white"/>
<path d="M132.337 168.6L145.924 180H144.975L131.388 168.6H132.337Z" fill="white"/>
<path d="M133.286 168.6L146.873 180H145.924L132.337 168.6H133.286Z" fill="white"/>
<path d="M134.235 168.6L147.822 180H146.873L133.286 168.6H134.235Z" fill="white"/>
<path d="M135.184 168.6L148.771 180H147.822L134.235 168.6H135.184Z" fill="white"/>
<path d="M136.134 168.6L149.721 180H148.772L135.185 168.6H136.134Z" fill="white"/>
<path d="M137.083 168.6L150.67 180H149.721L136.134 168.6H137.083Z" fill="white"/>
<path d="M138.028 168.6L151.615 180H150.666L137.079 168.6H138.028Z" fill="white"/>
<path d="M138.977 168.6L152.564 180H151.615L138.028 168.6H138.977Z" fill="white"/>
<path d="M139.926 168.6L153.513 180H152.564L138.977 168.6H139.926Z" fill="white"/>
<path d="M140.875 168.6L154.462 180H153.513L139.926 168.6H140.875Z" fill="white"/>
<path d="M141.824 168.6L155.411 180H154.462L140.875 168.6H141.824Z" fill="white"/>
<path d="M142.773 168.6L156.36 180H155.411L141.824 168.6H142.773Z" fill="white"/>
<path d="M143.723 168.6L157.31 180H156.36L142.773 168.6H143.723Z" fill="white"/>
<path d="M144.672 168.6L158.259 180H157.31L143.723 168.6H144.672Z" fill="white"/>
<path d="M145.619 168.6L159.206 180H158.257L144.67 168.6H145.619Z" fill="white"/>
<path d="M146.568 168.6L159.612 179.545L159.237 180H159.211L145.624 168.6H146.568Z" fill="white"/>
<path d="M147.515 168.6L160.004 179.083L159.612 179.551L146.564 168.6H147.515Z" fill="white"/>
<path d="M148.465 168.599L160.397 178.611L160.004 179.079L147.516 168.596L148.465 168.599Z" fill="white"/>
<path d="M149.413 168.6L160.787 178.147L160.396 178.615L148.464 168.603L149.413 168.6Z" fill="white"/>
<path d="M150.362 168.599L161.181 177.677L160.789 178.143L149.415 168.596L150.362 168.599Z" fill="white"/>
<path d="M151.311 168.6L161.572 177.211L161.181 177.677L150.362 168.6H151.311Z" fill="white"/>
<path d="M152.261 168.6L161.965 176.743L161.574 177.211L151.313 168.6H152.261Z" fill="white"/>
<path d="M153.21 168.6L162.358 176.275L161.965 176.743L152.261 168.6H153.21Z" fill="white"/>
<path d="M154.157 168.6L162.748 175.809L162.356 176.277L153.208 168.601L154.157 168.6Z" fill="white"/>
<path d="M155.106 168.6L163.141 175.339L162.748 175.807L154.157 168.598L155.106 168.6Z" fill="white"/>
<path d="M156.056 168.6L163.532 174.875L163.141 175.343L155.106 168.603L156.056 168.6Z" fill="white"/>
<path d="M157.004 168.599L163.93 174.403L163.537 174.871L156.061 168.596L157.004 168.599Z" fill="white"/>
<path d="M157.954 168.6L164.319 173.94L163.927 174.408L157.001 168.605L157.954 168.6Z" fill="white"/>
<path d="M158.901 168.599L164.704 173.467L164.313 173.935L157.948 168.594L158.901 168.599Z" fill="white"/>
<path d="M159.85 168.6L165.092 173.006L164.699 173.474L158.896 168.607L159.85 168.6Z" fill="white"/>
<path d="M160.797 168.599L165.49 172.53L165.099 172.998L159.857 168.592L160.797 168.599Z" fill="white"/>
<path d="M161.746 168.6L165.883 172.07L165.49 172.538L160.797 168.607L161.746 168.6Z" fill="white"/>
<path d="M162.695 168.599L166.276 171.594L165.885 172.062L161.748 168.592L162.695 168.599Z" fill="white"/>
<path d="M163.652 168.6L166.675 171.136L166.282 171.602L162.701 168.607L163.652 168.6Z" fill="white"/>
<path d="M164.594 168.6L167.061 170.67L166.67 171.138L163.646 168.601L164.594 168.6Z" fill="white"/>
<path d="M165.543 168.6L167.452 170.202L167.061 170.668L164.594 168.598L165.543 168.6Z" fill="white"/>
<path d="M166.492 168.6L167.57 169.504V170.065L167.452 170.206L165.543 168.603L166.492 168.6Z" fill="white"/>
<path d="M167.44 168.6L167.569 168.708V169.504L166.491 168.6H167.44Z" fill="white"/>
<path d="M167.568 168.708L167.438 168.6H167.568V168.708Z" fill="white"/>
</g>
<mask id="mask1_14925_8903" style="mask-type:luminance" maskUnits="userSpaceOnUse" x="100" y="100" width="309" height="80">
<path d="M408.665 100H100V180H408.665V100Z" fill="white"/>
</mask>
<g mask="url(#mask1_14925_8903)">
<path d="M228.017 109.133V161.473H221.373L221.238 154.896C219.925 157.212 217.993 159.117 215.658 160.397C213.324 161.677 210.679 162.282 208.02 162.145C198.157 162.145 190.843 154.763 190.843 143.692C190.843 132.487 198.157 124.972 208.02 124.972C210.664 124.823 213.297 125.416 215.621 126.685C217.945 127.954 219.868 129.848 221.171 132.153V109.133H228.017ZM221.173 143.556C221.173 135.974 216.476 130.875 209.567 130.875C202.588 130.875 197.96 135.974 197.96 143.623C197.96 151.205 202.59 156.238 209.567 156.238C216.478 156.238 221.173 151.207 221.173 143.556Z" fill="white"/>
<path d="M269.16 125.643V158.521C269.16 169.592 261.041 176.905 248.755 176.905C243.112 177.139 237.549 175.512 232.92 172.276L234.395 166.847C238.561 169.686 243.514 171.141 248.553 171.007C256.807 171.007 262.309 165.973 262.309 158.324V155.033C260.99 157.32 259.062 159.195 256.74 160.451C254.418 161.707 251.794 162.294 249.158 162.147C239.294 162.147 231.98 154.631 231.98 143.427C231.98 132.356 239.294 124.974 249.158 124.974C251.817 124.837 254.462 125.442 256.796 126.722C259.131 128.002 261.063 129.907 262.376 132.223L262.511 125.646L269.16 125.643ZM262.316 143.558C262.316 135.976 257.619 130.877 250.71 130.877C243.731 130.877 239.103 135.909 239.103 143.49C239.103 151.139 243.733 156.24 250.71 156.24C257.621 156.24 262.316 151.141 262.316 143.558Z" fill="white"/>
<path d="M312.239 143.423C312.239 154.628 304.925 162.143 295.129 162.143C292.499 162.302 289.877 161.728 287.555 160.484C285.233 159.24 283.302 157.376 281.978 155.098V176.235H275.134V125.642H281.71L281.912 132.151C283.218 129.833 285.15 127.929 287.488 126.659C289.826 125.389 292.475 124.803 295.131 124.97C304.927 124.97 312.241 132.352 312.241 143.423M305.127 143.49C305.127 135.908 300.498 130.875 293.521 130.875C286.609 130.875 281.98 135.974 281.98 143.555C281.98 151.137 286.609 156.236 293.521 156.236C300.499 156.236 305.127 151.139 305.127 143.49Z" fill="white"/>
<path d="M344.582 138.928V161.473H337.939L337.804 155.166C336.576 157.313 334.796 159.092 332.648 160.319C330.501 161.546 328.064 162.177 325.591 162.145C318.41 162.145 313.513 157.85 313.513 151.409C313.513 144.698 319.484 140.27 328.476 140.27C331.589 140.284 334.693 140.622 337.736 141.277V139.668C337.736 133.964 334.045 130.407 328.002 130.407C326.314 130.343 324.63 130.619 323.051 131.218C321.472 131.818 320.029 132.728 318.809 133.896L315.789 129.802C319.624 126.463 324.6 124.732 329.679 124.97C338.603 124.97 344.577 130.54 344.577 138.928M337.733 145.974C334.976 145.376 332.165 145.062 329.344 145.038C324.103 145.038 320.688 147.521 320.688 151.216C320.688 154.84 323.17 157.188 327.532 157.188C332.499 157.188 337.665 153.094 337.731 145.982" fill="white"/>
<path d="M348.005 175.973L348.743 170.404C349.668 170.83 350.679 171.037 351.697 171.008C354.716 171.008 355.924 169.063 357.401 166.244L359.883 160.875L344.181 125.648H351.697L363.44 153.427L374.646 125.648H382.162L364.044 167.117C361.555 173.083 358.934 176.909 352.837 176.909C351.177 176.95 349.529 176.631 348.005 175.973Z" fill="white"/>
<path d="M381.557 158.185L384.241 153.958C387.332 155.897 390.927 156.878 394.575 156.778C398.802 156.778 401.619 154.831 401.619 151.879C401.619 149.061 398.734 147.517 394.775 146.377L391.353 145.441C385.516 143.831 381.489 141.616 381.489 136.047C381.489 129.403 386.858 124.974 394.842 124.974C399.361 124.797 403.828 125.99 407.658 128.396L404.706 132.96C401.881 131.233 398.622 130.349 395.312 130.41C391.285 130.41 388.535 132.223 388.535 135.04C388.535 137.724 391.085 138.999 394.575 140.006L397.997 140.942C403.768 142.485 408.667 145.304 408.667 151.343C408.667 157.852 403.098 162.147 394.509 162.147C389.861 162.392 385.275 160.99 381.558 158.187" fill="white"/>
</g>
</g>
<g opacity="0.1">
<mask id="mask2_14925_8903" style="mask-type:luminance" maskUnits="userSpaceOnUse" x="252" y="585" width="446" height="450">
<path d="M317.518 970.873C359.55 1011.98 416.006 1035 474.799 1035C533.593 1035 590.049 1011.98 632.081 970.873H317.518ZM252.158 842.628C255.384 864.86 261.944 886.479 271.617 906.756H493.98C502.484 906.756 510.639 903.377 516.653 897.364C522.666 891.351 526.044 883.196 526.044 874.692C526.044 866.188 522.666 858.032 516.653 852.019C510.639 846.006 502.484 842.628 493.98 842.628H252.158ZM621.857 842.628C613.353 842.628 605.197 846.006 599.184 852.019C593.171 858.032 589.793 866.188 589.793 874.692C589.793 883.196 593.171 891.351 599.184 897.364C605.197 903.377 613.353 906.756 621.857 906.756H677.982C687.651 886.479 694.208 864.86 697.43 842.628H621.857ZM271.091 714.372C261.544 734.668 255.109 756.287 252 778.5H327.732C336.236 778.5 344.391 775.122 350.405 769.109C356.418 763.095 359.796 754.94 359.796 746.436C359.796 737.932 356.418 729.776 350.405 723.763C344.391 717.75 336.236 714.372 327.732 714.372H271.091ZM459.357 714.372C450.853 714.372 442.698 717.75 436.685 723.763C430.671 729.776 427.293 737.932 427.293 746.436C427.293 754.94 430.671 763.095 436.685 769.109C442.698 775.122 450.853 778.5 459.357 778.5H697.588C694.479 756.287 688.043 734.669 678.497 714.372H459.357ZM474.794 585C415.989 584.932 359.51 607.961 317.518 649.128H632.081C590.087 607.958 533.603 584.929 474.794 585Z" fill="white"/>
</mask>
<g mask="url(#mask2_14925_8903)">
<path d="M317.517 644.854L322.613 649.129H317.517V644.854Z" fill="white"/>
<path d="M317.516 640.894L317.769 640.588L327.941 649.128H322.602L317.506 644.853L317.516 640.894Z" fill="white"/>
<path d="M317.77 640.587L319.97 637.954L333.28 649.116H327.942L317.77 640.587Z" fill="white"/>
<path d="M319.973 637.966L322.173 635.334L338.611 649.128H333.272L319.973 637.966Z" fill="white"/>
<path d="M322.17 635.333L324.371 632.7L343.935 649.117H338.597L322.17 635.333Z" fill="white"/>
<path d="M324.384 632.712L326.585 630.08L349.287 649.128H343.949L324.384 632.712Z" fill="white"/>
<path d="M326.598 630.067L328.798 627.435L354.629 649.095H349.29L326.598 630.067Z" fill="white"/>
<path d="M328.795 627.447L330.996 624.814L359.964 649.118H354.625L328.795 627.447Z" fill="white"/>
<path d="M331.008 624.824L333.209 622.191L365.304 649.117H359.965L331.008 624.824Z" fill="white"/>
<path d="M333.205 622.193L335.406 619.56L370.629 649.118H365.29L333.205 622.193Z" fill="white"/>
<path d="M335.408 619.57L337.609 616.938L375.97 649.128H370.642L335.408 619.57Z" fill="white"/>
<path d="M337.622 616.939L339.823 614.306L381.311 649.118H375.972L337.622 616.939Z" fill="white"/>
<path d="M339.819 614.316L342.02 611.683L386.646 649.128H381.308L339.819 614.316Z" fill="white"/>
<path d="M342.022 611.693L344.223 609.06L391.977 649.158H386.638L342.022 611.693Z" fill="white"/>
<path d="M344.23 609.05L346.431 606.418L397.323 649.128H391.984L344.23 609.05Z" fill="white"/>
<path d="M346.433 606.427L348.633 603.795L402.652 649.074H397.314L346.433 606.427Z" fill="white"/>
<path d="M348.636 603.796L350.837 601.164L407.983 649.117H402.644L348.636 603.796Z" fill="white"/>
<path d="M350.844 601.173L353.045 598.541L413.329 649.085H407.99L350.844 601.173Z" fill="white"/>
<path d="M353.047 598.553L355.248 595.92L418.659 649.129H413.321L353.047 598.553Z" fill="white"/>
<path d="M355.244 595.919L357.445 593.287L423.984 649.096H418.645L355.244 595.919Z" fill="white"/>
<path d="M357.458 593.299L359.659 590.666L429.336 649.129H423.997L357.458 593.299Z" fill="white"/>
<path d="M359.661 590.698L361.862 588.065L434.666 649.14H429.328L359.661 590.698Z" fill="white"/>
<path d="M361.858 588.001L364.059 585.368L440.002 649.075H434.663L361.858 588.001Z" fill="white"/>
<path d="M364.071 585.4L364.408 585H368.915L445.331 649.128H439.993L364.071 585.4Z" fill="white"/>
<path d="M374.288 585L450.704 649.128H445.365L368.928 585H374.288Z" fill="white"/>
<path d="M379.595 585L456.011 649.128H450.672L374.256 585H379.595Z" fill="white"/>
<path d="M384.929 585L461.345 649.128H456.006L379.59 585H384.929Z" fill="white"/>
<path d="M390.268 585L466.685 649.128H461.357L384.93 585H390.268Z" fill="white"/>
<path d="M395.607 585L472.024 649.128H466.685L390.269 585H395.607Z" fill="white"/>
<path d="M400.947 585L477.364 649.128H472.025L395.608 585H400.947Z" fill="white"/>
<path d="M406.286 585L482.702 649.128H477.364L400.947 585H406.286Z" fill="white"/>
<path d="M411.626 585L488.042 649.128H482.703L406.287 585H411.626Z" fill="white"/>
<path d="M416.954 585L493.371 649.128H488.032L411.626 585H416.954Z" fill="white"/>
<path d="M422.282 585L498.699 649.128H493.36L416.943 585H422.282Z" fill="white"/>
<path d="M427.622 585L504.038 649.128H498.7L422.283 585H427.622Z" fill="white"/>
<path d="M432.961 585L509.377 649.128H504.038L427.622 585H432.961Z" fill="white"/>
<path d="M438.284 585L514.701 649.128H509.362L432.956 585H438.284Z" fill="white"/>
<path d="M443.634 585L520.05 649.128H514.711L438.295 585H443.634Z" fill="white"/>
<path d="M448.973 585L525.39 649.128H520.051L443.635 585H448.973Z" fill="white"/>
<path d="M454.313 585L530.73 649.128H525.37L448.975 585H454.313Z" fill="white"/>
<path d="M459.652 585L536.069 649.128H530.73L454.313 585H459.652Z" fill="white"/>
<path d="M464.98 585L541.397 649.128H536.058L459.642 585H464.98Z" fill="white"/>
<path d="M470.285 585L546.733 649.128H541.394L465.02 585H470.285Z" fill="white"/>
<path d="M475.648 585L552.065 649.128H546.737L470.32 585H475.648Z" fill="white"/>
<path d="M480.988 585L557.405 649.128H552.066L475.649 585H480.988Z" fill="white"/>
<path d="M486.327 585L562.743 649.128H557.373L480.988 585H486.327Z" fill="white"/>
<path d="M491.661 585L568.077 649.128H562.739L486.322 585H491.661Z" fill="white"/>
<path d="M497 585L573.416 649.128H568.077L491.661 585H497Z" fill="white"/>
<path d="M502.299 585L578.716 649.128H573.377L497.034 585H502.299Z" fill="white"/>
<path d="M507.668 585L584.084 649.128H578.746L502.329 585H507.668Z" fill="white"/>
<path d="M513.008 585L589.477 649.128H584.138L507.669 585H513.008Z" fill="white"/>
<path d="M518.346 585L594.763 649.128H589.424L513.008 585H518.346Z" fill="white"/>
<path d="M523.686 585L600.103 649.128H594.764L518.348 585H523.686Z" fill="white"/>
<path d="M529.015 585L605.431 649.128H600.092L523.687 585H529.015Z" fill="white"/>
<path d="M534.349 585L610.765 649.128H605.427L529.031 585H534.349Z" fill="white"/>
<path d="M539.693 585L616.11 649.128H610.771L534.354 585H539.693Z" fill="white"/>
<path d="M545.027 585L621.486 649.128H616.147L539.688 585H545.027Z" fill="white"/>
<path d="M550.355 585L626.772 649.128H621.433L545.017 585H550.355Z" fill="white"/>
<path d="M555.695 585L632.069 649.086H626.804L550.356 585H555.695Z" fill="white"/>
<path d="M556.675 585L632.08 648.275V649.096L555.695 585H556.675Z" fill="white"/>
<path d="M632.078 648.275L556.673 585H632.078V648.275Z" fill="white"/>
<path d="M427.293 777.267L428.757 778.499H427.293V777.267Z" fill="white"/>
<path d="M427.293 772.803L434.095 778.51H428.757L427.293 777.279V772.803Z" fill="white"/>
<path d="M427.293 768.318L439.434 778.5H434.095L427.293 772.793V768.318Z" fill="white"/>
<path d="M427.293 763.841L444.773 778.51H439.434L427.293 768.327V763.841Z" fill="white"/>
<path d="M427.292 759.367L450.1 778.511H444.761L427.281 763.842L427.292 759.367Z" fill="white"/>
<path d="M427.293 754.882L455.44 778.501H450.101L427.293 759.357V754.882Z" fill="white"/>
<path d="M427.293 750.405L460.778 778.499H455.44L427.293 754.88V750.405Z" fill="white"/>
<path d="M427.293 745.92L466.117 778.5H460.778L427.293 750.406V745.92Z" fill="white"/>
<path d="M427.292 741.454L471.444 778.509H466.105L427.281 745.929L427.292 741.454Z" fill="white"/>
<path d="M427.293 736.969L476.784 778.499H471.445L427.293 741.444V736.969Z" fill="white"/>
<path d="M427.293 732.494L482.123 778.5H476.784L427.293 736.969V732.494Z" fill="white"/>
<path d="M427.293 728.018L487.462 778.498H482.123L427.293 732.493V728.018Z" fill="white"/>
<path d="M427.293 723.532L492.8 778.499H487.462L427.293 728.007V723.532Z" fill="white"/>
<path d="M427.292 720.499L427.997 719.657L498.127 778.498H492.789L427.281 723.532L427.292 720.499Z" fill="white"/>
<path d="M428.007 719.658L430.208 717.025L503.476 778.5H498.137L428.007 719.658Z" fill="white"/>
<path d="M430.209 717.024L432.41 714.392L508.805 778.498H503.466L430.209 717.024Z" fill="white"/>
<path d="M432.412 714.403H437.677L514.104 778.531H508.765L432.412 714.403Z" fill="white"/>
<path d="M443.047 714.403L519.474 778.531H514.135L437.719 714.403H443.047Z" fill="white"/>
<path d="M448.396 714.403L524.823 778.531H519.485L443.058 714.403H448.396Z" fill="white"/>
<path d="M453.736 714.403L530.163 778.531H524.824L448.397 714.403H453.736Z" fill="white"/>
<path d="M459.075 714.403L535.502 778.531H530.132L453.736 714.403H459.075Z" fill="white"/>
<path d="M464.409 714.403L540.836 778.531H535.497L459.07 714.403H464.409Z" fill="white"/>
<path d="M469.738 714.403L546.165 778.531H540.827L464.41 714.403H469.738Z" fill="white"/>
<path d="M475.058 714.403L551.485 778.531H546.146L469.793 714.403H475.058Z" fill="white"/>
<path d="M480.417 714.403L556.844 778.531H551.505L475.078 714.403H480.417Z" fill="white"/>
<path d="M485.745 714.403L562.172 778.531H556.833L480.406 714.403H485.745Z" fill="white"/>
<path d="M491.084 714.403L567.511 778.531H562.13L485.745 714.403H491.084Z" fill="white"/>
<path d="M496.424 714.403L572.851 778.531H567.512L491.085 714.403H496.424Z" fill="white"/>
<path d="M501.763 714.403L578.189 778.531H572.851L496.424 714.403H501.763Z" fill="white"/>
<path d="M507.056 714.403L583.483 778.531H578.144L501.791 714.403H507.056Z" fill="white"/>
<path d="M512.441 714.403L588.868 778.531H583.529L507.103 714.403H512.441Z" fill="white"/>
<path d="M517.775 714.403L594.202 778.531H588.863L512.437 714.403H517.775Z" fill="white"/>
<path d="M523.103 714.403L599.53 778.531H594.192L517.765 714.403H523.103Z" fill="white"/>
<path d="M528.443 714.403L604.87 778.531H599.531L523.104 714.403H528.443Z" fill="white"/>
<path d="M533.771 714.403L610.198 778.531H604.859L528.433 714.403H533.771Z" fill="white"/>
<path d="M539.112 714.403L615.539 778.531H610.2L533.794 714.403H539.112Z" fill="white"/>
<path d="M544.45 714.403L620.877 778.531H615.538L539.111 714.403H544.45Z" fill="white"/>
<path d="M549.79 714.403L626.217 778.531H620.878L544.451 714.403H549.79Z" fill="white"/>
<path d="M555.129 714.403L631.556 778.531H626.217L549.79 714.403H555.129Z" fill="white"/>
<path d="M560.469 714.403L636.896 778.531H631.557L555.13 714.403H560.469Z" fill="white"/>
<path d="M565.807 714.403L642.234 778.531H636.896L560.469 714.403H565.807Z" fill="white"/>
<path d="M571.141 714.403L647.568 778.531H642.23L565.803 714.403H571.141Z" fill="white"/>
<path d="M576.47 714.403L652.897 778.531H647.558L571.131 714.403H576.47Z" fill="white"/>
<path d="M581.799 714.403L658.226 778.531H652.887L576.46 714.403H581.799Z" fill="white"/>
<path d="M587.138 714.403L663.564 778.531H658.226L581.799 714.403H587.138Z" fill="white"/>
<path d="M592.477 714.403L668.904 778.531H663.566L587.139 714.403H592.477Z" fill="white"/>
<path d="M597.816 714.403L674.243 778.531H668.904L592.478 714.403H597.816Z" fill="white"/>
<path d="M603.155 714.403L679.582 778.531H674.243L597.806 714.403H603.155Z" fill="white"/>
<path d="M608.495 714.403L684.922 778.531H679.583L603.156 714.403H608.495Z" fill="white"/>
<path d="M613.835 714.403L690.262 778.531H684.923L608.496 714.403H613.835Z" fill="white"/>
<path d="M619.163 714.403L695.59 778.531H690.251L613.824 714.403H619.163Z" fill="white"/>
<path d="M624.497 714.403L697.597 775.74V778.531H695.596L619.169 714.403H624.497Z" fill="white"/>
<path d="M629.836 714.403L697.597 771.265V775.74L624.497 714.403H629.836Z" fill="white"/>
<path d="M635.169 714.403L697.591 766.779V771.265L629.81 714.403H635.169Z" fill="white"/>
<path d="M252 777.953L252.663 778.511H252V777.953Z" fill="white"/>
<path d="M252 773.476L258.002 778.509H252.663L252 777.951V773.476Z" fill="white"/>
<path d="M252 768.991L263.33 778.468H258.002L252 773.466V768.991Z" fill="white"/>
<path d="M252 764.517L268.669 778.501H263.33L252 768.992V764.517Z" fill="white"/>
<path d="M252 760.029L274.008 778.498H268.669L252 764.515V760.029Z" fill="white"/>
<path d="M252 755.555L279.378 778.5H274.008L252 760.03V755.555Z" fill="white"/>
<path d="M252 751.081L284.643 778.459H279.378L252 755.556V751.081Z" fill="white"/>
<path d="M252 746.604L290.013 778.51H284.643L252 751.058V746.604Z" fill="white"/>
<path d="M252 742.129L295.352 778.511H290.013L252 746.605V742.129Z" fill="white"/>
<path d="M252 737.644L300.691 778.501H295.352L252 742.13V737.644Z" fill="white"/>
<path d="M252 733.167L306.03 778.499H300.691L252 737.643V733.167Z" fill="white"/>
<path d="M252 728.894L252.095 728.778L311.358 778.512H306.03L252 733.169V728.894Z" fill="white"/>
<path d="M252.094 728.818L254.295 726.186L316.695 778.541H311.357L252.094 728.818Z" fill="white"/>
<path d="M254.296 726.124L256.497 723.491L322.004 778.5H316.739L254.296 726.124Z" fill="white"/>
<path d="M256.466 723.511L258.667 720.879L327.322 778.489H322.036L256.466 723.511Z" fill="white"/>
<path d="M258.707 720.888L260.908 718.256L332.702 778.498H327.363L258.707 720.888Z" fill="white"/>
<path d="M260.91 718.268L263.111 715.636L338.032 778.5H332.693L260.91 718.268Z" fill="white"/>
<path d="M263.091 715.636L264.144 714.373H266.924L343.351 778.5H338.012L263.091 715.636Z" fill="white"/>
<path d="M272.291 714.403L348.718 778.531H343.379L266.952 714.403H272.291Z" fill="white"/>
<path d="M277.631 714.403L354.058 778.531H348.719L272.292 714.403H277.631Z" fill="white"/>
<path d="M282.97 714.403L356.617 776.204L354.637 778.499H354.037L277.631 714.403H282.97Z" fill="white"/>
<path d="M288.308 714.403L358.859 773.571L356.658 776.204L282.927 714.403H288.308Z" fill="white"/>
<path d="M293.648 714.403L359.808 769.917V772.402L358.828 773.571L288.277 714.403H293.648Z" fill="white"/>
<path d="M298.972 714.403L359.793 765.442V769.917L293.644 714.403H298.972Z" fill="white"/>
<path d="M304.31 714.403L359.793 760.956V765.431L298.972 714.403H304.31Z" fill="white"/>
<path d="M309.65 714.403L359.805 756.523V760.998L304.312 714.403H309.65Z" fill="white"/>
<path d="M315.033 714.403L359.849 752.006V756.481L309.694 714.361L315.033 714.403Z" fill="white"/>
<path d="M320.318 714.403L359.795 747.53V752.006L314.979 714.403H320.318Z" fill="white"/>
<path d="M325.657 714.403L359.795 743.044V747.52L320.318 714.403H325.657Z" fill="white"/>
<path d="M330.997 714.403L359.797 738.622V743.097L325.658 714.403H330.997Z" fill="white"/>
<path d="M336.336 714.403L359.797 734.094V738.57L330.997 714.351L336.336 714.403Z" fill="white"/>
<path d="M341.676 714.403L359.787 729.587V734.062L336.337 714.403H341.676Z" fill="white"/>
<path d="M347.046 714.403L359.84 725.133V729.608L341.676 714.403H347.046Z" fill="white"/>
<path d="M352.343 714.403L359.798 720.658V725.133L347.004 714.403H352.343Z" fill="white"/>
<path d="M357.672 714.403L359.778 716.182V720.658L352.322 714.403H357.672Z" fill="white"/>
<path d="M359.794 716.152L357.688 714.373H359.794V716.152Z" fill="white"/>
<path d="M589.803 904.669L592.288 906.775H589.803V904.669Z" fill="white"/>
<path d="M589.803 900.195L597.616 906.756H592.277L589.792 904.65L589.803 900.195Z" fill="white"/>
<path d="M589.803 895.71L602.955 906.746H597.616L589.803 900.186V895.71Z" fill="white"/>
<path d="M589.803 891.233L608.294 906.744H602.955L589.803 895.709V891.233Z" fill="white"/>
<path d="M589.803 886.759L613.632 906.766H608.294L589.803 891.256V886.759Z" fill="white"/>
<path d="M589.803 882.274L618.96 906.746H613.621L589.792 886.739L589.803 882.274Z" fill="white"/>
<path d="M589.803 877.808L624.299 906.755H618.96L589.803 882.283V877.808Z" fill="white"/>
<path d="M589.803 873.323L629.638 906.745H624.299L589.803 877.798V873.323Z" fill="white"/>
<path d="M589.803 868.849L634.977 906.757H629.638L589.803 873.324V868.849Z" fill="white"/>
<path d="M589.803 864.372L640.347 906.755H635.008L589.834 868.847L589.803 864.372Z" fill="white"/>
<path d="M589.805 859.938L645.614 906.797H640.276L589.731 864.414L589.805 859.938Z" fill="white"/>
<path d="M589.803 855.379L650.982 906.713H645.643L589.834 859.855L589.803 855.379Z" fill="white"/>
<path d="M589.803 850.936L656.321 906.745H650.982L589.803 855.411V850.936Z" fill="white"/>
<path d="M589.803 848.713L590.929 847.365L661.66 906.712H656.321L589.803 850.903V848.713Z" fill="white"/>
<path d="M590.962 847.396L593.163 844.764L667.02 906.733H661.681L590.962 847.396Z" fill="white"/>
<path d="M593.132 844.777L594.933 842.671H595.901L672.328 906.799H666.99L593.132 844.777Z" fill="white"/>
<path d="M601.25 842.627L677.666 906.755H672.327L595.911 842.627H601.25Z" fill="white"/>
<path d="M606.554 842.627L682.97 906.755H677.632L601.289 842.627H606.554Z" fill="white"/>
<path d="M611.906 842.627L686.301 905.059L684.879 906.755H682.984L606.567 842.627H611.906Z" fill="white"/>
<path d="M617.246 842.627L688.513 902.427L686.302 905.059L611.907 842.627H617.246Z" fill="white"/>
<path d="M622.586 842.627L690.726 899.805L688.525 902.437L617.258 842.637L622.586 842.627Z" fill="white"/>
<path d="M627.925 842.627L692.926 897.172L690.726 899.805L622.586 842.627H627.925Z" fill="white"/>
<path d="M633.259 842.627L695.133 894.54L692.933 897.172L627.931 842.627H633.259Z" fill="white"/>
<path d="M252.159 903.45L256.087 906.746H252.159V903.45Z" fill="white"/>
<path d="M252.159 898.984L261.426 906.756H256.087L252.159 903.46V898.984Z" fill="white"/>
<path d="M252.159 894.499L266.754 906.756H261.426L252.159 898.985V894.499Z" fill="white"/>
<path d="M252.159 890.022L272.093 906.754H266.754L252.159 894.497V890.022Z" fill="white"/>
<path d="M252.159 885.548L277.431 906.755H272.093L252.159 890.023V885.548Z" fill="white"/>
<path d="M252.159 881.082L282.77 906.765H277.431L252.159 885.557V881.082Z" fill="white"/>
<path d="M252.159 876.586L288.109 906.744H282.77L252.159 881.061V876.586Z" fill="white"/>
<path d="M252.159 872.101L293.447 906.713H288.109L252.159 876.586V872.101Z" fill="white"/>
<path d="M252.159 867.637L298.776 906.756H293.447L252.159 872.112V867.637Z" fill="white"/>
<path d="M252.159 863.161L304.114 906.755H298.776L252.159 867.636V863.161Z" fill="white"/>
<path d="M252.159 858.675L309.453 906.734H304.114L252.159 863.14V858.675Z" fill="white"/>
<path d="M252.159 854.201L314.792 906.756H309.453L252.159 858.676V854.201Z" fill="white"/>
<path d="M252.159 849.724L320.12 906.755H314.792L252.159 854.199V849.724Z" fill="white"/>
<path d="M252.159 845.239L325.459 906.745H320.12L252.159 849.714V845.239Z" fill="white"/>
<path d="M254.381 842.627L330.797 906.755H325.459L252.159 845.238V842.627H254.381Z" fill="white"/>
<path d="M259.665 842.627L336.082 906.755H330.785L254.4 842.627H259.665Z" fill="white"/>
<path d="M265.046 842.627L341.462 906.755H336.123L259.707 842.627H265.046Z" fill="white"/>
<path d="M270.385 842.627L346.801 906.755H341.462L265.046 842.627H270.385Z" fill="white"/>
<path d="M275.714 842.627L352.13 906.755H346.749L270.386 842.627H275.714Z" fill="white"/>
<path d="M281.053 842.627L357.469 906.755H352.13L275.714 842.627H281.053Z" fill="white"/>
<path d="M286.392 842.627L362.809 906.755H357.47L281.054 842.627H286.392Z" fill="white"/>
<path d="M291.733 842.627L368.149 906.755H362.81L286.415 842.627H291.733Z" fill="white"/>
<path d="M297.071 842.627L373.488 906.755H368.149L291.732 842.627H297.071Z" fill="white"/>
<path d="M302.405 842.627L378.822 906.755H373.483L297.066 842.627H302.405Z" fill="white"/>
<path d="M307.733 842.627L384.15 906.755H378.811L302.395 842.627H307.733Z" fill="white"/>
<path d="M313.072 842.627L389.489 906.755H384.15L307.733 842.627H313.072Z" fill="white"/>
<path d="M318.412 842.627L394.828 906.755H389.49L313.073 842.627H318.412Z" fill="white"/>
<path d="M323.751 842.627L400.167 906.755H394.828L318.412 842.627H323.751Z" fill="white"/>
<path d="M329.091 842.627L405.507 906.755H400.168L323.752 842.627H329.091Z" fill="white"/>
<path d="M334.419 842.627L410.835 906.755H405.496L329.08 842.627H334.419Z" fill="white"/>
<path d="M339.759 842.627L416.175 906.755H410.836L334.42 842.627H339.759Z" fill="white"/>
<path d="M345.087 842.627L421.503 906.755H416.164L339.748 842.627H345.087Z" fill="white"/>
<path d="M350.426 842.627L426.842 906.755H421.503L345.087 842.627H350.426Z" fill="white"/>
<path d="M355.765 842.627L432.182 906.755H426.843L350.416 842.627H355.765Z" fill="white"/>
<path d="M361.099 842.627L437.516 906.755H432.177L355.761 842.627H361.099Z" fill="white"/>
<path d="M366.44 842.627L442.866 906.755H437.528L361.111 842.627H366.44Z" fill="white"/>
<path d="M371.778 842.627L448.195 906.755H442.856L366.439 842.627H371.778Z" fill="white"/>
<path d="M377.117 842.627L453.533 906.755H448.195L371.778 842.627H377.117Z" fill="white"/>
<path d="M382.457 842.627L458.873 906.755H453.535L377.118 842.627H382.457Z" fill="white"/>
<path d="M387.785 842.627L464.201 906.755H458.873L382.425 842.627H387.785Z" fill="white"/>
<path d="M393.114 842.627L469.531 906.755H464.192L387.786 842.627H393.114Z" fill="white"/>
<path d="M398.453 842.627L474.869 906.755H469.531L393.114 842.627H398.453Z" fill="white"/>
<path d="M403.792 842.627L480.208 906.755H474.87L398.453 842.627H403.792Z" fill="white"/>
<path d="M409.132 842.627L485.548 906.755H480.209L403.793 842.627H409.132Z" fill="white"/>
<path d="M414.466 842.627L490.882 906.755H485.543L409.127 842.627H414.466Z" fill="white"/>
<path d="M419.809 842.627L496.225 906.755H490.886L414.428 842.627H419.809Z" fill="white"/>
<path d="M425.144 842.627L501.561 906.755H496.222L419.806 842.627H425.144Z" fill="white"/>
<path d="M430.485 842.627L506.902 906.755H501.616L425.199 842.627H430.485Z" fill="white"/>
<path d="M435.811 842.627L512.228 906.755H506.889L430.473 842.627H435.811Z" fill="white"/>
<path d="M441.151 842.627L517.568 906.755H512.229L435.812 842.627H441.151Z" fill="white"/>
<path d="M446.529 842.627L521.777 905.807L520.956 906.786H517.618L441.201 842.659L446.529 842.627Z" fill="white"/>
<path d="M451.819 842.628L523.939 903.144L521.728 905.777L446.48 842.597L451.819 842.628Z" fill="white"/>
<path d="M457.158 842.627L526.045 900.426V900.626L523.939 903.143L451.819 842.627H457.158Z" fill="white"/>
<path d="M462.498 842.627L526.047 895.951V900.426L457.159 842.627H462.498Z" fill="white"/>
<path d="M467.832 842.627L526.052 891.476V895.951L462.493 842.627H467.832Z" fill="white"/>
<path d="M473.171 842.627L526.053 887V891.476L467.832 842.627H473.171Z" fill="white"/>
<path d="M478.53 842.627L526.074 882.525V887L473.16 842.627H478.53Z" fill="white"/>
<path d="M483.839 842.627L526.043 878.039V882.515L478.5 842.627H483.839Z" fill="white"/>
<path d="M489.178 842.627L526.033 873.564V878.039L483.839 842.627H489.178Z" fill="white"/>
<path d="M494.518 842.627L526.055 869.089V873.564L489.2 842.627H494.518Z" fill="white"/>
<path d="M499.846 842.627L526.045 864.614V869.089L494.518 842.627H499.846Z" fill="white"/>
<path d="M505.185 842.627L526.045 860.128V864.603L499.847 842.627H505.185Z" fill="white"/>
<path d="M510.545 842.627L526.067 855.653V860.128L505.186 842.627H510.545Z" fill="white"/>
<path d="M515.864 842.627L526.057 851.177V855.653L510.525 842.627H515.864Z" fill="white"/>
<path d="M521.198 842.627L526.052 846.702V851.177L515.859 842.627H521.198Z" fill="white"/>
<path d="M526.014 846.691L521.16 842.616H526.014V846.691Z" fill="white"/>
<path d="M317.517 971.736L392.922 1035.01H317.517V971.736Z" fill="white"/>
<path d="M321.823 970.873L398.25 1035H392.911L317.506 971.726V970.873H321.823Z" fill="white"/>
<path d="M327.174 970.873L403.601 1035H398.262L321.835 970.873H327.174Z" fill="white"/>
<path d="M332.513 970.873L408.939 1035H403.601L327.174 970.873H332.513Z" fill="white"/>
<path d="M337.841 970.873L414.268 1035H408.929L332.502 970.873H337.841Z" fill="white"/>
<path d="M343.179 970.873L419.606 1035H414.246L337.819 970.873H343.179Z" fill="white"/>
<path d="M348.519 970.873L424.946 1035H419.608L343.181 970.873H348.519Z" fill="white"/>
<path d="M353.848 970.873L430.275 1035H424.937L348.51 970.873H353.848Z" fill="white"/>
<path d="M359.177 970.873L435.604 1035H430.265L353.838 970.873H359.177Z" fill="white"/>
<path d="M364.521 970.873L440.948 1035H435.61L359.183 970.873H364.521Z" fill="white"/>
<path d="M369.861 970.873L446.288 1035H440.949L364.522 970.873H369.861Z" fill="white"/>
<path d="M375.194 970.873L451.62 1035H446.25L369.823 970.873H375.194Z" fill="white"/>
<path d="M380.528 970.873L456.955 1035H451.616L375.189 970.873H380.528Z" fill="white"/>
<path d="M385.868 970.873L462.295 1035H456.956L380.529 970.873H385.868Z" fill="white"/>
<path d="M391.175 970.873L467.602 1035H462.263L385.836 970.873H391.175Z" fill="white"/>
<path d="M396.547 970.873L472.974 1035H467.635L391.208 970.873H396.547Z" fill="white"/>
<path d="M401.886 970.873L478.312 1035H472.974L396.547 970.873H401.886Z" fill="white"/>
<path d="M407.223 970.873L483.65 1035H478.259L401.832 970.873H407.223Z" fill="white"/>
<path d="M412.554 970.873L488.981 1035H483.642L407.215 970.873H412.554Z" fill="white"/>
<path d="M417.888 970.873L494.314 1035H488.976L412.549 970.873H417.888Z" fill="white"/>
<path d="M423.178 970.873L499.604 1035H494.266L417.839 970.873H423.178Z" fill="white"/>
<path d="M428.556 970.873L504.982 1035H499.644L423.217 970.873H428.556Z" fill="white"/>
<path d="M433.894 970.873L510.321 1035H504.983L428.556 970.873H433.894Z" fill="white"/>
<path d="M439.234 970.873L515.661 1035H510.322L433.896 970.873H439.234Z" fill="white"/>
<path d="M444.573 970.873L521 1035H515.661L439.234 970.873H444.573Z" fill="white"/>
<path d="M449.913 970.873L526.34 1035H521.001L444.574 970.873H449.913Z" fill="white"/>
<path d="M455.252 970.873L531.679 1035H526.34L449.913 970.873H455.252Z" fill="white"/>
<path d="M460.592 970.873L537.019 1035H531.68L455.253 970.873H460.592Z" fill="white"/>
<path d="M465.909 970.873L542.336 1035H536.997L460.57 970.873H465.909Z" fill="white"/>
<path d="M471.248 970.873L547.675 1035H542.336L465.909 970.873H471.248Z" fill="white"/>
<path d="M476.582 970.873L553.009 1035H547.67L471.243 970.873H476.582Z" fill="white"/>
<path d="M481.922 970.873L558.349 1035H553.01L476.583 970.873H481.922Z" fill="white"/>
<path d="M487.261 970.873L563.688 1035H558.349L481.922 970.873H487.261Z" fill="white"/>
<path d="M492.6 970.873L569.027 1035H563.689L487.262 970.873H492.6Z" fill="white"/>
<path d="M497.939 970.873L574.366 1035H569.028L492.601 970.873H497.939Z" fill="white"/>
<path d="M503.279 970.873L579.706 1035H574.367L497.94 970.873H503.279Z" fill="white"/>
<path d="M508.607 970.873L585.034 1035H579.695L503.269 970.873H508.607Z" fill="white"/>
<path d="M513.943 970.873L587.316 1032.44L585.21 1035H585.063L508.636 970.873H513.943Z" fill="white"/>
<path d="M519.275 970.873L589.521 1029.84L587.32 1032.47L513.926 970.873H519.275Z" fill="white"/>
<path d="M524.614 970.873L591.733 1027.19L589.521 1029.82L519.275 970.852L524.614 970.873Z" fill="white"/>
<path d="M529.948 970.873L593.928 1024.58L591.728 1027.21L524.609 970.894L529.948 970.873Z" fill="white"/>
<path d="M535.288 970.873L596.141 1021.93L593.94 1024.55L529.96 970.852L535.288 970.873Z" fill="white"/>
<path d="M540.627 970.873L598.342 1019.31L596.141 1021.93L535.288 970.873H540.627Z" fill="white"/>
<path d="M545.967 970.873L600.555 1016.68L598.354 1019.31L540.639 970.873H545.967Z" fill="white"/>
<path d="M551.306 970.873L602.766 1014.05L600.555 1016.68L545.967 970.873H551.306Z" fill="white"/>
<path d="M556.634 970.873L604.956 1011.42L602.755 1014.06L551.295 970.884L556.634 970.873Z" fill="white"/>
<path d="M561.973 970.873L607.168 1008.78L604.957 1011.41L556.635 970.862L561.973 970.873Z" fill="white"/>
<path d="M567.313 970.873L609.37 1006.17L607.169 1008.8L561.975 970.894L567.313 970.873Z" fill="white"/>
<path d="M572.648 970.873L611.609 1003.52L609.398 1006.15L567.341 970.852L572.648 970.873Z" fill="white"/>
<path d="M577.991 970.873L613.793 1000.92L611.592 1003.55L572.631 970.905L577.991 970.873Z" fill="white"/>
<path d="M583.319 970.872L615.962 998.25L613.761 1000.88L577.959 970.84L583.319 970.872Z" fill="white"/>
<path d="M588.658 970.873L618.142 995.661L615.931 998.293L583.288 970.915L588.658 970.873Z" fill="white"/>
<path d="M593.984 970.871L620.383 992.984L618.182 995.617L588.698 970.829L593.984 970.871Z" fill="white"/>
<path d="M599.321 970.873L622.592 990.396L620.381 993.028L593.982 970.915L599.321 970.873Z" fill="white"/>
<path d="M604.661 970.871L624.805 987.719L622.604 990.352L599.333 970.829L604.661 970.871Z" fill="white"/>
<path d="M610.044 970.873L627.049 985.141L624.838 987.763L604.694 970.915L610.044 970.873Z" fill="white"/>
<path d="M615.34 970.873L629.218 982.519L627.018 985.152L610.012 970.884L615.34 970.873Z" fill="white"/>
<path d="M620.679 970.873L631.419 979.886L629.219 982.509L615.34 970.862L620.679 970.873Z" fill="white"/>
<path d="M626.018 970.873L632.084 975.959V979.118L631.42 979.908L620.68 970.894L626.018 970.873Z" fill="white"/>
<path d="M631.352 970.873L632.079 971.484V975.959L626.014 970.873H631.352Z" fill="white"/>
<path d="M632.068 971.484L631.342 970.873H632.068V971.484Z" fill="white"/>
</g>
</g>
<rect x="100" y="918" width="10" height="10" rx="5" fill="white"/>
<rect x="113" y="918" width="27" height="10" rx="5" fill="white"/>
</g>
<defs>
<linearGradient id="paint0_linear_14925_8903" x1="391" y1="993" x2="391" y2="7.98827e-05" gradientUnits="userSpaceOnUse">
<stop stop-color="#1C31B1"/>
<stop offset="1" stop-color="#07C0C5"/>
</linearGradient>
<clipPath id="clip0_14925_8903">
<rect width="632" height="993" fill="white"/>
</clipPath>
<clipPath id="clip1_14925_8903">
<rect width="308.665" height="80" fill="white" transform="translate(100 100)"/>
</clipPath>
</defs>
</svg>
