<svg width="1920" height="149" viewBox="0 0 1920 149" fill="none" xmlns="http://www.w3.org/2000/svg">
<rect width="1920" height="149" fill="url(#paint0_linear_14920_7846)"/>
<g opacity="0.2">
<mask id="mask0_14920_7846" style="mask-type:luminance" maskUnits="userSpaceOnUse" x="-82" y="-4" width="217" height="219">
<path d="M-50.2314 183.104C-29.8507 203.037 -2.47581 214.198 26.032 214.198C54.5399 214.198 81.9147 203.037 102.296 183.104H-50.2314ZM-81.9234 120.92C-80.3592 131.7 -77.1783 142.183 -72.4878 152.014H35.3323C39.4557 152.014 43.4103 150.376 46.3259 147.461C49.2416 144.545 50.8796 140.59 50.8796 136.467C50.8796 132.344 49.2416 128.389 46.3259 125.473C43.4103 122.558 39.4557 120.92 35.3323 120.92H-81.9234ZM97.3377 120.92C93.2143 120.92 89.2598 122.558 86.3441 125.473C83.4285 128.389 81.7904 132.344 81.7904 136.467C81.7904 140.59 83.4285 144.545 86.3441 147.461C89.2598 150.376 93.2143 152.014 97.3377 152.014H124.552C129.241 142.182 132.42 131.7 133.982 120.92H97.3377ZM-72.7431 58.7305C-77.3721 68.5719 -80.4927 79.0543 -82 89.8251H-45.2788C-41.1554 89.8251 -37.2008 88.1871 -34.2852 85.2714C-31.3695 82.3557 -29.7315 78.4012 -29.7315 74.2778C-29.7315 70.1544 -31.3695 66.1999 -34.2852 63.2842C-37.2008 60.3685 -41.1554 58.7305 -45.2788 58.7305H-72.7431ZM18.5443 58.7305C14.4209 58.7305 10.4664 60.3685 7.55072 63.2842C4.63503 66.1999 2.99702 70.1544 2.99702 74.2778C2.99702 78.4012 4.63503 82.3557 7.55072 85.2714C10.4664 88.1871 14.4209 89.8251 18.5443 89.8251H134.059C132.551 79.0545 129.43 68.5722 124.802 58.7305H18.5443ZM26.0295 -3.99992C-2.48415 -4.03301 -29.8703 7.1334 -50.2314 27.0947H102.296C81.9331 7.13216 54.5449 -4.03435 26.0295 -3.99992Z" fill="white"/>
</mask>
<g mask="url(#mask0_14920_7846)">
<path d="M-31.9385 1.29453L-30.8713 0.0180664L1.39249 27.0791H-1.19618L-31.9385 1.29453Z" fill="white"/>
<path d="M-30.8652 0.0240201L-29.7981 -1.25244L3.98725 27.0952H1.39859L-30.8652 0.0240201Z" fill="white"/>
<path d="M-29.7969 -1.23721L-28.7298 -2.51367L6.57205 27.1002H3.98339L-29.7969 -1.23721Z" fill="white"/>
<path d="M-28.7314 -2.54483L-27.6643 -3.82129L9.15904 27.0691H6.57038L-28.7314 -2.54483Z" fill="white"/>
<path d="M-27.6582 -3.80598L-27.4948 -4H-25.3095L11.7436 27.0946H9.15495L-27.6582 -3.80598Z" fill="white"/>
<path d="M-22.7048 -4L14.3483 27.0946H11.7596L-25.3037 -4H-22.7048Z" fill="white"/>
<path d="M-20.1311 -4L16.9221 27.0946H14.3334L-22.7197 -4H-20.1311Z" fill="white"/>
<path d="M-17.5451 -4L19.508 27.0946H16.9193L-20.1338 -4H-17.5451Z" fill="white"/>
<path d="M-14.9563 -4L22.0969 27.0946H19.5133L-17.5449 -4H-14.9563Z" fill="white"/>
<path d="M-12.3674 -4L24.6857 27.0946H22.0971L-14.9561 -4H-12.3674Z" fill="white"/>
<path d="M-9.77852 -4L27.2746 27.0946H24.6859L-12.3672 -4H-9.77852Z" fill="white"/>
<path d="M-7.18966 -4L29.8635 27.0946H27.2748L-9.77832 -4H-7.18966Z" fill="white"/>
<path d="M-4.60079 -4L32.4523 27.0946H29.8637L-7.18945 -4H-4.60079Z" fill="white"/>
<path d="M-2.01605 -4L35.0371 27.0946H32.4484L-4.59961 -4H-2.01605Z" fill="white"/>
<path d="M0.56718 -4L37.6203 27.0946H35.0316L-2.02148 -4H0.56718Z" fill="white"/>
<path d="M3.15603 -4L40.2092 27.0946H37.6205L0.567383 -4H3.15603Z" fill="white"/>
<path d="M5.74493 -4L42.798 27.0946H40.2094L3.15625 -4H5.74493Z" fill="white"/>
<path d="M8.32674 -4L45.3798 27.0946H42.7912L5.74316 -4H8.32674Z" fill="white"/>
<path d="M10.9207 -4L47.9738 27.0946H45.3851L8.33203 -4H10.9207Z" fill="white"/>
<path d="M13.5095 -4L50.5627 27.0946H47.974L10.9209 -4H13.5095Z" fill="white"/>
<path d="M16.0984 -4L53.1516 27.0946H50.5527L13.5098 -4H16.0984Z" fill="white"/>
<path d="M18.6873 -4L55.7404 27.0946H53.1518L16.0986 -4H18.6873Z" fill="white"/>
<path d="M21.2713 -4L58.3244 27.0946H55.7358L18.6826 -4H21.2713Z" fill="white"/>
<path d="M23.843 -4L60.9114 27.0946H58.3227L21.29 -4H23.843Z" fill="white"/>
<path d="M26.4439 -4L63.497 27.0946H60.9135L23.8604 -4H26.4439Z" fill="white"/>
<path d="M29.033 -4L66.0861 27.0946H63.4975L26.4443 -4H29.033Z" fill="white"/>
<path d="M31.6219 -4L68.675 27.0946H66.071L29.0332 -4H31.6219Z" fill="white"/>
<path d="M34.2078 -4L71.2609 27.0946H68.6722L31.6191 -4H34.2078Z" fill="white"/>
<path d="M36.7967 -4L73.8498 27.0946H71.2611L34.208 -4H36.7967Z" fill="white"/>
<path d="M39.3654 -4L76.4186 27.0946H73.8299L36.8125 -4H39.3654Z" fill="white"/>
<path d="M41.9695 -4L79.0226 27.0946H76.434L39.3809 -4H41.9695Z" fill="white"/>
<path d="M44.5584 -4L81.6371 27.0946H79.0484L41.9697 -4H44.5584Z" fill="white"/>
<path d="M47.1472 -4L84.2004 27.0946H81.6117L44.5586 -4H47.1472Z" fill="white"/>
<path d="M49.7361 -4L86.7892 27.0946H84.2006L47.1475 -4H49.7361Z" fill="white"/>
<path d="M52.3199 -4L89.373 27.0946H86.7844L49.7363 -4H52.3199Z" fill="white"/>
<path d="M54.9066 -4L91.9597 27.0946H89.3711L52.3281 -4H54.9066Z" fill="white"/>
<path d="M57.4979 -4L94.551 27.0946H91.9623L54.9092 -4H57.4979Z" fill="white"/>
<path d="M60.0838 -4L97.1573 27.0946H94.5686L57.4951 -4H60.0838Z" fill="white"/>
<path d="M62.6677 -4L99.7209 27.0946H97.1322L60.0791 -4H62.6677Z" fill="white"/>
<path d="M65.2567 -4L102.289 27.0742H99.7364L62.668 -4H65.2567Z" fill="white"/>
<path d="M65.7327 -4L102.296 26.681V27.0793L65.2578 -4H65.7327Z" fill="white"/>
<path d="M102.294 26.681L65.7314 -4H102.294V26.681Z" fill="white"/>
<path d="M2.99609 89.2271L3.70581 89.8245H2.99609V89.2271Z" fill="white"/>
<path d="M2.99609 87.063L6.29449 89.8304H3.70581L2.99609 89.233V87.063Z" fill="white"/>
<path d="M2.99609 84.8882L8.88313 89.8256H6.29449L2.99609 87.0582V84.8882Z" fill="white"/>
<path d="M2.99609 82.7173L11.4718 89.8297H8.88313L2.99609 84.8923V82.7173Z" fill="white"/>
<path d="M2.99631 80.5479L14.0556 89.8303H11.4669L2.99121 82.7178L2.99631 80.5479Z" fill="white"/>
<path d="M2.99609 78.373L16.644 89.8254H14.0554L2.99609 80.543V78.373Z" fill="white"/>
<path d="M2.99609 76.2021L19.2327 89.8245H16.644L2.99609 78.3721V76.2021Z" fill="white"/>
<path d="M2.99609 74.0273L21.8214 89.8248H19.2327L2.99609 76.2024V74.0273Z" fill="white"/>
<path d="M2.99631 71.8623L24.4051 89.8298H21.8165L2.99121 74.0323L2.99631 71.8623Z" fill="white"/>
<path d="M2.99609 69.6875L26.9936 89.825H24.4049L2.99609 71.8575V69.6875Z" fill="white"/>
<path d="M2.99609 67.5176L29.5822 89.825H26.9936L2.99609 69.6876V67.5176Z" fill="white"/>
<path d="M2.99609 65.3467L32.1709 89.8241H29.5822L2.99609 67.5167V65.3467Z" fill="white"/>
<path d="M2.99609 63.1724L34.7596 89.8249H32.1709L2.99609 65.3423V63.1724Z" fill="white"/>
<path d="M2.99631 61.7014L3.33841 61.293L37.3434 89.8244H34.7547L2.99121 63.1719L2.99631 61.7014Z" fill="white"/>
<path d="M3.34277 61.2936L4.40989 60.0171L39.9364 89.825H37.3477L3.34277 61.2936Z" fill="white"/>
<path d="M4.41113 60.0167L5.47825 58.7402L42.5212 89.8246H39.9325L4.41113 60.0167Z" fill="white"/>
<path d="M5.47852 58.7456H8.03144L45.0896 89.8402H42.501L5.47852 58.7456Z" fill="white"/>
<path d="M10.6353 58.7456L47.6935 89.8402H45.1049L8.05176 58.7456H10.6353Z" fill="white"/>
<path d="M13.2303 58.7456L50.2885 89.8402H47.6999L10.6416 58.7456H13.2303Z" fill="white"/>
<path d="M15.8192 58.7456L52.8774 89.8402H50.2887L13.2305 58.7456H15.8192Z" fill="white"/>
<path d="M18.408 58.7456L55.4662 89.8402H52.8622L15.8193 58.7456H18.408Z" fill="white"/>
<path d="M20.9939 58.7456L58.0522 89.8402H55.4635L18.4053 58.7456H20.9939Z" fill="white"/>
<path d="M23.5777 58.7456L60.6359 89.8402H58.0473L20.9941 58.7456H23.5777Z" fill="white"/>
<path d="M26.1574 58.7456L63.2156 89.8402H60.627L23.6045 58.7456H26.1574Z" fill="white"/>
<path d="M28.7557 58.7456L65.8139 89.8402H63.2252L26.167 58.7456H28.7557Z" fill="white"/>
<path d="M31.3386 58.7456L68.3969 89.8402H65.8082L28.75 58.7456H31.3386Z" fill="white"/>
<path d="M33.9285 58.7456L70.9867 89.8402H68.3776L31.3398 58.7456H33.9285Z" fill="white"/>
<path d="M36.5174 58.7456L73.5756 89.8402H70.987L33.9287 58.7456H36.5174Z" fill="white"/>
<path d="M39.1063 58.7456L76.1645 89.8402H73.5758L36.5176 58.7456H39.1063Z" fill="white"/>
<path d="M41.673 58.7456L78.7313 89.8402H76.1426L39.1201 58.7456H41.673Z" fill="white"/>
<path d="M44.284 58.7456L81.3422 89.8402H78.7535L41.6953 58.7456H44.284Z" fill="white"/>
<path d="M46.8699 58.7456L83.9281 89.8402H81.3395L44.2812 58.7456H46.8699Z" fill="white"/>
<path d="M49.4539 58.7456L86.5121 89.8402H83.9235L46.8652 58.7456H49.4539Z" fill="white"/>
<path d="M52.0428 58.7456L89.101 89.8402H86.5124L49.4541 58.7456H52.0428Z" fill="white"/>
<path d="M54.6267 58.7456L91.685 89.8402H89.0963L52.0381 58.7456H54.6267Z" fill="white"/>
<path d="M57.2161 58.7456L94.2744 89.8402H91.6857L54.6377 58.7456H57.2161Z" fill="white"/>
<path d="M59.8055 58.7456L96.8637 89.8402H94.2751L57.2168 58.7456H59.8055Z" fill="white"/>
<path d="M62.3934 58.7456L99.4516 89.8402H96.8629L59.8047 58.7456H62.3934Z" fill="white"/>
<path d="M64.9832 58.7456L102.041 89.8402H99.4527L62.3945 58.7456H64.9832Z" fill="white"/>
<path d="M67.572 58.7456L104.63 89.8402H102.042L64.9834 58.7456H67.572Z" fill="white"/>
<path d="M70.1609 58.7456L107.219 89.8402H104.631L67.5723 58.7456H70.1609Z" fill="white"/>
<path d="M72.7469 58.7456L109.805 89.8402H107.216L70.1582 58.7456H72.7469Z" fill="white"/>
<path d="M75.3299 58.7456L112.388 89.8402H109.799L72.7412 58.7456H75.3299Z" fill="white"/>
<path d="M77.9138 58.7456L114.972 89.8402H112.383L75.3252 58.7456H77.9138Z" fill="white"/>
<path d="M80.5037 58.7456L117.562 89.8402H114.973L77.915 58.7456H80.5037Z" fill="white"/>
<path d="M83.0926 58.7456L120.151 89.8402H117.562L80.5039 58.7456H83.0926Z" fill="white"/>
<path d="M85.6814 58.7456L122.74 89.8402H120.151L83.0928 58.7456H85.6814Z" fill="white"/>
<path d="M88.2695 58.7456L125.328 89.8402H122.739L85.6758 58.7456H88.2695Z" fill="white"/>
<path d="M90.8592 58.7456L127.917 89.8402H125.329L88.2705 58.7456H90.8592Z" fill="white"/>
<path d="M93.4481 58.7456L130.506 89.8402H127.918L90.8594 58.7456H93.4481Z" fill="white"/>
<path d="M96.0311 58.7456L133.089 89.8402H130.501L93.4424 58.7456H96.0311Z" fill="white"/>
<path d="M98.6177 58.7456L134.063 88.4871V89.8402H133.092L96.0342 58.7456H98.6177Z" fill="white"/>
<path d="M101.207 58.7456L134.063 86.3172V88.4871L98.6182 58.7456H101.207Z" fill="white"/>
<path d="M103.793 58.7456L134.061 84.1421V86.3172L101.194 58.7456H103.793Z" fill="white"/>
<path d="M106.38 58.7456L134.059 81.9721V84.1421L103.797 58.7456H106.38Z" fill="white"/>
<path d="M108.969 58.7456L134.064 79.8021V81.9721L106.38 58.7456H108.969Z" fill="white"/>
<path d="M111.557 58.7456L134.064 77.6372V79.8072L108.969 58.7456H111.557Z" fill="white"/>
<path d="M114.146 58.7456L134.059 75.457V77.6372L111.553 58.7456H114.146Z" fill="white"/>
<path d="M116.73 58.7456L134.059 73.2871V75.457L114.146 58.7456H116.73Z" fill="white"/>
<path d="M119.318 58.7456L134.069 71.1017V73.2717L116.709 58.7456H119.318Z" fill="white"/>
<path d="M121.908 58.7456L134.065 68.9573V71.1273L119.319 58.7456H121.908Z" fill="white"/>
<path d="M124.495 58.7458L134.063 66.7722V68.9422L121.911 58.7305L124.495 58.7458Z" fill="white"/>
<path d="M127.084 58.7456L134.063 64.602V66.772L124.495 58.7456H127.084Z" fill="white"/>
<path d="M129.673 58.7456L134.064 62.432V64.602L127.084 58.7456H129.673Z" fill="white"/>
<path d="M132.283 58.7456L134.085 60.2774V62.4473L129.694 58.7609L132.283 58.7456Z" fill="white"/>
<path d="M134.058 60.2461L132.256 58.7144H134.058V60.2461Z" fill="white"/>
<path d="M81.7951 148.833L85.5837 152.014H82.995L81.79 150.993L81.7951 148.833Z" fill="white"/>
<path d="M81.7959 146.659L88.1731 152.01H85.5844L81.7959 148.829V146.659Z" fill="white"/>
<path d="M81.7959 144.488L90.7618 152.009H88.1731L81.7959 146.658V144.488Z" fill="white"/>
<path d="M81.7959 142.318L93.3505 152.019H90.7618L81.7959 144.499V142.318Z" fill="white"/>
<path d="M81.7951 140.144L95.9333 152.01H93.3446L81.79 142.308L81.7951 140.144Z" fill="white"/>
<path d="M81.7959 137.978L98.5227 152.014H95.934L81.7959 140.148V137.978Z" fill="white"/>
<path d="M81.7959 135.803L101.111 152.009H98.5227L81.7959 137.973V135.803Z" fill="white"/>
<path d="M81.7959 133.634L103.7 152.015H101.111L81.7959 135.804V133.634Z" fill="white"/>
<path d="M81.7959 131.463L106.304 152.014H103.715L81.8112 133.633L81.7959 131.463Z" fill="white"/>
<path d="M81.7965 129.313L108.857 152.034H106.269L81.7607 131.483L81.7965 129.313Z" fill="white"/>
<path d="M81.7959 127.103L111.461 151.994H108.872L81.8112 129.273L81.7959 127.103Z" fill="white"/>
<path d="M81.7959 124.948L114.05 152.009H111.461L81.7959 127.118V124.948Z" fill="white"/>
<path d="M81.7959 123.87L82.3422 123.216L116.638 151.993H114.05L81.7959 124.932V123.87Z" fill="white"/>
<path d="M82.3574 123.232L83.4245 121.956L119.237 152.003H116.648L82.3574 123.232Z" fill="white"/>
<path d="M83.4092 121.962L84.2823 120.941H84.752L121.81 152.036H119.222L83.4092 121.962Z" fill="white"/>
<path d="M87.3464 120.919L124.4 152.014H121.811L84.7578 120.919H87.3464Z" fill="white"/>
<path d="M89.9182 120.919L126.971 152.014H124.383L87.3652 120.919H89.9182Z" fill="white"/>
<path d="M92.5135 120.919L128.586 151.192L127.897 152.014H126.978L89.9248 120.919H92.5135Z" fill="white"/>
<path d="M95.1023 120.919L129.659 149.916L128.586 151.192L92.5137 120.919H95.1023Z" fill="white"/>
<path d="M97.691 120.919L130.731 148.644L129.664 149.921L95.1074 120.925L97.691 120.919Z" fill="white"/>
<path d="M100.28 120.919L131.798 147.368L130.731 148.644L97.6914 120.919H100.28Z" fill="white"/>
<path d="M102.867 120.919L132.869 146.091L131.802 147.368L100.283 120.919H102.867Z" fill="white"/>
<path d="M105.436 120.919L133.916 144.82L132.849 146.096L102.883 120.919H105.436Z" fill="white"/>
<path d="M108.044 120.919L133.987 142.686V144.764L133.941 144.82L105.461 120.919H108.044Z" fill="white"/>
<path d="M110.634 120.919L133.988 140.516V142.686L108.045 120.919H110.634Z" fill="white"/>
<path d="M113.217 120.919L133.982 138.346V140.516L110.628 120.919H113.217Z" fill="white"/>
<path d="M115.805 120.919L133.982 136.176V138.346L113.217 120.919H115.805Z" fill="white"/>
<path d="M118.395 120.919L133.988 134V136.17L115.812 120.914L118.395 120.919Z" fill="white"/>
<path d="M120.979 120.919L133.983 131.831V134.001L118.4 120.919H120.979Z" fill="white"/>
<path d="M123.567 120.919L133.983 129.661V131.831L120.979 120.919H123.567Z" fill="white"/>
<path d="M126.157 120.919L133.984 127.491V129.661L123.568 120.919H126.157Z" fill="white"/>
<path d="M128.744 120.919L133.987 125.315V127.485L126.16 120.914L128.744 120.919Z" fill="white"/>
<path d="M131.332 120.919L133.987 123.146V125.316L128.743 120.919H131.332Z" fill="white"/>
<path d="M133.916 120.919L133.982 120.976V123.146L131.327 120.919H133.916Z" fill="white"/>
<path d="M133.982 120.975L133.916 120.919H133.982V120.975Z" fill="white"/>
<path d="M-36.8635 120.919L0.18964 152.014H-2.39902L-39.4521 120.919H-36.8635Z" fill="white"/>
<path d="M-34.2746 120.919L2.77853 152.014H0.189865L-36.8633 120.919H-34.2746Z" fill="white"/>
<path d="M-31.6865 120.919L5.36662 152.014H2.77796L-34.2803 120.919H-31.6865Z" fill="white"/>
<path d="M-29.0998 120.919L7.95331 152.014H5.36465L-31.6885 120.919H-29.0998Z" fill="white"/>
<path d="M-26.5102 120.919L10.548 152.014H7.95937L-29.0938 120.919H-26.5102Z" fill="white"/>
<path d="M-23.9211 120.919L13.132 152.014H10.5434L-26.5098 120.919H-23.9211Z" fill="white"/>
<path d="M-21.3322 120.919L15.7209 152.014H13.1322L-23.9209 120.919H-21.3322Z" fill="white"/>
<path d="M-18.7434 120.919L18.3098 152.014H15.7211L-21.332 120.919H-18.7434Z" fill="white"/>
<path d="M-16.1609 120.919L20.8923 152.014H18.3087L-18.7598 120.919H-16.1609Z" fill="white"/>
<path d="M-13.5766 120.919L23.4765 152.014H20.8879L-16.1602 120.919H-13.5766Z" fill="white"/>
<path d="M-10.9875 120.919L26.0656 152.014H23.477L-13.5762 120.919H-10.9875Z" fill="white"/>
<path d="M-8.39864 120.919L28.6545 152.014H26.0658L-10.9873 120.919H-8.39864Z" fill="white"/>
<path d="M-5.8088 120.919L31.2444 152.014H28.6557L-8.39746 120.919H-5.8088Z" fill="white"/>
<path d="M-3.22286 120.919L33.8303 152.014H31.2416L-5.81152 120.919H-3.22286Z" fill="white"/>
<path d="M-0.632135 120.919L36.421 152.014H33.8323L-3.24121 120.919H-0.632135Z" fill="white"/>
<path d="M1.95487 120.919L39.008 152.014H36.4193L-0.633789 120.919H1.95487Z" fill="white"/>
<path d="M4.54555 120.919L41.5987 152.014H39.0355L1.98242 120.919H4.54555Z" fill="white"/>
<path d="M7.12771 120.919L44.1809 152.014H41.5922L4.53906 120.919H7.12771Z" fill="white"/>
<path d="M9.71657 120.919L46.7697 152.014H44.181L7.12793 120.919H9.71657Z" fill="white"/>
<path d="M12.3238 120.919L48.8102 151.555L48.4119 152.029H46.7933L9.74023 120.935L12.3238 120.919Z" fill="white"/>
<path d="M14.8895 120.92L49.8594 150.263L48.7872 151.539L12.3008 120.904L14.8895 120.92Z" fill="white"/>
<path d="M17.4783 120.919L50.8807 148.945V149.042L49.8596 150.263L14.8896 120.919H17.4783Z" fill="white"/>
<path d="M20.0672 120.919L50.881 146.775V148.945L17.4785 120.919H20.0672Z" fill="white"/>
<path d="M22.6531 120.919L50.8834 144.605V146.775L20.0645 120.919H22.6531Z" fill="white"/>
<path d="M25.242 120.919L50.8835 142.435V144.605L22.6533 120.919H25.242Z" fill="white"/>
<path d="M27.8413 120.919L50.8942 140.265V142.435L25.2373 120.919H27.8413Z" fill="white"/>
<path d="M30.4148 120.919L50.8791 138.09V140.26L27.8262 120.919H30.4148Z" fill="white"/>
<path d="M33.0037 120.919L50.8741 135.92V138.09L30.415 120.919H33.0037Z" fill="white"/>
<path d="M35.5931 120.919L50.8851 133.75V135.92L33.0146 120.919H35.5931Z" fill="white"/>
<path d="M38.1773 120.919L50.8807 131.58V133.75L35.5938 120.919H38.1773Z" fill="white"/>
<path d="M40.7654 120.919L50.8801 129.405V131.575L38.1768 120.919H40.7654Z" fill="white"/>
<path d="M43.3645 120.919L50.8905 127.235V129.405L40.7656 120.919H43.3645Z" fill="white"/>
<path d="M45.9431 120.919L50.8856 125.065V127.235L43.3545 120.919H45.9431Z" fill="white"/>
<path d="M48.5301 120.919L50.8839 122.895V125.065L45.9414 120.919H48.5301Z" fill="white"/>
<path d="M50.8645 122.89L48.5107 120.914H50.8645V122.89Z" fill="white"/>
</g>
</g>
<g opacity="0.2">
<mask id="mask1_14920_7846" style="mask-type:luminance" maskUnits="userSpaceOnUse" x="1800" y="-64" width="217" height="219">
<path d="M1831.77 123.104C1852.15 143.037 1879.52 154.198 1908.03 154.198C1936.54 154.198 1963.91 143.037 1984.3 123.104H1831.77ZM1800.08 60.9197C1801.64 71.7 1804.82 82.1827 1809.51 92.0143H1917.33C1921.46 92.0143 1925.41 90.3763 1928.33 87.4606C1931.24 84.5449 1932.88 80.5904 1932.88 76.467C1932.88 72.3436 1931.24 68.3891 1928.33 65.4734C1925.41 62.5577 1921.46 60.9197 1917.33 60.9197H1800.08ZM1979.34 60.9197C1975.21 60.9197 1971.26 62.5577 1968.34 65.4734C1965.43 68.3891 1963.79 72.3436 1963.79 76.467C1963.79 80.5904 1965.43 84.5449 1968.34 87.4606C1971.26 90.3763 1975.21 92.0143 1979.34 92.0143H2006.55C2011.24 82.1824 2014.42 71.6997 2015.98 60.9197H1979.34ZM1809.26 -1.2695C1804.63 8.57194 1801.51 19.0543 1800 29.8251H1836.72C1840.84 29.8251 1844.8 28.1871 1847.71 25.2714C1850.63 22.3557 1852.27 18.4012 1852.27 14.2778C1852.27 10.1544 1850.63 6.19989 1847.71 3.2842C1844.8 0.368515 1840.84 -1.2695 1836.72 -1.2695H1809.26ZM1900.54 -1.2695C1896.42 -1.2695 1892.47 0.368515 1889.55 3.2842C1886.64 6.19989 1885 10.1544 1885 14.2778C1885 18.4012 1886.64 22.3557 1889.55 25.2714C1892.47 28.1871 1896.42 29.8251 1900.54 29.8251H2016.06C2014.55 19.0545 2011.43 8.57216 2006.8 -1.2695H1900.54ZM1908.03 -63.9999C1879.52 -64.033 1852.13 -52.8666 1831.77 -32.9053H1984.3C1963.93 -52.8678 1936.54 -64.0343 1908.03 -63.9999Z" fill="white"/>
</mask>
<g mask="url(#mask1_14920_7846)">
<path d="M1885 29.2271L1885.71 29.8245H1885V29.2271Z" fill="white"/>
<path d="M1885 27.063L1888.29 29.8304H1885.71L1885 29.233V27.063Z" fill="white"/>
<path d="M1885 24.8882L1890.88 29.8256H1888.29L1885 27.0582V24.8882Z" fill="white"/>
<path d="M1885 22.7173L1893.47 29.8297H1890.88L1885 24.8923V22.7173Z" fill="white"/>
<path d="M1885 20.5479L1896.06 29.8303H1893.47L1884.99 22.7178L1885 20.5479Z" fill="white"/>
<path d="M1885 18.373L1898.64 29.8254H1896.06L1885 20.543V18.373Z" fill="white"/>
<path d="M1885 16.2021L1901.23 29.8245H1898.64L1885 18.3721V16.2021Z" fill="white"/>
<path d="M1885 14.0273L1903.82 29.8248H1901.23L1885 16.2024V14.0273Z" fill="white"/>
<path d="M1885 11.8623L1906.41 29.8298H1903.82L1884.99 14.0323L1885 11.8623Z" fill="white"/>
<path d="M1885 9.6875L1908.99 29.825H1906.4L1885 11.8575V9.6875Z" fill="white"/>
<path d="M1885 7.51758L1911.58 29.825H1908.99L1885 9.68756V7.51758Z" fill="white"/>
<path d="M1885 5.34668L1914.17 29.8241H1911.58L1885 7.51666V5.34668Z" fill="white"/>
<path d="M1885 3.17236L1916.76 29.8249H1914.17L1885 5.34234V3.17236Z" fill="white"/>
<path d="M1885 1.70143L1885.34 1.29297L1919.34 29.8244H1916.75L1884.99 3.17192L1885 1.70143Z" fill="white"/>
<path d="M1885.34 1.29355L1886.41 0.0170898L1921.94 29.825H1919.35L1885.34 1.29355Z" fill="white"/>
<path d="M1886.41 0.016696L1887.48 -1.25977L1924.52 29.8246H1921.93L1886.41 0.016696Z" fill="white"/>
<path d="M1887.48 -1.25439H1890.03L1927.09 29.8402H1924.5L1887.48 -1.25439Z" fill="white"/>
<path d="M1892.64 -1.25439L1929.69 29.8402H1927.1L1890.05 -1.25439H1892.64Z" fill="white"/>
<path d="M1895.23 -1.25439L1932.29 29.8402H1929.7L1892.64 -1.25439H1895.23Z" fill="white"/>
<path d="M1897.82 -1.25439L1934.88 29.8402H1932.29L1895.23 -1.25439H1897.82Z" fill="white"/>
<path d="M1900.41 -1.25439L1937.47 29.8402H1934.86L1897.82 -1.25439H1900.41Z" fill="white"/>
<path d="M1902.99 -1.25439L1940.05 29.8402H1937.46L1900.41 -1.25439H1902.99Z" fill="white"/>
<path d="M1905.58 -1.25439L1942.64 29.8402H1940.05L1902.99 -1.25439H1905.58Z" fill="white"/>
<path d="M1908.16 -1.25439L1945.22 29.8402H1942.63L1905.6 -1.25439H1908.16Z" fill="white"/>
<path d="M1910.76 -1.25439L1947.81 29.8402H1945.23L1908.17 -1.25439H1910.76Z" fill="white"/>
<path d="M1913.34 -1.25439L1950.4 29.8402H1947.81L1910.75 -1.25439H1913.34Z" fill="white"/>
<path d="M1915.93 -1.25439L1952.99 29.8402H1950.38L1913.34 -1.25439H1915.93Z" fill="white"/>
<path d="M1918.52 -1.25439L1955.58 29.8402H1952.99L1915.93 -1.25439H1918.52Z" fill="white"/>
<path d="M1921.11 -1.25439L1958.16 29.8402H1955.58L1918.52 -1.25439H1921.11Z" fill="white"/>
<path d="M1800 29.5601L1800.32 29.8306H1800V29.5601Z" fill="white"/>
<path d="M1800 27.3892L1802.91 29.8297H1800.32L1800 29.5591V27.3892Z" fill="white"/>
<path d="M1800 25.2144L1805.49 29.8096H1802.91L1800 27.3843V25.2144Z" fill="white"/>
<path d="M1800 23.0449L1808.08 29.8255H1805.49L1800 25.2149V23.0449Z" fill="white"/>
<path d="M1800 20.8687L1810.67 29.8243H1808.08L1800 23.0438V20.8687Z" fill="white"/>
<path d="M1800 18.6992L1813.28 29.8249H1810.67L1800 20.8692V18.6992Z" fill="white"/>
<path d="M1800 16.5298L1815.83 29.805H1813.28L1800 18.6998V16.5298Z" fill="white"/>
<path d="M1800 14.3594L1818.43 29.8301H1815.83L1800 16.5191V14.3594Z" fill="white"/>
<path d="M1800 12.1895L1821.02 29.8302H1818.43L1800 14.3595V12.1895Z" fill="white"/>
<path d="M1800 10.0146L1823.61 29.8253H1821.02L1800 12.1897V10.0146Z" fill="white"/>
<path d="M1800 7.84424L1826.2 29.8249H1823.61L1800 10.0142V7.84424Z" fill="white"/>
<path d="M1800 5.77197L1800.05 5.71582L1828.78 29.8307H1826.2L1800 7.84496V5.77197Z" fill="white"/>
<path d="M1800.05 5.73496L1801.11 4.4585L1831.37 29.8448H1828.78L1800.05 5.73496Z" fill="white"/>
<path d="M1801.11 4.42832L1802.18 3.15186L1833.94 29.8248H1831.39L1801.11 4.42832Z" fill="white"/>
<path d="M1802.17 3.1622L1803.23 1.88574L1836.52 29.8198H1833.96L1802.17 3.1622Z" fill="white"/>
<path d="M1803.25 1.89023L1804.32 0.61377L1839.13 29.8243H1836.54L1803.25 1.89023Z" fill="white"/>
<path d="M1804.32 0.619723L1805.39 -0.656738L1841.72 29.8251H1839.13L1804.32 0.619723Z" fill="white"/>
<path d="M1805.38 -0.656835L1805.89 -1.26953H1807.24L1844.29 29.8251H1841.71L1805.38 -0.656835Z" fill="white"/>
<path d="M1809.84 -1.25439L1846.9 29.8402H1844.31L1807.25 -1.25439H1809.84Z" fill="white"/>
<path d="M1812.43 -1.25439L1849.49 29.8402H1846.9L1809.84 -1.25439H1812.43Z" fill="white"/>
<path d="M1815.02 -1.25439L1850.73 28.7118L1849.77 29.8249H1849.48L1812.43 -1.25439H1815.02Z" fill="white"/>
<path d="M1817.61 -1.25439L1851.81 27.4354L1850.75 28.7118L1815 -1.25439H1817.61Z" fill="white"/>
<path d="M1820.19 -1.25439L1852.27 25.6636V26.8686L1851.8 27.4354L1817.59 -1.25439H1820.19Z" fill="white"/>
<path d="M1822.78 -1.25439L1852.27 23.4936V25.6636L1820.19 -1.25439H1822.78Z" fill="white"/>
<path d="M1825.36 -1.25439L1852.27 21.3185V23.4885L1822.78 -1.25439H1825.36Z" fill="white"/>
<path d="M1827.95 -1.25439L1852.27 19.169V21.339L1825.37 -1.25439H1827.95Z" fill="white"/>
<path d="M1830.56 -1.25447L1852.29 16.9785V19.1485L1827.97 -1.2749L1830.56 -1.25447Z" fill="white"/>
<path d="M1833.13 -1.25439L1852.27 14.8086V16.9786L1830.54 -1.25439H1833.13Z" fill="white"/>
<path d="M1835.72 -1.25439L1852.27 12.6335V14.8035L1833.13 -1.25439H1835.72Z" fill="white"/>
<path d="M1838.3 -1.25439L1852.27 10.489V12.659L1835.72 -1.25439H1838.3Z" fill="white"/>
<path d="M1840.89 -1.25474L1852.27 8.29319V10.4632L1838.3 -1.28027L1840.89 -1.25474Z" fill="white"/>
<path d="M1843.48 -1.25439L1852.26 6.10822V8.2782L1840.89 -1.25439H1843.48Z" fill="white"/>
<path d="M1846.09 -1.25439L1852.29 3.94845V6.11845L1843.48 -1.25439H1846.09Z" fill="white"/>
<path d="M1848.66 -1.25439L1852.27 1.77847V3.94845L1846.07 -1.25439H1848.66Z" fill="white"/>
<path d="M1851.24 -1.25439L1852.26 -0.391513V1.77847L1848.64 -1.25439H1851.24Z" fill="white"/>
<path d="M1800.08 90.4116L1801.98 92.0097H1800.08V90.4116Z" fill="white"/>
<path d="M1800.08 88.2461L1804.57 92.0142H1801.98L1800.08 90.4161V88.2461Z" fill="white"/>
<path d="M1800.08 86.0713L1807.15 92.0145H1804.57L1800.08 88.2464V86.0713Z" fill="white"/>
<path d="M1800.08 83.9004L1809.74 92.0136H1807.15L1800.08 86.0704V83.9004Z" fill="white"/>
<path d="M1800.08 81.731L1812.33 92.0141H1809.74L1800.08 83.9009V81.731Z" fill="white"/>
<path d="M1800.08 79.5654L1814.92 92.0186H1812.33L1800.08 81.7354V79.5654Z" fill="white"/>
<path d="M1800.08 77.3857L1817.51 92.0089H1814.92L1800.08 79.5557V77.3857Z" fill="white"/>
<path d="M1800.08 75.2104L1820.1 91.9934H1817.51L1800.08 77.3856V75.2104Z" fill="white"/>
<path d="M1800.08 73.0464L1822.68 92.0146H1820.1L1800.08 75.2164V73.0464Z" fill="white"/>
<path d="M1800.08 70.876L1825.27 92.0142H1822.68L1800.08 73.046V70.876Z" fill="white"/>
<path d="M1800.08 68.7012L1827.86 92.0043H1825.27L1800.08 70.8661V68.7012Z" fill="white"/>
<path d="M1800.08 66.5312L1830.45 92.0145H1827.86L1800.08 68.7012V66.5312Z" fill="white"/>
<path d="M1800.08 64.3608L1833.03 92.0141H1830.45L1800.08 66.5308V64.3608Z" fill="white"/>
<path d="M1800.08 62.186L1835.62 92.0093H1833.03L1800.08 64.356V62.186Z" fill="white"/>
<path d="M1801.15 60.9194L1838.21 92.014H1835.62L1800.08 62.1856V60.9194H1801.15Z" fill="white"/>
<path d="M1803.72 60.9194L1840.77 92.014H1838.2L1801.16 60.9194H1803.72Z" fill="white"/>
<path d="M1806.32 60.9194L1843.38 92.014H1840.79L1803.74 60.9194H1806.32Z" fill="white"/>
<path d="M1808.91 60.9194L1845.97 92.014H1843.38L1806.33 60.9194H1808.91Z" fill="white"/>
<path d="M1811.5 60.9194L1848.55 92.014H1845.94L1808.92 60.9194H1811.5Z" fill="white"/>
<path d="M1814.09 60.9194L1851.14 92.014H1848.55L1811.5 60.9194H1814.09Z" fill="white"/>
<path d="M1816.68 60.9194L1853.73 92.014H1851.14L1814.09 60.9194H1816.68Z" fill="white"/>
<path d="M1819.27 60.9194L1856.32 92.014H1853.73L1816.69 60.9194H1819.27Z" fill="white"/>
<path d="M1821.85 60.9194L1858.91 92.014H1856.32L1819.27 60.9194H1821.85Z" fill="white"/>
<path d="M1824.44 60.9194L1861.49 92.014H1858.9L1821.85 60.9194H1824.44Z" fill="white"/>
<path d="M1827.02 60.9194L1864.08 92.014H1861.49L1824.44 60.9194H1827.02Z" fill="white"/>
<path d="M1829.61 60.9194L1866.67 92.014H1864.08L1827.02 60.9194H1829.61Z" fill="white"/>
<path d="M1832.2 60.9194L1869.26 92.014H1866.67L1829.61 60.9194H1832.2Z" fill="white"/>
<path d="M1834.79 60.9194L1871.84 92.014H1869.26L1832.2 60.9194H1834.79Z" fill="white"/>
<path d="M1837.38 60.9194L1874.43 92.014H1871.85L1834.79 60.9194H1837.38Z" fill="white"/>
<path d="M1839.96 60.9194L1877.02 92.014H1874.43L1837.38 60.9194H1839.96Z" fill="white"/>
<path d="M1842.55 60.9194L1879.61 92.014H1877.02L1839.96 60.9194H1842.55Z" fill="white"/>
<path d="M1845.14 60.9194L1882.19 92.014H1879.6L1842.55 60.9194H1845.14Z" fill="white"/>
<path d="M1847.73 60.9194L1884.78 92.014H1882.19L1845.14 60.9194H1847.73Z" fill="white"/>
<path d="M1850.31 60.9194L1887.37 92.014H1884.78L1847.72 60.9194H1850.31Z" fill="white"/>
<path d="M1852.9 60.9194L1889.95 92.014H1887.36L1850.31 60.9194H1852.9Z" fill="white"/>
<path d="M1855.49 60.9194L1892.55 92.014H1889.96L1852.91 60.9194H1855.49Z" fill="white"/>
<path d="M1858.08 60.9194L1895.13 92.014H1892.54L1855.49 60.9194H1858.08Z" fill="white"/>
<path d="M1860.67 60.9194L1897.72 92.014H1895.13L1858.08 60.9194H1860.67Z" fill="white"/>
<path d="M1863.26 60.9194L1900.31 92.014H1897.72L1860.67 60.9194H1863.26Z" fill="white"/>
<path d="M1865.84 60.9194L1902.89 92.014H1900.31L1863.24 60.9194H1865.84Z" fill="white"/>
<path d="M1868.42 60.9194L1905.48 92.014H1902.89L1865.84 60.9194H1868.42Z" fill="white"/>
<path d="M1871.01 60.9194L1908.07 92.014H1905.48L1868.42 60.9194H1871.01Z" fill="white"/>
<path d="M1873.6 60.9194L1910.65 92.014H1908.07L1871.01 60.9194H1873.6Z" fill="white"/>
<path d="M1876.19 60.9194L1913.24 92.014H1910.66L1873.6 60.9194H1876.19Z" fill="white"/>
<path d="M1878.78 60.9194L1915.83 92.014H1913.24L1876.19 60.9194H1878.78Z" fill="white"/>
<path d="M1881.37 60.9194L1918.42 92.014H1915.83L1878.76 60.9194H1881.37Z" fill="white"/>
<path d="M1883.95 60.9194L1921.01 92.014H1918.42L1881.37 60.9194H1883.95Z" fill="white"/>
<path d="M1886.55 60.9194L1923.6 92.014H1921.04L1883.98 60.9194H1886.55Z" fill="white"/>
<path d="M1889.13 60.9194L1926.18 92.014H1923.59L1886.54 60.9194H1889.13Z" fill="white"/>
<path d="M1891.72 60.9194L1928.77 92.014H1926.18L1889.13 60.9194H1891.72Z" fill="white"/>
<path d="M1894.32 60.9194L1930.81 91.5545L1930.41 92.0293H1928.79L1891.74 60.9347L1894.32 60.9194Z" fill="white"/>
<path d="M1896.89 60.9196L1931.86 90.2629L1930.79 91.5394L1894.3 60.9043L1896.89 60.9196Z" fill="white"/>
<path d="M1899.48 60.9194L1932.88 88.9454V89.0424L1931.86 90.2627L1896.89 60.9194H1899.48Z" fill="white"/>
<path d="M1902.07 60.9194L1932.88 86.7754V88.9454L1899.48 60.9194H1902.07Z" fill="white"/>
<path d="M1904.65 60.9194L1932.88 84.6055V86.7754L1902.06 60.9194H1904.65Z" fill="white"/>
<path d="M1907.24 60.9194L1932.88 82.4355V84.6055L1904.65 60.9194H1907.24Z" fill="white"/>
<path d="M1909.84 60.9194L1932.89 80.2655V82.4355L1907.24 60.9194H1909.84Z" fill="white"/>
<path d="M1912.41 60.9194L1932.88 78.0904V80.2603L1909.83 60.9194H1912.41Z" fill="white"/>
<path d="M1915 60.9194L1932.87 75.9204V78.0904L1912.42 60.9194H1915Z" fill="white"/>
<path d="M1917.59 60.9194L1932.89 73.7504V75.9204L1915.01 60.9194H1917.59Z" fill="white"/>
<path d="M1920.18 60.9194L1932.88 71.5804V73.7504L1917.59 60.9194H1920.18Z" fill="white"/>
<path d="M1831.77 123.522L1868.33 154.203H1831.77V123.522Z" fill="white"/>
<path d="M1833.86 123.104L1870.91 154.199H1868.33L1831.76 123.518V123.104H1833.86Z" fill="white"/>
<path d="M1836.45 123.104L1873.51 154.199H1870.92L1833.86 123.104H1836.45Z" fill="white"/>
<path d="M1839.04 123.104L1876.1 154.199H1873.51L1836.45 123.104H1839.04Z" fill="white"/>
<path d="M1841.62 123.104L1878.68 154.199H1876.09L1839.03 123.104H1841.62Z" fill="white"/>
<path d="M1844.21 123.104L1881.27 154.199H1878.67L1841.61 123.104H1844.21Z" fill="white"/>
<path d="M1846.8 123.104L1883.86 154.199H1881.27L1844.21 123.104H1846.8Z" fill="white"/>
<path d="M1849.38 123.104L1886.44 154.199H1883.85L1846.8 123.104H1849.38Z" fill="white"/>
<path d="M1851.97 123.104L1889.03 154.199H1886.44L1849.38 123.104H1851.97Z" fill="white"/>
<path d="M1854.56 123.104L1891.62 154.199H1889.03L1851.97 123.104H1854.56Z" fill="white"/>
<path d="M1857.15 123.104L1894.21 154.199H1891.62L1854.56 123.104H1857.15Z" fill="white"/>
<path d="M1859.73 123.104L1896.79 154.199H1894.19L1857.13 123.104H1859.73Z" fill="white"/>
<path d="M1862.32 123.104L1899.38 154.199H1896.79L1859.73 123.104H1862.32Z" fill="white"/>
<path d="M1864.91 123.104L1901.97 154.199H1899.38L1862.32 123.104H1864.91Z" fill="white"/>
<path d="M1867.48 123.104L1904.54 154.199H1901.95L1864.89 123.104H1867.48Z" fill="white"/>
<path d="M1870.09 123.104L1907.15 154.199H1904.56L1867.5 123.104H1870.09Z" fill="white"/>
<path d="M1872.68 123.104L1909.74 154.199H1907.15L1870.09 123.104H1872.68Z" fill="white"/>
<path d="M1875.27 123.104L1912.32 154.199H1909.71L1872.65 123.104H1875.27Z" fill="white"/>
<path d="M1877.85 123.104L1914.91 154.199H1912.32L1875.26 123.104H1877.85Z" fill="white"/>
<path d="M1880.44 123.104L1917.49 154.199H1914.91L1877.85 123.104H1880.44Z" fill="white"/>
<path d="M1883 123.104L1920.06 154.199H1917.47L1880.41 123.104H1883Z" fill="white"/>
<path d="M1885.61 123.104L1922.67 154.199H1920.08L1883.02 123.104H1885.61Z" fill="white"/>
<path d="M1888.2 123.104L1925.26 154.199H1922.67L1885.61 123.104H1888.2Z" fill="white"/>
<path d="M1890.79 123.104L1927.85 154.199H1925.26L1888.2 123.104H1890.79Z" fill="white"/>
<path d="M1893.38 123.104L1930.43 154.199H1927.85L1890.79 123.104H1893.38Z" fill="white"/>
<path d="M1895.96 123.104L1933.02 154.199H1930.43L1893.38 123.104H1895.96Z" fill="white"/>
<path d="M1898.55 123.104L1935.61 154.199H1933.02L1895.96 123.104H1898.55Z" fill="white"/>
<path d="M1901.14 123.104L1938.2 154.199H1935.61L1898.55 123.104H1901.14Z" fill="white"/>
<path d="M1903.72 123.104L1940.78 154.199H1938.19L1901.13 123.104H1903.72Z" fill="white"/>
<path d="M1906.31 123.104L1943.37 154.199H1940.78L1903.72 123.104H1906.31Z" fill="white"/>
<path d="M1908.9 123.104L1945.95 154.199H1943.37L1906.31 123.104H1908.9Z" fill="white"/>
<path d="M1911.49 123.104L1948.54 154.199H1945.95L1908.9 123.104H1911.49Z" fill="white"/>
<path d="M1914.07 123.104L1951.13 154.199H1948.54L1911.49 123.104H1914.07Z" fill="white"/>
<path d="M1916.66 123.104L1953.72 154.199H1951.13L1914.07 123.104H1916.66Z" fill="white"/>
<path d="M1919.25 123.104L1956.31 154.199H1953.72L1916.66 123.104H1919.25Z" fill="white"/>
<path d="M1921.84 123.104L1958.9 154.199H1956.31L1919.25 123.104H1921.84Z" fill="white"/>
</g>
</g>
<defs>
<linearGradient id="paint0_linear_14920_7846" x1="3.97893e-06" y1="74.4993" x2="1920" y2="74.4994" gradientUnits="userSpaceOnUse">
<stop stop-color="#1C31B1"/>
<stop offset="1" stop-color="#07C0C5"/>
</linearGradient>
</defs>
</svg>
