<svg width="18" height="18" viewBox="0 0 18 18" fill="none" xmlns="http://www.w3.org/2000/svg">
<g clip-path="url(#clip0_8427_9157)">
<path d="M16.9876 15.8831L11.7704 10.6659C12.58 9.61925 13.0179 8.33956 13.0179 6.99358C13.0179 5.38242 12.3891 3.87171 11.2521 2.73264C10.115 1.59358 8.60029 0.966797 6.99114 0.966797C5.38199 0.966797 3.86726 1.59559 2.7302 2.73264C1.59114 3.8697 0.964355 5.38242 0.964355 6.99358C0.964355 8.60273 1.59315 10.1175 2.7302 11.2545C3.86726 12.3936 5.37998 13.0204 6.99114 13.0204C8.33712 13.0204 9.6148 12.5824 10.6615 11.7748L15.8786 16.99C15.8939 17.0053 15.9121 17.0175 15.9321 17.0257C15.9521 17.034 15.9735 17.0383 15.9952 17.0383C16.0168 17.0383 16.0382 17.034 16.0582 17.0257C16.0782 17.0175 16.0964 17.0053 16.1117 16.99L16.9876 16.1161C17.0029 16.1008 17.015 16.0827 17.0233 16.0627C17.0316 16.0427 17.0359 16.0212 17.0359 15.9996C17.0359 15.978 17.0316 15.9565 17.0233 15.9365C17.015 15.9166 17.0029 15.8984 16.9876 15.8831ZM10.1733 10.1757C9.3215 11.0255 8.19248 11.4936 6.99114 11.4936C5.7898 11.4936 4.66078 11.0255 3.809 10.1757C2.95922 9.32394 2.49114 8.19492 2.49114 6.99358C2.49114 5.79224 2.95922 4.66122 3.809 3.81144C4.66078 2.96166 5.7898 2.49358 6.99114 2.49358C8.19248 2.49358 9.32351 2.95965 10.1733 3.81144C11.0231 4.66323 11.4911 5.79224 11.4911 6.99358C11.4911 8.19492 11.0231 9.32595 10.1733 10.1757Z" fill="#583D97"/>
</g>
<defs>
<clipPath id="clip0_8427_9157">
<rect width="18" height="18" fill="white"/>
</clipPath>
</defs>
</svg>
