<svg width="94" height="94" viewBox="0 0 94 94" fill="none" xmlns="http://www.w3.org/2000/svg">
<circle cx="47.0001" cy="46.631" r="46.631" fill="#F6FFED"/>
<path d="M46.1676 24.4255C33.9326 24.4255 23.9624 34.3957 23.9624 46.6308C23.9624 58.8659 33.9326 68.836 46.1676 68.836C58.4027 68.836 68.3729 58.8659 68.3729 46.6308C68.3729 34.3957 58.4027 24.4255 46.1676 24.4255ZM56.7817 41.5236L44.1914 54.1139C43.8805 54.4248 43.4586 54.6024 43.0145 54.6024C42.5704 54.6024 42.1485 54.4248 41.8376 54.1139L35.5535 47.8299C34.9096 47.1859 34.9096 46.12 35.5535 45.4761C36.1975 44.8321 37.2633 44.8321 37.9073 45.4761L43.0145 50.5833L54.428 39.1698C55.0719 38.5259 56.1378 38.5259 56.7817 39.1698C57.4257 39.8138 57.4257 40.8574 56.7817 41.5236Z" fill="#52C41A"/>
</svg>
