<svg width="94" height="94" viewBox="0 0 94 94" fill="none" xmlns="http://www.w3.org/2000/svg">
<circle cx="47.0001" cy="46.631" r="46.631" fill="#FFFBE6"/>
<path d="M42.6934 66.5147C42.6934 67.6504 43.1445 68.7397 43.9477 69.5428C44.7508 70.3459 45.84 70.7971 46.9758 70.7971C48.1116 70.7971 49.2008 70.3459 50.0039 69.5428C50.807 68.7397 51.2582 67.6504 51.2582 66.5147C51.2582 65.3789 50.807 64.2896 50.0039 63.4865C49.2008 62.6834 48.1116 62.2322 46.9758 62.2322C45.84 62.2322 44.7508 62.6834 43.9477 63.4865C43.1445 64.2896 42.6934 65.3789 42.6934 66.5147ZM44.8346 55.2733H49.117C49.4114 55.2733 49.6523 55.0324 49.6523 54.738V23.6903C49.6523 23.3959 49.4114 23.155 49.117 23.155H44.8346C44.5402 23.155 44.2993 23.3959 44.2993 23.6903V54.738C44.2993 55.0324 44.5402 55.2733 44.8346 55.2733Z" fill="#FAAD14"/>
</svg>
