<svg width="34" height="34" viewBox="0 0 34 34" fill="none" xmlns="http://www.w3.org/2000/svg">
<path d="M18.4059 0.127197H15.5934C15.3434 0.127197 15.2184 0.252197 15.2184 0.502197V15.2209H1.25073C1.00073 15.2209 0.875732 15.3459 0.875732 15.5959V18.4085C0.875732 18.6585 1.00073 18.7835 1.25073 18.7835H15.2184V33.5022C15.2184 33.7522 15.3434 33.8772 15.5934 33.8772H18.4059C18.6559 33.8772 18.7809 33.7522 18.7809 33.5022V18.7835H32.7507C33.0007 18.7835 33.1257 18.6585 33.1257 18.4085V15.5959C33.1257 15.3459 33.0007 15.2209 32.7507 15.2209H18.7809V0.502197C18.7809 0.252197 18.6559 0.127197 18.4059 0.127197Z" fill="#583D97"/>
</svg>
