<svg width="34" height="28" viewBox="0 0 34 28" fill="none" xmlns="http://www.w3.org/2000/svg">
<path d="M1.25 27.125V2.1875C1.25 1.8394 1.38828 1.50556 1.63442 1.25942C1.88056 1.01328 2.2144 0.875 2.5625 0.875H31.4375C31.7856 0.875 32.1194 1.01328 32.3656 1.25942C32.6117 1.50556 32.75 1.8394 32.75 2.1875V27.125L27.5 24.5L22.25 27.125L17 24.5L11.75 27.125L6.5 24.5L1.25 27.125Z" fill="#E81D23" fill-opacity="0.25"/>
<path d="M8.46875 15.3125H25.5312M8.46875 10.0625H25.5312M1.25 27.125V2.1875C1.25 1.8394 1.38828 1.50556 1.63442 1.25942C1.88056 1.01328 2.2144 0.875 2.5625 0.875H31.4375C31.7856 0.875 32.1194 1.01328 32.3656 1.25942C32.6117 1.50556 32.75 1.8394 32.75 2.1875V27.125L27.5 24.5L22.25 27.125L17 24.5L11.75 27.125L6.5 24.5L1.25 27.125Z" stroke="#E81D23" stroke-linecap="round" stroke-linejoin="round"/>
</svg>
