<svg width="18" height="18" viewBox="0 0 18 18" fill="none" xmlns="http://www.w3.org/2000/svg">
<path d="M16.0713 3.70007H13.3391L12.6883 1.87597C12.6433 1.75115 12.5609 1.64326 12.4523 1.56703C12.3437 1.4908 12.2142 1.44996 12.0816 1.45007H5.91816C5.64696 1.45007 5.40388 1.62083 5.31348 1.87597L4.66057 3.70007H1.92843C1.04049 3.70007 0.321289 4.41927 0.321289 5.30722V14.4679C0.321289 15.3559 1.04049 16.0751 1.92843 16.0751H16.0713C16.9592 16.0751 17.6784 15.3559 17.6784 14.4679V5.30722C17.6784 4.41927 16.9592 3.70007 16.0713 3.70007ZM16.232 14.4679C16.232 14.5563 16.1597 14.6286 16.0713 14.6286H1.92843C1.84004 14.6286 1.76772 14.5563 1.76772 14.4679V5.30722C1.76772 5.21882 1.84004 5.1465 1.92843 5.1465H5.6791L6.02263 4.18623L6.48267 2.8965H11.515L11.9751 4.18623L12.3186 5.1465H16.0713C16.1597 5.1465 16.232 5.21882 16.232 5.30722V14.4679ZM8.99986 6.43222C7.22397 6.43222 5.78557 7.87061 5.78557 9.6465C5.78557 11.4224 7.22397 12.8608 8.99986 12.8608C10.7758 12.8608 12.2141 11.4224 12.2141 9.6465C12.2141 7.87061 10.7758 6.43222 8.99986 6.43222ZM8.99986 11.5751C7.93513 11.5751 7.07129 10.7112 7.07129 9.6465C7.07129 8.58177 7.93513 7.71793 8.99986 7.71793C10.0646 7.71793 10.9284 8.58177 10.9284 9.6465C10.9284 10.7112 10.0646 11.5751 8.99986 11.5751Z" fill="black" fill-opacity="0.88"/>
</svg>
