<svg width="36" height="36" viewBox="0 0 36 36" fill="none" xmlns="http://www.w3.org/2000/svg">
<path d="M30.9483 24.6527L18.8862 11.3609C18.4484 10.8797 17.5521 10.8797 17.1176 11.3609L5.05221 24.6527C5.02252 24.6854 5.00473 24.724 5.00082 24.7643C4.99691 24.8046 5.00703 24.845 5.03005 24.8809C5.05308 24.9169 5.08811 24.947 5.13127 24.9681C5.17443 24.9891 5.22403 25.0001 5.27457 25H7.84023C8.01469 25 8.17889 24.9316 8.28152 24.8195L18.0002 14.1117L27.7189 24.8195C27.8216 24.9316 27.9858 25 28.1602 25H30.7259C30.9483 25 31.0782 24.7977 30.9483 24.6527Z" fill="black" fill-opacity="0.45"/>
</svg>
