<svg width="16" height="16" viewBox="0 0 16 16" fill="none" xmlns="http://www.w3.org/2000/svg">
<path d="M7.87511 10.9897C7.89015 11.0089 7.90935 11.0244 7.93128 11.0351C7.95321 11.0458 7.97728 11.0513 8.00167 11.0513C8.02607 11.0513 8.05014 11.0458 8.07207 11.0351C8.094 11.0244 8.1132 11.0089 8.12824 10.9897L10.3782 8.14301C10.4606 8.03854 10.3863 7.88386 10.2517 7.88386H8.76306V1.08564C8.76306 0.997248 8.69074 0.924927 8.60234 0.924927H7.39699C7.30859 0.924927 7.23627 0.997248 7.23627 1.08564V7.88185H5.75167C5.61708 7.88185 5.54275 8.03653 5.62511 8.141L7.87511 10.9897ZM15.3544 10.2865H14.149C14.0606 10.2865 13.9883 10.3589 13.9883 10.4472V13.541H2.01507V10.4472C2.01507 10.3589 1.94275 10.2865 1.85435 10.2865H0.648996C0.560603 10.2865 0.488281 10.3589 0.488281 10.4472V14.4249C0.488281 14.7805 0.775558 15.0678 1.13114 15.0678H14.8722C15.2278 15.0678 15.5151 14.7805 15.5151 14.4249V10.4472C15.5151 10.3589 15.4427 10.2865 15.3544 10.2865Z" fill="black" fill-opacity="0.88"/>
</svg>
