<svg width="24" height="14" viewBox="0 0 24 14" fill="none" xmlns="http://www.w3.org/2000/svg">
<path d="M12 3.25C11.2583 3.25 10.5333 3.46993 9.91661 3.88199C9.29993 4.29404 8.81928 4.87971 8.53545 5.56494C8.25162 6.25016 8.17736 7.00416 8.32205 7.73159C8.46675 8.45902 8.8239 9.1272 9.34835 9.65165C9.8728 10.1761 10.541 10.5333 11.2684 10.6779C11.9958 10.8226 12.7498 10.7484 13.4351 10.4645C14.1203 10.1807 14.706 9.70007 15.118 9.08339C15.5301 8.4667 15.75 7.74168 15.75 7C15.75 6.00544 15.3549 5.05161 14.6517 4.34835C13.9484 3.64509 12.9946 3.25 12 3.25ZM12 9.25C11.555 9.25 11.12 9.11804 10.75 8.87081C10.38 8.62357 10.0916 8.27217 9.92127 7.86104C9.75097 7.4499 9.70642 6.9975 9.79323 6.56105C9.88005 6.12459 10.0943 5.72368 10.409 5.40901C10.7237 5.09434 11.1246 4.88005 11.561 4.79323C11.9975 4.70642 12.4499 4.75097 12.861 4.92127C13.2722 5.09157 13.6236 5.37996 13.8708 5.74997C14.118 6.11998 14.25 6.55499 14.25 7C14.25 7.59674 14.0129 8.16903 13.591 8.59099C13.169 9.01295 12.5967 9.25 12 9.25ZM22.5 0.25H1.5C1.30109 0.25 1.11032 0.329018 0.96967 0.46967C0.829018 0.610322 0.75 0.801088 0.75 1V13C0.75 13.1989 0.829018 13.3897 0.96967 13.5303C1.11032 13.671 1.30109 13.75 1.5 13.75H22.5C22.6989 13.75 22.8897 13.671 23.0303 13.5303C23.171 13.3897 23.25 13.1989 23.25 13V1C23.25 0.801088 23.171 0.610322 23.0303 0.46967C22.8897 0.329018 22.6989 0.25 22.5 0.25ZM18.1547 12.25H5.84531C5.5935 11.3984 5.13263 10.6233 4.50467 9.99533C3.87671 9.36737 3.10162 8.90649 2.25 8.65469V5.34531C3.10162 5.0935 3.87671 4.63263 4.50467 4.00467C5.13263 3.37671 5.5935 2.60162 5.84531 1.75H18.1547C18.4065 2.60162 18.8674 3.37671 19.4953 4.00467C20.1233 4.63263 20.8984 5.0935 21.75 5.34531V8.65469C20.8984 8.90649 20.1233 9.36737 19.4953 9.99533C18.8674 10.6233 18.4065 11.3984 18.1547 12.25ZM21.75 3.75344C20.8504 3.36662 20.1334 2.64959 19.7466 1.75H21.75V3.75344ZM4.25344 1.75C3.86662 2.64959 3.14959 3.36662 2.25 3.75344V1.75H4.25344ZM2.25 10.2466C3.14959 10.6334 3.86662 11.3504 4.25344 12.25H2.25V10.2466ZM19.7466 12.25C20.1334 11.3504 20.8504 10.6334 21.75 10.2466V12.25H19.7466Z" fill="black" fill-opacity="0.45"/>
</svg>
