<svg width="35" height="35" viewBox="0 0 35 35" fill="none" xmlns="http://www.w3.org/2000/svg">
<path d="M32.4944 0.886199L1.92502 9.50834C1.66785 9.58088 1.43894 9.73018 1.26889 9.93629C1.09884 10.1424 0.995758 10.3955 0.97341 10.6618C0.951063 10.9281 1.01052 11.1948 1.14383 11.4264C1.27715 11.658 1.47796 11.8433 1.71945 11.9577L15.765 18.6109C16.0389 18.7406 16.2595 18.9612 16.3893 19.2351L23.0424 33.2807C23.1568 33.5222 23.3422 33.723 23.5737 33.8563C23.8053 33.9896 24.0721 34.0491 24.3383 34.0267C24.6046 34.0044 24.8577 33.9013 25.0638 33.7312C25.2699 33.5612 25.4192 33.3323 25.4918 33.0751L34.1139 2.50571C34.1772 2.28116 34.1796 2.04378 34.1207 1.81803C34.0618 1.59228 33.9438 1.38631 33.7788 1.22134C33.6138 1.05636 33.4078 0.938344 33.1821 0.879437C32.9563 0.820531 32.719 0.822864 32.4944 0.886199Z" fill="#F4F1FF"/>
<path d="M16.1886 18.8115L23.6132 11.3869M32.4944 0.886199L1.92502 9.50834C1.66785 9.58087 1.43894 9.73018 1.26889 9.93629C1.09884 10.1424 0.995758 10.3955 0.97341 10.6618C0.951063 10.9281 1.01052 11.1948 1.14383 11.4264C1.27715 11.658 1.47796 11.8433 1.71945 11.9577L15.765 18.6109C16.0389 18.7406 16.2595 18.9612 16.3893 19.2351L23.0424 33.2807C23.1568 33.5222 23.3422 33.723 23.5737 33.8563C23.8053 33.9896 24.0721 34.0491 24.3383 34.0267C24.6046 34.0044 24.8577 33.9013 25.0638 33.7312C25.2699 33.5612 25.4192 33.3323 25.4918 33.0751L34.1139 2.50571C34.1773 2.28116 34.1796 2.04378 34.1207 1.81803C34.0618 1.59228 33.9438 1.38631 33.7788 1.22134C33.6138 1.05636 33.4078 0.938344 33.1821 0.879437C32.9563 0.820531 32.719 0.822864 32.4944 0.886199Z" stroke="#583D97" stroke-linecap="round" stroke-linejoin="round"/>
</svg>
