<svg width="18" height="18" viewBox="0 0 18 18" fill="none" xmlns="http://www.w3.org/2000/svg">
<path d="M15.9048 2.94534L15.053 2.09355C15.0228 2.06365 14.982 2.04687 14.9395 2.04687C14.897 2.04687 14.8562 2.06365 14.826 2.09355L2.09545 14.8201C2.06554 14.8503 2.04876 14.8911 2.04876 14.9336C2.04876 14.9761 2.06554 15.0169 2.09545 15.0471L2.94724 15.8989C3.00951 15.9612 3.11197 15.9612 3.17425 15.8989L15.9028 3.17034C15.9671 3.11007 15.9671 3.00762 15.9048 2.94534ZM4.82157 7.71052C6.41666 7.71052 7.71443 6.41275 7.71443 4.81766C7.71443 3.22257 6.41666 1.9248 4.82157 1.9248C3.22648 1.9248 1.92871 3.22257 1.92871 4.81766C1.92871 6.41275 3.22648 7.71052 4.82157 7.71052ZM4.82157 3.37123C5.61911 3.37123 6.268 4.02012 6.268 4.81766C6.268 5.61521 5.61911 6.26409 4.82157 6.26409C4.02402 6.26409 3.37514 5.61521 3.37514 4.81766C3.37514 4.02012 4.02402 3.37123 4.82157 3.37123ZM13.1787 10.2819C11.5836 10.2819 10.2859 11.5797 10.2859 13.1748C10.2859 14.7699 11.5836 16.0677 13.1787 16.0677C14.7738 16.0677 16.0716 14.7699 16.0716 13.1748C16.0716 11.5797 14.7738 10.2819 13.1787 10.2819ZM13.1787 14.6212C12.3812 14.6212 11.7323 13.9724 11.7323 13.1748C11.7323 12.3773 12.3812 11.7284 13.1787 11.7284C13.9763 11.7284 14.6251 12.3773 14.6251 13.1748C14.6251 13.9724 13.9763 14.6212 13.1787 14.6212Z" fill="black" fill-opacity="0.88"/>
</svg>
