<svg width="11" height="16" viewBox="0 0 11 16" fill="none" xmlns="http://www.w3.org/2000/svg">
<path d="M10.2594 2.09944V0.546537C10.2594 0.411939 10.1047 0.337609 10.0003 0.419975L0.944027 7.49341C0.867081 7.55325 0.80482 7.62987 0.761991 7.71744C0.719163 7.805 0.696899 7.90118 0.696899 7.99866C0.696899 8.09613 0.719163 8.19232 0.761991 8.27988C0.80482 8.36744 0.867081 8.44407 0.944027 8.5039L10.0003 15.5773C10.1068 15.6597 10.2594 15.5854 10.2594 15.4508V13.8979C10.2594 13.7994 10.2132 13.705 10.1369 13.6448L2.90474 7.99966L10.1369 2.35256C10.2132 2.2923 10.2594 2.19788 10.2594 2.09944Z" fill="#583D97"/>
</svg>
