<svg width="15" height="16" viewBox="0 0 15 16" fill="none" xmlns="http://www.w3.org/2000/svg">
<path d="M8.10277 0.768799H6.89741C6.79027 0.768799 6.73669 0.82237 6.73669 0.929513V7.23755H0.750558C0.643415 7.23755 0.589844 7.29112 0.589844 7.39826V8.60362C0.589844 8.71076 0.643415 8.76434 0.750558 8.76434H6.73669V15.0724C6.73669 15.1795 6.79027 15.2331 6.89741 15.2331H8.10277C8.20991 15.2331 8.26348 15.1795 8.26348 15.0724V8.76434H14.2506C14.3577 8.76434 14.4113 8.71076 14.4113 8.60362V7.39826C14.4113 7.29112 14.3577 7.23755 14.2506 7.23755H8.26348V0.929513C8.26348 0.82237 8.20991 0.768799 8.10277 0.768799Z" fill="#E73848"/>
</svg>
