<svg width="54" height="55" viewBox="0 0 54 55" fill="none" xmlns="http://www.w3.org/2000/svg">
<path d="M27.1676 5.42554C14.9326 5.42554 4.9624 15.3957 4.9624 27.6308C4.9624 39.8659 14.9326 49.836 27.1676 49.836C39.4027 49.836 49.3729 39.8659 49.3729 27.6308C49.3729 15.3957 39.4027 5.42554 27.1676 5.42554ZM37.7817 22.5236L25.1914 35.1139C24.8805 35.4248 24.4586 35.6024 24.0145 35.6024C23.5704 35.6024 23.1485 35.4248 22.8376 35.1139L16.5535 28.8299C15.9096 28.1859 15.9096 27.12 16.5535 26.4761C17.1975 25.8321 18.2633 25.8321 18.9073 26.4761L24.0145 31.5833L35.428 20.1698C36.0719 19.5259 37.1378 19.5259 37.7817 20.1698C38.4257 20.8138 38.4257 21.8574 37.7817 22.5236Z" fill="#52C41A"/>
</svg>
