<svg width="11" height="9" viewBox="0 0 11 9" fill="none" xmlns="http://www.w3.org/2000/svg">
<path d="M1.91308 4.03613H1.91326C1.99256 4.03623 2.07081 4.05429 2.14213 4.08895C2.21341 4.1236 2.27591 4.17393 2.32497 4.23617L1.91308 4.03613ZM1.91308 4.03613H1.09394C0.890308 4.03613 0.776602 4.27073 0.902321 4.43018L0.902371 4.43024L4.11214 8.49665L4.11218 8.49671C4.32247 8.76285 4.72568 8.76211 4.93667 8.49715L4.93708 8.49663L10.6597 1.24496C10.6598 1.24476 10.66 1.24455 10.6602 1.24435C10.7884 1.08393 10.6699 0.850977 10.4689 0.850977H9.6498C9.48941 0.850977 9.33668 0.924477 9.2376 1.05142C9.23751 1.05153 9.23742 1.05164 9.23734 1.05175L4.52403 7.02254M1.91308 4.03613L4.52403 7.02254M4.52403 7.02254L2.32506 4.23629L4.52403 7.02254Z" fill="white" stroke="white" stroke-width="0.3"/>
</svg>
