<svg width="25" height="24" viewBox="0 0 25 24" fill="none" xmlns="http://www.w3.org/2000/svg">
<mask id="path-1-inside-1_2443_4363" fill="white">
<path fill-rule="evenodd" clip-rule="evenodd" d="M20.4956 2.74044C20.4962 2.74044 20.4967 2.74097 20.4978 2.74204L22.043 4.28758C22.0441 4.28838 22.0444 4.28892 22.0446 4.28972C22.0448 4.29025 22.0448 4.2908 22.0446 4.29133C22.0446 4.29213 22.0441 4.29267 22.043 4.29374L14.3368 12L22.043 19.7062C22.0441 19.7073 22.0444 19.7078 22.0446 19.7086C22.0448 19.7093 22.0448 19.7099 22.0446 19.7105C22.0446 19.7111 22.0441 19.7116 22.043 19.7127L20.4975 21.2579C20.4967 21.259 20.4962 21.2593 20.4956 21.2595C20.495 21.2597 20.4944 21.2597 20.4937 21.2595C20.4929 21.2595 20.4924 21.259 20.4913 21.2579L12.7851 13.5517L5.07883 21.2579C5.07776 21.259 5.07723 21.2593 5.07642 21.2595C5.07581 21.2597 5.07516 21.2597 5.07455 21.2595C5.07401 21.2595 5.07348 21.259 5.07241 21.2579L3.52714 19.7124C3.52607 19.7116 3.5258 19.7111 3.52553 19.7105C3.52534 19.7099 3.52534 19.7093 3.52553 19.7086C3.52553 19.7078 3.52607 19.7073 3.52714 19.7062L11.2334 12L3.52714 4.29374C3.52607 4.29267 3.5258 4.29213 3.52553 4.29133C3.52534 4.29072 3.52534 4.29006 3.52553 4.28945C3.52553 4.28892 3.52607 4.28838 3.52714 4.28731L5.07267 2.74204C5.07348 2.74097 5.07401 2.7407 5.07455 2.74044C5.07516 2.74025 5.07581 2.74025 5.07642 2.74044C5.07723 2.74044 5.07776 2.74097 5.07883 2.74204L12.7851 10.4483L20.4913 2.74204C20.4924 2.74097 20.4929 2.7407 20.4937 2.74044C20.4944 2.74025 20.495 2.74025 20.4956 2.74044Z"/>
</mask>
<path fill-rule="evenodd" clip-rule="evenodd" d="M20.4956 2.74044C20.4962 2.74044 20.4967 2.74097 20.4978 2.74204L22.043 4.28758C22.0441 4.28838 22.0444 4.28892 22.0446 4.28972C22.0448 4.29025 22.0448 4.2908 22.0446 4.29133C22.0446 4.29213 22.0441 4.29267 22.043 4.29374L14.3368 12L22.043 19.7062C22.0441 19.7073 22.0444 19.7078 22.0446 19.7086C22.0448 19.7093 22.0448 19.7099 22.0446 19.7105C22.0446 19.7111 22.0441 19.7116 22.043 19.7127L20.4975 21.2579C20.4967 21.259 20.4962 21.2593 20.4956 21.2595C20.495 21.2597 20.4944 21.2597 20.4937 21.2595C20.4929 21.2595 20.4924 21.259 20.4913 21.2579L12.7851 13.5517L5.07883 21.2579C5.07776 21.259 5.07723 21.2593 5.07642 21.2595C5.07581 21.2597 5.07516 21.2597 5.07455 21.2595C5.07401 21.2595 5.07348 21.259 5.07241 21.2579L3.52714 19.7124C3.52607 19.7116 3.5258 19.7111 3.52553 19.7105C3.52534 19.7099 3.52534 19.7093 3.52553 19.7086C3.52553 19.7078 3.52607 19.7073 3.52714 19.7062L11.2334 12L3.52714 4.29374C3.52607 4.29267 3.5258 4.29213 3.52553 4.29133C3.52534 4.29072 3.52534 4.29006 3.52553 4.28945C3.52553 4.28892 3.52607 4.28838 3.52714 4.28731L5.07267 2.74204C5.07348 2.74097 5.07401 2.7407 5.07455 2.74044C5.07516 2.74025 5.07581 2.74025 5.07642 2.74044C5.07723 2.74044 5.07776 2.74097 5.07883 2.74204L12.7851 10.4483L20.4913 2.74204C20.4924 2.74097 20.4929 2.7407 20.4937 2.74044C20.4944 2.74025 20.495 2.74025 20.4956 2.74044Z" fill="#E81D23"/>
<path d="M20.4956 2.74044L20.204 3.69696L20.3465 3.74044H20.4956V2.74044ZM20.4978 2.74204L21.2049 2.035L21.2049 2.03494L20.4978 2.74204ZM22.043 4.28758L21.3359 4.99462L21.3861 5.04491L21.443 5.08758L22.043 4.28758ZM22.0446 4.28972L23.0129 4.03972L23.0042 4.00627L22.9933 3.97349L22.0446 4.28972ZM22.0446 4.29133L21.0764 4.04133L21.0446 4.16431V4.29133H22.0446ZM22.043 4.29374L21.3359 3.58663V3.58663L22.043 4.29374ZM14.3368 12L13.6297 11.2929L12.9226 12L13.6297 12.7071L14.3368 12ZM22.0446 19.7086L23.0012 19.417L22.9974 19.4046L22.9933 19.3924L22.0446 19.7086ZM22.0446 19.7105L21.0881 19.4189L21.0446 19.5614V19.7105H22.0446ZM22.043 19.7127L22.7501 20.4198L22.7501 20.4198L22.043 19.7127ZM20.4975 21.2579L19.7904 20.5508L19.7402 20.601L19.6975 20.6579L20.4975 21.2579ZM20.4956 21.2595L20.7873 22.2161L20.8677 22.1915L20.9428 22.154L20.4956 21.2595ZM20.4937 21.2595L20.7854 20.303L20.6428 20.2595H20.4937V21.2595ZM12.7851 13.5517L13.4922 12.8446L12.7851 12.1375L12.078 12.8446L12.7851 13.5517ZM5.07883 21.2579L4.37173 20.5508H4.37173L5.07883 21.2579ZM5.07642 21.2595L5.36809 22.2161L5.38042 22.2123L5.39265 22.2082L5.07642 21.2595ZM5.07455 21.2595L5.36621 20.303L5.22362 20.2595H5.07455V21.2595ZM5.07241 21.2579L4.36524 21.965L4.3653 21.965L5.07241 21.2579ZM3.52714 19.7124L4.23431 19.0054L4.18403 18.9551L4.12714 18.9124L3.52714 19.7124ZM3.52553 19.7105L2.56901 20.0022L2.59352 20.0826L2.6311 20.1577L3.52553 19.7105ZM3.52553 19.7086L4.48205 20.0003L4.52553 19.8577V19.7086H3.52553ZM3.52714 19.7062L2.82003 18.9991L3.52714 19.7062ZM11.2334 12L11.9405 12.7071L12.6476 12L11.9405 11.2929L11.2334 12ZM3.52714 4.29374L2.82003 5.00085L3.52714 4.29374ZM3.52553 4.29133L2.56901 4.58299L2.57277 4.59533L2.57685 4.60756L3.52553 4.29133ZM3.52553 4.28945L4.48205 4.58112L4.52553 4.43853V4.28945H3.52553ZM3.52714 4.28731L2.82009 3.58014L2.82003 3.5802L3.52714 4.28731ZM5.07267 2.74204L5.77972 3.44921L5.83001 3.39893L5.87267 3.34204L5.07267 2.74204ZM5.07455 2.74044L4.78288 1.78392L4.7025 1.80843L4.62733 1.84601L5.07455 2.74044ZM5.07642 2.74044L4.78476 3.69696L4.92735 3.74044H5.07642V2.74044ZM5.07883 2.74204L5.78594 2.03494L5.07883 2.74204ZM12.7851 10.4483L12.078 11.1554L12.7851 11.8625L13.4922 11.1554L12.7851 10.4483ZM20.4913 2.74204L19.7842 2.03494L20.4913 2.74204ZM20.4937 2.74044L20.2021 1.78392L20.1897 1.78768L20.1775 1.79175L20.4937 2.74044ZM20.4956 3.74044C20.1455 3.74044 19.9196 3.55993 19.8719 3.52183C19.8185 3.47906 19.7729 3.43143 19.7907 3.44915L21.2049 2.03494C21.2049 2.03493 21.2044 2.03449 21.2039 2.03398C21.2034 2.03345 21.2024 2.03252 21.2013 2.03138C21.1992 2.0293 21.1949 2.02509 21.1895 2.01987C21.181 2.01175 21.1558 1.98766 21.121 1.95985C21.0727 1.92121 20.8462 1.74044 20.4956 1.74044V3.74044ZM19.7906 3.44909L21.3359 4.99462L22.7502 3.58053L21.2049 2.035L19.7906 3.44909ZM21.443 5.08758C21.3921 5.0494 21.3052 4.97687 21.225 4.86219C21.1424 4.74426 21.1062 4.63667 21.096 4.60595L22.9933 3.97349C22.9828 3.94197 22.9463 3.83371 22.8633 3.71511C22.7826 3.59976 22.695 3.52656 22.643 3.48758L21.443 5.08758ZM21.0764 4.53972C21.0342 4.37627 21.0342 4.20478 21.0764 4.04133L23.0129 4.54133C23.0554 4.37682 23.0554 4.20423 23.0129 4.03972L21.0764 4.53972ZM21.0446 4.29133C21.0446 4.17413 21.0653 4.05611 21.1073 3.94317C21.1473 3.8357 21.1982 3.7555 21.2355 3.70426C21.271 3.65545 21.3031 3.62082 21.3155 3.60765C21.3278 3.59458 21.3393 3.58325 21.3359 3.58663L22.7501 5.00085C22.7501 5.00084 22.7503 5.00067 22.7505 5.00048C22.7507 5.00028 22.751 4.99995 22.7514 4.99955C22.7522 4.99878 22.7535 4.99743 22.7552 4.99575C22.7583 4.99266 22.7644 4.98641 22.7719 4.97839C22.7847 4.9648 22.8172 4.92979 22.853 4.88061C22.9409 4.75976 23.0446 4.5579 23.0446 4.29133H21.0446ZM21.3359 3.58663L13.6297 11.2929L15.0439 12.7071L22.7501 5.00085L21.3359 3.58663ZM13.6297 12.7071L21.3359 20.4133L22.7501 18.9991L15.0439 11.2929L13.6297 12.7071ZM21.3359 20.4133C21.3107 20.3882 21.2552 20.3303 21.2006 20.2446C21.1389 20.1477 21.1084 20.0621 21.096 20.0249L22.9933 19.3924C22.9806 19.3543 22.9498 19.2681 22.8877 19.1705C22.8326 19.084 22.7764 19.0254 22.7501 18.9991L21.3359 20.4133ZM21.0881 20.0003C21.0303 19.8108 21.0303 19.6084 21.0881 19.4189L23.0012 20.0022C23.0593 19.8115 23.0593 19.6077 23.0012 19.417L21.0881 20.0003ZM21.0446 19.7105C21.0446 19.3604 21.2251 19.1345 21.2632 19.0869C21.306 19.0334 21.3536 18.9878 21.3359 19.0056L22.7501 20.4198C22.7501 20.4198 22.7506 20.4193 22.7511 20.4188C22.7516 20.4183 22.7526 20.4174 22.7537 20.4162C22.7558 20.4141 22.76 20.4098 22.7652 20.4044C22.7733 20.3959 22.7974 20.3707 22.8252 20.3359C22.8639 20.2876 23.0446 20.0611 23.0446 19.7105H21.0446ZM21.336 19.0055L19.7904 20.5508L21.2045 21.9651L22.7501 20.4198L21.336 19.0055ZM19.6975 20.6579C19.7376 20.6044 19.7977 20.5357 19.8826 20.4696C19.9244 20.4371 19.9637 20.4119 19.9971 20.3927C20.0263 20.3759 20.0517 20.3634 20.0484 20.3651L20.9428 22.154C20.9444 22.1532 21.0243 22.1153 21.1103 22.0485C21.1959 21.9819 21.2565 21.9125 21.2975 21.8579L19.6975 20.6579ZM20.204 20.303C20.3935 20.2452 20.5959 20.2452 20.7854 20.303L20.2021 22.2161C20.3928 22.2742 20.5965 22.2742 20.7873 22.2161L20.204 20.303ZM20.4937 20.2595C20.6109 20.2595 20.729 20.2802 20.842 20.3223C20.9496 20.3623 21.0298 20.4133 21.081 20.4506C21.1298 20.4861 21.1644 20.5182 21.1775 20.5306C21.1906 20.5428 21.2019 20.5543 21.1984 20.5508L19.7842 21.965C19.7842 21.965 19.7844 21.9652 19.7846 21.9654C19.7848 21.9656 19.7851 21.9659 19.7855 21.9663C19.7862 21.9671 19.7876 21.9684 19.7893 21.97C19.7923 21.9731 19.7985 21.9792 19.8065 21.9867C19.8201 21.9995 19.8551 22.0319 19.9043 22.0677C19.9559 22.1053 20.0364 22.1565 20.1443 22.1966C20.2577 22.2388 20.3761 22.2595 20.4937 22.2595V20.2595ZM21.1984 20.5508L13.4922 12.8446L12.078 14.2588L19.7842 21.965L21.1984 20.5508ZM12.078 12.8446L4.37173 20.5508L5.78594 21.965L13.4922 14.2588L12.078 12.8446ZM4.37173 20.5508C4.39703 20.5255 4.45489 20.47 4.54065 20.4154C4.63755 20.3537 4.72306 20.3232 4.7602 20.3109L5.39265 22.2082C5.43059 22.1956 5.51677 22.1648 5.6144 22.1027C5.7009 22.0477 5.75957 21.9914 5.78594 21.965L4.37173 20.5508ZM4.78476 20.303C4.97427 20.2452 5.1767 20.2452 5.36621 20.303L4.78288 22.2161C4.97362 22.2742 5.17736 22.2742 5.36809 22.2161L4.78476 20.303ZM5.07455 20.2595C5.42472 20.2595 5.6507 20.4401 5.69834 20.4782C5.75176 20.521 5.79731 20.5686 5.77951 20.5508L4.3653 21.965C4.36532 21.9651 4.36544 21.9652 4.36558 21.9653C4.36572 21.9655 4.36596 21.9657 4.36623 21.966C4.36677 21.9665 4.36769 21.9674 4.36884 21.9686C4.37093 21.9706 4.37518 21.9748 4.3806 21.98C4.38904 21.9881 4.41426 22.0122 4.44902 22.04C4.49733 22.0787 4.72384 22.2595 5.07455 22.2595V20.2595ZM5.77957 20.5509L4.23431 19.0054L2.81997 20.4194L4.36524 21.965L5.77957 20.5509ZM4.12714 18.9124C4.18067 18.9525 4.2494 19.0126 4.31545 19.0975C4.34798 19.1393 4.37318 19.1786 4.39241 19.212C4.40918 19.2412 4.42162 19.2666 4.41996 19.2633L2.6311 20.1577C2.63189 20.1593 2.66975 20.2392 2.73661 20.3252C2.80314 20.4108 2.87254 20.4714 2.92714 20.5124L4.12714 18.9124ZM4.48205 19.4189C4.53984 19.6084 4.53984 19.8108 4.48205 20.0003L2.56901 19.417C2.51085 19.6077 2.51085 19.8115 2.56901 20.0022L4.48205 19.4189ZM4.52553 19.7086C4.52553 19.8259 4.50487 19.9439 4.46281 20.0569C4.42278 20.1645 4.37179 20.2447 4.33451 20.2959C4.299 20.3447 4.26686 20.3793 4.25451 20.3925C4.24225 20.4055 4.2308 20.4168 4.23424 20.4133L2.82003 18.9991C2.82003 18.9991 2.81986 18.9993 2.81968 18.9995C2.81949 18.9997 2.81916 19 2.81877 19.0004C2.81802 19.0011 2.81668 19.0025 2.81503 19.0042C2.812 19.0072 2.80589 19.0135 2.79836 19.0215C2.78561 19.035 2.75313 19.07 2.71735 19.1192C2.6798 19.1708 2.62861 19.2513 2.58845 19.3592C2.54625 19.4726 2.52553 19.591 2.52553 19.7086H4.52553ZM4.23424 20.4133L11.9405 12.7071L10.5263 11.2929L2.82003 18.9991L4.23424 20.4133ZM11.9405 11.2929L4.23424 3.58663L2.82003 5.00085L10.5263 12.7071L11.9405 11.2929ZM4.23424 3.58663C4.25954 3.61193 4.31512 3.6698 4.36969 3.75556C4.43135 3.85245 4.46183 3.93796 4.47421 3.9751L2.57685 4.60756C2.58949 4.6455 2.62024 4.73168 2.68237 4.82931C2.73741 4.91581 2.79366 4.97447 2.82003 5.00085L4.23424 3.58663ZM4.48205 3.99966C4.53984 4.18917 4.53984 4.39161 4.48205 4.58112L2.56901 3.99779C2.51085 4.18852 2.51085 4.39226 2.56901 4.58299L4.48205 3.99966ZM4.52553 4.28945C4.52553 4.63962 4.34494 4.8656 4.30683 4.91324C4.2641 4.96666 4.21645 5.01221 4.23424 4.99442L2.82003 3.5802C2.82001 3.58022 2.81989 3.58034 2.81975 3.58048C2.8196 3.58063 2.81937 3.58086 2.8191 3.58114C2.81856 3.58167 2.81764 3.5826 2.81651 3.58374C2.81444 3.58583 2.81024 3.59008 2.80503 3.59551C2.79693 3.60394 2.77284 3.62916 2.74503 3.66392C2.70639 3.71223 2.52553 3.93875 2.52553 4.28945H4.52553ZM4.23418 4.99448L5.77972 3.44921L4.36563 2.03487L2.82009 3.58014L4.23418 4.99448ZM5.87267 3.34204C5.83259 3.39549 5.77261 3.4642 5.68769 3.53026C5.64587 3.56279 5.60656 3.58801 5.57313 3.60726C5.54396 3.62405 5.51849 3.6365 5.52176 3.63486L4.62733 1.84601C4.62565 1.84685 4.54574 1.88472 4.45973 1.95162C4.3742 2.01814 4.31357 2.08752 4.27267 2.14204L5.87267 3.34204ZM5.36621 3.69696C5.1767 3.75474 4.97427 3.75474 4.78476 3.69696L5.36809 1.78392C5.17736 1.72576 4.97362 1.72576 4.78288 1.78392L5.36621 3.69696ZM5.07642 3.74044C4.95922 3.74044 4.8412 3.71978 4.72827 3.67776C4.6208 3.63778 4.5406 3.58684 4.48935 3.54957C4.44054 3.51407 4.40592 3.48193 4.39275 3.46953C4.37967 3.45723 4.36834 3.44576 4.37173 3.44915L5.78594 2.03494C5.78593 2.03493 5.78576 2.03476 5.78558 2.03457C5.78537 2.03437 5.78504 2.03404 5.78464 2.03364C5.78388 2.03288 5.78253 2.03153 5.78085 2.02987C5.77775 2.02682 5.77151 2.02069 5.76349 2.01314C5.74989 2.00035 5.71488 1.96787 5.6657 1.9321C5.54485 1.84421 5.343 1.74044 5.07642 1.74044V3.74044ZM4.37173 3.44915L12.078 11.1554L13.4922 9.74119L5.78594 2.03494L4.37173 3.44915ZM13.4922 11.1554L21.1984 3.44915L19.7842 2.03494L12.078 9.74119L13.4922 11.1554ZM21.1984 3.44915C21.1733 3.47433 21.1154 3.52989 21.0297 3.58446C20.9328 3.64618 20.8472 3.67669 20.81 3.68912L20.1775 1.79175C20.1394 1.80444 20.0532 1.83523 19.9556 1.89741C19.8691 1.95246 19.8105 2.00868 19.7842 2.03494L21.1984 3.44915ZM20.7854 3.69696C20.5959 3.75474 20.3935 3.75474 20.204 3.69696L20.7873 1.78392C20.5965 1.72576 20.3928 1.72576 20.2021 1.78392L20.7854 3.69696Z" fill="#E81D23" mask="url(#path-1-inside-1_2443_4363)"/>
</svg>
