<svg width="18" height="18" viewBox="0 0 18 18" fill="none" xmlns="http://www.w3.org/2000/svg">
<path d="M15.8909 1.93067L12.09 2.40277C11.9574 2.41884 11.9031 2.57955 11.9955 2.67397L13.0944 3.77286L10.0107 6.85656C9.98081 6.88677 9.96404 6.92756 9.96404 6.97007C9.96404 7.01258 9.98081 7.05337 10.0107 7.08357L10.9168 7.9896C10.979 8.05188 11.0815 8.05188 11.1438 7.9896L14.2295 4.90389L15.3284 6.00277C15.3496 6.02396 15.3763 6.03875 15.4055 6.04544C15.4347 6.05213 15.4653 6.05045 15.4936 6.04059C15.5219 6.03074 15.5468 6.0131 15.5656 5.98971C15.5843 5.96632 15.5961 5.93813 15.5996 5.90835L16.0697 2.10947C16.073 2.0852 16.0706 2.0605 16.0628 2.03729C16.055 2.01409 16.042 1.993 16.0246 1.97568C16.0073 1.95837 15.9862 1.94529 15.963 1.93748C15.9398 1.92968 15.9151 1.92734 15.8909 1.93067ZM7.08372 10.0106C7.05351 9.98067 7.01272 9.96389 6.97021 9.96389C6.9277 9.96389 6.88691 9.98067 6.85671 10.0106L3.773 13.0963L2.67412 11.9974C2.65292 11.9762 2.62617 11.9614 2.59695 11.9547C2.56773 11.9481 2.53722 11.9497 2.50891 11.9596C2.4806 11.9694 2.45564 11.9871 2.4369 12.0105C2.41815 12.0339 2.40637 12.0621 2.40291 12.0918L1.93081 15.8907C1.91876 15.9952 2.00514 16.0816 2.10961 16.0695L5.9105 15.5974C6.04309 15.5813 6.09733 15.4206 6.00492 15.3262L4.90604 14.2273L7.99175 11.1416C8.05403 11.0793 8.05403 10.9769 7.99175 10.9146L7.08372 10.0106Z" fill="black" fill-opacity="0.88"/>
</svg>
