<svg width="18" height="22" viewBox="0 0 18 22" fill="none" xmlns="http://www.w3.org/2000/svg">
<path d="M13.974 3.29208C13.974 3.39543 13.974 3.48038 13.974 3.56515C13.974 4.02936 13.9723 4.49357 13.9759 4.95759C13.9765 5.02927 13.9551 5.06227 13.8873 5.08673C11.991 5.76902 10.0952 6.4532 8.19945 7.13719C7.90473 7.24357 7.61097 7.35204 7.3153 7.45539C7.25548 7.47625 7.23109 7.50241 7.23204 7.56859C7.23604 7.82744 7.23357 8.08647 7.23395 8.34531C7.23395 8.36997 7.23776 8.39462 7.24214 8.4479C9.48959 7.63762 11.7256 6.8317 13.9696 6.02274C13.9711 6.05365 13.974 6.08683 13.974 6.11983C13.9744 6.61874 13.9744 7.11766 13.974 7.61657C13.974 7.72049 13.9255 7.78983 13.8286 7.82459C11.7166 8.58046 9.60465 9.33632 7.49266 10.092C7.24081 10.1821 7.23357 10.1915 7.23357 10.4513C7.23357 13.4858 7.23357 16.5204 7.23357 19.5549C7.23357 19.5987 7.23357 19.6423 7.23357 19.702C9.45358 19.4333 11.2836 18.4417 12.7671 16.8104C14.2649 15.1634 14.9372 13.1968 14.9557 10.9874H17.1976C17.2041 11.9096 17.098 12.819 16.8444 13.7048C16.2948 15.6246 15.3832 17.3481 13.9365 18.7525C11.4553 21.1612 8.49055 22.2523 5.01661 21.9508V11.0166C3.61236 11.5172 2.21725 12.0146 0.809768 12.5164C0.807482 12.4754 0.804243 12.4459 0.804243 12.4161C0.803862 11.895 0.806148 11.3741 0.801766 10.853C0.801195 10.7741 0.829581 10.7449 0.898926 10.7202C2.23992 10.2418 3.57978 9.76033 4.92078 9.28208C4.99089 9.25705 5.01908 9.22899 5.01756 9.15048C5.01184 8.8613 5.01527 8.57173 5.01527 8.28615C3.62188 8.80972 2.22621 9.3073 0.804052 9.80546C0.804052 9.73662 0.804052 9.70609 0.804052 9.67575C0.804052 9.15465 0.805386 8.63374 0.802528 8.11264C0.802147 8.04286 0.819484 8.00986 0.890544 7.98502C2.23154 7.51588 3.57083 7.04218 4.91202 6.57418C4.99946 6.54365 5.01718 6.50307 5.01699 6.41944C5.0147 4.32272 5.01527 2.22599 5.01527 0.129449V0.00012207H7.23014V5.72578C9.48273 4.91284 11.7191 4.10578 13.974 3.29208Z" fill="black" fill-opacity="0.45"/>
</svg>
