<svg width="18" height="18" viewBox="0 0 18 18" fill="none" xmlns="http://www.w3.org/2000/svg">
<path fill-rule="evenodd" clip-rule="evenodd" d="M14.7833 2.05528C14.7837 2.05528 14.7841 2.05568 14.7849 2.05649L15.9439 3.21564C15.9447 3.21624 15.9449 3.21664 15.9451 3.21724C15.9452 3.21764 15.9452 3.21806 15.9451 3.21845C15.9451 3.21905 15.9447 3.21945 15.9439 3.22026L10.1642 8.99995L15.9439 14.7796C15.9447 14.7804 15.9449 14.7808 15.9451 14.7814C15.9452 14.7819 15.9452 14.7824 15.9451 14.7828C15.9451 14.7832 15.9447 14.7837 15.9439 14.7845L14.7847 15.9434C14.7841 15.9442 14.7837 15.9444 14.7833 15.9446C14.7829 15.9447 14.7824 15.9447 14.7819 15.9446C14.7813 15.9446 14.7809 15.9442 14.7801 15.9434L9.00043 10.1637L3.22075 15.9434C3.21994 15.9442 3.21954 15.9444 3.21894 15.9446C3.21848 15.9447 3.21799 15.9447 3.21753 15.9446C3.21713 15.9446 3.21673 15.9442 3.21593 15.9434L2.05697 14.7843C2.05617 14.7837 2.05597 14.7832 2.05577 14.7828C2.05563 14.7824 2.05563 14.7819 2.05577 14.7814C2.05577 14.7808 2.05617 14.7804 2.05697 14.7796L7.83666 8.99995L2.05697 3.22026C2.05617 3.21945 2.05597 3.21905 2.05577 3.21845C2.05563 3.21799 2.05563 3.2175 2.05577 3.21704C2.05577 3.21664 2.05617 3.21624 2.05697 3.21544L3.21613 2.05649C3.21673 2.05568 3.21713 2.05548 3.21753 2.05528C3.21799 2.05514 3.21848 2.05514 3.21894 2.05528C3.21954 2.05528 3.21994 2.05568 3.22075 2.05649L9.00043 7.83617L14.7801 2.05649C14.7809 2.05568 14.7813 2.05548 14.7819 2.05528C14.7824 2.05514 14.7829 2.05514 14.7833 2.05528Z" fill="#E73848"/>
</svg>
