<svg width="32" height="26" viewBox="0 0 32 26" fill="none" xmlns="http://www.w3.org/2000/svg">
<path fill-rule="evenodd" clip-rule="evenodd" d="M8 0.764648H24V25.2352H8V0.764648Z" fill="#F7FCFF"/>
<path fill-rule="evenodd" clip-rule="evenodd" d="M15.9764 7.90186L16 20.1372H15.4005L15.7683 17.1093C13.0782 17.6028 11.8443 17.7251 12.0667 17.4762C12.2891 17.2272 12.4644 16.8744 12.5925 16.4177L9 13.9739C9.37779 13.9691 9.72035 13.8735 10.0277 13.6871C10.335 13.5008 10.1814 12.8549 9.56668 11.7496L11.3805 12.0186L12.0667 11.2582L13.4352 12.7185H14.0503L13.4352 9.37359L14.5378 10.0016L15.9764 7.90186ZM15.9765 7.90186L17.4623 10.0016L18.5649 9.37358L17.9498 12.7185H18.5649L19.9334 11.2582L20.6197 12.0186L22.4334 11.7496C21.8187 12.8549 21.6651 13.5008 21.9724 13.6871C22.2798 13.8735 22.6223 13.9691 23.0001 13.9739L19.4077 16.4177C19.5358 16.8744 19.711 17.2272 19.9334 17.4761C20.1558 17.7251 18.9219 17.6028 16.2318 17.1093L16.5996 20.1371H16.0001L15.9765 7.90186Z" fill="#E31D1C"/>
<path fill-rule="evenodd" clip-rule="evenodd" d="M24 0.764648H32V25.2352H24V0.764648Z" fill="#E31D1C"/>
<path fill-rule="evenodd" clip-rule="evenodd" d="M0 0.764648H8V25.2352H0V0.764648Z" fill="#E31D1C"/>
</svg>
