<svg width="16" height="16" viewBox="0 0 16 16" fill="none" xmlns="http://www.w3.org/2000/svg">
<path fill-rule="evenodd" clip-rule="evenodd" d="M13.1406 1.82697C13.141 1.82697 13.1413 1.82732 13.1421 1.82804L14.1722 2.8584C14.173 2.85893 14.1731 2.85929 14.1733 2.85982C14.1734 2.86018 14.1734 2.86054 14.1733 2.8609C14.1733 2.86143 14.173 2.86179 14.1722 2.8625L9.03474 8L14.1722 13.1375C14.173 13.1382 14.1731 13.1386 14.1733 13.1391C14.1734 13.1395 14.1734 13.14 14.1733 13.1404C14.1733 13.1407 14.173 13.1411 14.1722 13.1418L13.1419 14.172C13.1413 14.1727 13.141 14.1729 13.1406 14.173C13.1402 14.1732 13.1398 14.1732 13.1394 14.173C13.1388 14.173 13.1385 14.1727 13.1378 14.172L8.00028 9.03447L2.86278 14.172C2.86206 14.1727 2.86171 14.1729 2.86117 14.173C2.86076 14.1732 2.86033 14.1732 2.85992 14.173C2.85956 14.173 2.85921 14.1727 2.85849 14.172L1.82831 13.1416C1.8276 13.1411 1.82742 13.1407 1.82724 13.1404C1.82712 13.14 1.82712 13.1395 1.82724 13.1391C1.82724 13.1386 1.8276 13.1382 1.82831 13.1375L6.96581 8L1.82831 2.8625C1.8276 2.86179 1.82742 2.86143 1.82724 2.8609C1.82712 2.86049 1.82712 2.86005 1.82724 2.85965C1.82724 2.85929 1.8276 2.85893 1.82831 2.85822L2.85867 1.82804C2.85921 1.82732 2.85956 1.82715 2.85992 1.82697C2.86033 1.82684 2.86076 1.82684 2.86117 1.82697C2.86171 1.82697 2.86206 1.82732 2.86278 1.82804L8.00028 6.96554L13.1378 1.82804C13.1385 1.82732 13.1388 1.82715 13.1394 1.82697C13.1398 1.82684 13.1402 1.82684 13.1406 1.82697Z" fill="black" fill-opacity="0.45"/>
</svg>
