<svg width="18" height="18" viewBox="0 0 18 18" fill="none" xmlns="http://www.w3.org/2000/svg">
<path d="M14.0967 8.49544L5.0404 1.422C5.01674 1.40337 4.9883 1.3918 4.95835 1.3886C4.9284 1.3854 4.89816 1.39072 4.8711 1.40394C4.84404 1.41715 4.82125 1.43773 4.80536 1.46332C4.78946 1.4889 4.78111 1.51845 4.78125 1.54857V3.10147C4.78125 3.19991 4.82746 3.29433 4.9038 3.35459L12.1359 9.00169L4.9038 14.6488C4.82545 14.7091 4.78125 14.8035 4.78125 14.9019V16.4548C4.78125 16.5894 4.93594 16.6637 5.0404 16.5814L14.0967 9.50794C14.1736 9.4479 14.2359 9.3711 14.2787 9.28337C14.3216 9.19565 14.3438 9.09931 14.3438 9.00169C14.3438 8.90407 14.3216 8.80774 14.2787 8.72001C14.2359 8.63229 14.1736 8.55548 14.0967 8.49544Z" fill="white"/>
</svg>
