<svg width="18" height="18" viewBox="0 0 18 18" fill="none" xmlns="http://www.w3.org/2000/svg">
<g clip-path="url(#clip0_3699_8931)">
<path d="M16.9881 15.8806L11.7709 10.6634C12.5805 9.61675 13.0184 8.33706 13.0184 6.99108C13.0184 5.37992 12.3896 3.8692 11.2526 2.73014C10.1155 1.59108 8.60078 0.964294 6.99163 0.964294C5.38248 0.964294 3.86775 1.59309 2.73069 2.73014C1.59163 3.8672 0.964844 5.37992 0.964844 6.99108C0.964844 8.60023 1.59364 10.115 2.73069 11.252C3.86775 12.3911 5.38047 13.0179 6.99163 13.0179C8.33761 13.0179 9.61529 12.5799 10.6619 11.7723L15.8791 16.9875C15.8944 17.0028 15.9126 17.015 15.9326 17.0232C15.9526 17.0315 15.974 17.0358 15.9956 17.0358C16.0173 17.0358 16.0387 17.0315 16.0587 17.0232C16.0787 17.015 16.0969 17.0028 16.1122 16.9875L16.9881 16.1136C17.0034 16.0983 17.0155 16.0802 17.0238 16.0602C17.0321 16.0402 17.0363 16.0187 17.0363 15.9971C17.0363 15.9755 17.0321 15.954 17.0238 15.934C17.0155 15.9141 17.0034 15.8959 16.9881 15.8806ZM10.1738 10.1732C9.32199 11.023 8.19297 11.4911 6.99163 11.4911C5.79029 11.4911 4.66127 11.023 3.80949 10.1732C2.95971 9.32144 2.49163 8.19242 2.49163 6.99108C2.49163 5.78974 2.95971 4.65871 3.80949 3.80894C4.66127 2.95916 5.79029 2.49108 6.99163 2.49108C8.19297 2.49108 9.324 2.95715 10.1738 3.80894C11.0235 4.66072 11.4916 5.78974 11.4916 6.99108C11.4916 8.19242 11.0235 9.32345 10.1738 10.1732Z" fill="white"/>
</g>
<defs>
<clipPath id="clip0_3699_8931">
<rect width="18" height="18" fill="white"/>
</clipPath>
</defs>
</svg>
