<svg width="24" height="24" viewBox="0 0 24 24" fill="none" xmlns="http://www.w3.org/2000/svg">
<path d="M10.4143 6V8.953L9 9.5V10.5L10.4143 9.953V10.953L9 11.5V12.5L10.4143 11.953V18H10.8858C13.6013 18 15.9906 16.075 16.7053 13.297L17 12.125L16.0854 11.875L15.7907 13.0315C15.2297 15.2115 13.4443 16.7115 11.3563 16.9215V11.595L14.1859 10.5V9.5L11.3572 10.594V9.594L14.1859 8.5V7.5L11.3572 8.594V6H10.4143Z" fill="black" fill-opacity="0.45"/>
<path d="M10.4143 5.9H10.3143V6V8.88446L8.96393 9.40673L8.9 9.43146V9.5V10.5V10.6459L9.03607 10.5933L10.3143 10.0989V10.8845L8.96393 11.4067L8.9 11.4315V11.5V12.5V12.6459L9.03607 12.5933L10.3143 12.0989V18V18.1H10.4143H10.8858C13.6503 18.1 16.0769 16.1408 16.8022 13.3219L16.8023 13.3214L17.097 12.1494L17.1209 12.0544L17.0264 12.0285L16.1118 11.7785L16.0136 11.7517L15.9885 11.8503L15.6939 13.0066C15.6939 13.0066 15.6939 13.0066 15.6939 13.0067C15.153 15.1082 13.4544 16.5632 11.4563 16.8097V11.6635L14.222 10.5933L14.2859 10.5685V10.5V9.5V9.35411L14.1499 9.40673L11.4572 10.4481V9.66254L14.222 8.59327L14.2859 8.56854V8.5V7.5V7.35411L14.1499 7.40673L11.4572 8.44811V6V5.9H11.3572H10.4143Z" stroke="black" stroke-opacity="0.45" stroke-width="0.2"/>
<circle cx="12" cy="12" r="11" stroke="black" stroke-opacity="0.45" stroke-width="2"/>
</svg>
