<svg width="249" height="64" viewBox="0 0 249 64" fill="none" xmlns="http://www.w3.org/2000/svg">
<path d="M77.5381 47.3333V17.6C77.5381 16.4954 78.4335 15.6 79.5381 15.6H98.9057V21.584H84.2857V28.5653L98.1409 28.52V34.3227L87.6239 34.3425C86.6699 34.3443 85.7467 34.0051 85.0208 33.3861L84.2857 32.7593V34.368V47.3333H77.5381Z" fill="white"/>
<path d="M101.172 47.3333V24.6666H107.965V47.3333H101.172Z" fill="white"/>
<path d="M110.793 47.3333V24.6666H117.541V27.3413C118.935 25.5733 121.409 23.9866 124.513 23.9866C131.261 23.9866 134.455 27.9307 134.455 34.5947V47.3333H127.662V33.824C127.662 31.24 125.503 29.6986 122.669 29.6986C119.7 29.6986 117.631 31.3307 117.631 34.0507V47.3333H110.793Z" fill="white"/>
<path d="M149.712 48.1946C140.94 48.1493 136.712 42.0747 136.712 36.408V35.6827C136.712 29.88 141.12 23.896 149.667 23.896C158.259 23.896 162.668 29.88 162.668 35.6827C162.668 36.3627 162.713 36.816 162.623 37.496H143.594C144.089 40.6693 146.249 42.528 149.712 42.5733C152.501 42.528 155.561 41.9374 156.672 39.0373H162.353C161.273 43.7973 157.09 48.1493 149.712 48.1946ZM156.762 33.1893C155.561 30.2561 152.591 29.5173 149.667 29.5173C146.788 29.5173 144.764 30.832 143.954 33.1893H156.762Z" fill="white"/>
<path d="M177.511 48.1493C170.088 48.1493 164.915 42.664 164.915 36.2267V35.3653C164.915 28.928 170.088 23.4426 177.511 23.4426C180.12 23.4426 183.883 25.0994 185.383 27.8807L186.382 29.6986L186.044 27.9122C185.604 25.5853 185.383 23.2223 185.383 20.8542V15.6H192.175V47.3333H185.383V44.1624C184.16 46.3874 179.85 48.1493 177.511 48.1493ZM178.275 42.4373C182.009 42.4373 184.663 40.08 184.663 36.544V35.048C184.663 31.512 182.009 29.1546 178.275 29.1546C175.171 29.1546 171.708 30.832 171.708 35.864C171.708 39.8987 174.407 42.4373 178.275 42.4373Z" fill="white"/>
<path d="M207.032 56.4V50.7786H212.025C213.509 50.7786 214.139 50.144 214.139 48.8746V44.9968C212.76 47.7781 209.371 48.512 207.032 48.512C199.609 48.512 194.436 43.0267 194.436 36.5893V35.728C194.436 29.2907 199.609 23.8053 207.032 23.8053C209.326 23.8053 212.204 24.6666 214.094 27.4749V24.6666H220.932V48.3306C220.932 50.1893 220.662 51.7306 220.032 52.9093C218.682 55.448 215.848 56.4 211.575 56.4H207.032ZM207.751 42.7547C211.305 42.7547 214.184 40.624 214.139 37.4053L214.094 34.776C214.049 31.5573 211.26 29.472 207.751 29.472C203.883 29.472 201.184 32.0107 201.184 36.0453C201.184 40.216 203.883 42.7547 207.751 42.7547Z" fill="white"/>
<path d="M236.034 48.1946C227.262 48.1493 223.033 42.0747 223.033 36.408V35.6827C223.033 29.88 227.442 23.896 235.989 23.896C244.581 23.896 248.989 29.88 248.989 35.6827C248.989 36.3627 249.034 36.816 248.944 37.496H229.916C230.411 40.6693 232.57 42.528 236.034 42.5733C238.823 42.528 241.882 41.9374 242.993 39.0373H248.674C247.595 43.7973 243.411 48.1493 236.034 48.1946ZM243.083 33.1893C241.882 30.2561 238.913 29.5173 235.989 29.5173C233.11 29.5173 231.085 30.832 230.276 33.1893H243.083Z" fill="white"/>
<path d="M101.172 22.4674V17.461H107.965V22.4674H101.172Z" fill="white"/>
<g clip-path="url(#clip0_12538_38004)">
<path d="M31.1754 54.6583C31.1754 58.979 28.2634 62.6127 24.309 63.678C24.293 63.686 24.2736 63.6896 24.2541 63.694C23.3303 63.8573 22.3836 63.9563 21.4244 63.9884H21.4049C21.1764 63.9965 20.947 64 20.7185 64C14.8033 64 9.46367 61.4993 5.68725 57.4927C5.24885 57.0234 4.83082 56.539 4.43228 56.0296C4.42874 56.026 4.42431 56.0216 4.42076 56.0135C4.41722 56.01 4.41279 56.0019 4.40925 55.9975C4.40571 55.993 4.40571 55.9939 4.40571 55.9894C3.85749 54.8011 3.55371 53.4736 3.55371 52.0738C3.55371 50.0745 4.17721 48.226 5.23911 46.7075C5.66953 46.0875 6.17436 45.5228 6.73852 45.0303C6.95993 44.8394 7.18843 44.6565 7.4249 44.4861C8.58864 45.0187 9.88347 45.3167 11.2491 45.3167H21.9035C27.0253 45.3167 31.1772 49.4982 31.1772 54.6583H31.1754Z" fill="white"/>
<path d="M48.1432 31.9995C48.1432 37.5665 43.8788 41.3412 38.6136 41.3412C34.5289 41.3412 30.4443 41.3412 26.3606 41.3412C21.586 41.3412 16.8106 41.3412 12.036 41.3412C9.70409 41.3412 7.57676 42.2075 5.94716 43.6385C5.38299 44.1319 4.87729 44.6957 4.44775 45.3157C3.38585 46.8342 2.76235 48.6827 2.76235 50.682C2.76235 52.6813 3.36636 54.4826 4.40435 55.9885C3.94647 55.4041 3.52401 54.7957 3.13344 54.1676C1.51181 51.5518 0.446369 48.5426 0.110707 45.3148C0.0398544 44.5958 0 43.8678 0 43.1282C0 42.5242 0.0239126 41.9274 0.0752805 41.3394C0.308207 38.5845 1.06987 35.9848 2.2655 33.6393C2.2655 33.6357 2.2655 33.6313 2.26904 33.6277C3.35042 31.4928 4.79049 29.5729 6.50689 27.9429C10.216 24.4207 15.2164 22.2582 20.7172 22.2582H38.4754C42.3501 22.2582 45.6926 24.5555 47.2318 27.8707C47.8155 29.1224 48.1432 30.5221 48.1432 31.9969V31.9995Z" fill="white"/>
<path d="M62.1365 4.67039V4.67396C61.8407 11.3124 56.2292 16.5199 49.5717 16.5199H12.9119C6.68047 16.5199 1.53484 21.1832 0.718264 27.2292C0.650954 27.0428 0.583645 26.8554 0.525192 26.669C0.181559 25.1229 0 23.5126 0 21.863C0 20.7817 0.078823 19.72 0.228498 18.6825C1.75625 8.11319 10.789 0 21.7038 0H56.0281C58.9286 0 61.4111 1.97165 62.1365 4.67039Z" fill="white"/>
</g>
<defs>
<clipPath id="clip0_12538_38004">
<rect width="62.3499" height="64" fill="white"/>
</clipPath>
</defs>
</svg>
