<svg width="150" height="41" viewBox="0 0 150 41" fill="none" xmlns="http://www.w3.org/2000/svg">
<g clip-path="url(#clip0_7569_23361)">
<path d="M46.709 30.0833V12C46.709 11.0335 47.4636 10.25 48.3944 10.25H59.5811V13.99H50.7739V18.3533L59.1202 18.325V21.9517L52.2498 21.9652C52.0204 21.9656 51.7982 21.8809 51.6236 21.7263L50.7739 20.9746V21.98V30.0833H46.709Z" fill="white"/>
<path d="M60.9473 30.0832V15.9166H65.0394V30.0832H60.9473Z" fill="white"/>
<path d="M66.7422 30.0833V15.9167H70.8071V17.5883C71.6472 16.4833 73.1375 15.4917 75.0076 15.4917C79.0723 15.4917 80.9963 17.9567 80.9963 22.1217V30.0833H76.9044V21.64C76.9044 20.025 75.6037 19.0617 73.8964 19.0617C72.108 19.0617 70.8613 20.0817 70.8613 21.7817V30.0833H66.7422Z" fill="white"/>
<path d="M90.1882 30.6218C84.9038 30.5933 82.3564 26.7968 82.3564 23.2551V22.8017C82.3564 19.1751 85.0121 15.4351 90.161 15.4351C95.3369 15.4351 97.9926 19.1751 97.9926 22.8017C97.9926 23.2267 98.0198 23.5101 97.9656 23.9351H86.5027C86.8008 25.9183 88.1015 27.0801 90.1882 27.1083C91.8683 27.0801 93.7114 26.7111 94.3805 24.8984H97.8028C97.1525 27.8733 94.6324 30.5933 90.1882 30.6218ZM94.4347 21.2434C93.7114 19.4102 91.9225 18.9484 90.161 18.9484C88.4267 18.9484 87.2072 19.7701 86.7194 21.2434H94.4347Z" fill="white"/>
<path d="M106.934 30.5933C102.463 30.5933 99.3467 27.165 99.3467 23.1417V22.6033C99.3467 18.58 102.463 15.1517 106.934 15.1517C108.506 15.1517 110.773 16.1871 111.677 17.9254L112.278 19.0616L111.836 16.6341C111.73 16.0519 111.677 15.4607 111.677 14.8682V10.25H115.769V30.0833H111.677V28.1015C110.94 29.4923 108.344 30.5933 106.934 30.5933ZM107.395 27.0233C109.644 27.0233 111.243 25.55 111.243 23.34V22.405C111.243 20.195 109.644 18.7217 107.395 18.7217C105.525 18.7217 103.439 19.77 103.439 22.915C103.439 25.4367 105.064 27.0233 107.395 27.0233Z" fill="white"/>
<path d="M124.718 35.75V32.2367H127.726C128.62 32.2367 128.999 31.84 128.999 31.0467V28.623C128.168 30.3612 126.127 30.82 124.718 30.82C120.246 30.82 117.13 27.3917 117.13 23.3683V22.83C117.13 18.8066 120.246 15.3783 124.718 15.3783C126.1 15.3783 127.834 15.9166 128.972 17.6718V15.9166H133.091V30.7067C133.091 31.8682 132.929 32.8317 132.549 33.5682C131.736 35.155 130.029 35.75 127.455 35.75H124.718ZM125.151 27.2217C127.292 27.2217 129.026 25.89 128.999 23.8783L128.972 22.235C128.945 20.2233 127.265 18.92 125.151 18.92C122.821 18.92 121.195 20.5066 121.195 23.0283C121.195 25.635 122.821 27.2217 125.151 27.2217Z" fill="white"/>
<path d="M142.189 30.6218C136.905 30.5933 134.357 26.7968 134.357 23.2551V22.8017C134.357 19.1751 137.013 15.4351 142.162 15.4351C147.338 15.4351 149.994 19.1751 149.994 22.8017C149.994 23.2267 150.02 23.5101 149.966 23.9351H138.503C138.802 25.9183 140.102 27.0801 142.189 27.1083C143.869 27.0801 145.712 26.7111 146.381 24.8984H149.804C149.153 27.8733 146.633 30.5933 142.189 30.6218ZM146.436 21.2434C145.712 19.4102 143.923 18.9484 142.162 18.9484C140.427 18.9484 139.208 19.7701 138.72 21.2434H146.436Z" fill="white"/>
<path d="M60.9473 14.5422V11.4132H65.0394V14.5422H60.9473Z" fill="white"/>
<mask id="mask0_7569_23361" style="mask-type:luminance" maskUnits="userSpaceOnUse" x="0" y="0" width="38" height="41">
<path d="M37.5602 0.5H0V40.5H37.5602V0.5Z" fill="white"/>
</mask>
<g mask="url(#mask0_7569_23361)">
<path d="M18.7802 34.6615C18.7802 37.362 17.026 39.633 14.6438 40.2987C14.6342 40.3037 14.6225 40.306 14.6107 40.3087C14.0542 40.4107 13.4839 40.4727 12.9061 40.4927H12.8944C12.7567 40.4977 12.6185 40.5 12.4809 40.5C8.91746 40.5 5.70084 38.937 3.42589 36.433C3.16179 36.1397 2.90997 35.837 2.66987 35.5185C2.66775 35.5162 2.66508 35.5135 2.66294 35.5085C2.66082 35.5062 2.65815 35.5012 2.656 35.4985C2.65389 35.4957 2.65389 35.4962 2.65389 35.4935C2.32363 34.7507 2.14062 33.921 2.14062 33.0462C2.14062 31.7965 2.51624 30.6412 3.15592 29.6922C3.41523 29.3047 3.71932 28.9517 4.05919 28.644C4.19255 28.5247 4.33023 28.4102 4.47267 28.3037C5.17372 28.6367 5.95374 28.823 6.77643 28.823H13.1947C16.2801 28.823 18.7813 31.4365 18.7813 34.6615H18.7802Z" fill="white"/>
<path d="M29.002 20.4997C29.002 23.9791 26.433 26.3383 23.2612 26.3383C20.8006 26.3383 18.3399 26.3383 15.8798 26.3383C13.0036 26.3383 10.1269 26.3383 7.25061 26.3383C5.84583 26.3383 4.56431 26.8798 3.58262 27.774C3.24277 28.0825 2.93812 28.4348 2.67937 28.8223C2.03967 29.7713 1.66407 30.9268 1.66407 32.1763C1.66407 33.4258 2.02793 34.5515 2.65322 35.4928C2.37739 35.1275 2.1229 34.7473 1.88761 34.3548C0.910729 32.72 0.268897 30.8393 0.0666908 28.8218C0.0240086 28.3723 0 27.9175 0 27.4553C0 27.0778 0.0144052 26.7045 0.0453496 26.3373C0.185667 24.6153 0.644499 22.9905 1.36476 21.5246C1.36476 21.5224 1.36476 21.5196 1.36689 21.5173C2.01833 20.183 2.88585 18.9831 3.91982 17.9644C6.15421 15.763 9.16649 14.4114 12.4802 14.4114H23.1779C25.512 14.4114 27.5256 15.8472 28.4528 17.9192C28.8046 18.7015 29.002 19.5764 29.002 20.4981V20.4997Z" fill="white"/>
<path d="M4.47103 28.3038C4.32859 28.4108 4.19039 28.5253 4.05755 28.644C3.71768 28.9523 3.41306 29.3048 3.15428 29.6923C2.5146 30.6413 2.13899 31.7965 2.13899 33.0463C2.13899 33.9205 2.32199 34.7508 2.65225 35.4935C2.02695 34.5518 1.66309 33.4093 1.66309 32.1768C1.66309 30.9445 2.03869 29.772 2.6784 28.823C2.93768 28.4355 3.2418 28.0825 3.58165 27.7748C3.86229 27.9783 4.15677 28.155 4.4705 28.3038H4.47103Z" fill="#290B70"/>
<path d="M37.4316 3.419V3.42123C37.2534 7.57028 33.873 10.8249 29.8625 10.8249H7.77826C4.02438 10.8249 0.924599 13.7395 0.432689 17.5183C0.39214 17.4017 0.351592 17.2847 0.31638 17.1681C0.109373 16.2018 0 15.1953 0 14.1643C0 13.4885 0.0474838 12.825 0.13765 12.1765C1.05798 5.57075 6.49941 0.5 13.0746 0.5H33.7519C35.4992 0.5 36.9946 1.73228 37.4316 3.419Z" fill="white"/>
</g>
</g>
<defs>
<clipPath id="clip0_7569_23361">
<rect width="150" height="40" fill="white" transform="translate(0 0.5)"/>
</clipPath>
</defs>
</svg>
