<svg width="20" height="21" viewBox="0 0 20 21" fill="none" xmlns="http://www.w3.org/2000/svg">
<path d="M16.067 15.247C16.1251 15.3051 16.1712 15.374 16.2026 15.4499C16.234 15.5258 16.2502 15.6071 16.2502 15.6892C16.2502 15.7713 16.234 15.8526 16.2026 15.9285C16.1712 16.0044 16.1251 16.0733 16.067 16.1314C16.009 16.1894 15.94 16.2355 15.8642 16.2669C15.7883 16.2984 15.707 16.3145 15.6249 16.3145C15.5427 16.3145 15.4614 16.2984 15.3855 16.2669C15.3097 16.2355 15.2407 16.1894 15.1827 16.1314L9.99986 10.9478L4.81705 16.1314C4.69977 16.2487 4.54071 16.3145 4.37486 16.3145C4.20901 16.3145 4.04995 16.2487 3.93267 16.1314C3.8154 16.0141 3.74951 15.855 3.74951 15.6892C3.74951 15.5233 3.8154 15.3643 3.93267 15.247L9.11627 10.0642L3.93267 4.88138C3.8154 4.7641 3.74951 4.60504 3.74951 4.43919C3.74951 4.27334 3.8154 4.11428 3.93267 3.997C4.04995 3.87973 4.20901 3.81384 4.37486 3.81384C4.54071 3.81384 4.69977 3.87973 4.81705 3.997L9.99986 9.1806L15.1827 3.997C15.2999 3.87973 15.459 3.81384 15.6249 3.81384C15.7907 3.81384 15.9498 3.87973 16.067 3.997C16.1843 4.11428 16.2502 4.27334 16.2502 4.43919C16.2502 4.60504 16.1843 4.7641 16.067 4.88138L10.8835 10.0642L16.067 15.247Z" fill="#575757"/>
</svg>
