
<svg width="16" height="16" viewBox="0 0 16 16" fill="none" xmlns="http://www.w3.org/2000/svg">
<rect width="16" height="16" fill="white"/>
<mask id="mask0_188445_6184" style="mask-type:luminance" maskUnits="userSpaceOnUse" x="1" y="1" width="14" height="15">
<path d="M14.7207 1H1V15.2943H14.7207V1Z" fill="white"/>
</mask>
<g mask="url(#mask0_188445_6184)">
<path d="M7.86041 13.2079C7.86041 14.1729 7.21959 14.9845 6.34938 15.2224C6.34587 15.2242 6.34159 15.225 6.33729 15.226C6.13402 15.2624 5.92567 15.2846 5.7146 15.2917H5.71031C5.66003 15.2935 5.60955 15.2943 5.55927 15.2943C4.25755 15.2943 3.08252 14.7358 2.25149 13.8409C2.15501 13.7361 2.06302 13.6279 1.97532 13.5141C1.97454 13.5133 1.97357 13.5123 1.97278 13.5106C1.97201 13.5098 1.97103 13.508 1.97025 13.507C1.96948 13.506 1.96948 13.5062 1.96948 13.5052C1.84883 13.2398 1.78198 12.9433 1.78198 12.6307C1.78198 12.184 1.91919 11.7712 2.15287 11.4321C2.24759 11.2936 2.35868 11.1675 2.48283 11.0575C2.53155 11.0149 2.58184 10.9739 2.63387 10.9359C2.88997 11.0549 3.17491 11.1214 3.47544 11.1214H5.82004C6.94713 11.1214 7.8608 12.0554 7.8608 13.2079H7.86041Z" fill="url(#paint0_linear_188445_6184)"/>
<path d="M11.5944 8.14706C11.5944 9.39044 10.6559 10.2335 9.49728 10.2335C8.59843 10.2335 7.69956 10.2335 6.80089 10.2335C5.75021 10.2335 4.69933 10.2335 3.64864 10.2335C3.13548 10.2335 2.66734 10.427 2.30873 10.7466C2.18458 10.8568 2.07329 10.9827 1.97877 11.1212C1.74509 11.4603 1.60788 11.8732 1.60788 12.3198C1.60788 12.7663 1.7408 13.1686 1.96922 13.5049C1.86846 13.3744 1.77549 13.2385 1.68954 13.0983C1.33269 12.5141 1.09823 11.842 1.02436 11.121C1.00877 10.9604 1 10.7979 1 10.6327C1 10.4978 1.00526 10.3644 1.01657 10.2331C1.06782 9.6178 1.23543 9.03716 1.49855 8.5133C1.49855 8.51251 1.49855 8.51151 1.49932 8.51071C1.73729 8.03389 2.0542 7.60508 2.4319 7.24103C3.24813 6.45435 4.34851 5.97134 5.55901 5.97134H9.46688C10.3195 5.97134 11.0551 6.48444 11.3938 7.22489C11.5223 7.50445 11.5944 7.81709 11.5944 8.14646V8.14706Z" fill="url(#paint1_linear_188445_6184)"/>
<path d="M2.6334 10.9359C2.58137 10.9741 2.53089 11.0151 2.48236 11.0575C2.35821 11.1676 2.24693 11.2936 2.1524 11.4321C1.91872 11.7712 1.78151 12.1841 1.78151 12.6307C1.78151 12.9431 1.84836 13.2398 1.96901 13.5052C1.74059 13.1687 1.60767 12.7604 1.60767 12.3199C1.60767 11.8796 1.74487 11.4606 1.97856 11.1215C2.07327 10.983 2.18437 10.8568 2.30851 10.7469C2.41103 10.8196 2.51861 10.8827 2.63321 10.9359H2.6334Z" fill="url(#paint2_linear_188445_6184)"/>
<path d="M14.7206 2.39483V2.43648C14.7118 3.96003 13.4606 5.17272 11.9704 5.17272H3.95239C2.58987 5.17272 1.46434 6.20708 1.28562 7.5495C1.21702 7.35681 1.15972 7.15894 1.11548 6.9565C1.12854 6.99814 1.14335 7.03999 1.15797 7.08164C1.33766 5.73124 2.47021 4.68971 3.8413 4.68971H11.9086C13.3737 4.68971 14.6085 3.52663 14.6736 2.04395C14.7031 2.15573 14.7196 2.27309 14.7206 2.39464V2.39483Z" fill="url(#paint3_linear_188445_6184)"/>
<path d="M14.6737 2.04313V2.04392C14.6086 3.52662 13.3738 4.68969 11.9087 4.68969H3.84139C2.4701 4.68969 1.33776 5.73123 1.15806 7.08161C1.14325 7.03997 1.12844 6.99812 1.11557 6.95647C1.03995 6.61116 1 6.2515 1 5.88306C1 5.64156 1.01735 5.40444 1.05028 5.17271C1.38648 2.81207 3.37423 1 5.77613 1H13.3295C13.9678 1 14.5141 1.44036 14.6737 2.04313Z" fill="url(#paint4_linear_188445_6184)"/>
</g>
<defs>
<linearGradient id="paint0_linear_188445_6184" x1="1.78159" y1="13.1151" x2="7.86041" y2="13.1151" gradientUnits="userSpaceOnUse">
<stop stop-color="#A440F2"/>
<stop offset="1" stop-color="#2E0C7D"/>
</linearGradient>
<linearGradient id="paint1_linear_188445_6184" x1="1" y1="9.73856" x2="11.5944" y2="9.73856" gradientUnits="userSpaceOnUse">
<stop stop-color="#A440F2"/>
<stop offset="1" stop-color="#2E0C7D"/>
</linearGradient>
<linearGradient id="paint2_linear_188445_6184" x1="2.15552" y1="12.1356" x2="1.07048" y2="11.2966" gradientUnits="userSpaceOnUse">
<stop stop-color="#A440F2"/>
<stop offset="1" stop-color="#2E0C7D"/>
</linearGradient>
<linearGradient id="paint3_linear_188445_6184" x1="-4.71705" y1="-0.518765" x2="33.7963" y2="5.98109" gradientUnits="userSpaceOnUse">
<stop offset="0.0860993" stop-color="#2E0C7D"/>
<stop offset="0.96398" stop-color="#A440F2"/>
</linearGradient>
<linearGradient id="paint4_linear_188445_6184" x1="0.560234" y1="6.04768" x2="13.5991" y2="1.17596" gradientUnits="userSpaceOnUse">
<stop stop-color="#A440F2"/>
<stop offset="1" stop-color="#2E0C7D"/>
</linearGradient>
</defs>
</svg>
