<svg width="20" height="21" viewBox="0 0 20 21" fill="none" xmlns="http://www.w3.org/2000/svg">
<path d="M16.25 6.31421H13.75V4.43921C13.75 3.44465 13.3549 2.49082 12.6517 1.78756C11.9484 1.0843 10.9946 0.689209 10 0.689209C9.00544 0.689209 8.05161 1.0843 7.34835 1.78756C6.64509 2.49082 6.25 3.44465 6.25 4.43921V6.31421H3.75C3.41848 6.31421 3.10054 6.44591 2.86612 6.68033C2.6317 6.91475 2.5 7.23269 2.5 7.56421V16.3142C2.5 16.6457 2.6317 16.9637 2.86612 17.1981C3.10054 17.4325 3.41848 17.5642 3.75 17.5642H16.25C16.5815 17.5642 16.8995 17.4325 17.1339 17.1981C17.3683 16.9637 17.5 16.6457 17.5 16.3142V7.56421C17.5 7.23269 17.3683 6.91475 17.1339 6.68033C16.8995 6.44591 16.5815 6.31421 16.25 6.31421ZM7.5 4.43921C7.5 3.77617 7.76339 3.14028 8.23223 2.67144C8.70107 2.2026 9.33696 1.93921 10 1.93921C10.663 1.93921 11.2989 2.2026 11.7678 2.67144C12.2366 3.14028 12.5 3.77617 12.5 4.43921V6.31421H7.5V4.43921ZM16.25 16.3142H3.75V7.56421H16.25V16.3142Z" fill="#B9B9B9"/>
</svg>
